<svg width="22" height="30" viewBox="0 0 22 30" fill="none" xmlns="http://www.w3.org/2000/svg">
<path fill-rule="evenodd" clip-rule="evenodd" d="M6.11266 0H15.8873C19.257 0 22 2.64003 22 5.80946C22 7.66232 21.0615 9.33597 19.6079 10.4044C21.0615 11.4742 22 13.1465 22 15.0007C22 18.1688 19.257 20.8088 15.8873 20.8088C14.5144 20.8088 13.246 20.3718 12.2253 19.6383V24.1905C12.2253 27.36 9.48368 30 6.11266 30C2.74304 30 0 27.36 0 24.1905C0 22.3377 0.938464 20.6654 2.39214 19.5956C0.938464 18.5258 0 16.8536 0 15.0007C0 13.1465 0.938464 11.4742 2.39214 10.4044C0.938464 9.33597 0 7.66232 0 5.80946C0 2.64003 2.74304 0 6.11266 0ZM9.77468 20.8088H6.11266C4.12152 20.8088 2.45063 22.3184 2.45063 24.1905C2.45063 26.0641 4.12152 27.5723 6.11266 27.5723C8.1052 27.5723 9.77468 26.0641 9.77468 24.1905V20.8088ZM12.2253 15.0007C12.2253 13.1272 13.8948 11.6176 15.8873 11.6176C17.8785 11.6176 19.5494 13.1272 19.5494 15.0007C19.5494 16.8729 17.8785 18.3824 15.8873 18.3824C13.8948 18.3824 12.2253 16.8729 12.2253 15.0007ZM6.06671 11.619C4.09506 11.641 2.45063 13.1423 2.45063 15.0007C2.45063 16.8729 4.12152 18.3824 6.11266 18.3824H9.77468V11.6176H6.11266L6.06671 11.619ZM9.77468 9.19121V2.42772H6.11266C4.12152 2.42772 2.45063 3.93593 2.45063 5.80946C2.45063 7.683 4.12152 9.19121 6.11266 9.19121H9.77468ZM12.2253 9.19121H15.8873C17.8785 9.19121 19.5494 7.683 19.5494 5.80946C19.5494 3.93593 17.8785 2.42772 15.8873 2.42772H12.2253V9.19121Z" fill="black"/>
</svg>
