<svg width="45" height="45" viewBox="0 0 45 45" fill="none" xmlns="http://www.w3.org/2000/svg">
<rect width="45" height="45" rx="5" fill="black"/>
<path d="M18.3333 11.25H23.8618C24.3524 11.25 24.75 11.6476 24.75 12.1382C24.75 12.6287 24.3524 13.0263 23.8618 13.0263H19.1046C18.6501 13.0263 18.2528 13.3327 18.1374 13.7722L16.3295 20.6538C16.1629 21.2878 16.6411 21.9079 17.2967 21.9079H23.1667C23.719 21.9079 24.1667 22.3556 24.1667 22.9079V23.2763C24.1667 23.8286 23.719 24.2763 23.1667 24.2763H16.8492C16.3594 24.2763 15.9418 24.631 15.8624 25.1143L15.0241 30.2196C14.9242 30.8284 15.394 31.3816 16.0109 31.3816H23.75C24.3023 31.3816 24.75 31.8293 24.75 32.3816V32.75C24.75 33.3023 24.3023 33.75 23.75 33.75H10.1978C9.57404 33.75 9.1025 33.1852 9.21389 32.5714L12.9343 12.0714C13.0206 11.5958 13.4348 11.25 13.9182 11.25H18.3333Z" fill="white"/>
<path d="M29.5833 11.25H24.4058C23.9469 11.25 23.5469 11.5623 23.4356 12.0075L22.8377 14.3994C22.6181 15.2774 22.6809 16.2023 23.0171 17.0426C23.4087 18.0217 24.146 18.823 25.0891 19.2946L25.6251 19.5626C26.521 20.0105 27.5308 20.1791 28.5236 20.0463L30.1138 19.8338C30.6985 19.7556 31.0864 19.1878 30.9466 18.6147C30.8351 18.1575 30.4179 17.8415 29.9477 17.8579L27.389 17.9472C26.4404 17.9803 25.5356 17.5474 24.9661 16.7881L24.7875 16.55C24.4057 16.041 24.2588 15.3934 24.3836 14.7694C24.5957 13.7088 25.5364 12.952 26.6179 12.9718L28.8304 13.0125C29.2741 13.0206 29.6566 13.3268 29.7618 13.7579L31.6284 21.4094C31.7047 21.7223 31.6257 22.0529 31.4159 22.2974L23.8659 31.1007C23.7105 31.2819 23.625 31.5129 23.625 31.7517V33.3703C23.625 33.58 23.795 33.75 24.0047 33.75C24.1202 33.75 24.2295 33.6974 24.3015 33.6072L30.3243 26.0623C30.8683 25.3808 31.963 25.6734 32.0944 26.5354L32.8333 31.3816L33.0601 32.8979C33.1333 33.3876 33.5539 33.75 34.0491 33.75H35.3301C35.9652 33.75 36.4395 33.1655 36.3086 32.544L34.3125 23.0625L31.6829 12.0184C31.5757 11.5679 31.1732 11.25 30.7101 11.25H29.5833Z" fill="white"/>
</svg>
