<svg width="24" height="24" viewBox="0 0 24 24" fill="none" xmlns="http://www.w3.org/2000/svg">
<path d="M0 0V24H24V0H0ZM12.5261 20.5307C12.1725 21.2492 11.4969 21.7216 10.7147 21.9494C9.51227 22.2255 8.36273 22.0683 7.5069 21.5544C6.93405 21.2032 6.48696 20.6626 6.18405 20.0399C6.79294 19.6679 7.40031 19.2937 8.0092 18.9218C8.02531 18.9287 8.07285 19.0153 8.13727 19.1273C8.36963 19.5176 8.57055 19.7937 8.96549 19.987C9.35353 20.1189 10.204 20.204 10.533 19.5215C10.7339 19.1748 10.6695 18.0368 10.6695 16.8029C10.6695 14.8635 10.6787 12.9563 10.6787 10.9931H12.9233C12.9233 13.0544 12.9348 15.1212 12.9233 17.1794C12.9279 18.441 13.0376 19.5882 12.5261 20.5307ZM21.839 19.8965C21.059 22.566 16.7078 22.6526 14.9701 20.8888C14.6028 20.4739 14.3727 20.2569 14.1534 19.7776C15.0775 19.2462 15.0775 19.2462 15.9762 18.7262C16.4647 19.477 16.9164 19.8896 17.7285 20.0583C18.8305 20.1925 19.9394 19.8144 19.691 18.6442C19.4356 17.6879 17.4348 17.4555 16.0729 16.4333C14.6902 15.5046 14.3666 13.2485 15.5023 11.9594C15.8811 11.4824 16.5268 11.1265 17.204 10.9555L17.911 10.8643C19.2684 10.8367 20.1173 11.1948 20.74 11.8911C20.9133 12.0667 21.0544 12.2561 21.3198 12.6672C20.5966 13.1281 20.5989 13.1235 19.5629 13.7945C19.3413 13.3175 18.9747 13.0184 18.5867 12.8888C17.9847 12.7063 17.2247 12.9049 17.0675 13.5414C17.013 13.7377 17.0245 13.9202 17.1112 14.2439C17.3551 14.8006 18.1741 15.0422 18.9087 15.3796C21.0238 16.2377 21.7377 17.1564 21.9133 18.2515C22.0821 19.194 21.8719 19.8052 21.8405 19.8965H21.839Z" fill="black"/>
</svg>
