<svg width="15" height="15" viewBox="0 0 15 15" fill="none" xmlns="http://www.w3.org/2000/svg">
<path d="M7.53843 14.1162C11.0787 14.1162 13.9487 11.1821 13.9487 7.56283C13.9487 3.94348 11.0787 1.00943 7.53843 1.00943C3.99814 1.00943 1.12817 3.94348 1.12817 7.56283C1.12817 11.1821 3.99814 14.1162 7.53843 14.1162Z" stroke="white" stroke-linecap="round" stroke-linejoin="round"/>
<path d="M9.03428 12.1501V10.9292C9.05031 10.7264 9.02281 10.5225 8.95351 10.331C8.88428 10.1396 8.77486 9.96502 8.63261 9.81895C9.97447 9.67006 11.3847 9.16381 11.3847 6.84115C11.3846 6.24719 11.1551 5.67603 10.7437 5.24586C10.9385 4.72625 10.9247 4.15189 10.7052 3.6421C10.7052 3.6421 10.2009 3.49322 9.03428 4.2717C8.05479 4.00745 7.02236 4.00745 6.04285 4.2717C4.87618 3.49322 4.3719 3.6421 4.3719 3.6421C4.1524 4.15189 4.13863 4.72625 4.33344 5.24586C3.91897 5.67922 3.68922 6.25554 3.69242 6.85386C3.69242 9.15955 5.10267 9.6658 6.44454 9.83166C6.30396 9.9763 6.19552 10.1488 6.12631 10.3379C6.05709 10.527 6.02866 10.7284 6.04285 10.9292V12.1501" stroke="white" stroke-linecap="round" stroke-linejoin="round"/>
<path d="M6.04224 11.2995C4.76019 11.7134 3.69181 11.2995 3.05078 10.0233" stroke="white" stroke-linecap="round" stroke-linejoin="round"/>
</svg>
