<svg width="15" height="15" viewBox="0 0 15 15" fill="none" xmlns="http://www.w3.org/2000/svg">
<path d="M7.53846 10.6308C9.11189 10.6308 10.3875 9.32673 10.3875 7.71816C10.3875 6.10957 9.11189 4.80554 7.53846 4.80554C5.96499 4.80554 4.68945 6.10957 4.68945 7.71816C4.68945 9.32673 5.96499 10.6308 7.53846 10.6308Z" stroke="white" stroke-linecap="round" stroke-linejoin="round"/>
<path d="M1.12817 10.6307V4.80548C1.12817 2.79474 2.7226 1.1647 4.68943 1.1647H10.3874C12.3542 1.1647 13.9487 2.79474 13.9487 4.80548V10.6307C13.9487 12.6414 12.3542 14.2715 10.3874 14.2715H4.68943C2.7226 14.2715 1.12817 12.6414 1.12817 10.6307Z" stroke="white"/>
<path d="M11.4551 3.72395L11.4618 3.7124" stroke="white" stroke-linecap="round" stroke-linejoin="round"/>
</svg>
