<svg width="60" height="60" viewBox="0 0 60 60" fill="none" xmlns="http://www.w3.org/2000/svg">
<path d="M50 30H10C9.30875 30 8.75 29.4412 8.75 28.75V1.25C8.75 0.55875 9.30875 0 10 0H50C50.6912 0 51.25 0.55875 51.25 1.25V28.75C51.25 29.4412 50.6912 30 50 30ZM11.25 27.5H48.75V2.5H11.25V27.5Z" fill="white"/>
<path d="M17.5 25C16.8088 25 16.25 24.4412 16.25 23.75V17.1875C16.25 16.4963 16.8088 15.9375 17.5 15.9375C18.1912 15.9375 18.75 16.4963 18.75 17.1875V23.75C18.75 24.4412 18.1912 25 17.5 25ZM22.5 25C21.8088 25 21.25 24.4412 21.25 23.75V15C21.25 14.3088 21.8088 13.75 22.5 13.75C23.1912 13.75 23.75 14.3088 23.75 15V23.75C23.75 24.4412 23.1912 25 22.5 25ZM27.5 25C26.8088 25 26.25 24.4412 26.25 23.75V12.8125C26.25 12.1213 26.8088 11.5625 27.5 11.5625C28.1912 11.5625 28.75 12.1213 28.75 12.8125V23.75C28.75 24.4412 28.1912 25 27.5 25ZM32.5 25C31.8088 25 31.25 24.4412 31.25 23.75V10.625C31.25 9.93375 31.8088 9.375 32.5 9.375C33.1912 9.375 33.75 9.93375 33.75 10.625V23.75C33.75 24.4412 33.1912 25 32.5 25ZM37.5 25C36.8088 25 36.25 24.4412 36.25 23.75V8.4375C36.25 7.74625 36.8088 7.1875 37.5 7.1875C38.1912 7.1875 38.75 7.74625 38.75 8.4375V23.75C38.75 24.4412 38.1912 25 37.5 25ZM42.5 25C41.8088 25 41.25 24.4412 41.25 23.75V6.25C41.25 5.55875 41.8088 5 42.5 5C43.1912 5 43.75 5.55875 43.75 6.25V23.75C43.75 24.4412 43.1912 25 42.5 25Z" fill="white"/>
<path d="M45 25H15C14.3088 25 13.75 24.4412 13.75 23.75C13.75 23.0588 14.3088 22.5 15 22.5H45C45.6912 22.5 46.25 23.0588 46.25 23.75C46.25 24.4412 45.6912 25 45 25Z" fill="white"/>
<path d="M55 60H5C4.30875 60 3.75 59.4412 3.75 58.75V18.75C3.75 18.0588 4.30875 17.5 5 17.5H10C10.6912 17.5 11.25 18.0588 11.25 18.75V27.5H48.75V18.75C48.75 18.0588 49.3088 17.5 50 17.5H55C55.6912 17.5 56.25 18.0588 56.25 18.75V58.75C56.25 59.4412 55.6912 60 55 60ZM6.25 57.5H53.75V20H51.25V28.75C51.25 29.4412 50.6912 30 50 30H10C9.30875 30 8.75 29.4412 8.75 28.75V20H6.25V57.5Z" fill="white"/>
<path d="M27.5 55C22.6762 55 18.75 51.0737 18.75 46.25C18.75 41.4262 22.6762 37.5 27.5 37.5C28.1912 37.5 28.75 38.0588 28.75 38.75V45H35C35.6912 45 36.25 45.5588 36.25 46.25C36.25 51.0737 32.3237 55 27.5 55ZM26.25 40.1263C23.4012 40.7075 21.25 43.2312 21.25 46.25C21.25 49.6962 24.0538 52.5 27.5 52.5C30.5188 52.5 33.0437 50.3488 33.6238 47.5H27.5C26.8088 47.5 26.25 46.9412 26.25 46.25V40.1263Z" fill="white"/>
<path d="M40 42.5H32.5C31.8088 42.5 31.25 41.9412 31.25 41.25V33.75C31.25 33.0588 31.8088 32.5 32.5 32.5C37.3238 32.5 41.25 36.4262 41.25 41.25C41.25 41.9412 40.6912 42.5 40 42.5ZM33.75 40H38.6238C38.1263 37.555 36.195 35.6237 33.75 35.1262V40Z" fill="white"/>
</svg>
