<svg width="90" height="90" viewBox="0 0 90 90" fill="none" xmlns="http://www.w3.org/2000/svg">
<path d="M36.8182 16.3636C36.0091 16.3636 35.2181 16.6036 34.5454 17.0531C33.8726 17.5026 33.3483 18.1415 33.0387 18.889C32.729 19.6365 32.648 20.4591 32.8059 21.2526C32.9637 22.0462 33.3533 22.7751 33.9255 23.3473C34.4976 23.9194 35.2265 24.309 36.0201 24.4668C36.8136 24.6247 37.6362 24.5437 38.3837 24.2341C39.1312 23.9244 39.7701 23.4001 40.2196 22.7273C40.6692 22.0546 40.9091 21.2636 40.9091 20.4545C40.9091 19.3696 40.4781 18.329 39.7109 17.5618C38.9437 16.7946 37.9032 16.3636 36.8182 16.3636ZM20.4545 16.3636C19.6454 16.3636 18.8545 16.6036 18.1818 17.0531C17.509 17.5026 16.9847 18.1415 16.675 18.889C16.3654 19.6365 16.2844 20.4591 16.4422 21.2526C16.6001 22.0462 16.9897 22.7751 17.5618 23.3473C18.134 23.9194 18.8629 24.309 19.6564 24.4668C20.45 24.6247 21.2726 24.5437 22.0201 24.2341C22.7676 23.9244 23.4065 23.4001 23.856 22.7273C24.3055 22.0546 24.5455 21.2636 24.5455 20.4545C24.5455 19.3696 24.1144 18.329 23.3473 17.5618C22.5801 16.7946 21.5395 16.3636 20.4545 16.3636ZM53.1818 16.3636C52.3727 16.3636 51.5818 16.6036 50.909 17.0531C50.2363 17.5026 49.7119 18.1415 49.4023 18.889C49.0927 19.6365 49.0117 20.4591 49.1695 21.2526C49.3274 22.0462 49.717 22.7751 50.2891 23.3473C50.8612 23.9194 51.5902 24.309 52.3837 24.4668C53.1773 24.6247 53.9998 24.5437 54.7473 24.2341C55.4949 23.9244 56.1338 23.4001 56.5833 22.7273C57.0328 22.0546 57.2727 21.2636 57.2727 20.4545C57.2727 19.3696 56.8417 18.329 56.0745 17.5618C55.3073 16.7946 54.2668 16.3636 53.1818 16.3636ZM77.7273 0H12.2727C9.0178 0 5.89618 1.29302 3.5946 3.5946C1.29302 5.89618 0 9.0178 0 12.2727V77.7273C0 80.9822 1.29302 84.1038 3.5946 86.4054C5.89618 88.707 9.0178 90 12.2727 90H77.7273C80.9822 90 84.1038 88.707 86.4054 86.4054C88.707 84.1038 90 80.9822 90 77.7273V12.2727C90 9.0178 88.707 5.89618 86.4054 3.5946C84.1038 1.29302 80.9822 0 77.7273 0ZM81.8182 77.7273C81.8182 78.8122 81.3872 79.8528 80.62 80.62C79.8528 81.3872 78.8122 81.8182 77.7273 81.8182H12.2727C11.1877 81.8182 10.1472 81.3872 9.38002 80.62C8.61282 79.8528 8.18182 78.8122 8.18182 77.7273V40.9091H81.8182V77.7273ZM81.8182 32.7273H8.18182V12.2727C8.18182 11.1878 8.61282 10.1472 9.38002 9.38002C10.1472 8.61282 11.1877 8.18182 12.2727 8.18182H77.7273C78.8122 8.18182 79.8528 8.61282 80.62 9.38002C81.3872 10.1472 81.8182 11.1878 81.8182 12.2727V32.7273Z" fill="white"/>
</svg>
