<svg width="53" height="24" viewBox="0 0 53 24" fill="none" xmlns="http://www.w3.org/2000/svg">
<path d="M52.3573 2.40028C52.3205 2.38154 52.2802 2.37068 52.2389 2.3684C52.1977 2.36612 52.1565 2.37246 52.1178 2.38702C52.0792 2.40158 52.044 2.42405 52.0146 2.45297C51.9851 2.4819 51.962 2.51665 51.9467 2.55502C51.9467 2.55502 51.0562 3.63186 50.352 3.50238C49.6478 3.37291 47.4246 3.47081 46.6288 3.60344C45.833 3.73607 44.9078 3.2466 45.293 2.85817C45.293 2.85817 45.293 2.71923 46.0067 2.44765C46.4389 2.28922 46.8454 2.06789 47.213 1.79081C47.813 1.49797 48.3724 1.12858 48.8773 0.69186C49.4394 0.129754 49.0415 0.000280096 49.0415 0.000280096C49.0415 0.000280096 48.7604 -0.0344568 45.353 0.669754C44.5977 0.79788 43.9169 1.20188 43.4425 1.80344C43.2846 1.99607 43.1488 2.15081 43.0288 2.27712C42.9067 2.41593 42.7736 2.54476 42.6309 2.66238C42.1815 2.81703 41.7167 2.9229 41.2446 2.97817C39.1381 3.11857 37.0412 3.37687 34.9636 3.75186C31.7394 4.31081 28.5878 5.21712 25.7267 6.75502C23.172 8.1287 20.6488 8.24239 17.9678 7.60133C15.8804 7.10238 13.8151 6.51502 11.7215 6.04765C9.51095 5.55502 6.56147 4.78449 4.28779 4.78449C2.01411 4.78449 -0.338527 6.48028 0.0404201 9.64133C0.217262 11.154 0.330946 11.1066 0.987788 12.9729C2.7499 17.015 5.24148 20.4887 7.9699 23.6466C8.24148 23.9624 8.652 23.9877 9.432 23.7003C9.52989 23.5898 8.80042 22.8856 8.60463 22.6992C8.39214 22.4854 8.19182 22.2598 8.00463 22.0234C7.62253 21.5056 7.26253 20.9877 6.88358 20.4887C6.74463 20.3024 6.07832 19.3708 5.93621 19.1529C5.54147 18.4992 4.59411 16.7877 4.44884 16.494C3.64674 14.915 1.52779 11.0971 1.86253 8.83291C2.21937 7.09291 3.83305 6.19291 5.652 6.5087C9.34674 7.14028 12.9783 8.06554 16.6225 8.94028C18.2299 9.3287 19.853 9.49923 21.4825 9.75818C23.0046 9.99819 24.4794 9.61607 25.8467 8.98449C28.2805 7.84506 30.7985 6.89488 33.3783 6.14239C35.3289 5.60242 37.3211 5.22534 39.3341 5.01502C39.6309 4.98028 40.7867 4.90133 41.112 4.81291C42.0404 4.56028 42.6151 4.89817 43.0067 5.74133C43.1327 6.06386 43.3278 6.35489 43.5783 6.59396C44.0867 7.03923 44.0078 7.31396 43.5309 7.76554C40.9478 10.2287 39.8394 13.4498 39.0783 16.8034C38.8257 17.9245 38.952 19.0835 38.8857 20.2771C37.6888 19.794 36.6215 19.254 35.5415 18.7424C33.1825 17.6245 31.1046 15.9161 28.3194 15.6919C25.5341 15.4677 22.7899 14.7887 20.0488 14.2077C18.9151 13.9582 16.1046 13.2256 15.833 13.1656C13.1242 12.3942 10.461 11.4706 7.85621 10.3992C7.45612 10.2222 7.01146 10.1718 6.58189 10.2548C6.15233 10.3377 5.75842 10.5501 5.45305 10.8634C4.92253 11.4098 4.68253 12.174 4.90042 13.2666C5.07095 14.1319 5.12463 14.9371 7.06358 18.6919C7.51294 19.5737 8.04143 20.4129 8.64253 21.1992C9.012 21.6792 10.2594 23.4098 10.5373 23.5677C11.4246 23.8834 11.4846 23.6056 11.4846 23.5677C11.4404 23.375 11.2762 23.2519 11.1467 23.1224C8.64722 20.3559 6.87221 17.0131 5.98042 13.3929C5.82569 12.7613 5.77516 12.1298 6.27726 11.6308C6.67832 11.2361 7.18358 11.2361 7.68569 11.3403C7.83645 11.3951 7.98314 11.4605 8.12463 11.5361C14.7025 14.3056 20.3867 15.6413 26.7373 16.9519C28.0288 17.2171 29.3962 17.1982 30.5457 18.0413C31.6951 18.8845 33.072 19.5192 34.3351 20.2803C35.7878 21.1677 37.4741 21.6382 38.7562 22.7845C39.2595 23.2468 39.894 23.5414 40.572 23.6277C42.8741 23.9435 45.1415 23.334 47.4373 23.3498C47.753 23.3498 48.3151 23.2834 48.2615 22.7182C48.2078 22.1529 47.6867 22.235 47.3394 22.1782C46.5878 22.0519 45.8204 22.0171 45.0625 21.9256C43.6351 21.7582 42.312 21.0445 40.8499 21.0729C40.3951 21.0729 40.3383 20.9024 40.3415 20.5203C40.3322 18.9689 40.5579 17.4251 41.0109 15.9413C41.5987 13.9139 42.7108 12.0774 44.2351 10.6171C44.4183 10.4466 44.6994 10.0487 44.9836 10.0077C45.0843 10.0605 45.1778 10.1263 45.2615 10.2034C45.4541 10.3961 46.1551 10.5192 46.3762 10.4908C46.5956 10.4801 46.8106 10.4251 47.0082 10.329C47.2057 10.2329 47.3818 10.0978 47.5257 9.93186C47.611 9.84074 47.6721 9.72973 47.7035 9.60894C47.735 9.48815 47.7357 9.36142 47.7057 9.24028C47.5937 8.79155 47.5553 8.32763 47.592 7.8666C47.78 7.11354 47.7549 6.32302 47.5194 5.58344C47.8857 5.47923 48.3973 5.35923 49.0983 5.23291C50.8794 4.91712 51.7446 4.70554 52.3667 3.45502C52.3667 3.45502 52.7994 2.5866 52.3667 2.40975L52.3573 2.40028Z" fill="white"/>
</svg>
