<svg width="90" height="100" viewBox="0 0 90 100" fill="none" xmlns="http://www.w3.org/2000/svg">
<path d="M33.75 37.5H56.25" stroke="white" stroke-width="7" stroke-linecap="round" stroke-linejoin="round"/>
<path d="M33.75 50H56.25" stroke="white" stroke-width="7" stroke-linecap="round" stroke-linejoin="round"/>
<path d="M33.75 62.5H45" stroke="white" stroke-width="7" stroke-linecap="round" stroke-linejoin="round"/>
<path d="M55.085 84.375H16.875C16.1291 84.375 15.4137 84.0458 14.8863 83.4597C14.3588 82.8737 14.0625 82.0788 14.0625 81.25V18.75C14.0625 17.9212 14.3588 17.1263 14.8863 16.5403C15.4137 15.9542 16.1291 15.625 16.875 15.625H73.125C73.8709 15.625 74.5863 15.9542 75.1137 16.5403C75.6412 17.1263 75.9375 17.9212 75.9375 18.75V61.2056C75.9375 61.616 75.8648 62.0223 75.7234 62.4015C75.5821 62.7806 75.3749 63.1251 75.1137 63.4153L57.0738 83.4597C56.8126 83.7499 56.5025 83.9801 56.1613 84.1371C55.8201 84.2942 55.4544 84.375 55.085 84.375Z" stroke="white" stroke-width="7" stroke-linecap="round" stroke-linejoin="round"/>
<path d="M75.683 62.4971H56.25V84.0908" stroke="white" stroke-width="7" stroke-linecap="round" stroke-linejoin="round"/>
</svg>
