<svg width="60" height="60" viewBox="0 0 60 60" fill="none" xmlns="http://www.w3.org/2000/svg">
<path d="M37.1344 60.0001H11.3156C11.2419 59.9997 11.1693 59.9817 11.1041 59.9474C11.0388 59.9132 10.9827 59.8637 10.9406 59.8032C10.8993 59.742 10.8727 59.672 10.8629 59.5988C10.8532 59.5257 10.8605 59.4512 10.8844 59.3813C11.1937 58.5094 11.7656 56.4563 11.9906 55.5563C12.8941 52.0295 13.0327 48.3503 12.3973 44.7655C11.7618 41.1807 10.3669 37.7733 8.30623 34.7719C4.73435 29.2594 0.187476 18.4594 9.84373 8.13756C16.7344 0.787558 25.8375 -0.309317 32.2593 0.0656828C37.983 0.298802 43.4368 2.56205 47.6437 6.45006C49.4679 8.1464 50.9319 10.1927 51.9482 12.467C52.9645 14.7413 53.5125 17.197 53.5594 19.6876C53.5619 21.5932 53.1424 23.4757 52.3312 25.2001C52.0419 25.7576 51.8909 26.3766 51.8909 27.0047C51.8909 27.6329 52.0419 28.2519 52.3312 28.8094C52.5562 29.2219 52.8375 29.7469 53.1281 30.2063C54.9281 33.3001 56.2687 35.7657 55.8656 37.0407C55.8207 37.196 55.7431 37.3399 55.638 37.4628C55.5329 37.5857 55.4027 37.6847 55.2562 37.7532C54.4282 38.1135 53.5639 38.3838 52.6781 38.5594C52.6234 39.6102 52.6547 40.6637 52.7719 41.7094C52.8033 41.9479 52.7713 42.1905 52.6791 42.4127C52.587 42.6349 52.4379 42.8288 52.2469 42.9751L51.4031 43.5376L51.7219 44.2594C51.8364 44.5614 51.8364 44.8949 51.7219 45.1969C51.4146 45.9256 50.9353 46.569 50.325 47.0719C50.1109 47.5383 50.0874 48.0697 50.2594 48.5532C50.6514 49.719 50.5809 50.9909 50.0625 52.1063C49.8537 52.4489 49.5758 52.7442 49.2465 52.9734C48.9172 53.2026 48.5438 53.3607 48.15 53.4376C46.6618 53.6856 45.1447 53.7077 43.65 53.5032L42.7125 53.4376C42.0328 53.3753 41.3479 53.4669 40.7085 53.7055C40.069 53.944 39.4915 54.3235 39.0187 54.8157C38.4585 55.4158 38.0364 56.1313 37.7821 56.912C37.5279 57.6926 37.4476 58.5195 37.5469 59.3344C37.5661 59.4367 37.5661 59.5416 37.5469 59.6438C37.5251 59.7394 37.4734 59.8256 37.3991 59.8897C37.3249 59.9538 37.2321 59.9925 37.1344 60.0001ZM11.9531 59.0626H36.6562C36.5966 58.1678 36.7243 57.2705 37.031 56.4279C37.3377 55.5853 37.8167 54.8159 38.4375 54.1688C39.0055 53.5911 39.6916 53.1429 40.4488 52.8549C41.2061 52.5669 42.0166 52.4458 42.825 52.5001L43.7625 52.5751C45.1586 52.7551 46.5736 52.7298 47.9625 52.5001C48.239 52.4558 48.5031 52.3535 48.7374 52.2C48.9716 52.0466 49.1708 51.8453 49.3219 51.6094C49.7164 50.7205 49.7567 49.7145 49.4344 48.7969C49.3114 48.4227 49.2704 48.0265 49.3141 47.635C49.3577 47.2436 49.4851 46.8661 49.6875 46.5282C49.7049 46.4941 49.7307 46.4651 49.7625 46.4438C50.2735 46.0422 50.6816 45.5249 50.9531 44.9344C50.9902 44.8411 50.9902 44.7371 50.9531 44.6438L50.475 43.5657C50.4305 43.4659 50.423 43.3535 50.454 43.2486C50.4849 43.1438 50.5522 43.0535 50.6437 42.9938L51.7875 42.2344C51.8419 42.1817 51.8831 42.1169 51.9075 42.0451C51.932 41.9734 51.939 41.8969 51.9281 41.8219C51.79 40.5986 51.768 39.365 51.8625 38.1376C51.87 38.0353 51.9122 37.9387 51.9821 37.8636C52.052 37.7886 52.1454 37.7397 52.2469 37.7251C53.1702 37.5588 54.0725 37.2916 54.9375 36.9282C54.9685 36.915 54.9958 36.8945 55.0171 36.8683C55.0383 36.8422 55.0528 36.8112 55.0594 36.7782C55.3687 35.7844 53.5125 32.5876 52.4062 30.6844C52.1062 30.1688 51.825 29.6813 51.5906 29.2594C51.2408 28.5744 51.0585 27.8161 51.0585 27.0469C51.0585 26.2777 51.2408 25.5195 51.5906 24.8344C52.3135 23.2168 52.6689 21.459 52.6312 19.6876C52.5891 17.3184 52.0692 14.9821 51.1027 12.8186C50.1362 10.6552 48.7428 8.70907 47.0062 7.09693C42.9528 3.36851 37.7062 1.20208 32.2031 0.984433C25.9781 0.618808 17.2031 1.67818 10.5187 8.77506C1.29373 18.6376 5.62498 28.9782 9.07498 34.2751C11.2098 37.3795 12.6549 40.9051 13.313 44.6147C13.9712 48.3244 13.8272 52.132 12.8906 55.7813C12.6937 56.5407 12.2812 58.0501 11.9531 59.0626Z" fill="white"/>
<path d="M37.7812 37.078C36.998 37.0799 36.2318 36.8492 35.5797 36.4152C34.9277 35.9812 34.4192 35.3634 34.1186 34.6401C33.818 33.9168 33.7388 33.1206 33.8912 32.3522C34.0435 31.5839 34.4205 30.8781 34.9744 30.3243C35.5282 29.7704 36.234 29.3934 37.0023 29.2411C37.7706 29.0887 38.5669 29.1679 39.2902 29.4685C40.0135 29.7691 40.6313 30.2776 41.0653 30.9296C41.4993 31.5817 41.73 32.3479 41.7281 33.1311C41.7232 34.1764 41.3058 35.1774 40.5666 35.9166C39.8275 36.6557 38.8265 37.0731 37.7812 37.078ZM37.7812 30.103C37.1823 30.103 36.5969 30.2806 36.0989 30.6133C35.6009 30.9461 35.2128 31.419 34.9836 31.9723C34.7544 32.5256 34.6944 33.1345 34.8113 33.7219C34.9281 34.3093 35.2165 34.8489 35.64 35.2724C36.0635 35.6958 36.6031 35.9842 37.1905 36.1011C37.7779 36.2179 38.3867 36.158 38.94 35.9288C39.4934 35.6996 39.9663 35.3115 40.299 34.8135C40.6318 34.3155 40.8094 33.7301 40.8094 33.1311C40.8094 32.328 40.4903 31.5578 39.9224 30.9899C39.3545 30.4221 38.5843 30.103 37.7812 30.103ZM37.7812 18.7499C36.9984 18.7517 36.2325 18.5213 35.5807 18.0877C34.9289 17.6541 34.4203 17.0369 34.1194 16.3141C33.8186 15.5914 33.7389 14.7956 33.8905 14.0276C34.0421 13.2595 34.4181 12.5537 34.971 11.9995C35.524 11.4453 36.2289 11.0675 36.9966 10.9141C37.7643 10.7607 38.5602 10.8385 39.2837 11.1377C40.0071 11.4368 40.6256 11.9439 41.0607 12.5947C41.4958 13.2455 41.7281 14.0108 41.7281 14.7936C41.7256 15.8405 41.3093 16.844 40.5699 17.5851C39.8306 18.3262 38.8281 18.7449 37.7812 18.7499ZM37.7812 11.7655C37.1823 11.7655 36.5969 11.9431 36.0989 12.2758C35.6009 12.6086 35.2128 13.0815 34.9836 13.6348C34.7544 14.1881 34.6944 14.797 34.8113 15.3844C34.9281 15.9718 35.2165 16.5114 35.64 16.9349C36.0635 17.3583 36.6031 17.6467 37.1905 17.7636C37.7779 17.8804 38.3867 17.8205 38.94 17.5913C39.4934 17.3621 39.9663 16.974 40.299 16.476C40.6318 15.978 40.8094 15.3925 40.8094 14.7936C40.8143 14.3928 40.7397 13.995 40.5897 13.6233C40.4397 13.2516 40.2175 12.9133 39.9358 12.6282C39.6541 12.343 39.3186 12.1166 38.9488 11.9621C38.5789 11.8075 38.1821 11.728 37.7812 11.728V11.7655ZM21.2156 28.7061C20.2733 28.708 19.3516 28.4303 18.5671 27.9081C17.7827 27.3859 17.1708 26.6427 16.8089 25.7727C16.447 24.9026 16.3514 23.9447 16.5341 23.0203C16.7168 22.0958 17.1696 21.2464 17.8353 20.5794C18.501 19.9124 19.3496 19.4579 20.2737 19.2734C21.1977 19.0888 22.1558 19.1826 23.0266 19.5428C23.8974 19.903 24.6417 20.5134 25.1654 21.2968C25.6892 22.0802 25.9687 23.0013 25.9687 23.9436C25.9663 25.2044 25.465 26.4129 24.5744 27.3052C23.6838 28.1975 22.4763 28.7012 21.2156 28.7061ZM21.2156 20.1093C20.4572 20.1093 19.7159 20.3342 19.0853 20.7555C18.4548 21.1768 17.9633 21.7757 17.6731 22.4763C17.3829 23.1769 17.307 23.9479 17.4549 24.6917C17.6029 25.4355 17.968 26.1187 18.5043 26.655C19.0405 27.1912 19.7238 27.5564 20.4676 27.7043C21.2113 27.8523 21.9823 27.7764 22.683 27.4861C23.3836 27.1959 23.9824 26.7045 24.4038 26.0739C24.8251 25.4433 25.05 24.702 25.05 23.9436C25.05 23.4401 24.9508 22.9415 24.7581 22.4763C24.5654 22.0111 24.283 21.5884 23.9269 21.2323C23.5709 20.8763 23.1482 20.5938 22.683 20.4011C22.2177 20.2084 21.7191 20.1093 21.2156 20.1093Z" fill="white"/>
<path d="M34.3031 33.7499C34.2289 33.749 34.1555 33.733 34.0875 33.7031L23.2313 28.0781C23.1232 28.0221 23.0417 27.9255 23.0048 27.8094C22.9679 27.6934 22.9785 27.5675 23.0344 27.4593C23.0612 27.4049 23.0986 27.3564 23.1446 27.3168C23.1905 27.2773 23.244 27.2474 23.3018 27.229C23.3596 27.2106 23.4205 27.2041 23.4809 27.2098C23.5413 27.2156 23.5999 27.2335 23.6531 27.2624L34.5094 32.8874C34.6182 32.9453 34.6998 33.0436 34.7366 33.1611C34.7735 33.2787 34.7626 33.406 34.7063 33.5156C34.6661 33.5871 34.6076 33.6465 34.5367 33.6877C34.4658 33.7289 34.3851 33.7504 34.3031 33.7499ZM35.8781 30.6749C35.807 30.6891 35.7337 30.6891 35.6625 30.6749L25.2188 25.1999C25.1094 25.144 25.0267 25.0469 24.9889 24.93C24.9511 24.813 24.9613 24.6859 25.0172 24.5765C25.0732 24.4671 25.1703 24.3844 25.2872 24.3466C25.4041 24.3088 25.5312 24.319 25.6407 24.3749L36.0938 29.8031C36.2008 29.8626 36.2809 29.961 36.3175 30.0779C36.3541 30.1947 36.3445 30.3212 36.2906 30.4312C36.251 30.5058 36.1915 30.5681 36.1187 30.6111C36.0459 30.6541 35.9627 30.6762 35.8781 30.6749ZM23.4375 20.7468C23.3522 20.7461 23.2688 20.7222 23.1961 20.6776C23.1234 20.633 23.0643 20.5694 23.025 20.4937C22.9961 20.4404 22.9782 20.3818 22.9724 20.3214C22.9667 20.2611 22.9732 20.2001 22.9916 20.1424C23.01 20.0846 23.0399 20.0311 23.0794 19.9851C23.119 19.9392 23.1675 19.9017 23.2219 19.8749L34.0781 14.2499C34.1314 14.221 34.19 14.2031 34.2504 14.1973C34.3108 14.1916 34.3717 14.1981 34.4295 14.2165C34.4873 14.2349 34.5408 14.2648 34.5867 14.3043C34.6327 14.3439 34.6701 14.3924 34.6969 14.4468C34.7532 14.5564 34.7641 14.6837 34.7273 14.8012C34.6904 14.9188 34.6088 15.0171 34.5 15.0749L23.6438 20.6999C23.58 20.7324 23.5091 20.7486 23.4375 20.7468ZM25.425 23.5687C25.3209 23.5696 25.2195 23.5351 25.1375 23.4709C25.0555 23.4066 24.9978 23.3164 24.9739 23.2151C24.9499 23.1137 24.9611 23.0072 25.0056 22.9131C25.0501 22.8189 25.1252 22.7426 25.2188 22.6968L35.625 17.2593C35.6797 17.2219 35.7417 17.1965 35.8068 17.1848C35.872 17.173 35.939 17.1753 36.0032 17.1913C36.0675 17.2073 36.1277 17.2368 36.1797 17.2778C36.2318 17.3187 36.2745 17.3703 36.3052 17.429C36.3359 17.4877 36.3538 17.5522 36.3577 17.6183C36.3617 17.6845 36.3515 17.7507 36.328 17.8126C36.3045 17.8745 36.2681 17.9307 36.2213 17.9776C36.1744 18.0244 36.1182 18.0608 36.0563 18.0843L25.6407 23.5124C25.5749 23.5498 25.5006 23.5692 25.425 23.5687Z" fill="white"/>
</svg>
