<svg width="80" height="90" viewBox="0 0 80 90" fill="none" xmlns="http://www.w3.org/2000/svg">
<path d="M71.1111 0H8.88889C3.95556 0 0 3.93538 0 8.74529V69.9623C0 74.7723 4 78.7076 8.88889 78.7076H26.6667L36.8444 88.721C38.5778 90.4263 41.3778 90.4263 43.1111 88.721L53.3333 78.7076H71.1111C76 78.7076 80 74.7723 80 69.9623V8.74529C80 3.93538 76 0 71.1111 0ZM40 14.4297C46.6222 14.4297 52 19.7206 52 26.2359C52 32.7511 46.6222 38.042 40 38.042C33.3778 38.042 28 32.7511 28 26.2359C28 19.7206 33.3778 14.4297 40 14.4297ZM66.6667 61.217H13.3333V57.2817C13.3333 48.5364 31.1111 43.7265 40 43.7265C48.8889 43.7265 66.6667 48.5364 66.6667 57.2817V61.217Z" fill="white"/>
</svg>
