<svg viewBox="0 0 24 24" xmlns="http://www.w3.org/2000/svg"><path fill-rule="evenodd" d="M11.93 2h.14c.862 0 1.372 0 1.812.043a9 9 0 0 1 8.075 8.075c.025.258.035.53.04.87a1 1 0 1 1-2 .025 8.255 8.255 0 0 0-.03-.7 7 7 0 0 0-6.28-6.28C13.356 4.002 12.952 4 12 4c-.953 0-1.356.001-1.686.034a7 7 0 0 0-6.28 6.28C4 10.644 4 11.048 4 12c0 .953.001 1.356.034 1.686a6.984 6.984 0 0 0 1.879 4.123A7.983 7.983 0 0 1 12 15c.793 0 1.56.116 2.285.331a1 1 0 0 1-.57 1.917A6.003 6.003 0 0 0 12 17a5.985 5.985 0 0 0-4.519 2.052 6.98 6.98 0 0 0 2.833.914c.258.026.572.033 1.188.034a1 1 0 1 1-.004 2c-.603-.001-1.011-.007-1.38-.043a8.979 8.979 0 0 1-4.675-1.877 8.992 8.992 0 0 1-3.4-6.198C2 13.442 2 12.932 2 12.07v-.14c0-.862 0-1.372.043-1.812a9 9 0 0 1 8.075-8.075C10.558 2 11.068 2 11.93 2ZM12 8a2 2 0 1 0 0 4 2 2 0 0 0 0-4Zm-4 2a4 4 0 1 1 8 0 4 4 0 0 1-8 0Zm7.529 9.557a1 1 0 0 0-.187.26l-1.413 2.824c-.13.262-.196.393-.174.468a.2.2 0 0 0 .136.136c.075.022.206-.044.468-.174l2.824-1.413a.977.977 0 0 0 .26-.187l5.014-5.014a1.354 1.354 0 1 0-1.914-1.914l-5.014 5.014Z" clip-rule="evenodd"/></svg>