<svg viewBox="0 0 24 24" xmlns="http://www.w3.org/2000/svg"><path fill-rule="evenodd" d="M12 2h-.07c-.862 0-1.372 0-1.812.043a9 9 0 0 0-8.075 8.075C2 10.558 2 11.068 2 11.93v.14c0 .862 0 1.372.043 1.812a8.992 8.992 0 0 0 3.4 6.198 8.979 8.979 0 0 0 4.675 1.877c.44.043.95.043 1.812.043h.14c.862 0 1.372 0 1.812-.043a8.979 8.979 0 0 0 4.675-1.877 8.993 8.993 0 0 0 3.4-6.198c.043-.44.043-.95.043-1.812v-.14c0-.862 0-1.372-.043-1.812a9 9 0 0 0-8.075-8.075C13.442 2 12.932 2 12.07 2H12Zm-1.686 2.034C10.644 4 11.047 4 12 4s1.356.001 1.686.034a7 7 0 0 1 6.28 6.28c.033.33.034.734.034 1.686 0 .953-.001 1.356-.034 1.686a6.984 6.984 0 0 1-1.879 4.123A7.983 7.983 0 0 0 12 15a7.983 7.983 0 0 0-6.087 2.809 6.984 6.984 0 0 1-1.88-4.123C4.002 13.356 4 12.953 4 12c0-.952.001-1.356.034-1.686a7 7 0 0 1 6.28-6.28ZM12 17c1.801 0 3.418.793 4.519 2.052a6.979 6.979 0 0 1-2.833.914C13.356 20 12.953 20 12 20s-1.356-.001-1.686-.034a6.98 6.98 0 0 1-2.833-.914A5.985 5.985 0 0 1 12 17Zm-2-7a2 2 0 1 1 4 0 2 2 0 0 1-4 0Zm2-4a4 4 0 1 0 0 8 4 4 0 0 0 0-8Z" clip-rule="evenodd"/></svg>