<svg viewBox="0 0 24 24" xmlns="http://www.w3.org/2000/svg"><path fill-rule="evenodd" d="M11.93 2h.14c.862 0 1.372 0 1.812.043a9 9 0 0 1 8.075 8.075c.043.44.043.95.043 1.812V12a1 1 0 1 1-2 0c0-.952-.001-1.356-.034-1.686a7 7 0 0 0-6.28-6.28C13.356 4 12.953 4 12 4s-1.356.001-1.686.034a7 7 0 0 0-6.28 6.28C4 10.644 4 11.048 4 12c0 .953.001 1.356.034 1.686a6.984 6.984 0 0 0 1.879 4.123 7.996 7.996 0 0 1 4.374-2.625 1 1 0 1 1 .426 1.954 5.996 5.996 0 0 0-3.232 1.914 6.98 6.98 0 0 0 2.833.914c.175.018.38.027.699.03a1 1 0 1 1-.026 2 9.854 9.854 0 0 1-.87-.04 8.979 8.979 0 0 1-4.674-1.876 8.992 8.992 0 0 1-3.4-6.198C2 13.442 2 12.932 2 12.07v-.14c0-.862 0-1.372.043-1.812a9 9 0 0 1 8.075-8.075C10.558 2 11.068 2 11.93 2ZM12 8a2 2 0 1 0 0 4 2 2 0 0 0 0-4Zm-4 2a4 4 0 1 1 8 0 4 4 0 0 1-8 0Zm10.81 3.855a1 1 0 0 0-1.616 0l-.425.58a4 4 0 0 1-2.28 1.527l-.727.178a1 1 0 0 0-.609 1.503l.638 1.015a4 4 0 0 1 .603 2.394l-.058.881a1 1 0 0 0 1.182 1.05l1.745-.327a4.003 4.003 0 0 1 1.474 0l1.745.327a1 1 0 0 0 1.183-1.05l-.06-.881a4 4 0 0 1 .604-2.394l.638-1.015a1 1 0 0 0-.61-1.503l-.724-.177a4 4 0 0 1-2.282-1.53l-.422-.578Zm-3.246 3.87A6 6 0 0 0 18 16.088a6 6 0 0 0 2.435 1.636 6 6 0 0 0-.84 3.058l-.49-.092a6 6 0 0 0-2.212 0l-.49.092a6 6 0 0 0-.84-3.057Z" clip-rule="evenodd"/></svg>