<svg viewBox="0 0 24 24" xmlns="http://www.w3.org/2000/svg"><path fill-rule="evenodd" d="M3 9a1 1 0 0 0 1-1V2a1 1 0 0 0-2 0v6a1 1 0 0 0 1 1Zm9-7h-.07c-.862 0-1.372 0-1.812.043A8.98 8.98 0 0 0 6.5 3.205a1 1 0 1 0 1 1.732 6.979 6.979 0 0 1 2.814-.903C10.644 4 11.047 4 12 4s1.356.001 1.686.034a7 7 0 0 1 6.28 6.28c.033.33.034.734.034 1.686 0 .953-.001 1.356-.034 1.686a6.984 6.984 0 0 1-1.879 4.123A7.983 7.983 0 0 0 12 15a7.983 7.983 0 0 0-6.087 2.809 7.004 7.004 0 0 1-1.209-1.747 1 1 0 1 0-1.798.876 9.016 9.016 0 0 0 2.537 3.142 8.979 8.979 0 0 0 4.675 1.877c.44.043.95.043 1.812.043h.14c.862 0 1.372 0 1.812-.043a8.98 8.98 0 0 0 4.675-1.877 8.992 8.992 0 0 0 3.4-6.198c.043-.44.043-.95.043-1.812v-.14c0-.862 0-1.372-.043-1.812a9 9 0 0 0-8.075-8.075C13.442 2 12.932 2 12.07 2H12Zm0 15c1.801 0 3.418.793 4.519 2.052a6.98 6.98 0 0 1-2.833.914C13.356 20 12.953 20 12 20s-1.356-.001-1.686-.034a6.98 6.98 0 0 1-2.833-.914A5.985 5.985 0 0 1 12 17Zm-2-7a2 2 0 1 1 4 0 2 2 0 0 1-4 0Zm2-4a4 4 0 1 0 0 8 4 4 0 0 0 0-8Zm-9.5 7.5a1 1 0 0 1-1-1v-1a1 1 0 0 1 1-1h1a1 1 0 0 1 1 1v1a1 1 0 0 1-1 1h-1Z" clip-rule="evenodd"/></svg>