<svg viewBox="0 0 24 24" xmlns="http://www.w3.org/2000/svg"><path fill-rule="evenodd" d="M12 1a1 1 0 0 1 1 1v1.173l.157.173.027.03c.821.903 1.477 1.624 1.963 2.251.5.644.87 1.25 1.08 1.94a5.888 5.888 0 0 1-.015 3.476c.44-.043.96-.043 1.676-.043H19V8a1 1 0 1 1 2 0v5.214c0 1.759.001 2.903-.335 3.856a5.889 5.889 0 0 1-3.595 3.595c-.953.336-2.097.336-3.856.335H13v1a1 1 0 1 1-2 0v-4.078c0-1.018-.005-1.411-.062-1.724a3.889 3.889 0 0 0-3.136-3.136C7.482 13.004 7.076 13 6 13H5c0 2.05.014 2.818.222 3.405a3.889 3.889 0 0 0 2.373 2.373c.24.085.534.143.982.177a1 1 0 0 1-.153 1.994c-.547-.042-1.03-.121-1.494-.284a5.89 5.89 0 0 1-3.594-3.595C2.999 16.117 3 14.973 3 13.214V8a1 1 0 0 1 2 0v3h1.113c.715 0 1.236 0 1.676.043a5.889 5.889 0 0 1-.016-3.476c.21-.69.58-1.296 1.08-1.94.486-.627 1.142-1.348 1.963-2.25l.028-.031.156-.173V2a1 1 0 0 1 1-1Zm1 17v1c2.05 0 2.818-.014 3.405-.221a3.89 3.89 0 0 0 2.374-2.374C18.986 15.818 19 15.05 19 13h-1c-1.076 0-1.481.004-1.802.062a3.889 3.889 0 0 0-3.136 3.136c-.056.313-.062.706-.062 1.724V18ZM12 5.047c-.687.757-1.19 1.321-1.567 1.806-.425.548-.636.933-.747 1.296a3.889 3.889 0 0 0 0 2.262c.11.363.322.748.747 1.296.376.485.88 1.05 1.567 1.806.687-.757 1.19-1.321 1.567-1.806.425-.548.636-.933.747-1.296a3.888 3.888 0 0 0 0-2.262c-.11-.363-.322-.748-.747-1.296-.376-.485-.88-1.05-1.567-1.806Z" clip-rule="evenodd"/></svg>