<svg viewBox="0 0 24 24" xmlns="http://www.w3.org/2000/svg"><path fill-rule="evenodd" d="M12 .878c.307 0 .696.034 1.024.153.755.274 1.098.682 1.479 1.134l.03.036c1.096 1.301 2.597 3.323 4.33 6.295 2.138 3.664 3.19 6.793 3.694 8.744l.009.032c.052.203.115.444.139.698.028.297.004.579-.066.895-.068.305-.232.629-.369.86-.136.231-.341.532-.575.738a2.812 2.812 0 0 1-.717.48c-.226.1-.452.159-.63.204l-.03.008C18.686 21.574 16.034 22 12 22c-4.033 0-6.685-.426-8.319-.845l-.03-.008a3.764 3.764 0 0 1-.63-.205 2.81 2.81 0 0 1-.716-.479c-.234-.206-.439-.507-.575-.738-.137-.231-.301-.555-.369-.86a2.78 2.78 0 0 1-.066-.895c.024-.254.087-.495.14-.698l.007-.032C1.946 15.289 3 12.16 5.136 8.496 6.87 5.524 8.371 3.502 9.467 2.201l.03-.036c.38-.452.724-.86 1.479-1.134.328-.12.717-.153 1.024-.153ZM12 6a1 1 0 0 1 1 1v5.5a1 1 0 1 1-2 0V7a1 1 0 0 1 1-1Zm-1.5 10a1 1 0 0 1 1-1h1a1 1 0 0 1 1 1v1a1 1 0 0 1-1 1h-1a1 1 0 0 1-1-1v-1Z" clip-rule="evenodd"/></svg>