<svg viewBox="0 0 24 24" xmlns="http://www.w3.org/2000/svg"><path fill-rule="evenodd" d="M12 .878c.307 0 .696.034 1.024.153.755.274 1.099.682 1.479 1.134l.03.036c1.096 1.301 2.597 3.323 4.33 6.295 2.138 3.664 3.19 6.793 3.694 8.744l.009.032c.052.203.115.444.139.698a2.78 2.78 0 0 1-.066.895c-.068.305-.232.629-.369.86-.136.231-.34.532-.575.738a2.812 2.812 0 0 1-.717.479c-.226.102-.452.16-.63.205l-.03.008C18.686 21.574 16.034 22 12 22c-4.033 0-6.685-.426-8.319-.845l-.03-.008a3.771 3.771 0 0 1-.629-.205 2.81 2.81 0 0 1-.717-.479c-.234-.206-.439-.507-.575-.738-.137-.231-.301-.555-.369-.86a2.781 2.781 0 0 1-.066-.895c.024-.254.087-.495.14-.698l.008-.032c.504-1.951 1.556-5.08 3.693-8.744C6.87 5.524 8.371 3.502 9.467 2.201l.03-.036c.38-.452.724-.86 1.479-1.134.328-.12.717-.153 1.024-.153Zm-.34 2.033h-.001a.78.78 0 0 0-.274.15c-.087.075-.178.18-.388.428C9.98 4.698 8.543 6.625 6.864 9.504c-2.032 3.482-3.02 6.436-3.485 8.236-.064.25-.086.34-.093.42a.793.793 0 0 0 .026.264v.003a2.185 2.185 0 0 0 .268.477c.029.037.046.056.051.062l.002.002c.124.109.18.137.21.15.052.024.115.043.335.1C5.624 19.587 8.106 20 12 20s6.376-.412 7.822-.783c.22-.056.283-.075.335-.099a.845.845 0 0 0 .21-.15l.002-.002c.005-.006.022-.025.05-.063a2.2 2.2 0 0 0 .268-.476l.001-.003a.792.792 0 0 0 .026-.264 2.982 2.982 0 0 0-.093-.42c-.465-1.8-1.453-4.754-3.485-8.236-1.679-2.879-3.115-4.806-4.133-6.015-.21-.249-.301-.353-.389-.429a.78.78 0 0 0-.273-.15h.001-.001c-.007-.001-.037-.01-.098-.017a1.912 1.912 0 0 0-.486 0c-.06.007-.091.016-.098.018ZM10.5 16a1 1 0 0 1 1-1h1a1 1 0 0 1 1 1v1a1 1 0 0 1-1 1h-1a1 1 0 0 1-1-1v-1ZM13 7a1 1 0 1 0-2 0v5.5a1 1 0 1 0 2 0V7Z" clip-rule="evenodd"/></svg>