<svg viewBox="0 0 24 24" xmlns="http://www.w3.org/2000/svg"><path fill-rule="evenodd" d="M1.349 5.24a1 1 0 0 1 1.41.11l2.24 2.61A10.953 10.953 0 0 1 12 5.444a10.953 10.953 0 0 1 7 2.516l2.24-2.61a1 1 0 0 1 1.518 1.301l-2.334 2.721A10.957 10.957 0 0 1 23 16.445v1.444A2.111 2.111 0 0 1 20.889 20H3.11A2.111 2.111 0 0 1 1 17.889v-1.444c0-2.694.968-5.161 2.574-7.073L1.241 6.651a1 1 0 0 1 .108-1.41Zm10.65 2.204c-1.85 0-3.569.559-4.998 1.515A8.99 8.99 0 0 0 3 16.444v1.445c0 .061.05.111.111.111h17.778a.11.11 0 0 0 .11-.111v-1.444a8.99 8.99 0 0 0-4-7.486 8.953 8.953 0 0 0-5-1.514ZM6 14a1 1 0 0 1 1-1h1a1 1 0 0 1 1 1v1a1 1 0 0 1-1 1H7a1 1 0 0 1-1-1v-1Zm10-1a1 1 0 0 0-1 1v1a1 1 0 0 0 1 1h1a1 1 0 0 0 1-1v-1a1 1 0 0 0-1-1h-1Z" clip-rule="evenodd"/></svg>