<svg viewBox="0 0 24 24" xmlns="http://www.w3.org/2000/svg"><path fill-rule="evenodd" d="M12.114 1.94C12.666 1.278 13.492.93 14.5.93A1.07 1.07 0 0 1 15.57 2c0 1.52-1.21 3.07-3.07 3.07A1.07 1.07 0 0 1 11.428 4c0-.659.162-1.433.685-2.06ZM2.93 12.28c0-3.93 2.702-6.85 6.125-6.85.991 0 1.745.28 2.305.516l.248.105c.162.07.286.124.418.17a1.1 1.1 0 0 0 .297.073c.01-.002.07-.015.208-.067.118-.044.216-.085.334-.134.103-.043.221-.092.381-.156.592-.234 1.4-.508 2.378-.508 1.935 0 3.683.954 4.807 2.523a1.07 1.07 0 0 1-.242 1.491 3.382 3.382 0 0 0-1.417 2.746c0 .647.15 1.154.428 1.605.288.467.743.927 1.427 1.42.408.294.556.833.356 1.294L20 16.083l.983.425-.001.002-.002.006-.009.02-.032.072a38.293 38.293 0 0 1-.51 1.104c-.298.618-.717 1.441-1.084 1.93-.528.706-1.121 1.296-1.745 1.718-.614.417-1.322.71-2.058.71-.901 0-1.596-.277-2.104-.486-.546-.224-.803-.326-1.099-.326-.295 0-.552.102-1.098.326-.508.209-1.202.487-2.104.487-.874 0-1.691-.445-2.357-.993-.687-.566-1.337-1.342-1.895-2.232-1.113-1.775-1.955-4.15-1.955-6.567Zm15.75 4.125c-.518-.445-.962-.933-1.304-1.49-.497-.808-.746-1.707-.746-2.726 0-1.421.541-2.714 1.425-3.693a3.667 3.667 0 0 0-2.43-.925c-.579 0-1.09.159-1.59.357-.079.031-.178.073-.283.116-.164.068-.34.14-.47.189-.23.086-.575.203-.943.203-.395 0-.745-.096-1.03-.197a10.555 10.555 0 0 1-.609-.247l-.17-.072c-.47-.197-.91-.35-1.475-.35-2.05 0-3.984 1.764-3.984 4.71 0 1.948.691 3.934 1.628 5.428.467.745.973 1.33 1.442 1.717.492.405.835.504.996.504.45 0 .81-.128 1.29-.326l.103-.042c.441-.184 1.07-.445 1.81-.445.739 0 1.367.261 1.808.445l.103.042c.482.198.841.326 1.291.326.17 0 .462-.074.857-.342.387-.262.815-.671 1.233-1.229.222-.297.558-.933.869-1.576.063-.131.123-.258.178-.377Z" clip-rule="evenodd"/></svg>