<svg viewBox="0 0 24 24" xmlns="http://www.w3.org/2000/svg"><path fill-rule="evenodd" d="M9.777 3h7.464c.805 0 1.47 0 2.01.044.563.046 1.08.145 1.565.392a4 4 0 0 1 1.748 1.748c.247.486.346 1.002.392 1.564C23 7.29 23 7.954 23 8.758v6.484c0 .805 0 1.469-.044 2.01-.046.562-.145 1.079-.392 1.564a4 4 0 0 1-1.748 1.748c-.485.248-1.002.346-1.564.392-.541.044-1.206.044-2.01.044H9.776c-.76 0-1.334.001-1.875-.154a4 4 0 0 1-1.32-.66c-.448-.34-.792-.799-1.248-1.407l-.074-.099-3.12-4.16-.09-.12c-.427-.567-.8-1.063-.951-1.636a3 3 0 0 1 0-1.527c.15-.573.524-1.07.95-1.636l.091-.12 3.12-4.16.074-.1c.456-.608.8-1.067 1.248-1.407a4 4 0 0 1 1.32-.66C8.442 2.999 9.017 3 9.777 3ZM9.9 5c-.938 0-1.212.01-1.45.077a2 2 0 0 0-.659.33c-.197.15-.368.363-.931 1.113l-3.12 4.16c-.57.76-.67.923-.707 1.066a1 1 0 0 0 0 .509c.038.143.137.305.707 1.065l3.12 4.16c.563.75.734.964.931 1.113a2 2 0 0 0 .66.33c.237.068.511.077 1.449.077h7.3c.857 0 1.439 0 1.889-.037.438-.036.663-.101.819-.18a2 2 0 0 0 .874-.875c.08-.156.145-.38.18-.819C21 16.64 21 16.057 21 15.2V8.8c0-.856 0-1.439-.038-1.889-.035-.438-.1-.662-.18-.819a2 2 0 0 0-.874-.874c-.156-.08-.38-.144-.819-.18C18.639 5 18.057 5 17.2 5H9.9Zm7.307 3.293a1 1 0 0 1 0 1.414L14.914 12l2.293 2.293a1 1 0 0 1-1.414 1.414L13.5 13.414l-2.293 2.293a1 1 0 0 1-1.414-1.414L12.086 12 9.793 9.707a1 1 0 0 1 1.414-1.414l2.293 2.293 2.293-2.293a1 1 0 0 1 1.414 0Z" clip-rule="evenodd"/></svg>