<svg viewBox="0 0 24 24" xmlns="http://www.w3.org/2000/svg"><path fill-rule="evenodd" d="M12.257 1.57a2 2 0 0 0-.514 0c-.196.026-.38.088-.526.137l-.04.013-7.946 2.65-.039.012c-.138.044-.425.136-.654.328a1.5 1.5 0 0 0-.434.601c-.11.279-.106.58-.105.725v1.187c0 .12 0 .262.01.387.013.145.043.353.154.571a1.5 1.5 0 0 0 .656.656c.218.11.426.141.571.153.125.01.268.01.387.01h16.446c.12 0 .261 0 .387-.01.145-.012.353-.042.57-.153a1.5 1.5 0 0 0 .656-.656c.111-.218.142-.426.154-.571.01-.125.01-.268.01-.387V6.037c.002-.146.005-.447-.104-.726a1.5 1.5 0 0 0-.434-.601c-.23-.192-.516-.284-.655-.328l-.038-.013-7.947-2.649-.039-.013a2.75 2.75 0 0 0-.526-.136Zm-.447 2.047c.1-.033.15-.05.187-.06L12 3.556h.002l.188.061L20 6.221V7H4v-.78l7.81-2.604ZM6 11.5a1 1 0 1 0-2 0v8a1 1 0 0 0-1 1v.5a1 1 0 0 0 1 1h16a1 1 0 0 0 1-1v-.5a1 1 0 0 0-1-1v-8a1 1 0 1 0-2 0v8h-2v-8a1 1 0 1 0-2 0V20h-4v-8.5a1 1 0 1 0-2 0v8H6v-8Z" clip-rule="evenodd"/></svg>