<svg viewBox="0 0 24 24" xmlns="http://www.w3.org/2000/svg"><path fill-rule="evenodd" d="M3 9a1 1 0 0 0 1-1V2a1 1 0 0 0-2 0v6a1 1 0 0 0 1 1Zm9.256-7.43a2 2 0 0 0-.513 0c-.196.026-.38.088-.526.137l-.04.013-4.493 1.498a1 1 0 1 0 .632 1.897l4.494-1.498c.1-.033.15-.05.187-.06L12 3.556h.002l.188.061L20 6.221V7H7a1 1 0 1 0 0 2h13.223c.119 0 .261 0 .387-.01.145-.012.353-.042.57-.153a1.5 1.5 0 0 0 .656-.656c.111-.218.142-.426.154-.571.01-.125.01-.268.01-.387V6.037c.002-.146.005-.447-.104-.726a1.5 1.5 0 0 0-.434-.601c-.23-.192-.516-.284-.655-.329l-.038-.012-7.947-2.649-.04-.013a2.659 2.659 0 0 0-.526-.136ZM10 11.5a1 1 0 1 0-2 0v8H6V16a1 1 0 1 0-2 0v3.5a1 1 0 0 0-1 1v.5a1 1 0 0 0 1 1h16a1 1 0 0 0 1-1v-.5a1 1 0 0 0-1-1v-8a1 1 0 0 0-2 0v8h-2v-8a1 1 0 0 0-2 0V20h-4v-8.5Zm-7.5 2a1 1 0 0 1-1-1v-1a1 1 0 0 1 1-1h1a1 1 0 0 1 1 1v1a1 1 0 0 1-1 1h-1Z" clip-rule="evenodd"/></svg>