<svg viewBox="0 0 24 24" xmlns="http://www.w3.org/2000/svg"><path fill-rule="evenodd" d="M3 9a1 1 0 0 0 1-1V2a1 1 0 0 0-2 0v6a1 1 0 0 0 1 1Zm10.189-7h-.138c-.651-.001-1.224-.002-1.74.192a3 3 0 0 0-1.177.805c-.368.41-.574.944-.81 1.552l-.05.129L7.205 10H7a1 1 0 0 0 0 2h5a1 1 0 1 0 0-2H9.35l1.789-4.598c.315-.811.392-.967.485-1.07a1 1 0 0 1 .392-.268c.13-.049.302-.064 1.173-.064h2.537c.568 0 .926 0 1.189.025.181.016.25.04.265.045a.4.4 0 0 1 .163.239c0 .016-.003.088-.054.263-.073.253-.202.588-.408 1.117l-2.702 6.949a1 1 0 1 0 1.864.725l2.702-6.949.016-.04c.186-.478.349-.897.45-1.249.105-.364.184-.784.089-1.23a2.4 2.4 0 0 0-1.026-1.5c-.38-.25-.801-.328-1.179-.362C16.731 2 16.281 2 15.77 2h-2.58Zm6.44 10.765c.12-.3.305-.56.538-.765H19.5a1 1 0 1 1 0-2h1.77c.098 0 .217 0 .322.007.12.008.294.03.482.107a1.5 1.5 0 0 1 .812.812c.078.188.099.362.107.482.007.105.007.224.007.323v.279a1.5 1.5 0 0 1-1.49 1.49h-.02l-.002.006-2.461 6.326-.041.108c-.171.442-.343.885-.65 1.229-.269.3-.605.53-.981.671-.432.163-.908.162-1.382.16H8.027c-.474.002-.95.003-1.382-.16a2.5 2.5 0 0 1-.98-.671c-.308-.344-.48-.787-.65-1.23l-.042-.107-1.35-3.47a1 1 0 1 1 1.865-.724l1.349 3.47c.244.627.285.69.317.726a.5.5 0 0 0 .196.134c.044.017.119.032.792.032h7.716c.673 0 .748-.015.792-.032a.501.501 0 0 0 .196-.134c.032-.035.073-.099.317-.726l2.46-6.327.006-.016ZM2.5 13.5a1 1 0 0 1-1-1v-1a1 1 0 0 1 1-1h1a1 1 0 0 1 1 1v1a1 1 0 0 1-1 1h-1Z" clip-rule="evenodd"/></svg>