<svg viewBox="0 0 24 24" xmlns="http://www.w3.org/2000/svg"><path fill-rule="evenodd" d="M13.189 2h-.138c-.651-.001-1.224-.002-1.74.192a3 3 0 0 0-1.177.805c-.368.41-.574.944-.81 1.552l-.05.129L7.205 10H2.73c-.098 0-.217 0-.322.007a1.53 1.53 0 0 0-.482.107 1.5 1.5 0 0 0-.812.812 1.512 1.512 0 0 0-.107.482C1 11.513 1 11.632 1 11.731v.279a1.5 1.5 0 0 0 1.49 1.49h.02c.001 0 .001 0 0 0l.003.005 2.46 6.327.041.108c.171.442.343.885.65 1.229.269.3.605.53.981.671.432.163.908.161 1.382.16h7.946c.474.001.95.003 1.382-.16a2.5 2.5 0 0 0 .98-.671c.308-.344.48-.787.65-1.23l.042-.107 2.46-6.327.003-.005h.02A1.5 1.5 0 0 0 23 12.01v-.28c0-.098 0-.217-.007-.322a1.511 1.511 0 0 0-.107-.482 1.5 1.5 0 0 0-.812-.812 1.513 1.513 0 0 0-.482-.107C21.487 10 21.368 10 21.269 10H19.5a1 1 0 0 0 0 2h.667a1.996 1.996 0 0 0-.538.765l-.006.016-2.46 6.327c-.244.627-.285.69-.317.726a.501.501 0 0 1-.196.134c-.044.017-.119.032-.792.032H8.142c-.673 0-.748-.015-.792-.032a.501.501 0 0 1-.196-.134c-.032-.035-.073-.099-.317-.726l-2.46-6.327-.006-.016A2.01 2.01 0 0 0 3.833 12H12a1 1 0 1 0 0-2H9.35l1.789-4.598c.315-.811.392-.967.485-1.07a1 1 0 0 1 .392-.268c.13-.049.302-.064 1.173-.064h2.537c.568 0 .926 0 1.189.025.181.016.25.04.265.045a.4.4 0 0 1 .163.239c0 .015-.003.088-.054.263-.073.253-.202.588-.408 1.117l-2.702 6.949a1 1 0 1 0 1.864.725l2.702-6.949.016-.04c.186-.478.349-.897.45-1.249.105-.364.184-.784.089-1.23a2.4 2.4 0 0 0-1.026-1.5c-.38-.25-.801-.328-1.179-.362A15.895 15.895 0 0 0 15.77 2h-2.58Z" clip-rule="evenodd"/></svg>