<svg viewBox="0 0 24 24" xmlns="http://www.w3.org/2000/svg"><path fill-rule="evenodd" d="M13.025 2.5a1 1 0 1 0-2 0v.571a7.006 7.006 0 0 0-5.977 6.313l-.344 2.156-.009.074a11 11 0 0 1-1.123 4.006l-.388.775-.014.028a6.458 6.458 0 0 0-.235.506c-.065.167-.16.452-.11.79a1.5 1.5 0 0 0 .624 1.01c.28.196.578.24.756.256.17.015.372.015.558.015h4.245C9 19.175 9 19.37 9 19.568v.864c0 .252 0 .498.017.706.019.229.063.499.201.77a2 2 0 0 0 .874.874c.271.138.541.182.77.201.208.017.454.017.706.017h.864c.252 0 .498 0 .706-.017a2.03 2.03 0 0 0 .77-.201 2 2 0 0 0 .874-.874 2.03 2.03 0 0 0 .201-.77c.017-.208.017-.454.017-.706v-.864c0-.198 0-.393-.008-.568h4.258c.185 0 .385 0 .554-.015.177-.017.472-.06.751-.253a1.5 1.5 0 0 0 .626-1.002 1.535 1.535 0 0 0-.102-.787c-.06-.158-.148-.338-.228-.504l-.014-.028-.404-.828a11.003 11.003 0 0 1-1.075-3.907 1.033 1.033 0 0 0-.008-.073L19 9.385a7.006 7.006 0 0 0-5.976-6.314V2.5ZM12.4 19h-.8c-.296 0-.459 0-.575.01l-.014.001v.014c-.01.116-.011.279-.011.575v.8c0 .297 0 .459.01.575l.002.014h.013c.116.01.278.011.575.011h.8c.297 0 .459 0 .575-.01l.014-.001v-.014c.01-.116.011-.279.011-.575v-.8c0-.297 0-.459-.01-.575l-.001-.014h-.014A8.205 8.205 0 0 0 12.4 19Zm.096-2H18.9l-.263-.54c-.7-1.436-1.13-2.99-1.268-4.581L17.02 9.66a1.098 1.098 0 0 1-.008-.072 5.004 5.004 0 0 0-9.974 0 .999.999 0 0 1-.01.074l-.343 2.155a13 13 0 0 1-1.324 4.696L5.118 17h7.378Z" clip-rule="evenodd"/></svg>