<svg viewBox="0 0 24 24" xmlns="http://www.w3.org/2000/svg"><path fill-rule="evenodd" d="M13.025 2.5a1 1 0 1 0-2 0v.571a7.006 7.006 0 0 0-5.98 6.352c-.104 1.243-.235 2.556-.515 3.794-.281 1.242-.698 2.34-1.33 3.183A1 1 0 0 0 4 18h16a1 1 0 0 0 .8-1.6c-.629-.838-1.034-1.932-1.303-3.174-.269-1.24-.388-2.552-.492-3.803a7.006 7.006 0 0 0-5.98-6.352V2.5Zm-2.916 17.046C10 19.76 10 20.04 10 20.6v.8c0 .56 0 .84.109 1.054a1 1 0 0 0 .437.437C10.76 23 11.04 23 11.6 23h.8c.56 0 .84 0 1.054-.109a1 1 0 0 0 .437-.437C14 22.24 14 21.96 14 21.4v-.8c0-.56 0-.84-.109-1.054a1 1 0 0 0-.437-.437C13.24 19 12.96 19 12.4 19h-.8c-.56 0-.84 0-1.054.109a1 1 0 0 0-.437.437ZM5.432 4.632a1 1 0 1 0-1.55-1.264 10.467 10.467 0 0 0-2.303 5.527 1 1 0 0 0 1.99.21 8.467 8.467 0 0 1 1.863-4.473Zm14.736-1.264a1 1 0 1 0-1.55 1.264 8.467 8.467 0 0 1 1.864 4.473 1 1 0 1 0 1.988-.21 10.467 10.467 0 0 0-2.302-5.527Z" clip-rule="evenodd"/></svg>