<svg viewBox="0 0 24 24" xmlns="http://www.w3.org/2000/svg"><path fill-rule="evenodd" d="M12.025 1.5a1 1 0 0 1 1 1c0 1.424-1.142 2.375-2.238 2.654a5.006 5.006 0 0 0-3.75 4.435.598.598 0 0 1-.008.074l-.344 2.155a13 13 0 0 1-1.324 4.696L5.118 17H18.9l-.264-.54a13.02 13.02 0 0 1-.477-1.107 1 1 0 0 1 1.871-.706c.12.318.255.63.404.936l.404.828.014.028c.08.166.168.346.228.504.064.167.154.451.102.787a1.5 1.5 0 0 1-.626 1.002 1.535 1.535 0 0 1-.751.253 6.415 6.415 0 0 1-.554.015h-4.259c.008.175.008.37.008.568v.864c0 .252 0 .498-.017.706a2.022 2.022 0 0 1-.201.77 2 2 0 0 1-.874.874 2.022 2.022 0 0 1-.77.201c-.208.017-.454.017-.706.017h-.864c-.252 0-.498 0-.706-.017a2.022 2.022 0 0 1-.77-.201 2 2 0 0 1-.874-.874 2.022 2.022 0 0 1-.201-.77C9 20.93 9 20.684 9 20.432v-.864c0-.198 0-.393.008-.568H4.763c-.186 0-.388 0-.558-.015a1.537 1.537 0 0 1-.756-.256 1.5 1.5 0 0 1-.624-1.01c-.05-.338.045-.623.11-.79.062-.159.152-.34.235-.506l.014-.028.388-.775a11 11 0 0 0 1.123-4.006.599.599 0 0 1 .01-.074l.343-2.156a7.006 7.006 0 0 1 5.245-6.168c.51-.13.732-.483.732-.716a1 1 0 0 1 1-1ZM12 19h.4c.296 0 .459 0 .575.01l.014.001v.014c.01.116.011.279.011.575v.8c0 .297 0 .459-.01.575l-.002.014h-.013c-.116.01-.278.011-.575.011h-.8c-.297 0-.459 0-.575-.01l-.014-.001v-.014A8.143 8.143 0 0 1 11 20.4v-.8c0-.297 0-.459.01-.575l.001-.014h.014c.116-.01.278-.011.575-.011h.4Zm7-16a1 1 0 0 0-2 0v3h-3a1 1 0 1 0 0 2h3v3a1 1 0 1 0 2 0V8h3a1 1 0 0 0 0-2h-3V3Z" clip-rule="evenodd"/></svg>