<svg viewBox="0 0 24 24" xmlns="http://www.w3.org/2000/svg"><path fill-rule="evenodd" d="M12.025 1.5a1 1 0 0 1 1 1v.571a7.006 7.006 0 0 1 5.98 6.352c.104 1.251.223 2.564.492 3.803.27 1.242.674 2.335 1.303 3.174A1 1 0 0 1 20 18H4a1 1 0 0 1-.8-1.6c.632-.843 1.049-1.941 1.33-3.182.28-1.239.411-2.552.515-3.795a7.006 7.006 0 0 1 5.98-6.352V2.5a1 1 0 0 1 1-1ZM10 20.6c0-.56 0-.84.109-1.054a1 1 0 0 1 .437-.437C10.76 19 11.04 19 11.6 19h.8c.56 0 .84 0 1.054.109a1 1 0 0 1 .437.437C14 19.76 14 20.04 14 20.6v.8c0 .56 0 .84-.109 1.054a1 1 0 0 1-.437.437C13.24 23 12.96 23 12.4 23h-.8c-.56 0-.84 0-1.054-.109a1 1 0 0 1-.437-.437C10 22.24 10 21.96 10 21.4v-.8Z" clip-rule="evenodd"/></svg>