<svg viewBox="0 0 24 24" xmlns="http://www.w3.org/2000/svg"><path fill-rule="evenodd" d="M6 8a1 1 0 1 1-2 0V2a1 1 0 1 1 2 0v6Zm7.025-5.5a1 1 0 0 0-2 0v.571a6.974 6.974 0 0 0-2.53.882 1 1 0 1 0 1.01 1.727 5.004 5.004 0 0 1 7.507 3.908.977.977 0 0 0 .008.073l.35 2.218a12.999 12.999 0 0 0 1.267 4.58L18.9 17H4.887l.062-.184a1 1 0 0 0-1.898-.632l-.5 1.5A1 1 0 0 0 3.5 19h5.508C9 19.175 9 19.37 9 19.568v.864c0 .252 0 .498.017.706.019.229.063.499.201.77a2 2 0 0 0 .874.874c.271.138.541.182.77.201.208.017.454.017.706.017h.864c.252 0 .498 0 .706-.017a2.03 2.03 0 0 0 .77-.201 2 2 0 0 0 .874-.874 2.03 2.03 0 0 0 .201-.77c.017-.208.017-.454.017-.706v-.864c0-.198 0-.393-.008-.568H20.5a1 1 0 0 0 .899-1.438l-.965-1.979a11 11 0 0 1-1.075-3.907.973.973 0 0 0-.008-.073L19 9.385a7.006 7.006 0 0 0-5.976-6.314V2.5Zm-2 16.51c.109-.009.258-.01.52-.01h.91c.262 0 .411.001.52.01l.014.001v.014c.01.116.011.279.011.575v.8c0 .297 0 .459-.01.575l-.001.014h-.014c-.116.01-.278.011-.575.011h-.8c-.296 0-.459 0-.575-.01l-.014-.001v-.014A8.207 8.207 0 0 1 11 20.4v-.8c0-.297 0-.459.01-.575l.001-.014h.014ZM4.5 13.5a1 1 0 0 1-1-1v-1a1 1 0 0 1 1-1h1a1 1 0 0 1 1 1v1a1 1 0 0 1-1 1h-1Z" clip-rule="evenodd"/></svg>