<svg viewBox="0 0 24 24" xmlns="http://www.w3.org/2000/svg"><path fill-rule="evenodd" d="M13.025 2.5a1 1 0 1 0-2 0v.571a7.006 7.006 0 0 0-5.977 6.313l-.344 2.156a.933.933 0 0 0-.009.074 11 11 0 0 1-1.123 4.006l-.388.775-.014.028a6.461 6.461 0 0 0-.235.506c-.065.167-.16.452-.11.79a1.5 1.5 0 0 0 .624 1.01l.573-.82-.573.82a1.3 1.3 0 0 0 .265.143l-1.421 1.42a1 1 0 1 0 1.414 1.415l14.14-14.14 3.86-3.86a1 1 0 0 0-1.414-1.414l-3.045 3.045a6.999 6.999 0 0 0-4.223-2.267V2.5Zm2.806 4.255L5.582 17.003A1.022 1.022 0 0 0 5.5 17h-.382l.243-.486a13 13 0 0 0 1.324-4.696l.344-2.155a.999.999 0 0 0 .009-.074 5.004 5.004 0 0 1 8.793-2.834Zm3.4 4.09a1 1 0 0 0-1.975.31l.113.724a13 13 0 0 0 1.267 4.58L18.9 17h-7.332c-.252 0-.498 0-.706.017a2.022 2.022 0 0 0-.77.201 2 2 0 0 0-.874.874 2.022 2.022 0 0 0-.201.77C9 19.07 9 19.316 9 19.568v.864c0 .252 0 .498.017.706.019.229.063.499.201.77a2 2 0 0 0 .874.874c.271.138.541.182.77.201.208.017.454.017.706.017h.864c.252 0 .498 0 .706-.017a2.03 2.03 0 0 0 .77-.201 2 2 0 0 0 .874-.874 2.03 2.03 0 0 0 .201-.77c.017-.208.017-.454.017-.706v-.864c0-.198 0-.393-.008-.568h4.258c.185 0 .385 0 .554-.015.177-.017.472-.06.751-.253a1.5 1.5 0 0 0 .626-1.002 1.536 1.536 0 0 0-.102-.787 6.42 6.42 0 0 0-.228-.504l-.014-.028-.404-.828a11.001 11.001 0 0 1-1.075-3.907.976.976 0 0 0-.008-.073l-.12-.758ZM12.4 19h-.8c-.296 0-.459 0-.575.01l-.014.001v.014c-.01.116-.011.279-.011.575v.8c0 .297 0 .459.01.575l.001.014h.014c.116.01.278.011.575.011h.8c.296 0 .459 0 .575-.01l.014-.001v-.014c.01-.116.011-.279.011-.575v-.8c0-.297 0-.459-.01-.575l-.001-.014h-.014A8.207 8.207 0 0 0 12.4 19Z" clip-rule="evenodd"/></svg>