<svg viewBox="0 0 24 24" xmlns="http://www.w3.org/2000/svg"><path fill-rule="evenodd" d="M18.5 4.5A2.5 2.5 0 0 1 21 7v10a6 6 0 0 1-6 6h-4.308a5.8 5.8 0 0 1-4.95-2.776L2.43 14.801a2.702 2.702 0 0 1 4.415-3.097L7 11.9V5a2.503 2.503 0 0 1 3.172-2.412 2.504 2.504 0 0 1 4.447-.426A2.496 2.496 0 0 1 18 4.496v.054a2.51 2.51 0 0 1 .5-.05ZM18 7v5a1 1 0 1 1-2 0V4.496a.496.496 0 0 0-.992 0L15 12a1 1 0 0 1-2-.002l.006-8.499A.503.503 0 1 0 12 3.5v1.325c.004.059.006.117.006.176L12 12a1 1 0 0 1-2 0V4.922a.503.503 0 0 0-1 .077v9.334c0 .021 0 .043-.002.064l.783.978a1 1 0 1 1-1.562 1.25l-2.937-3.671a.702.702 0 0 0-1.147.804l3.314 5.423A3.8 3.8 0 0 0 10.692 21H15a4 4 0 0 0 4-4V7a.5.5 0 0 0-1 0Z" clip-rule="evenodd"/></svg>