<svg viewBox="0 0 24 24" xmlns="http://www.w3.org/2000/svg"><path fill-rule="evenodd" d="M16 2a3 3 0 0 1 3 3v2a1 1 0 1 1-2 0V5a1 1 0 0 0-1-1H5a1 1 0 0 0-1 1v14a1 1 0 0 0 1 1h2.5a1 1 0 1 1 0 2H5a3 3 0 0 1-3-3V5a3 3 0 0 1 3-3h11Zm-3 4a1 1 0 0 1 1 1v1a1 1 0 0 1-1 1h-1a1 1 0 0 1-1-1V7a1 1 0 0 1 1-1h1ZM8 6a1 1 0 0 1 1 1v1a1 1 0 0 1-1 1H7a1 1 0 0 1-1-1V7a1 1 0 0 1 1-1h1Zm0 5a1 1 0 0 1 1 1v1a1 1 0 0 1-1 1H7a1 1 0 0 1-1-1v-1a1 1 0 0 1 1-1h1Zm6.586-.5a2 2 0 0 1 2.828 0l3.707 3.707A3 3 0 0 1 22 16.328V20a2 2 0 0 1-2 2h-8a2 2 0 0 1-2-2v-3.672a3 3 0 0 1 .879-2.12l3.707-3.708Zm5.121 5.121L16 11.914l-3.707 3.707a1 1 0 0 0-.293.707V20h2.75v-1a1 1 0 0 1 1-1h.5a1 1 0 0 1 1 1v1H20v-3.672a1 1 0 0 0-.293-.707Z" clip-rule="evenodd"/></svg>