<svg viewBox="0 0 24 24" xmlns="http://www.w3.org/2000/svg"><mask id="a" width="24" height="24" x="0" y="0" maskUnits="userSpaceOnUse" style="mask-type:alpha"><path d="M0 0h24v24H0z"/></mask><g mask="url(#a)"><path d="M21.631 8.562c-.295-.216-.886-.504-2.066-.793-.37-.072-.738-.144-1.181-.216a55.67 55.67 0 0 0-1.993-.217h-.074l-.443-1.081c-.073-.217-.147-.433-.295-.65v-.071c-.295-.794-.664-1.587-1.254-2.308C13.66 2.433 12.775 2 11.889 2c-.885 0-1.77.433-2.435 1.226-.59.721-.96 1.514-1.255 2.308v.072c-.074.216-.147.432-.295.649l-.443 1.081h-.074c-.738.073-1.402.145-1.992.217-.443.072-.812.144-1.181.216-1.107.289-1.771.577-2.066.793a.544.544 0 0 0-.148.36l.074.722c.147 1.082.295 2.308.59 3.606.222 1.01.443 2.019.812 2.956l.443 1.082a8.793 8.793 0 0 0 5.978 4.615 9.541 9.541 0 0 0 2.066.217c.664 0 1.402-.072 2.067-.217 2.656-.576 4.87-2.38 6.051-4.76.148-.288.295-.576.37-.864.811-2.164 1.106-4.472 1.401-6.346L22 8.85a2.01 2.01 0 0 1-.369-.289ZM11.815 7.12c-.959 0-1.77 0-2.509.072.074-.072.074-.216.148-.288.074-.217.221-.433.295-.65.221-.504.443-1.009.664-1.442.148-.216.222-.36.37-.576.22-.217.59-.577 1.106-.577.517 0 .886.36 1.107.577.148.144.295.36.37.576.22.433.442.938.664 1.443.073.216.147.432.295.649.074.072.074.216.147.288-.885-.072-1.77-.072-2.656-.072Z"/></g></svg>