<svg viewBox="0 0 24 24" xmlns="http://www.w3.org/2000/svg"><path fill-rule="evenodd" d="M16 3a1 1 0 1 1 2 0v1.026c.247.023.504.072.765.187a2.5 2.5 0 0 1 1.052.873c.18.262.277.535.347.798.065.244.12.537.18.858l.006.031 2.1 11.2.007.04c.085.454.161.856.194 1.192.035.354.036.74-.103 1.132a2.5 2.5 0 0 1-1.098 1.324c-.36.209-.74.279-1.095.31-.335.029-.745.029-1.207.029H4.852c-.462 0-.872 0-1.207-.03-.355-.03-.735-.1-1.095-.309a2.5 2.5 0 0 1-1.098-1.324c-.14-.391-.138-.778-.103-1.132.033-.336.109-.738.194-1.192l.007-.04 2.1-11.2.006-.031c.06-.321.115-.614.18-.858a2.53 2.53 0 0 1 .347-.798 2.5 2.5 0 0 1 1.052-.873A2.41 2.41 0 0 1 6 4.026V3a1 1 0 1 1 2 0v1h8V3Zm1.008 3H6.992c-.37 0-.592 0-.76.013a1.192 1.192 0 0 0-.152.02.19.19 0 0 0-.037.01.5.5 0 0 0-.21.174c-.001.002-.007.01-.017.034a1.193 1.193 0 0 0-.047.147c-.044.163-.085.381-.153.744l-2.1 11.2c-.095.506-.153.821-.177 1.06a.893.893 0 0 0-.003.265.5.5 0 0 0 .22.265c.009.005.07.03.262.046.238.021.56.022 1.074.022h8.452c.488 0 .799 0 1.037-.018.226-.017.315-.046.363-.067a1 1 0 0 0 .42-.35c.03-.043.075-.125.133-.344.062-.231.12-.537.21-1.016l2.285-12.19-.025-.002C17.6 6.001 17.377 6 17.008 6Zm3.476 12.342L19 10.426l-1.528 8.148-.006.034c-.082.435-.153.815-.236 1.127a4.56 4.56 0 0 1-.079.265h1.957c.514 0 .835 0 1.074-.022a.887.887 0 0 0 .262-.046.5.5 0 0 0 .22-.264.895.895 0 0 0-.003-.267 14.06 14.06 0 0 0-.177-1.059Zm-10.39-9.074a1 1 0 0 0-1.945.464 29.824 29.824 0 0 1 .847 6.782 1 1 0 0 0 2-.028 33.124 33.124 0 0 0-.23-3.514A2.835 2.835 0 0 0 14 10.165V9.5a1 1 0 1 0-2 0v.665a.835.835 0 0 1-1.647.195l-.141-.586-.117-.506Z" clip-rule="evenodd"/></svg>