<svg viewBox="0 0 24 24" xmlns="http://www.w3.org/2000/svg"><path fill-rule="evenodd" d="M7.5 2.5a1 1 0 1 0-2 0v1.503a9.51 9.51 0 0 0-.695.028c-.395.032-.789.103-1.167.296a3 3 0 0 0-1.311 1.311c-.193.378-.264.772-.296 1.167C2 7.18 2 7.635 2 8.161v7.677c0 .528 0 .982.03 1.357.033.395.104.789.297 1.167a3 3 0 0 0 1.311 1.311c.378.193.772.264 1.167.296.207.017.44.025.695.028V21.5a1 1 0 1 0 2 0v-1.503a9.51 9.51 0 0 0 .695-.028c.395-.032.789-.103 1.167-.296a3 3 0 0 0 1.311-1.311c.193-.378.264-.772.296-1.167.031-.375.031-.83.031-1.356V8.16c0-.527 0-.981-.03-1.356-.033-.395-.104-.789-.297-1.167a3 3 0 0 0-1.311-1.311c-.378-.193-.772-.264-1.167-.296-.207-.017-.44-.025-.695-.028V2.5ZM4.546 6.109c.05-.025.15-.063.422-.085C5.25 6 5.623 6 6.2 6h.6c.577 0 .949 0 1.232.024.272.022.373.06.422.085a1 1 0 0 1 .437.437c.025.05.063.15.085.422C9 7.25 9 7.623 9 8.2v7.6c0 .577 0 .949-.024 1.232-.022.272-.06.372-.085.422a1 1 0 0 1-.437.437c-.05.025-.15.063-.422.085C7.75 18 7.377 18 6.8 18h-.6c-.577 0-.949 0-1.232-.024-.272-.022-.373-.06-.422-.085a1 1 0 0 1-.437-.437c-.025-.05-.063-.15-.085-.422C4 16.75 4 16.377 4 15.8V8.2c0-.577 0-.949.024-1.232.022-.272.06-.373.085-.422a1 1 0 0 1 .437-.437ZM18.5 2.5a1 1 0 1 0-2 0V7a1 1 0 1 0 2 0V2.5ZM17.2 9h-.038c-.528 0-.982 0-1.357.03-.395.033-.789.104-1.167.297a3 3 0 0 0-1.311 1.311c-.193.378-.264.772-.296 1.167-.031.375-.031.83-.031 1.357v2.676c0 .528 0 .982.03 1.357.033.395.104.789.297 1.167a3 3 0 0 0 1.311 1.311c.378.193.772.264 1.167.296.207.017.44.025.695.028V21.5a1 1 0 1 0 2 0v-1.503a9.51 9.51 0 0 0 .695-.028c.395-.032.789-.103 1.167-.296a3 3 0 0 0 1.311-1.311c.193-.378.264-.772.296-1.167.031-.375.031-.83.031-1.356v-2.677c0-.528 0-.982-.03-1.357-.033-.395-.104-.789-.297-1.167a3 3 0 0 0-1.311-1.311c-.378-.193-.772-.264-1.167-.296A17.9 17.9 0 0 0 17.838 9H17.2Zm-1.654 2.109c.05-.025.15-.063.422-.085C16.25 11 16.623 11 17.2 11h.6c.577 0 .949 0 1.232.024.272.022.372.06.422.085a1 1 0 0 1 .437.437c.025.05.063.15.085.422.023.283.024.655.024 1.232v2.6c0 .577 0 .949-.024 1.232-.022.272-.06.372-.085.422a1 1 0 0 1-.437.437c-.05.025-.15.063-.422.085C18.75 18 18.377 18 17.8 18h-.6c-.577 0-.949 0-1.232-.024-.272-.022-.373-.06-.422-.085a1 1 0 0 1-.437-.437c-.025-.05-.063-.15-.085-.422C15 16.75 15 16.377 15 15.8v-2.6c0-.577 0-.949.024-1.232.022-.272.06-.373.085-.422a1 1 0 0 1 .437-.437Z" clip-rule="evenodd"/></svg>