<svg viewBox="0 0 24 24" xmlns="http://www.w3.org/2000/svg"><path fill-rule="evenodd" d="M7.932 2H7.78c-.717-.001-1.346-.002-1.9.225a3 3 0 0 0-1.227.934c-.367.472-.535 1.078-.726 1.77l-.04.147L3.212 7.5H2a1 1 0 0 0-1 1V9a1 1 0 0 0 1 1h.518l-.381 1.372c-.198.142-.373.32-.505.517-.242.362-.31.77-.362 1.085l-.013.08c-.254 1.492-.253 2.734-.253 3.894v.045C1 17.583 1 20.415 1 20.997V21a1 1 0 0 0 1 1h2a1 1 0 0 0 1-1v-1h14v1a1 1 0 0 0 1 1h2a1 1 0 0 0 1-1v-.003c0-.582 0-3.415-.004-4.004v-.045c0-1.16 0-2.402-.253-3.893l-.013-.08c-.053-.316-.12-.724-.362-1.086a2.043 2.043 0 0 0-.505-.517L21.483 10H22a1 1 0 0 0 1-1v-.5a1 1 0 0 0-1-1h-1.212l-.674-2.424-.04-.147c-.191-.692-.359-1.298-.726-1.77a3 3 0 0 0-1.228-.934C17.567 1.998 16.938 2 16.22 2H7.933Zm-3.616 9h15.368l-1.497-5.389c-.257-.926-.326-1.107-.418-1.225a1 1 0 0 0-.409-.31C17.222 4.017 17.03 4 16.068 4H7.932c-.961 0-1.154.018-1.292.075a1 1 0 0 0-.41.311c-.091.118-.16.299-.417 1.225l-1.497 5.39ZM6 13h1v.5a.5.5 0 0 1-1 0V13Zm-2 .5V13h-.25c-.239 0-.36 0-.446.008H3.3a10.451 10.451 0 0 0-.071.382c-.225 1.325-.225 2.423-.225 3.601V17A1 1 0 0 0 4 18h5a1 1 0 0 1 1-1h4a1 1 0 0 1 1 1h4.999a1 1 0 0 0 .997-1v-.009c0-1.178 0-2.276-.225-3.601-.017-.103-.03-.18-.043-.249a2.21 2.21 0 0 0-.028-.133h-.004A6.51 6.51 0 0 0 20.25 13H20v.5a2.5 2.5 0 0 1-5 0V13H9v.5a2.5 2.5 0 0 1-5 0Zm14-.5h-1v.5a.5.5 0 0 0 1 0V13Z" clip-rule="evenodd"/></svg>