<svg viewBox="0 0 24 24" xmlns="http://www.w3.org/2000/svg"><path fill-rule="evenodd" d="M12.267 3.92a9.44 9.44 0 0 1 .698-.145l.02-.003.001.02c.013.147.014.352.014.712v14.992c0 .36 0 .565-.014.712l-.002.02-.02-.003a9.438 9.438 0 0 1-.697-.144l-.767-.175V4.094l.767-.175ZM9 19.337V4.662l-3.288.747c-.458.104-.75.171-.97.239-.21.063-.288.109-.33.139a1 1 0 0 0-.331.416c-.02.047-.048.134-.064.351-.016.23-.017.53-.017 1v8.892c0 .47 0 .77.017 1 .016.217.043.303.064.35a1 1 0 0 0 .332.417c.041.03.12.075.328.14.221.067.513.134.971.238L9 19.338ZM13.62 1.85a2.044 2.044 0 0 0-.926-.058c-.244.034-.531.099-.835.168l-.035.008-6.555 1.49-.032.007c-.417.095-.781.177-1.08.269a3.024 3.024 0 0 0-.919.433 3 3 0 0 0-.996 1.249 3.036 3.036 0 0 0-.22.991C2 6.72 2 7.093 2 7.521v8.958c0 .427 0 .8.023 1.113.024.332.078.662.219.991a3 3 0 0 0 .996 1.249c.29.21.6.335.919.433.299.091.663.174 1.08.269l.032.007 6.555 1.49.035.008c.304.069.591.134.835.168.262.035.585.052.925-.058a2 2 0 0 0 1.098-.877 2.04 2.04 0 0 0 .261-.889c.022-.245.022-.54.022-.851V4.468c0-.311 0-.606-.021-.852a2.045 2.045 0 0 0-.262-.889 2 2 0 0 0-1.098-.876ZM20 6.5v11a1 1 0 1 0 2 0v-11a1 1 0 1 0-2 0Zm-1.5-2a1 1 0 1 0-2 0v15a1 1 0 1 0 2 0v-15Z" clip-rule="evenodd"/></svg>