<svg viewBox="0 0 24 24" xmlns="http://www.w3.org/2000/svg"><path fill-rule="evenodd" d="M17 1h-.116c-.817 0-1.375 0-1.86.096a5 5 0 0 0-3.928 3.929C11 5.509 11 6.067 11 6.885v.231c0 .817 0 1.375.096 1.86a5 5 0 0 0 3.928 3.928c.485.096 1.043.096 1.86.096h.232c.817 0 1.375 0 1.86-.096a5 5 0 0 0 3.928-3.929C23 8.491 23 7.933 23 7.115v-.231c0-.817 0-1.375-.096-1.86a5 5 0 0 0-3.929-3.928C18.491 1 17.933 1 17.115 1H17Zm-1.585 2.058C15.68 3.005 16.023 3 17 3s1.32.005 1.585.058a3 3 0 0 1 2.357 2.357C20.995 5.68 21 6.023 21 7s-.005 1.32-.058 1.585a3 3 0 0 1-2.357 2.357c-.265.053-.608.058-1.585.058s-1.32-.005-1.585-.058a3 3 0 0 1-2.357-2.357C13.005 8.32 13 7.977 13 7s.005-1.32.058-1.585a3 3 0 0 1 2.357-2.357ZM6.16 4H8.5a1 1 0 1 1 0 2H6.2c-.577 0-.949 0-1.232.024-.272.022-.373.06-.422.085a1 1 0 0 0-.437.437c-.025.05-.063.15-.085.422C4.004 7.217 4 7.535 4 8h4.5a1 1 0 0 1 1 1v1a1 1 0 0 1-1 1H4v4.8c0 .577 0 .949.024 1.232.022.272.06.373.085.422a1 1 0 0 0 .437.437c.05.025.15.063.422.085C5.25 18 5.623 18 6.2 18h11.6c.577 0 .949 0 1.232-.024.272-.022.372-.06.422-.085a1 1 0 0 0 .437-.437c.025-.05.063-.15.085-.422C20 16.75 20 16.377 20 15.8V15a1 1 0 1 1 2 0v.839c0 .527 0 .981-.03 1.356-.033.395-.104.789-.297 1.167a3 3 0 0 1-1.311 1.311c-.378.193-.772.264-1.167.297-.375.03-.83.03-1.357.03H6.162c-.527 0-.981 0-1.356-.03-.395-.033-.789-.104-1.167-.297a3 3 0 0 1-1.311-1.311c-.193-.378-.264-.772-.296-1.167C2 16.82 2 16.365 2 15.84V8.16c0-.527 0-.981.03-1.356.033-.395.104-.789.297-1.167a3 3 0 0 1 1.311-1.311c.378-.193.772-.264 1.167-.296C5.18 4 5.635 4 6.161 4ZM17 4a1 1 0 0 1 1 1v1.586l1.207 1.207a1 1 0 0 1-1.414 1.414l-1.5-1.5A1 1 0 0 1 16 7V5a1 1 0 0 1 1-1Z" clip-rule="evenodd"/></svg>