<svg viewBox="0 0 24 24" xmlns="http://www.w3.org/2000/svg"><path fill-rule="evenodd" d="M22.207 3.207a1 1 0 0 0-1.414-1.414l-2.21 2.21A1.01 1.01 0 0 0 18.5 4H6.161c-.527 0-.981 0-1.356.03-.395.033-.789.104-1.167.297a3 3 0 0 0-1.311 1.311c-.193.378-.264.772-.296 1.167C2 7.18 2 7.635 2 8.161v7.677c0 .528 0 .982.03 1.357.033.395.104.789.297 1.167a3 3 0 0 0 .865 1.032l-1.4 1.399a1 1 0 1 0 1.415 1.414l19-19ZM4.64 17.946 11.586 11H4v4.8c0 .577 0 .949.024 1.232.022.272.06.372.085.422l-.891.454.891-.454a1 1 0 0 0 .437.437.964.964 0 0 1 .094.055Zm9.942-9.943L16.586 6H6.2c-.577 0-.949 0-1.232.024-.272.022-.373.06-.422.085a1 1 0 0 0-.437.437c-.025.05-.063.15-.085.422C4.004 7.217 4 7.535 4 8h10.5c.028 0 .055.001.082.003ZM22 8.5a1 1 0 0 0-1.707-.707l-1.5 1.5A1 1 0 0 0 19.5 11h.5v4.8c0 .577 0 .949-.024 1.232-.022.272-.06.372-.085.422l.891.454-.891-.454a1 1 0 0 1-.437.437c-.05.025-.15.063-.422.085C18.75 18 18.377 18 17.8 18H11a1 1 0 1 0 0 2h6.838c.528 0 .982 0 1.357-.03.395-.033.789-.104 1.167-.297a3 3 0 0 0 1.311-1.311c.193-.378.264-.772.296-1.167.031-.375.031-.83.031-1.356V8.5Z" clip-rule="evenodd"/></svg>