<svg viewBox="0 0 24 24" xmlns="http://www.w3.org/2000/svg"><path fill-rule="evenodd" d="M3 10a1 1 0 0 0 1-1V3a1 1 0 0 0-2 0v6a1 1 0 0 0 1 1Zm-1.5 3.5a1 1 0 0 0 1 1h1a1 1 0 0 0 1-1v-1a1 1 0 0 0-1-1h-1a1 1 0 0 0-1 1v1ZM17.8 6c.577 0 .949 0 1.232.024.272.022.373.06.422.085a1 1 0 0 1 .437.437l.882-.45-.882.45c.025.05.063.15.085.422.02.249.024.567.024 1.032H7a1 1 0 0 0-1 1v1a1 1 0 0 0 1 1h13v4.8c0 .577 0 .949-.024 1.232-.022.272-.06.372-.085.422l.891.454-.891-.454a1 1 0 0 1-.437.437c-.05.025-.15.063-.422.085C18.75 18 18.377 18 17.8 18H5.5c-.513 0-.623-.005-.695-.02a1 1 0 0 1-.786-.785 1.398 1.398 0 0 1-.016-.22 1 1 0 0 0-2 .05c.006.185.017.37.055.56a3 3 0 0 0 2.357 2.357c.293.059.62.058 1.001.058h12.422c.528 0 .982 0 1.357-.03.395-.033.789-.104 1.167-.297a3 3 0 0 0 1.311-1.311c.193-.378.264-.772.296-1.167.031-.375.031-.83.031-1.356V8.16c0-.527 0-.981-.03-1.356-.033-.395-.104-.789-.297-1.167a3 3 0 0 0-1.311-1.311c-.378-.193-.772-.264-1.167-.296A17.9 17.9 0 0 0 17.839 4H7a1 1 0 0 0 0 2h10.8Z" clip-rule="evenodd"/></svg>