<svg viewBox="0 0 24 24" xmlns="http://www.w3.org/2000/svg"><path fill-rule="evenodd" d="M6.2 4h-.039c-.527 0-.981 0-1.356.03-.395.033-.789.104-1.167.297a3 3 0 0 0-1.311 1.311c-.193.378-.264.772-.296 1.167C2 7.18 2 7.635 2 8.161v7.677c0 .528 0 .982.03 1.357.033.395.104.789.297 1.167a3 3 0 0 0 1.311 1.311c.378.193.772.264 1.167.296.375.031.83.031 1.356.031H11a1 1 0 1 0 0-2H6.2c-.577 0-.949 0-1.232-.024-.272-.022-.373-.06-.422-.085a1 1 0 0 1-.437-.437c-.025-.05-.063-.15-.085-.422C4 16.75 4 16.377 4 15.8V11h17a1 1 0 0 0 1-1V8.161c0-.527 0-.981-.03-1.356-.033-.395-.104-.789-.297-1.167a3 3 0 0 0-1.311-1.311c-.378-.193-.772-.264-1.167-.296A17.9 17.9 0 0 0 17.839 4H6.2ZM4.546 6.109c.05-.025.15-.063.422-.085C5.25 6 5.623 6 6.2 6h11.6c.577 0 .949 0 1.232.024.272.022.372.06.422.085a1 1 0 0 1 .437.437c.025.05.063.15.085.422.02.249.024.567.024 1.032H4c0-.465.004-.783.024-1.032.022-.272.06-.373.085-.422a1 1 0 0 1 .437-.437Zm11.505 9.941a1 1 0 1 1 0-2h3.38c.253 0 .498 0 .707.017.228.019.498.063.77.201a2 2 0 0 1 .873.874c.139.272.183.541.201.77a9.2 9.2 0 0 1 .017.706V20a1 1 0 1 1-2 0v-2.586l-4.293 4.293a1 1 0 0 1-1.414-1.414l4.243-4.243H16.05Z" clip-rule="evenodd"/></svg>