<svg viewBox="0 0 24 24" xmlns="http://www.w3.org/2000/svg"><path fill-rule="evenodd" d="M13.144 20.294c-.366.15-.78.206-1.144.206-.364 0-.778-.055-1.144-.206-.844-.348-1.28-1-1.754-1.706l-.08-.12a85.17 85.17 0 0 1-2.886-4.63C4.562 11.14 3.548 8.839 2.921 7.186l-.024-.061c-.228-.6-.437-1.15-.286-1.974.065-.358.24-.72.406-.996.167-.276.407-.6.693-.824.659-.517 1.223-.586 1.843-.661l.054-.007c1.46-.178 3.536-.329 6.393-.329 2.857 0 4.934.15 6.393.33l.055.006c.62.075 1.183.144 1.842.66.286.225.526.549.693.825.166.275.34.638.406.996.15.825-.058 1.374-.286 1.974l-.023.061c-.628 1.653-1.642 3.954-3.216 6.652a85.165 85.165 0 0 1-2.886 4.63l-.08.12c-.473.706-.91 1.358-1.754 1.706Z" clip-rule="evenodd"/></svg>