<svg viewBox="0 0 24 24" xmlns="http://www.w3.org/2000/svg"><path fill-rule="evenodd" d="M13.144 2.54A3.066 3.066 0 0 0 12 2.334c-.364 0-.778.055-1.144.206-.844.349-1.28 1-1.754 1.706l-.08.12a85.189 85.189 0 0 0-2.886 4.63c-1.574 2.698-2.588 4.999-3.215 6.652l-.024.062c-.228.6-.437 1.149-.286 1.973.065.358.24.72.406.997.167.275.407.599.693.823.659.517 1.223.586 1.843.661l.054.007c1.46.179 3.536.329 6.393.329 2.857 0 4.934-.15 6.393-.329l.055-.007c.62-.075 1.183-.144 1.842-.66.286-.225.526-.549.693-.825.166-.275.34-.638.406-.996.15-.824-.058-1.374-.286-1.973l-.023-.062c-.628-1.653-1.642-3.954-3.216-6.652a85.184 85.184 0 0 0-2.886-4.63l-.08-.12c-.473-.706-.91-1.357-1.754-1.706Z" clip-rule="evenodd"/></svg>