<svg viewBox="0 0 24 24" xmlns="http://www.w3.org/2000/svg"><path fill-rule="evenodd" d="M6.149 2.474A1 1 0 0 1 6.999 2h14a1 1 0 0 1 .895 1.447l-.757 1.513c.438.822.752 1.82.967 2.87.266 1.295.395 2.739.395 4.17s-.13 2.875-.395 4.17c-.215 1.05-.53 2.048-.967 2.87l.757 1.513A1 1 0 0 1 20.999 22H16a1 1 0 1 1 0-2h3.381l-.276-.553a1 1 0 0 1 .062-1.002c.4-.598.74-1.52.978-2.677.234-1.143.354-2.45.354-3.768 0-1.319-.12-2.625-.354-3.768-.238-1.157-.579-2.079-.978-2.677a1 1 0 0 1-.062-1.002L19.38 4H8.617l.277.553a1 1 0 0 1-.063 1.002c-.72 1.081-1.203 3.128-1.31 5.468v.477a1 1 0 1 1-2 0V11l.001-.044c.098-2.196.511-4.438 1.34-5.996l-.757-1.513a1 1 0 0 1 .044-.973ZM10 9a1 1 0 0 1 1-1h6a1 1 0 0 1 1 1v6a1 1 0 0 1-1 1h-6a1 1 0 0 1-1-1V9Zm2 1v4h4v-4h-4Zm-9 7.857C3 16.805 3.822 16 4.778 16c.955 0 1.778.805 1.778 1.857v.572a1 1 0 0 0 1 1H9.32c.892 0 1.62.694 1.676 1.571H3.6c-.297 0-.459 0-.575-.01l-.014-.001v-.014A8.187 8.187 0 0 1 3 20.4v-2.543ZM4.778 14C2.665 14 1 15.754 1 17.857v2.575c0 .252 0 .498.017.706.019.229.063.499.201.77a2 2 0 0 0 .874.874c.271.138.541.182.77.201.208.017.454.017.706.017h7.539A1.893 1.893 0 0 0 13 21.107a3.678 3.678 0 0 0-3.679-3.678h-.789C8.324 15.52 6.745 14 4.778 14Z" clip-rule="evenodd"/></svg>