<svg viewBox="0 0 24 24" xmlns="http://www.w3.org/2000/svg"><path fill-rule="evenodd" d="M3 2a1 1 0 0 1 1 1v13.2c0 .857 0 1.439.038 1.889.035.438.1.663.18.819l-.637.325.637-.325a2 2 0 0 0 .874.874c.156.08.38.145.819.18C6.361 20 6.943 20 7.8 20H21a1 1 0 1 1 0 2H7.759c-.805 0-1.47 0-2.01-.044-.563-.046-1.08-.145-1.565-.392a4 4 0 0 1-1.748-1.748c-.247-.485-.346-1.002-.392-1.564C2 17.71 2 17.046 2 16.242V3a1 1 0 0 1 1-1Zm3.293 13.793A1 1 0 0 1 7 15.5h1a1 1 0 0 1 1 1v1a1 1 0 0 1-1 1H7a1 1 0 0 1-1-1v-1a1 1 0 0 1 .293-.707ZM11 4a1 1 0 0 0-1 1v12.5a1 1 0 0 0 1 1h1a1 1 0 0 0 1-1V5a1 1 0 0 0-1-1h-1Zm3.293 9.293A1 1 0 0 1 15 13h1a1 1 0 0 1 1 1v3.5a1 1 0 0 1-1 1h-1a1 1 0 0 1-1-1V14a1 1 0 0 1 .293-.707ZM19 9a1 1 0 0 0-1 1v7.5a1 1 0 0 0 1 1h1a1 1 0 0 0 1-1V10a1 1 0 0 0-1-1h-1Z" clip-rule="evenodd"/></svg>