<svg viewBox="0 0 24 24" xmlns="http://www.w3.org/2000/svg"><path fill-rule="evenodd" d="M4 3a1 1 0 0 0-2 0v13.241c0 .598 0 1.118.018 1.568-.032.168-.02.34.031.5.048.54.148 1.038.387 1.507a4 4 0 0 0 1.748 1.748c.485.247 1.002.346 1.564.392C6.29 22 6.954 22 7.758 22H21a1 1 0 1 0 0-2H7.8c-.856 0-1.439 0-1.889-.038-.438-.035-.662-.1-.819-.18a2 2 0 0 1-.874-.874l-.637.325.637-.325c-.07-.14-.13-.332-.167-.681l5.181-7.773 5.678 4.462a1.5 1.5 0 0 0 2.255-.481l4.72-8.97a1 1 0 1 0-1.77-.93l-4.44 8.437-5.632-4.424a1.5 1.5 0 0 0-2.175.347L4 14.697V3Z" clip-rule="evenodd"/></svg>