<svg viewBox="0 0 24 24" xmlns="http://www.w3.org/2000/svg"><path fill-rule="evenodd" d="M10.956 2h2.088c1.363 0 2.447 0 3.321.071.896.074 1.66.227 2.359.583a6 6 0 0 1 2.622 2.622c.356.7.51 1.463.583 2.359.071.874.071 1.958.071 3.321v2.088c0 1.363 0 2.447-.071 3.322-.074.895-.227 1.659-.583 2.358a6 6 0 0 1-2.622 2.622c-.7.356-1.463.51-2.359.583-.874.071-1.958.071-3.321.071h-2.088c-1.363 0-2.447 0-3.321-.071-.896-.073-1.66-.227-2.359-.583a6 6 0 0 1-2.622-2.622c-.356-.7-.51-1.463-.583-2.358C2 15.49 2 14.405 2 13.044v-2.088c0-1.363 0-2.447.071-3.321.074-.896.227-1.66.583-2.359a6 6 0 0 1 2.622-2.622c.7-.356 1.463-.51 2.359-.583C8.509 2 9.593 2 10.956 2Zm6.529 6.21A1 1 0 1 0 15.9 6.99l-4.931 6.41-1.7-2.04a1 1 0 1 0-1.537 1.28l1.86 2.233.018.02c.093.113.2.242.303.345.115.116.301.281.573.377a1.5 1.5 0 0 0 1.052-.02c.267-.107.447-.28.557-.4.099-.107.201-.24.29-.356l.017-.021 5.083-6.608Z" clip-rule="evenodd"/></svg>