<svg viewBox="0 0 24 24" xmlns="http://www.w3.org/2000/svg"><path fill-rule="evenodd" d="M19.612 2.342C18.78 2 17.667 2 15.6 2h-3.2c-2.24 0-3.36 0-4.216.436a4 4 0 0 0-1.748 1.748C6 5.04 6 6.16 6 8.4v3.2c0 2.24 0 3.36.436 4.216a4 4 0 0 0 1.748 1.748C9.04 18 10.16 18 12.4 18h3.2c2.24 0 3.36 0 4.216-.436a4 4 0 0 0 1.748-1.748C22 14.96 22 13.84 22 11.6V8.4c0-1.049 0-1.852-.045-2.498l.86-1.211a1 1 0 0 0-1.459-1.345l-6.946 9.426-.016.022a5.59 5.59 0 0 1-.287.368 1.52 1.52 0 0 1-.558.414 1.5 1.5 0 0 1-1.063.032 1.52 1.52 0 0 1-.581-.38 5.544 5.544 0 0 1-.309-.35l-.018-.022-1.846-2.216a1 1 0 0 1 1.536-1.28l1.684 2.02 6.66-9.038ZM3.89 7.293a1 1 0 0 1 .437 1.345c-.134.263-.226.611-.276 1.216-.05.617-.051 1.41-.051 2.546v2.2c0 1.137 0 1.929.051 2.546.05.605.142.953.276 1.216a3 3 0 0 0 1.311 1.311c.263.134.611.226 1.216.276.617.05 1.41.051 2.546.051h2.2c1.137 0 1.929 0 2.546-.051.605-.05.953-.142 1.216-.276a1 1 0 0 1 .908 1.782c-.592.302-1.232.428-1.961.487C13.6 22 12.727 22 11.643 22H9.357c-1.084 0-1.958 0-2.666-.058-.728-.06-1.369-.185-1.96-.487a5 5 0 0 1-2.186-2.185c-.302-.592-.428-1.232-.487-1.961C2 16.6 2 15.727 2 14.643v-2.286c0-1.084 0-1.958.058-2.666.06-.728.185-1.369.487-1.961a1 1 0 0 1 1.345-.437Z" clip-rule="evenodd"/></svg>