<svg viewBox="0 0 24 24" xmlns="http://www.w3.org/2000/svg"><path fill-rule="evenodd" d="M8.5 1a1 1 0 0 0 0 2v4.586l-4.707 4.706v.002l-.757.756A5.242 5.242 0 0 0 6.743 22h10.514a5.243 5.243 0 0 0 3.707-8.95l-5.318-5.318a.5.5 0 0 1-.146-.353V3a1 1 0 1 0 0-2h-7ZM4.914 14l-.464.464A3.243 3.243 0 0 0 6.743 20h10.514a3.243 3.243 0 0 0 2.293-5.536L19.086 14H16a1 1 0 0 1-1 1h-1a1 1 0 0 1-1-1H4.914Zm12.172-2-2.854-2.854A2.5 2.5 0 0 1 13.5 7.38V3h-3v4.586A2 2 0 0 1 9.914 9l-3 3h10.172ZM9 15a1 1 0 0 0-1 1v1a1 1 0 0 0 1 1h1a1 1 0 0 0 1-1v-1a1 1 0 0 0-1-1H9Z" clip-rule="evenodd"/></svg>