<svg viewBox="0 0 24 24" xmlns="http://www.w3.org/2000/svg"><path fill-rule="evenodd" d="M9.293 17.707a1 1 0 0 1 0-1.414l3.303-3.303c.309-.309.497-.498.627-.651a1.284 1.284 0 0 0 .128-.177.5.5 0 0 0 0-.325 1.284 1.284 0 0 0-.128-.177c-.13-.152-.319-.341-.627-.65L9.293 7.707a1 1 0 0 1 1.414-1.414l3.303 3.303.026.025c.275.275.522.523.712.746.202.238.396.514.508.86a2.499 2.499 0 0 1 0 1.546 2.539 2.539 0 0 1-.508.86c-.19.223-.437.47-.712.746l-.026.025-3.303 3.303a1 1 0 0 1-1.414 0Z" clip-rule="evenodd"/></svg>