<svg viewBox="0 0 24 24" xmlns="http://www.w3.org/2000/svg"><path fill-rule="evenodd" d="M14.707 6.293a1 1 0 0 1 0 1.414l-3.303 3.303c-.309.309-.497.498-.627.651a1.284 1.284 0 0 0-.128.177.5.5 0 0 0 0 .325 1.284 1.284 0 0 0 .128.177c.13.152.319.341.627.65l3.303 3.303a1 1 0 0 1-1.414 1.414L9.99 14.404l-.026-.025a13.359 13.359 0 0 1-.711-.746 2.537 2.537 0 0 1-.51-.86 2.5 2.5 0 0 1 0-1.546c.113-.346.307-.622.51-.86.189-.223.436-.47.711-.746l.026-.025 3.303-3.303a1 1 0 0 1 1.414 0Z" clip-rule="evenodd"/></svg>