<svg viewBox="0 0 24 24" xmlns="http://www.w3.org/2000/svg"><path fill-rule="evenodd" d="M6.293 9.293a1 1 0 0 1 1.414 0l3.303 3.303c.309.309.498.497.651.627a1.284 1.284 0 0 0 .177.128.5.5 0 0 0 .325 0 1.284 1.284 0 0 0 .177-.128c.152-.13.341-.319.65-.627l3.303-3.303a1 1 0 1 1 1.414 1.414l-3.303 3.303-.025.026c-.275.275-.523.522-.746.712a2.539 2.539 0 0 1-.86.508 2.499 2.499 0 0 1-1.546 0 2.539 2.539 0 0 1-.86-.508c-.223-.19-.47-.437-.746-.712a12.268 12.268 0 0 0-.025-.026l-3.303-3.303a1 1 0 0 1 0-1.414Z" clip-rule="evenodd"/></svg>