<svg viewBox="0 0 24 24" xmlns="http://www.w3.org/2000/svg"><path fill-rule="evenodd" d="M17.707 14.707a1 1 0 0 1-1.414 0l-3.303-3.303a12.643 12.643 0 0 0-.651-.627 1.284 1.284 0 0 0-.177-.128.5.5 0 0 0-.325 0 1.277 1.277 0 0 0-.176.128c-.153.13-.342.319-.65.627l-3.304 3.303a1 1 0 0 1-1.414-1.414L9.596 9.99l.025-.026c.276-.275.523-.522.746-.711.238-.203.514-.397.86-.51a2.5 2.5 0 0 1 1.546 0c.346.113.622.307.86.51a13.527 13.527 0 0 1 .771.737l3.303 3.303a1 1 0 0 1 0 1.414Z" clip-rule="evenodd"/></svg>