<svg viewBox="0 0 24 24" xmlns="http://www.w3.org/2000/svg"><path fill-rule="evenodd" d="M10 3a2 2 0 1 0 0 4 2 2 0 0 0 0-4ZM6 5a4 4 0 1 1 8 0 4 4 0 0 1-8 0Zm13.5 5a1.5 1.5 0 1 0 0 3 1.5 1.5 0 0 0 0-3ZM16 11.5a3.5 3.5 0 1 1 7 0 3.5 3.5 0 0 1-7 0Zm-.645 3.002.168 1.68A5.792 5.792 0 0 1 16.966 16c2.836 0 5.148 2.03 5.988 4.7a1 1 0 1 1-1.908.6c-.626-1.99-2.268-3.3-4.08-3.3-.43 0-.847.072-1.24.208l.27 2.693a1 1 0 1 1-1.991.198l-.64-6.398A3 3 0 0 0 10.38 12H8.972c-1.14 0-2.166.643-2.636 1.652-.076.162-.15.32-.221.476C5.07 16.379 4.311 18.017 2.6 19.3a1 1 0 1 1-1.2-1.6c1.299-.974 1.85-2.16 2.996-4.62l.127-.273C5.333 11.07 7.08 10 8.973 10h1.407a5 5 0 0 1 4.975 4.502Zm-7.865 3.14a1 1 0 0 0-1.98-.283l-.5 3.5a1 1 0 0 0 1.98.282l.5-3.5Z" clip-rule="evenodd"/></svg>