<svg viewBox="0 0 24 24" xmlns="http://www.w3.org/2000/svg"><path fill-rule="evenodd" d="M6.067 5.913A8.472 8.472 0 0 1 12 3.5a8.494 8.494 0 0 1 7.212 4H12a4.499 4.499 0 0 0-3.924 2.295l-1.93-3.752a1.008 1.008 0 0 0-.079-.13ZM4.711 7.625a8.501 8.501 0 0 0 6.432 12.833l1.704-4.038a4.501 4.501 0 0 1-5.028-2.754l-3.108-6.04Zm8.63 12.77a8.502 8.502 0 0 0 6.783-10.903c-.04.005-.082.008-.124.008h-4.258c.479.715.758 1.575.758 2.5a4.49 4.49 0 0 1-.404 1.866l-2.755 6.529ZM12 1.5C6.201 1.5 1.5 6.201 1.5 12S6.201 22.5 12 22.5 22.5 17.799 22.5 12 17.799 1.5 12 1.5Zm2.266 11.559.074-.177a2.5 2.5 0 1 0-.074.177Z" clip-rule="evenodd"/></svg>