<svg viewBox="0 0 24 24" xmlns="http://www.w3.org/2000/svg"><path fill-rule="evenodd" d="M11.93 2h.14c.862 0 1.372 0 1.812.043a9 9 0 0 1 8.075 8.075c.036.369.041.777.043 1.38a1 1 0 1 1-2 .004c-.002-.616-.008-.93-.034-1.188a7 7 0 0 0-6.28-6.28C13.356 4 12.953 4 12 4s-1.356.001-1.686.034a7 7 0 0 0-6.28 6.28C4 10.644 4 11.048 4 12c0 .953.001 1.356.034 1.686a7 7 0 0 0 6.28 6.28c.175.018.38.027.699.03a1 1 0 1 1-.026 2 9.854 9.854 0 0 1-.87-.04 9 9 0 0 1-8.074-8.074C2 13.442 2 12.932 2 12.07v-.14c0-.862 0-1.372.043-1.812a9 9 0 0 1 8.075-8.075C10.558 2 11.068 2 11.93 2Zm10.71 12.732a1 1 0 0 1 .128 1.408l-4.373 5.247-.017.021c-.092.11-.198.238-.3.34a1.517 1.517 0 0 1-.564.373 1.5 1.5 0 0 1-1.04-.01 1.517 1.517 0 0 1-.558-.385 5.423 5.423 0 0 1-.292-.345l-.017-.021-1.388-1.735a1 1 0 1 1 1.562-1.25l1.235 1.544 4.216-5.06a1 1 0 0 1 1.408-.127ZM13 7.5a1 1 0 1 0-2 0v4.086l-3.707 3.707a1 1 0 1 0 1.414 1.414l4-4A1 1 0 0 0 13 12V7.5Z" clip-rule="evenodd"/></svg>