<svg viewBox="0 0 24 24" xmlns="http://www.w3.org/2000/svg"><path fill-rule="evenodd" d="M3 10a1 1 0 0 0 1-1V3a1 1 0 0 0-2 0v6a1 1 0 0 0 1 1Zm-1.5 3.5a1 1 0 0 0 1 1h1a1 1 0 0 0 1-1v-1a1 1 0 0 0-1-1h-1a1 1 0 0 0-1 1v1ZM11.93 2h.14c.862 0 1.372 0 1.812.043a9 9 0 0 1 8.075 8.075c.043.44.043.95.043 1.812v.14c0 .862 0 1.372-.043 1.812a9 9 0 0 1-8.075 8.075c-.44.043-.95.043-1.812.043h-.14c-.862 0-1.372 0-1.812-.043a8.996 8.996 0 0 1-6.56-3.894 1 1 0 1 1 1.654-1.126 6.996 6.996 0 0 0 5.102 3.03c.33.032.734.033 1.686.033.953 0 1.356-.001 1.686-.034a7 7 0 0 0 6.28-6.28C20 13.356 20 12.953 20 12c0-.952-.001-1.356-.034-1.686a7 7 0 0 0-6.28-6.28C13.356 4 12.953 4 12 4c-.952 0-1.356.001-1.686.034a6.98 6.98 0 0 0-2.814.903 1 1 0 1 1-1-1.732 8.98 8.98 0 0 1 3.618-1.162C10.558 2 11.068 2 11.93 2ZM12 6.5a1 1 0 0 1 1 1v4.086l3.707 3.707a1 1 0 0 1-1.414 1.414l-4-4A1 1 0 0 1 11 12V7.5a1 1 0 0 1 1-1Z" clip-rule="evenodd"/></svg>