<svg viewBox="0 0 24 24" xmlns="http://www.w3.org/2000/svg"><path fill-rule="evenodd" d="M15.8 5.6a2.6 2.6 0 1 1 5.2 0 2.6 2.6 0 0 1-5.2 0ZM18.4 1a4.6 4.6 0 0 0-3.882 7.068l-2.225 2.225a1 1 0 0 0 1.414 1.414l2.225-2.225A4.6 4.6 0 1 0 18.4 1Zm-7.9 1c-1.226.001-2.216.009-3.03.086-.825.078-1.537.233-2.194.568a6 6 0 0 0-2.622 2.622c-.356.7-.51 1.463-.583 2.358C2 8.51 2 9.594 2 10.956v.194c0 1.25 0 2.058.166 2.75A6 6 0 0 0 5 17.697a1 1 0 0 0 1-1.732 4 4 0 0 1-1.89-2.53C4.008 13.002 4 12.452 4 11c0-1.417 0-2.42.065-3.203.063-.772.182-1.243.371-1.613a4 4 0 0 1 1.748-1.748c.347-.177.784-.293 1.476-.36.702-.066 1.595-.075 2.84-.076h.5a1 1 0 1 0 0-2h-.5ZM22 12.522a1 1 0 1 0-2-.044l-.01.5v.003c-.03 1.543-.145 2.283-.426 2.835a4 4 0 0 1-1.748 1.748c-.37.189-.841.308-1.613.371C15.419 18 14.417 18 13 18h-.856c-1.307 0-2.074 0-2.827.116a9.942 9.942 0 0 0-1.96.507c-.716.265-1.385.637-2.528 1.272l-.076.043-1.239.688a1 1 0 0 0 .972 1.748l1.238-.688c1.24-.69 1.772-.981 2.328-1.187a7.993 7.993 0 0 1 1.568-.406c.585-.09 1.192-.093 2.611-.093h.813c1.363 0 2.447 0 3.322-.071.895-.073 1.659-.227 2.358-.583a6 6 0 0 0 2.622-2.622c.512-1.004.613-2.169.643-3.703v-.002l.01-.497Z" clip-rule="evenodd"/></svg>