<svg viewBox="0 0 24 24" xmlns="http://www.w3.org/2000/svg"><path fill-rule="evenodd" d="M12 9.3a1 1 0 0 0 1-1V2a1 1 0 1 0-2 0v6.3a1 1 0 0 0 1 1ZM8.999 2.987a1 1 0 0 1-.937 1.06c-.931.056-1.465.179-1.878.389a4 4 0 0 0-1.748 1.748c-.189.37-.308.842-.371 1.613C4 8.581 4 9.583 4 11c0 1.452.007 2.002.11 2.434A4 4 0 0 0 6 15.964a1 1 0 0 1-1 1.732 6 6 0 0 1-2.834-3.795C2 13.208 2 12.4 2 11.15v-.194c0-1.363 0-2.447.071-3.321.074-.896.227-1.66.583-2.359a6 6 0 0 1 2.622-2.622c.775-.395 1.633-.541 2.664-.604a1 1 0 0 1 1.059.937Zm6.003 0a1 1 0 0 1 1.059-.937c1.03.063 1.888.209 2.663.604a6 6 0 0 1 2.622 2.622l-.89.454.89-.454c.356.7.51 1.463.583 2.359.071.874.071 1.958.071 3.321v.088c0 1.363 0 2.447-.071 3.322-.074.895-.227 1.659-.583 2.358a6 6 0 0 1-2.622 2.622c-.7.357-1.463.51-2.358.583-.875.071-1.96.071-3.322.071h-.814c-1.42 0-2.026.003-2.611.093a8.007 8.007 0 0 0-1.568.406c-.556.206-1.087.498-2.328 1.187l-1.238.688a1 1 0 1 1-.972-1.748l1.239-.688.076-.043c1.143-.634 1.813-1.006 2.528-1.271a10.002 10.002 0 0 1 1.96-.508C10.07 18 10.837 18 12.144 18H13c1.417 0 2.419 0 3.203-.065.771-.063 1.243-.182 1.613-.37a4 4 0 0 0 1.748-1.749c.189-.37.308-.841.371-1.613C20 13.419 20 12.417 20 11c0-1.417 0-2.419-.065-3.203-.063-.772-.182-1.243-.37-1.613a4 4 0 0 0-1.749-1.748c-.412-.21-.947-.333-1.877-.39a1 1 0 0 1-.937-1.059ZM11.5 13.3a1 1 0 0 1-1-1v-1a1 1 0 0 1 1-1h1a1 1 0 0 1 1 1v1a1 1 0 0 1-1 1h-1Z" clip-rule="evenodd"/></svg>