<svg viewBox="0 0 24 24" xmlns="http://www.w3.org/2000/svg"><path fill-rule="evenodd" d="M21.346 5.276c.356.7.51 1.463.583 2.359.071.874.071 1.958.071 3.321v.088c0 1.363 0 2.447-.071 3.322-.074.895-.227 1.659-.583 2.358a6 6 0 0 1-2.622 2.622c-.7.357-1.463.51-2.359.583-.874.071-1.958.071-3.321.071H13c-2.781 0-5.517.709-7.948 2.06l-.352.195c-1.018.566-2.058-.708-1.3-1.592l.287-.334 1.817-.888.777-.38a1 1 0 0 0-.878-1.797l-.777.38-.667.326A4.992 4.992 0 0 1 2 14v-3.044c0-1.363 0-2.447.071-3.321.074-.896.227-1.66.583-2.359a6 6 0 0 1 2.622-2.622c.7-.356 1.463-.51 2.359-.582C8.509 2 9.593 2 10.956 2h2.088c1.363 0 2.447 0 3.321.071.896.074 1.66.227 2.359.583a6 6 0 0 1 2.622 2.622l-.891.454.891-.454ZM6 10a1 1 0 0 1 1-1h1a1 1 0 0 1 1 1v1a1 1 0 0 1-1 1H7a1 1 0 0 1-1-1v-1Zm4.5 0a1 1 0 0 1 1-1h1a1 1 0 0 1 1 1v1a1 1 0 0 1-1 1h-1a1 1 0 0 1-1-1v-1Zm4.5 0a1 1 0 0 1 1-1h1a1 1 0 0 1 1 1v1a1 1 0 0 1-1 1h-1a1 1 0 0 1-1-1v-1Z" clip-rule="evenodd"/></svg>