<svg viewBox="0 0 24 24" xmlns="http://www.w3.org/2000/svg"><path fill-rule="evenodd" d="M13 4c1.417 0 2.419 0 3.203.065.771.063 1.243.182 1.613.37a4 4 0 0 1 1.748 1.749c.189.37.308.841.371 1.613C20 8.581 20 9.583 20 11c0 1.417 0 2.42-.065 3.203-.063.772-.182 1.243-.37 1.613a4 4 0 0 1-1.749 1.748c-.37.189-.841.308-1.613.371C15.419 18 14.417 18 13 18h-.856c-1.307 0-2.074 0-2.827.116a9.875 9.875 0 0 0-1.96.508c-.716.265-1.385.637-2.528 1.271l-.076.043-1.239.688a1 1 0 0 0 .972 1.748l1.238-.688c1.24-.689 1.772-.981 2.328-1.187a7.993 7.993 0 0 1 1.568-.406c.585-.09 1.192-.093 2.611-.093h.813c1.363 0 2.447 0 3.322-.071.895-.073 1.659-.226 2.358-.583a6 6 0 0 0 2.622-2.622c.356-.7.51-1.463.583-2.358.071-.875.071-1.959.071-3.322v-.088c0-1.363 0-2.447-.071-3.321-.074-.896-.227-1.66-.583-2.359l-.89.454.89-.454a6 6 0 0 0-2.622-2.622c-.7-.356-1.463-.51-2.359-.583C15.491 2 14.407 2 13.044 2h-2.088c-1.363 0-2.447 0-3.321.071-.896.074-1.66.227-2.359.583a6 6 0 0 0-2.622 2.622c-.356.7-.51 1.463-.583 2.359C2 8.509 2 9.593 2 10.956v.194c0 1.25 0 2.058.166 2.75A6 6 0 0 0 5 17.697a1 1 0 0 0 1-1.732 4 4 0 0 1-1.89-2.53C4.008 13.002 4 12.452 4 11c0-1.417 0-2.419.065-3.203.063-.771.182-1.243.371-1.613a4 4 0 0 1 1.748-1.748c.37-.189.842-.308 1.613-.371C8.581 4 9.583 4 11 4h2Zm-4.105 6.553a1 1 0 1 0-1.79.894C7.912 13.06 9.913 14 12 14c2.087 0 4.089-.94 4.895-2.553a1 1 0 0 0-1.79-.894C14.747 11.271 13.607 12 12 12s-2.747-.73-3.105-1.447Z" clip-rule="evenodd"/></svg>