<svg viewBox="0 0 24 24" xmlns="http://www.w3.org/2000/svg"><path fill-rule="evenodd" d="M17.2 2h-.038c-.528 0-.982 0-1.357.03-.395.033-.789.104-1.167.297a3 3 0 0 0-1.311 1.311c-.193.378-.264.772-.296 1.167C13 5.18 13 5.635 13 6.161v10.677c0 .528 0 .982.03 1.357.033.395.104.789.297 1.167a3 3 0 0 0 1.311 1.311c.378.193.772.264 1.167.296.375.031.83.031 1.356.031h1.678c.527 0 .982 0 1.356-.03.395-.033.789-.104 1.167-.297a3 3 0 0 0 1.311-1.311c.193-.378.264-.772.296-1.167.031-.375.031-.83.031-1.356V6.16c0-.527 0-.981-.03-1.356-.033-.395-.104-.789-.297-1.167a3 3 0 0 0-1.311-1.311c-.378-.193-.772-.264-1.167-.296A17.9 17.9 0 0 0 18.839 2H17.2Zm-1.654 2.109c.05-.025.15-.063.422-.085C16.25 4 16.623 4 17.2 4h1.6c.577 0 .949 0 1.232.024.272.022.372.06.422.085a1 1 0 0 1 .437.437c.025.05.063.15.085.422C21 5.25 21 5.623 21 6.2v10.6c0 .577 0 .949-.024 1.232-.022.272-.06.372-.085.422a1 1 0 0 1-.437.437c-.05.025-.15.063-.422.085C19.75 19 19.377 19 18.8 19h-1.6c-.577 0-.949 0-1.232-.024-.272-.022-.373-.06-.422-.085a1 1 0 0 1-.437-.437c-.025-.05-.063-.15-.085-.422C15 17.75 15 17.377 15 16.8V6.2c0-.577 0-.949.024-1.232.022-.272.06-.373.085-.422a1 1 0 0 1 .437-.437ZM5.2 3h-.039c-.527 0-.981 0-1.356.03-.395.033-.789.104-1.167.297a3 3 0 0 0-1.311 1.311c-.193.378-.264.772-.296 1.167C1 6.18 1 6.635 1 7.161v7.677c0 .528 0 .982.03 1.357.033.395.104.789.297 1.167a3 3 0 0 0 1.311 1.311c.378.193.772.264 1.167.296.375.031.83.031 1.356.031H7.5v1a1 1 0 0 0 1 1h2a1 1 0 0 0 1-1v-2a1 1 0 0 0-1-1H5.2c-.577 0-.949 0-1.232-.024-.272-.022-.373-.06-.422-.085a1 1 0 0 1-.437-.437c-.025-.05-.063-.15-.085-.422C3 15.75 3 15.377 3 14.8V7.2c0-.577 0-.949.024-1.232.022-.272.06-.373.085-.422a1 1 0 0 1 .437-.437c.05-.025.15-.063.422-.085C4.25 5 4.623 5 5.2 5h5.3a1 1 0 1 0 0-2H5.2Zm12.3 14.5a1 1 0 0 1-1-1v-1a1 1 0 0 1 1-1h1a1 1 0 0 1 1 1v1a1 1 0 0 1-1 1h-1Z" clip-rule="evenodd"/></svg>