<svg viewBox="0 0 24 24" xmlns="http://www.w3.org/2000/svg"><path fill-rule="evenodd" d="M20.707 2.293a1 1 0 0 1 0 1.414l-2.336 2.337-3.051 3.05-3.718 3.719-6.895 6.894a1 1 0 0 1-1.414-1.414l3.904-3.904a1 1 0 0 1 .085-1.293l.073-.075c.433-.45.99-1.026 2.01-1.488a5.698 5.698 0 0 1 1.032-.344l2.168-2.168A7.889 7.889 0 0 0 12 9c-.949 0-2.078.196-2.921.577-1.151.52-2.131 1.445-2.784 2.118a1 1 0 1 1-1.436-1.392c.68-.702 1.88-1.863 3.396-2.548C9.412 7.232 10.835 7 12 7c.715 0 1.532.084 2.316.27l1.626-1.626C14.735 5.21 13.259 5 12 5c-1.477 0-3.245.304-4.588.911-1.725.78-2.61 1.695-3.554 2.673l-.14.144a1 1 0 0 1-1.436-1.392l.156-.162C3.4 6.178 4.51 5.03 6.588 4.09 8.245 3.339 10.306 3 12 3c1.682 0 3.79.322 5.427 1.096l.043.02 1.823-1.823a1 1 0 0 1 1.414 0Zm-.977 4.455a1 1 0 0 1 1.415.001c.176.177.347.354.512.524l.061.063a1 1 0 1 1-1.436 1.392l-.061-.064c-.166-.17-.326-.336-.491-.501a1 1 0 0 1 0-1.415ZM16.9 9.582a1 1 0 0 1 1.412-.079c.322.289.602.565.83.801a1 1 0 1 1-1.436 1.392 14.14 14.14 0 0 0-.728-.702 1 1 0 0 1-.078-1.412Zm-2.717 2.736a1 1 0 0 1 1.393-.243c.483.339.826.694 1.105.982l.038.039a1 1 0 1 1-1.436 1.392l-.008-.008c-.294-.304-.523-.54-.849-.769a1 1 0 0 1-.243-1.393ZM12 17a1.5 1.5 0 1 0 0 3 1.5 1.5 0 0 0 0-3Zm-1.34-1.733a3.5 3.5 0 1 1 2.68 6.466 3.5 3.5 0 0 1-2.68-6.466Z" clip-rule="evenodd"/></svg>