<svg viewBox="0 0 24 24" xmlns="http://www.w3.org/2000/svg"><path fill-rule="evenodd" d="M12 5c-1.477 0-3.245.304-4.588.911-1.725.78-2.61 1.695-3.554 2.672l-.14.145a1 1 0 0 1-1.436-1.392l.156-.162C3.4 6.178 4.51 5.03 6.588 4.09 8.245 3.339 10.306 3 12 3c1.682 0 3.79.322 5.427 1.096 2.124 1.003 3.228 2.142 4.222 3.169l.069.07a1 1 0 1 1-1.436 1.393l-.052-.054c-.968-.998-1.863-1.922-3.657-2.77C15.28 5.294 13.488 5 12 5Zm0 4c-.949 0-2.078.197-2.921.578-1.151.52-2.131 1.445-2.784 2.118a1 1 0 1 1-1.436-1.392c.68-.702 1.88-1.863 3.396-2.548C9.412 7.232 10.835 7 12 7c1.154 0 2.611.22 3.76.762 1.5.708 2.69 1.829 3.381 2.542a1 1 0 1 1-1.436 1.392c-.642-.662-1.63-1.573-2.799-2.125C14.103 9.19 12.96 9 12 9Zm0 4c-.596 0-1.3.125-1.81.356-.669.302-1 .643-1.416 1.075l-.056.057a1 1 0 1 1-1.436-1.392l.073-.075c.433-.45.99-1.026 2.01-1.488C10.19 11.161 11.188 11 12 11c.801 0 1.825.151 2.65.54 1.035.49 1.583 1.056 2.034 1.52l.034.036a1 1 0 1 1-1.436 1.392l-.017-.018c-.424-.437-.764-.788-1.47-1.121C13.317 13.123 12.608 13 12 13Zm0 4a1.5 1.5 0 1 0 0 3 1.5 1.5 0 0 0 0-3Zm-1.34-1.734a3.5 3.5 0 1 1 2.68 6.467 3.5 3.5 0 0 1-2.68-6.467Z" clip-rule="evenodd"/></svg>