<svg viewBox="0 0 24 24" xmlns="http://www.w3.org/2000/svg"><path fill-rule="evenodd" d="M8 4a1 1 0 0 1 1-1h12.1c1.05 0 1.9.85 1.9 1.9 0 4.302-2.986 7.907-6.998 8.856.003.332.013.432.032.503a1 1 0 0 0 .707.707c.095.025.241.034.926.034h.067c.235 0 .523-.002.784.068a2 2 0 0 1 1.414 1.414c.07.261.069.549.068.784V20a1 1 0 0 1-1 1h-3.3c-.227 0-.428 0-.63-.027a2.993 2.993 0 0 1-.569-.134 4.65 4.65 0 0 1-.574-.257l-.04-.02-.44-.22a3 3 0 0 0-1.35-.341L12 20h-.097a3 3 0 0 0-1.35.342l-.44.22-.04.02a4.648 4.648 0 0 1-.574.257 2.993 2.993 0 0 1-.57.134C8.728 21 8.527 21 8.3 21H5a1 1 0 0 1-1-1v-2.734c0-.235-.002-.523.068-.784a2 2 0 0 1 1.414-1.414c.261-.07.549-.069.784-.068h.067c.685 0 .83-.009.926-.034a1 1 0 0 0 .707-.707c.025-.095.034-.241.034-.926V6H3a3 3 0 0 0 3 3 1 1 0 0 1 0 2 5 5 0 0 1-5-5v-.995C1 4.45 1.45 4 2.005 4H8Zm2 1v6.7c0 .148 0 .228.003.287v.01h.01c.059.003.14.003.287.003h3.6A7.1 7.1 0 0 0 21 5H10Zm3.9 9h.105c.01.281.034.539.097.777a3 3 0 0 0 2.122 2.12c.385.104.823.104 1.33.103h.113c.164 0 .253 0 .319.003h.01v.011c.004.066.004.155.004.32V19h-2.255a3.56 3.56 0 0 1-.407-.009.996.996 0 0 1-.19-.045 3.543 3.543 0 0 1-.367-.174l-.44-.22-.005-.002a5 5 0 0 0-2.212-.55h-.248a5 5 0 0 0-2.106.498l-.106.052-.006.003-.439.22a3.551 3.551 0 0 1-.368.173.998.998 0 0 1-.19.045c-.05.007-.109.009-.406.009H6v-1.667c0-.164 0-.253.003-.319v-.01h.011a8.05 8.05 0 0 1 .32-.004h.111c.508 0 .946.001 1.331-.102a3 3 0 0 0 2.122-2.121 3.44 3.44 0 0 0 .097-.779c.085.003.168.002.244.002H13.9Z" clip-rule="evenodd"/></svg>