<svg viewBox="0 0 24 24" xmlns="http://www.w3.org/2000/svg"><path fill-rule="evenodd" d="m10.414 3-.707.707L9 4.414V5h4v-.586l-.707-.707L11.586 3h-1.172ZM15 4v2a1 1 0 0 1-1 1H8a1 1 0 0 1-1-1V4h-.8c-.577 0-.949 0-1.232.024-.272.022-.373.06-.422.085a1 1 0 0 0-.437.437c-.025.05-.063.15-.085.422C4 5.25 4 5.623 4 6.2v11.6c0 .577 0 .949.024 1.232.022.272.06.372.085.422a1 1 0 0 0 .437.437c.05.025.15.063.422.085C5.25 20 5.623 20 6.2 20h9.6c.576 0 .949 0 1.232-.024.272-.022.372-.06.422-.085a1 1 0 0 0 .437-.437c.028-.055.068-.166.09-.486V18a1 1 0 1 1 2 0v1c0 .02 0 .04-.002.061-.027.442-.093.882-.306 1.301a3 3 0 0 1-1.311 1.311c-.378.193-.772.264-1.167.296-.375.031-.83.031-1.357.031H6.162c-.527 0-.981 0-1.356-.03-.395-.033-.789-.104-1.167-.297a3 3 0 0 1-1.311-1.311c-.193-.378-.264-.772-.296-1.167A17.9 17.9 0 0 1 2 17.839V6.16c0-.527 0-.981.03-1.356.033-.395.104-.789.297-1.167a3 3 0 0 1 1.311-1.311c.378-.193.772-.264 1.167-.296C5.18 2 5.635 2 6.161 2h2.425l.707-.707A1 1 0 0 1 10 1h2a1 1 0 0 1 .707.293l.707.707h2.424c.528 0 .982 0 1.357.03.395.033.788.104 1.167.297a3 3 0 0 1 1.31 1.311c.194.378.265.772.297 1.167.031.375.03.83.03 1.356V6.5a1 1 0 1 1-2 0v-.3c0-.577 0-.949-.023-1.232-.022-.272-.06-.373-.085-.422a1 1 0 0 0-.437-.437c-.05-.025-.15-.063-.422-.085C16.75 4 16.377 4 15.8 4H15Zm.59 9.67a.997.997 0 0 1 .187-.26l5.014-5.014a1.354 1.354 0 1 1 1.914 1.915l-5.014 5.014a1 1 0 0 1-.26.187l-2.824 1.412c-.262.13-.393.196-.468.174a.2.2 0 0 1-.135-.135c-.023-.076.043-.207.174-.468l1.412-2.825Zm-8.196.883a1 1 0 1 0-1.788.894l.314.629.018.037c.18.36.345.689.502.942.16.26.392.579.767.78a1.994 1.994 0 0 0 1.583.136c.405-.136.689-.412.89-.64.2-.225.418-.523.66-.85l.024-.033c.087-.12.175-.238.26-.353l.01.001.011.002.406 1.218a1 1 0 0 0 1.898-.632l-.412-1.234-.006-.02a1.934 1.934 0 0 0-.233-.496 1.948 1.948 0 0 0-.54-.514 2.052 2.052 0 0 0-.808-.299 2.052 2.052 0 0 0-.86.032 1.974 1.974 0 0 0-.657.305c-.194.145-.32.316-.375.392l-.012.015-.293.397a12.142 12.142 0 0 1-.594.77 11.947 11.947 0 0 1-.45-.85l-.315-.63Z" clip-rule="evenodd"/></svg>