<svg viewBox="0 0 24 24" xmlns="http://www.w3.org/2000/svg"><path fill-rule="evenodd" d="M8.793 3.207a1.121 1.121 0 0 0-1.586 0L5.871 4.543c-.3.301-.419.42-.526.542a5 5 0 0 0-.737 1.118c-.07.146-.133.302-.29.697L3.172 9.759c.15.15.243.239.317.302l.01.009.01-.009c.09-.076.205-.19.414-.4l1.369-1.368a1 1 0 0 1 1.38-.033l3.36 3.052.83-.741-3.101-3.397a1 1 0 0 1 .03-1.381l1-1a1.121 1.121 0 0 0 0-1.586Zm3.328 5.776L9.883 6.53l.324-.324a3.121 3.121 0 1 0-4.414-4.414L4.457 3.129l-.025.025c-.268.268-.437.437-.594.617a7 7 0 0 0-1.032 1.564c-.103.216-.192.437-.333.79l-.013.032L1.072 9.63a1 1 0 0 0 .22 1.078l.37.369.022.022c.179.179.352.353.512.488.174.148.396.308.686.402a2 2 0 0 0 1.236 0c.29-.094.512-.254.687-.402a9.15 9.15 0 0 0 .51-.488l.024-.022.694-.695 2.502 2.272-5.011 4.484-.004.003a3 3 0 0 0-1.02 2.208v.091l.001.147A3 3 0 0 0 5.575 22.5H5.7a3 3 0 0 0 2.143-.962l.005-.005 7.337-7.746c.353-.372.458-.479.568-.563a2 2 0 0 1 .61-.32c.133-.043.28-.068.788-.146l1.142-.176.054-.008c.39-.06.656-.1.894-.162a5 5 0 0 0 3.736-4.355C23 7.812 23 7.543 23 7.15v-.055c0-.003 0-.039-.002-.076a1.2 1.2 0 0 0-.357-.792l-.934-.933a1 1 0 0 0-1.414 0l-1.5 1.5a.414.414 0 0 1-.586-.586l1.5-1.5a1 1 0 0 0 0-1.414l-.934-.934c-.002-.002-.025-.026-.05-.049a1.2 1.2 0 0 0-.816-.31h-.05c-.364 0-.612 0-.838.02a5 5 0 0 0-4.416 3.83c-.052.22-.087.466-.138.826l-.007.05-.208 1.455a11.4 11.4 0 0 1-.13.802Zm4.22 6.77a1 1 0 0 1 1.317-1.506l3.296 2.884.003.003.049.043A3 3 0 0 1 22 19.432v.143a3 3 0 0 1-2.925 2.924l-.128.001h-.08a3 3 0 0 1-2.233-1.043l-.003-.003-2.883-3.296a1 1 0 1 1 1.505-1.317l2.883 3.296.028.032a1 1 0 0 0 .73.33l.042.001h.089a1 1 0 0 0 .975-.975v-.131a1 1 0 0 0-.331-.73l-.032-.028-3.296-2.883Zm.858-11.74c.087-.009.186-.012.386-.013l-.792.793a2.414 2.414 0 0 0 3.414 3.414L21 7.415a4.94 4.94 0 0 1-.014.447 3 3 0 0 1-2.242 2.613c-.13.033-.293.06-.756.13l-1.143.176-.065.01c-.414.064-.726.112-1.026.208a4.003 4.003 0 0 0-1.222.64c-.25.192-.467.421-.754.725l-.046.048-7.337 7.745-.043.045a1 1 0 0 1-.762.298h-.119a1 1 0 0 1-.97-.971l-.001-.102v-.048a1 1 0 0 1 .322-.72l.036-.032 7.546-6.752.061-.055c.383-.342.673-.601.907-.91.254-.335.454-.708.592-1.105.127-.366.181-.75.254-1.26l.012-.081.207-1.455a9.06 9.06 0 0 1 .113-.699 3 3 0 0 1 2.65-2.298Z" clip-rule="evenodd"/></svg>