<svg viewBox="0 0 24 24" xmlns="http://www.w3.org/2000/svg"><path fill-rule="evenodd" d="M13.6 2h-.042c-.944 0-1.713 0-2.338.051-.646.053-1.224.165-1.763.44a4.5 4.5 0 0 0-1.65 1.438A1 1 0 0 0 9.45 5.07a2.5 2.5 0 0 1 .916-.799c.21-.106.496-.185 1.018-.228C11.916 4.001 12.603 4 13.6 4h1.8c.997 0 1.684 0 2.218.044.521.043.807.122 1.017.228a2.5 2.5 0 0 1 1.093 1.093c.107.21.185.496.228 1.018.043.533.044 1.22.044 2.217v1.8c0 .997 0 1.684-.044 2.217-.043.522-.121.808-.228 1.018a2.5 2.5 0 0 1-.8.917 1 1 0 0 0 1.143 1.641 4.5 4.5 0 0 0 1.439-1.65c.274-.539.386-1.117.44-1.763.05-.624.05-1.394.05-2.338V8.558c0-.944 0-1.714-.05-2.338-.053-.646-.166-1.224-.44-1.763a4.5 4.5 0 0 0-1.967-1.967c-.539-.274-1.117-.386-1.763-.439C17.156 2 16.387 2 15.442 2H13.6Zm-5 5h-.042c-.944 0-1.714 0-2.338.051-.646.053-1.224.165-1.763.44A4.5 4.5 0 0 0 2.49 9.456c-.274.539-.386 1.117-.439 1.763C2 11.844 2 12.613 2 13.558v1.884c0 .945 0 1.714.051 2.338.053.646.165 1.224.44 1.763a4.5 4.5 0 0 0 1.966 1.966c.539.275 1.117.387 1.763.44C6.844 22 7.614 22 8.558 22h1.884c.944 0 1.714 0 2.338-.051.646-.053 1.224-.165 1.763-.44a4.5 4.5 0 0 0 1.966-1.966c.275-.539.387-1.117.44-1.763.051-.624.051-1.394.051-2.338v-1.884c0-.944 0-1.714-.051-2.338-.053-.646-.165-1.224-.44-1.763a4.5 4.5 0 0 0-1.966-1.967c-.539-.274-1.117-.386-1.763-.439C12.156 7 11.387 7 10.442 7H8.6ZM5.365 9.272c.21-.106.496-.185 1.018-.228C6.916 9.001 7.603 9 8.6 9h1.8c.997 0 1.684 0 2.217.044.522.043.808.122 1.018.228a2.5 2.5 0 0 1 1.092 1.093c.107.21.186.496.229 1.018.043.533.044 1.22.044 2.217v1.8c0 .997 0 1.684-.044 2.217-.043.522-.121.808-.229 1.018a2.5 2.5 0 0 1-1.092 1.092c-.21.107-.496.186-1.018.229-.533.043-1.22.044-2.217.044H8.6c-.997 0-1.684 0-2.217-.044-.522-.043-.808-.122-1.018-.229a2.5 2.5 0 0 1-1.093-1.092c-.106-.21-.185-.496-.228-1.018C4.001 17.084 4 16.397 4 15.4v-1.8c0-.997 0-1.684.044-2.217.043-.522.122-.808.228-1.018a2.5 2.5 0 0 1 1.093-1.093Z" clip-rule="evenodd"/></svg>