<svg viewBox="0 0 24 24" xmlns="http://www.w3.org/2000/svg"><path fill-rule="evenodd" d="M15.767 6A12.659 12.659 0 0 0 18 3.767 12.659 12.659 0 0 0 20.233 6 12.66 12.66 0 0 0 18 8.233 12.66 12.66 0 0 0 15.767 6Zm3.091-4.514a1 1 0 0 0-1.716 0 10.66 10.66 0 0 1-3.656 3.656 1 1 0 0 0 0 1.716c1.5.9 2.756 2.156 3.656 3.656a1 1 0 0 0 1.716 0 10.66 10.66 0 0 1 3.656-3.656 1 1 0 0 0 0-1.716 10.66 10.66 0 0 1-3.656-3.656ZM10.38 6.045h-.003.003ZM4 13c0-3.301 2.414-6.11 5.66-6.825l-.044.152a7.946 7.946 0 0 0-.318 2.228c0 4.425 3.61 7.984 8.058 8.108C16.09 18.66 13.816 20 11.21 20 7.204 20 4 16.842 4 13Zm7.474-8.505c-.388-.419-.884-.463-1.206-.447-.275.013-.599.081-.89.143l-.053.01C5.187 5.07 2 8.656 2 13c0 4.995 4.148 9 9.21 9 3.775 0 7.032-2.221 8.452-5.418l.012-.027c.048-.106.123-.274.165-.43.052-.19.128-.619-.167-1.03-.31-.429-.768-.476-.942-.484a3.313 3.313 0 0 0-.475.023l-.031.003a6.59 6.59 0 0 1-.628.03c-3.503 0-6.298-2.76-6.298-6.112 0-.58.083-1.139.238-1.668l.015-.053c.106-.362.211-.723.257-1.019.044-.286.094-.857-.334-1.32Z" clip-rule="evenodd"/></svg>