<svg viewBox="0 0 24 24" xmlns="http://www.w3.org/2000/svg"><path fill-rule="evenodd" d="M7.335 2h9.33c.435 0 .82 0 1.19.094a3 3 0 0 1 .915.407c.318.212.575.498.867.823l.06.066-.744.67.744-.67 1.87 2.08-.743.668.744-.669.105.117c.494.547.926 1.026 1.127 1.604a3 3 0 0 1 .108 1.571c-.12.6-.483 1.134-.896 1.743l-.089.13-5.121 7.56-.028.041c-.642.948-1.162 1.716-1.629 2.286-.474.58-.977 1.063-1.624 1.33a4 4 0 0 1-3.042 0c-.647-.267-1.15-.75-1.625-1.33-.466-.57-.986-1.338-1.628-2.286l-.028-.04-5.121-7.56a96.72 96.72 0 0 0-.089-.13c-.414-.61-.777-1.144-.896-1.744A3 3 0 0 1 1.2 7.19c.2-.578.633-1.057 1.127-1.604l.105-.117.743.67-.743-.67L4.303 3.39l.06-.066c.292-.325.548-.61.867-.823a3 3 0 0 1 .914-.407l.242.94-.242-.94C6.514 2 6.9 2 7.335 2Zm.09 2c-.576 0-.69.007-.783.031a1 1 0 0 0-.305.136c-.08.054-.162.133-.547.561l-1.871 2.08c-.063.068-.12.133-.173.192h16.508l-.173-.193-1.871-2.079c-.385-.428-.467-.507-.547-.56l.55-.829-.55.828a1 1 0 0 0-.305-.136C17.264 4.007 17.15 4 16.575 4h-9.15ZM20.61 9h-3.844l-2.53 9.402c.26-.37.557-.808.91-1.33l5.121-7.56c.142-.209.254-.376.343-.512ZM12 19.01 14.695 9h-5.39L12 19.01ZM7.269 9H3.39c.089.136.2.303.343.513l5.12 7.56c.354.522.651.96.912 1.33L7.304 9.26A1.002 1.002 0 0 1 7.269 9Z" clip-rule="evenodd"/></svg>