<svg viewBox="0 0 24 24" xmlns="http://www.w3.org/2000/svg"><path fill-rule="evenodd" d="M11.8 3h-.023c-.12 0-.261 0-.387.01a1.508 1.508 0 0 0-.571.154 1.5 1.5 0 0 0-.655.655 1.51 1.51 0 0 0-.154.571c-.01.126-.01.268-.01.387v.446c0 .12 0 .262.01.387.012.145.043.353.154.571a1.5 1.5 0 0 0 .655.656c.218.11.426.141.571.153.125.01.268.01.387.01h.446c.12 0 .261 0 .387-.01a1.51 1.51 0 0 0 .571-.153 1.5 1.5 0 0 0 .655-.656c.112-.218.142-.426.154-.571.01-.125.01-.268.01-.387v-.446c0-.12 0-.261-.01-.387a1.508 1.508 0 0 0-.154-.571 1.5 1.5 0 0 0-.655-.655 1.507 1.507 0 0 0-.571-.154 4.927 4.927 0 0 0-.387-.01H11.8ZM4 3a1 1 0 0 0-1 1v1a1 1 0 0 0 1 1h1a1 1 0 0 0 1-1V4a1 1 0 0 0-1-1H4Zm15 0a1 1 0 0 0-1 1v1a1 1 0 0 0 1 1h1a1 1 0 0 0 1-1V4a1 1 0 0 0-1-1h-1Zm-7.7 6.5h-.023c-.12 0-.261 0-.387.01a1.508 1.508 0 0 0-.571.154 1.5 1.5 0 0 0-.655.655 1.508 1.508 0 0 0-.154.571c-.01.125-.01.268-.01.387v1.446c0 .12 0 .261.01.387.012.145.042.353.154.571a1.5 1.5 0 0 0 .655.655c.218.112.426.142.571.154.125.01.268.01.387.01h1.446c.12 0 .261 0 .387-.01.145-.012.353-.042.571-.154a1.5 1.5 0 0 0 .655-.655c.112-.218.142-.426.154-.571.01-.125.01-.268.01-.387v-1.446c0-.12 0-.261-.01-.387a1.508 1.508 0 0 0-.154-.571 1.5 1.5 0 0 0-.655-.655 1.507 1.507 0 0 0-.571-.154 4.926 4.926 0 0 0-.387-.01H11.3Zm7.5.5h-.023c-.12 0-.262 0-.387.01a1.51 1.51 0 0 0-.571.154 1.5 1.5 0 0 0-.655.655 1.51 1.51 0 0 0-.154.571c-.01.125-.01.268-.01.387v.446c0 .12 0 .261.01.387.012.145.042.353.153.571a1.5 1.5 0 0 0 .656.655c.218.112.426.142.571.154.125.01.268.01.387.01h.446c.12 0 .262 0 .387-.01.145-.012.353-.042.571-.154a1.5 1.5 0 0 0 .655-.655c.112-.218.142-.426.154-.571.01-.125.01-.268.01-.387v-.446c0-.12 0-.261-.01-.387a1.508 1.508 0 0 0-.153-.571 1.5 1.5 0 0 0-.656-.655 1.51 1.51 0 0 0-.571-.154c-.125-.01-.268-.01-.387-.01H18.8Zm-14 0h-.023c-.12 0-.261 0-.387.01a1.51 1.51 0 0 0-.571.154 1.5 1.5 0 0 0-.655.655 1.508 1.508 0 0 0-.154.571c-.01.125-.01.268-.01.387v.446c0 .12 0 .261.01.387.012.145.042.353.154.571a1.5 1.5 0 0 0 .655.655c.218.112.426.142.571.154.126.01.268.01.387.01h.446c.12 0 .262 0 .387-.01.145-.012.353-.042.571-.154a1.5 1.5 0 0 0 .656-.655 1.53 1.53 0 0 0 .153-.571c.01-.125.01-.268.01-.387v-.446c0-.12 0-.261-.01-.387a1.508 1.508 0 0 0-.153-.571 1.5 1.5 0 0 0-.656-.655 1.51 1.51 0 0 0-.571-.154C5.485 10 5.342 10 5.223 10H4.8Zm6.977 7c-.12 0-.261 0-.387.01a1.51 1.51 0 0 0-.571.153 1.5 1.5 0 0 0-.655.656 1.51 1.51 0 0 0-.154.571c-.01.125-.01.268-.01.387v.446c0 .12 0 .262.01.387.012.145.043.353.154.571a1.5 1.5 0 0 0 .655.655c.218.112.426.142.571.154.125.01.268.01.387.01h.446c.12 0 .262 0 .387-.01a1.51 1.51 0 0 0 .571-.153 1.5 1.5 0 0 0 .655-.656c.112-.218.142-.426.154-.571.01-.125.01-.268.01-.387v-.446c0-.12 0-.262-.01-.387a1.508 1.508 0 0 0-.154-.571 1.5 1.5 0 0 0-.655-.655 1.51 1.51 0 0 0-.571-.154c-.125-.01-.268-.01-.387-.01h-.446ZM4 18a1 1 0 0 0-1 1v1a1 1 0 0 0 1 1h1a1 1 0 0 0 1-1v-1a1 1 0 0 0-1-1H4Zm15 0a1 1 0 0 0-1 1v1a1 1 0 0 0 1 1h1a1 1 0 0 0 1-1v-1a1 1 0 0 0-1-1h-1Z" clip-rule="evenodd"/></svg>