<svg viewBox="0 0 24 24" xmlns="http://www.w3.org/2000/svg"><path fill-rule="evenodd" d="M21.827 5.561a1 1 0 0 0-1.655-1.123L12.04 16.424c-.239.352-.38.56-.494.698l-.018.021-.017-.022a10.94 10.94 0 0 1-.473-.712l-2.193-3.446a1 1 0 0 0-1.688 1.074l2.193 3.446.022.034c.2.314.384.604.556.827.18.232.43.508.802.67a2 2 0 0 0 1.541.022c.377-.15.635-.419.821-.646.179-.218.372-.502.58-.81l.023-.033 8.133-11.986Zm-5 0a1 1 0 0 0-1.655-1.122l-4.75 7a1 1 0 0 0 1.655 1.123l4.75-7ZM3.844 12.964a1 1 0 1 0-1.688 1.074l2.193 3.446.022.034c.2.314.384.604.556.827.18.232.43.508.802.67l.399-.918-.4.917a2 2 0 0 0 1.542.023c.091-.036.176-.08.255-.128a1 1 0 0 0-.98-1.742 1.453 1.453 0 0 1-.035-.044c-.11-.143-.245-.354-.473-.713l-2.193-3.446Z" clip-rule="evenodd"/></svg>