<svg viewBox="0 0 24 24" xmlns="http://www.w3.org/2000/svg"><path fill-rule="evenodd" d="M19.536 3h1.614c.125 0 .281 0 .42.013.17.017.395.06.627.196.303.179.546.48.658.813.137.407.044.811.002 1l-.011.048c-.636 2.992-2.934 6.603-6.363 9.503-3.45 2.92-8.135 5.198-13.643 5.41l-.023.002c-.114.004-.256.01-.382.003a1.497 1.497 0 0 1-.58-.138 1.512 1.512 0 0 1-.684-.658 1.502 1.502 0 0 1-.16-.579 4.732 4.732 0 0 1-.011-.39v-1.444c0-.12 0-.26.01-.383.01-.139.038-.344.143-.56.137-.278.349-.5.62-.651.215-.12.425-.156.56-.172.124-.016.268-.023.394-.03h.023c7-.35 13.101-5.526 15.122-10.797l.006-.017c.034-.087.073-.19.113-.279a1.482 1.482 0 0 1 .836-.792c.27-.102.566-.099.71-.097Zm.165 2C17.396 10.882 10.74 16.517 3 16.971v1.004c4.887-.248 9.072-2.29 12.191-4.928 3.044-2.575 4.992-5.648 5.616-8.047h-1.106Z" clip-rule="evenodd"/></svg>