<svg viewBox="0 0 24 24" xmlns="http://www.w3.org/2000/svg"><path fill-rule="evenodd" d="M18.109 2.546C18 2.76 18 3.04 18 3.6v.8c0 .56 0 .84.109 1.054a1 1 0 0 0 .437.437C18.76 6 19.04 6 19.6 6h.8c.56 0 .84 0 1.054-.109a1 1 0 0 0 .437-.437C22 5.24 22 4.96 22 4.4v-.8c0-.56 0-.84-.109-1.054a1 1 0 0 0-.437-.437C21.24 2 20.96 2 20.4 2h-.8c-.56 0-.84 0-1.054.109a1 1 0 0 0-.437.437Zm-2.744.525c.22.018.433.041.638.07-.003.143-.003.285-.003.413v.892c0 .239 0 .523.02.774.024.29.085.706.307 1.142a3 3 0 0 0 .41.607l-3.747 6.13a8.236 8.236 0 0 1-.312.49l-.008.012-.012-.007a8.262 8.262 0 0 1-.498-.299l-1.446-.903-.025-.016a8.707 8.707 0 0 0-.54-.32 2.014 2.014 0 0 0-.684-.23 2 2 0 0 0-1.117.18 2.01 2.01 0 0 0-.578.43 9.01 9.01 0 0 0-.413.474l-.019.022-2.856 3.428-1.88 2.257c-.32-.67-.461-1.402-.53-2.252C2 15.492 2 14.408 2 13.045v-1.088c0-1.363 0-2.447.071-3.321.074-.896.227-1.66.583-2.359a6 6 0 0 1 2.622-2.622c.7-.356 1.463-.51 2.359-.583C8.509 3 9.593 3 10.956 3h1.088c1.363 0 2.447 0 3.321.071ZM5.276 21.346a6.001 6.001 0 0 1-1.468-1.053l2.21-2.653 2.857-3.428c.168-.201.258-.309.33-.382l.007-.007.01.004c.09.047.209.122.432.26l1.446.904.027.018c.216.134.426.266.613.362.205.106.46.213.765.239.424.035.848-.065 1.21-.286a2.03 2.03 0 0 0 .578-.555c.124-.17.254-.382.386-.6l.017-.027 3.788-6.198c.108.018.208.029.296.036.251.02.535.02.774.02h.892c.128 0 .27 0 .412-.003.03.205.053.417.07.638.072.874.072 1.958.072 3.321v1.088c0 1.363 0 2.447-.071 3.322-.074.895-.227 1.659-.583 2.358a6 6 0 0 1-2.622 2.622c-.7.356-1.463.51-2.359.583-.874.071-1.958.071-3.321.071h-1.088c-1.363 0-2.447 0-3.321-.071-.896-.073-1.66-.227-2.359-.583Z" clip-rule="evenodd"/></svg>