<svg viewBox="0 0 24 24" xmlns="http://www.w3.org/2000/svg"><path d="M1 17.29 2.981 6.694A10.52 10.52 0 0 1 5.042 6.5c1.295 0 2.141.453 2.669 1.116.59.76.782 1.747.782 2.831 0 2.766-1.214 5.112-2.316 6.018-.879.744-1.838 1.035-3.244 1.035-.639 0-1.438-.08-1.933-.21Zm3.659-9.124-1.454 7.57c.144.017.335.05.527.05.655 0 1.406-.534 1.87-1.505.495-1.035.846-2.394.846-4.028 0-1.052-.32-2.12-1.342-2.12-.191 0-.351 0-.447.033Zm9.609 2.766-.319 1.699h-2.38l-.592 3.025h2.732l-.351 1.795H8.66L10.722 6.55h4.505l-.351 1.779h-2.477l-.527 2.604h2.396Zm4.226 6.519h-2.173L15.986 6.55h2.205l-.144 5.516c-.016.987-.08 2.248-.144 3.09h.032c.224-.842.591-2.12.927-3.074l1.933-5.532H23l-4.506 10.9Z"/></svg>