<svg viewBox="0 0 24 24" xmlns="http://www.w3.org/2000/svg"><path fill-rule="evenodd" d="M22.297 2.413c-.369-.282-.8-.353-1.127-.383-.328-.03-.74-.03-1.2-.03H7.03c-.46 0-.871 0-1.2.03-.326.03-.758.1-1.126.383a2 2 0 0 0-.78 1.5c-.02.463.168.857.331 1.142.164.286.4.624.664 1l.025.036L7.51 9.758A2.998 2.998 0 0 1 10.5 7h3.1a3 3 0 0 1 2.242 4.993l-1.481-1.317 1.481 1.317-1.333 1.5-.01.011-.01.012-.01.011-3.667 4c-.24.26-.514.47-.812.627v2.069c0 .12 0 .262.01.387.012.145.042.353.153.571a1.5 1.5 0 0 0 .656.656c.218.11.426.141.571.153.125.01.268.01.387.01h3.446c.12 0 .261 0 .387-.01.145-.012.353-.042.57-.153a1.5 1.5 0 0 0 .656-.656c.111-.218.142-.426.154-.57.01-.126.01-.268.01-.388v-4.701c0-.973.004-1.334.067-1.675a4 4 0 0 1 .293-.93c.143-.315.348-.613.905-1.41l3.792-5.416.025-.036c.264-.376.5-.714.663-1 .163-.285.352-.679.332-1.142a2 2 0 0 0-.78-1.5ZM10.5 9a1 1 0 0 0-.647 1.762l.975.828-2.37 2.586-2.832-1.994a1 1 0 0 0-1.276.104l-2.55 2.5a1 1 0 0 0 1.4 1.428l1.955-1.917 2.87 2.02a1 1 0 0 0 1.312-.141l3.667-4 .01-.012 1.334-1.5A1 1 0 0 0 13.6 9h-3.1Z" clip-rule="evenodd"/></svg>