<svg viewBox="0 0 24 24" xmlns="http://www.w3.org/2000/svg"><path fill-rule="evenodd" d="M18.568 2h.864c.252 0 .498 0 .706.017.229.019.499.063.77.201a2 2 0 0 1 .874.874c.138.271.183.541.201.77.017.208.017.454.017.706v.864c0 .252 0 .498-.017.706a2.02 2.02 0 0 1-.2.77 2 2 0 0 1-.875.874 2.022 2.022 0 0 1-.77.201C19.93 8 19.684 8 19.432 8h-.864c-.164 0-.324 0-.474-.005l-3.37 6.13a1.012 1.012 0 0 1-.028.048l-.017.027c-.134.214-.264.423-.389.59-.136.184-.317.39-.578.546a2 2 0 0 1-1.204.278 2.022 2.022 0 0 1-.76-.237 9.182 9.182 0 0 1-.608-.36L11.113 15l-1.46-.912a7.69 7.69 0 0 0-.432-.26l-.01-.005-.007.007a7.208 7.208 0 0 0-.318.37l-3.648 4.693a4 4 0 0 0 .946.671c.37.189.842.308 1.613.371C8.581 20 9.583 20 11 20h2c1.417 0 2.419 0 3.203-.065.771-.063 1.243-.182 1.613-.37A4 4 0 0 0 19.2 18.4a1 1 0 0 1 1.6 1.2 5.999 5.999 0 0 1-2.076 1.746c-.7.356-1.463.51-2.359.583-.874.071-1.958.071-3.321.071h-2.088c-1.363 0-2.447 0-3.321-.071-.896-.073-1.66-.227-2.359-.583a6 6 0 0 1-2.622-2.622l.371-.19-.371.19c-.356-.7-.51-1.463-.583-2.358C2 15.49 2 14.405 2 13.044v-2.088c0-1.363 0-2.447.071-3.321.074-.896.227-1.66.583-2.359A6 6 0 0 1 4.4 3.2a1 1 0 1 1 1.2 1.6 4 4 0 0 0-1.164 1.384c-.189.37-.308.842-.371 1.613C4 8.581 4 9.583 4 11v2c0 1.417 0 2.42.065 3.203.025.313.06.577.105.805l3.147-4.05a.92.92 0 0 1 .021-.026l.019-.022c.142-.17.282-.34.413-.474.146-.15.33-.312.578-.43a2 2 0 0 1 1.118-.18c.272.036.497.133.682.23.167.086.353.203.541.32l.025.016 1.46.912c.25.157.389.242.493.296l.011.006.008-.01a7.74 7.74 0 0 0 .3-.46l3.33-6.057a1.994 1.994 0 0 1-.098-.171 2.022 2.022 0 0 1-.201-.77C16 5.93 16 5.684 16 5.432v-.864c0-.252 0-.498.017-.706a2.03 2.03 0 0 1 .201-.77 2 2 0 0 1 .874-.874 2.03 2.03 0 0 1 .77-.201C18.07 2 18.316 2 18.568 2Zm-.556 2.011-.002.014C18 4.14 18 4.303 18 4.6v.8c0 .297 0 .459.01.575l.002.014h.013c.116.01.279.011.575.011h.8c.297 0 .459 0 .576-.01l.013-.001v-.014C20 5.86 20 5.697 20 5.4v-.8c0-.297 0-.459-.01-.575l-.001-.014h-.014A8.187 8.187 0 0 0 19.4 4h-.8c-.296 0-.459 0-.575.01l-.013.001ZM11 3a1 1 0 0 1 1-1h1a1 1 0 1 1 0 2h-1a1 1 0 0 1-1-1Zm11 8a1 1 0 1 0-2 0v1a1 1 0 1 0 2 0v-1Zm-1 3a1 1 0 0 1 1 1v1a1 1 0 1 1-2 0v-1a1 1 0 0 1 1-1ZM8 2a1 1 0 0 0 0 2h1a1 1 0 0 0 0-2H8Z" clip-rule="evenodd"/></svg>