<svg viewBox="0 0 24 24" xmlns="http://www.w3.org/2000/svg"><path fill-rule="evenodd" d="M19.312 4c.617 0 1.01.001 1.292.027.135.012.207.028.237.036a.2.2 0 0 1 .05.096c-.01.03-.039.097-.106.215-.14.246-.365.568-.719 1.074l-3.44 4.913-.052.076c-.487.694-.805 1.149-1.034 1.652-.203.445-.35.913-.44 1.394-.1.543-.1 1.098-.1 1.946V19.4c0 .297 0 .459-.01.576l-.001.013h-.014c-.116.01-.278.011-.575.011h-1.8c-.296 0-.459 0-.575-.01l-.014-.001v-.013A8.205 8.205 0 0 1 12 19.4v-.9a1 1 0 1 0-2 0v.932c0 .253 0 .498.017.707.019.228.063.498.201.77a2 2 0 0 0 .874.873c.271.139.541.183.77.201.208.017.454.017.706.017h1.864c.252 0 .498 0 .706-.017.229-.018.499-.063.77-.2a2 2 0 0 0 .874-.875c.138-.271.182-.54.201-.77.017-.208.017-.454.017-.706v-3.91c0-.973.004-1.334.067-1.675.06-.32.158-.633.293-.93.144-.315.348-.613.905-1.41l3.44-4.912.026-.038c.32-.457.598-.855.79-1.19.191-.334.394-.766.372-1.263a2.2 2.2 0 0 0-.859-1.65c-.395-.303-.864-.384-1.247-.419C20.401 2 19.916 2 19.357 2H7.62c-.555 0-1.038 0-1.421.035-.382.035-.85.116-1.244.418a2.2 2.2 0 0 0-.861 1.643c-.024.496.176.926.365 1.26.189.335.464.733.78 1.189l.026.037 1.414 2.043a1 1 0 0 0 1.644-1.139L6.908 5.444c-.35-.505-.57-.826-.71-1.072a1.472 1.472 0 0 1-.103-.213.2.2 0 0 1 .05-.096c.03-.008.1-.024.235-.036C6.66 4 7.05 4 7.664 4h11.648ZM10.5 9a1 1 0 0 0-.647 1.762l.975.828-2.37 2.586-2.832-1.994a1 1 0 0 0-1.276.104l-2.55 2.5a1 1 0 0 0 1.4 1.428l1.955-1.917 2.87 2.02a1 1 0 0 0 1.312-.141l3.667-4 .01-.012 1.334-1.5A1 1 0 0 0 13.6 9h-3.1Z" clip-rule="evenodd"/></svg>