<svg viewBox="0 0 24 24" xmlns="http://www.w3.org/2000/svg"><path d="m2 17.15.505-1.765c.358.21.928.373 1.514.373.928.032 1.58-.535 1.58-1.393 0-.73-.392-1.15-1.108-1.83-.847-.81-1.302-1.685-1.302-2.64 0-2.025 1.449-3.45 3.581-3.45.847 0 1.384.178 1.645.34L7.86 8.534a2.32 2.32 0 0 0-1.172-.292c-.863 0-1.465.551-1.465 1.393 0 .519.211.924 1.107 1.7.895.795 1.319 1.75 1.319 2.625 0 2.267-1.515 3.596-3.599 3.596-1.107 0-1.807-.243-2.051-.405Zm7.343.308 1.742-9.005h-1.92l.374-1.911h5.845l-.375 1.91h-1.905l-1.726 9.006H9.343ZM21.365 11.4l-1.09 5.75a5.993 5.993 0 0 1-2.166.406c-1.303 0-2.1-.422-2.654-1.134-.554-.664-.83-1.733-.83-2.721 0-2.236.748-4.357 2.084-5.766.911-.956 2.198-1.49 3.549-1.49.912 0 1.416.161 1.742.291l-.635 1.782c-.277-.13-.749-.227-1.205-.227-.749 0-1.319.227-1.823.729-.896.89-1.563 2.624-1.563 4.648 0 1.36.44 2.138 1.319 2.138.227 0 .407-.016.586-.064l.504-2.705h-.977l.326-1.636h2.833Z"/></svg>