<svg viewBox="0 0 24 24" xmlns="http://www.w3.org/2000/svg"><path fill-rule="evenodd" d="M10.529 11.057a.977.977 0 0 0-.187.26L8.929 14.14c-.13.262-.196.393-.174.468a.2.2 0 0 0 .136.136c.075.022.206-.043.468-.174l2.824-1.413a.984.984 0 0 0 .26-.187L19 6.414l2.457-2.457a1.354 1.354 0 0 0-1.914-1.914L17.086 4.5l-6.557 6.557ZM12 3h-.044c-1.363 0-2.447 0-3.321.071-.896.074-1.66.227-2.359.583a6 6 0 0 0-2.622 2.622c-.356.7-.51 1.463-.583 2.359C3 9.509 3 10.593 3 11.956v.088c0 1.363 0 2.447.071 3.322.074.895.227 1.659.583 2.358a6 6 0 0 0 2.622 2.622c.7.356 1.463.51 2.359.583.874.071 1.958.071 3.321.071h.088c1.363 0 2.447 0 3.321-.071.896-.073 1.66-.227 2.359-.583a6 6 0 0 0 2.622-2.622c.356-.7.51-1.463.583-2.358.071-.875.071-1.959.071-3.322V10a1 1 0 1 0-2 0v2c0 1.417 0 2.42-.065 3.203-.063.772-.182 1.243-.371 1.613a4 4 0 0 1-1.748 1.748c-.37.189-.841.308-1.613.371C14.419 19 13.417 19 12 19c-1.417 0-2.419 0-3.203-.065-.771-.063-1.243-.182-1.613-.37a4 4 0 0 1-1.748-1.749c-.189-.37-.308-.841-.371-1.613C5 14.419 5 13.417 5 12c0-1.417 0-2.419.065-3.203.063-.771.182-1.243.371-1.613a4 4 0 0 1 1.748-1.748c.37-.189.842-.308 1.613-.371C9.581 5 10.583 5 12 5h1a1 1 0 1 0 0-2h-1Z" clip-rule="evenodd"/></svg>