<svg viewBox="0 0 24 24" xmlns="http://www.w3.org/2000/svg"><path fill-rule="evenodd" d="M6.2 2h-.039c-.527 0-.981 0-1.356.03-.395.033-.789.104-1.167.297a3 3 0 0 0-1.311 1.311c-.193.378-.264.772-.296 1.167C2 5.18 2 5.635 2 6.161v8.677c0 .528 0 .982.03 1.357.033.395.104.789.297 1.167a3 3 0 0 0 1.311 1.311c.378.193.772.264 1.167.296.375.031.83.031 1.356.031H10a1 1 0 1 0 0-2H9V4h3v11.5a1 1 0 1 0 2 0V4h.8c.577 0 .949 0 1.232.024.272.022.372.06.422.085a1 1 0 0 1 .437.437c.025.05.063.15.085.422C17 5.25 17 5.623 17 6.2v5.3a1 1 0 1 0 2 0V6.161c0-.527 0-.981-.03-1.356-.033-.395-.104-.789-.297-1.167a3 3 0 0 0-1.311-1.311c-.378-.193-.772-.264-1.167-.296A17.9 17.9 0 0 0 14.839 2H6.2ZM7 4v13h-.8c-.577 0-.949 0-1.232-.024-.272-.022-.373-.06-.422-.085a1 1 0 0 1-.437-.437c-.025-.05-.063-.15-.085-.422C4 15.75 4 15.377 4 14.8V6.2c0-.577 0-.949.024-1.232.022-.272.06-.373.085-.422a1 1 0 0 1 .437-.437c.05-.025.15-.063.422-.085C5.25 4 5.623 4 6.2 4H7Zm7.529 15.162a.977.977 0 0 0-.187.26l-1.413 2.825c-.13.262-.196.392-.174.468a.2.2 0 0 0 .136.135c.075.022.206-.043.468-.174l2.824-1.412a1 1 0 0 0 .26-.187l6.163-6.163a1.35 1.35 0 0 0 0-1.914 1.354 1.354 0 0 0-1.914 0l-6.163 6.162Z" clip-rule="evenodd"/></svg>