<svg viewBox="0 0 24 24" xmlns="http://www.w3.org/2000/svg"><path fill-rule="evenodd" d="M12.708 2a4 4 0 0 0-1.789.422l-4.26 2.13A3 3 0 0 0 5 7.237v1.106A6.002 6.002 0 0 0 7 20h11.06A1.94 1.94 0 0 1 20 21.94V22a1 1 0 1 0 2 0v-.06A3.94 3.94 0 0 0 18.06 18H7a4 4 0 0 1-2-7.465v.229a3 3 0 0 0 1.658 2.683l4.261 2.13a4 4 0 0 0 1.79.423H14a2 2 0 0 0 2-2V4a2 2 0 0 0-2-2h-1.292ZM7 9.12v1.644a1 1 0 0 0 .553.894l4.26 2.13a2 2 0 0 0 .895.212H14V4h-1.292a2 2 0 0 0-.894.211l-4.261 2.13A1 1 0 0 0 7 7.237v1.845a1 1 0 0 1 0 .04ZM18 5a1 1 0 1 0 0 2h3.5a1 1 0 1 0 0-2H18Zm0 6a1 1 0 1 0 0 2h3.5a1 1 0 1 0 0-2H18Z" clip-rule="evenodd"/></svg>