<svg viewBox="0 0 24 24" xmlns="http://www.w3.org/2000/svg"><path fill-rule="evenodd" d="M8.5 2a1 1 0 0 0-.895.553l-.5 1a1 1 0 0 0 1.79.894L9.117 4h5.764l.223.447a1 1 0 1 0 1.79-.894l-.5-1A1 1 0 0 0 15.5 2h-7ZM5 6.5a1 1 0 0 0-.832.445l-1 1.5a1 1 0 0 0 1.664 1.11L5.535 8.5h12.93l.703 1.055a1 1 0 0 0 1.664-1.11l-1-1.5A1 1 0 0 0 19 6.5h-3.882l-.224-.447A1 1 0 0 0 14 5.5h-4a1 1 0 0 0-.895.553l-.223.447H5ZM17.17 10h-2.39l-2.772 3.408L9.28 10H6.828l-3.78 11.692a1 1 0 1 0 1.903.616l.554-1.712a.993.993 0 0 0 .055-.035L12 16.207l6.44 4.354a.944.944 0 0 0 .055.035l.553 1.712a1 1 0 1 0 1.903-.616L17.171 10Zm-6.629 4.779-4.04 2.731 1.792-5.542 2.248 2.81Zm6.955 2.73-4.032-2.725 2.255-2.771 1.777 5.497Z" clip-rule="evenodd"/></svg>