<svg viewBox="0 0 24 24" xmlns="http://www.w3.org/2000/svg"><path fill-rule="evenodd" d="M16.686 4.053C16.044 4 15.228 4 14.1 4H9.9c-1.128 0-1.945 0-2.587.053-.636.052-1.056.152-1.402.329a3.499 3.499 0 0 0-.507.315L12 11.293l6.596-6.596a3.5 3.5 0 0 0-.507-.316c-.346-.176-.766-.276-1.402-.328ZM11.293 12 4.697 5.404a3.5 3.5 0 0 0-.316.507c-.176.346-.276.766-.328 1.403C4 7.955 4 8.772 4 9.9v4.2c0 1.128 0 1.945.053 2.586.052.637.152 1.057.328 1.403.091.179.197.348.316.507L11.293 12Zm.707.707 6.596 6.596a3.497 3.497 0 0 1-.507.316c-.346.176-.766.276-1.402.328-.643.053-1.46.053-2.587.053H9.9c-1.128 0-1.945 0-2.586-.053-.637-.052-1.057-.152-1.403-.328a3.505 3.505 0 0 1-.507-.316L12 12.707Zm7.303 5.889L12.707 12l6.596-6.596c.119.159.224.328.316.507.176.346.276.766.328 1.403C20 7.955 20 8.772 20 9.9v4.2c0 1.128 0 1.944-.053 2.586-.052.637-.152 1.057-.328 1.403a3.492 3.492 0 0 1-.316.507Zm-2.535-15.54c.698.057 1.265.175 1.775.434a4.5 4.5 0 0 1 1.966 1.967c.26.51.378 1.077.435 1.775C21 7.92 21 8.776 21 9.877v4.246c0 1.1 0 1.958-.056 2.645-.057.698-.175 1.265-.434 1.775a4.5 4.5 0 0 1-1.967 1.966c-.51.26-1.077.378-1.775.435-.687.056-1.544.056-2.645.056H9.877c-1.1 0-1.958 0-2.645-.056-.698-.057-1.265-.174-1.775-.434a4.5 4.5 0 0 1-1.967-1.967c-.26-.51-.377-1.077-.434-1.775C3 16.081 3 15.224 3 14.123V9.877c0-1.1 0-1.957.056-2.645.057-.698.175-1.265.434-1.775a4.5 4.5 0 0 1 1.967-1.966c.51-.26 1.077-.378 1.775-.435C7.92 3 8.776 3 9.877 3h4.246c1.1 0 1.958 0 2.645.056Z" clip-rule="evenodd"/></svg>