<svg viewBox="0 0 24 24" xmlns="http://www.w3.org/2000/svg"><path fill-rule="evenodd" d="M11 2h-.044c-1.363 0-2.447 0-3.321.071-.896.074-1.66.227-2.359.583a6 6 0 0 0-2.622 2.622c-.356.7-.51 1.463-.583 2.359C2 8.509 2 9.593 2 10.956v2.088c0 1.363 0 2.447.071 3.322.074.895.227 1.659.583 2.358a6 6 0 0 0 2.622 2.622c.7.356 1.463.51 2.359.583.874.071 1.958.071 3.321.071h2.088c1.363 0 2.447 0 3.321-.071.896-.073 1.66-.227 2.359-.583a6 6 0 0 0 2.622-2.622c.356-.7.51-1.463.583-2.358.071-.875.071-1.959.071-3.322v-2.088c0-1.363 0-2.447-.071-3.321-.074-.896-.227-1.66-.583-2.359a6 6 0 0 0-2.622-2.622c-.7-.356-1.463-.51-2.359-.583C15.491 2 14.407 2 13.044 2H11Zm.714 4.382A1 1 0 0 1 12.5 6h3a1 1 0 0 1 .79 1.614L14.044 10.5h2.641c.039 0 .123 0 .202.007.071.006.34.03.591.23a1.1 1.1 0 0 1 .419.85c.004.32-.14.548-.178.608-.043.067-.095.134-.118.164l-.006.008-4.516 5.87-.009.011c-.034.045-.091.12-.148.182l-.004.004a1.112 1.112 0 0 1-.633.356 1.1 1.1 0 0 1-.993-.338c-.257-.278-.28-.611-.285-.668v-.005a2.892 2.892 0 0 1-.007-.235V15H7.32c-.04 0-.125 0-.204-.007a1.11 1.11 0 0 1-.594-.232 1.1 1.1 0 0 1-.416-.855c-.002-.323.146-.55.184-.61l.001-.001c.043-.066.095-.133.12-.164l.006-.008 5.297-6.74Z" clip-rule="evenodd"/></svg>