<svg viewBox="0 0 24 24" xmlns="http://www.w3.org/2000/svg"><path fill-rule="evenodd" d="M11 2h-.044c-1.363 0-2.446 0-3.321.07-.896.073-1.66.227-2.359.583a6 6 0 0 0-2.622 2.622c-.356.7-.51 1.463-.583 2.358C2 8.51 2 9.594 2 10.956v2.088c0 1.363 0 2.447.071 3.321.074.896.227 1.66.583 2.359a6 6 0 0 0 2.622 2.622c.7.356 1.463.51 2.359.583.874.071 1.958.071 3.321.071h2.088c1.363 0 2.447 0 3.321-.071.896-.074 1.66-.227 2.359-.583a6 6 0 0 0 2.622-2.622c.356-.7.51-1.463.583-2.359.071-.874.071-1.958.071-3.321v-2.088c0-1.363 0-2.447-.071-3.322-.074-.895-.227-1.659-.583-2.358a6 6 0 0 0-2.622-2.622c-.7-.356-1.463-.51-2.359-.583C15.491 2 14.407 2 13.044 2H11ZM6.184 4.436c.37-.189.842-.308 1.613-.371C8.581 4 9.583 4 11 4h2c1.417 0 2.419 0 3.203.065.771.063 1.243.182 1.613.37a4 4 0 0 1 1.748 1.749c.189.37.308.841.371 1.613C20 8.581 20 9.583 20 11v2c0 1.417 0 2.419-.065 3.203-.063.771-.182 1.243-.371 1.613a4 4 0 0 1-1.748 1.748c-.37.189-.841.308-1.613.371C15.419 20 14.417 20 13 20h-2c-1.417 0-2.419 0-3.203-.065-.771-.063-1.243-.182-1.613-.371a4 4 0 0 1-1.748-1.748c-.189-.37-.308-.841-.371-1.613C4 15.419 4 14.417 4 13v-2c0-1.417 0-2.42.065-3.203.063-.772.182-1.243.371-1.613a4 4 0 0 1 1.748-1.748ZM12.414 8h2.172l-2.02 2.02-.009.008c-.032.033-.095.096-.147.158l-.004.004a1.111 1.111 0 0 0-.261.624 1.1 1.1 0 0 0 .382.922c.264.225.56.25.626.256l.005.001c.081.007.17.007.216.007h2.212L12 15.586v-2.43c0-.019 0-.082-.005-.143a1.1 1.1 0 0 0-.596-.893 1.1 1.1 0 0 0-.412-.115 1.711 1.711 0 0 0-.143-.005h-2.43l4-4Zm-.355 0Zm5.414-1.737c-.264-.225-.56-.25-.626-.256h-.005A2.502 2.502 0 0 0 16.626 6h-4.634a1.099 1.099 0 0 0-.745.338h-.001l-5.68 5.68-.008.01a2.481 2.481 0 0 0-.148.157l-.004.004a1.111 1.111 0 0 0-.261.624 1.1 1.1 0 0 0 .382.922c.264.225.56.25.626.256l.005.001c.081.007.17.007.216.007H10v3.626c0 .046 0 .135.007.216v.005c.006.067.031.362.257.626a1.1 1.1 0 0 0 .922.382c.346-.027.573-.218.624-.262l.004-.003c.062-.052.125-.115.158-.148l.008-.008 6.454-6.454.008-.008c.033-.033.096-.096.148-.158l.004-.004c.043-.051.234-.278.261-.624a1.1 1.1 0 0 0-.382-.923c-.264-.225-.56-.25-.626-.256h-.005a2.495 2.495 0 0 0-.216-.007h-2.212l2.02-2.02.008-.008c.033-.033.096-.096.148-.158l.004-.004c.043-.051.234-.278.261-.624a1.1 1.1 0 0 0-.382-.923Z" clip-rule="evenodd"/></svg>