<svg viewBox="0 0 24 24" xmlns="http://www.w3.org/2000/svg"><path fill-rule="evenodd" d="M10.988 2h-.102c-.635 0-1.115 0-1.577.11a4 4 0 0 0-1.156.48c-.406.248-.745.587-1.194 1.037l-.072.072-3.188 3.188-.072.072c-.45.449-.789.788-1.038 1.194a4 4 0 0 0-.479 1.156C2 9.77 2 10.25 2 10.886v5.355c0 .805 0 1.47.044 2.01.046.563.145 1.08.392 1.565a4 4 0 0 0 1.748 1.748c.485.247 1.002.346 1.564.392C6.29 22 6.954 22 7.758 22H8a1 1 0 1 0 0-2h-.2c-.857 0-1.439 0-1.889-.038-.438-.035-.663-.1-.819-.18a2 2 0 0 1-.874-.874c-.08-.157-.145-.38-.18-.82C4 17.639 4 17.057 4 16.2V11h5.223c.12 0 .261 0 .387-.01.145-.012.353-.043.57-.154a1.5 1.5 0 0 0 .656-.655c.111-.218.142-.426.154-.571.01-.126.01-.268.01-.387V4h3.2c.857 0 1.439 0 1.889.037.438.036.663.101.819.18a2 2 0 0 1 .874.875c.08.156.145.38.18.819C18 6.361 18 6.943 18 7.8V8a1 1 0 0 0 2 0v-.241c0-.805 0-1.47-.044-2.01-.046-.563-.145-1.08-.392-1.565a4 4 0 0 0-1.748-1.748c-.485-.247-1.002-.346-1.564-.392C15.71 2 15.046 2 14.242 2h-3.254ZM9 9H4.44a13.6 13.6 0 0 1 .673-.699L8.3 5.113c.361-.36.557-.553.699-.673V9Zm6.2 3h-.039c-.527 0-.982 0-1.356.03-.396.033-.789.104-1.167.297a3 3 0 0 0-1.311 1.31c-.193.38-.264.772-.296 1.168-.031.374-.031.83-.031 1.356v2.677c0 .528 0 .982.03 1.357.033.395.104.788.297 1.167a3 3 0 0 0 1.31 1.31c.38.194.772.265 1.168.297.374.03.83.03 1.356.03h2.677c.528 0 .982 0 1.357-.03.395-.032.788-.103 1.167-.296a3 3 0 0 0 1.31-1.311c.194-.378.265-.772.297-1.167.03-.375.03-.83.03-1.357v-2.677c0-.527 0-.982-.03-1.356-.032-.396-.103-.789-.296-1.167a3 3 0 0 0-1.311-1.311c-.378-.193-.772-.264-1.167-.296C18.82 12 18.365 12 17.838 12H15.2Zm2.701 9-1.384-2.432L15.087 21H13l2.404-3.506L13.188 14h2.122l1.278 2.344L17.948 14h2.005l-2.263 3.473L20 21h-2.1Z" clip-rule="evenodd"/></svg>