<svg viewBox="0 0 24 24" xmlns="http://www.w3.org/2000/svg"><path fill-rule="evenodd" d="M12 2h-.07c-.862 0-1.372 0-1.812.043a9 9 0 0 0-8.075 8.075C2 10.558 2 11.068 2 11.93v.14c0 .862 0 1.372.043 1.812a9 9 0 0 0 8.075 8.075c.44.043.95.043 1.812.043h.14c.862 0 1.372 0 1.812-.043a9 9 0 0 0 8.075-8.075c.043-.44.043-.95.043-1.812v-.14c0-.862 0-1.372-.043-1.812a9 9 0 0 0-8.075-8.075C13.442 2 12.932 2 12.07 2H12Zm-4 9.5a1 1 0 0 0-.949 1.316c.296.888.875 1.9 1.68 2.704C9.535 16.325 10.65 17 12 17s2.464-.675 3.27-1.48a7.167 7.167 0 0 0 1.679-2.704A1 1 0 0 0 16 11.5H8ZM8 7a1 1 0 0 0-1 1v1a1 1 0 0 0 1 1h1a1 1 0 0 0 1-1V8a1 1 0 0 0-1-1H8Zm7 0a1 1 0 0 0-1 1v1a1 1 0 0 0 1 1h1a1 1 0 0 0 1-1V8a1 1 0 0 0-1-1h-1Z" clip-rule="evenodd"/></svg>