<svg viewBox="0 0 24 24" xmlns="http://www.w3.org/2000/svg"><path fill-rule="evenodd" d="M16 4a1 1 0 1 1 0-2h3.432c.252 0 .498 0 .706.017.229.019.499.063.77.201a2 2 0 0 1 .874.874c.139.271.183.541.201.77.017.208.017.454.017.706V8a1 1 0 0 1-2 0V5.414l-8.293 8.293a1 1 0 0 1-1.414-1.414L18.586 4H16Zm-4.996 1.001a1 1 0 1 0-.008-2c-2.086.008-3.533.048-4.72.653a6 6 0 0 0-2.622 2.622c-.356.7-.51 1.463-.583 2.359C3 9.509 3 10.593 3 11.956v.088c0 1.363 0 2.447.071 3.322.074.895.227 1.659.583 2.358l.891-.454-.891.454a6 6 0 0 0 2.622 2.622c.7.357 1.463.51 2.359.583.874.071 1.958.071 3.321.071h.088c1.363 0 2.447 0 3.321-.071.896-.073 1.66-.226 2.359-.583a6 6 0 0 0 2.622-2.622c.605-1.187.645-2.634.653-4.72a1 1 0 0 0-2-.008c-.008 2.214-.088 3.14-.435 3.82a4 4 0 0 1-1.748 1.748c-.37.189-.841.308-1.613.371C14.419 19 13.417 19 12 19c-1.417 0-2.419 0-3.203-.065-.771-.063-1.243-.182-1.613-.37a4 4 0 0 1-1.748-1.749c-.189-.37-.308-.841-.371-1.613C5 14.419 5 13.417 5 12c0-1.416 0-2.419.065-3.203.063-.771.182-1.243.371-1.613a4 4 0 0 1 1.748-1.748c.681-.347 1.606-.427 3.82-.435Z" clip-rule="evenodd"/></svg>