<svg viewBox="0 0 24 24" xmlns="http://www.w3.org/2000/svg"><path fill-rule="evenodd" d="M3.223 1.864a2 2 0 0 1 1.088-.587c.3-.054.57-.019.795.029.204.044.44.114.682.187l.03.009 1.914.574.031.01c.245.073.483.144.68.221.216.084.464.206.686.42a2 2 0 0 1 .583 1.102c.052.303.013.577-.039.803a9.24 9.24 0 0 1-.199.686l-.01.031-.63 1.999L12 8.192V7a1 1 0 0 1 2 0v1.344l.133.417 3.045.812a2.5 2.5 0 0 1 1.675-1.488C19.176 8 19.538 8 19.907 8h.186c.369 0 .731-.001 1.054.085a2.5 2.5 0 0 1 1.768 1.768c.086.323.086.685.085 1.054v.186c0 .369.001.731-.085 1.054a2.5 2.5 0 0 1-1.768 1.768c-.323.086-.685.086-1.054.085h-.186c-.369 0-.731.001-1.054-.085a2.5 2.5 0 0 1-1.768-1.768 2.648 2.648 0 0 1-.077-.549l-2.154-.575L17.716 20h.784a1 1 0 1 1 0 2H4a1 1 0 1 1 0-2h1v-6.186a5.188 5.188 0 0 1-.53-.146 5 5 0 0 1-3.314-5.515c.052-.33.164-.7.327-1.246l.024-.078L2.58 3.246l.01-.031c.072-.242.142-.477.218-.672.084-.213.203-.459.414-.68ZM8.23 9.257l3.205.855L8.284 20H7v-6.846l1.23-3.897Zm-2.912 2.578a2.351 2.351 0 0 1-.2-.058 3 3 0 0 1-1.988-3.31c.029-.18.096-.411.291-1.064L4.497 3.82c.085-.284.132-.44.175-.548l.005-.013.013.003c.114.025.27.07.554.156l1.914.574c.287.086.445.134.556.177l.012.005-.003.013a8.254 8.254 0 0 1-.165.56l-2.239 7.088ZM15.617 20 13 11.792 10.383 20h5.234Zm3.754-9.983c-.004.001.021-.007.128-.012C19.61 10 19.759 10 20 10c.242 0 .39 0 .501.005.107.005.132.013.128.012a.5.5 0 0 1 .354.354c-.001-.004.007.021.012.128.005.112.005.26.005.501 0 .242 0 .39-.005.501-.005.107-.013.132-.012.128a.5.5 0 0 1-.354.354c.004-.001-.02.007-.128.012C20.39 12 20.241 12 20 12s-.39 0-.501-.005c-.107-.005-.132-.013-.128-.012a.5.5 0 0 1-.354-.354c.001.004-.007-.02-.012-.128A12.42 12.42 0 0 1 19 11c0-.242 0-.39.005-.501a.81.81 0 0 1 .012-.128.5.5 0 0 1 .354-.354Zm-.354.354Z" clip-rule="evenodd"/></svg>