<svg viewBox="0 0 24 24" xmlns="http://www.w3.org/2000/svg"><path fill-rule="evenodd" d="M7.884 17.481a12.458 12.458 0 0 1-2.727-1.059l-.763 1.525a1 1 0 0 1-1.788-.894l.87-1.742-2.064-1.503a1 1 0 1 1 1.177-1.617l2.683 1.954C6.962 15.35 9.44 16 12 16c2.56 0 5.039-.65 6.729-1.855l2.683-1.954a1 1 0 0 1 1.177 1.617l-2.687 1.956-.007.006-.105.073.605 1.21a1 1 0 1 1-1.79.894l-.566-1.133c-.9.396-1.873.69-2.88.886l.322 1.604a1 1 0 0 1-1.961.392l-.348-1.737a17.013 17.013 0 0 1-3.325-.096l-.366 1.833a1 1 0 1 1-1.962-.392l.365-1.823Z" clip-rule="evenodd"/></svg>