<svg viewBox="0 0 24 24" xmlns="http://www.w3.org/2000/svg"><path fill-rule="evenodd" d="M18.604 4.027C18.322 4 17.93 4 17.312 4H6.688c-.617 0-1.01.001-1.292.027a1.482 1.482 0 0 0-.237.036.2.2 0 0 0-.05.096c.01.03.039.097.106.215.14.246.365.569.719 1.074l3.44 4.913.052.076c.487.695.805 1.149 1.034 1.652a6 6 0 0 1 .44 1.394c.1.543.1 1.098.1 1.946V20h2v-4.57c0-.848 0-1.403.1-1.946.09-.481.237-.95.44-1.395.229-.502.547-.957 1.034-1.651l.053-.076 3.439-4.913c.354-.506.578-.828.719-1.074a1.49 1.49 0 0 0 .106-.215.2.2 0 0 0-.05-.096 1.48 1.48 0 0 0-.237-.036Zm.182-1.992c.383.035.853.116 1.248.42.516.395.83 1 .86 1.649.02.497-.182.929-.373 1.263-.192.335-.47.733-.79 1.19l-.027.038-3.439 4.913c-.557.796-.761 1.095-.905 1.41a3.993 3.993 0 0 0-.293.93c-.063.34-.067.701-.067 1.674V21a1 1 0 0 1-1 1h-4a1 1 0 0 1-1-1v-5.478c0-.973-.004-1.334-.067-1.675a3.998 3.998 0 0 0-.293-.93c-.144-.314-.348-.613-.905-1.41l-3.44-4.912-.026-.038c-.32-.457-.598-.855-.79-1.19-.191-.334-.394-.765-.372-1.263a2.2 2.2 0 0 1 .859-1.65c.395-.303.864-.384 1.247-.419C5.598 2 6.084 2 6.642 2h10.716c.558 0 1.044 0 1.428.035Z" clip-rule="evenodd"/></svg>