<svg viewBox="0 0 24 24" xmlns="http://www.w3.org/2000/svg"><path fill-rule="evenodd" d="M15.312 4c.617 0 1.01.001 1.292.027.135.012.207.028.237.036a.2.2 0 0 1 .05.096c-.01.03-.039.097-.106.215-.14.246-.365.568-.719 1.074l-3.44 4.913-.052.076c-.487.694-.805 1.149-1.034 1.652-.203.445-.35.913-.44 1.394-.1.543-.1 1.098-.1 1.946V20H9v-4.57c0-.848 0-1.403-.1-1.946a5.999 5.999 0 0 0-.44-1.394c-.23-.503-.547-.957-1.034-1.652l-.053-.076-3.44-4.913c-.353-.506-.577-.828-.718-1.074a1.48 1.48 0 0 1-.106-.215.2.2 0 0 1 .05-.096 1.43 1.43 0 0 1 .237-.036C3.678 4 4.07 4 4.688 4h10.624Zm2.722-1.545c-.395-.304-.864-.385-1.248-.42C16.402 2 15.916 2 15.358 2H4.642c-.558 0-1.044 0-1.429.035-.383.035-.852.116-1.247.42a2.2 2.2 0 0 0-.86 1.649c-.02.498.182.929.373 1.263.192.335.47.733.79 1.19l.026.038 3.44 4.913c.557.796.761 1.095.905 1.41.135.297.234.609.293.93.063.34.067.701.067 1.674V21a1 1 0 0 0 1 1h4a1 1 0 0 0 1-1v-5.478c0-.973.004-1.334.067-1.675.06-.32.158-.633.293-.93.144-.315.348-.613.905-1.41l3.44-4.912.026-.038c.32-.457.598-.855.79-1.19.191-.334.394-.766.372-1.263a2.2 2.2 0 0 0-.859-1.65ZM16 19a1 1 0 1 0 0 2h5a1 1 0 0 0 0-2h-5Zm-1-2a1 1 0 0 1 1-1h5a1 1 0 0 1 0 2h-5a1 1 0 0 1-1-1Zm1-4a1 1 0 1 0 0 2h5a1 1 0 0 0 0-2h-5Z" clip-rule="evenodd"/></svg>