<svg viewBox="0 0 24 24" xmlns="http://www.w3.org/2000/svg"><path fill-rule="evenodd" d="M15.313 4c.616 0 1.01.001 1.292.027.135.012.206.028.236.036a.2.2 0 0 1 .05.096c-.01.03-.038.097-.106.215-.14.246-.365.569-.719 1.074l-4.025 5.75a5.758 5.758 0 0 0-1.04 3.302 1 1 0 1 0 2 0c0-.771.236-1.524.679-2.155l4.025-5.75.026-.038c.32-.457.598-.855.79-1.19.191-.334.394-.765.372-1.263a2.2 2.2 0 0 0-.858-1.65c-.396-.303-.865-.384-1.248-.419C16.402 2 15.916 2 15.358 2H4.642c-.557 0-1.044 0-1.428.035-.383.035-.853.117-1.248.42a2.2 2.2 0 0 0-.859 1.649c-.022.498.181.929.372 1.263.192.335.47.734.79 1.19l.027.038 3.439 4.913c.558.797.762 1.095.905 1.41a4 4 0 0 1 .293.93c.063.34.067.701.067 1.674V21a1 1 0 0 0 1 1h3a1 1 0 1 0 0-2H9v-4.57c0-.848 0-1.403-.1-1.946a5.999 5.999 0 0 0-.44-1.394c-.229-.503-.547-.957-1.033-1.652l-.054-.076-3.439-4.913c-.353-.505-.578-.828-.719-1.074a1.482 1.482 0 0 1-.106-.215.2.2 0 0 1 .05-.096 1.48 1.48 0 0 1 .237-.036C3.678 4.001 4.07 4 4.688 4h10.625ZM19 14a1 1 0 0 0-2 0v3h-3a1 1 0 1 0 0 2h3v3a1 1 0 1 0 2 0v-3h3a1 1 0 1 0 0-2h-3v-3Z" clip-rule="evenodd"/></svg>