<svg viewBox="0 0 24 24" xmlns="http://www.w3.org/2000/svg"><path fill-rule="evenodd" d="M20.207 2.707a1 1 0 0 0-1.414-1.414L18.086 2H6.578c-.55 0-1.029 0-1.409.035-.38.035-.844.115-1.236.414a2.2 2.2 0 0 0-.866 1.632c-.026.493.168.922.352 1.256.185.334.454.73.762 1.185l.026.037 3.28 4.836a.935.935 0 0 0 .038.052c.194.25.353.453.485.628l-5.717 5.718a1 1 0 1 0 1.414 1.414L19.194 3.72l.026-.026.987-.987ZM16.086 4H6.623c-.608 0-.994.001-1.271.026a1.456 1.456 0 0 0-.232.036.2.2 0 0 0-.051.096c.01.029.036.095.1.212.135.244.351.564.693 1.067l3.262 4.808.313.404L16.086 4Zm5.12 3.207a1 1 0 1 0-1.413-1.414l-4.5 4.5c-.81.809-1.394 1.706-1.662 2.244a6.003 6.003 0 0 0-.514 1.496C13 14.62 13 15.223 13 16.143V20h-2v-3.5a1 1 0 1 0-2 0V21a1 1 0 0 0 1 1h4a1 1 0 0 0 1-1v-4.755c0-1.057.004-1.45.078-1.818.07-.346.185-.681.343-.997l-.895-.447.895.447c.175-.353.636-1.072 1.286-1.723l4.5-4.5Z" clip-rule="evenodd"/></svg>