<svg viewBox="0 0 24 24" xmlns="http://www.w3.org/2000/svg"><path fill-rule="evenodd" d="m20.207 2.707-.993.994-.013.013L3.707 19.207a1 1 0 0 1-1.414-1.414l5.726-5.726-3.776-5.493-.026-.037c-.313-.456-.586-.853-.773-1.188-.187-.334-.385-.764-.36-1.258a2.2 2.2 0 0 1 .862-1.64c.394-.3.86-.381 1.241-.416C5.57 2 6.052 2 6.604 2h11.482l.707-.707a1 1 0 1 1 1.414 1.414Zm.984 4.516a1 1 0 1 0-1.381-1.446l-5 4.772-.017.017a9.525 9.525 0 0 0-.285.297l-4.73 4.946a1 1 0 0 0-.278.691V21a1 1 0 0 0 1 1h3a1 1 0 0 0 1-1v-4.5c0-1.057.005-1.45.078-1.817.07-.347.185-.682.343-.998.15-.301.52-.878 1.046-1.454l.24-.25 4.984-4.758Z" clip-rule="evenodd"/></svg>