<svg viewBox="0 0 24 24" xmlns="http://www.w3.org/2000/svg"><path fill-rule="evenodd" d="M19.578 3.502a5.85 5.85 0 0 0-.245-.002h-.591A3.741 3.741 0 0 0 15 7.242a3.845 3.845 0 0 1-1.258 2.844l-9.389 8.535-.038.035A1 1 0 0 0 4 19.42v.111a1 1 0 0 0 .969.969h.163a1 1 0 0 0 .712-.315l.035-.038 8.535-9.388A3.845 3.845 0 0 1 17.259 9.5 3.741 3.741 0 0 0 21 5.758v-.591c0-.168 0-.213-.002-.245a1.5 1.5 0 0 0-1.42-1.42Zm-.22-2.002c.13 0 .233 0 .325.005a3.5 3.5 0 0 1 3.312 3.312c.005.092.005.194.005.324v.617a5.741 5.741 0 0 1-5.741 5.742c-.52 0-1.016.22-1.366.604L7.36 21.492l-.004.004-.054.059a3 3 0 0 1-2.215.945h-.019c-.061 0-.114 0-.161-.002A3 3 0 0 1 2 19.433v-.099a3 3 0 0 1 .945-2.135l.059-.054.004-.004 5.299-4.817c-.407-.448-.531-.577-.665-.677a2.002 2.002 0 0 0-.441-.25c-.157-.064-.334-.104-.946-.226l-.06-.012c-.295-.059-.555-.11-.804-.209a2.996 2.996 0 0 1-.621-.332c-.22-.153-.407-.34-.62-.553l-.042-.043-2.815-2.815a1 1 0 0 1 1.414-1.414l2.815 2.815c.279.279.336.33.392.37a1 1 0 0 0 .207.11c.063.025.138.044.526.122l.08.015c.498.1.875.175 1.23.32.315.13.611.297.883.5.308.23.566.515.908.89l.039.044.726-.66-.017-.017-.06-.054c-.376-.342-.66-.6-.89-.908a4 4 0 0 1-.5-.882c-.146-.356-.221-.733-.32-1.232l-.016-.08c-.078-.387-.097-.462-.121-.525a1 1 0 0 0-.111-.207c-.04-.056-.091-.113-.37-.392L5.293 3.207a1 1 0 0 1 1.414-1.414l2.815 2.815.043.043c.213.212.4.4.553.619.135.193.246.401.332.62.098.25.15.51.209.805l.012.06c.122.612.162.79.226.946.064.157.148.305.25.441.101.136.233.26.694.68l.159.145.396-.36c.385-.35.604-.846.604-1.365A5.74 5.74 0 0 1 18.741 1.5h.618ZM15.86 13.827a1 1 0 0 0 .067 1.413l3.72 3.381.038.035a1 1 0 0 1 .315.712v.163a1 1 0 0 1-.969.969h-.162a1 1 0 0 1-.713-.315l-.035-.038-3.381-3.72a1 1 0 0 0-1.48 1.346l3.381 3.719.004.004.054.059a3 3 0 0 0 2.215.945h.019c.061 0 .114 0 .161-.002a3 3 0 0 0 2.904-2.904c.002-.047.002-.1.002-.16v-.1a3 3 0 0 0-1.004-2.189l-.004-.004-3.72-3.38a1 1 0 0 0-1.412.066ZM4.207 3.293a1 1 0 1 0-1.414 1.414l3 3a1 1 0 1 0 1.414-1.414l-3-3Z" clip-rule="evenodd"/></svg>