<svg viewBox="0 0 155 42" xmlns="http://www.w3.org/2000/svg"><path fill-opacity=".3" d="M49 26.961V11h11.433l-.88 2.391h-7.707v4.28h7.449l-.88 2.392h-6.57v4.508h8.588l-.88 2.39H49Zm22.636-8.835v5.33c0 .864.297 1.364 1.001 1.364h.342v1.96c-.41.249-.865.318-1.297.318-1.231 0-1.936-.615-2.3-1.435h-.091c-.524.661-1.48 1.526-3.439 1.526-2.412 0-3.711-1.685-3.711-3.461 0-2.869 2.687-4.235 6.854-4.076v-1.138c0-1.662-.865-2.14-2.14-2.14-1.39 0-2.096.774-2.437 1.457l-2.004-1.503c.479-.66 1.708-2.253 4.44-2.253 3.052 0 4.782 1.138 4.782 4.051Zm-2.641 3.484c-2.528-.136-4.099.456-4.099 1.867 0 .866.592 1.526 1.686 1.526 1.07 0 1.957-.547 2.413-1.207V21.61Zm5.351-3.78c0-1.98 1.684-3.78 4.576-3.78 2.004 0 3.439.707 4.258 1.618l-1.799 1.821c-.524-.57-1.435-1.138-2.526-1.138-1.139 0-1.731.569-1.731 1.32 0 2.254 6.148 1.412 6.148 5.67 0 1.707-1.39 3.848-4.827 3.848-2.55 0-4.19-1.048-4.918-1.8l1.684-1.98c.638.706 1.868 1.503 3.37 1.503 1.321 0 1.89-.638 1.89-1.413 0-2.23-6.125-1.41-6.125-5.668ZM84.91 29.101c.342.16.82.274 1.322.274 1.343 0 2.095-.752 2.39-2.277l-4.998-13.552h3.404l1.662 5.765c.57 1.73 1.025 3.392 1.23 4.485h.091c.182-1.07.478-2.46 1.07-4.485l1.738-5.765h2.634l-4.326 14.143c-.752 2.278-2.004 4.1-4.827 4.1-.797 0-1.525-.205-1.845-.342l.456-2.346Zm12.531-18.062-.433 1.2h5.531v14.685h1.294V12.24h6.085v-1.2H97.441Zm27.904 14.957c-.873 0-1.335-.731-1.335-2.109v-5.739c0-2.344-1.364-3.582-3.947-3.582-1.701 0-3.078.656-3.981 1.894l.92.768c.704-1.011 1.683-1.507 2.994-1.507 2.003 0 2.859.856 2.859 2.86v1.474h-.256c-2.817 0-4.887.57-5.988 1.662-.618.61-.928 1.377-.928 2.285 0 2.06 1.798 3.174 3.489 3.174 2.226 0 3.221-1.105 3.755-1.696l.013-.013h.13l.007.025c.311.953 1.114 1.499 2.196 1.499.123 0 .257-.017.328-.033v-.962h-.256Zm-2.49-1.801-.009.008c-.557.878-1.788 1.906-3.422 1.906-1.478 0-2.473-.894-2.473-2.222 0-.586.218-1.095.643-1.51.907-.883 2.758-1.332 5.223-1.26l.038.004v3.074Zm24.2-2.873c.072-.755.113-1.503.113-2.058 0-3.001-1.567-4.72-4.291-4.72-3.7 0-5.018 3.213-5.018 6.224 0 4.35 1.612 6.294 5.224 6.294 1.381 0 2.737-.374 3.64-1l-.579-1.028c-.559.425-1.68.87-2.881.87-2.722 0-3.959-1.357-4.137-4.544v-.038h7.929Zm-7.928-1.193c.085-1.566.504-2.738 1.242-3.493.601-.613 1.412-.937 2.348-.937 2.109 0 3.178 1.214 3.178 3.611 0 .19 0 .504-.02.824l-.004.034h-6.744v-.039Zm-4.523-8.632v3.443l-.046-.009a10.85 10.85 0 0 0-1.927-.184c-1.814 0-3.31.592-4.325 1.713-1.034 1.138-1.58 2.822-1.58 4.88 0 3.817 1.563 5.836 4.515 5.836 1.062 0 2.676-.407 3.356-1.554l.007-.008v1.31h1.247V11.04l-1.247.458Zm-3.132 14.545c-1.293 0-3.456-.634-3.456-4.888 0-3.485 1.554-5.25 4.615-5.25.542 0 1.415.114 1.944.253l.03.005-.005 7.625c-.395 1.03-1.264 2.255-3.128 2.255Zm-17.83-11.497c-1.234 0-2.538.553-3.152 1.42l-.006.005v-1.426l-1.246.456v11.924h1.247l.004-9.335c.491-1.13 1.616-1.777 3.082-1.777.441 0 .89.064 1.332.194v-1.335a5.554 5.554 0 0 0-1.261-.126Zm40.098 0c-1.235 0-2.432.553-3.045 1.42l-.012.011h-.102v-1.431l-1.246.453v11.926h1.246l.005-9.335c.491-1.13 1.618-1.776 3.082-1.776.442 0 .89.063 1.332.193v-1.335a5.527 5.527 0 0 0-1.26-.126Z"/><path d="M18.286.525h5.428c3.21 0 5.584 0 7.464.154 1.873.153 3.207.456 4.344 1.034a10.904 10.904 0 0 1 4.765 4.765c.578 1.136.881 2.47 1.034 4.344.154 1.88.154 4.255.154 7.464v5.428c0 3.21 0 5.584-.154 7.464-.153 1.873-.456 3.207-1.034 4.344a10.904 10.904 0 0 1-4.765 4.765c-1.136.578-2.47.881-4.344 1.034-1.88.154-4.255.154-7.464.154h-5.428c-3.21 0-5.584 0-7.464-.154-1.873-.153-3.208-.456-4.344-1.034a10.904 10.904 0 0 1-4.765-4.765c-.578-1.136-.881-2.47-1.034-4.344-.154-1.88-.154-4.255-.154-7.464v-5.428c0-3.21 0-5.584.154-7.464.153-1.873.456-3.208 1.034-4.344a10.904 10.904 0 0 1 4.765-4.765C7.614 1.135 8.948.832 10.822.68c1.88-.154 4.255-.154 7.464-.154Z"/><mask id="a" width="31" height="20" x="5" y="11" maskUnits="userSpaceOnUse" style="mask-type:luminance"><path d="M32.543 11.143c-.086.189-.189.385-.298.597a27.464 27.464 0 0 1-4.248 5.928c-3.737 3.99-10.631 8.936-22.283 9.94v2.922c12.72-1.03 20.297-6.48 24.41-10.867a30.49 30.49 0 0 0 4.704-6.572c.346-.667.66-1.327.911-1.948h-3.196Z"/></mask><g mask="url(#a)"><path d="M35.74 11.143H5.713V30.53H35.74V11.143Z"/></g></svg>