<svg viewBox="0 0 24 24" xmlns="http://www.w3.org/2000/svg"><path fill-rule="evenodd" d="M14.643 22H13a1 1 0 1 1 0-2h1.6c1.137 0 1.929 0 2.546-.051.605-.05.953-.142 1.216-.276a3 3 0 0 0 1.311-1.311c.134-.263.226-.611.276-1.216.05-.617.051-1.41.051-2.546V13a1 1 0 1 1 2 0v1.643c0 1.084 0 1.958-.058 2.666-.06.729-.185 1.369-.487 1.961a5 5 0 0 1-2.185 2.185c-.592.302-1.232.428-1.961.487C16.6 22 15.727 22 14.643 22ZM3 12a1 1 0 0 1-1-1V9.357c0-1.084 0-1.958.058-2.666.06-.728.185-1.369.487-1.96A5 5 0 0 1 4.73 2.544c.592-.302 1.233-.428 1.961-.487C7.4 2 8.273 2 9.357 2H11a1 1 0 1 1 0 2H9.4c-1.137 0-1.929 0-2.546.051-.605.05-.953.142-1.216.276a3 3 0 0 0-1.311 1.311c-.134.263-.226.611-.276 1.216C4.001 7.471 4 8.264 4 9.4V11a1 1 0 0 1-1 1Zm11-8a1 1 0 0 0 1 1h2.588l-4.213 4.262a1 1 0 1 0 1.422 1.406L19 6.416V9a1 1 0 1 0 2 0V5.568c0-.253 0-.498-.017-.706a2.022 2.022 0 0 0-.2-.77 2 2 0 0 0-.875-.874 2.022 2.022 0 0 0-.77-.201C18.93 3 18.684 3 18.432 3H15a1 1 0 0 0-1 1ZM9 19a1 1 0 1 1 0 2H5.568c-.253 0-.498 0-.706-.017a2.023 2.023 0 0 1-.77-.201 2 2 0 0 1-.874-.874 2.022 2.022 0 0 1-.201-.77C3 18.93 3 18.684 3 18.432V15a1 1 0 1 1 2 0v2.579l4.203-4.248a1 1 0 0 1 1.421 1.407L6.407 19H9Z" clip-rule="evenodd"/></svg>