<svg viewBox="0 0 24 24" xmlns="http://www.w3.org/2000/svg"><path fill-rule="evenodd" d="M13.044 22H10a1 1 0 0 1 0-2h3c1.417 0 2.419 0 3.203-.065.771-.063 1.243-.182 1.613-.371a4 4 0 0 0 1.748-1.748c.189-.37.308-.841.371-1.613C20 15.419 20 14.417 20 13v-2c0-1.417 0-2.419-.065-3.203-.063-.771-.182-1.243-.371-1.613a4 4 0 0 0-1.748-1.748c-.37-.189-.841-.308-1.613-.371C15.419 4 14.417 4 13 4h-2c-1.417 0-2.419 0-3.203.065-.771.063-1.243.182-1.613.371a4 4 0 0 0-1.748 1.748c-.189.37-.308.842-.371 1.613C4 8.581 4 9.583 4 11v3a1 1 0 1 1-2 0v-3.044c0-1.363 0-2.447.071-3.321.074-.896.227-1.66.583-2.359a6 6 0 0 1 2.622-2.622c.7-.356 1.463-.51 2.359-.583C8.509 2 9.593 2 10.956 2h2.088c1.363 0 2.447 0 3.321.071.896.074 1.66.227 2.359.583a6 6 0 0 1 2.622 2.622c.356.7.51 1.463.583 2.359.071.874.071 1.958.071 3.321v2.088c0 1.363 0 2.447-.071 3.321-.074.896-.227 1.66-.583 2.359a6 6 0 0 1-2.622 2.622c-.7.356-1.463.51-2.359.583-.874.071-1.958.071-3.321.071Zm-9.476-5h.864c.252 0 .498 0 .706.017.229.019.499.063.77.201a2 2 0 0 1 .874.874c.138.271.182.541.201.77.017.208.017.454.017.706v.864c0 .252 0 .498-.017.706a2.022 2.022 0 0 1-.201.77 2 2 0 0 1-.874.874 2.022 2.022 0 0 1-.77.201C4.93 23 4.684 23 4.432 23h-.864c-.252 0-.498 0-.706-.017a2.022 2.022 0 0 1-.77-.201 2 2 0 0 1-.874-.874 2.022 2.022 0 0 1-.201-.77C1 20.93 1 20.684 1 20.432v-.864c0-.252 0-.498.017-.706a2.03 2.03 0 0 1 .201-.77 2 2 0 0 1 .874-.874 2.03 2.03 0 0 1 .77-.201C3.07 17 3.316 17 3.568 17Zm-.557 2.011v.014C3 19.14 3 19.304 3 19.6v.8c0 .297 0 .459.01.575l.001.014h.014c.116.01.278.011.575.011h.8c.297 0 .459 0 .575-.01l.014-.001v-.014C5 20.86 5 20.696 5 20.4v-.8c0-.297 0-.459-.01-.575l-.001-.014h-.014A8.205 8.205 0 0 0 4.4 19h-.8c-.297 0-.459 0-.575.01l-.014.001ZM14 14a1 1 0 0 1 0 2h-3.432c-.252 0-.498 0-.706-.017a2.024 2.024 0 0 1-.77-.201 2 2 0 0 1-.874-.874 2.021 2.021 0 0 1-.201-.77C8 13.93 8 13.684 8 13.432V10a1 1 0 1 1 2 0v2.586l5.294-5.293a1 1 0 1 1 1.414 1.414L11.414 14H14Z" clip-rule="evenodd"/></svg>