<svg viewBox="0 0 24 24" xmlns="http://www.w3.org/2000/svg"><path fill-rule="evenodd" d="m2.699 9.413.913-.836.912.836-.912.836-.913-.836Zm-.007 4.19c.252-.063.427-.272.427-.51v-1.997l1.28-.312V13.1c0 .768-.565 1.44-1.376 1.639l-1.262.308-.763-1.027 1.694-.418Zm8.23-4.638h-2.68v1.011h2.68v-1.01Zm8.663 1.343h1.398l-.002-.002c1.114 0 2.019.83 2.019 1.85s-.904 1.85-2.02 1.85a2.097 2.097 0 0 1-1.515-.627c-.103.28-.392.47-.717.47h-1.142v-.602c-.368.46-.96.758-1.63.758a2.091 2.091 0 0 1-1.548-.665l-.015.037c-.103.282-.392.472-.717.472H10.12c-.617 0-1.13-.4-1.252-.932v.932H6.784c-.707 0-1.28-.524-1.28-1.172V9.081l1.28-.235v3.831h2.057v-1.829h1.279v1.83h3.921a1.717 1.717 0 0 1 .059-1.2l.48-1.171h1.397c1.115 0 2.02.828 2.02 1.85 0 .18-.029.356-.082.521h1.132a1.717 1.717 0 0 1 .059-1.2l.48-1.17Zm-4.346 1.85c0 .373.33.678.74.678s.74-.303.74-.678c0-.375-.332-.678-.74-.678s-.74.304-.74.678Zm5.005 0c0 .373.33.678.74.678.409 0 .74-.303.74-.678 0-.375-.333-.678-.74-.678-.408 0-.74.304-.74.678Z" clip-rule="evenodd"/></svg>