<svg viewBox="0 0 24 24" xmlns="http://www.w3.org/2000/svg"><path fill-rule="evenodd" d="M20.57 8.593v5.68H22v-5.96l-1.43.28Zm-3.148 1.43h-1.564l-.536 1.405a2.17 2.17 0 0 0-.066 1.44h-1.871a.022.022 0 0 1-.023-.023v-2.24l-1.43.28v1.984H6.357v-.76a2.17 2.17 0 0 0-.738-1.627 2.263 2.263 0 0 0-1.725-.55l-1.24.127.378 1.372 1.012-.103a.796.796 0 0 1 .885.783v.76H2v1.403h2.958v-1.116a1.426 1.426 0 0 0 1.4 1.115h5.612v-1.066c.149.634.726 1.066 1.416 1.066h2.242v-.689a2.27 2.27 0 0 0 1.796.876c1.245 0 2.258-.996 2.258-2.219 0-1.223-1.013-2.219-2.258-2.219h-.003Zm0 3.032a.821.821 0 0 1-.828-.814.82.82 0 0 1 .828-.813.82.82 0 0 1 .828.813.822.822 0 0 1-.828.814Zm-7.16 2.172h3.1v1.21h-3.1v-1.21Z" clip-rule="evenodd"/></svg>