<svg viewBox="0 0 24 24" xmlns="http://www.w3.org/2000/svg"><path fill-rule="evenodd" d="M14.9 8.313h-1.252v1.159h-2.556v1.183H14.9V8.313Zm7.1 1.28v2.2c0 .814-.64 1.477-1.43 1.477h-2.09c-.695 0-1.272-.51-1.403-1.188v1.188H9.98l-.06-.001a.357.357 0 0 1-.04-.003 1.423 1.423 0 0 1-.87-.4v.022c0 .906-.59 1.697-1.438 1.93l-1.095.302-.682-1.242 1.431-.398a.618.618 0 0 0 .446-.6V9.592h1.336v2.292h8.044l-.002-.031a.895.895 0 0 1-.002-.062V9.868l1.34-.277v2.292h2.271V9.867l1.34-.278.002.003Zm-1.733 5.9h-1.373V14.31h2.624v2.127h-1.251v-.944Zm-2.678-1.206h-2.81v1.194h2.81v-1.194ZM5.702 9.603c.446.406.713.968.75 1.582a2.327 2.327 0 0 1-.584 1.7l-1.895 2.217-1.346-.516.915-1.072a2.183 2.183 0 0 1-.788-.461A2.307 2.307 0 0 1 2 11.324c0-.56.197-1.094.558-1.518a2.182 2.182 0 0 1 3.144-.203Zm-2.06 2.413a.869.869 0 0 0 1.251-.081.926.926 0 0 0 .22-.663.92.92 0 0 0-.298-.63.869.869 0 0 0-1.252.081.926.926 0 0 0-.22.663c.015.244.12.468.299.63Z" clip-rule="evenodd"/></svg>