<svg viewBox="0 0 24 24" xmlns="http://www.w3.org/2000/svg"><path fill-rule="evenodd" d="M21.592 6.57a1.11 1.11 0 0 1-.788.03l-.384-.128a.943.943 0 0 0-.168-.016.804.804 0 0 0-.817.809v.622l2.22-.455A.44.44 0 0 0 22 6.998v-.602l-.408.173Zm-1.655 7.472h1.561V8.336l-1.561.32v5.386Zm-2.706-1.605V10.15l1.562-.323v2.503c0 .946-.745 1.712-1.665 1.712h-2.143c-.807 0-1.48-.592-1.632-1.378v1.378h-5.63a1.96 1.96 0 0 1-1.474-.683 2.374 2.374 0 0 1-1.719.742c-1.33 0-2.412-1.113-2.412-2.481 0-1.367 1.082-2.48 2.412-2.48h1.705l1.202 3.297h5.888l-.002-.043-.003-.063V10.15l1.562-.322v2.61h2.35ZM3.678 11.62c0 .483.383.877.852.877a.866.866 0 0 0 .853-.877.865.865 0 0 0-.853-.876.866.866 0 0 0-.852.876Zm11.396 3.6H11.67v1.384h3.404V15.22Zm.447-7.78h3.098v1.385H15.52V7.441Z" clip-rule="evenodd"/></svg>