<svg viewBox="0 0 24 24" xmlns="http://www.w3.org/2000/svg"><path fill-rule="evenodd" d="M17 8.702h1.035v1.014H17V8.702Zm6 .272h-2.245v.823H23v-.823ZM8.82 13.668H6.577v.824H8.82v-.824ZM3.474 9.662H2.438v1.014h1.035V9.662Zm16.233 2.432h1.9v-1.406l1.027-.201v1.538c0 .593-.492 1.074-1.097 1.074H16.3c-.453 0-.838-.29-.97-.69v.69h-1.463a1.06 1.06 0 0 1-.64-.213 1.634 1.634 0 0 1-1.011.347c-.65 0-1.211-.374-1.471-.914v.78H5.11a1.758 1.758 0 0 1-1.597 1.003h-.871c-.457 0-.897-.188-1.206-.516a1.586 1.586 0 0 1-.432-1.217l.122-1.531 1.012.222-.11 1.37a.602.602 0 0 0 .507.656c.047.01.095.013.142.013h2.279v-.008a1.003 1.003 0 0 1-.89-.989v-1.575h1.027v1.567H8.14v-1.408l1.028-.2v1.608h1.49a1.544 1.544 0 0 1-.066-.45c0-.878.755-1.591 1.626-1.591.87 0 1.582.671 1.623 1.513.002.026.002.052.002.077v.451h1.489v-1.588l1.027-.268v.43l1.55-.402a1.444 1.444 0 0 1 1.24.245c.355.266.558.671.558 1.11v.473Zm-8.088-.45c0 .323.27.585.599.585a.59.59 0 0 0 .598-.585.592.592 0 0 0-.598-.585.593.593 0 0 0-.599.585Zm4.74.45h1.473v-.001h.851a.401.401 0 0 1-.002-.039v-.418a.41.41 0 0 0-.14-.316.409.409 0 0 0-.368-.081l-1.814.47v.385Z" clip-rule="evenodd"/></svg>