<svg viewBox="0 0 24 24" xmlns="http://www.w3.org/2000/svg"><path fill-rule="evenodd" d="m2.71 8.926.919-.918.918.918-.918.919-.918-.919Zm5.577-.697h2.694v1.109H8.287v-1.11Zm13.43 2.312v1.975h-2.22v-2.232l-1.285.257v1.89c0 .019.001.037.003.056l.001.029H10.24v-2.232H8.955v2.146l.002.057.001.011.001.018H6.82V8.255l-1.285.259v3.915a1.37 1.37 0 0 0 1.37 1.371h2.078v-1.096a1.37 1.37 0 0 0 1.342 1.096h7.912v-1.102A1.37 1.37 0 0 0 19.58 13.8h2.049A1.37 1.37 0 0 0 23 12.43v-2.148l-1.286.258.003.001Zm-5.564-1.34h-1.2v1.077h-2.45v1.099h3.65V9.2Zm5.392 6.663h-1.4v-1.097h2.6v1.974h-1.2v-.877Zm-2.459-1.118h-2.803v1.109h2.803v-1.11Zm-15.952-1.78a.58.58 0 0 1-.428.56L1 13.985l.767 1.126 1.27-.339a1.865 1.865 0 0 0 1.384-1.8v-2.545l-1.287.342v2.198Z" clip-rule="evenodd"/></svg>