<svg viewBox="0 0 24 24" xmlns="http://www.w3.org/2000/svg"><path fill-rule="evenodd" d="M11.195 14.767H9.706V8.642l1.489-.297v6.422Zm10.804-6.18h-3.122v1.285H22V8.588Zm-1.49 2.4v2.29h-3.542c.139-.34.2-.709.176-1.085a2.454 2.454 0 0 0-.833-1.702 2.478 2.478 0 0 0-3.492.218 2.46 2.46 0 0 0-.615 1.791c.04.659.336 1.264.832 1.701.262.232.561.396.876.497l-1.018 1.152 1.497.556 2.105-2.385.017-.019.017-.018c.117-.134.218-.276.303-.428v1.21h3.58c.877 0 1.588-.712 1.588-1.588V10.69l-1.49.297Zm-5.098 2.01a.986.986 0 1 1-1.477-1.306.986.986 0 0 1 1.477 1.306ZM5.218 9.415l-1.062 1.062 1.062 1.062 1.062-1.062-1.062-1.062Zm2.843 5.336a1.23 1.23 0 0 1-1.018-1.212h.001v-2.875h1.487v3.35c0 1.296-.951 2.246-2.245 2.246H4.382c-.661 0-1.3-.28-1.75-.766a2.388 2.388 0 0 1-.624-1.804l.194-2.492 1.468.32-.177 2.261a.926.926 0 0 0 .225.696.88.88 0 0 0 .664.296h3.68v-.02Z" clip-rule="evenodd"/></svg>