<svg viewBox="0 0 24 24" xmlns="http://www.w3.org/2000/svg"><path fill-rule="evenodd" d="M20.443 11.245v1.966h-3.317V7.983l-1.558.311v4.917c0 .86.698 1.558 1.558 1.558H22v-3.837l-1.557.311v.002Zm-.547-3.258-1.111 1.111 1.11 1.111 1.112-1.11-1.111-1.112Zm-9.282 1.947h1.706a2.465 2.465 0 1 1-1.86 4.084v.76H7.968a1.53 1.53 0 0 1-.145 1.196c-.28.495-.787.793-1.357.793H4.31a2.32 2.32 0 0 1-1.687-.733 2.313 2.313 0 0 1-.617-1.731l.19-2.81 1.544.329-.174 2.586a.742.742 0 0 0 .2.561.74.74 0 0 0 .547.238H6.47l-.953-1.989h4.482a2.475 2.475 0 0 1 .005-1.652l.611-1.632Zm.805 2.466a.905.905 0 1 0 1.809 0 .905.905 0 0 0-1.81 0Z" clip-rule="evenodd"/></svg>