<svg viewBox="0 0 24 24" xmlns="http://www.w3.org/2000/svg"><path fill-rule="evenodd" d="M11.5 4A3.5 3.5 0 0 0 8 7.5a1 1 0 0 1-2 0 5.5 5.5 0 1 1 11 0 1 1 0 1 1-2 0A3.5 3.5 0 0 0 11.5 4Zm0 3a.5.5 0 0 0-.5.5v10a1 1 0 0 1-1.53.848l-2.743-1.714a.666.666 0 0 0-.752 1.097l3.79 2.843a2.13 2.13 0 0 0 1.278.426h5.309a2 2 0 0 0 1.984-1.752l.444-3.553a1 1 0 0 0-.783-1.101l-5.207-1.116A1 1 0 0 1 12 12.5v-5a.5.5 0 0 0-.5-.5ZM9 7.5a2.5 2.5 0 0 1 5 0v4.192l4.417.946a3 3 0 0 1 2.348 3.306l-.444 3.552A4 4 0 0 1 16.35 23h-5.308a4.13 4.13 0 0 1-2.477-.826l-3.791-2.843a2.666 2.666 0 0 1 3.012-4.393L9 15.696V7.5Z" clip-rule="evenodd"/></svg>