<svg viewBox="0 0 24 24" xmlns="http://www.w3.org/2000/svg"><path fill-rule="evenodd" d="M6.423 4.069A1.5 1.5 0 0 1 7.86 3h.052a1.57 1.57 0 0 1 1.404.868L10.382 6H7.86a1.5 1.5 0 0 1-1.437-1.931ZM16.14 6h-2.522l1.066-2.132A1.57 1.57 0 0 1 16.088 3h.052a1.5 1.5 0 0 1 0 3Zm-3.245-3.027L12 4.763l-.895-1.79A3.57 3.57 0 0 0 7.912 1H7.86a3.5 3.5 0 0 0-3.352 2.494C3.834 5.74 5.516 8 7.86 8h8.28c2.344 0 4.026-2.26 3.352-4.506A3.5 3.5 0 0 0 16.14 1h-.052a3.57 3.57 0 0 0-3.193 1.973ZM4.6 9h-.032c-.252 0-.498 0-.706.017a2.022 2.022 0 0 0-.77.201 2 2 0 0 0-.874.874 2.022 2.022 0 0 0-.201.77C2 11.07 2 11.316 2 11.568V13a2 2 0 0 0 1 1.732v3.904c0 .39 0 .74.024 1.03.025.313.083.644.248.97a2.5 2.5 0 0 0 1.093 1.092c.325.165.656.223.968.248.292.024.642.024 1.03.024h11.274c.39 0 .74 0 1.03-.023.313-.026.644-.084.969-.25a2.5 2.5 0 0 0 1.092-1.092 2.54 2.54 0 0 0 .25-.968c.023-.291.023-.642.023-1.03v-3.905A2 2 0 0 0 22 13v-1.432c0-.252 0-.498-.017-.706a2.022 2.022 0 0 0-.201-.77 2 2 0 0 0-.874-.874 2.022 2.022 0 0 0-.77-.201C19.93 9 19.684 9 19.432 9H4.6Zm.4 9.6V15h6v5H6.4c-.437 0-.704 0-.904-.017a1.275 1.275 0 0 1-.215-.034.5.5 0 0 1-.226-.222l-.004-.008a1.279 1.279 0 0 1-.034-.215c-.016-.2-.017-.467-.017-.904Zm6-7.6v2H4v-1.4c0-.296 0-.459.01-.575l.001-.014h.014C4.14 11 4.303 11 4.6 11H11Zm2 3v-3h6.4c.297 0 .459 0 .575.01l.013.001.002.014c.01.116.01.278.01.575V13h-4a1 1 0 1 0 0 2h3v3.6c0 .437 0 .704-.017.904a1.288 1.288 0 0 1-.034.215l-.003.007v.001a.5.5 0 0 1-.227.222 1.275 1.275 0 0 1-.215.034c-.2.017-.468.017-.904.017H13v-6Z" clip-rule="evenodd"/></svg>