<svg viewBox="0 0 24 24" xmlns="http://www.w3.org/2000/svg"><mask id="a" width="24" height="24" x="0" y="0" maskUnits="userSpaceOnUse" style="mask-type:alpha"><path d="M0 0h24v24H0z"/></mask><g mask="url(#a)"><path d="m12.481 11.572-8.403 8.806.001.006a2.265 2.265 0 0 0 2.193 1.66c.42 0 .813-.112 1.15-.309l.028-.015 9.458-5.389-4.427-4.759Z"/><path d="m20.98 10.072-.009-.005-4.083-2.338-4.6 4.043 4.617 4.559 4.06-2.316a2.238 2.238 0 0 0 1.197-1.976c0-.848-.477-1.585-1.182-1.967Z"/><path d="M4.077 3.665c-.05.184-.077.377-.077.577v15.56c.008.223.026.393.078.576l8.692-8.58-8.693-8.133Z"/><path d="m12.544 12.022 4.348-4.292-9.447-5.41A2.297 2.297 0 0 0 6.272 2c-1.05 0-1.935.705-2.193 1.663v.002l8.465 8.357Z"/></g></svg>