<svg viewBox="0 0 24 24" xmlns="http://www.w3.org/2000/svg"><path fill-rule="evenodd" d="M11.93 2h.14c.862 0 1.372 0 1.812.043a9 9 0 0 1 8.075 8.075c.043.44.043.95.043 1.812v.14c0 .862 0 1.372-.043 1.812a9 9 0 0 1-8.075 8.075c-.44.043-.95.043-1.812.043h-.14c-.862 0-1.372 0-1.812-.043a9 9 0 0 1-8.075-8.075C2 13.442 2 12.932 2 12.07v-.14c0-.862 0-1.372.043-1.812a9 9 0 0 1 8.075-8.075C10.558 2 11.068 2 11.93 2ZM8 7a1 1 0 0 0-1 1v1a1 1 0 0 0 1 1h1a1 1 0 0 0 1-1V8a1 1 0 0 0-1-1H8Zm7 0a1 1 0 0 0-1 1v1a1 1 0 0 0 1 1h1a1 1 0 0 0 1-1V8a1 1 0 0 0-1-1h-1Zm-7.707 4.793a1 1 0 0 0 0 1.414C8.523 14.437 10.302 15 12 15s3.477-.563 4.707-1.793a1 1 0 0 0-1.414-1.414C14.523 12.563 13.302 13 12 13s-2.523-.437-3.293-1.207a1 1 0 0 0-1.414 0Z" clip-rule="evenodd"/></svg>