<svg viewBox="0 0 24 24" xmlns="http://www.w3.org/2000/svg"><path fill-rule="evenodd" d="M4 12a8 8 0 1 1 8.89 7.951 1 1 0 0 0 .22 1.988c5-.553 8.89-4.791 8.89-9.939 0-5.523-4.477-10-10-10S2 6.477 2 12c0 2.45.931 4.738 2.421 6.5H2a1 1 0 1 0 0 2h5a1 1 0 0 0 1-1v-5a1 1 0 1 0-2 0v2.77C4.768 15.84 4 13.974 4 12Zm9-4.5a1 1 0 1 0-2 0v3.762c0 .226-.002.512.077.787a2 2 0 0 0 .33.66c.173.228.402.399.584.534l.049.037 3.36 2.52a1 1 0 1 0 1.2-1.6l-3.36-2.52a6.218 6.218 0 0 1-.233-.179l-.003-.003v-.004A6.478 6.478 0 0 1 13 11.2V7.5Z" clip-rule="evenodd"/></svg>