<svg viewBox="0 0 24 24" xmlns="http://www.w3.org/2000/svg"><path fill-rule="evenodd" d="M10.956 2h2.088c1.363 0 2.447 0 3.321.071.896.074 1.66.227 2.359.583a6 6 0 0 1 2.622 2.622c.356.7.51 1.463.583 2.359.071.874.071 1.958.071 3.321v2.088c0 1.363 0 2.447-.071 3.322-.074.895-.227 1.659-.583 2.358a6 6 0 0 1-2.622 2.622c-.7.356-1.463.51-2.359.583-.874.071-1.958.071-3.321.071h-2.088c-1.363 0-2.447 0-3.321-.071-.896-.073-1.66-.227-2.359-.583a6 6 0 0 1-2.622-2.622c-.356-.7-.51-1.463-.583-2.358C2 15.49 2 14.405 2 13.044v-2.088c0-1.363 0-2.447.071-3.321.074-.896.227-1.66.583-2.359a6 6 0 0 1 2.622-2.622c.7-.356 1.463-.51 2.359-.583C8.509 2 9.593 2 10.956 2Zm-.071 4.744a1.5 1.5 0 0 1 2.23 0l3.398 3.776a2 2 0 0 1 .513 1.337V14.7a1.8 1.8 0 0 1-1.8 1.8H13v-2a1 1 0 1 0-2 0v2H8.774a1.8 1.8 0 0 1-1.8-1.8v-2.843a2 2 0 0 1 .513-1.337l3.398-3.776Z" clip-rule="evenodd"/></svg>