<svg viewBox="0 0 24 24" xmlns="http://www.w3.org/2000/svg"><path fill-rule="evenodd" d="M10.69 2.878a1 1 0 0 0-.617-1.903c-.494.16-.882.469-1.25.806-.163.15-.338.321-.527.51l-.265.264H8.03L4.636 5.95l-.087.087c-.782.781-1.293 1.292-1.665 1.9a6 6 0 0 0-.718 1.734C1.999 10.363 2 11.086 2 12.19v4.052c0 .806 0 1.47.044 2.011.046.562.144 1.079.392 1.564a4 4 0 0 0 1.748 1.748c.485.247 1.002.346 1.564.392.541.044 1.205.044 2.01.044h6.483c.805 0 1.47 0 2.01-.044.563-.046 1.08-.145 1.565-.392a4 4 0 0 0 1.748-1.748c.232-.456.333-.938.382-1.46.049-.51.053-1.124.054-1.855a1 1 0 0 0-2-.002c0 .752-.007 1.268-.045 1.668-.036.388-.099.595-.173.741a2 2 0 0 1-.874.874c-.157.08-.38.145-.82.18-.45.037-1.032.038-1.888.038h-1.925v-2a1 1 0 0 0-1-1h-.55a1 1 0 0 0-1 1v2H7.8c-.857 0-1.44 0-1.89-.037-.438-.036-.662-.101-.818-.18a2 2 0 0 1-.874-.875l-.891.454.89-.454c-.079-.156-.144-.38-.18-.819C4.001 17.64 4 17.057 4 16.2v-3.886c0-1.27.006-1.743.11-2.177a4 4 0 0 1 .48-1.156c.232-.38.562-.718 1.46-1.617L9.444 3.97l.261-.26c.187-.186.339-.334.471-.456.317-.291.445-.354.515-.376ZM18 6a1 1 0 0 0-2 0v2a1 1 0 0 0 .293.707l1.5 1.5a1 1 0 1 0 1.414-1.414L18 7.586V6Zm-1.116-4h.232c.817 0 1.374 0 1.86.096a5 5 0 0 1 3.928 3.929C23 6.509 23 7.067 23 7.885v.231c0 .817 0 1.375-.096 1.86a5 5 0 0 1-3.929 3.928c-.485.096-1.042.096-1.86.096h-.231c-.818 0-1.375 0-1.86-.096a5 5 0 0 1-3.928-3.929c-.097-.484-.097-1.042-.096-1.86v-.231c0-.817 0-1.375.096-1.86a5 5 0 0 1 3.928-3.928C15.51 2 16.066 2 16.884 2ZM17 4c-.977 0-1.32.005-1.585.058a3 3 0 0 0-2.358 2.357C13.005 6.68 13 7.023 13 8s.005 1.32.057 1.585a3 3 0 0 0 2.357 2.357c.266.053.609.058 1.586.058.977 0 1.32-.005 1.585-.058a3 3 0 0 0 2.357-2.357C20.995 9.32 21 8.977 21 8s-.005-1.32-.058-1.585a3 3 0 0 0-2.357-2.357C18.32 4.005 17.977 4 17 4Z" clip-rule="evenodd"/></svg>