<svg viewBox="0 0 24 24" xmlns="http://www.w3.org/2000/svg"><path fill-rule="evenodd" d="M6.765 4.562a1 1 0 0 1 1.116-.527c.026.006.116.034.349.171.23.136.525.332.963.624l.08.054c.488.325.853.57 1.243.725a4 4 0 0 0 2.968 0c.39-.156.755-.4 1.243-.725l.08-.054c.438-.292.733-.488.963-.624.233-.137.323-.165.349-.171a1 1 0 0 1 1.116.527c.012.024.047.111.09.379.04.264.076.616.128 1.14L17.845 10H6.155l.392-3.919c.052-.524.088-.876.129-1.14.041-.268.077-.355.089-.379Zm-2.208 1.32-.504 5.04a9.175 9.175 0 0 1-.358-.054c-.318-.055-.634-.134-1.363-.316l-.09-.022a1 1 0 0 0-.485 1.94l.09.022.04.01c.677.17 1.068.268 1.467.337.354.061.71.105 1.07.131.403.03.806.03 1.503.03h12.146c.697 0 1.1 0 1.504-.03.358-.026.715-.07 1.069-.131.399-.07.79-.167 1.466-.336l.041-.01.09-.023a1 1 0 1 0-.485-1.94l-.09.022c-.729.182-1.046.26-1.363.316-.12.02-.238.039-.358.054l-.504-5.04-.003-.028a24.54 24.54 0 0 0-.14-1.22c-.05-.327-.123-.66-.276-.966a3 3 0 0 0-3.35-1.583c-.332.075-.636.231-.921.4-.283.166-.623.393-1.032.666l-.023.015c-.604.403-.786.518-.956.586a2 2 0 0 1-1.484 0c-.17-.068-.352-.183-.956-.586l-.023-.015a24.57 24.57 0 0 0-1.032-.667c-.285-.168-.589-.324-.922-.4a3 3 0 0 0-3.35 1.584c-.152.305-.225.639-.275.966-.05.324-.092.731-.14 1.22l-.003.028ZM5.5 18a2 2 0 1 1 4 0 2 2 0 0 1-4 0Zm2-4a4 4 0 1 0 3.91 3.151c.38-.14.8-.14 1.18 0a4 4 0 1 0 .904-1.79 3.706 3.706 0 0 0-2.988 0A3.99 3.99 0 0 0 7.5 14Zm7 4a2 2 0 1 1 4 0 2 2 0 0 1-4 0Z" clip-rule="evenodd"/></svg>