<svg viewBox="0 0 24 24" xmlns="http://www.w3.org/2000/svg"><path fill-rule="evenodd" d="M5.663 4.19C7.197 3.644 9.533 3 12 3c2.468 0 4.803.643 6.337 1.19.609.218.7.264.816.363.1.086.233.274.28.397.053.137.067.271.067 1.028v7.141c0 1.356-.01 1.819-.136 2.221-.121.387-.32.745-.582 1.053-.274.32-.66.576-1.807 1.298l-4.655 2.927a5.77 5.77 0 0 1-.314.191l-.006.003-.005-.003a6.877 6.877 0 0 1-.314-.191L7.026 17.69c-1.148-.722-1.534-.977-1.807-1.298a3 3 0 0 1-.582-1.053c-.126-.402-.137-.865-.137-2.22V5.977c0-.757.015-.891.067-1.028.048-.123.18-.31.28-.397.115-.1.208-.145.816-.362ZM12 1c-2.786 0-5.363.72-7.01 1.307l-.081.03c-.493.174-.94.334-1.367.7-.35.302-.674.763-.84 1.193-.203.526-.203 1.051-.202 1.636v7.406c0 1.143 0 1.934.228 2.665a5 5 0 0 0 .97 1.755c.496.582 1.166 1.002 2.134 1.61l.13.082 4.654 2.927.065.041c.237.15.535.339.874.416.293.067.597.067.89 0 .34-.077.637-.266.874-.416l.065-.041 4.655-2.927.13-.081c.968-.609 1.637-1.03 2.134-1.611a5.025 5.025 0 0 0 .97-1.755c.228-.731.228-1.522.227-2.665V5.866c.001-.584.002-1.11-.201-1.636a3.207 3.207 0 0 0-.84-1.192c-.427-.367-.875-.527-1.367-.702l-.082-.029C17.363 1.72 14.785 1 12 1Zm4.793 7.11a1 1 0 1 0-1.585-1.22l-4.239 5.51-1.7-2.04a1 1 0 0 0-1.537 1.28l1.86 2.233.018.02c.093.113.2.242.304.345.114.116.3.281.572.377a1.5 1.5 0 0 0 1.052-.02c.267-.107.447-.28.557-.4.099-.107.201-.24.29-.356l.017-.021 4.39-5.708Z" clip-rule="evenodd"/></svg>