<svg viewBox="0 0 24 24" xmlns="http://www.w3.org/2000/svg"><path fill-rule="evenodd" d="M11.068 2h1.864c.252 0 .498 0 .706.017.229.019.498.063.77.201a2 2 0 0 1 .874.874c.138.271.182.541.2.77.018.208.018.454.018.706V5h2.362c.354 0 .676 0 .945.021.29.023.597.074.903.219a2.5 2.5 0 0 1 1.075.972c.175.29.256.59.308.877.047.266.08.586.115.939l.003.034.608 6.08.004.033c.027.276.054.541.057.766a2.02 2.02 0 0 1-.144.84 2 2 0 0 1-.736.886v1.969c0 .39 0 .74-.024 1.03a2.537 2.537 0 0 1-.249.969 2.5 2.5 0 0 1-1.092 1.092 2.537 2.537 0 0 1-.969.25c-.29.023-.641.023-1.03.023H6.364c-.39 0-.74 0-1.03-.024a2.537 2.537 0 0 1-.97-.248 2.5 2.5 0 0 1-1.092-1.093 2.538 2.538 0 0 1-.248-.968A13.518 13.518 0 0 1 3 18.637v-1.97a2 2 0 0 1-.736-.886 2.03 2.03 0 0 1-.144-.84c.003-.225.03-.49.057-.766l.004-.034.608-6.08.003-.033c.035-.353.067-.673.115-.939.051-.286.133-.586.307-.877A2.5 2.5 0 0 1 4.29 5.24a2.53 2.53 0 0 1 .904-.219C5.462 5 5.783 5 6.138 5H8.5v-.432c0-.252 0-.498.017-.706.018-.229.063-.499.2-.77a2 2 0 0 1 .875-.874 2.03 2.03 0 0 1 .77-.201C10.57 2 10.816 2 11.068 2ZM10.5 5h3v-.4c0-.297 0-.459-.01-.575l-.002-.014h-.013A8.192 8.192 0 0 0 12.9 4h-1.8a8.176 8.176 0 0 0-.589.011v.014c-.01.116-.011.278-.011.575V5Zm4 2H6.172c-.4 0-.642 0-.824.015a1.23 1.23 0 0 0-.166.022c-.028.006-.038.01-.038.01a.5.5 0 0 0-.215.195s-.006.01-.015.037c-.01.03-.024.08-.038.164-.033.18-.058.42-.097.818l-.608 6.08a8.671 8.671 0 0 0-.052.646l.016.001c.13.011.31.012.633.012h14.464c.324 0 .504 0 .633-.012l.016-.001v-.016a8.642 8.642 0 0 0-.052-.63l-.608-6.08c-.04-.398-.065-.639-.097-.818a1.236 1.236 0 0 0-.038-.164.189.189 0 0 0-.015-.036.5.5 0 0 0-.215-.195s-.01-.005-.038-.011a1.23 1.23 0 0 0-.167-.022A11.963 11.963 0 0 0 17.828 7H14.5ZM5 17v1.6c0 .436 0 .704.017.904a1.281 1.281 0 0 0 .034.215l.003.008a.5.5 0 0 0 .219.218l.008.004a1.29 1.29 0 0 0 .215.034c.2.016.467.017.904.017h11.2c.436 0 .704 0 .904-.017a1.29 1.29 0 0 0 .215-.034.5.5 0 0 0 .226-.222l.003-.008a1.29 1.29 0 0 0 .034-.215c.017-.2.018-.468.018-.904V17h-4.5a1 1 0 0 1-1 1h-3a1 1 0 0 1-1-1H5Z" clip-rule="evenodd"/></svg>