<svg viewBox="0 0 24 24" xmlns="http://www.w3.org/2000/svg"><path fill-rule="evenodd" d="M13 3a1 1 0 1 0-2 0H6.16c-.527 0-.981 0-1.356.03-.395.033-.789.104-1.167.297a3 3 0 0 0-1.311 1.311c-.193.378-.264.772-.296 1.167C2 6.18 2 6.635 2 7.161v8.677c0 .528 0 .982.03 1.357.033.395.104.789.297 1.167a3 3 0 0 0 1.311 1.311c.378.193.772.264 1.167.296.123.01.255.017.395.022-.132.318-.2.661-.2 1.009a1 1 0 1 0 2 0c0-.129.038-.254.11-.361L7.534 20h8.93l.426.639a.66.66 0 0 1 .109.361 1 1 0 1 0 2 0c0-.348-.068-.69-.2-1.01a8.1 8.1 0 0 0 .395-.02c.395-.033.788-.104 1.167-.297a3 3 0 0 0 1.31-1.311c.194-.378.265-.772.297-1.167.03-.375.03-.83.03-1.356V7.16c0-.527 0-.981-.03-1.356-.032-.395-.103-.789-.296-1.167a3 3 0 0 0-1.311-1.311c-.378-.193-.772-.264-1.167-.296C18.82 3 18.365 3 17.838 3H13Zm4.8 2c.576 0 .949 0 1.232.024.272.022.372.06.422.085a1 1 0 0 1 .437.437c.025.05.063.15.085.422.023.283.024.655.024 1.232v8.6c0 .577 0 .949-.024 1.232-.022.272-.06.372-.085.422a1 1 0 0 1-.437.437c-.05.025-.15.063-.422.085-.283.023-.656.024-1.232.024H6.2c-.577 0-.949 0-1.232-.024-.272-.022-.373-.06-.422-.085a1 1 0 0 1-.437-.437c-.025-.05-.063-.15-.085-.422C4 16.75 4 16.377 4 15.8V7.2c0-.577 0-.949.024-1.232.022-.272.06-.373.085-.422a1 1 0 0 1 .437-.437c.05-.025.15-.063.422-.085C5.25 5.001 5.623 5 6.2 5h11.6Zm-3.84 3a1 1 0 0 0-.693 1.72l1.07 1.03-1.507 1.85-2.706-2.16a1 1 0 0 0-1.367.113l-2.5 2.778a1 1 0 1 0 1.486 1.338l1.87-2.077 2.744 2.19a1 1 0 0 0 1.399-.15l2.712-3.334.012-.014 1.307-1.667A1 1 0 0 0 17 8h-3.04Z" clip-rule="evenodd"/></svg>