<svg viewBox="0 0 24 24" xmlns="http://www.w3.org/2000/svg"><path fill-rule="evenodd" d="M6.8 2h-.041c-.805 0-1.47 0-2.01.044-.563.046-1.08.145-1.565.392a4 4 0 0 0-1.748 1.748c-.247.485-.346 1.002-.392 1.564C1 6.29 1 6.954 1 7.758v6.38c0 .795 0 1.386.136 1.897a4 4 0 0 0 2.829 2.829c.32.086.647.114 1.003.127a1 1 0 0 0 .068-2c-.301-.01-.45-.031-.554-.059a2 2 0 0 1-1.414-1.414C3.008 15.295 3 14.994 3 14V7.8c0-.857 0-1.439.038-1.889.035-.438.1-.663.18-.819a2 2 0 0 1 .874-.874c.156-.08.38-.145.819-.18C5.361 4 5.943 4 6.8 4h10.4c.857 0 1.439 0 1.889.038.438.035.663.1.819.18a2 2 0 0 1 .874.874l.891-.454-.891.454c.08.157.145.38.18.82C21 6.361 21 6.942 21 7.8V14c0 .995-.009 1.296-.068 1.518a2 2 0 0 1-1.414 1.414c-.103.028-.252.05-.552.06a1 1 0 0 0 .068 1.999 4.43 4.43 0 0 0 1.001-.127 4 4 0 0 0 2.829-2.829c.137-.511.136-1.102.136-1.897V7.759c0-.805 0-1.47-.044-2.01-.046-.563-.145-1.08-.392-1.565a4 4 0 0 0-1.748-1.748c-.485-.247-1.002-.346-1.564-.392C18.71 2 18.046 2 17.242 2H6.8ZM4.5 12a1 1 0 0 0 1 1h1a1 1 0 0 0 1-1v-1a1 1 0 0 0-1-1h-1a1 1 0 0 0-1 1v1Zm2-4a1 1 0 0 0 1 1h1a1 1 0 0 0 1-1V7a1 1 0 0 0-1-1h-1a1 1 0 0 0-1 1v1Zm2 4a1 1 0 0 0 1 1h1a1 1 0 0 0 1-1v-1a1 1 0 0 0-1-1h-1a1 1 0 0 0-1 1v1Zm2-4a1 1 0 0 0 1 1h1a1 1 0 0 0 1-1V7a1 1 0 0 0-1-1h-1a1 1 0 0 0-1 1v1Zm2 4a1 1 0 0 0 1 1h1a1 1 0 0 0 1-1v-1a1 1 0 0 0-1-1h-1a1 1 0 0 0-1 1v1Zm2-4a1 1 0 0 0 1 1h1a1 1 0 0 0 1-1V7a1 1 0 0 0-1-1h-1a1 1 0 0 0-1 1v1Zm2 4a1 1 0 0 0 1 1h1a1 1 0 0 0 1-1v-1a1 1 0 0 0-1-1h-1a1 1 0 0 0-1 1v1ZM7 15a1 1 0 0 1 1-1h8a1 1 0 0 1 0 2H8a1 1 0 0 1-1-1Zm2.707 3.293a1 1 0 1 0-1.414 1.414l1.303 1.303.025.025c.275.276.523.523.746.712.238.203.514.397.86.51a2.5 2.5 0 0 0 1.546 0c.346-.113.622-.307.86-.51.223-.189.47-.436.746-.712l.025-.025 1.303-1.303a1 1 0 1 0-1.414-1.414l-1.303 1.303c-.309.308-.498.497-.651.627a1.277 1.277 0 0 1-.177.128.499.499 0 0 1-.325 0 1.284 1.284 0 0 1-.177-.128c-.152-.13-.341-.319-.65-.627l-1.303-1.303Z" clip-rule="evenodd"/></svg>