<svg viewBox="0 0 24 24" xmlns="http://www.w3.org/2000/svg"><path fill-rule="evenodd" d="M7.5 1a1 1 0 0 0-1 1v1a1 1 0 0 0 1 1h1a1 1 0 0 0 1-1V2a1 1 0 0 0-1-1h-1Zm8 0a1 1 0 0 0-1 1v1a1 1 0 0 0 1 1h1a1 1 0 0 0 1-1V2a1 1 0 0 0-1-1h-1ZM2 7.5a1 1 0 0 0-1 1v1a1 1 0 0 0 1 1h1a1 1 0 0 0 1-1v-1a1 1 0 0 0-1-1H2Zm19 0a1 1 0 0 0-1 1v1a1 1 0 0 0 1 1h1a1 1 0 0 0 1-1v-1a1 1 0 0 0-1-1h-1Zm-19 8a1 1 0 0 0-1 1v1a1 1 0 0 0 1 1h1a1 1 0 0 0 1-1v-1a1 1 0 0 0-1-1H2ZM12 7a5 5 0 0 0-3.307 8.75 1 1 0 1 1-1.323 1.5 7 7 0 1 1 11.232-7.583 1 1 0 1 1-1.886.666A5.002 5.002 0 0 0 12 7Zm6 8c-1.689 0-3 1.292-3 3a1 1 0 0 1-1 1h-1a1 1 0 0 0 0 2h5.118A2.882 2.882 0 0 0 21 18.118V18c0-1.708-1.311-3-3-3Zm-4.904 2c.452-2.32 2.46-4 4.904-4 2.784 0 5 2.178 5 5v.118A4.882 4.882 0 0 1 18.118 23H13a3 3 0 0 1 0-6h.096Z" clip-rule="evenodd"/></svg>