<svg viewBox="0 0 24 24" xmlns="http://www.w3.org/2000/svg"><path fill-rule="evenodd" d="M17.1 2.207a3.8 3.8 0 0 0-2.215-.1c-.472.12-.878.35-1.281.636-.387.274-.828.642-1.357 1.083l-.03.025-1.77 1.475a2.291 2.291 0 0 0-.154 3.381 1 1 0 0 0 1.414-1.414.291.291 0 0 1 .02-.43l1.77-1.476c.567-.472.948-.789 1.263-1.012.304-.215.482-.295.622-.33a1.8 1.8 0 0 1 1.049.047c.136.048.305.144.589.386.293.25.644.6 1.166 1.122l.214.214c.522.522.872.873 1.122 1.166.242.284.338.453.386.59a1.8 1.8 0 0 1 .048 1.048c-.036.14-.116.318-.331.622-.223.315-.54.696-1.012 1.263l-1.476 1.77a.292.292 0 0 1-.43.02 1 1 0 0 0-1.414 1.414 2.292 2.292 0 0 0 3.38-.153l1.476-1.77.025-.03c.441-.53.809-.971 1.082-1.358.286-.403.516-.81.637-1.282a3.8 3.8 0 0 0-.1-2.214c-.163-.46-.43-.843-.75-1.22-.308-.359-.714-.765-1.201-1.253l-.028-.027-.214-.214-.027-.028c-.488-.487-.894-.893-1.254-1.2-.376-.322-.76-.588-1.219-.75Zm-10.237 9.52a.291.291 0 0 1 .43-.02 1 1 0 1 0 1.414-1.414 2.292 2.292 0 0 0-3.38.153l-1.476 1.77-.025.03c-.441.53-.809.971-1.083 1.358-.285.403-.515.81-.636 1.281a3.8 3.8 0 0 0 .1 2.215c.163.46.43.843.75 1.22.308.359.714.765 1.201 1.253l.028.027.214.214.027.028c.488.487.894.893 1.254 1.2.376.322.76.587 1.219.75a3.8 3.8 0 0 0 2.214.101c.473-.12.879-.35 1.282-.637.386-.273.828-.641 1.357-1.082l.03-.025 1.77-1.476-.64-.768.64.768a2.292 2.292 0 0 0 .154-3.38 1 1 0 0 0-1.414 1.414.292.292 0 0 1-.02.43l-1.77 1.476c-.567.472-.948.789-1.263 1.012-.304.215-.482.295-.622.33a1.8 1.8 0 0 1-1.049-.047c-.136-.048-.305-.144-.59-.386-.292-.25-.643-.6-1.165-1.122l-.214-.214c-.522-.522-.872-.873-1.122-1.166-.242-.284-.338-.453-.386-.59a1.8 1.8 0 0 1-.048-1.048c.036-.14.116-.318.331-.622.223-.315.54-.696 1.012-1.263l1.476-1.77Zm9.344-2.52a1 1 0 1 0-1.414-1.414l-7 7a1 1 0 0 0 1.414 1.414l7-7Z" clip-rule="evenodd"/></svg>