<svg viewBox="0 0 24 24" xmlns="http://www.w3.org/2000/svg"><path fill-rule="evenodd" d="M22.3 3.6a1 1 0 0 0-1.6-1.2l-2.2 2.933-.7-.933a1 1 0 1 0-1.6 1.2l.86 1.147.017.022c.093.125.199.266.3.379.112.124.299.308.58.417a1.5 1.5 0 0 0 1.087 0c.28-.11.467-.293.579-.417a5.69 5.69 0 0 0 .3-.378l.017-.023L22.3 3.6ZM4 4a1 1 0 1 0 0 2h9a1 1 0 1 0 0-2H4Zm0 7a1 1 0 1 0 0 2h9a1 1 0 0 0 0-2H4Zm-1 8a1 1 0 0 1 1-1h9a1 1 0 1 1 0 2H4a1 1 0 0 1-1-1Zm19.1-9.8a1 1 0 0 1 .2 1.4l-2.36 3.147-.017.022a5.681 5.681 0 0 1-.3.379 1.522 1.522 0 0 1-.58.417 1.5 1.5 0 0 1-1.087 0 1.522 1.522 0 0 1-.579-.417 5.707 5.707 0 0 1-.3-.379l-.017-.022-.86-1.147a1 1 0 0 1 1.6-1.2l.7.933L20.7 9.4a1 1 0 0 1 1.4-.2ZM18.766 17h.468c.157 0 .36 0 .538.024.22.03.543.11.818.386.275.276.357.598.386.818.024.178.024.381.024.538v.468c0 .157 0 .36-.024.538-.03.22-.11.543-.386.818a1.39 1.39 0 0 1-.818.387c-.178.023-.381.023-.538.023h-.468c-.157 0-.36 0-.538-.023a1.39 1.39 0 0 1-.818-.387 1.389 1.389 0 0 1-.386-.818 4.176 4.176 0 0 1-.024-.538v-.468c0-.157 0-.36.024-.538.03-.22.11-.543.386-.818a1.39 1.39 0 0 1 .818-.386c.178-.024.381-.024.538-.024Z" clip-rule="evenodd"/></svg>