<svg viewBox="0 0 24 24" xmlns="http://www.w3.org/2000/svg"><path fill-rule="evenodd" d="M12 3a3 3 0 0 0-3 3v3h6V6a3 3 0 0 0-3-3Zm5 6.018V6A5 5 0 1 0 7 6v3.018a6.845 6.845 0 0 0-.195.013c-.395.032-.789.103-1.167.296a3 3 0 0 0-1.311 1.311c-.193.378-.264.772-.296 1.167C4 12.18 4 12.635 4 13.161v4.677c0 .528 0 .982.03 1.357.033.395.104.789.297 1.167a3 3 0 0 0 1.311 1.311c.378.193.772.264 1.167.296.375.031.83.031 1.356.031h7.679c.527 0 .981 0 1.356-.03.395-.033.789-.104 1.167-.297a3 3 0 0 0 1.311-1.311c.193-.378.264-.772.296-1.167.031-.375.031-.83.031-1.356v-4.677c0-.528 0-.982-.03-1.357-.033-.395-.104-.789-.297-1.167a3 3 0 0 0-1.311-1.311c-.378-.193-.772-.264-1.167-.296A6.79 6.79 0 0 0 17 9.018ZM12.5 14a1 1 0 0 1 1 1v1a1 1 0 0 1-1 1h-1a1 1 0 0 1-1-1v-1a1 1 0 0 1 1-1h1Z" clip-rule="evenodd"/></svg>