<svg viewBox="0 0 24 24" xmlns="http://www.w3.org/2000/svg"><path fill-rule="evenodd" d="M10.334 4.191a8.46 8.46 0 0 1 .637-.058h.016l.001.015c.011.13.012.313.012.64v14.424c0 .327 0 .51-.012.64l-.001.016h-.016a8.744 8.744 0 0 1-.637-.06l-4.377-.486a16.09 16.09 0 0 1-1.103-.143c-.24-.046-.33-.088-.376-.116a1 1 0 0 1-.384-.429c-.022-.049-.054-.142-.073-.386C4 17.992 4 17.658 4 17.136V6.864c0-.522 0-.856.02-1.112.02-.244.052-.337.074-.386a1 1 0 0 1 .384-.43c.046-.027.136-.07.376-.115.252-.048.584-.086 1.103-.143l4.377-.487Zm1.433-1.92a2.032 2.032 0 0 0-.848-.138c-.227.006-.494.036-.772.067l-.034.004-4.377.486-.036.004c-.472.052-.883.098-1.22.162-.359.068-.71.17-1.045.374a3 3 0 0 0-1.152 1.288c-.166.354-.228.715-.256 1.079C2 5.939 2 6.352 2 6.828v10.344c0 .476 0 .889.027 1.231.028.364.09.725.256 1.08a3 3 0 0 0 1.152 1.287c.334.204.686.306 1.045.374.337.064.748.11 1.22.162l.036.004 4.377.487.034.003c.278.031.545.06.772.067.246.006.543-.01.848-.137a2 2 0 0 0 .984-.88 2.03 2.03 0 0 0 .23-.829c.02-.226.019-.495.019-.774V4.753c0-.28 0-.548-.02-.774a2.03 2.03 0 0 0-.23-.828 2 2 0 0 0-.983-.88ZM15.8 5c.577 0 .949 0 1.232.024.272.022.372.06.422.085a1 1 0 0 1 .437.437c.025.05.063.15.085.422C18 6.25 18 6.623 18 7.2v2.3a1 1 0 1 0 2 0V7.162c0-.528 0-.982-.03-1.357-.033-.395-.104-.789-.297-1.167a3 3 0 0 0-1.311-1.311c-.378-.193-.772-.264-1.167-.296C16.82 3 16.365 3 15.838 3H15.5a1 1 0 1 0 0 2h.3ZM8 10.5a1 1 0 0 0-1 1v1a1 1 0 0 0 1 1h1a1 1 0 0 0 1-1v-1a1 1 0 0 0-1-1H8Zm10.293 3.707a1 1 0 0 1 1.414-1.414l2.369 2.369.022.022c.179.179.353.352.488.511.148.175.308.397.402.687a2 2 0 0 1 0 1.236c-.094.29-.254.512-.402.687a9.18 9.18 0 0 1-.488.51l-.022.023-2.369 2.37a1 1 0 0 1-1.414-1.415L20.086 18H15.5a1 1 0 1 1 0-2h4.586l-1.793-1.793Z" clip-rule="evenodd"/></svg>