<svg viewBox="0 0 81 81" xmlns="http://www.w3.org/2000/svg"><path fill-opacity=".1" d="M1 34.83c0-12.192 0-18.287 2.373-22.944a21.769 21.769 0 0 1 9.513-9.513C17.543 0 23.638 0 35.83 0h10.34c12.192 0 18.287 0 22.944 2.373a21.769 21.769 0 0 1 9.513 9.513C81 16.543 81 22.638 81 34.83v10.34c0 12.192 0 18.288-2.373 22.944a21.768 21.768 0 0 1-9.513 9.513C64.457 80 58.362 80 46.17 80H35.83c-12.192 0-18.287 0-22.944-2.373a21.769 21.769 0 0 1-9.513-9.513C1 63.457 1 57.362 1 45.17V34.83Z"/><path fill-opacity=".1" fill-rule="evenodd" d="M45.217 0c6.056 0 10.662 0 14.332.3 3.692.302 6.526.912 9.02 2.182a22.77 22.77 0 0 1 9.95 9.95c1.27 2.493 1.88 5.327 2.181 9.019.3 3.67.3 8.276.3 14.332v9.434c0 6.056 0 10.662-.3 14.332-.302 3.692-.912 6.526-2.182 9.02a22.77 22.77 0 0 1-9.95 9.95c-2.493 1.27-5.327 1.88-9.019 2.181-3.67.3-8.276.3-14.332.3h-9.434c-6.056 0-10.662 0-14.332-.3-3.692-.302-6.526-.912-9.02-2.182a22.77 22.77 0 0 1-9.95-9.95C1.212 66.075.602 63.241.3 59.55 0 55.88 0 51.273 0 45.217v-9.434c0-6.056 0-10.662.3-14.332.302-3.692.912-6.526 2.182-9.02a22.769 22.769 0 0 1 9.95-9.95C14.925 1.212 17.759.602 21.45.3 25.12 0 29.727 0 35.783 0h9.434ZM3.373 12.886C1 17.543 1 23.638 1 35.83v9.34c0 12.192 0 18.288 2.373 22.944a21.769 21.769 0 0 0 9.513 9.513C17.543 80 23.638 80 35.83 80h9.34c12.192 0 18.288 0 22.944-2.373a21.768 21.768 0 0 0 9.513-9.513C80 63.457 80 57.362 80 45.17v-9.34c0-12.192 0-18.287-2.373-22.944a21.769 21.769 0 0 0-9.513-9.513C63.457 1 57.362 1 45.17 1h-9.34C23.638 1 17.543 1 12.886 3.373a21.769 21.769 0 0 0-9.513 9.513Z" clip-rule="evenodd"/><mask id="a" width="57" height="38" x="11" y="21" maskUnits="userSpaceOnUse" style="mask-type:luminance"><path d="M62.027 21.918c-.161.354-.353.72-.557 1.117-1.423 2.7-3.947 6.824-7.94 11.078-6.983 7.458-19.87 16.7-41.645 18.578v5.461c23.773-1.924 37.934-12.11 45.622-20.31 4.404-4.697 7.206-9.275 8.79-12.282A43.156 43.156 0 0 0 68 21.919h-5.973Z"/></mask><g mask="url(#a)"><path d="M68 21.918H11.886v36.234H68V21.918Z"/></g></svg>