<svg viewBox="0 0 24 24" xmlns="http://www.w3.org/2000/svg"><path fill-rule="evenodd" d="M22.64 1.232a1 1 0 0 1 .128 1.408l-4.373 5.248-.017.02c-.092.11-.198.238-.3.34a1.517 1.517 0 0 1-.564.373 1.5 1.5 0 0 1-1.04-.01 1.517 1.517 0 0 1-.558-.385c-.1-.104-.202-.233-.292-.345l-.017-.021-1.388-1.735a1 1 0 1 1 1.562-1.25l1.235 1.544 4.216-5.06a1 1 0 0 1 1.408-.127ZM20 10.8c0 .577 0 .949-.024 1.232-.022.272-.06.373-.085.422a1 1 0 0 1-.437.437c-.05.025-.15.063-.422.085C18.75 13 18.377 13 17.8 13H6.2c-.577 0-.949 0-1.232-.024-.272-.022-.373-.06-.422-.085a1 1 0 0 1-.437-.437c-.025-.05-.063-.15-.085-.422C4 11.75 4 11.377 4 10.8V8.2c0-.577 0-.949.024-1.232.022-.272.06-.373.085-.422a1 1 0 0 1 .437-.437c.05-.025.15-.063.422-.085C5.25 6.001 5.623 6 6.2 6H11a1 1 0 1 0 0-2H6.161c-.527 0-.981 0-1.356.03-.395.033-.789.104-1.167.297a3 3 0 0 0-1.311 1.311c-.193.378-.264.772-.296 1.167C2 7.18 2 7.635 2 8.161v2.679c0 .527 0 .981.03 1.356.033.395.104.789.297 1.167a3 3 0 0 0 1.311 1.311c.378.193.772.264 1.167.296.375.031.83.031 1.356.031H11v1.008a3.993 3.993 0 0 0-.138.009 2.02 2.02 0 0 0-.77.201 2 2 0 0 0-.874.874 2.022 2.022 0 0 0-.201.77c-.004.044-.007.09-.009.138H3a1 1 0 1 0 0 2h6.008c.002.048.005.094.009.138.019.229.063.499.201.77a2 2 0 0 0 .874.874c.271.138.541.182.77.201.208.017.454.017.706.017h.864c.252 0 .498 0 .706-.017a2.03 2.03 0 0 0 .77-.201 2 2 0 0 0 .874-.874 2.03 2.03 0 0 0 .201-.77 4.29 4.29 0 0 0 .009-.138H21a1 1 0 1 0 0-2h-6.008a4.283 4.283 0 0 0-.009-.138 2.023 2.023 0 0 0-.201-.77 2 2 0 0 0-.874-.874 2.02 2.02 0 0 0-.77-.201 3.993 3.993 0 0 0-.138-.009V15h4.838c.528 0 .982 0 1.357-.03.395-.033.789-.104 1.167-.297a3 3 0 0 0 1.311-1.311c.193-.378.264-.772.296-1.167.031-.375.031-.83.031-1.356V9.5a1 1 0 1 0-2 0v1.3Zm-8.99 7.225.002-.013.013-.002c.116-.01.278-.01.575-.01h.8c.296 0 .459 0 .575.01l.014.002v.013c.01.116.011.279.011.575v.8c0 .297 0 .459-.01.575l-.001.014h-.014c-.116.01-.278.011-.575.011h-.8c-.296 0-.459 0-.575-.01l-.014-.001v-.014A8.205 8.205 0 0 1 11 19.4v-.8c0-.297 0-.459.01-.575ZM6 9a1 1 0 0 1 1-1h1a1 1 0 0 1 1 1v1a1 1 0 0 1-1 1H7a1 1 0 0 1-1-1V9Z" clip-rule="evenodd"/></svg>