<svg viewBox="0 0 24 24" xmlns="http://www.w3.org/2000/svg"><path fill-rule="evenodd" d="M17.354 3.285a2.616 2.616 0 0 1 3.037 4.177 2.614 2.614 0 0 1-3.696 0l-.28-.28h.797a1 1 0 0 0 0-2H14a1 1 0 0 0-1 1v3.212a1 1 0 1 0 2 0v-.798l.28.28a4.614 4.614 0 1 0 1.165-7.372 1 1 0 1 0 .91 1.78ZM6.2 4h-.039c-.527 0-.981 0-1.356.03-.395.033-.789.104-1.167.297a3 3 0 0 0-1.311 1.311c-.193.378-.264.772-.296 1.167C2 7.18 2 7.635 2 8.16v2.677c0 .528 0 .982.03 1.357.033.395.104.789.297 1.167a3 3 0 0 0 1.311 1.311c.378.193.772.264 1.167.296.375.031.83.031 1.356.031H11v1.008a3.998 3.998 0 0 0-.138.009 2.022 2.022 0 0 0-.77.201 2 2 0 0 0-.874.874 2.021 2.021 0 0 0-.201.77c-.004.044-.007.09-.009.138H3a1 1 0 1 0 0 2h6.008c.002.048.005.094.009.138.019.229.063.498.201.77a2 2 0 0 0 .874.874c.271.138.541.182.77.201.208.017.454.017.706.017h.864c.252 0 .498 0 .706-.017a2.03 2.03 0 0 0 .77-.201 2 2 0 0 0 .874-.874 2.03 2.03 0 0 0 .201-.77c.004-.044.006-.09.009-.138H21a1 1 0 1 0 0-2h-6.008a4.29 4.29 0 0 0-.009-.138 2.022 2.022 0 0 0-.201-.77 2 2 0 0 0-.874-.874 2.022 2.022 0 0 0-.77-.201 3.998 3.998 0 0 0-.138-.009V15h4.839c.527 0 .982 0 1.356-.03.395-.033.789-.104 1.167-.297a3 3 0 0 0 1.311-1.311 1 1 0 1 0-1.782-.908 1 1 0 0 1-.437.437c-.05.025-.15.063-.422.085-.283.023-.655.024-1.232.024H6.2c-.577 0-.949 0-1.232-.024-.272-.022-.373-.06-.422-.085a1 1 0 0 1-.437-.437l-.83.423.83-.423c-.025-.05-.063-.15-.085-.422C4 11.75 4 11.377 4 10.8V8.2c0-.577 0-.949.024-1.232.022-.272.06-.373.085-.422a1 1 0 0 1 .437-.437c.05-.025.15-.063.422-.085C5.25 6 5.623 6 6.2 6h4.3a1 1 0 1 0 0-2H6.2Zm4.81 14.025.002-.014h.013c.116-.01.278-.011.575-.011h.8c.296 0 .459 0 .575.01l.014.001v.014c.01.116.011.278.011.575v.8c0 .297 0 .459-.01.575l-.001.013-.014.002c-.116.01-.278.01-.575.01h-.8c-.296 0-.459 0-.575-.01l-.014-.002v-.013A8.202 8.202 0 0 1 11 19.4v-.8c0-.297 0-.459.01-.575ZM6.293 8.293A1 1 0 0 0 6 9v1a1 1 0 0 0 1 1h1a1 1 0 0 0 1-1V9a1 1 0 0 0-1-1H7a1 1 0 0 0-.707.293Z" clip-rule="evenodd"/></svg>