<svg viewBox="0 0 24 24" xmlns="http://www.w3.org/2000/svg"><path fill-rule="evenodd" d="M22.707 2.707a1 1 0 0 0-1.414-1.414L19.5 3.086l-1.793-1.793a1 1 0 1 0-1.414 1.414L18.086 4.5l-1.793 1.793a1 1 0 0 0 1.414 1.414L19.5 5.914l1.793 1.793a1 1 0 1 0 1.414-1.414L20.914 4.5l1.793-1.793Zm-2.724 9.32C20 11.788 20 11.48 20 11a1 1 0 1 1 2 0v.032c0 .439 0 .817-.021 1.13-.023.33-.072.66-.207.986a3 3 0 0 1-1.624 1.624 3.073 3.073 0 0 1-.986.207c-.313.021-.691.021-1.13.021H13v1.008c.048.003.094.005.138.009.229.019.499.063.77.201a2 2 0 0 1 .874.874c.138.271.182.541.201.77.004.044.006.09.009.138H21a1 1 0 1 1 0 2h-6.008a4.264 4.264 0 0 1-.009.138 2.022 2.022 0 0 1-.201.77 2 2 0 0 1-.874.874 2.022 2.022 0 0 1-.77.201c-.208.017-.454.017-.706.017h-.864c-.252 0-.498 0-.706-.017a2.022 2.022 0 0 1-.77-.201 2 2 0 0 1-.874-.874 2.022 2.022 0 0 1-.201-.77A4.047 4.047 0 0 1 9.008 20H3a1 1 0 1 1 0-2h6.008c.002-.048.005-.094.009-.138a2.03 2.03 0 0 1 .201-.77 2 2 0 0 1 .874-.874 2.03 2.03 0 0 1 .77-.201c.044-.004.09-.006.138-.009V15H6.161c-.527 0-.981 0-1.356-.03-.395-.033-.789-.104-1.167-.297a3 3 0 0 1-1.311-1.311c-.193-.378-.264-.772-.296-1.167A17.9 17.9 0 0 1 2 10.839V8.16c0-.527 0-.981.03-1.356.033-.395.104-.789.297-1.167a3 3 0 0 1 1.311-1.311c.378-.193.772-.264 1.167-.296C5.18 4 5.635 4 6.161 4H13.5a1 1 0 1 1 0 2H6.2c-.577 0-.949 0-1.232.024-.272.022-.373.06-.422.085a1 1 0 0 0-.437.437c-.025.05-.063.15-.085.422C4 7.25 4 7.623 4 8.2v2.6c0 .577 0 .949.024 1.232.022.272.06.373.085.422a1 1 0 0 0 .437.437c.05.025.15.063.422.085C5.25 13 5.623 13 6.2 13H18c.48 0 .79 0 1.026-.017.228-.015.315-.042.357-.06a1 1 0 0 0 .54-.54c.018-.042.045-.129.06-.357Zm-8.972 5.984v.014c-.01.116-.011.279-.011.575v.8c0 .297 0 .459.01.575l.002.014h.013c.116.01.278.011.575.011h.8c.296 0 .459 0 .575-.01l.014-.001v-.014c.01-.116.011-.279.011-.575v-.8c0-.297 0-.459-.01-.575l-.001-.014h-.014A8.207 8.207 0 0 0 12.4 18h-.8c-.296 0-.459 0-.575.01l-.014.001ZM6 9a1 1 0 0 1 1-1h1a1 1 0 0 1 1 1v1a1 1 0 0 1-1 1H7a1 1 0 0 1-1-1V9Z" clip-rule="evenodd"/></svg>