<svg viewBox="0 0 24 24" xmlns="http://www.w3.org/2000/svg"><path fill-rule="evenodd" d="M11 1a1 1 0 0 0-.647 1.762l.975.828-2.37 2.586-2.832-1.994a1 1 0 0 0-1.278.106l-3.55 3.5a1 1 0 0 0 1.404 1.424L5.657 6.3l2.867 2.019a1 1 0 0 0 1.313-.142l3.667-4 .01-.012 1.334-1.5A1 1 0 0 0 14.1 1H11Zm8.4 3h.032c.252 0 .498 0 .706.017.229.019.499.063.77.201a2 2 0 0 1 .874.874c.138.271.182.541.201.77.017.208.017.454.017.706v12.864c0 .252 0 .498-.017.706a2.022 2.022 0 0 1-.201.77 2 2 0 0 1-.874.874 2.022 2.022 0 0 1-.77.201c-.208.017-.454.017-.706.017H17a1 1 0 0 1-1-1V6.568c0-.252 0-.498.017-.706a2.02 2.02 0 0 1 .201-.77 2 2 0 0 1 .874-.874 2.03 2.03 0 0 1 .77-.201C18.07 4 18.316 4 18.568 4h.832Zm-6.968 6h-.864c-.252 0-.498 0-.706.017a2.02 2.02 0 0 0-.77.201 2 2 0 0 0-.874.874 2.022 2.022 0 0 0-.201.77C9 12.07 9 12.316 9 12.568V21a1 1 0 0 0 1 1h4a1 1 0 0 0 1-1v-8.432c0-.252 0-.498-.017-.706a2.022 2.022 0 0 0-.201-.77 2 2 0 0 0-.874-.874 2.02 2.02 0 0 0-.77-.201C12.93 10 12.684 10 12.432 10Zm-7 3h-.864c-.252 0-.498 0-.706.017a2.02 2.02 0 0 0-.77.201 2 2 0 0 0-.874.874 2.022 2.022 0 0 0-.201.77C2 15.07 2 15.316 2 15.568v3.864c0 .252 0 .498.017.706.019.229.063.499.201.77a2 2 0 0 0 .874.874c.271.138.541.182.77.201.208.017.454.017.706.017H7a1 1 0 0 0 1-1v-5.432c0-.252 0-.498-.017-.706a2.022 2.022 0 0 0-.201-.77 2 2 0 0 0-.874-.874 2.02 2.02 0 0 0-.77-.201C5.93 13 5.684 13 5.432 13Z" clip-rule="evenodd"/></svg>