<svg viewBox="0 0 24 24" xmlns="http://www.w3.org/2000/svg"><path fill-rule="evenodd" d="M12 1a1 1 0 0 1 1 1v20a1 1 0 1 1-2 0v-1H6.364c-.39 0-.74 0-1.03-.024a2.535 2.535 0 0 1-.969-.248 2.5 2.5 0 0 1-1.093-1.093 2.538 2.538 0 0 1-.248-.968C3 18.375 3 18.025 3 17.637v-.273c0-.39 0-.74.024-1.03.01-.127.026-.256.052-.387a2.303 2.303 0 0 1-.711-.22 2.5 2.5 0 0 1-1.093-1.092 2.538 2.538 0 0 1-.248-.968A13.523 13.523 0 0 1 1 12.637v-1.273c0-.39 0-.74.024-1.03.025-.313.083-.644.248-.969a2.5 2.5 0 0 1 1.093-1.093c.325-.165.656-.223.968-.248C3.625 8 3.975 8 4.363 8h1.704a3.562 3.562 0 0 1-.042-.333C6 7.375 6 7.025 6 6.637v-.273c0-.39 0-.74.024-1.03.025-.313.083-.644.248-.969a2.5 2.5 0 0 1 1.093-1.093c.325-.165.656-.223.968-.248C8.625 3 8.975 3 9.363 3H11V2a1 1 0 0 1 1-1Zm3 20h4.636c.39 0 .74 0 1.03-.024.313-.025.644-.083.969-.248a2.5 2.5 0 0 0 1.092-1.093 2.54 2.54 0 0 0 .25-.968c.023-.292.023-.642.023-1.03v-.273c0-.39 0-.74-.024-1.03a2.535 2.535 0 0 0-.248-.969 2.5 2.5 0 0 0-1.093-1.092 2.535 2.535 0 0 0-.968-.25C20.375 14 20.025 14 19.637 14h-.704c.02-.113.033-.224.042-.333.024-.292.024-.642.024-1.03v-1.273c0-.39 0-.74-.024-1.03a3.437 3.437 0 0 0-.052-.387c.234-.036.474-.099.711-.22a2.5 2.5 0 0 0 1.092-1.092 2.54 2.54 0 0 0 .25-.968c.023-.292.023-.642.023-1.03v-.273c0-.39 0-.74-.024-1.03a2.535 2.535 0 0 0-.248-.969 2.5 2.5 0 0 0-1.093-1.093 2.538 2.538 0 0 0-.968-.248C18.375 3 18.025 3 17.637 3H15v2h2.6c.436 0 .704 0 .904.017a1.281 1.281 0 0 1 .215.034l.006.003h.002a.5.5 0 0 1 .218.219l.004.008a1.29 1.29 0 0 1 .034.215c.016.2.017.467.017.904v.2c0 .437 0 .704-.017.904a1.29 1.29 0 0 1-.034.215l-.004.008a.5.5 0 0 1-.218.218l-.002.002-.006.002a1.281 1.281 0 0 1-.215.034c-.2.016-.468.017-.904.017H15v2h.6c.437 0 .704 0 .904.017a1.29 1.29 0 0 1 .215.034l.006.003h.002a.5.5 0 0 1 .218.219l.002.002.002.006a1.29 1.29 0 0 1 .034.215c.016.2.017.468.017.904v1.2c0 .437 0 .704-.017.904a1.29 1.29 0 0 1-.034.215l-.004.008a.5.5 0 0 1-.218.218l-.002.002A12.614 12.614 0 0 1 15.6 14H15v2h4.6c.436 0 .704 0 .904.017a1.29 1.29 0 0 1 .215.034.5.5 0 0 1 .226.222l.004.008a1.29 1.29 0 0 1 .034.215c.016.2.017.468.017.904v.2c0 .436 0 .704-.017.904a1.29 1.29 0 0 1-.03.204l-.004.011a.5.5 0 0 1-.222.226l-.002.001-.006.003a1.29 1.29 0 0 1-.215.034c-.2.016-.468.017-.904.017H15v2ZM9.4 5H11v3H9.4c-.437 0-.704 0-.904-.017a1.282 1.282 0 0 1-.215-.034.5.5 0 0 1-.226-.222l-.004-.008a1.281 1.281 0 0 1-.034-.215C8.001 7.304 8 7.037 8 6.6v-.2c0-.437 0-.704.017-.904a1.281 1.281 0 0 1 .034-.215l.004-.008a.5.5 0 0 1 .226-.222 1.282 1.282 0 0 1 .215-.034c.2-.016.467-.017.904-.017Zm0 5H11v4H4.4c-.437 0-.704 0-.904-.017a1.29 1.29 0 0 1-.215-.034l-.008-.004a.5.5 0 0 1-.219-.218v-.002l-.003-.006a1.281 1.281 0 0 1-.034-.215A12.83 12.83 0 0 1 3 12.6v-1.2c0-.437 0-.704.017-.904a1.281 1.281 0 0 1 .034-.215l.003-.006v-.002a.5.5 0 0 1 .219-.218l.008-.004a1.29 1.29 0 0 1 .215-.034c.2-.016.467-.017.904-.017h5Zm-3 6H11v3H6.4c-.437 0-.704 0-.904-.017a1.29 1.29 0 0 1-.215-.034l-.008-.004a.5.5 0 0 1-.218-.218l-.004-.008a1.281 1.281 0 0 1-.034-.215A12.83 12.83 0 0 1 5 17.6v-.2c0-.436 0-.704.017-.904a1.281 1.281 0 0 1 .034-.215l.003-.008a.5.5 0 0 1 .219-.218l.008-.004a1.29 1.29 0 0 1 .215-.034c.2-.016.467-.017.904-.017Z" clip-rule="evenodd"/></svg>