<svg viewBox="0 0 24 24" xmlns="http://www.w3.org/2000/svg"><path fill-rule="evenodd" d="M13 9.8v.039c0 .527 0 .981-.03 1.356-.033.395-.104.789-.297 1.167a3 3 0 0 1-1.31 1.311c-.38.193-.772.264-1.168.296C9.821 14 9.365 14 8.84 14H6.162c-.528 0-.982 0-1.357-.03-.395-.033-.788-.104-1.167-.297a3 3 0 0 1-1.31-1.311c-.194-.378-.265-.772-.297-1.167A17.9 17.9 0 0 1 2 9.839V6.16c0-.527 0-.981.03-1.356.032-.395.103-.789.296-1.167a3 3 0 0 1 1.311-1.311c.378-.193.772-.264 1.167-.296C5.18 2 5.635 2 6.162 2h2.677c.527 0 .982 0 1.356.03.396.033.789.104 1.167.297a3 3 0 0 1 1.311 1.311c.193.378.264.772.296 1.167.031.375.031.83.031 1.356V9.8Zm8.942 7.615c.059.293.058.62.058 1.001v.168c0 .38 0 .708-.058 1.001a3 3 0 0 1-2.357 2.357c-.293.059-.62.058-1.001.058h-5.168c-.38 0-.708 0-1.001-.058a3 3 0 0 1-2.357-2.357c-.059-.293-.058-.62-.058-1.001v-.168c0-.38 0-.708.058-1.001a3 3 0 0 1 2.357-2.357c.293-.059.62-.058 1.001-.058h5.168c.38 0 .709 0 1.001.058a3 3 0 0 1 2.357 2.357ZM22 10.032V5.968c0-.439 0-.817-.021-1.13a3.07 3.07 0 0 0-.207-.986 3 3 0 0 0-1.624-1.624 3.069 3.069 0 0 0-.985-.207C18.849 2 18.47 2 18.033 2h-.065c-.439 0-.817 0-1.13.021a3.07 3.07 0 0 0-.986.207 3 3 0 0 0-1.624 1.624 3.07 3.07 0 0 0-.207.986c-.02.313-.02.691-.02 1.13v4.064c0 .439 0 .817.02 1.13.023.33.072.66.207.986a3 3 0 0 0 1.624 1.624c.326.135.656.184.986.207.313.021.691.021 1.13.021h.064c.439 0 .817 0 1.13-.021.33-.023.66-.072.986-.207a3 3 0 0 0 1.624-1.624 3.07 3.07 0 0 0 .207-.986c.021-.313.021-.691.021-1.13ZM9 18.5v.084c0 .38 0 .708-.058 1.001a3 3 0 0 1-2.357 2.357c-.292.059-.62.058-1.001.058h-.168c-.38 0-.708 0-1.001-.058a3 3 0 0 1-2.357-2.357c-.059-.293-.058-.62-.058-1.001v-.168c0-.38 0-.708.058-1.001a3 3 0 0 1 2.357-2.357c.293-.059.62-.058 1.001-.058h.168c.38 0 .709 0 1.001.058a3 3 0 0 1 2.357 2.357c.059.293.058.62.058 1.001v.084Z" clip-rule="evenodd"/></svg>