<svg viewBox="0 0 24 24" xmlns="http://www.w3.org/2000/svg"><path fill-rule="evenodd" d="M13 9.8v.039c0 .527 0 .981-.03 1.356-.033.395-.104.789-.297 1.167a3 3 0 0 1-1.31 1.311c-.38.193-.772.264-1.168.296C9.821 14 9.365 14 8.84 14H6.162c-.528 0-.982 0-1.357-.03-.395-.033-.788-.104-1.167-.297a3 3 0 0 1-1.31-1.311c-.194-.378-.265-.772-.297-1.167A17.9 17.9 0 0 1 2 9.839V6.16c0-.527 0-.981.03-1.356.032-.395.103-.789.296-1.167a3 3 0 0 1 1.311-1.311c.378-.193.772-.264 1.167-.296C5.18 2 5.635 2 6.162 2h2.677c.527 0 .982 0 1.356.03.396.033.789.104 1.167.297a3 3 0 0 1 1.311 1.311c.193.378.264.772.296 1.167.031.375.031.83.031 1.356V9.8Zm-2.109 1.654c.025-.05.063-.15.085-.422C11 10.75 11 10.377 11 9.8V6.2c0-.577 0-.949-.024-1.232-.022-.272-.06-.373-.085-.422a1 1 0 0 0-.437-.437c-.05-.025-.15-.063-.422-.085C9.75 4 9.377 4 8.8 4H6.2c-.576 0-.949 0-1.232.024-.272.022-.372.06-.422.085a1 1 0 0 0-.437.437c-.025.05-.063.15-.085.422C4.001 5.25 4 5.623 4 6.2v3.6c0 .577 0 .949.024 1.232.022.272.06.373.085.422a1 1 0 0 0 .437.437c.05.025.15.063.422.085C5.25 12 5.624 12 6.2 12h2.6c.577 0 .949 0 1.232-.024.272-.022.373-.06.422-.085a1 1 0 0 0 .437-.437Zm9.11 7.046c0-.513-.006-.623-.02-.695a1 1 0 0 0-.786-.786c-.072-.014-.182-.019-.695-.019h-5c-.512 0-.623.005-.695.02a1 1 0 0 0-.786.785c-.014.072-.019.182-.019.695 0 .513.005.623.02.695a1 1 0 0 0 .785.786c.072.014.183.019.695.019h5c.513 0 .623-.005.695-.02a1 1 0 0 0 .786-.785c.014-.072.02-.182.02-.695Zm1.941-1.085c.059.293.058.62.058 1.001v.168c0 .38 0 .708-.058 1.001a3 3 0 0 1-2.357 2.357c-.293.059-.62.058-1.001.058h-5.168c-.38 0-.708 0-1.001-.058a3 3 0 0 1-2.357-2.357c-.059-.293-.058-.62-.058-1.001v-.168c0-.38 0-.708.058-1.001a3 3 0 0 1 2.357-2.357c.293-.059.62-.058 1.001-.058h5.168c.38 0 .709 0 1.001.058a3 3 0 0 1 2.357 2.357ZM22 10.032V5.968c0-.439 0-.817-.021-1.13a3.07 3.07 0 0 0-.207-.986 3 3 0 0 0-1.624-1.624 3.069 3.069 0 0 0-.985-.207C18.849 2 18.47 2 18.033 2h-.065c-.439 0-.817 0-1.13.021a3.07 3.07 0 0 0-.986.207 3 3 0 0 0-1.624 1.624 3.07 3.07 0 0 0-.207.986c-.02.313-.02.691-.02 1.13v4.064c0 .439 0 .817.02 1.13.023.33.072.66.207.986a3 3 0 0 0 1.624 1.624c.326.135.656.184.986.207.313.021.691.021 1.13.021h.064c.439 0 .817 0 1.13-.021.33-.023.66-.072.986-.207a3 3 0 0 0 1.624-1.624 3.07 3.07 0 0 0 .207-.986c.021-.313.021-.691.021-1.13Zm-2.017.994c-.015.228-.042.315-.059.357a1 1 0 0 1-.541.54c-.042.018-.129.045-.357.06C18.79 12 18.48 12 18 12s-.79 0-1.026-.017c-.228-.015-.315-.042-.357-.06a1 1 0 0 1-.54-.54c-.018-.042-.045-.129-.06-.357A16.885 16.885 0 0 1 16 10V6c0-.48 0-.79.017-1.026.015-.228.042-.315.06-.357a1 1 0 0 1 .54-.54c.042-.018.129-.045.357-.06C17.21 4 17.52 4 18 4s.79 0 1.026.017c.228.015.315.042.357.06a1 1 0 0 1 .541.54c.017.042.044.129.06.357C19.998 5.21 20 5.52 20 6v4c0 .48 0 .79-.017 1.026ZM9 18.5v.084c0 .38 0 .708-.058 1.001a3 3 0 0 1-2.357 2.357c-.292.059-.62.058-1.001.058h-.168c-.38 0-.708 0-1.001-.058a3 3 0 0 1-2.357-2.357c-.059-.293-.058-.62-.058-1.001v-.168c0-.38 0-.708.058-1.001a3 3 0 0 1 2.357-2.357c.293-.059.62-.058 1.001-.058h.168c.38 0 .709 0 1.001.058a3 3 0 0 1 2.357 2.357c.059.293.058.62.058 1.001v.084Zm-2.02.695c.015-.072.02-.182.02-.695 0-.513-.005-.623-.02-.695a1 1 0 0 0-.785-.786C6.123 17.005 6.013 17 5.5 17c-.513 0-.623.005-.695.02a1 1 0 0 0-.786.785c-.014.072-.019.182-.019.695 0 .513.005.623.02.695a1 1 0 0 0 .785.786c.072.014.183.019.695.019.513 0 .623-.005.695-.02a1 1 0 0 0 .786-.785Z" clip-rule="evenodd"/></svg>