<svg viewBox="0 0 24 24" xmlns="http://www.w3.org/2000/svg"><path fill-rule="evenodd" d="M4.316 1.051a1 1 0 0 0-.632 1.898L11 5.387v14.246l-2.641.377a1 1 0 1 0 .283 1.98L12 21.51l3.359.48a1 1 0 0 0 .283-1.98L13 19.633V6.054l7.184 2.395a1 1 0 0 0 .632-1.898L13 3.946V3a1 1 0 1 0-2 0v.28L4.316 1.05Zm-1.318 9.687L5 6.736l1.998 3.998v.115c-.004.908-.353 1.388-.72 1.502-.389.12-.83.184-1.28.184a4.4 4.4 0 0 1-1.28-.18c-.371-.113-.724-.599-.72-1.518v-.099ZM6.61 5.484c-.663-1.327-2.556-1.327-3.22 0l-2.284 4.569a1 1 0 0 0-.105.442l-.002.332c-.006 1.216.469 2.934 2.14 3.442A6.425 6.425 0 0 0 5 14.536a6.409 6.409 0 0 0 1.867-.275c1.649-.509 2.125-2.201 2.13-3.403L9 10.504a1 1 0 0 0-.106-.451l-2.285-4.57ZM17 15.2l2-4 2 4v.107c0 .913-.35 1.396-.72 1.51-.39.119-.83.182-1.28.182a4.4 4.4 0 0 1-1.28-.183c-.369-.113-.72-.596-.72-1.51V15.2Zm3.52-5.432c-.626-1.253-2.414-1.252-3.04 0l-2.374 4.748a1 1 0 0 0-.106.447v.344c0 1.208.475 2.913 2.134 3.422a6.44 6.44 0 0 0 1.866.27c.63 0 1.27-.088 1.866-.27C22.525 18.22 23 16.516 23 15.308v-.344a1 1 0 0 0-.105-.447L20.52 9.77Z" clip-rule="evenodd"/></svg>