<svg viewBox="0 0 24 24" xmlns="http://www.w3.org/2000/svg"><path fill-rule="evenodd" d="M11 1a1 1 0 0 0-.647 1.762l.975.828-2.37 2.586-2.832-1.994a1 1 0 0 0-1.278.106l-3.55 3.5a1 1 0 0 0 1.404 1.424L5.657 6.3l2.867 2.019a1 1 0 0 0 1.313-.142l3.667-4 .01-.012 1.334-1.5A1 1 0 0 0 14.1 1H11Zm7 4h.032c.439 0 .817 0 1.13.021.33.023.66.072.986.207a3 3 0 0 1 1.624 1.624c.135.326.184.656.207.986.021.313.021.691.021 1.13v8.87c0 .528 0 .982-.03 1.357-.033.395-.104.789-.297 1.167a3 3 0 0 1-1.311 1.311c-.378.193-.772.264-1.167.296-.375.031-.83.031-1.356.031H6.16c-.527 0-.981 0-1.356-.03-.395-.033-.789-.104-1.167-.297a3 3 0 0 1-1.311-1.311c-.193-.378-.264-.772-.296-1.167A17.9 17.9 0 0 1 2 17.839v-.678c0-.527 0-.982.03-1.356.033-.395.104-.789.297-1.167a3 3 0 0 1 1.311-1.311c.378-.193.772-.264 1.167-.296C5.18 13 5.635 13 6.161 13h1.851l.01-.162c.022-.33.071-.66.206-.986a3 3 0 0 1 1.624-1.624c.326-.135.656-.184.986-.207.313-.021.691-.021 1.13-.021h.064c.439 0 .817 0 1.13.021.28.02.56.058.838.152V8.968c0-.439 0-.817.021-1.13.023-.33.072-.66.207-.986a3 3 0 0 1 1.624-1.624 3.07 3.07 0 0 1 .986-.207C17.15 5 17.529 5 17.968 5H18ZM6.2 15H8v5H6.2c-.577 0-.949 0-1.232-.024-.272-.022-.373-.06-.422-.085a1 1 0 0 1-.437-.437c-.025-.05-.063-.15-.085-.422C4 18.75 4 18.377 4 17.8v-.6c0-.577 0-.949.024-1.232.022-.272.06-.373.085-.422a1 1 0 0 1 .437-.437c.05-.025.15-.063.422-.085C5.25 15 5.623 15 6.2 15Zm3.8-1v6h4v-6c0-.48 0-.79-.017-1.026-.015-.228-.042-.315-.06-.357a1 1 0 0 0-.54-.54c-.042-.018-.129-.045-.357-.06A16.885 16.885 0 0 0 12 12c-.48 0-.79 0-1.026.017-.228.015-.315.042-.357.06a1 1 0 0 0-.54.54c-.018.042-.045.129-.06.357C10 13.21 10 13.52 10 14Zm6 1.5V20h1.8c.577 0 .949 0 1.232-.024.272-.022.372-.06.422-.085a1 1 0 0 0 .437-.437c.025-.05.063-.15.085-.422C20 18.75 20 18.377 20 17.8V9c0-.48 0-.79-.017-1.026-.015-.228-.042-.315-.06-.357a1 1 0 0 0-.54-.54c-.042-.018-.129-.045-.357-.06A16.908 16.908 0 0 0 18 7c-.48 0-.79 0-1.026.017-.228.015-.315.042-.357.06a1 1 0 0 0-.54.54c-.018.042-.045.129-.06.357C16 8.21 16 8.52 16 9v6.5Z" clip-rule="evenodd"/></svg>