<svg viewBox="0 0 24 24" xmlns="http://www.w3.org/2000/svg"><path fill-rule="evenodd" d="M12.9 2h.032c.252 0 .498 0 .706.017.229.019.498.063.77.201a2 2 0 0 1 .874.874c.138.271.182.541.201.77.017.208.017.454.017.706V5c.507.001.942.006 1.312.034.477.035.916.11 1.345.296a4 4 0 0 1 1.672 1.357c.27.381.435.796.567 1.255.127.438.24.978.377 1.628l.008.035.889 4.222.007.034c.109.517.173.82.218 1.129.04.274.068.549.086.825.019.311.019.62.019 1.15v.075c0 .666 0 1.225-.037 1.683-.04.48-.124.934-.345 1.366a3.5 3.5 0 0 1-1.529 1.53c-.432.22-.887.305-1.366.344-.457.037-1.017.037-1.683.037H6.96c-.666 0-1.226 0-1.683-.037-.48-.04-.934-.124-1.366-.345a3.5 3.5 0 0 1-1.53-1.529c-.22-.432-.305-.887-.344-1.366C2 18.265 2 17.706 2 17.04v-.076c0-.528 0-.838.02-1.149.017-.276.045-.551.085-.825.045-.309.11-.612.218-1.129l.007-.034.89-4.222.007-.035c.136-.65.25-1.19.377-1.628.132-.46.297-.874.567-1.255A4 4 0 0 1 5.843 5.33c.429-.186.868-.261 1.345-.296A18.1 18.1 0 0 1 8.5 5v-.432c0-.252 0-.498.017-.706a2.03 2.03 0 0 1 .201-.77 2 2 0 0 1 .874-.874 2.03 2.03 0 0 1 .77-.201C10.57 2 10.816 2 11.068 2H12.9Zm2.205 5h-6.21c-.71 0-1.187 0-1.56.028-.36.027-.553.075-.696.137a2 2 0 0 0-.837.679c-.09.127-.177.305-.277.653-.104.36-.203.826-.349 1.52l-.889 4.222c-.118.56-.168.8-.203 1.04-.032.22-.055.44-.068.66C4 16.181 4 16.426 4 17c0 .717 0 1.195.03 1.562.03.355.081.517.133.62a1.5 1.5 0 0 0 .656.655c.103.053.265.104.62.133.367.03.844.03 1.561.03h10c.717 0 1.194 0 1.56-.03.356-.03.518-.081.621-.133a1.5 1.5 0 0 0 .655-.656c.053-.103.104-.265.133-.62C20 18.194 20 17.716 20 17c0-.574 0-.819-.015-1.06a8.03 8.03 0 0 0-.07-.66c-.034-.24-.084-.48-.202-1.041l-.89-4.222c-.145-.694-.244-1.16-.348-1.52-.1-.348-.187-.526-.277-.653a2 2 0 0 0-.837-.679c-.143-.062-.335-.11-.696-.137-.373-.027-.85-.028-1.56-.028ZM13.5 5h-3v-.4c0-.297 0-.459.01-.575l.001-.014h.014C10.64 4 10.803 4 11.1 4h1.8c.296 0 .459 0 .575.01l.014.001v.014c.01.116.011.278.011.575V5ZM11 11a1 1 0 1 1 2 0v2h2a1 1 0 1 1 0 2h-2v2a1 1 0 1 1-2 0v-2H9a1 1 0 1 1 0-2h2v-2Z" clip-rule="evenodd"/></svg>