<svg viewBox="0 0 24 24" xmlns="http://www.w3.org/2000/svg"><path fill-rule="evenodd" d="M11.8 3h-.023c-.12 0-.261 0-.387.01a1.508 1.508 0 0 0-.571.154 1.5 1.5 0 0 0-.655.655 1.51 1.51 0 0 0-.154.571c-.01.126-.01.268-.01.387v.446c0 .12 0 .262.01.387.012.145.043.353.154.571a1.5 1.5 0 0 0 .655.656c.218.11.426.141.571.153.125.01.268.01.387.01h.446c.12 0 .261 0 .387-.01a1.51 1.51 0 0 0 .571-.153 1.5 1.5 0 0 0 .655-.656c.112-.218.142-.426.154-.571.01-.125.01-.268.01-.387v-.446c0-.12 0-.261-.01-.387a1.508 1.508 0 0 0-.154-.571 1.5 1.5 0 0 0-.655-.655 1.507 1.507 0 0 0-.571-.154 4.927 4.927 0 0 0-.387-.01H11.8Zm-.023 7c-.12 0-.261 0-.387.01a1.51 1.51 0 0 0-.571.154 1.5 1.5 0 0 0-.655.655 1.51 1.51 0 0 0-.154.571c-.01.125-.01.268-.01.387v.446c0 .12 0 .261.01.387.012.145.043.353.154.571a1.5 1.5 0 0 0 .655.655c.218.112.426.142.571.154.125.01.268.01.387.01h.446c.12 0 .261 0 .387-.01.145-.012.353-.042.571-.154a1.5 1.5 0 0 0 .655-.655c.112-.218.142-.426.154-.571.01-.125.01-.268.01-.387v-.446c0-.12 0-.261-.01-.387a1.508 1.508 0 0 0-.154-.571 1.5 1.5 0 0 0-.655-.655 1.51 1.51 0 0 0-.571-.154c-.125-.01-.268-.01-.387-.01h-.446Zm0 7c-.12 0-.261 0-.387.01a1.51 1.51 0 0 0-.571.153 1.5 1.5 0 0 0-.655.656 1.51 1.51 0 0 0-.154.571c-.01.125-.01.268-.01.387v.446c0 .12 0 .262.01.387.012.145.043.353.154.571a1.5 1.5 0 0 0 .655.655c.218.112.426.142.571.154.125.01.268.01.387.01h.446c.12 0 .262 0 .387-.01a1.51 1.51 0 0 0 .571-.153 1.5 1.5 0 0 0 .655-.656c.112-.218.142-.426.154-.571.01-.125.01-.268.01-.387v-.446c0-.12 0-.262-.01-.387a1.508 1.508 0 0 0-.154-.571 1.5 1.5 0 0 0-.655-.655 1.51 1.51 0 0 0-.571-.154c-.125-.01-.268-.01-.387-.01h-.446Z" clip-rule="evenodd"/></svg>