<svg viewBox="0 0 24 24" xmlns="http://www.w3.org/2000/svg"><path fill-rule="evenodd" d="M3 12.2v.023c0 .12 0 .261.01.387.012.145.042.353.154.571a1.5 1.5 0 0 0 .655.655c.218.111.426.142.571.154.126.01.268.01.387.01h.446c.12 0 .262 0 .387-.01a1.51 1.51 0 0 0 .571-.154 1.5 1.5 0 0 0 .656-.655 1.53 1.53 0 0 0 .153-.571c.01-.125.01-.268.01-.387v-.446c0-.12 0-.261-.01-.387a1.507 1.507 0 0 0-.153-.571 1.5 1.5 0 0 0-.656-.655 1.508 1.508 0 0 0-.571-.154C5.485 10 5.342 10 5.223 10h-.446c-.12 0-.261 0-.387.01a1.508 1.508 0 0 0-.571.154 1.5 1.5 0 0 0-.655.655 1.507 1.507 0 0 0-.154.571c-.01.125-.01.268-.01.387v.423Zm7 .023c0 .12 0 .261.01.387.012.145.043.353.154.571a1.5 1.5 0 0 0 .655.655c.218.111.426.142.571.154.125.01.268.01.387.01h.446c.12 0 .261 0 .387-.01a1.51 1.51 0 0 0 .571-.154 1.5 1.5 0 0 0 .655-.655c.112-.218.142-.426.154-.571.01-.125.01-.268.01-.387v-.446c0-.12 0-.261-.01-.387a1.507 1.507 0 0 0-.154-.571 1.5 1.5 0 0 0-.655-.655 1.507 1.507 0 0 0-.571-.154 4.935 4.935 0 0 0-.387-.01h-.446c-.12 0-.261 0-.387.01a1.508 1.508 0 0 0-.571.154 1.5 1.5 0 0 0-.655.655 1.51 1.51 0 0 0-.154.571c-.01.125-.01.268-.01.387v.446Zm7 0c0 .12 0 .261.01.387.012.145.042.353.153.571a1.5 1.5 0 0 0 .656.655c.218.111.426.142.571.154.125.01.268.01.387.01h.446c.12 0 .262 0 .387-.01a1.51 1.51 0 0 0 .571-.154 1.5 1.5 0 0 0 .655-.655c.112-.218.142-.426.154-.571.01-.125.01-.268.01-.387v-.446c0-.12 0-.262-.01-.387a1.507 1.507 0 0 0-.153-.571 1.5 1.5 0 0 0-.656-.655 1.507 1.507 0 0 0-.571-.154 4.935 4.935 0 0 0-.387-.01h-.446c-.12 0-.262 0-.387.01a1.508 1.508 0 0 0-.571.154 1.5 1.5 0 0 0-.655.655 1.51 1.51 0 0 0-.154.571c-.01.125-.01.268-.01.387v.446Z" clip-rule="evenodd"/></svg>