<svg viewBox="0 0 24 24" xmlns="http://www.w3.org/2000/svg"><path fill-rule="evenodd" d="M19.4 4c.297 0 .459 0 .575.01l.013.001.002.014c.01.116.01.278.01.575v.193c0 .23 0 .351-.007.439v.008l-.01.003c-.083.03-.201.065-.424.129l-.149.042c-.69.196-1.296.368-1.764.736a3 3 0 0 0-.923 1.224c-.225.551-.224 1.176-.223 1.888v5.476c-.001.712-.002 1.337.223 1.888a3 3 0 0 0 .923 1.224c.468.368 1.073.54 1.764.736l.149.042c.223.064.341.098.425.129l.009.003v.008c.006.088.007.209.007.439v.193c0 .297 0 .459-.01.575l-.002.013-.013.002c-.116.01-.279.01-.575.01h-4.408c.008-.175.008-.37.008-.568v-.317c.002-.33.004-.745-.149-1.117a2 2 0 0 0-.615-.816c-.317-.249-.718-.361-1.038-.451l-.09-.026c-.928-.265-1.11-.336-1.226-.427a1 1 0 0 1-.308-.408c-.056-.138-.074-.329-.074-1.284V9.414c0-.955.018-1.146.074-1.284a1 1 0 0 1 .308-.408c.117-.091.299-.162 1.226-.427l.09-.025c.32-.09.721-.203 1.038-.452a2 2 0 0 0 .615-.816c.153-.372.15-.787.15-1.117L15 4.793v-.225c0-.198 0-.393-.008-.568H19.4Zm-7 0H4.6c-.297 0-.459 0-.575.01l-.014.001v.014C4 4.14 4 4.303 4 4.6v.193c0 .23 0 .351.007.439v.008l.01.003c.083.03.2.065.424.129l.148.042c.692.196 1.297.368 1.765.736a3 3 0 0 1 .923 1.224c.225.551.224 1.176.223 1.888v5.476c.001.712.002 1.337-.223 1.888a3 3 0 0 1-.923 1.224c-.468.368-1.073.54-1.765.736l-.148.042a7.292 7.292 0 0 0-.425.129l-.009.003v.008a7.18 7.18 0 0 0-.007.439v.193c0 .297 0 .459.01.575l.001.013.014.002c.116.01.278.01.575.01h7.8c.296 0 .459 0 .575-.01l.014-.002v-.013c.01-.116.011-.279.011-.575v-.193c0-.23 0-.351-.007-.439v-.008l-.01-.003a7.274 7.274 0 0 0-.424-.129l-.148-.042c-.692-.196-1.297-.368-1.765-.736a3 3 0 0 1-.923-1.224c-.225-.551-.224-1.176-.223-1.888V9.262c-.001-.712-.002-1.337.223-1.888a3 3 0 0 1 .923-1.224c.468-.368 1.073-.54 1.764-.736l.149-.042c.223-.064.341-.098.425-.129l.009-.003v-.008C13 5.144 13 5.023 13 4.793V4.6c0-.297 0-.459-.01-.575l-.002-.014h-.013A8.184 8.184 0 0 0 12.4 4ZM11 22H4.568c-.252 0-.498 0-.706-.017a2.022 2.022 0 0 1-.77-.201 2 2 0 0 1-.874-.874 2.022 2.022 0 0 1-.201-.77C2 19.93 2 19.684 2 19.432v-.317c-.002-.33-.004-.745.148-1.117a2 2 0 0 1 .616-.816c.316-.249.718-.361 1.038-.451l.09-.026c.927-.265 1.11-.336 1.226-.427a1 1 0 0 0 .308-.408c.056-.138.074-.329.074-1.284V9.414c0-.955-.018-1.146-.074-1.284a1 1 0 0 0-.308-.408C5 7.631 4.819 7.56 3.892 7.295l-.09-.025c-.32-.09-.722-.203-1.038-.452a2 2 0 0 1-.616-.816c-.152-.372-.15-.787-.148-1.117v-.317c0-.252 0-.498.017-.706a2.03 2.03 0 0 1 .201-.77 2 2 0 0 1 .874-.874 2.03 2.03 0 0 1 .77-.201C4.07 2 4.316 2 4.568 2h14.864c.252 0 .498 0 .706.017.229.019.498.063.77.201a2 2 0 0 1 .874.874c.138.271.182.541.201.77.017.208.017.454.017.706v.317c.002.33.004.745-.148 1.117a2 2 0 0 1-.616.816c-.317.249-.718.361-1.038.452l-.09.025c-.928.265-1.11.336-1.226.427a1 1 0 0 0-.308.408c-.056.138-.074.329-.074 1.284v5.172c0 .955.018 1.146.074 1.284a1 1 0 0 0 .308.408c.117.091.298.162 1.226.427l.09.026c.32.09.721.202 1.038.45a2 2 0 0 1 .616.817c.152.372.15.787.148 1.117v.317c0 .252 0 .498-.017.706a2.022 2.022 0 0 1-.201.77 2 2 0 0 1-.874.874 2.022 2.022 0 0 1-.77.201c-.208.017-.454.017-.706.017H11Z" clip-rule="evenodd"/></svg>