<svg viewBox="0 0 24 24" xmlns="http://www.w3.org/2000/svg"><path fill-rule="evenodd" d="M11 2h-.044c-1.363 0-2.447 0-3.321.071-.896.074-1.66.227-2.359.583a6 6 0 0 0-2.622 2.622c-.356.7-.51 1.463-.583 2.359C2 8.509 2 9.593 2 10.956v2.088c0 1.363 0 2.447.071 3.322.074.895.227 1.659.583 2.358a6 6 0 0 0 2.622 2.622c.7.356 1.463.51 2.359.583.874.071 1.958.071 3.321.071h2.088c1.363 0 2.447 0 3.321-.071.896-.073 1.66-.227 2.359-.583a6 6 0 0 0 2.622-2.622c.356-.7.51-1.463.583-2.358.071-.875.071-1.959.071-3.322v-2.088c0-1.363 0-2.447-.071-3.321-.074-.896-.227-1.66-.583-2.359a6 6 0 0 0-2.622-2.622c-.7-.356-1.463-.51-2.359-.583C15.491 2 14.407 2 13.044 2H11ZM6.184 4.436c.37-.189.842-.308 1.613-.371C8.581 4 9.583 4 11 4h2c1.417 0 2.419 0 3.203.065.771.063 1.243.182 1.613.371a4 4 0 0 1 1.748 1.748c.189.37.308.842.371 1.613C20 8.581 20 9.583 20 11v2c0 1.417 0 2.42-.065 3.203-.063.772-.182 1.243-.371 1.613a4 4 0 0 1-1.748 1.748c-.37.189-.841.308-1.613.371C15.419 20 14.417 20 13 20h-2c-1.417 0-2.419 0-3.203-.065-.771-.063-1.243-.182-1.613-.37a4 4 0 0 1-1.748-1.749c-.189-.37-.308-.841-.371-1.613C4 15.419 4 14.417 4 13v-2c0-1.417 0-2.419.065-3.203.063-.771.182-1.243.371-1.613a4 4 0 0 1 1.748-1.748ZM8 11a1 1 0 1 0 0 2h8a1 1 0 1 0 0-2H8Z" clip-rule="evenodd"/></svg>