<svg viewBox="0 0 24 24" xmlns="http://www.w3.org/2000/svg"><path fill-rule="evenodd" d="M11 2h-.044c-1.363 0-2.447 0-3.321.071-.896.074-1.66.227-2.359.583a6 6 0 0 0-2.622 2.622c-.356.7-.51 1.463-.583 2.359-.063.776-.07 1.718-.07 2.873H2v2.536c0 1.363 0 2.447.071 3.322.074.895.227 1.659.583 2.358a6 6 0 0 0 2.622 2.622c.7.356 1.463.51 2.359.583.874.071 1.958.071 3.321.071h2.088c1.363 0 2.447 0 3.321-.071.896-.073 1.66-.227 2.359-.583a6 6 0 0 0 2.622-2.622c.356-.7.51-1.463.583-2.358.071-.875.071-1.959.071-3.322v-2.088c0-1.363 0-2.447-.071-3.321-.074-.896-.227-1.66-.583-2.359a6 6 0 0 0-2.622-2.622c-.7-.356-1.463-.51-2.359-.583C15.491 2 14.407 2 13.044 2H11Zm-7 9.791v1.21c0 1.416 0 2.418.065 3.202.063.772.182 1.243.371 1.613a4 4 0 0 0 1.748 1.748c.315.16.702.27 1.285.339.641-2.35 1.598-4.561 3.437-6.317.404-.383.47-.616.04-.994a2.011 2.011 0 0 1-.484-.723c-.331-.715-.818-1.002-1.604-.787-.2.054-.77.104-1.163.139A30.932 30.932 0 0 0 4 11.79Zm4.942 8.197C9.517 20 10.19 20 11 20h2c1.417 0 2.419 0 3.203-.065.771-.063 1.243-.182 1.613-.37a4 4 0 0 0 1.748-1.749c.189-.37.308-.841.371-1.613C20 15.419 20 14.417 20 13v-2c0-1.417 0-2.419-.065-3.203-.063-.771-.182-1.243-.371-1.613a4 4 0 0 0-1.748-1.748c-.37-.189-.841-.308-1.613-.371C15.419 4 14.417 4 13 4h-2c-1.417 0-2.419 0-3.203.065-.771.063-1.243.182-1.613.371a4 4 0 0 0-1.748 1.748c-.189.37-.308.842-.371 1.613-.05.61-.062 1.354-.064 2.323a47.806 47.806 0 0 1 4.969-.594 5.61 5.61 0 0 0 1.174-.268c.12-.1.233-.21.337-.327a6.69 6.69 0 0 0 .35-.402c.402-.51.979-.852 1.618-.961C15.335 6.971 15.573 7 15.573 7s.337.11-.14.587c-.427.37-.9.683-1.409.932a3.962 3.962 0 0 1-1.021.557c-.604.23-.604.348-.604.348-.327.33.457.744 1.13.632.675-.113 2.557-.196 3.154-.086.596.11 1.35-.803 1.35-.803a.252.252 0 0 1 .348-.131l.008.008c.366.15 0 .886 0 .886-.527 1.06-1.26 1.24-2.768 1.508-.594.107-1.027.209-1.337.297.2.627.22 1.298.061 1.936-.03.391.002.785.097 1.165a.635.635 0 0 1-.153.587 1.38 1.38 0 0 1-.973.474c-.187.024-.781-.08-.944-.244a1.104 1.104 0 0 0-.236-.166c-.18.026-.36.222-.503.38a2.54 2.54 0 0 1-.13.137 10.18 10.18 0 0 0-2.561 3.984Z" clip-rule="evenodd"/></svg>