<svg viewBox="0 0 24 24" xmlns="http://www.w3.org/2000/svg"><path fill-rule="evenodd" d="M10.956 2h2.088c1.363 0 2.447 0 3.321.071.896.074 1.66.227 2.359.583a6 6 0 0 1 2.622 2.622c.356.7.51 1.463.583 2.359.071.874.071 1.958.071 3.321v2.088c0 1.363 0 2.447-.071 3.322-.074.895-.227 1.659-.583 2.358a6 6 0 0 1-2.622 2.622c-.7.356-1.463.51-2.359.583-.874.071-1.958.071-3.321.071h-2.088c-.921 0-1.715 0-2.403-.022a8.416 8.416 0 0 1 .28-1.618c.537-1.965 1.423-3.238 2.699-4.462a2.99 2.99 0 0 0 .13-.135c.141-.156.318-.35.496-.376.085.044.163.1.233.164.161.162.748.265.933.241a1.357 1.357 0 0 0 .962-.468.627.627 0 0 0 .15-.58 3.59 3.59 0 0 1-.095-1.151 3.511 3.511 0 0 0-.06-1.914c.306-.087.734-.188 1.321-.293 1.49-.265 2.215-.442 2.736-1.49 0 0 .362-.728 0-.876l-.008-.008a.248.248 0 0 0-.344.13s-.745.902-1.335.793c-.589-.108-2.45-.026-3.116.085-.666.111-1.44-.3-1.118-.625 0 0 0-.116.598-.344a3.917 3.917 0 0 0 1.01-.55 6.49 6.49 0 0 0 1.392-.921c.47-.471.138-.58.138-.58s-.236-.029-3.087.561a2.586 2.586 0 0 0-1.6.95 7.301 7.301 0 0 1-.346.397 2.913 2.913 0 0 1-.333.323c-.376.13-.765.219-1.16.265-1.608.107-5.13.644-5.735.738l-.181.027L2 10.426c.001-1.118.01-2.033.071-2.791.074-.896.227-1.66.583-2.359a6 6 0 0 1 2.622-2.622c.7-.356 1.463-.51 2.359-.583C8.509 2 9.593 2 10.956 2ZM2 12.016v1.028c0 1.363 0 2.447.071 3.322.074.895.227 1.659.583 2.358a6 6 0 0 0 2.622 2.622c.566.288 1.174.444 1.86.531l.142-1.062c.491-2.657 1.571-5.308 3.665-7.307.399-.378.465-.609.04-.982a1.99 1.99 0 0 1-.48-.714c-.327-.707-.808-.99-1.585-.778-.197.053-.76.103-1.149.137-.148.013-.27.024-.339.032l-.233.024c-1.1.113-3.443.354-5.197.789Z" clip-rule="evenodd"/></svg>