<svg viewBox="0 0 24 24" xmlns="http://www.w3.org/2000/svg"><path fill-rule="evenodd" d="M17.691 2.877a1 1 0 0 1 .618 0c.053.018.15.062.358.239.217.183.481.446.889.854l.474.474c.408.408.67.672.854.889.177.207.221.305.239.358a1 1 0 0 1 0 .618c-.018.053-.062.15-.239.358-.183.217-.446.481-.854.889l-.474.474c-.408.408-.672.67-.889.854-.207.177-.305.221-.358.239a1 1 0 0 1-.618 0c-.053-.018-.15-.062-.358-.239-.217-.183-.48-.446-.889-.854l-.474-.474c-.408-.408-.67-.672-.854-.889-.177-.207-.221-.305-.239-.358a1 1 0 0 1 0-.618c.018-.053.062-.15.239-.358.184-.217.446-.481.854-.889l.474-.474c.408-.408.672-.67.889-.855.207-.176.305-.22.358-.238ZM18.927.975a3 3 0 0 0-1.854 0c-.404.131-.732.36-1.035.616-.286.243-.608.565-.98.937l-.028.028-.474.474-.028.027c-.372.373-.694.695-.937.981-.257.303-.484.631-.616 1.035a3 3 0 0 0 0 1.854c.132.404.36.732.616 1.035.243.286.565.608.937.98l.028.028.474.474.027.028c.373.372.695.694.981.937.303.257.631.484 1.035.616a3 3 0 0 0 1.854 0c.404-.132.732-.36 1.035-.616.286-.243.608-.565.98-.937l.028-.028.474-.474.028-.027c.372-.373.694-.695.937-.981.257-.303.485-.631.616-1.035a3.001 3.001 0 0 0 0-1.854c-.131-.404-.36-.732-.616-1.035a17.9 17.9 0 0 0-.937-.98l-.028-.028-.474-.474-.027-.028c-.373-.372-.695-.694-.981-.937-.303-.257-.631-.485-1.035-.616ZM6.2 4h-.039c-.527 0-.981 0-1.356.03-.395.033-.789.104-1.167.297a3 3 0 0 0-1.311 1.311c-.193.378-.264.772-.296 1.167C2 7.179 2 7.635 2 8.16v9.677c0 .528 0 .982.03 1.357.033.395.104.788.297 1.167a3 3 0 0 0 1.311 1.311c.378.193.772.264 1.167.296.375.031.83.031 1.356.03h9.679c.527.001.981.001 1.356-.03.395-.032.789-.103 1.167-.296a3 3 0 0 0 1.311-1.311c.193-.378.264-.772.296-1.167.031-.375.031-.83.031-1.357V16.16c0-.527 0-.982-.03-1.356-.033-.395-.104-.789-.297-1.167a3 3 0 0 0-1.311-1.311c-.378-.193-.772-.264-1.167-.296-.376-.03-.831-.03-1.358-.03H12V8.16c0-.527 0-.982-.03-1.356-.033-.395-.104-.789-.297-1.167a3 3 0 0 0-1.311-1.311c-.378-.193-.772-.264-1.167-.296C8.82 4 8.365 4 7.839 4H6.2ZM10 8.2V12H4V8.2c0-.577 0-.949.024-1.232.022-.272.06-.373.085-.422a1 1 0 0 1 .437-.437c.05-.025.15-.063.422-.085C5.25 6 5.623 6 6.2 6h1.6c.577 0 .949 0 1.232.024.272.022.373.06.422.085a1 1 0 0 1 .437.437c.025.05.063.15.085.422C10 7.25 10 7.623 10 8.2Zm0 5.8H4v3.8c0 .576 0 .949.024 1.232.022.272.06.372.085.422a1 1 0 0 0 .437.437c.05.025.15.063.422.085.283.023.655.024 1.232.024H10v-6Zm2 0v6h3.8c.577 0 .949 0 1.232-.024.272-.022.372-.06.422-.085a1 1 0 0 0 .437-.437c.025-.05.063-.15.085-.422C18 18.75 18 18.377 18 17.8v-1.6c0-.577 0-.949-.024-1.232-.022-.272-.06-.373-.085-.422a1 1 0 0 0-.437-.437c-.05-.025-.15-.063-.422-.085C16.75 14 16.377 14 15.8 14H12Z" clip-rule="evenodd"/></svg>