<svg viewBox="0 0 24 24" xmlns="http://www.w3.org/2000/svg"><path fill-rule="evenodd" d="M18.447 1.982a3 3 0 0 0-1.894 0c-.397.132-.72.357-1.018.61-.281.24-.598.557-.965.924l-.027.027-.027.027c-.367.367-.684.684-.924.966-.253.297-.478.62-.61 1.017a3 3 0 0 0 0 1.894c.132.397.357.72.61 1.018.24.282.557.598.924.965l.027.027.027.027c.367.367.684.684.966.924.297.253.62.478 1.017.61.615.205 1.28.205 1.894 0 .397-.132.72-.357 1.018-.61.282-.24.598-.557.965-.924l.027-.027.027-.027c.367-.367.684-.683.924-.965.253-.298.478-.621.61-1.018a3 3 0 0 0 0-1.894c-.132-.397-.357-.72-.61-1.017-.24-.282-.557-.6-.924-.966l-.027-.027-.027-.027c-.367-.367-.683-.684-.965-.924-.298-.253-.621-.478-1.018-.61ZM6.2 3h-.039c-.527 0-.981 0-1.356.03-.395.033-.789.104-1.167.297a3 3 0 0 0-1.311 1.311c-.193.378-.264.772-.296 1.167C2 6.18 2 6.635 2 7.161v.678c0 .527 0 .981.03 1.356.033.395.104.789.297 1.167a3 3 0 0 0 1.311 1.311c.378.193.772.264 1.167.296.375.031.83.031 1.356.031h.678c.527 0 .981 0 1.356-.03.395-.033.789-.104 1.167-.297a3 3 0 0 0 1.311-1.311c.193-.378.264-.772.296-1.167C11 8.82 11 8.365 11 7.839V7.16c0-.527 0-.981-.03-1.356-.033-.395-.104-.789-.297-1.167a3 3 0 0 0-1.311-1.311c-.378-.193-.772-.264-1.167-.296C7.82 3 7.365 3 6.839 3H6.2Zm0 10h-.039c-.527 0-.981 0-1.356.03-.395.033-.789.104-1.167.297a3 3 0 0 0-1.311 1.311c-.193.378-.264.772-.296 1.167C2 16.18 2 16.635 2 17.161v.677c0 .528 0 .982.03 1.357.033.395.104.789.297 1.167a3 3 0 0 0 1.311 1.311c.378.193.772.264 1.167.296.375.031.83.031 1.356.031h.678c.527 0 .981 0 1.356-.03.395-.033.789-.104 1.167-.297a3 3 0 0 0 1.311-1.311c.193-.378.264-.772.296-1.167.031-.375.031-.83.031-1.357v-.676c0-.528 0-.982-.03-1.357-.033-.395-.104-.789-.297-1.167a3 3 0 0 0-1.311-1.311c-.378-.193-.772-.264-1.167-.296C7.82 13 7.365 13 6.839 13H6.2Zm10 0h-.038c-.528 0-.982 0-1.357.03-.395.033-.789.104-1.167.297a3 3 0 0 0-1.311 1.311c-.193.378-.264.772-.296 1.167-.031.375-.031.83-.031 1.356v.677c0 .528 0 .982.03 1.357.033.395.104.789.297 1.167a3 3 0 0 0 1.311 1.311c.378.193.772.264 1.167.296.375.031.83.031 1.356.031h.678c.527 0 .982 0 1.356-.03.395-.033.789-.104 1.167-.297a3 3 0 0 0 1.311-1.311c.193-.378.264-.772.296-1.167.031-.375.031-.83.031-1.356v-.678c0-.527 0-.982-.03-1.356-.033-.395-.104-.789-.297-1.167a3 3 0 0 0-1.311-1.311c-.378-.193-.772-.264-1.167-.296C17.82 13 17.365 13 16.839 13H16.2Z" clip-rule="evenodd"/></svg>