<svg viewBox="0 0 24 24" xmlns="http://www.w3.org/2000/svg"><path fill-rule="evenodd" d="M11.93 2h.14c.862 0 1.372 0 1.812.043a9 9 0 0 1 8.075 8.075c.043.44.043.95.043 1.812v.14c0 .862 0 1.372-.043 1.812a9 9 0 0 1-8.075 8.075c-.44.043-.95.043-1.812.043h-.14c-.862 0-1.372 0-1.812-.043a9 9 0 0 1-8.075-8.075C2 13.442 2 12.932 2 12.07v-.14c0-.862 0-1.372.043-1.812a9 9 0 0 1 8.075-8.075C10.558 2 11.068 2 11.93 2ZM8 9a1 1 0 0 0-1 1v1a1 1 0 0 0 1 1h1a1 1 0 0 0 1-1v-1a1 1 0 0 0-1-1H8Zm7 0a1 1 0 0 0-1 1v1a1 1 0 0 0 1 1h1a1 1 0 0 0 1-1v-1a1 1 0 0 0-1-1h-1Zm-5 5a1 1 0 1 0 0 2h4a1 1 0 1 0 0-2h-4Z" clip-rule="evenodd"/></svg>