<svg viewBox="0 0 24 24" xmlns="http://www.w3.org/2000/svg"><path fill-rule="evenodd" d="M12 2h-.07c-.862 0-1.372 0-1.812.043a9 9 0 0 0-8.075 8.075C2 10.558 2 11.068 2 11.93v.14c0 .862 0 1.372.043 1.812a9 9 0 0 0 8.075 8.075c.44.043.95.043 1.812.043h.14c.862 0 1.372 0 1.812-.043a9 9 0 0 0 8.075-8.075c.043-.44.043-.95.043-1.812v-.14c0-.862 0-1.372-.043-1.812a9 9 0 0 0-8.075-8.075C13.442 2 12.932 2 12.07 2H12Zm-1.686 2.034C10.644 4 11.047 4 12 4s1.356.001 1.686.034a7 7 0 0 1 6.28 6.28c.033.33.034.734.034 1.686 0 .953-.001 1.356-.034 1.686a7 7 0 0 1-6.28 6.28C13.356 20 12.953 20 12 20s-1.356-.001-1.686-.034a7 7 0 0 1-6.28-6.28C4 13.356 4 12.953 4 12c0-.952.001-1.356.034-1.686a7 7 0 0 1 6.28-6.28ZM15 9a1 1 0 0 0-1 1v1a1 1 0 0 0 1 1h1a1 1 0 0 0 1-1v-1a1 1 0 0 0-1-1h-1Zm-8 1a1 1 0 0 1 1-1h1a1 1 0 0 1 1 1v1a1 1 0 0 1-1 1H8a1 1 0 0 1-1-1v-1Zm3 4a1 1 0 1 0 0 2h4a1 1 0 1 0 0-2h-4Z" clip-rule="evenodd"/></svg>