<svg viewBox="0 0 24 24" xmlns="http://www.w3.org/2000/svg"><path fill-rule="evenodd" d="M15.342 7.317a1 1 0 0 1 .187-.26l5.016-5.016a1.354 1.354 0 1 1 1.914 1.914l-5.016 5.016a1 1 0 0 1-.26.187l-2.824 1.413c-.262.13-.393.196-.468.174a.2.2 0 0 1-.136-.136c-.022-.075.043-.206.174-.468l1.413-2.824ZM8 14a1 1 0 0 1 0-2h3a1 1 0 1 1 0 2H8Zm0 4a1 1 0 1 1 0-2h8a1 1 0 1 1 0 2H8Zm.8-15h-.041c-.805 0-1.47 0-2.01.044-.563.046-1.08.145-1.565.392a4 4 0 0 0-1.748 1.748c-.247.485-.346 1.002-.392 1.564C3 7.29 3 7.954 3 8.758v7.484c0 .806 0 1.47.044 2.011.046.562.145 1.079.392 1.564a4 4 0 0 0 1.748 1.748c.485.248 1.002.346 1.564.392C7.29 22 7.954 22 8.758 22h6.484c.805 0 1.47 0 2.01-.044.563-.046 1.08-.144 1.565-.392a4 4 0 0 0 1.748-1.748c.247-.485.346-1.002.392-1.564.044-.541.044-1.205.044-2.01V11a1 1 0 1 0-2 0v5.2c0 .857 0 1.44-.038 1.89-.035.438-.1.662-.18.818a2 2 0 0 1-.874.874c-.156.08-.38.145-.819.18-.45.038-1.032.038-1.889.038H8.8c-.857 0-1.439 0-1.889-.037-.438-.036-.663-.101-.819-.18a2 2 0 0 1-.874-.875c-.08-.156-.145-.38-.18-.819C5 17.64 5 17.057 5 16.2V8.8c0-.856 0-1.439.038-1.889.035-.438.1-.662.18-.819a2 2 0 0 1 .874-.874c.156-.08.38-.145.819-.18C7.361 5 7.943 5 8.8 5H14a1 1 0 1 0 0-2H8.8Z" clip-rule="evenodd"/></svg>