<svg viewBox="0 0 24 24" xmlns="http://www.w3.org/2000/svg"><path fill-rule="evenodd" d="M15.342 7.317a1 1 0 0 1 .187-.26l5.014-5.014a1.354 1.354 0 0 1 1.914 1.914l-5.014 5.014a1 1 0 0 1-.26.187l-2.824 1.413c-.262.13-.393.196-.468.174a.2.2 0 0 1-.136-.136c-.022-.075.044-.206.175-.468l1.412-2.824Zm1.413-4.315-2.64 2.64a3 3 0 0 0-.562.78L12.14 9.247l-.013.027c-.05.101-.136.272-.199.428l-.004.01a2.245 2.245 0 0 0-.088 1.461 2.2 2.2 0 0 0 1.491 1.49 2.24 2.24 0 0 0 1.46-.087l.01-.004a5.63 5.63 0 0 0 .43-.2l.026-.012 2.825-1.413a3.02 3.02 0 0 0 .78-.562L21 8.243v8.797c0 .666 0 1.226-.037 1.684-.04.478-.124.933-.345 1.365a3.5 3.5 0 0 1-1.529 1.53c-.432.22-.887.305-1.366.344-.457.037-1.017.037-1.683.037H7.96c-.666 0-1.226 0-1.683-.037-.48-.04-.934-.124-1.366-.344a3.5 3.5 0 0 1-1.53-1.53c-.22-.432-.304-.887-.344-1.365C3 18.266 3 17.706 3 17.04V7.96c0-.666 0-1.225.037-1.683.04-.479.124-.934.344-1.366a3.5 3.5 0 0 1 1.53-1.53c.432-.22.887-.304 1.366-.344C6.734 3 7.294 3 7.96 3h8.08c.254 0 .492 0 .715.002ZM7 13a1 1 0 1 0 0 2h4a1 1 0 0 0 0-2H7Zm0 4a1 1 0 1 0 0 2h9a1 1 0 0 0 0-2H7Z" clip-rule="evenodd"/></svg>