<svg viewBox="0 0 24 24" xmlns="http://www.w3.org/2000/svg"><path fill-rule="evenodd" d="M3.5 2a1 1 0 0 0 0 2H4v7h-.5a1 1 0 1 0 0 2H4v7h-.5a1 1 0 1 0 0 2h17a1 1 0 1 0 0-2H20v-7h.5a1 1 0 0 0 0-2H20V4h.5a1 1 0 1 0 0-2h-17ZM6 12V4h12v16H6v-8Zm4.335-.218c.28-.517.776-1.189 1.663-2.243C13.818 11.71 14 12.281 14 13.05c0 1.062-.877 1.95-2 1.95s-2-.888-2-1.95c0-.434.066-.773.335-1.268Zm2.176-4.427a1.506 1.506 0 0 0-1.02-.001 1.51 1.51 0 0 0-.55.359c-.1.098-.202.219-.29.322l-.016.02c-.991 1.167-1.651 2.025-2.057 2.772-.435.8-.578 1.469-.578 2.223C8 15.248 9.803 17 12 17s4-1.752 4-3.95c0-1.601-.69-2.694-2.635-4.993l-.017-.02a5.08 5.08 0 0 0-.289-.322 1.508 1.508 0 0 0-.548-.36Z" clip-rule="evenodd"/></svg>