<svg viewBox="0 0 24 24" xmlns="http://www.w3.org/2000/svg"><path fill-rule="evenodd" d="M9.357 2h5.286c1.084 0 1.958 0 2.666.058.729.06 1.369.185 1.961.487a5 5 0 0 1 2.185 2.185c.32.626.443 1.308.498 2.093l.003.033c.016.233.033.471.028.679a1.98 1.98 0 0 1-.163.784 2.04 2.04 0 0 1-.88.943 2.009 2.009 0 0 1-.793.22 8.77 8.77 0 0 1-.722.018h-.617l-1.331 6.21a1 1 0 1 1-1.956-.42l1.241-5.79H16a1 1 0 0 1 0-2h3.393c.302 0 .465 0 .581-.011l.01-.001a6.727 6.727 0 0 0-.026-.524c-.047-.673-.142-1.046-.285-1.326a3 3 0 0 0-1.31-1.311c-.264-.134-.612-.226-1.217-.276C16.529 4.001 15.736 4 14.6 4H9.4c-1.136 0-1.929 0-2.546.051-.605.05-.952.142-1.216.276a3 3 0 0 0-1.31 1.311 1 1 0 0 1-1.783-.908A5 5 0 0 1 4.73 2.545c.592-.302 1.233-.428 1.962-.487C7.399 2 8.274 2 9.357 2ZM21 11a1 1 0 0 1 1 1v2.643c0 1.084 0 1.958-.058 2.666-.06.729-.185 1.369-.487 1.961a5 5 0 0 1-2.185 2.185c-.592.302-1.232.428-1.961.487C16.6 22 15.727 22 14.643 22H9.357c-1.084 0-1.958 0-2.665-.058-.73-.06-1.37-.185-1.962-.487a5 5 0 0 1-2.185-2.185 1 1 0 1 1 1.782-.908 3 3 0 0 0 1.311 1.311c.264.134.611.227 1.216.276.617.05 1.41.051 2.546.051h5.2c1.137 0 1.93 0 2.546-.051.605-.05.953-.142 1.216-.276a3 3 0 0 0 1.311-1.31c.134-.264.227-.612.276-1.217.05-.617.051-1.41.051-2.546V12a1 1 0 0 1 1-1ZM1.691 9.836a2.956 2.956 0 0 1 5.78 1.239l-.662 3.089a2.956 2.956 0 0 1-5.78-1.239l.662-3.089Zm2.89-.336c-.45 0-.84.315-.934.755l-.662 3.09a.956.956 0 0 0 1.869.4l.661-3.09A.956.956 0 0 0 4.581 9.5Zm5.544-2a1 1 0 0 0-.977.788l-1.517 7a1 1 0 1 0 1.955.424l.37-1.713L10 14h1.227a3.486 3.486 0 0 0 3.453-3.006A3.071 3.071 0 0 0 11.638 7.5h-1.513Zm1.102 4.5h-.837l.542-2.5h.706c.65 0 1.15.575 1.061 1.219A1.486 1.486 0 0 1 11.227 12Z" clip-rule="evenodd"/></svg>