<svg viewBox="0 0 24 24" xmlns="http://www.w3.org/2000/svg"><path fill-rule="evenodd" d="M10.956 2h2.088c1.363 0 2.447 0 3.321.071.896.074 1.66.227 2.359.583a6 6 0 0 1 2.622 2.622c.338.664.493 1.386.57 2.224H18a1 1 0 1 0 0 2h.763l-1.24 5.79a1 1 0 1 0 1.955.42l1.33-6.21h1.188c.004.447.004.93.004 1.456v2.088c0 1.363 0 2.447-.071 3.322-.074.895-.227 1.659-.583 2.358a6 6 0 0 1-2.622 2.622c-.7.356-1.463.51-2.359.583-.874.071-1.958.071-3.321.071h-2.088c-1.363 0-2.447 0-3.321-.071-.896-.073-1.66-.227-2.359-.583a6 6 0 0 1-2.622-2.622c-.356-.7-.51-1.463-.583-2.358C2 15.49 2 14.405 2 13.044v-2.088c0-1.363 0-2.447.071-3.321.074-.896.227-1.66.583-2.359a6 6 0 0 1 2.622-2.622c.7-.356 1.463-.51 2.359-.583C8.509 2 9.593 2 10.956 2ZM6.581 7.5a2.956 2.956 0 0 0-2.89 2.336l-.662 3.09a2.956 2.956 0 0 0 5.78 1.238l.662-3.09A2.956 2.956 0 0 0 6.581 7.5Zm-.934 2.755a.956.956 0 0 1 1.868.4l-.661 3.09a.956.956 0 0 1-1.87-.4l.663-3.09ZM12.125 7.5a1 1 0 0 0-.977.788l-1.517 7a1 1 0 1 0 1.955.424l.37-1.713L12 14h1.227a3.486 3.486 0 0 0 3.453-3.006A3.071 3.071 0 0 0 13.638 7.5h-1.513Zm1.102 4.5h-.837l.542-2.5h.706c.65 0 1.15.575 1.061 1.219A1.486 1.486 0 0 1 13.227 12Z" clip-rule="evenodd"/></svg>