<svg viewBox="0 0 24 24" xmlns="http://www.w3.org/2000/svg"><path fill-rule="evenodd" d="M6 6a5 5 0 0 1 10 0v3.003c.211.005.405.019.585.055a3 3 0 0 1 2.013 1.442 1 1 0 0 1-1.732 1 1 1 0 0 0-.67-.48c-.073-.015-.183-.02-.696-.02H7.2c-.577 0-.949 0-1.232.024-.272.022-.373.06-.422.085a1 1 0 0 0-.437.437c-.025.05-.063.15-.085.422C5 12.25 5 12.623 5 13.2v4.6c0 .577 0 .949.024 1.232.022.272.06.372.085.422a1 1 0 0 0 .437.437l-.454.891.454-.891c.05.025.15.063.422.085C6.25 20 6.623 20 7.2 20H10a1 1 0 1 1 0 2H7.161c-.527 0-.981 0-1.356-.03-.395-.033-.789-.104-1.167-.297a3 3 0 0 1-1.311-1.311c-.193-.378-.264-.772-.296-1.167A17.9 17.9 0 0 1 3 17.838v-4.676c0-.528 0-.982.03-1.357.033-.395.104-.789.297-1.167a3 3 0 0 1 1.311-1.311c.378-.193.772-.264 1.167-.296.063-.006.128-.01.195-.013V6Zm8 3V6a3 3 0 1 0-6 0v3h6Zm-1.5 6a1 1 0 0 0-1-1h-1a1 1 0 0 0-1 1v1a1 1 0 0 0 1 1h1a1 1 0 0 0 1-1v-1Zm4.854.89a2.616 2.616 0 0 1 3.037 4.178 2.614 2.614 0 0 1-3.696 0l-.28-.28h.797a1 1 0 0 0 0-2H14a1 1 0 0 0-1 1V22a1 1 0 0 0 2 0v-.798l.28.28a4.614 4.614 0 1 0 1.165-7.373 1 1 0 1 0 .91 1.782Z" clip-rule="evenodd"/></svg>