<svg viewBox="0 0 24 24" xmlns="http://www.w3.org/2000/svg"><path fill-rule="evenodd" d="M10.988 2h-.102c-.635 0-1.114 0-1.577.11a4 4 0 0 0-1.156.48c-.406.248-.745.587-1.194 1.037l-.072.072-3.188 3.188-.072.072c-.45.449-.789.788-1.038 1.194a4 4 0 0 0-.478 1.156C1.999 9.772 2 10.25 2 10.886v6.683c0 .397 0 .692.034.953a4 4 0 0 0 2.633 3.25 1 1 0 0 0 .666-1.886 2 2 0 0 1-1.316-1.625C4.002 18.148 4 17.996 4 17.5V11h5.223c.12 0 .262 0 .387-.01.145-.012.353-.042.571-.154a1.5 1.5 0 0 0 .655-.655c.112-.218.142-.426.154-.571.01-.125.01-.268.01-.387V4h3.2c.857 0 1.439 0 1.889.038.438.035.663.1.819.18a2 2 0 0 1 .874.874c.08.156.145.38.18.819C18 6.361 18 6.943 18 7.8V9a1 1 0 1 0 2 0V7.759c0-.805 0-1.47-.044-2.01-.046-.563-.145-1.08-.392-1.565a4 4 0 0 0-1.748-1.748c-.485-.247-1.002-.346-1.564-.392C15.71 2 15.046 2 14.242 2h-3.254ZM9 9H4.44c.12-.142.312-.338.673-.699l3.188-3.188c.361-.36.557-.553.699-.673V9Zm2.2 3h-.039c-.527 0-.981 0-1.356.03-.395.033-.789.104-1.167.297a3 3 0 0 0-1.311 1.311c-.193.378-.264.772-.296 1.167C7 15.18 7 15.635 7 16.161v2.677c0 .528 0 .982.03 1.357.033.395.104.789.297 1.167a3 3 0 0 0 1.311 1.311c.378.193.772.264 1.167.296.375.031.83.031 1.356.031h7.677c.528 0 .982 0 1.357-.03.395-.033.789-.104 1.167-.297a3 3 0 0 0 1.311-1.311c.193-.378.264-.772.296-1.167.031-.375.031-.83.031-1.356V16.16c0-.527 0-.982-.03-1.356-.033-.395-.104-.789-.297-1.167a3 3 0 0 0-1.311-1.311c-.378-.193-.772-.264-1.167-.296-.375-.03-.83-.03-1.357-.03H11.2Zm1.446 5.389c.134-.29.202-.61.202-.957 0-.376-.07-.71-.209-1a1.564 1.564 0 0 0-.626-.684c-.278-.165-.618-.248-1.02-.248H9v6h1.23v-2.154h.762c.412 0 .758-.088 1.036-.265.278-.176.484-.407.618-.692Zm-1.222-.402c-.115.131-.29.197-.525.197h-.67v-1.505h.67c.235 0 .41.066.525.197.115.131.172.316.172.556 0 .239-.057.424-.172.555Zm5.35-2.11c-.397-.252-.862-.377-1.395-.377h-1.891v6h1.891c.528 0 .99-.125 1.388-.376.403-.25.712-.604.928-1.06.22-.456.331-.977.331-1.564 0-.593-.11-1.114-.33-1.564a2.465 2.465 0 0 0-.921-1.06Zm-.388 3.905c-.259.302-.62.453-1.086.453h-.582v-3.487h.582c.465 0 .827.154 1.086.461.26.308.389.738.389 1.291 0 .553-.13.98-.389 1.282ZM22 14.5v1.17h-2.057v1.266h1.54v1.137h-1.54V20.5h-1.23v-6H22Z" clip-rule="evenodd"/></svg>