<svg viewBox="0 0 24 24" xmlns="http://www.w3.org/2000/svg"><path fill-rule="evenodd" d="M18.5 2h.084c.38 0 .709 0 1.001.058a3 3 0 0 1 2.357 2.357c.059.293.058.62.058 1.001V6c0 8.837-7.163 16-16 16h-.584c-.38 0-.708 0-1.001-.058a3 3 0 0 1-2.357-2.357c-.059-.293-.058-.62-.058-1.001v-.168c0-.38 0-.708.058-1.001a3 3 0 0 1 2.357-2.357c.293-.059.62-.058 1.001-.058h.168c.38 0 .709 0 1.001.058a3 3 0 0 1 2.357 2.357c.059.293.058.62.058 1.001v1.262A14.019 14.019 0 0 0 19.678 9h-1.262c-.38 0-.708 0-1.001-.058a3 3 0 0 1-2.357-2.357c-.059-.292-.058-.62-.058-1.001v-.168c0-.38 0-.708.058-1.001a3 3 0 0 1 2.357-2.357c.293-.059.62-.058 1.001-.058h.084ZM6 20c.336 0 .67-.012 1-.035V18.5c0-.512-.005-.623-.02-.695a1 1 0 0 0-.785-.786C6.123 17.005 6.013 17 5.5 17c-.513 0-.623.005-.695.02a1 1 0 0 0-.786.785c-.014.072-.019.183-.019.695 0 .513.005.623.02.695a1 1 0 0 0 .785.786c.072.014.183.02.695.02H6ZM18.5 7h1.465c.023-.33.035-.664.035-1v-.5c0-.513-.005-.623-.02-.695a1 1 0 0 0-.785-.786C19.123 4.005 19.013 4 18.5 4c-.512 0-.623.005-.695.02a1 1 0 0 0-.786.785c-.014.072-.019.183-.019.695 0 .513.005.623.02.695a1 1 0 0 0 .785.786c.072.014.183.02.695.02ZM11 2a1 1 0 1 1 0 2 7 7 0 0 0-7 7 1 1 0 1 1-2 0 9 9 0 0 1 9-9Zm0 4a1 1 0 1 1 0 2 3 3 0 0 0-3 3 1 1 0 1 1-2 0 5 5 0 0 1 5-5Z" clip-rule="evenodd"/></svg>