<svg viewBox="0 0 24 24" xmlns="http://www.w3.org/2000/svg"><path fill-rule="evenodd" d="M4.5 6h5a1 1 0 1 0 0-2h-5A3.5 3.5 0 0 0 1 7.5v10A3.5 3.5 0 0 0 4.5 21h15a3.5 3.5 0 0 0 3.5-3.5V17a1 1 0 1 0-2 0v.5a1.5 1.5 0 0 1-1.5 1.5h-15A1.5 1.5 0 0 1 3 17.5v-2a1 1 0 0 0 1-1v-4a1 1 0 0 0-1-1v-2A1.5 1.5 0 0 1 4.5 6Zm10.077 2.992A3.456 3.456 0 0 1 15.203 5a3.37 3.37 0 0 1 2.48-1.002c.842.02 1.677.353 2.322 1.002A3.43 3.43 0 0 1 21 7.326a3.436 3.436 0 0 1-.996 2.531L19 10.87V9a1 1 0 0 0-2 0v4a1 1 0 0 0 1 1h4a1 1 0 1 0 0-2h-1.304l.728-.734a5.435 5.435 0 0 0 1.576-4 5.43 5.43 0 0 0-1.576-3.674A5.369 5.369 0 0 0 17.728 2a5.37 5.37 0 0 0-3.944 1.592 5.456 5.456 0 0 0-.991 6.304 1 1 0 1 0 1.784-.904Z" clip-rule="evenodd"/></svg>