<svg viewBox="0 0 24 24" xmlns="http://www.w3.org/2000/svg"><path fill-rule="evenodd" d="M18.643 2.229a3.5 3.5 0 0 0-5.164.234l-2.858 3.43a1 1 0 0 1-.486.32L3.349 8.207a1.7 1.7 0 0 0-.722 2.833l4.459 4.46-4.793 4.793a1 1 0 1 0 1.414 1.414L8.5 16.914l4.46 4.46a1.7 1.7 0 0 0 2.832-.723l1.996-6.786a1 1 0 0 1 .319-.486l3.43-2.858a3.5 3.5 0 0 0 .234-5.164L18.643 2.23ZM9.207 14.793l4.809 4.809 1.853-6.301a3 3 0 0 1 .958-1.458l3.43-2.859a1.5 1.5 0 0 0 .1-2.213l-3.128-3.128a1.5 1.5 0 0 0-2.213.1l-2.859 3.43a3 3 0 0 1-1.458.958L4.4 9.984l4.808 4.809Z" clip-rule="evenodd"/></svg>