<svg viewBox="0 0 24 24" xmlns="http://www.w3.org/2000/svg"><path fill-rule="evenodd" d="M10.956 2h2.088c1.363 0 2.447 0 3.321.071.896.074 1.66.227 2.359.583a6 6 0 0 1 2.622 2.622c.356.7.51 1.463.583 2.359.071.874.071 1.958.071 3.321v2.088c0 1.363 0 2.447-.071 3.322-.074.895-.227 1.659-.583 2.358a6 6 0 0 1-2.622 2.622c-.7.356-1.463.51-2.359.583-.874.071-1.958.071-3.321.071h-2.088c-1.363 0-2.447 0-3.321-.071-.896-.073-1.66-.227-2.359-.583a6 6 0 0 1-2.622-2.622c-.356-.7-.51-1.463-.583-2.358C2 15.49 2 14.405 2 13.044v-2.088c0-1.363 0-2.447.071-3.321.074-.896.227-1.66.583-2.359a6 6 0 0 1 2.622-2.622c.7-.356 1.463-.51 2.359-.583C8.509 2 9.593 2 10.956 2Zm.71 6.497.022.011 4.018 2.189.022.012c.105.057.236.128.344.2.108.073.344.24.484.546a1.3 1.3 0 0 1 0 1.08c-.14.306-.375.474-.483.547a4.235 4.235 0 0 1-.344.2l-.022.013-4.018 2.195-.02.011a4.321 4.321 0 0 1-.337.171 1.322 1.322 0 0 1-.69.113 1.3 1.3 0 0 1-.9-.534 1.314 1.314 0 0 1-.23-.66 4.298 4.298 0 0 1-.012-.376V9.784c0-.11 0-.253.011-.376.012-.13.046-.4.232-.66a1.3 1.3 0 0 1 .899-.533c.316-.04.57.06.689.112.114.049.239.117.336.17Z" clip-rule="evenodd"/></svg>