<svg viewBox="0 0 24 24" xmlns="http://www.w3.org/2000/svg"><path fill-rule="evenodd" d="M4 8a1 1 0 1 1-2 0V2a1 1 0 0 1 2 0v6Zm3.063-.789c.588-.4 1.24-.714 1.937-.921v3.245l-.017.01a4 4 0 1 0 5.472 5.472l.01-.017h3.245a7.004 7.004 0 0 1-13.007 1.062 1 1 0 0 0-1.798.876A9 9 0 0 0 11 22c4.239 0 7.791-2.93 8.747-6.873l.006-.025c.028-.113.064-.263.082-.402.024-.175.03-.4-.049-.65a1.531 1.531 0 0 0-.656-.835 1.494 1.494 0 0 0-.639-.201C18.349 13 18.189 13 18.058 13H14.38c-.085 0-.183 0-.268.004a1.525 1.525 0 0 0-.395.069c-.211.068-.373.16-.538.308a1.59 1.59 0 0 0-.276.335c-.051.08-.109.179-.167.277l-.008.015a2 2 0 1 1-2.736-2.736l.015-.008c.098-.058.197-.116.277-.167a1.59 1.59 0 0 0 .335-.276c.148-.165.24-.327.308-.538.052-.158.064-.301.069-.395C11 9.803 11 9.705 11 9.62V5.942c0-.13 0-.29-.014-.433a1.495 1.495 0 0 0-.201-.639 1.53 1.53 0 0 0-.835-.656 1.48 1.48 0 0 0-.65-.05 4.001 4.001 0 0 0-.402.083l-.024.006a8.96 8.96 0 0 0-2.937 1.305 1 1 0 1 0 1.126 1.653Zm7.619-6.07.086.015a10.009 10.009 0 0 1 8.076 8.076l.016.087c.067.366.156.849-.03 1.362-.152.42-.493.827-.88 1.05a1.968 1.968 0 0 1-.807.247c-.216.022-.466.022-.708.022h-5.867c-.252 0-.498 0-.706-.017a2.022 2.022 0 0 1-.77-.2 2 2 0 0 1-.874-.875 2.022 2.022 0 0 1-.201-.77C12 9.93 12 9.684 12 9.432V3.565c0-.242 0-.492.022-.708a1.95 1.95 0 0 1 .247-.808 2.1 2.1 0 0 1 1.05-.879c.513-.186.996-.097 1.362-.03Zm-.67 1.92c-.01.103-.012.248-.012.54v5.8c0 .296 0 .458.01.574l.001.014h.014c.116.01.278.011.575.011h5.8c.29 0 .436-.001.54-.011a2.103 2.103 0 0 0-.017-.127 13.018 13.018 0 0 0-.048-.279 8.008 8.008 0 0 0-6.458-6.458c-.117-.02-.204-.036-.28-.048a2.05 2.05 0 0 0-.126-.016ZM2.5 13.5a1 1 0 0 1-1-1v-1a1 1 0 0 1 1-1h1a1 1 0 0 1 1 1v1a1 1 0 0 1-1 1h-1Z" clip-rule="evenodd"/></svg>