<svg viewBox="0 0 24 24" xmlns="http://www.w3.org/2000/svg"><path fill-rule="evenodd" d="m14.768 1.156-.087-.016c-.366-.067-.849-.156-1.362.03-.42.152-.827.493-1.05.88a1.967 1.967 0 0 0-.247.807 7.318 7.318 0 0 0-.022.708v5.867c0 .252 0 .498.017.706.019.229.063.499.201.77a2 2 0 0 0 .874.874c.271.138.541.182.77.201.208.017.454.017.706.017h5.867c.242 0 .492 0 .708-.022.252-.025.53-.085.808-.246.386-.224.727-.63.879-1.05.186-.514.097-.997.03-1.363l-.016-.087a10.009 10.009 0 0 0-8.076-8.076ZM9.95 4.214a1.48 1.48 0 0 0-.65-.05 4.005 4.005 0 0 0-.402.083l-.025.006A9 9 0 0 0 11 22c4.239 0 7.791-2.93 8.747-6.873l.006-.025c.028-.113.064-.263.082-.402.024-.175.03-.4-.049-.65a1.531 1.531 0 0 0-.656-.835 1.496 1.496 0 0 0-.639-.201 4.585 4.585 0 0 0-.433-.014H14.38c-.085 0-.183 0-.268.004a1.534 1.534 0 0 0-.395.069c-.211.068-.373.16-.538.308a1.59 1.59 0 0 0-.276.335c-.051.08-.109.179-.167.278l-.008.014a2 2 0 1 1-2.736-2.736l.015-.008c.098-.058.197-.116.277-.167a1.59 1.59 0 0 0 .335-.276c.148-.165.24-.327.308-.538.052-.158.064-.301.069-.395C11 9.803 11 9.705 11 9.62V5.942c0-.13 0-.29-.014-.433a1.495 1.495 0 0 0-.201-.639 1.53 1.53 0 0 0-.835-.656Z" clip-rule="evenodd"/></svg>