<svg viewBox="0 0 24 24" xmlns="http://www.w3.org/2000/svg"><path fill-rule="evenodd" d="m14.768 1.156-.087-.016c-.366-.067-.849-.156-1.362.03-.42.152-.827.493-1.05.88a1.967 1.967 0 0 0-.247.807 7.318 7.318 0 0 0-.022.708v5.867c0 .252 0 .498.017.706.019.229.063.499.201.77a2 2 0 0 0 .874.874c.271.138.541.182.77.201.208.017.454.017.706.017h5.867c.242 0 .492 0 .708-.022.252-.025.53-.085.808-.247a2.1 2.1 0 0 0 .879-1.05c.186-.513.097-.996.03-1.362l-.016-.087a10.009 10.009 0 0 0-8.076-8.076ZM14 3.6c0-.29.001-.436.011-.54.03.003.07.008.127.017l.279.048a8.008 8.008 0 0 1 6.458 6.458c.021.117.036.204.048.28.009.057.014.097.017.126a6.34 6.34 0 0 1-.54.011h-5.8c-.296 0-.459 0-.575-.01l-.014-.001v-.014A8.205 8.205 0 0 1 14 9.4V3.6ZM4 13c0-3.17 2.108-5.85 5-6.71v3.245l-.017.01a4 4 0 1 0 5.472 5.472l.01-.017h3.245A7 7 0 0 1 4 13Zm5.95-8.786a1.48 1.48 0 0 0-.65-.05 4.005 4.005 0 0 0-.402.083l-.025.006A9 9 0 0 0 11 22c4.239 0 7.791-2.93 8.747-6.873l.006-.025c.028-.113.064-.263.082-.402.024-.175.03-.4-.049-.65a1.531 1.531 0 0 0-.656-.835 1.496 1.496 0 0 0-.639-.201C18.349 13 18.189 13 18.058 13H14.38c-.085 0-.183 0-.268.004a1.525 1.525 0 0 0-.395.069c-.211.068-.373.16-.538.308a1.59 1.59 0 0 0-.276.335c-.051.08-.109.179-.167.277l-.008.015a2 2 0 1 1-2.736-2.736l.015-.008c.098-.058.197-.116.277-.167a1.59 1.59 0 0 0 .335-.276c.148-.165.24-.327.308-.538.052-.158.064-.301.069-.395C11 9.803 11 9.705 11 9.62V5.942c0-.13 0-.29-.014-.433a1.495 1.495 0 0 0-.201-.639 1.53 1.53 0 0 0-.835-.656Z" clip-rule="evenodd"/></svg>