<svg viewBox="0 0 24 24" xmlns="http://www.w3.org/2000/svg"><path fill-rule="evenodd" d="M11 2h-.044c-1.363 0-2.447 0-3.321.071-.896.074-1.66.227-2.359.583a6 6 0 0 0-2.622 2.622c-.356.7-.51 1.463-.583 2.359C2 8.509 2 9.593 2 10.956v2.088c0 1.363 0 2.447.071 3.322.074.895.227 1.659.583 2.358a6 6 0 0 0 2.622 2.622c.7.356 1.463.51 2.359.583.874.071 1.958.071 3.321.071h2.088c1.363 0 2.447 0 3.321-.071.896-.073 1.66-.227 2.359-.583a6 6 0 0 0 2.622-2.622c.356-.7.51-1.463.583-2.358.071-.875.071-1.959.071-3.322v-2.088c0-1.363 0-2.447-.071-3.321-.074-.896-.227-1.66-.583-2.359a6 6 0 0 0-2.622-2.622c-.7-.356-1.463-.51-2.359-.583C15.491 2 14.407 2 13.044 2H11Zm3 14.5a1 1 0 0 0-1-1h-1a1 1 0 0 0-1 1v1a1 1 0 0 0 1 1h1a1 1 0 0 0 1-1v-1Zm-3.5-7a2 2 0 0 1 3.886-.667 1 1 0 1 0 1.886-.666A4.001 4.001 0 0 0 8.5 9.5c0 1.588.907 2.464 1.652 3.048l.018.014.017.012 1.313.94a1 1 0 0 0 2-.014c0-.636-.307-1.234-.825-1.604l-1.306-.935c-.575-.453-.869-.813-.869-1.461Z" clip-rule="evenodd"/></svg>