<svg viewBox="0 0 24 24" xmlns="http://www.w3.org/2000/svg"><path fill-rule="evenodd" d="M16.884 1h.232c.817 0 1.375 0 1.86.096a5 5 0 0 1 3.928 3.929C23 5.509 23 6.067 23 6.885v.231c0 .817 0 1.375-.096 1.86a5 5 0 0 1-3.928 3.928c-.485.096-1.043.096-1.86.096h-.232c-.817 0-1.375 0-1.86-.096a5 5 0 0 1-3.928-3.929C11 8.491 11 7.933 11 7.115v-.231c0-.817 0-1.375.096-1.86a5 5 0 0 1 3.929-3.928C15.509 1 16.067 1 16.885 1ZM17 3c-.977 0-1.32.005-1.585.058a3 3 0 0 0-2.357 2.357C13.005 5.68 13 6.023 13 7s.005 1.32.058 1.585a3 3 0 0 0 2.357 2.357c.265.053.608.058 1.585.058s1.32-.005 1.585-.058a3 3 0 0 0 2.357-2.357C20.995 8.32 21 7.977 21 7s-.005-1.32-.058-1.585a3 3 0 0 0-2.357-2.357C18.32 3.005 17.977 3 17 3Zm0 1a1 1 0 0 1 1 1v1.586l1.207 1.207a1 1 0 1 1-1.414 1.414l-1.5-1.5A1 1 0 0 1 16 7V5a1 1 0 0 1 1-1ZM3.8 2h-.023c-.12 0-.262 0-.387.01a1.508 1.508 0 0 0-.571.153 1.5 1.5 0 0 0-.655.656 1.508 1.508 0 0 0-.154.571C2 3.515 2 3.658 2 3.777v16.446c0 .12 0 .261.01.387.012.145.042.353.154.57a1.5 1.5 0 0 0 .655.656c.218.111.426.142.571.154.125.01.268.01.387.01H4.5a1 1 0 0 0 0-2H4V4h.5a1 1 0 1 0 0-2h-.7Zm3.7 0a1 1 0 0 0 0 2h1a1 1 0 1 0 0-2h-1ZM22 15a1 1 0 1 0-2 0v5h-.5a1 1 0 1 0 0 2H21a1 1 0 0 0 1-1v-6Zm-10.5 5a1 1 0 1 0 0 2h1a1 1 0 0 0 0-2h-1Zm-4 0a1 1 0 1 0 0 2h1a1 1 0 1 0 0-2h-1Zm8 0a1 1 0 1 0 0 2h1a1 1 0 1 0 0-2h-1Z" clip-rule="evenodd"/></svg>