<svg viewBox="0 0 24 24" xmlns="http://www.w3.org/2000/svg"><path fill-rule="evenodd" d="M12 4a8 8 0 0 1 8 8c0 1.975-.768 3.84-2 5.27V14.5a1 1 0 1 0-2 0v5a1 1 0 0 0 1 1h5a1 1 0 1 0 0-2h-2.421C21.069 16.738 22 14.45 22 12c0-5.523-4.477-10-10-10S2 6.477 2 12c0 5.148 3.89 9.386 8.89 9.939a1 1 0 1 0 .22-1.988A8.001 8.001 0 0 1 12 4Z" clip-rule="evenodd"/><path fill-rule="evenodd" d="M11.8 10h-.023c-.12 0-.261 0-.387.01a1.51 1.51 0 0 0-.571.154 1.5 1.5 0 0 0-.655.655 1.51 1.51 0 0 0-.154.571c-.01.125-.01.268-.01.387v.446c0 .12 0 .261.01.387.012.145.043.353.154.571a1.5 1.5 0 0 0 .655.655c.218.112.426.142.571.154.125.01.268.01.387.01h.446c.12 0 .261 0 .387-.01.145-.012.353-.042.571-.154a1.5 1.5 0 0 0 .655-.655c.112-.218.142-.426.154-.571.01-.125.01-.268.01-.387v-.446c0-.12 0-.261-.01-.387a1.508 1.508 0 0 0-.154-.571 1.5 1.5 0 0 0-.655-.655 1.51 1.51 0 0 0-.571-.154c-.125-.01-.268-.01-.387-.01H11.8Z" clip-rule="evenodd"/></svg>