<svg viewBox="0 0 24 24" xmlns="http://www.w3.org/2000/svg"><path fill-rule="evenodd" d="M9.4 22h-.043c-.495 0-.946 0-1.357-.006V22a1 1 0 0 1-1 1H6a1 1 0 0 1-1-1v-.42a3.747 3.747 0 0 1-.27-.125 5 5 0 0 1-2.185-2.185c-.302-.592-.428-1.232-.487-1.961a15.977 15.977 0 0 1-.044-.856A2.5 2.5 0 0 0 5 14v-3a2.5 2.5 0 0 0-2.999-2.45c.003-.722.014-1.336.057-1.859.06-.728.185-1.369.487-1.96A5 5 0 0 1 4.73 2.544c.592-.302 1.232-.428 1.961-.487C7.4 2 8.273 2 9.357 2h5.286c1.084 0 1.958 0 2.666.058.728.06 1.369.185 1.96.487a5 5 0 0 1 2.186 2.185c.302.592.428 1.233.487 1.961.011.136.02.278.027.426A1 1 0 0 1 22.5 8v1a1 1 0 0 1-.5.866v4.268a1 1 0 0 1 .5.866v1a1 1 0 0 1-.53.883c-.008.148-.017.29-.028.426-.06.729-.185 1.369-.487 1.961a5 5 0 0 1-2.185 2.185 3.764 3.764 0 0 1-.27.124V22a1 1 0 0 1-1 1h-1a1 1 0 0 1-1-1v-.006c-.411.006-.862.006-1.356.006H9.4ZM7.793 7.793a1 1 0 0 1 1.414 0l.761.76A3.981 3.981 0 0 1 12 8c.742 0 1.436.202 2.032.554l.76-.761a1 1 0 0 1 1.415 1.414l-.76.761c.351.595.553 1.29.553 2.032s-.202 1.437-.554 2.032l.761.76a1 1 0 0 1-1.414 1.415l-.761-.76A3.981 3.981 0 0 1 12 16a3.981 3.981 0 0 1-2.032-.554l-.76.761a1 1 0 0 1-1.415-1.414l.76-.761A3.982 3.982 0 0 1 8 12c0-.742.202-1.437.554-2.032l-.761-.76a1 1 0 0 1 0-1.415ZM12 10a2 2 0 1 0 0 4 2 2 0 0 0 0-4Zm-8.5 1a1 1 0 1 0-2 0v3a1 1 0 1 0 2 0v-3Z" clip-rule="evenodd"/></svg>