<svg viewBox="0 0 24 24" xmlns="http://www.w3.org/2000/svg"><path fill-rule="evenodd" d="M11.652 1.829c.264-.042.592-.066.939.04a2 2 0 0 1 1.12.875c.188.31.243.635.267.901.022.25.022.55.022.867v14.976c0 .317 0 .617-.022.867-.024.266-.08.59-.268.9a2 2 0 0 1-1.12.875c-.346.107-.674.083-.938.041-.248-.04-.539-.112-.847-.189l-.036-.009-5.588-1.397-.152-.038c-.713-.177-1.338-.332-1.827-.698a3 3 0 0 1-.968-1.24C1.998 18.038 2 17.393 2 16.66V7.34c-.001-.734-.002-1.378.234-1.941a3 3 0 0 1 .968-1.24c.489-.366 1.114-.521 1.827-.698l.152-.038 5.588-1.397.036-.01c.308-.076.6-.149.847-.188ZM20 6.5v11a1 1 0 1 0 2 0v-11a1 1 0 0 0-2 0Zm-2-2a1 1 0 0 0-2 0v15a1 1 0 1 0 2 0v-15Z" clip-rule="evenodd"/></svg>