<svg viewBox="0 0 24 24" xmlns="http://www.w3.org/2000/svg"><path fill-rule="evenodd" d="M11.255 3.967c.356-.089.56-.139.709-.163l.02-.003.002.02c.013.15.014.36.014.728v14.902c0 .367 0 .577-.014.727l-.002.02-.02-.003a9.544 9.544 0 0 1-.71-.162l-5.587-1.397c-.957-.24-1.144-.306-1.266-.397a1 1 0 0 1-.323-.413C4.02 17.686 4 17.488 4 16.5V7.498c0-.986.02-1.183.078-1.324a1 1 0 0 1 .323-.413c.122-.091.309-.158 1.266-.397l5.588-1.397ZM12.59 1.87a2.049 2.049 0 0 0-.94-.041c-.246.039-.538.112-.846.189l-.035.009L5.18 3.424l-.152.038c-.713.177-1.338.332-1.827.698a3 3 0 0 0-.968 1.24C1.998 5.963 2 6.607 2 7.34v9.318c-.001.734-.002 1.378.234 1.942a3 3 0 0 0 .968 1.239c.489.366 1.114.521 1.827.698l.152.038 5.589 1.397.035.01c.308.076.6.149.847.188.264.042.592.066.939-.041a2 2 0 0 0 1.12-.874c.188-.31.243-.635.267-.901.022-.25.022-.55.022-.867V4.512c0-.317 0-.617-.022-.867-.024-.266-.08-.59-.267-.9a2 2 0 0 0-1.12-.875ZM20 6.5v11a1 1 0 1 0 2 0v-11a1 1 0 1 0-2 0Zm-2-2a1 1 0 1 0-2 0v15a1 1 0 1 0 2 0v-15Z" clip-rule="evenodd"/></svg>