<svg viewBox="0 0 24 24" xmlns="http://www.w3.org/2000/svg"><path fill-rule="evenodd" d="M5 2a1 1 0 0 0 0 2v.249a10 10 0 0 0 3.413 7.523l-.432.348A8 8 0 0 0 5 18.35V20a1 1 0 1 0 0 2h14a1 1 0 1 0 0-2v-1.65a8 8 0 0 0-2.981-6.23l-.432-.348A10 10 0 0 0 19 4.25V4a1 1 0 1 0 0-2H5Zm2 2.249V4h10v.249a8 8 0 0 1-2.981 6.23l-.646.52a1 1 0 0 0 0 1.557l1.391 1.121A6 6 0 0 1 17 18.35V20H7v-1.65a6 6 0 0 1 2.236-4.673l1.391-1.12a1 1 0 0 0 0-1.558l-.646-.52A8 8 0 0 1 7 4.249ZM10 17a1 1 0 1 0 0 2h4a1 1 0 1 0 0-2h-4Z" clip-rule="evenodd"/></svg>