<svg viewBox="0 0 24 24" xmlns="http://www.w3.org/2000/svg"><path fill-rule="evenodd" d="M3 9a1 1 0 0 0 1-1V2a1 1 0 0 0-2 0v6a1 1 0 0 0 1 1Zm3-6a1 1 0 0 1 1-1h7.757a4 4 0 0 1 2.829 1.172l3.242 3.242A4 4 0 0 1 22 9.243V18a4 4 0 0 1-4 4H6a4 4 0 0 1-4-4v-1.5a1 1 0 1 1 2 0V18a2 2 0 0 0 2 2v-4a3 3 0 0 1 3-3h6a3 3 0 0 1 3 3v4a2 2 0 0 0 2-2V9.243a2 2 0 0 0-.586-1.415l-3.242-3.242A2 2 0 0 0 14.757 4H7a1 1 0 0 1-1-1Zm10 13a1 1 0 0 0-1-1H9a1 1 0 0 0-1 1v4h8v-4ZM2.5 13.5a1 1 0 0 1-1-1v-1a1 1 0 0 1 1-1h1a1 1 0 0 1 1 1v1a1 1 0 0 1-1 1h-1Z" clip-rule="evenodd"/></svg>