<svg viewBox="0 0 24 24" xmlns="http://www.w3.org/2000/svg"><path fill-rule="evenodd" d="M9.459 5a7.445 7.445 0 0 0-3.997 1.164l-1.119.712a1.111 1.111 0 0 0-.16 1.751l4.39 4.076L19.021 5H9.46Zm10.527 1.774L9.617 14.418l1.178 5.3a1.111 1.111 0 0 0 1.717.673l1.644-1.138a7.444 7.444 0 0 0 2.8-3.694l3.03-8.785ZM7.59 14.52l-4.768-4.428A3.111 3.111 0 0 1 3.27 5.19l1.118-.712A9.445 9.445 0 0 1 9.46 3h11.06a2.056 2.056 0 0 1 1.944 2.726L18.847 16.21a9.444 9.444 0 0 1-3.552 4.686l-1.644 1.138c-1.817 1.258-4.329.274-4.808-1.883l-1.253-5.63Z" clip-rule="evenodd"/></svg>