<svg viewBox="0 0 24 24" xmlns="http://www.w3.org/2000/svg"><path fill-rule="evenodd" d="M11.277 3.5h1.446l.083.217.013.034c.179.465.334.866.488 1.189.163.34.36.667.656.944a3 3 0 0 0 1.605.774c.402.06.779.01 1.148-.074.348-.08.759-.209 1.233-.358l.035-.01.141-.045.924 1.188-.175.313-.018.031a16.67 16.67 0 0 0-.583 1.097c-.154.333-.277.681-.305 1.074a3 3 0 0 0 .386 1.695c.195.342.457.603.74.837.267.22.608.46 1 .735l.03.02.255.18-.334 1.502-.216.033-.036.006c-.482.075-.9.14-1.24.222-.363.087-.717.207-1.046.433a3 3 0 0 0-1.094 1.375c-.147.372-.185.744-.188 1.116-.002.351.028.773.062 1.259l.003.037.023.322-1.312.649-.112-.106-.027-.025a16.754 16.754 0 0 0-.96-.87c-.296-.24-.616-.45-1.006-.573a3 3 0 0 0-1.793 0c-.39.122-.71.333-1.006.573-.28.226-.595.524-.96.87l-.026.025-.112.106-1.312-.649.023-.323.003-.036c.034-.486.064-.908.061-1.259-.002-.372-.04-.744-.187-1.116a3 3 0 0 0-1.094-1.375c-.33-.226-.683-.347-1.045-.433-.342-.081-.76-.147-1.241-.222l-.036-.006-.216-.034-.334-1.501.255-.18.03-.02c.392-.276.733-.515 1-.735.283-.234.545-.495.74-.837a3 3 0 0 0 .385-1.695c-.027-.393-.15-.741-.304-1.074a17.082 17.082 0 0 0-.583-1.097l-.018-.031-.175-.313.924-1.188.14.044.036.011c.474.15.885.278 1.233.358.37.085.746.134 1.148.074a3 3 0 0 0 1.604-.774c.297-.277.493-.603.657-.944.154-.323.309-.724.488-1.188l.013-.035.083-.217Zm2.319-1.903c-.27-.102-.558-.099-.697-.097H11.1c-.139-.002-.428-.005-.697.097a1.5 1.5 0 0 0-.59.404c-.19.215-.292.486-.34.616l-.014.036-.133.345a16 16 0 0 1-.438 1.078c-.11.23-.177.308-.217.346a1 1 0 0 1-.535.258c-.054.008-.157.012-.406-.045-.262-.06-.596-.165-1.116-.328l-.273-.086-.037-.012c-.134-.043-.412-.134-.702-.116a1.5 1.5 0 0 0-.688.215c-.248.15-.425.383-.51.495l-.024.03-1.09 1.403-.024.03a1.917 1.917 0 0 0-.343.591 1.5 1.5 0 0 0-.052.695c.044.276.184.52.25.636l.02.033.24.428c.257.46.421.754.53.99.103.223.12.321.124.375a1 1 0 0 1-.128.565c-.027.047-.085.127-.275.284-.2.165-.476.36-.906.662l-.365.256-.03.021a1.922 1.922 0 0 0-.505.468 1.5 1.5 0 0 0-.253.653c-.038.278.026.553.057.685l.009.037.393 1.765.008.037c.028.136.088.417.244.656a1.5 1.5 0 0 0 .518.487c.25.14.533.182.67.202l.038.005.35.055c.528.083.867.137 1.123.198.244.058.333.105.377.136a1 1 0 0 1 .365.459c.02.05.047.148.048.398.003.263-.021.605-.059 1.139l-.033.457-.002.037c-.012.137-.035.419.044.69a1.5 1.5 0 0 0 .35.61c.194.206.45.329.573.388l.034.016 1.558.77.034.017c.126.064.387.197.677.224a1.5 1.5 0 0 0 .715-.108c.27-.112.48-.316.58-.414l.029-.027.212-.201c.4-.378.656-.621.867-.791.201-.162.296-.204.348-.22a.999.999 0 0 1 .598 0c.052.016.147.058.348.22.21.17.467.413.866.79l.213.202.028.027c.101.098.312.302.58.414a1.5 1.5 0 0 0 .716.108c.29-.027.55-.16.676-.224l.035-.017 1.558-.77.034-.016c.123-.06.379-.182.573-.388.163-.172.283-.382.35-.61.079-.271.055-.553.044-.69l-.003-.037-.032-.457a16.29 16.29 0 0 1-.06-1.139c.002-.25.029-.348.049-.398a1 1 0 0 1 .364-.459c.045-.03.134-.078.378-.136a16.42 16.42 0 0 1 1.123-.198l.35-.055.038-.005c.137-.02.42-.062.67-.202a1.5 1.5 0 0 0 .518-.487c.156-.24.216-.52.244-.656l.008-.037.393-1.765.009-.037c.03-.132.095-.407.057-.685a1.5 1.5 0 0 0-.253-.653c-.16-.231-.393-.39-.504-.468l-.031-.021-.365-.256a16.12 16.12 0 0 1-.906-.662c-.19-.157-.248-.237-.275-.284a1 1 0 0 1-.128-.565c.003-.054.021-.152.124-.376.109-.235.273-.53.53-.989l.24-.428.019-.033c.067-.117.207-.36.251-.636a1.49 1.49 0 0 0-.052-.695c-.085-.266-.26-.486-.344-.591l-.023-.03-1.09-1.402-.024-.031c-.085-.112-.262-.345-.51-.495a1.5 1.5 0 0 0-.689-.215c-.29-.018-.567.073-.7.116l-.038.012-.273.086c-.52.163-.854.268-1.116.328-.25.057-.352.053-.406.045a1 1 0 0 1-.535-.258c-.04-.038-.107-.115-.217-.346a16.507 16.507 0 0 1-.438-1.078l-.133-.345-.014-.036c-.048-.13-.15-.4-.34-.616a1.5 1.5 0 0 0-.59-.404ZM11.6 9h-.032c-.252 0-.498 0-.706.017a2.021 2.021 0 0 0-.77.201 2 2 0 0 0-.874.874 2.022 2.022 0 0 0-.201.77 9.182 9.182 0 0 0-.017.706v.864c0 .252 0 .498.017.706.018.229.063.499.2.77a2 2 0 0 0 .875.874c.271.138.541.182.77.201.208.017.454.017.706.017h.864c.252 0 .498 0 .706-.017.229-.019.498-.063.77-.201a2 2 0 0 0 .874-.874 2.01 2.01 0 0 0 .2-.77c.018-.208.018-.454.018-.706v-.864c0-.252 0-.498-.017-.706a2.022 2.022 0 0 0-.201-.77 2 2 0 0 0-.874-.874 2.021 2.021 0 0 0-.77-.201C12.93 9 12.684 9 12.432 9H11.6Zm-.59 2.025.001-.014h.014c.116-.01.278-.011.575-.011h.8c.296 0 .459 0 .575.01l.013.001.002.014c.01.116.01.278.01.575v.8c0 .296 0 .459-.01.575l-.002.014h-.013c-.116.01-.279.011-.575.011h-.8c-.297 0-.459 0-.575-.01l-.014-.001v-.014A8.143 8.143 0 0 1 11 12.4v-.8c0-.296 0-.459.01-.575Z" clip-rule="evenodd"/></svg>