<svg viewBox="0 0 24 24" xmlns="http://www.w3.org/2000/svg"><path fill-rule="evenodd" d="M12.723 3.5h-1.446l-.083.217-.014.034c-.178.465-.333.866-.487 1.189-.164.34-.36.667-.656.944a3 3 0 0 1-1.605.774c-.402.06-.779.01-1.148-.074-.348-.08-.759-.209-1.233-.358l-.036-.01-.14-.045-.924 1.188.175.313.018.031c.234.419.438.782.583 1.097.154.333.277.681.304 1.074a3 3 0 0 1-.385 1.695c-.195.342-.457.603-.74.837-.267.22-.608.46-1 .735l-.03.02-.255.18.334 1.502.216.033.036.006c.481.075.899.14 1.24.222.363.087.717.207 1.046.433a3 3 0 0 1 1.094 1.375c.146.372.185.744.187 1.116.003.351-.027.773-.061 1.259l-.003.037-.023.322 1.312.649.313-.297a1 1 0 1 1 1.376 1.452l-.414.392-.028.027c-.101.098-.312.302-.58.414a1.5 1.5 0 0 1-.716.108c-.29-.027-.55-.16-.677-.224l-.034-.017-1.558-.77-.034-.016c-.123-.06-.379-.182-.573-.388a1.5 1.5 0 0 1-.35-.61 1.908 1.908 0 0 1-.044-.69l.002-.037.033-.457c.038-.534.062-.876.06-1.139-.002-.25-.029-.348-.049-.398a1 1 0 0 0-.365-.459c-.044-.03-.133-.078-.377-.136a16.31 16.31 0 0 0-1.123-.198l-.35-.055-.038-.005c-.137-.02-.42-.062-.67-.202a1.5 1.5 0 0 1-.518-.487 1.922 1.922 0 0 1-.244-.656l-.008-.037-.393-1.765-.009-.037c-.03-.132-.095-.407-.057-.685a1.5 1.5 0 0 1 .253-.653c.16-.231.392-.39.504-.468l.031-.021.365-.256c.43-.302.706-.497.906-.662.19-.157.248-.237.275-.284a1 1 0 0 0 .128-.565c-.003-.054-.021-.152-.124-.376a16.49 16.49 0 0 0-.53-.989l-.24-.428-.02-.033c-.066-.117-.206-.36-.25-.636a1.5 1.5 0 0 1 .052-.695c.085-.266.26-.486.343-.591l.024-.03 1.09-1.402.024-.031c.085-.112.262-.345.51-.495a1.5 1.5 0 0 1 .688-.215c.29-.018.568.073.702.116l.037.012.273.086c.52.163.854.268 1.116.328.25.057.352.053.406.045a1 1 0 0 0 .535-.258c.04-.038.106-.115.217-.346a16 16 0 0 0 .438-1.078l.133-.345.014-.036c.048-.13.15-.4.34-.616a1.5 1.5 0 0 1 .59-.404c.27-.102.558-.099.697-.097H12.9c.139-.002.428-.005.697.097a1.5 1.5 0 0 1 .59.404c.19.215.292.486.34.616l.014.036.133.345a16 16 0 0 0 .438 1.078c.11.23.177.308.217.346a1 1 0 0 0 .535.258c.054.008.157.012.406-.045.262-.06.596-.165 1.116-.328l.273-.086.037-.012c.134-.043.412-.134.701-.116a1.5 1.5 0 0 1 .69.215c.247.15.424.383.51.495l.023.03 1.144 1.473.02.025c.071.09.219.276.303.502.071.19.103.392.093.595-.01.24-.095.463-.135.57l-.01.03-.93 2.546a1 1 0 0 1-1.753.957 1.767 1.767 0 0 1-.162-1.544l.927-2.54-.99-1.276-.142.044-.035.011c-.474.15-.885.278-1.233.358-.37.085-.747.134-1.148.074a3 3 0 0 1-1.605-.774c-.296-.277-.492-.603-.656-.944a17.414 17.414 0 0 1-.488-1.189l-.013-.034-.083-.217ZM11.568 9h.864c.252 0 .498 0 .706.017.229.019.498.063.77.201a2 2 0 0 1 .874.874c.138.271.182.541.201.77.017.208.017.454.017.706v.864c0 .252 0 .498-.017.706a2.022 2.022 0 0 1-.201.77 2 2 0 0 1-.874.874 2.022 2.022 0 0 1-.77.201c-.208.017-.454.017-.706.017h-.864c-.252 0-.498 0-.706-.017a2.022 2.022 0 0 1-.77-.201 2 2 0 0 1-.874-.874 2.022 2.022 0 0 1-.201-.77C9 12.93 9 12.684 9 12.432v-.864c0-.252 0-.498.017-.706.019-.229.063-.499.2-.77a2 2 0 0 1 .875-.874 2.03 2.03 0 0 1 .77-.201C11.07 9 11.316 9 11.568 9Zm-.557 2.011v.014c-.01.116-.011.278-.011.575v.8c0 .296 0 .459.01.575l.001.014h.014c.116.01.278.011.575.011h.8c.296 0 .459 0 .575-.01l.014-.002v-.013c.01-.116.01-.278.01-.575v-.8c0-.296 0-.459-.01-.575v-.014h-.014A8.205 8.205 0 0 0 12.4 11h-.8c-.297 0-.459 0-.575.01l-.014.001Zm6.343 4.88a2.616 2.616 0 0 1 3.037 4.177 2.614 2.614 0 0 1-3.696 0l-.28-.28h.797a1 1 0 0 0 0-2H14a1 1 0 0 0-1 1V22a1 1 0 0 0 2 0v-.798l.28.28a4.614 4.614 0 1 0 1.165-7.373 1 1 0 1 0 .91 1.782Z" clip-rule="evenodd"/></svg>