<svg viewBox="0 0 24 24" xmlns="http://www.w3.org/2000/svg"><path fill-rule="evenodd" d="M9.207 5.793a1 1 0 1 0-1.414 1.414l2.934 2.934.017.017c.084.084.184.185.28.266.111.094.28.22.513.296a1.5 1.5 0 0 0 .926 0 1.52 1.52 0 0 0 .513-.296c.096-.081.196-.182.28-.266l.017-.017 2.934-2.934a1 1 0 0 0-1.414-1.414L13 7.586V2a1 1 0 1 0-2 0v5.586L9.207 5.793ZM7.2 2.882a1 1 0 0 1-.785 1.176 3 3 0 0 0-2.357 2.357C4.005 6.68 4 7.023 4 8v3.8c0 .576 0 .949.024 1.232.022.272.06.373.085.422a1 1 0 0 0 .437.437c.05.025.15.063.422.085C5.25 14 5.623 14 6.2 14h1.061c.227 0 .513-.002.788.077a2 2 0 0 1 .66.33c.228.173.399.402.534.584l.037.049.54.72c.094.126.142.189.179.233l.003.003h.004c.058.004.137.004.294.004h3.4c.157 0 .236 0 .294-.003h.004l.003-.004c.037-.044.085-.107.179-.233l.54-.72.037-.05c.135-.181.306-.41.534-.583a2 2 0 0 1 .66-.33c.275-.079.56-.078.788-.077H17.8c.577 0 .949 0 1.232-.024.272-.022.373-.06.422-.085a1 1 0 0 0 .437-.437c.025-.05.063-.15.085-.422.022-.273.024-.63.024-1.172V8c0-.977-.005-1.32-.058-1.585a3 3 0 0 0-2.357-2.357 1 1 0 0 1 .39-1.962 5 5 0 0 1 3.929 3.929C22 6.509 22 7.067 22 7.885v6.758c0 1.084 0 1.958-.058 2.666-.06.729-.185 1.369-.487 1.961a5 5 0 0 1-2.185 2.185c-.592.302-1.232.428-1.961.487C16.6 22 15.727 22 14.643 22H9.357c-1.084 0-1.958 0-2.666-.058-.728-.06-1.369-.185-1.96-.487a5 5 0 0 1-2.186-2.185c-.302-.592-.428-1.232-.487-1.961C2 16.6 2 15.727 2 14.643V7.884c0-.817 0-1.375.096-1.86a5 5 0 0 1 3.929-3.928 1 1 0 0 1 1.175.786ZM4.051 17.146c-.03-.367-.042-.796-.047-1.323.263.084.532.124.801.146.375.031.83.031 1.357.031H7.2c.157 0 .236 0 .294.003h.004l.003.004c.037.044.085.107.179.233l.54.72.037.05c.135.181.306.41.534.583a2 2 0 0 0 .66.33c.275.079.56.078.788.077h3.523c.226 0 .512.002.787-.077.239-.068.462-.18.66-.33.228-.173.399-.402.534-.584l.037-.049.54-.72c.094-.125.142-.189.179-.233l.003-.003h.004c.058-.004.137-.004.294-.004h1.039c.527 0 .982 0 1.356-.03a3.62 3.62 0 0 0 .801-.147c-.005.527-.017.956-.047 1.323-.05.605-.142.953-.276 1.216a3 3 0 0 1-1.311 1.311c-.263.134-.611.227-1.216.276-.617.05-1.41.051-2.546.051H9.4c-1.137 0-1.929 0-2.546-.051-.605-.05-.953-.142-1.216-.276a3 3 0 0 1-1.311-1.31c-.134-.264-.226-.612-.276-1.217Z" clip-rule="evenodd"/></svg>