<svg viewBox="0 0 24 24" xmlns="http://www.w3.org/2000/svg"><path fill-rule="evenodd" d="M12.899 1.5c.139-.002.428-.005.697.097a1.5 1.5 0 0 1 .59.404c.19.215.292.486.34.616l.014.036.133.345a16 16 0 0 0 .438 1.078c.11.23.177.308.217.346a1 1 0 0 0 .535.258c.054.008.157.012.406-.045.262-.06.596-.165 1.116-.328l.273-.086.037-.012c.134-.043.412-.134.701-.116a1.5 1.5 0 0 1 .69.215c.247.15.424.383.51.495l.023.03 1.09 1.403.023.03c.084.105.259.325.344.591.072.225.09.463.052.695-.044.276-.184.52-.251.636l-.018.033-.24.428c-.258.46-.422.754-.53.99-.104.223-.122.321-.125.375a1 1 0 0 0 .128.565c.027.047.085.127.275.284.2.165.476.36.906.662l.364.256.032.021c.111.077.344.237.504.468a1.5 1.5 0 0 1 .253.653c.038.278-.027.553-.057.685l-.009.037-.393 1.765-.008.037c-.028.136-.088.417-.244.656a1.5 1.5 0 0 1-.518.487c-.25.14-.533.182-.67.202l-.038.005-.35.055a16.42 16.42 0 0 0-1.123.198c-.244.058-.333.105-.378.136a1 1 0 0 0-.364.459c-.02.05-.047.148-.049.398-.002.263.022.605.06 1.139l.032.457.003.037c.011.137.035.419-.045.69a1.501 1.501 0 0 1-.35.61c-.193.206-.449.329-.572.388l-.034.016-1.558.77-.035.017c-.125.064-.386.197-.676.224a1.5 1.5 0 0 1-.716-.108c-.268-.112-.479-.316-.58-.414l-.028-.027-.213-.201a16.57 16.57 0 0 0-.866-.791c-.201-.162-.296-.204-.348-.22a.999.999 0 0 0-.598 0c-.052.016-.147.058-.348.22-.21.17-.468.413-.867.79l-.212.202-.028.027c-.101.098-.312.302-.58.414a1.5 1.5 0 0 1-.716.108c-.29-.027-.55-.16-.677-.224l-.034-.017-1.558-.77-.034-.016c-.123-.06-.379-.182-.573-.388a1.5 1.5 0 0 1-.35-.61 1.908 1.908 0 0 1-.044-.69l.002-.037.033-.457c.038-.534.062-.876.06-1.139-.002-.25-.029-.348-.049-.398a1 1 0 0 0-.365-.459c-.044-.03-.133-.078-.377-.136a16.31 16.31 0 0 0-1.123-.198l-.35-.055-.038-.005c-.137-.02-.42-.062-.67-.202a1.5 1.5 0 0 1-.518-.487 1.922 1.922 0 0 1-.244-.656l-.008-.037-.393-1.765-.009-.037c-.03-.132-.095-.407-.057-.685a1.5 1.5 0 0 1 .253-.653c.16-.231.392-.39.504-.468l.031-.021.365-.256c.43-.302.706-.497.906-.662.19-.157.248-.237.275-.284a1 1 0 0 0 .128-.565c-.003-.054-.021-.152-.124-.376a16.49 16.49 0 0 0-.53-.989l-.24-.428-.02-.033c-.066-.117-.206-.36-.25-.636a1.5 1.5 0 0 1 .052-.695c.085-.266.26-.486.343-.591l.024-.03 1.09-1.402.024-.031c.085-.112.262-.345.51-.495a1.5 1.5 0 0 1 .688-.215c.29-.018.568.073.702.116l.037.012.273.086c.52.163.854.268 1.116.328.25.057.352.053.406.045a1 1 0 0 0 .535-.258c.04-.038.106-.115.217-.346a16 16 0 0 0 .438-1.078l.133-.345.014-.036c.048-.13.15-.4.34-.616a1.5 1.5 0 0 1 .59-.404c.27-.102.558-.099.697-.097H12.9Zm-1.318 8h.839c.263 0 .49 0 .678.015.197.016.394.052.583.148a1.5 1.5 0 0 1 .655.656c.097.19.133.386.149.583.015.188.015.415.015.679v.839c0 .263 0 .49-.015.678a1.526 1.526 0 0 1-.149.583 1.5 1.5 0 0 1-.655.655 1.52 1.52 0 0 1-.583.149c-.188.015-.415.015-.679.015h-.839c-.263 0-.49 0-.678-.015a1.526 1.526 0 0 1-.583-.149 1.5 1.5 0 0 1-.656-.655 1.527 1.527 0 0 1-.148-.583c-.015-.188-.015-.415-.015-.679v-.839c0-.263 0-.49.015-.678.016-.197.052-.394.148-.583a1.5 1.5 0 0 1 .656-.656c.19-.096.386-.132.583-.148.188-.015.415-.015.679-.015Z" clip-rule="evenodd"/></svg>