<svg viewBox="0 0 24 24" xmlns="http://www.w3.org/2000/svg"><path fill-rule="evenodd" d="M11.973 2h.054c.21 0 .414 0 .588.012.19.013.416.043.65.14a2 2 0 0 1 1.083 1.083c.097.234.127.46.14.65.012.174.012.378.012.589v.052c0 .21 0 .415-.012.59a2.03 2.03 0 0 1-.14.65 2 2 0 0 1-1.083 1.082 2.03 2.03 0 0 1-.65.14C12.441 7 12.236 7 12.027 7h-.054c-.21 0-.414 0-.588-.012a2.03 2.03 0 0 1-.65-.14 2 2 0 0 1-1.083-1.083 2.029 2.029 0 0 1-.14-.65C9.5 4.941 9.5 4.737 9.5 4.526v-.052c0-.21 0-.415.012-.59.013-.19.043-.415.14-.65a2 2 0 0 1 1.083-1.082 2.03 2.03 0 0 1 .65-.14C11.559 2 11.763 2 11.973 2ZM4 15a7 7 0 0 1 7-7h2a7 7 0 0 1 7 7v1h2a1 1 0 0 1 1 1v1a1 1 0 0 1-1 1h-2a3 3 0 0 1-3 3H7a3 3 0 0 1-3-3H2a1 1 0 0 1-1-1v-1a1 1 0 0 1 1-1h2v-1Zm4 0a1 1 0 0 0-1 1v1a1 1 0 0 0 1 1h1a1 1 0 0 0 1-1v-1a1 1 0 0 0-1-1H8Zm7 0a1 1 0 0 0-1 1v1a1 1 0 0 0 1 1h1a1 1 0 0 0 1-1v-1a1 1 0 0 0-1-1h-1Z" clip-rule="evenodd"/></svg>