<svg viewBox="0 0 24 24" xmlns="http://www.w3.org/2000/svg"><path fill-rule="evenodd" d="M15.06 6.5a9.567 9.567 0 0 0 2.44-2.44 9.567 9.567 0 0 0 2.44 2.44 9.567 9.567 0 0 0-2.44 2.44 9.567 9.567 0 0 0-2.44-2.44Zm3.36-4.893c-.347-.808-1.493-.808-1.84 0a7.565 7.565 0 0 1-3.973 3.973c-.809.347-.808 1.493 0 1.84a7.566 7.566 0 0 1 3.974 3.973c.346.808 1.492.808 1.838 0a7.566 7.566 0 0 1 3.974-3.973c.809-.347.808-1.493 0-1.84a7.565 7.565 0 0 1-3.974-3.973ZM4 6a2 2 0 0 1 2-2h5.5a1 1 0 1 0 0-2H6a4 4 0 0 0-4 4v10.5A3.5 3.5 0 0 0 5.5 20h1.429a4 4 0 0 1 2.828 1.172l1.536 1.535a1 1 0 0 0 1.414 0l1.536-1.535A4 4 0 0 1 17.07 20h1.43a3.5 3.5 0 0 0 3.5-3.5v-4a1 1 0 1 0-2 0v4a1.5 1.5 0 0 1-1.5 1.5h-1.429a6 6 0 0 0-4.243 1.757l-.828.829-.828-.829A6 6 0 0 0 6.929 18H5.5A1.5 1.5 0 0 1 4 16.5V6Z" clip-rule="evenodd"/></svg>