<svg viewBox="0 0 24 24" xmlns="http://www.w3.org/2000/svg"><path fill-rule="evenodd" d="M11.6 1.5h-.032c-.252 0-.498 0-.706.017a2.022 2.022 0 0 0-.77.201 2 2 0 0 0-.874.874 2.022 2.022 0 0 0-.201.77C9 3.57 9 3.816 9 4.068v.864c0 .252 0 .498.017.706.019.229.063.499.201.77a2 2 0 0 0 .874.874c.271.138.541.182.77.201.044.004.09.007.138.009V8h-1a7 7 0 0 0-7 7v1H2a1 1 0 0 0-1 1v1a1 1 0 0 0 1 1h1a3 3 0 0 0 3 3h12a3 3 0 0 0 3-3h1a1 1 0 0 0 1-1v-1a1 1 0 0 0-1-1h-1v-1a7 7 0 0 0-7-7h-1v-.508c.048-.002.094-.005.138-.009a2.03 2.03 0 0 0 .77-.201 2 2 0 0 0 .874-.874 2.03 2.03 0 0 0 .201-.77C15 5.43 15 5.184 15 4.932v-.864c0-.252 0-.498-.017-.706a2.022 2.022 0 0 0-.201-.77 2 2 0 0 0-.874-.874 2.022 2.022 0 0 0-.77-.201c-.208-.017-.454-.017-.706-.017H11.6ZM10 10a5 5 0 0 0-5 5v4a1 1 0 0 0 1 1h12a1 1 0 0 0 1-1v-4a5 5 0 0 0-5-5h-4Zm1.01-6.475.001-.014h.014c.116-.01.278-.011.575-.011h.8c.296 0 .459 0 .575.01l.014.001v.014c.01.116.011.278.011.575v.8c0 .297 0 .459-.01.575l-.001.014h-.014c-.116.01-.278.011-.575.011h-.8c-.296 0-.459 0-.575-.01l-.014-.001v-.014A8.205 8.205 0 0 1 11 4.9v-.8c0-.297 0-.459.01-.575ZM14 16a1 1 0 0 1 1-1h1a1 1 0 0 1 1 1v1a1 1 0 0 1-1 1h-1a1 1 0 0 1-1-1v-1Zm-6-1a1 1 0 0 0-1 1v1a1 1 0 0 0 1 1h1a1 1 0 0 0 1-1v-1a1 1 0 0 0-1-1H8Z" clip-rule="evenodd"/></svg>