<svg viewBox="0 0 24 24" xmlns="http://www.w3.org/2000/svg"><path fill-rule="evenodd" d="M14.6 18h.043c1.084 0 1.958 0 2.666-.058.729-.06 1.369-.185 1.961-.487a5 5 0 0 0 2.185-2.185c.302-.592.428-1.232.487-1.961C22 12.6 22 11.727 22 10.643V9.357c0-1.084 0-1.958-.058-2.666-.06-.728-.185-1.369-.487-1.96a5 5 0 0 0-2.185-2.186c-.592-.302-1.232-.428-1.961-.487C16.6 2 15.727 2 14.643 2h-1.286c-1.084 0-1.958 0-2.666.058-.728.06-1.369.185-1.961.487A5 5 0 0 0 6.545 4.73c-.302.592-.428 1.233-.487 1.961C6 7.4 6 8.273 6 9.357v1.286c0 1.084 0 1.958.058 2.666.06.729.185 1.369.487 1.961a5 5 0 0 0 2.185 2.185c.592.302 1.233.428 1.961.487.708.058 1.582.058 2.666.058H14.6Zm3.762-2.327c-.263.134-.611.226-1.216.276-.617.05-1.41.051-2.546.051h-1.2c-1.137 0-1.929 0-2.546-.051-.605-.05-.953-.142-1.216-.276a3 3 0 0 1-1.311-1.311c-.134-.263-.226-.611-.276-1.216C8.001 12.529 8 11.736 8 10.6V9.4c0-1.137 0-1.929.051-2.546.05-.605.142-.953.276-1.216a3 3 0 0 1 1.311-1.311c.263-.134.611-.226 1.216-.276.617-.05 1.41-.051 2.546-.051h1.2c1.137 0 1.929 0 2.546.051.605.05.953.142 1.216.276a3 3 0 0 1 1.311 1.311c.134.263.226.611.276 1.216.05.617.051 1.41.051 2.546v1.2c0 1.137 0 1.929-.051 2.546-.05.605-.142.953-.276 1.216a3 3 0 0 1-1.311 1.311Zm-1.155-7.466a1 1 0 0 0-1.414-1.414L14 8.586l-1.793-1.793a1 1 0 1 0-1.414 1.414L12.586 10l-1.793 1.793a1 1 0 0 0 1.414 1.414L14 11.414l1.793 1.793a1 1 0 0 0 1.414-1.414L15.414 10l1.793-1.793Zm-12.88.431a1 1 0 0 0-1.782-.908c-.302.592-.428 1.233-.487 1.961C2 10.4 2 11.273 2 12.357v2.286c0 1.084 0 1.958.058 2.666.06.729.185 1.369.487 1.96a5 5 0 0 0 2.185 2.186c.592.302 1.233.428 1.961.487C7.4 22 8.273 22 9.357 22h2.286c1.084 0 1.958 0 2.666-.058.729-.06 1.369-.185 1.961-.487a1 1 0 0 0-.908-1.782c-.263.134-.611.226-1.216.276-.617.05-1.41.051-2.546.051H9.4c-1.137 0-1.929 0-2.546-.051-.605-.05-.953-.142-1.216-.276a3 3 0 0 1-1.311-1.311c-.134-.263-.226-.611-.276-1.216C4.001 16.529 4 15.736 4 14.6v-2.2c0-1.137 0-1.929.051-2.546.05-.605.142-.953.276-1.216Z" clip-rule="evenodd"/></svg>