<svg viewBox="0 0 24 24" xmlns="http://www.w3.org/2000/svg"><path fill-rule="evenodd" d="M2 4a1 1 0 0 1 1-1h14a1 1 0 1 1 0 2H3a1 1 0 0 1-1-1Zm1 4a1 1 0 0 0 0 2h8.5a1 1 0 1 0 0-2H3Zm-1 6a1 1 0 0 1 1-1h4a1 1 0 1 1 0 2H3a1 1 0 0 1-1-1Zm0 5a1 1 0 0 1 1-1h1.5a1 1 0 1 1 0 2H3a1 1 0 0 1-1-1Zm13.207-3.207a1 1 0 0 0-1.414 1.414l2.934 2.934.017.017c.084.084.184.185.28.266.111.094.28.22.512.296a1.5 1.5 0 0 0 .927 0 1.52 1.52 0 0 0 .513-.296c.096-.081.196-.182.28-.266l.017-.017 2.934-2.934a1 1 0 0 0-1.414-1.414L19 17.586V8.5a1 1 0 1 0-2 0v9.086l-1.793-1.793Z" clip-rule="evenodd"/></svg>