<svg viewBox="0 0 24 24" xmlns="http://www.w3.org/2000/svg"><path fill-rule="evenodd" d="M11.448 1.955a1.5 1.5 0 0 1 1.104 0l-.368.93.368-.93c.286.114.474.304.585.432.102.116.208.262.302.391l.017.023.542.746c.75 1.03 1.076 1.477 1.44 1.867.28.3.58.58.896.838l3.959-3.96a1 1 0 1 1 1.414 1.415l-4.569 4.569L6.442 18.973l-2.735 2.734a1 1 0 0 1-1.414-1.414l2.46-2.46a8.72 8.72 0 0 0-.04-1.32 9 9 0 0 0-.56-2.242c-.31-.788-.914-1.748-2.001-3.456l-.01-.014c-.05-.08-.107-.17-.153-.25a1.536 1.536 0 0 1-.163-.405 1.5 1.5 0 0 1 .61-1.577c.15-.104.297-.158.392-.19a5.84 5.84 0 0 1 .283-.082l.016-.004a44.662 44.662 0 0 0 1.86-.557l.008-.003c.062-.02.095-.03.254-.088a20.775 20.775 0 0 0 .563-.225 9 9 0 0 0 2.422-1.672l.105-.111a20.8 20.8 0 0 0 .304-.335c.111-.129.133-.155.173-.206l.005-.007c.291-.364.746-.944 1.18-1.541l.81.588-.81-.588.543-.747.017-.023c.095-.13.2-.275.302-.391.112-.128.3-.318.585-.432l.368.93-.368-.93ZM6.653 15.932l8.26-8.26a10.826 10.826 0 0 1-.937-.894c-.458-.49-.858-1.04-1.552-1.995l-.043-.06L12 4.2l-.382.524c-.46.632-.935 1.238-1.235 1.614-.061.077-.096.12-.226.27a20.58 20.58 0 0 1-.497.542l-.012.012-.004.004a11 11 0 0 1-3.009 2.076l-.004.003-.015.006c-.02.01-.038.016-.049.02a20.455 20.455 0 0 1-.635.252c-.187.07-.239.086-.333.116-.372.12-.928.295-1.53.466.917 1.442 1.577 2.5 1.945 3.436a11 11 0 0 1 .638 2.391Zm3.045-8.821c.005-.005.001-.002 0 0Zm9.337 1.716a1 1 0 0 1 1.229-.701l.61.167.016.004c.09.025.194.053.282.082.095.032.243.086.393.19a1.5 1.5 0 0 1 .649 1.256v.022a.981.981 0 0 1-.016.14l-.001.008-.001.008c-.01.064-.028.129-.031.142v.002c-.005.016-.021.078-.043.137-.037.1-.07.162-.094.207l-.145.265-.016.03-.018.03-.142.221c-1.083 1.702-1.55 2.444-1.86 3.234a8.999 8.999 0 0 0-.56 2.241c-.098.844-.035 1.72.12 3.738l.003.03c.013.17.027.358.025.52a1.529 1.529 0 0 1-.178.735 1.5 1.5 0 0 1-.89.71c-.308.09-.585.049-.755.013-.157-.033-.337-.089-.5-.139l-.029-.009-.671-.206c-1.782-.549-2.558-.784-3.34-.877a9.004 9.004 0 0 0-2.144 0c-.568.068-1.148.214-2.141.511a1 1 0 0 1-.574-1.916c1.008-.302 1.727-.491 2.477-.581.87-.105 1.75-.105 2.62 0 .982.118 1.936.411 3.588.92l.102.031.39.12c-.135-1.762-.209-2.807-.09-3.832.11-.938.34-1.859.686-2.739.385-.982.957-1.885 1.942-3.433l-.192-.053a1 1 0 0 1-.7-1.228Z" clip-rule="evenodd"/></svg>