<svg viewBox="0 0 24 24" xmlns="http://www.w3.org/2000/svg"><path fill-rule="evenodd" d="M11.448 1.955a1.5 1.5 0 0 1 1.104 0c.286.114.474.304.585.432.102.116.208.262.302.391l.017.023.542.746c.75 1.03 1.076 1.477 1.44 1.867.352.377.734.722 1.141 1.031l-5.126 6.936-1.685-2.021a1 1 0 1 0-1.536 1.28l1.848 2.217.017.022c.096.114.205.245.309.35.115.116.304.284.58.38a1.5 1.5 0 0 0 1.062-.032c.27-.11.449-.29.558-.412.098-.111.199-.248.287-.368l.017-.022 5.396-7.3.012.005 1.225-1.68.73-.986a1 1 0 0 1 1.535 1.275l-1.495 2.05.56.154.017.004c.09.025.194.053.282.082.095.032.243.086.393.19.508.35.75.976.61 1.577a1.533 1.533 0 0 1-.164.404 5.105 5.105 0 0 1-.153.251l-.01.014-.14.223c-1.083 1.701-1.55 2.443-1.86 3.233a9.003 9.003 0 0 0-.56 2.241c-.1.844-.036 1.72.12 3.738l.002.03c.013.17.027.358.025.52a1.529 1.529 0 0 1-.178.735 1.5 1.5 0 0 1-.89.71c-.308.09-.585.049-.755.013-.157-.033-.337-.089-.5-.139l-.029-.009-.671-.206c-1.782-.549-2.558-.784-3.34-.877a9.004 9.004 0 0 0-2.144 0c-.782.093-1.557.328-3.339.877l-.672.206-.028.009c-.163.05-.343.106-.5.139a1.53 1.53 0 0 1-.756-.012 1.5 1.5 0 0 1-.889-.711 1.529 1.529 0 0 1-.178-.735 6.19 6.19 0 0 1 .025-.52l.003-.03c.155-2.017.218-2.894.12-3.738a9 9 0 0 0-.561-2.24c-.31-.791-.777-1.533-1.86-3.234l-.141-.223-.01-.014c-.05-.08-.107-.17-.153-.25a1.536 1.536 0 0 1-.163-.405 1.5 1.5 0 0 1 .61-1.577c.15-.104.297-.158.392-.19.089-.029.192-.057.283-.082l.016-.004c1.228-.335 1.762-.483 2.256-.685a9 9 0 0 0 3.179-2.194c.364-.39.691-.837 1.44-1.866l.542-.747.017-.023c.095-.13.2-.275.302-.391.112-.128.3-.318.585-.432Z" clip-rule="evenodd"/></svg>