<svg viewBox="0 0 24 24" xmlns="http://www.w3.org/2000/svg"><path fill-rule="evenodd" d="M11.448 1.955a1.5 1.5 0 0 1 1.104 0c.286.114.473.304.585.432.102.116.208.262.302.391l.017.023.542.746c.749 1.03 1.076 1.477 1.44 1.867a9 9 0 0 0 3.179 2.194c.494.202 1.028.35 2.256.685l.016.004c.092.025.195.053.283.082.095.032.243.086.393.19.508.35.75.976.61 1.577a1.536 1.536 0 0 1-.164.404c-.045.081-.103.171-.154.251l-.009.014-.141.223c-1.083 1.701-1.55 2.443-1.86 3.233a8.999 8.999 0 0 0-.56 2.241c-.098.844-.035 1.72.12 3.738l.002.03c.013.17.028.358.026.52a1.529 1.529 0 0 1-.178.735 1.5 1.5 0 0 1-.89.71c-.308.09-.585.049-.755.013-.157-.033-.338-.089-.5-.139l-.029-.009-.671-.206c-1.782-.549-2.558-.784-3.34-.877a9.004 9.004 0 0 0-2.144 0c-.782.093-1.557.328-3.34.877l-.67.206-.03.009c-.162.05-.342.106-.5.139a1.53 1.53 0 0 1-.755-.012 1.5 1.5 0 0 1-.89-.711 1.529 1.529 0 0 1-.177-.735c-.003-.162.012-.35.025-.52l.002-.03c.155-2.017.219-2.894.12-3.738a9 9 0 0 0-.56-2.24c-.31-.791-.777-1.533-1.86-3.234l-.141-.223-.01-.014c-.05-.08-.108-.17-.153-.25a1.536 1.536 0 0 1-.164-.405 1.5 1.5 0 0 1 .61-1.577c.15-.104.298-.158.393-.19a5.84 5.84 0 0 1 .283-.082l.016-.004c1.228-.335 1.762-.483 2.256-.685a9 9 0 0 0 3.179-2.194c.364-.39.69-.837 1.44-1.866l.542-.747.017-.023c.094-.13.2-.275.302-.391.112-.128.299-.318.585-.432ZM12 4.2l-.38.524-.044.059c-.694.954-1.095 1.505-1.552 1.995A11 11 0 0 1 6.14 9.46c-.555.226-1.138.393-2.068.648.986 1.548 1.558 2.45 1.943 3.433a11 11 0 0 1 .685 2.74c.12 1.024.045 2.069-.09 3.831l.39-.12.102-.031c1.652-.509 2.607-.802 3.588-.92.87-.105 1.75-.105 2.62 0 .982.118 1.936.411 3.588.92l.102.031.39.12c-.135-1.762-.21-2.807-.09-3.832.11-.938.34-1.859.685-2.739.386-.982.957-1.885 1.943-3.433-.93-.255-1.514-.422-2.068-.648a11 11 0 0 1-3.885-2.682c-.457-.49-.857-1.04-1.552-1.995l-.042-.06L12 4.2Z" clip-rule="evenodd"/></svg>