<svg viewBox="0 0 24 24" xmlns="http://www.w3.org/2000/svg"><path fill-rule="evenodd" d="M12 9a1 1 0 0 0 1-1V2a1 1 0 1 0-2 0v6a1 1 0 0 0 1 1ZM8.832 6.445a1 1 0 0 1-.277 1.387c-1.322.881-2.869 1.543-4.546 2.176l.033.053c1.004 1.577 1.584 2.488 1.973 3.48a11 11 0 0 1 .685 2.74c.12 1.024.045 2.069-.09 3.831l.39-.12.102-.031c1.652-.509 2.607-.802 3.588-.92.87-.105 1.75-.105 2.62 0 .982.118 1.936.411 3.588.92l.102.03.39.121c-.135-1.762-.209-2.807-.09-3.832.11-.938.34-1.859.685-2.739.39-.992.97-1.903 1.973-3.48l.045-.072c-1.284-.514-3.467-1.43-4.558-2.157a1 1 0 0 1 1.11-1.664c.94.627 3.093 1.529 4.396 2.046l.025.01c.137.054.292.116.42.18.143.071.358.194.534.418.22.281.332.628.318.984a1.522 1.522 0 0 1-.185.65 5.17 5.17 0 0 1-.235.39l-.014.023-.107.168c-1.083 1.702-1.55 2.444-1.86 3.234a8.998 8.998 0 0 0-.56 2.241c-.098.844-.035 1.72.12 3.738l.002.03c.014.17.028.358.026.52a1.528 1.528 0 0 1-.178.734 1.5 1.5 0 0 1-.89.711c-.308.09-.585.049-.755.013a6.093 6.093 0 0 1-.5-.14l-.029-.008-.671-.206c-1.782-.549-2.558-.784-3.34-.877a9.004 9.004 0 0 0-2.144 0c-.782.093-1.557.328-3.339.877l-.672.206-.028.009c-.163.05-.343.106-.5.139-.17.036-.448.078-.756-.013a1.5 1.5 0 0 1-.89-.71 1.53 1.53 0 0 1-.177-.735c-.003-.162.012-.35.025-.52l.002-.03c.156-2.017.219-2.894.12-3.738a9 9 0 0 0-.56-2.24c-.31-.791-.777-1.533-1.86-3.234l-.102-.16-.014-.023a5.504 5.504 0 0 1-.235-.393 1.52 1.52 0 0 1-.185-.656c-.012-.36.105-.71.332-.991a1.52 1.52 0 0 1 .544-.414c.131-.062.288-.12.427-.172l.025-.01c1.744-.652 3.185-1.267 4.36-2.051a1 1 0 0 1 1.387.277ZM11.5 13.5a1 1 0 0 1-1-1v-1a1 1 0 0 1 1-1h1a1 1 0 0 1 1 1v1a1 1 0 0 1-1 1h-1Z" clip-rule="evenodd"/></svg>