<svg viewBox="0 0 24 24" xmlns="http://www.w3.org/2000/svg"><path fill-rule="evenodd" d="M12.744 2.161a1.7 1.7 0 0 0-1.488 0c-.261.128-.44.314-.56.454-.111.13-.23.295-.348.456l-.017.024-.72.99c-.355.488-.51.7-.67.896a9 9 0 0 1-4.098 2.828c-.24.08-.492.15-1.074.308l-.045.013c-.15.04-.329.089-.478.156a2 2 0 0 0-1.01 2.614c.065.15.164.306.248.438l.025.039.332.522c.76 1.194 1.088 1.714 1.338 2.258a9 9 0 0 1 .737 2.532c.082.593.084 1.209.084 2.624v.031c0 .29 0 .558.016.78.017.231.057.52.2.803a2 2 0 0 0 1.607 1.088c.316.028.6-.042.82-.113.212-.067.461-.167.73-.274l.03-.012 1.969-.788a1 1 0 1 0-.743-1.857l-1.97.788a9.999 9.999 0 0 1-.622.237l-.024.008-.002-.026C7 19.838 7 19.644 7 19.313v-.08c0-1.313 0-2.071-.102-2.816a11 11 0 0 0-.901-3.095c-.314-.683-.72-1.322-1.426-2.43l-.043-.067-.332-.522a9.403 9.403 0 0 1-.116-.184l-.005-.01.01-.004.21-.058.033-.01c.54-.146.851-.231 1.152-.332a11 11 0 0 0 5.008-3.457c.2-.245.39-.506.72-.958l.02-.028.72-.991L12 4.2l.051.07.598.822.028.038c.443.61.699.961.977 1.287a11 11 0 0 0 4.657 3.215c.403.144.823.258 1.55.457l.045.012c.12.033.188.051.236.066l.01.003-.003.01a8.794 8.794 0 0 1-.09.228l-.088.22a1 1 0 1 0 1.857.742l.088-.219.02-.048a3.1 3.1 0 0 0 .184-.563 2 2 0 0 0-1.077-2.163c-.179-.089-.388-.145-.56-.192l-.05-.014c-.785-.214-1.126-.307-1.447-.422a9 9 0 0 1-3.81-2.63c-.222-.26-.43-.546-.91-1.203l-.597-.822-.017-.024c-.118-.161-.237-.326-.349-.456a1.743 1.743 0 0 0-.56-.454Zm-.502 1.726-.003.002a.02.02 0 0 1 .003-.002Zm-.482.002-.002-.002.002.002ZM19 14a1 1 0 1 0-2 0v3h-3a1 1 0 0 0 0 2h3v3a1 1 0 0 0 2 0v-3h3a1 1 0 1 0 0-2h-3v-3Z" clip-rule="evenodd"/></svg>