<svg viewBox="0 0 24 24" xmlns="http://www.w3.org/2000/svg"><path fill-rule="evenodd" d="M12.552 1.955a1.5 1.5 0 0 0-1.104 0 1.523 1.523 0 0 0-.585.432 5.773 5.773 0 0 0-.302.391l-.017.023-.542.747c-.749 1.03-1.076 1.476-1.44 1.866a9 9 0 0 1-3.179 2.194c-.494.202-1.028.35-2.256.685l-.016.004a6.188 6.188 0 0 0-.283.082 1.534 1.534 0 0 0-.393.19 1.5 1.5 0 0 0-.61 1.577c.042.177.115.317.164.404.046.081.103.171.154.251l.009.014.141.223c1.083 1.701 1.55 2.443 1.86 3.233a9 9 0 0 1 .56 2.241c.099.844.036 1.72-.12 3.738l-.002.03a6.19 6.19 0 0 0-.025.52c.002.173.022.453.178.735.191.344.51.6.89.71.307.09.585.049.754.013.158-.033.338-.089.5-.139l.03-.009.671-.206c1.782-.549 2.557-.784 3.34-.877a9.004 9.004 0 0 1 2.143 0c.782.093 1.558.328 3.34.877l.671.206.029.009c.163.05.343.106.5.139.17.036.447.078.756-.013a1.5 1.5 0 0 0 .889-.71 1.53 1.53 0 0 0 .178-.735 6.05 6.05 0 0 0-.025-.52l-.003-.03c-.155-2.017-.218-2.894-.12-3.738.09-.768.278-1.52.56-2.24.31-.791.777-1.533 1.86-3.235l.142-.222.009-.014c.05-.08.108-.17.153-.25.05-.088.122-.228.164-.405a1.5 1.5 0 0 0-.61-1.577 1.533 1.533 0 0 0-.393-.19 5.683 5.683 0 0 0-.282-.082l-.017-.004c-1.228-.335-1.762-.483-2.256-.685a9 9 0 0 1-3.179-2.194c-.364-.39-.69-.837-1.44-1.866l-.542-.747-.017-.023c-.094-.13-.2-.275-.302-.391a1.524 1.524 0 0 0-.585-.432Z" clip-rule="evenodd"/></svg>