<svg viewBox="0 0 24 24" xmlns="http://www.w3.org/2000/svg"><path fill-rule="evenodd" d="M12.552 1.955a1.5 1.5 0 0 0-1.104 0l.368.93-.368-.93a1.524 1.524 0 0 0-.585.432c-.102.116-.208.262-.302.391l-.017.023-.542.747.808.588-.808-.588c-.75 1.03-1.076 1.476-1.44 1.866a9 9 0 0 1-3.179 2.194c-.494.202-1.028.35-2.256.685l-.016.004a5.698 5.698 0 0 0-.283.082 1.535 1.535 0 0 0-.393.19 1.5 1.5 0 0 0-.61 1.577c.042.177.115.317.164.404.045.081.103.171.153.251l.01.014.141.223c1.083 1.701 1.55 2.443 1.86 3.233a9 9 0 0 1 .56 2.241c.099.844.035 1.72-.12 3.738l-.002.03c-.013.17-.028.358-.025.52.002.173.021.453.178.735.191.344.51.6.889.71.308.09.585.049.755.013.158-.033.338-.089.5-.139l.03-.009.67-.206-.293-.956.294.956c1.782-.549 2.557-.784 3.34-.877a9.004 9.004 0 0 1 2.143 0c.782.093 1.558.328 3.34.877l.671.206.029.009c.162.05.343.106.5.139.17.036.447.078.756-.013a1.5 1.5 0 0 0 .889-.71c.156-.282.175-.562.178-.735.002-.162-.013-.35-.026-.52l-.002-.03c-.155-2.017-.218-2.894-.12-3.738.09-.768.278-1.52.56-2.24.142-.363.48-.98.952-1.766.461-.767 1.012-1.632 1.544-2.47a1 1 0 0 0-1.687-1.073l-.002.003c-.529.831-1.093 1.718-1.569 2.51-.465.774-.888 1.525-1.1 2.065-.345.88-.575 1.8-.684 2.74-.12 1.024-.046 2.069.09 3.831l-.391-.12-.102-.031c-1.652-.509-2.606-.802-3.588-.92-.87-.105-1.75-.105-2.62 0-.981.118-1.936.411-3.588.92L7 19.992l-.391.12c.135-1.762.21-2.807.09-3.832a11 11 0 0 0-.685-2.739c-.385-.982-.957-1.885-1.943-3.433.93-.255 1.513-.422 2.068-.648a11 11 0 0 0 3.885-2.682c.457-.49.857-1.04 1.551-1.995l.043-.06L12 4.2l1.192 1.638a1 1 0 1 0 1.617-1.176l-1.352-1.86-.017-.024c-.094-.13-.2-.275-.302-.391a1.523 1.523 0 0 0-.585-.432l-.368.93.368-.93Zm1.355 11.836L20.8 4.6a1 1 0 1 0-1.6-1.2l-6.741 8.988-1.69-2.028a1 1 0 0 0-1.537 1.28l1.852 2.223.018.021c.094.114.203.244.306.348.116.116.304.283.578.379.344.12.72.11 1.058-.027.27-.11.448-.286.558-.408.098-.11.2-.245.288-.364l.017-.021Z" clip-rule="evenodd"/></svg>