<svg viewBox="0 0 24 24" xmlns="http://www.w3.org/2000/svg"><path fill-rule="evenodd" d="M12.691 5.15 12 4.2l-.38.524-.044.059c-.694.954-1.095 1.505-1.552 1.995A11 11 0 0 1 6.14 9.46c-.555.226-1.138.393-2.068.648.986 1.548 1.558 2.45 1.943 3.433a11 11 0 0 1 .685 2.74c.12 1.024.045 2.069-.09 3.831l.39-.12.102-.031c1.652-.509 2.607-.802 3.588-.92.87-.105 1.75-.105 2.62 0 .982.118 1.936.411 3.588.92l.102.031.39.12-.004-.06c-.137-1.784-.217-2.815-.106-3.83.098-.902.307-1.787.622-2.637.355-.958.887-1.844 1.808-3.379l.056-.094.376-.626a1 1 0 1 1 1.715 1.028l-.375.627c-.994 1.655-1.422 2.377-1.705 3.14a9 9 0 0 0-.509 2.157c-.088.81-.028 1.646.12 3.57l.02.244.001.03c.014.17.028.357.026.518a1.527 1.527 0 0 1-.178.735 1.5 1.5 0 0 1-.89.71c-.308.09-.585.049-.755.013-.157-.033-.338-.089-.5-.139l-.029-.009-.671-.206c-1.782-.549-2.558-.784-3.34-.877a9.004 9.004 0 0 0-2.144 0c-.782.093-1.557.328-3.34.877l-.67.206-.03.009c-.162.05-.342.106-.5.139a1.53 1.53 0 0 1-.755-.012 1.5 1.5 0 0 1-.89-.711 1.529 1.529 0 0 1-.177-.735c-.003-.162.012-.35.025-.52l.002-.03c.155-2.017.219-2.894.12-3.738a9 9 0 0 0-.56-2.24c-.31-.791-.777-1.533-1.86-3.234l-.141-.223-.01-.014c-.05-.08-.108-.17-.153-.25a1.536 1.536 0 0 1-.164-.405 1.5 1.5 0 0 1 .61-1.577c.15-.104.298-.158.393-.19a5.84 5.84 0 0 1 .283-.082l.016-.004c1.228-.335 1.762-.483 2.256-.685a9 9 0 0 0 3.179-2.194c.364-.39.69-.837 1.44-1.866l.542-.746.017-.024c.094-.13.2-.275.302-.391.112-.128.299-.318.585-.432a1.5 1.5 0 0 1 1.104 0c.286.114.473.304.585.432.102.116.208.262.302.391l.017.023.853 1.173a1 1 0 0 1-1.618 1.177ZM13 9.5a.998.998 0 0 0-.187.26L11.4 12.585c-.13.261-.196.392-.174.467a.2.2 0 0 0 .135.136c.076.022.207-.043.468-.174l2.825-1.412a.997.997 0 0 0 .26-.188l6.543-6.457a1.354 1.354 0 0 0-1.915-1.914L13 9.5Z" clip-rule="evenodd"/></svg>