<svg viewBox="0 0 24 24" xmlns="http://www.w3.org/2000/svg"><path fill-rule="evenodd" d="M9.22 2a3.62 3.62 0 0 0-3.571 3.025L3.324 18.973l-.006.034a10 10 0 0 0-.113.804 2.04 2.04 0 0 0 .1.885 2 2 0 0 0 .88 1.039c.298.17.604.223.858.245.235.02.516.02.81.02H18.6c.301 0 .588 0 .828-.02a2.04 2.04 0 0 0 .87-.253 2 2 0 0 0 .88-1.063c.115-.33.108-.646.082-.903-.025-.239-.08-.521-.136-.817l-.007-.035-1.763-9.171a3.375 3.375 0 0 0-6.087-1.29l-.462-3.326A3.62 3.62 0 0 0 9.22 2Zm4.842 12.174.676 4.868.005.035c.039.284.077.557.089.788.002.043.004.088.004.135h3.727c.35 0 .548 0 .69-.013l.018-.002-.002-.018a9.162 9.162 0 0 0-.117-.68l-1.764-9.171a1.375 1.375 0 0 0-2.71.05l-.613 3.986c0 .008-.002.015-.003.022ZM12.162 20c.335 0 .522 0 .657-.012l.016-.002v-.017a8.821 8.821 0 0 0-.078-.652l-1.934-13.92a1.62 1.62 0 0 0-3.201-.044L5.297 19.301a9.042 9.042 0 0 0-.098.667l-.001.017.017.002c.138.012.331.013.674.013h6.273Z" clip-rule="evenodd"/></svg>