<svg viewBox="0 0 24 24" xmlns="http://www.w3.org/2000/svg"><path fill-rule="evenodd" d="M12 4a7 7 0 0 0-7 7v.535A3.982 3.982 0 0 1 7 11h.364c.123 0 .243 0 .354.01a2.5 2.5 0 0 1 2.272 2.272c.01.11.01.23.01.354v2.728c0 .123 0 .244-.01.354a2.5 2.5 0 0 1-2.272 2.273c-.11.01-.23.01-.354.009H7a4 4 0 0 1-3.986-4.334A1.006 1.006 0 0 1 3 14.5V11a9 9 0 0 1 18 0v6a5.002 5.002 0 0 1-5 5h-3a1 1 0 1 1 0-2h3c1.013 0 1.91-.502 2.453-1.272A3.99 3.99 0 0 1 17 19h-.364c-.123 0-.244 0-.354-.01a2.5 2.5 0 0 1-2.273-2.272c-.01-.11-.01-.23-.009-.354v-2.728c0-.123 0-.243.01-.354a2.5 2.5 0 0 1 2.272-2.273c.11-.01.23-.01.354-.009H17c.729 0 1.412.195 2 .535V11a7 7 0 0 0-7-7Z" clip-rule="evenodd"/></svg>