<svg viewBox="0 0 24 24" xmlns="http://www.w3.org/2000/svg"><path fill-rule="evenodd" d="M5 14.333V15a2 2 0 0 0 2 2h.5l.044-.002a.5.5 0 0 0 .454-.454L8 16.5v-4l-.002-.044a.5.5 0 0 0-.454-.454L7.5 12h-.167c-.33 0-.431.001-.507.008a2 2 0 0 0-1.818 1.818 7.049 7.049 0 0 0-.008.507ZM3 14.5V11a9 9 0 0 1 18 0v6a5.002 5.002 0 0 1-5 5h-3a1 1 0 1 1 0-2h3c1.013 0 1.91-.502 2.453-1.272A3.99 3.99 0 0 1 17 19h-.364c-.123 0-.244 0-.354-.01a2.5 2.5 0 0 1-2.273-2.272c-.01-.11-.01-.23-.009-.354v-3.728c0-.123 0-.243.01-.354a2.5 2.5 0 0 1 2.272-2.273c.11-.01.23-.01.354-.009h.076c.265 0 .462 0 .637.015a3.988 3.988 0 0 1 1.635.511 7 7 0 0 0-13.968 0 3.968 3.968 0 0 1 1.635-.51C6.826 10 7.023 10 7.287 10h.077c.123 0 .243 0 .354.01a2.5 2.5 0 0 1 2.273 2.272c.01.11.01.23.009.354v3.728c0 .123 0 .244-.01.354a2.5 2.5 0 0 1-2.272 2.273c-.11.01-.23.01-.354.009H7a4 4 0 0 1-4-4v-.5Zm16 .5v-.667c0-.33 0-.431-.008-.507a2 2 0 0 0-1.818-1.818 7.086 7.086 0 0 0-.507-.008H16.5l-.044.002a.5.5 0 0 0-.454.454L16 12.5l-.001.167V16.5l.002.044a.5.5 0 0 0 .454.454L16.5 17l.167.001H17a2 2 0 0 0 2-2Z" clip-rule="evenodd"/></svg>