<svg viewBox="0 0 24 24" xmlns="http://www.w3.org/2000/svg"><path fill-rule="evenodd" d="M10.293 9.207a1 1 0 0 0 1.414-1.414L8.273 4.359l-.017-.017a4.932 4.932 0 0 0-.28-.266 1.508 1.508 0 0 0-.512-.295 1.5 1.5 0 0 0-.928 0 1.508 1.508 0 0 0-.512.295 4.928 4.928 0 0 0-.28.266l-.017.017-3.434 3.434a1 1 0 0 0 1.414 1.414L6 6.914V19a1 1 0 1 0 2 0V6.914l2.293 2.293Zm3.414 5.586a1 1 0 1 0-1.414 1.414l3.434 3.434.017.017c.084.084.184.185.28.266.111.094.28.22.512.296a1.5 1.5 0 0 0 .927 0 1.52 1.52 0 0 0 .513-.296c.096-.081.196-.182.28-.266l.017-.017 3.434-3.434a1 1 0 0 0-1.414-1.414L18 17.086V5a1 1 0 1 0-2 0v12.086l-2.293-2.293Z" clip-rule="evenodd"/></svg>