<svg viewBox="0 0 24 24" xmlns="http://www.w3.org/2000/svg"><path fill-rule="evenodd" d="M4.104 13.779a9.902 9.902 0 0 1-.216-.74l-.004-.022.022-.002c.16-.014.383-.015.77-.015h14.648c.387 0 .61.001.77.015l.022.002-.005.023c-.034.156-.1.37-.215.739l-1.149 3.677c-.278.89-.35 1.062-.442 1.175a1 1 0 0 1-.404.297c-.136.055-.322.072-1.254.072H7.353c-.932 0-1.119-.017-1.254-.072a1 1 0 0 1-.404-.297c-.092-.113-.164-.285-.442-1.175l-1.15-3.677Zm-2.177-1.292c-.097.365-.052.706.007.976.055.256.15.556.25.876l.01.037 1.15 3.677.044.141c.206.665.388 1.248.756 1.7a3 3 0 0 0 1.213.892c.541.216 1.152.215 1.848.214h9.59c.696.001 1.307.002 1.848-.214a3 3 0 0 0 1.213-.892c.368-.452.55-1.035.756-1.7l.044-.141 1.15-3.678.01-.036c.1-.32.195-.62.25-.876.059-.27.104-.61.007-.976a2 2 0 0 0-.867-1.18c-.32-.2-.659-.26-.934-.284-.26-.023-.575-.023-.91-.023H4.638c-.335 0-.65 0-.91.023-.276.025-.614.084-.934.285a2 2 0 0 0-.867 1.18ZM6.5 5h11a1 1 0 1 0 0-2h-11a1 1 0 0 0 0 2Zm-2 2a1 1 0 1 0 0 2h15a1 1 0 1 0 0-2h-15Z" clip-rule="evenodd"/></svg>