<svg viewBox="0 0 24 24" xmlns="http://www.w3.org/2000/svg"><path fill-rule="evenodd" d="M12 2a1 1 0 0 1 1 1h5.838c.528 0 .982 0 1.357.03.395.033.788.104 1.167.297a3 3 0 0 1 1.31 1.311c.194.378.265.772.297 1.167.03.375.03.83.03 1.356v8.679c0 .527 0 .981-.03 1.356-.032.395-.103.789-.296 1.167a3 3 0 0 1-1.311 1.311c-.378.193-.772.264-1.167.296a8.1 8.1 0 0 1-.395.022c.132.318.2.661.2 1.009a1 1 0 1 1-2 0 .652.652 0 0 0-.11-.361l-.424-.64h-9.93l-.426.639A.651.651 0 0 0 7 21a1 1 0 1 1-2 0c0-.348.068-.69.2-1.01a8.112 8.112 0 0 1-.395-.02c-.395-.033-.789-.104-1.167-.297a3 3 0 0 1-1.311-1.311c-.193-.378-.264-.772-.296-1.167A17.9 17.9 0 0 1 2 15.839V7.16c0-.527 0-.981.03-1.356.033-.395.104-.789.297-1.167a3 3 0 0 1 1.311-1.311c.378-.193.772-.264 1.167-.296C5.18 3 5.635 3 6.161 3H11a1 1 0 0 1 1-1Zm0 5a1 1 0 0 0-1 1v8a1 1 0 0 0 1 1h1a1 1 0 0 0 1-1V8a1 1 0 0 0-1-1h-1Zm5 3a1 1 0 0 0-1 1v5a1 1 0 0 0 1 1h1a1 1 0 0 0 1-1v-5a1 1 0 0 0-1-1h-1ZM7 12a1 1 0 0 0-1 1v3a1 1 0 0 0 1 1h1a1 1 0 0 0 1-1v-3a1 1 0 0 0-1-1H7Z" clip-rule="evenodd"/></svg>