<svg viewBox="0 0 24 24" xmlns="http://www.w3.org/2000/svg"><path fill-rule="evenodd" d="M12 2C5.925 2 1 6.925 1 13v3.421A4.579 4.579 0 0 0 5.579 21H18.42A4.579 4.579 0 0 0 23 16.421V13c0-1.451-.282-2.839-.794-4.11a1 1 0 0 0-1.855.748A8.973 8.973 0 0 1 21 13v3.421A2.579 2.579 0 0 1 18.421 19H5.58A2.579 2.579 0 0 1 3 16.421V13a9 9 0 0 1 9-9 8.96 8.96 0 0 1 5.724 2.055l-.997 1.122A7.5 7.5 0 0 0 4.5 13v1a1 1 0 1 0 2 0v-1a5.5 5.5 0 0 1 8.896-4.326l-2.098 2.36a2.894 2.894 0 0 0-.16-.017C12.93 11 12.684 11 12.432 11h-.864c-.252 0-.498 0-.706.017a2.022 2.022 0 0 0-.77.201 2 2 0 0 0-.874.874 2.022 2.022 0 0 0-.201.77C9 13.07 9 13.316 9 13.568v.864c0 .252 0 .498.017.706.019.229.063.499.201.77a2 2 0 0 0 .874.874c.271.138.541.182.77.201.208.017.454.017.706.017h.864c.252 0 .498 0 .706-.017a2.03 2.03 0 0 0 .77-.201 2 2 0 0 0 .874-.874 2.03 2.03 0 0 0 .201-.77c.017-.208.017-.454.017-.706v-.864c0-.252 0-.498-.017-.706a2.193 2.193 0 0 0-.118-.58l5.882-6.618a1 1 0 0 0-1.494-1.328l-.2.223A10.959 10.959 0 0 0 12 2Zm7.355 9.525a1 1 0 1 0-1.961.392c.07.35.106.711.106 1.083v1a1 1 0 1 0 2 0v-1c0-.504-.05-.997-.145-1.475Zm-8.345 1.5.001-.014h.014c.116-.01.278-.011.575-.011h.8c.296 0 .459 0 .575.01l.014.001v.014c.01.116.011.278.011.575v.8c0 .296 0 .459-.01.575l-.001.014h-.014c-.116.01-.278.011-.575.011h-.8c-.296 0-.459 0-.575-.01l-.014-.001v-.014A8.207 8.207 0 0 1 11 14.4v-.8c0-.296 0-.459.01-.575Z" clip-rule="evenodd"/></svg>