<svg viewBox="0 0 24 24" xmlns="http://www.w3.org/2000/svg"><path fill-rule="evenodd" d="M20.9 4.687a1 1 0 0 0-1.434-1.052L2.975 11.88l2.987 1.15a2 2 0 0 0 1.777-.171l6.73-4.207a1 1 0 0 1 1.372 1.389l-3.503 5.45a1 1 0 0 0 .234 1.334l4.106 3.14a1.2 1.2 0 0 0 1.914-.764L20.9 4.687Zm-2.328-2.84C20.756.753 23.26 2.588 22.876 5l-2.31 14.514c-.38 2.393-3.178 3.51-5.103 2.04l-4.106-3.14a3 3 0 0 1-.701-4.006l1.09-1.696-2.947 1.842a4 4 0 0 1-3.555.34l-2.987-1.148C.634 13.123.526 10.87 2.08 10.092l16.492-8.246Z" clip-rule="evenodd"/></svg>