<svg viewBox="0 0 24 24" xmlns="http://www.w3.org/2000/svg"><path fill-rule="evenodd" d="M12.132 3.552c.4-.2.64-.319.818-.388l.029-.011.003.03c.017.19.018.458.018.906V19.4c0 .297 0 .459-.01.575l-.001.013-.013.002c-.117.01-.28.01-.576.01H4.6c-.296 0-.459 0-.575-.01l-.013-.002-.001-.013A8.187 8.187 0 0 1 4 19.4V8.978c0-.79.012-.947.054-1.068a1 1 0 0 1 .23-.374c.09-.09.224-.173.931-.526l6.916-3.458Zm1.16-2.413c-.416-.061-.788.052-1.07.162-.274.107-.596.268-.948.444l-.036.018-6.916 3.458-.111.056c-.532.264-.999.497-1.354.86a3 3 0 0 0-.693 1.12C2 7.738 2 8.26 2 8.854v10.579c0 .252 0 .498.017.706.019.229.063.498.201.77a2 2 0 0 0 .874.874c.272.138.541.182.77.201.208.017.454.017.706.017h7.864c.253 0 .498 0 .706-.017a2.02 2.02 0 0 0 .77-.201 2 2 0 0 0 .874-.874c.139-.271.183-.541.201-.77.017-.208.017-.454.017-.706V4.048c0-.393 0-.754-.027-1.047-.027-.301-.093-.684-.334-1.03a2 2 0 0 0-1.346-.832ZM20 5.5V21a1 1 0 1 0 2 0V5.5a1 1 0 1 0-2 0Zm-3.5-2V21a1 1 0 1 0 2 0V3.5a1 1 0 1 0-2 0Z" clip-rule="evenodd"/></svg>