<svg viewBox="0 0 24 24" xmlns="http://www.w3.org/2000/svg"><path fill-rule="evenodd" d="M17 1h-.116c-.817 0-1.375 0-1.86.096a5 5 0 0 0-3.928 3.929C11 5.509 11 6.067 11 6.885v.231c0 .817 0 1.375.096 1.86a5 5 0 0 0 3.928 3.928c.485.096 1.043.096 1.86.096h.232c.817 0 1.375 0 1.86-.096a5 5 0 0 0 3.928-3.929C23 8.491 23 7.933 23 7.115v-.231c0-.817 0-1.375-.096-1.86a5 5 0 0 0-3.929-3.928C18.491 1 17.933 1 17.115 1H17Zm-1.585 2.058C15.68 3.005 16.023 3 17 3s1.32.005 1.585.058a3 3 0 0 1 2.357 2.357C20.995 5.68 21 6.023 21 7s-.005 1.32-.058 1.585a3 3 0 0 1-2.357 2.357c-.265.053-.608.058-1.585.058s-1.32-.005-1.585-.058a3 3 0 0 1-2.357-2.357C13.005 8.32 13 7.977 13 7s.005-1.32.058-1.585a3 3 0 0 1 2.357-2.357ZM8 2a1 1 0 0 0-1 1v1h-.789c-.366 0-.697 0-.973.022a2.53 2.53 0 0 0-.925.228 2.5 2.5 0 0 0-1.082 1.013 2.53 2.53 0 0 0-.29.907c-.04.274-.062.604-.086.97l-.002.034-.737 11.053-.002.033a9.48 9.48 0 0 0-.032.747c.004.24.033.526.165.817a2 2 0 0 0 .878.94c.283.15.566.198.805.218.219.018.478.018.747.018H5a1 1 0 0 0 1 1h12a1 1 0 0 0 1-1h.195c.266 0 .524 0 .741-.018.237-.02.52-.067.8-.216a2 2 0 0 0 .878-.93c.133-.288.164-.572.17-.81a9.455 9.455 0 0 0-.024-.741l-.002-.033-.16-2.809a1 1 0 0 0-1.997.114l.16 2.809c.018.311.027.483.024.607v.015h-.015a7.935 7.935 0 0 1-.608.012H4.71c-.314 0-.488 0-.613-.011l-.015-.002v-.014a8.502 8.502 0 0 1 .03-.613l.736-11.053c.028-.41.045-.66.073-.847.012-.086.024-.138.034-.17a.187.187 0 0 1 .014-.037.5.5 0 0 1 .216-.203s.01-.005.039-.011c.032-.008.085-.016.172-.023C5.584 6 5.834 6 6.246 6H8.5A1 1 0 0 0 9 4.134V3a1 1 0 0 0-1-1Zm9 2a1 1 0 0 1 1 1v1.586l1.207 1.207a1 1 0 1 1-1.414 1.414l-1.5-1.5A1 1 0 0 1 16 7V5a1 1 0 0 1 1-1Z" clip-rule="evenodd"/></svg>