<svg viewBox="0 0 24 24" xmlns="http://www.w3.org/2000/svg"><path fill-rule="evenodd" d="M12 6.5c0-1.396 0-2.093.172-2.661a4 4 0 0 1 2.667-2.667C15.407 1 16.104 1 17.5 1c1.396 0 2.093 0 2.661.172a4 4 0 0 1 2.667 2.667C23 4.407 23 5.104 23 6.5c0 1.396 0 2.093-.172 2.661a4 4 0 0 1-2.667 2.667C19.593 12 18.896 12 17.5 12c-1.396 0-2.093 0-2.661-.172a4 4 0 0 1-2.667-2.667C12 8.593 12 7.896 12 6.5Zm2.403 6.763c.787.239 1.698.238 2.877.237h.44c1.179 0 2.09.002 2.877-.237a5.58 5.58 0 0 0 .925-.375l.22 3.341.002.033c.018.268.035.527.03.746-.004.24-.032.526-.164.817a2 2 0 0 1-.879.939c-.282.15-.566.198-.804.218-.219.018-.478.018-.746.018H4.694c-.27 0-.533 0-.753-.018a2.027 2.027 0 0 1-.81-.221 2 2 0 0 1-.88-.95 2.028 2.028 0 0 1-.157-.825 9.531 9.531 0 0 1 .039-.752l.003-.033.697-9.062.002-.034c.028-.361.053-.688.096-.96.046-.292.122-.6.295-.898a2.5 2.5 0 0 1 1.08-1c.31-.15.623-.202.918-.225C5.498 4 5.826 4 6.188 4H7V3a1 1 0 0 1 2 0v1h1.602c-.103.648-.103 1.387-.102 2.28v.44c-.001 1.179-.002 2.09.237 2.877a5.5 5.5 0 0 0 3.666 3.666ZM19.5 21a1 1 0 0 0-1-1h-13a1 1 0 1 0 0 2h13a1 1 0 0 0 1-1ZM18 4a1 1 0 1 0-2 0v2.5a1 1 0 0 0 .375.78l2.5 2a1 1 0 0 0 1.25-1.56L18 6.02V4Z" clip-rule="evenodd"/></svg>