<svg viewBox="0 0 24 24" xmlns="http://www.w3.org/2000/svg"><path fill-rule="evenodd" d="M9 6a1 1 0 0 0 1-1V3h4v2a1 1 0 0 0 1 1h2v2.956l-4.713-1.414a1 1 0 0 0-.574 0L7 8.956V6h2ZM5 9.556V5.5A1.5 1.5 0 0 1 6.5 4H8V2.5A1.5 1.5 0 0 1 9.5 1h5A1.5 1.5 0 0 1 16 2.5V4h1.5A1.5 1.5 0 0 1 19 5.5v4.056l3.287.986a1 1 0 0 1 .561 1.488v.001l-.005.008-.02.03a24.802 24.802 0 0 0-.347.587c-.228.394-.53.939-.832 1.541a17.316 17.316 0 0 0-.812 1.858c-.223.625-.332 1.12-.332 1.445a1 1 0 1 1-2 0c0-.674.203-1.43.449-2.118.253-.707.584-1.434.907-2.08.222-.445.444-.858.64-1.21L12 9.545l-8.496 2.549c.196.35.418.764.64 1.21.323.645.654 1.371.907 2.08.246.688.449 1.443.449 2.117a1 1 0 1 1-2 0c0-.326-.11-.82-.332-1.445a17.325 17.325 0 0 0-.812-1.858 29.88 29.88 0 0 0-1.18-2.128l-.019-.03-.004-.008-.001-.001a1 1 0 0 1 .56-1.488L5 9.556Zm.465 9.929C5.985 19.269 6.635 19 7.5 19c.882 0 1.631.276 2.242.5l.162.06c.662.24 1.277.44 2.096.44.82 0 1.434-.2 2.096-.44l.162-.06c.61-.224 1.36-.5 2.242-.5.865 0 1.515.27 2.035.485l.211.087c.546.218 1.167.428 2.254.428a1 1 0 1 1 0 2c-1.413 0-2.292-.29-2.996-.572l-.248-.1c-.527-.214-.808-.328-1.256-.328-.513 0-.943.157-1.621.404l-.1.036c-.713.26-1.598.56-2.779.56-1.18 0-2.066-.3-2.78-.56l-.099-.037C8.443 21.158 8.013 21 7.5 21c-.448 0-.729.114-1.256.328l-.248.1C5.292 21.71 4.413 22 3 22a1 1 0 1 1 0-2c1.087 0 1.708-.21 2.254-.428l.211-.087Z" clip-rule="evenodd"/></svg>