<svg viewBox="0 0 24 24" xmlns="http://www.w3.org/2000/svg"><path fill-rule="evenodd" d="M3 9a1 1 0 0 0 1-1V2a1 1 0 1 0-2 0v6a1 1 0 0 0 1 1Zm13.203-4.935C15.419 4 14.417 4 13 4h-2c-1.257 0-2.19 0-2.939.046a1 1 0 0 1-.122-1.996C8.755 2 9.75 2 10.97 2h2.075c1.363 0 2.447 0 3.322.071.895.074 1.659.227 2.358.583l-.448.879.448-.88a6 6 0 0 1 2.622 2.623c.356.7.51 1.463.583 2.359.071.874.071 1.958.071 3.321v2.088c0 1.363 0 2.447-.071 3.322-.074.895-.227 1.659-.583 2.358a6 6 0 0 1-2.622 2.622c-.7.356-1.463.51-2.358.583-.875.071-1.96.071-3.322.071h-2.088c-1.363 0-2.447 0-3.321-.071-.896-.073-1.66-.227-2.359-.583a6 6 0 0 1-2.622-2.622c-.325-.638-.48-1.328-.561-2.123a1 1 0 0 1 1.99-.202c.066.658.181 1.08.353 1.417a4 4 0 0 0 1.748 1.748c.37.189.842.308 1.613.371C8.581 20 9.583 20 11 20h2c1.417 0 2.419 0 3.203-.065.771-.063 1.243-.182 1.613-.37a4 4 0 0 0 1.748-1.749c.189-.37.308-.841.371-1.613C20 15.419 20 14.417 20 13v-2c0-1.417 0-2.419-.065-3.203-.063-.771-.182-1.243-.37-1.613a4 4 0 0 0-1.749-1.748c-.37-.189-.841-.308-1.613-.371Zm1.25 6.24A1 1 0 0 1 16.5 11h-9a1 1 0 1 1 0-2h5.023l-.451-1.129a1 1 0 0 1 1.51-1.185l3.5 2.5a1 1 0 0 1 .37 1.12ZM7.5 13a1 1 0 0 0-.581 1.814l3.5 2.5a1 1 0 0 0 1.51-1.185L11.476 15H16.5a1 1 0 1 0 0-2h-9Zm-5 .5a1 1 0 0 1-1-1v-1a1 1 0 0 1 1-1h1a1 1 0 0 1 1 1v1a1 1 0 0 1-1 1h-1Z" clip-rule="evenodd"/></svg>