<svg viewBox="0 0 24 24" xmlns="http://www.w3.org/2000/svg"><path fill-rule="evenodd" d="M6.161 4h11.677c.528 0 .982 0 1.357.03.395.033.789.104 1.167.297a3 3 0 0 1 1.311 1.311c.193.378.264.772.296 1.167.031.375.031.83.031 1.356V10a1 1 0 0 1-1 1H4v4.8c0 .577 0 .949.024 1.232.022.272.06.372.085.422a1 1 0 0 0 .437.437c.05.025.15.063.422.085C5.25 18 5.623 18 6.2 18H10a1 1 0 1 1 0 2H6.161c-.527 0-.981 0-1.356-.03-.395-.033-.789-.104-1.167-.297a3 3 0 0 1-1.311-1.311c-.193-.378-.264-.772-.296-1.167A17.9 17.9 0 0 1 2 15.839V8.16c0-.527 0-.981.03-1.356.033-.395.104-.789.297-1.167a3 3 0 0 1 1.311-1.311c.378-.193.772-.264 1.167-.296C5.18 4 5.635 4 6.161 4ZM4.968 6.024c-.272.022-.373.06-.422.085a1 1 0 0 0-.437.437c-.025.05-.063.15-.085.422C4.004 7.217 4 7.535 4 8h16c0-.465-.004-.783-.024-1.032-.022-.272-.06-.373-.085-.422a1 1 0 0 0-.437-.437c-.05-.025-.15-.063-.422-.085C18.75 6 18.377 6 17.8 6H6.2c-.577 0-.949 0-1.232.024Zm17.984 10.281A1 1 0 0 1 22 17h-8a1 1 0 1 1 0-2h4.023l-.451-1.129a1 1 0 0 1 1.51-1.185l3.5 2.5a1 1 0 0 1 .37 1.12ZM14 18.5a1 1 0 0 0-.581 1.814l3.5 2.5a1 1 0 0 0 1.51-1.185l-.452-1.129H22a1 1 0 1 0 0-2h-8Z" clip-rule="evenodd"/></svg>