<svg viewBox="0 0 24 24" xmlns="http://www.w3.org/2000/svg"><path fill-rule="evenodd" d="M15.723 2.037c.48.04.934.124 1.366.344a3.5 3.5 0 0 1 1.53 1.53c.22.432.305.887.344 1.366C19 5.734 19 6.294 19 6.96v4.386l-.224-.306-.161-.22a2 2 0 0 0-3.23 0l-.16.22c-.798 1.09-1.059 1.435-1.354 1.716-.289.274-.61.514-.955.712-.353.203-.757.355-2.03.808l-.288.103a2 2 0 0 0-.95 3.055l.07.096c.825 1.144 1.082 1.514 1.263 1.898.176.376.305.773.383 1.18.023.121.04.244.054.392H6.96c-.666 0-1.226 0-1.683-.037-.48-.04-.934-.124-1.366-.344a3.5 3.5 0 0 1-1.53-1.53c-.22-.432-.304-.887-.344-1.365C2 17.266 2 16.706 2 16.04V6.96c0-.666 0-1.226.037-1.683.04-.48.124-.934.344-1.366a3.5 3.5 0 0 1 1.53-1.53c.432-.22.887-.304 1.366-.344C5.734 2 6.294 2 6.96 2h7.08c.666 0 1.226 0 1.683.037ZM6 5a1 1 0 0 0 0 2h8a1 1 0 1 0 0-2H6Zm0 4a1 1 0 0 0 0 2h4a1 1 0 1 0 0-2H6Zm11.162 3.221L17 12l-.161.221c-.756 1.034-1.134 1.55-1.59 1.984-.404.384-.853.72-1.337.997-.545.313-1.148.528-2.354.958l-.288.103.07.096c.782 1.085 1.173 1.627 1.451 2.22.247.526.428 1.082.537 1.653.124.643.126 1.312.13 2.65V23l.114-.036c1.273-.41 1.91-.614 2.56-.696a6.998 6.998 0 0 1 1.737 0c.65.082 1.287.286 2.56.696l.113.036v-.119c.005-1.337.007-2.006.13-2.65a7 7 0 0 1 .537-1.652c.278-.593.67-1.135 1.453-2.22l.07-.096-.29-.103c-1.206-.43-1.809-.645-2.354-.958a7.005 7.005 0 0 1-1.337-.997c-.455-.433-.833-.95-1.59-1.984Z" clip-rule="evenodd"/></svg>