<svg viewBox="0 0 24 24" xmlns="http://www.w3.org/2000/svg"><path fill-rule="evenodd" d="M14.2 4c.857 0 1.439 0 1.889.038.438.035.663.1.819.18a2 2 0 0 1 .874.874c.08.156.145.38.18.82C18 6.361 18 6.942 18 7.8v1.7a1 1 0 1 0 2 0V7.759c0-.805 0-1.47-.044-2.01-.046-.563-.145-1.08-.392-1.565a4 4 0 0 0-1.748-1.748c-.485-.247-1.002-.346-1.564-.392C15.71 2 15.046 2 14.242 2H7.758c-.805 0-1.47 0-2.01.044-.563.046-1.08.145-1.565.392a4 4 0 0 0-1.748 1.748c-.247.485-.346 1.002-.392 1.564C2 6.29 2 6.954 2 7.758v7.484c0 .805 0 1.469.044 2.01.046.562.145 1.079.392 1.564a4 4 0 0 0 1.748 1.748c.485.248 1.002.346 1.564.392C6.29 21 6.954 21 7.758 21H9.5a1 1 0 1 0 0-2H7.8c-.857 0-1.439 0-1.889-.037-.438-.036-.663-.101-.819-.18a2 2 0 0 1-.874-.875c-.08-.156-.145-.38-.18-.819C4 16.64 4 16.057 4 15.2V7.8c0-.856 0-1.439.038-1.889.035-.438.1-.662.18-.819a2 2 0 0 1 .874-.874c.156-.08.38-.145.819-.18C6.361 4 6.943 4 7.8 4h6.4Zm3.8 9a1 1 0 1 0-2 0v3h-3a1 1 0 1 0 0 2h3v3a1 1 0 0 0 2 0v-3h3a1 1 0 1 0 0-2h-3v-3ZM6 7a1 1 0 0 1 1-1h7a1 1 0 1 1 0 2H7a1 1 0 0 1-1-1Zm1 3a1 1 0 1 0 0 2h4a1 1 0 1 0 0-2H7Z" clip-rule="evenodd"/></svg>