<svg viewBox="0 0 24 24" xmlns="http://www.w3.org/2000/svg"><path fill-rule="evenodd" d="M14.2 4c.857 0 1.439 0 1.889.038.438.035.663.1.819.18a2 2 0 0 1 .874.874c.08.156.145.38.18.82C18 6.361 18 6.942 18 7.8v.7a1 1 0 1 0 2 0v-.741c0-.805 0-1.47-.044-2.01-.046-.563-.145-1.08-.392-1.565a4 4 0 0 0-1.748-1.748c-.485-.247-1.002-.346-1.564-.392C15.71 2 15.046 2 14.242 2H7.758c-.805 0-1.47 0-2.01.044-.563.046-1.08.145-1.565.392a4 4 0 0 0-1.748 1.748c-.247.485-.346 1.002-.392 1.564C2 6.29 2 6.954 2 7.758v7.484c0 .805 0 1.469.044 2.01.046.562.145 1.079.392 1.564a4 4 0 0 0 1.748 1.748c.485.248 1.002.346 1.564.392C6.29 21 6.954 21 7.758 21H8a1 1 0 1 0 0-2h-.2c-.857 0-1.439 0-1.889-.037-.438-.036-.663-.101-.819-.18a2 2 0 0 1-.874-.875c-.08-.156-.145-.38-.18-.819C4 16.64 4 16.057 4 15.2V7.8c0-.856 0-1.439.038-1.889.035-.438.1-.662.18-.819a2 2 0 0 1 .874-.874c.156-.08.38-.145.819-.18C6.361 4 6.943 4 7.8 4h6.4Zm2.607 6.41a1 1 0 0 0-1.615 0l-.161.22c-.777 1.063-1.096 1.493-1.472 1.85a5.94 5.94 0 0 1-1.145.855c-.45.258-.953.442-2.193.883l-.288.103a1 1 0 0 0-.475 1.527l.07.097c.804 1.114 1.128 1.57 1.357 2.059a6 6 0 0 1 .46 1.416c.102.53.108 1.09.112 2.464v.12a1 1 0 0 0 1.307.948l.113-.036c1.308-.42 1.842-.588 2.378-.655a6.007 6.007 0 0 1 1.49 0c.535.067 1.07.234 2.377.655l.113.036a1 1 0 0 0 1.306-.949v-.119c.005-1.373.01-1.933.112-2.463a6 6 0 0 1 .46-1.417c.23-.49.554-.945 1.358-2.06l.07-.096a1 1 0 0 0-.475-1.527l-.288-.102c-1.24-.442-1.743-.626-2.192-.884a6.001 6.001 0 0 1-1.146-.855c-.376-.357-.695-.787-1.472-1.85l-.161-.22Zm-1.87 3.52c.36-.341.673-.724 1.063-1.242.389.518.703.9 1.061 1.242.462.44.975.822 1.528 1.14.444.255.918.451 1.558.687-.367.526-.633.947-.844 1.397a8 8 0 0 0-.614 1.89c-.092.48-.125.968-.138 1.593-.598-.18-1.073-.3-1.558-.36a8 8 0 0 0-1.986 0c-.486.06-.96.18-1.56.36-.012-.625-.045-1.114-.137-1.594a7.996 7.996 0 0 0-.614-1.889c-.211-.45-.477-.871-.844-1.397.64-.236 1.114-.432 1.558-.688a8.001 8.001 0 0 0 1.528-1.14ZM6 7a1 1 0 0 1 1-1h7a1 1 0 1 1 0 2H7a1 1 0 0 1-1-1Zm1 3a1 1 0 1 0 0 2h3a1 1 0 1 0 0-2H7Z" clip-rule="evenodd"/></svg>