<svg viewBox="0 0 24 24" xmlns="http://www.w3.org/2000/svg"><path fill-rule="evenodd" d="M7.452 4.599A6.52 6.52 0 0 1 10.182 4h1.137C8.717 5.518 7 8.59 7 12s1.717 6.482 4.32 8h-1.138a6.52 6.52 0 0 1-2.73-.599C4.875 18.22 3 15.381 3 12c0-3.38 1.875-6.22 4.452-7.401ZM13 2c5.442 0 9.869 4.347 9.997 9.758a10.245 10.245 0 0 1 .001.436C22.895 17.627 18.458 22 13 22h-2.818a8.52 8.52 0 0 1-3.564-.78C3.282 19.688 1 16.106 1 12s2.282-7.689 5.618-9.22A8.52 8.52 0 0 1 10.182 2H13Zm2 3c2.056 0 3.952 1.246 5.042 3.2A7.965 7.965 0 0 1 21 12c0 1.375-.347 2.67-.958 3.8C18.952 17.754 17.056 19 15 19c-3.193 0-6-3.004-6-7s2.807-7 6-7Zm-1 7c0-.659.18-1.21.418-1.567.243-.364.468-.433.582-.433.063 0 .136.017.226.07.333.198.774.876.774 1.93 0 1.054-.441 1.732-.774 1.93A.435.435 0 0 1 15 14c-.114 0-.34-.07-.582-.433C14.18 13.21 14 12.658 14 12Zm1-4c-.99 0-1.765.602-2.246 1.324C12.268 10.053 12 11.002 12 12c0 .998.268 1.947.754 2.676C13.234 15.398 14.009 16 15 16c.457 0 .88-.132 1.247-.35C17.394 14.968 18 13.48 18 12s-.606-2.968-1.753-3.65A2.431 2.431 0 0 0 15 8Z" clip-rule="evenodd"/></svg>