<svg width="24" height="24" viewBox="0 0 24 24" fill="none" xmlns="http://www.w3.org/2000/svg">
<path fill-rule="evenodd" clip-rule="evenodd" d="M11.9299 2L12 2L12.0701 2H12.0702C12.9323 1.99997 13.4416 1.99996 13.8822 2.04334C18.1552 2.4642 21.5358 5.84486 21.9567 10.1179C22.0001 10.5584 22 11.0678 22 11.93V12.0001C22 12.5524 21.5523 13.0001 21 13.0001C20.4477 13.0001 20 12.5524 20 12.0001C20 11.0476 19.9988 10.6438 19.9663 10.3139C19.639 6.99045 17.0096 4.36104 13.6861 4.03371C13.3562 4.00122 12.9525 4 12 4C11.0475 4 10.6438 4.00122 10.3139 4.03371C6.99045 4.36104 4.36104 6.99045 4.03371 10.3139C4.00122 10.6438 4 11.0476 4 12.0001C4 12.9526 4.00122 13.3563 4.03371 13.6862C4.19054 15.2785 4.87545 16.7114 5.91295 17.8087C7.02516 16.5057 8.54943 15.5634 10.2867 15.1841C10.8263 15.0663 11.3592 15.4082 11.477 15.9478C11.5948 16.4874 11.2529 17.0203 10.7133 17.1381C9.43821 17.4165 8.31274 18.1017 7.48142 19.0524C8.32769 19.5449 9.28731 19.8653 10.3139 19.9664C10.4887 19.9836 10.6949 19.9927 11.0129 19.9968C11.5652 20.0039 12.0071 20.4574 11.9999 21.0096C11.9928 21.5619 11.5393 22.0038 10.9871 21.9966C10.6487 21.9923 10.3765 21.9823 10.1179 21.9568C8.36147 21.7838 6.75456 21.1101 5.44303 20.0799C3.56599 18.6056 2.29118 16.3986 2.04334 13.8823C1.99996 13.4418 1.99997 12.9324 2 12.0702V12.0702L2 12.0001L2 11.9299V11.9299C1.99997 11.0678 1.99996 10.5584 2.04334 10.1179C2.4642 5.84486 5.84486 2.4642 10.1179 2.04334C10.5584 1.99996 11.0677 1.99997 11.9298 2H11.9299ZM12 8C10.8954 8 10 8.89544 10 10C10 11.1046 10.8954 12 12 12C13.1046 12 14 11.1046 14 10C14 8.89544 13.1046 8 12 8ZM8 10C8 7.79087 9.79087 6 12 6C14.2091 6 16 7.79087 16 10C16 12.2091 14.2091 14 12 14C9.79087 14 8 12.2091 8 10ZM18.8092 13.8553C18.6211 13.5972 18.321 13.4446 18.0016 13.4444C17.6822 13.4443 17.382 13.5968 17.1937 13.8547L16.7693 14.4357C16.213 15.1975 15.4052 15.7382 14.4889 15.9622L13.7625 16.1397C13.4504 16.216 13.194 16.4376 13.0733 16.7354C12.9525 17.0331 12.9823 17.3708 13.1531 17.6429L13.7908 18.6584C14.2392 19.3726 14.4504 20.2102 14.3943 21.0516L14.3356 21.9335C14.315 22.242 14.4383 22.5426 14.6694 22.7478C14.9006 22.9531 15.2138 23.0398 15.5176 22.9829L17.2628 22.6556C17.75 22.5643 18.25 22.5643 18.7372 22.6556L20.4824 22.9829C20.7862 23.0398 21.0994 22.9531 21.3306 22.7478C21.5618 22.5426 21.685 22.242 21.6645 21.9335L21.6057 21.0515C21.5496 20.2102 21.7608 19.3726 22.2092 18.6584L22.8469 17.6429C23.0177 17.3708 23.0475 17.0331 22.9267 16.7354C22.806 16.4376 22.5496 16.216 22.2375 16.1397L21.5133 15.9627C20.5959 15.7384 19.7874 15.1968 19.231 14.4337L18.8092 13.8553ZM15.5638 17.7246C16.4989 17.3894 17.3365 16.827 18.0008 16.0881C18.6647 16.8267 19.5018 17.3891 20.4364 17.7244C19.8866 18.6512 19.5974 19.7075 19.5968 20.782L19.1057 20.6899C18.3749 20.5529 17.6251 20.5529 16.8943 20.6899L16.4032 20.782C16.4026 19.7076 16.1134 18.6513 15.5638 17.7246Z" fill="currentColor"/>
</svg>
