<svg width="24" height="24" viewBox="0 0 24 24" fill="none" xmlns="http://www.w3.org/2000/svg">
<path fill-rule="evenodd" clip-rule="evenodd" d="M11.9299 2L12 2L12.0701 2H12.0702C12.9323 1.99997 13.4416 1.99996 13.8822 2.04334C18.1552 2.4642 21.5358 5.84486 21.9567 10.1179C21.9821 10.3765 21.9921 10.6487 21.9965 10.9871C22.0036 11.5393 21.5618 11.9928 21.0095 11.9999C20.4573 12.0071 20.0038 11.5652 19.9967 11.0129C19.9926 10.6949 19.9835 10.4886 19.9663 10.3139C19.639 6.99045 17.0096 4.36104 13.6861 4.03371C13.3562 4.00122 12.9525 4 12 4C11.0475 4 10.6438 4.00122 10.3139 4.03371C6.99045 4.36104 4.36104 6.99045 4.03371 10.3139C4.00122 10.6438 4 11.0476 4 12.0001C4 12.9526 4.00122 13.3563 4.03371 13.6862C4.19054 15.2786 4.87547 16.7115 5.91298 17.8087C7.37931 16.0911 9.56196 15 12 15C12.7926 15 13.56 15.1156 14.2853 15.3314C14.8146 15.489 15.116 16.0458 14.9585 16.5751C14.8009 17.1045 14.2441 17.4059 13.7148 17.2483C13.1726 17.087 12.5974 17 12 17C10.1987 17 8.58217 17.7933 7.48138 19.0523C8.32766 19.5449 9.28729 19.8653 10.3139 19.9664C10.5723 19.9919 10.8861 19.9986 11.502 19.9998C12.0543 20.0009 12.5011 20.4495 12.5 21.0018C12.4989 21.5541 12.0503 22.0009 11.498 21.9998C10.8946 21.9986 10.4868 21.9931 10.1179 21.9568C8.36147 21.7838 6.75456 21.1101 5.44303 20.0799C3.56599 18.6056 2.29118 16.3986 2.04334 13.8823C1.99996 13.4418 1.99997 12.9324 2 12.0702V12.0702L2 12.0001L2 11.9299V11.9299C1.99997 11.0678 1.99996 10.5584 2.04334 10.1179C2.4642 5.84486 5.84486 2.4642 10.1179 2.04334C10.5584 1.99996 11.0677 1.99997 11.9298 2H11.9299ZM12 8C10.8954 8 10 8.89544 10 10C10 11.1046 10.8954 12 12 12C13.1046 12 14 11.1046 14 10C14 8.89544 13.1046 8 12 8ZM8 10C8 7.79087 9.79087 6 12 6C14.2091 6 16 7.79087 16 10C16 12.2091 14.2091 14 12 14C9.79087 14 8 12.2091 8 10ZM15.529 19.5569C15.453 19.6329 15.3898 19.7206 15.3417 19.8168L13.9294 22.6414C13.7986 22.9029 13.7332 23.0337 13.7554 23.1092C13.7746 23.1745 13.8256 23.2255 13.8909 23.2447C13.9664 23.2669 14.0972 23.2015 14.3587 23.0707L17.1834 21.6584C17.2795 21.6103 17.3673 21.5471 17.4433 21.4711L22.4572 16.4572C22.9858 15.9286 22.9858 15.0716 22.4572 14.543C21.9286 14.0144 21.0716 14.0144 20.543 14.543L15.529 19.5569Z" fill="currentColor"/>
</svg>
