<svg width="24" height="24" viewBox="0 0 24 24" fill="none" xmlns="http://www.w3.org/2000/svg">
<path fill-rule="evenodd" clip-rule="evenodd" d="M12 2L11.9299 2H11.9298C11.0677 1.99997 10.5584 1.99996 10.1179 2.04334C5.84486 2.4642 2.4642 5.84486 2.04334 10.1179C1.99996 10.5584 1.99997 11.0678 2 11.9299V11.9299L2 12.0001L2 12.0702V12.0702C1.99997 12.9324 1.99996 13.4418 2.04334 13.8823C2.29118 16.3986 3.56599 18.6056 5.44303 20.0799C6.75456 21.1101 8.36147 21.7838 10.1179 21.9568C10.5584 22.0002 11.0678 22.0002 11.9299 22.0001H12H12.0701C12.9322 22.0002 13.4416 22.0002 13.8822 21.9568C15.6385 21.7838 17.2455 21.1101 18.557 20.0799C20.434 18.6056 21.7088 16.3986 21.9567 13.8823C22.0001 13.4418 22 12.9323 22 12.0702V12.0001V11.93C22 11.0678 22.0001 10.5584 21.9567 10.1179C21.5358 5.84486 18.1552 2.4642 13.8822 2.04334C13.4416 1.99996 12.9323 1.99997 12.0702 2H12.0701L12 2ZM10.3139 4.03371C10.6438 4.00122 11.0475 4 12 4C12.9525 4 13.3562 4.00122 13.6861 4.03371C17.0096 4.36104 19.639 6.99045 19.9663 10.3139C19.9988 10.6438 20 11.0476 20 12.0001C20 12.9526 19.9988 13.3563 19.9663 13.6862C19.8095 15.2786 19.1245 16.7115 18.087 17.8087C16.6207 16.0911 14.4381 15 12 15C9.56196 15 7.37931 16.0911 5.91298 17.8087C4.87547 16.7115 4.19054 15.2786 4.03371 13.6862C4.00122 13.3563 4 12.9526 4 12.0001C4 11.0476 4.00122 10.6438 4.03371 10.3139C4.36104 6.99045 6.99045 4.36104 10.3139 4.03371ZM12 17C13.8013 17 15.4178 17.7933 16.5186 19.0523C15.6724 19.5449 14.7127 19.8653 13.6861 19.9664C13.3562 19.9989 12.9525 20.0001 12 20.0001C11.0475 20.0001 10.6438 19.9989 10.3139 19.9664C9.28729 19.8653 8.32766 19.5449 7.48138 19.0523C8.58217 17.7933 10.1987 17 12 17ZM10 10C10 8.89544 10.8954 8 12 8C13.1046 8 14 8.89544 14 10C14 11.1046 13.1046 12 12 12C10.8954 12 10 11.1046 10 10ZM12 6C9.79087 6 8 7.79087 8 10C8 12.2091 9.79087 14 12 14C14.2091 14 16 12.2091 16 10C16 7.79087 14.2091 6 12 6Z" fill="#24242E"/>
</svg>
