<svg width="24" height="24" viewBox="0 0 24 24" fill="none" xmlns="http://www.w3.org/2000/svg">
<path fill-rule="evenodd" clip-rule="evenodd" d="M3 9.00001C3.55228 9.00001 4 8.5523 4 8.00001V2C4 1.44772 3.55228 1 3 1C2.44772 1 2 1.44772 2 2V8.00001C2 8.5523 2.44772 9.00001 3 9.00001ZM12 2.00002L11.9299 2.00001H11.9298C11.0677 1.99998 10.5583 1.99997 10.1178 2.04335C8.80912 2.17225 7.5827 2.5793 6.49965 3.20516C6.02146 3.48148 5.85783 4.09314 6.13415 4.57132C6.41048 5.04951 7.02214 5.21315 7.50032 4.93682C8.34162 4.45066 9.29439 4.13413 10.3139 4.03372C10.6438 4.00123 11.0475 4.00002 12 4.00002C12.9525 4.00002 13.3562 4.00123 13.6861 4.03372C17.0095 4.36105 19.6389 6.99046 19.9663 10.3139C19.9988 10.6438 20 11.0476 20 12.0001C20 12.9526 19.9988 13.3564 19.9663 13.6863C19.8095 15.2786 19.1245 16.7115 18.087 17.8088C16.6207 16.0911 14.438 15 12 15C9.56195 15 7.37931 16.0911 5.91298 17.8087C5.42655 17.2943 5.01759 16.706 4.7043 16.0624C4.46259 15.5658 3.86408 15.3592 3.3675 15.6009C2.87092 15.8426 2.66431 16.4411 2.90602 16.9377C3.5058 18.1699 4.37724 19.2428 5.44301 20.0799C6.75454 21.1101 8.36145 21.7838 10.1178 21.9568C10.5584 22.0002 11.0677 22.0002 11.9299 22.0001H12H12.0701C12.9322 22.0002 13.4416 22.0002 13.8821 21.9568C15.6385 21.7838 17.2454 21.1101 18.557 20.0799C20.434 18.6056 21.7088 16.3986 21.9566 13.8823C22 13.4418 22 12.9324 22 12.0702V12.0001V11.93C22 11.0678 22 10.5584 21.9566 10.1179C21.5358 5.84487 18.1551 2.46421 13.8821 2.04335C13.4416 1.99997 12.9323 1.99998 12.0702 2.00001H12.0701L12 2.00002ZM12 17C13.8013 17 15.4178 17.7933 16.5186 19.0523C15.6723 19.5449 14.7127 19.8653 13.6861 19.9664C13.3562 19.9989 12.9525 20.0001 12 20.0001C11.0475 20.0001 10.6438 19.9989 10.3139 19.9664C9.28727 19.8653 8.32764 19.5449 7.48136 19.0523C8.58215 17.7933 10.1987 17 12 17ZM9.99998 10C9.99998 8.89545 10.8954 8.00002 12 8.00002C13.1046 8.00002 14 8.89545 14 10C14 11.1046 13.1046 12 12 12C10.8954 12 9.99998 11.1046 9.99998 10ZM12 6.00002C9.79085 6.00002 7.99998 7.79088 7.99998 10C7.99998 12.2092 9.79085 14 12 14C14.2091 14 16 12.2092 16 10C16 7.79088 14.2091 6.00002 12 6.00002ZM2.5 13.5C1.94772 13.5 1.5 13.0523 1.5 12.5V11.5C1.5 10.9477 1.94772 10.5 2.5 10.5H3.5C4.05228 10.5 4.5 10.9477 4.5 11.5V12.5C4.5 13.0523 4.05228 13.5 3.5 13.5H2.5Z" fill="currentColor"/>
</svg>
