<svg width="24" height="24" viewBox="0 0 24 24" fill="none" xmlns="http://www.w3.org/2000/svg">
<path fill-rule="evenodd" clip-rule="evenodd" d="M12.0001 1C12.5524 1 13.0001 1.44772 13.0001 2V3.17339L13.1566 3.34553L13.1844 3.37612C14.0054 4.27926 14.6608 5.0002 15.1472 5.62736C15.6467 6.27134 16.0175 6.87733 16.2272 7.56716C16.5667 8.68382 16.5667 9.87618 16.2272 10.9928C16.2221 11.0097 16.2169 11.0265 16.2116 11.0432C16.6515 10.9998 17.1723 10.9999 17.8876 11L18.0001 11H19.0001V8C19.0001 7.44772 19.4478 7 20.0001 7C20.5524 7 21.0001 7.44772 21.0001 8V12V13L21.0001 13.214C21.0006 14.9729 21.001 16.1168 20.6646 17.0703C20.0719 18.7504 18.7505 20.0718 17.0703 20.6646C16.1169 21.0009 14.973 21.0006 13.2141 21H13.2141L13.0001 21V22C13.0001 22.5523 12.5524 23 12.0001 23C11.4478 23 11.0001 22.5523 11.0001 22V18L11.0001 17.9223C10.9999 16.9043 10.9947 16.5109 10.9383 16.1984C10.65 14.6006 9.39946 13.3501 7.80168 13.0618C7.4814 13.004 7.07599 13 6.00008 13H5.00008C5.00008 15.0498 5.01444 15.8177 5.2216 16.4049C5.61302 17.5144 6.48568 18.3871 7.5952 18.7785C7.83416 18.8628 8.12897 18.9209 8.57667 18.9553C9.12733 18.9976 9.53944 19.4783 9.49715 20.0289C9.45485 20.5796 8.97416 20.9917 8.4235 20.9494C7.87702 20.9074 7.3931 20.828 6.92983 20.6646C5.24971 20.0718 3.92824 18.7504 3.33553 17.0703C2.99918 16.1168 2.99952 14.9729 3.00004 13.214L3.00008 13V12V8C3.00008 7.44772 3.4478 7 4.00008 7C4.55237 7 5.00008 7.44772 5.00008 8V11H6.00008L6.11259 11H6.11261C6.82783 10.9999 7.34866 10.9998 7.78858 11.0432C7.78327 11.0265 7.77806 11.0097 7.77294 10.9928C7.43347 9.87618 7.43347 8.68382 7.77294 7.56716C7.98265 6.87733 8.35351 6.27134 8.85295 5.62736C9.33933 5.0002 9.99474 4.27926 10.8158 3.37612L10.8436 3.34553L11.0001 3.17339V2C11.0001 1.44772 11.4478 1 12.0001 1ZM13.0001 18V19C15.0499 19 15.8177 18.9856 16.405 18.7785C17.5145 18.3871 18.3871 17.5144 18.7786 16.4049C18.9857 15.8177 19.0001 15.0498 19.0001 13H18.0001C16.9242 13 16.5188 13.004 16.1985 13.0618C14.6007 13.3501 13.3501 14.6006 13.0619 16.1984C13.0055 16.5109 13.0003 16.9043 13.0001 17.9223L13.0001 18ZM12.0001 5.04684C11.3134 5.80365 10.8094 6.36816 10.4334 6.85303C10.0082 7.40127 9.79675 7.78611 9.68647 8.14888C9.46229 8.8863 9.46229 9.6737 9.68647 10.4111C9.79675 10.7739 10.0082 11.1587 10.4334 11.707C10.8094 12.1918 11.3134 12.7563 12.0001 13.5132C12.6868 12.7563 13.1908 12.1918 13.5668 11.707C13.992 11.1587 14.2034 10.7739 14.3137 10.4111C14.5379 9.6737 14.5379 8.8863 14.3137 8.14888C14.2034 7.78611 13.992 7.40127 13.5668 6.85303C13.1908 6.36816 12.6868 5.80365 12.0001 5.04684Z" fill="currentColor"/>
</svg>
