<svg width="24" height="24" viewBox="0 0 24 24" fill="none" xmlns="http://www.w3.org/2000/svg">
<path fill-rule="evenodd" clip-rule="evenodd" d="M11.9999 0.878052C12.3067 0.878052 12.6961 0.911731 13.024 1.03082C13.779 1.30501 14.1224 1.71322 14.5025 2.1651L14.5324 2.20063C15.6286 3.50233 17.13 5.52414 18.8637 8.49616C21.0009 12.16 22.0534 15.2889 22.5573 17.2398L22.5657 17.2723C22.6182 17.4753 22.6806 17.7163 22.7049 17.97C22.7333 18.267 22.7091 18.5486 22.6387 18.8652C22.5709 19.1698 22.4067 19.494 22.2701 19.7253C22.1335 19.9565 21.929 20.2569 21.695 20.4633C21.462 20.6688 21.2384 20.8248 20.9779 20.9421C20.752 21.0438 20.5261 21.1016 20.3485 21.1471L20.3484 21.1471L20.3187 21.1547C18.685 21.5739 16.0329 22 11.9999 22C7.96684 22 5.31471 21.5739 3.68107 21.1547L3.65131 21.1471C3.47365 21.1016 3.24775 21.0438 3.02186 20.9421C2.76133 20.8248 2.53772 20.6688 2.30478 20.4633C2.07079 20.2569 1.86621 19.9565 1.72964 19.7253C1.59306 19.494 1.42883 19.1698 1.36105 18.8652C1.2906 18.5486 1.26642 18.267 1.29486 17.97C1.31914 17.7163 1.38152 17.4753 1.43409 17.2723L1.44248 17.2398C1.94638 15.2889 2.99883 12.16 5.13609 8.49616C6.86977 5.52414 8.37118 3.50233 9.46732 2.20063L9.49721 2.1651C9.87737 1.71322 10.2208 1.30501 10.9758 1.03082C11.3037 0.911731 11.693 0.878052 11.9999 0.878052ZM12 6C12.5523 6 13 6.44772 13 7V12.5C13 13.0523 12.5523 13.5 12 13.5C11.4477 13.5 11 13.0523 11 12.5V7C11 6.44772 11.4477 6 12 6ZM10.5 16C10.5 15.4477 10.9477 15 11.5 15H12.5C13.0523 15 13.5 15.4477 13.5 16V17C13.5 17.5523 13.0523 18 12.5 18H11.5C10.9477 18 10.5 17.5523 10.5 17V16Z" fill="currentColor"/>
</svg>
