<svg width="24" height="24" viewBox="0 0 24 24" fill="none" xmlns="http://www.w3.org/2000/svg">
<path fill-rule="evenodd" clip-rule="evenodd" d="M1.34896 5.24089C1.76822 4.88138 2.39953 4.92982 2.75903 5.34908L4.99811 7.96034C5.28309 7.72488 5.5801 7.50354 5.88808 7.29739C7.63655 6.127 9.74004 5.4445 11.9999 5.4445C14.2598 5.4445 16.3632 6.127 18.1117 7.29739C18.4197 7.50354 18.7167 7.72488 19.0017 7.96033L21.2407 5.34909C21.6002 4.92983 22.2315 4.88138 22.6508 5.24088C23.07 5.60038 23.1185 6.23168 22.759 6.65095L20.4254 9.37244C22.0315 11.284 22.9999 13.7511 22.9999 16.4445L22.9999 17.889C22.9998 19.0549 22.0547 20 20.8887 20H3.11104C1.94513 20 0.999965 19.0549 0.999934 17.889L0.999896 16.4445V16.4445C0.999896 13.751 1.96834 11.284 3.57438 9.37245L1.24076 6.65095C0.881261 6.2317 0.929702 5.60039 1.34896 5.24089ZM11.9999 7.4445C10.1483 7.4445 8.43013 8.00251 7.0006 8.9594C4.58612 10.5756 2.99991 13.325 2.9999 16.4444V16.4445L2.99993 17.8889C2.99994 17.9503 3.04968 18 3.11104 18H20.8887C20.9501 18 20.9999 17.9503 20.9999 17.8889L20.9999 16.4445C20.9999 13.325 19.4137 10.5756 16.9992 8.9594C15.5697 8.00251 13.8515 7.4445 11.9999 7.4445ZM6.00006 14.0001C6.00006 13.4478 6.44778 13.0001 7.00006 13.0001H8.00006C8.55235 13.0001 9.00006 13.4478 9.00006 14.0001V15.0001C9.00006 15.5523 8.55235 16.0001 8.00006 16.0001H7.00006C6.44778 16.0001 6.00006 15.5523 6.00006 15.0001V14.0001ZM16.0001 13.0001C15.4478 13.0001 15.0001 13.4478 15.0001 14.0001V15.0001C15.0001 15.5523 15.4478 16.0001 16.0001 16.0001H17.0001C17.5523 16.0001 18.0001 15.5523 18.0001 15.0001V14.0001C18.0001 13.4478 17.5523 13.0001 17.0001 13.0001H16.0001Z" fill="currentColor"/>
</svg>
