<svg width="24" height="24" viewBox="0 0 24 24" fill="none" xmlns="http://www.w3.org/2000/svg">
<path fill-rule="evenodd" clip-rule="evenodd" d="M12 2L11.9299 2H11.9298C11.0677 1.99997 10.5584 1.99996 10.1179 2.04334C5.84486 2.4642 2.4642 5.84486 2.04334 10.1179C1.99996 10.5584 1.99997 11.0678 2 11.9299V11.9299L2 12.0001L2 12.0702V12.0702C1.99997 12.9324 1.99996 13.4418 2.04334 13.8823C2.4642 18.1553 5.84486 21.5359 10.1179 21.9568C10.5584 22.0002 11.0678 22.0002 11.9299 22.0001H12H12.0701C12.9322 22.0002 13.4416 22.0002 13.8822 21.9568C18.1552 21.5359 21.5358 18.1553 21.9567 13.8823C22.0001 13.4418 22 12.9323 22 12.0702V12.0001V11.93C22 11.0678 22.0001 10.5584 21.9567 10.1179C21.5358 5.84486 18.1552 2.4642 13.8822 2.04334C13.4416 1.99996 12.9323 1.99997 12.0702 2H12.0701L12 2ZM10.3139 4.03371C10.6438 4.00122 11.0475 4 12 4C12.9525 4 13.3562 4.00122 13.6861 4.03371C17.0096 4.36104 19.639 6.99045 19.9663 10.3139C19.9988 10.6438 20 11.0476 20 12.0001C20 12.9526 19.9988 13.3563 19.9663 13.6862C19.639 17.0097 17.0096 19.6391 13.6861 19.9664C13.3562 19.9989 12.9525 20.0001 12 20.0001C11.0475 20.0001 10.6438 19.9989 10.3139 19.9664C6.99045 19.6391 4.36104 17.0097 4.03371 13.6862C4.00122 13.3563 4 12.9526 4 12.0001C4 11.0476 4.00122 10.6438 4.03371 10.3139C4.36104 6.99045 6.99045 4.36104 10.3139 4.03371ZM12 16C10.6985 16 9.47714 16.4371 8.70711 17.2071C8.31659 17.5976 7.68342 17.5976 7.2929 17.2071C6.90237 16.8166 6.90237 16.1834 7.2929 15.7929C8.52287 14.5629 10.3015 14 12 14C13.6985 14 15.4771 14.5629 16.7071 15.7929C17.0976 16.1834 17.0976 16.8166 16.7071 17.2071C16.3166 17.5976 15.6834 17.5976 15.2929 17.2071C14.5229 16.4371 13.3015 16 12 16ZM16.3827 10.0761C16.7564 10.2309 17 10.5955 17 11V12C17 12.5523 16.5523 13 16 13H15C14.5955 13 14.2309 12.7564 14.0761 12.3827C13.9213 12.009 14.0069 11.5789 14.2929 11.2929L15.2929 10.2929C15.5789 10.0069 16.009 9.92134 16.3827 10.0761ZM8.70711 10.2929C8.42111 10.0069 7.991 9.92134 7.61732 10.0761C7.24365 10.2309 7 10.5955 7 11V12C7 12.5523 7.44772 13 8 13H9C9.40447 13 9.7691 12.7564 9.92388 12.3827C10.0787 12.009 9.99311 11.5789 9.70711 11.2929L8.70711 10.2929Z" fill="currentColor"/>
</svg>
