<svg width="24" height="24" viewBox="0 0 24 24" fill="none" xmlns="http://www.w3.org/2000/svg">
<path fill-rule="evenodd" clip-rule="evenodd" d="M11.9299 2L12 2.00001L12.0701 2H12.0702H12.0702C12.9323 1.99997 13.4417 1.99996 13.8822 2.04334C18.1552 2.4642 21.5358 5.84486 21.9567 10.1179C22.0001 10.5584 22 11.0678 22 11.93V12.0001V12.0702C22 12.9323 22.0001 13.4418 21.9567 13.8823C21.5358 18.1553 18.1552 21.5359 13.8822 21.9568C13.4416 22.0002 12.9322 22.0002 12.0701 22.0001H12H11.9299C11.0678 22.0002 10.5584 22.0002 10.1179 21.9568C5.84486 21.5359 2.4642 18.1553 2.04334 13.8823C1.99996 13.4418 1.99997 12.9324 2 12.0703V12.0702V12.0702L2.00001 12.0001L2 11.9299V11.9299V11.9298C1.99997 11.0677 1.99996 10.5584 2.04334 10.1179C2.4642 5.84486 5.84486 2.4642 10.1179 2.04334C10.5584 1.99996 11.0677 1.99997 11.9298 2H11.9298H11.9299ZM8.70711 10.2929C8.42111 10.0069 7.99099 9.92134 7.61732 10.0761C7.24364 10.2309 7 10.5955 7 11V12C7 12.5523 7.44772 13 8 13H9C9.40446 13 9.7691 12.7564 9.92388 12.3827C10.0787 12.009 9.99311 11.5789 9.70711 11.2929L8.70711 10.2929ZM17 11C17 10.5955 16.7564 10.2309 16.3827 10.0761C16.009 9.92134 15.5789 10.0069 15.2929 10.2929L14.2929 11.2929C14.0069 11.5789 13.9213 12.009 14.0761 12.3827C14.2309 12.7564 14.5955 13 15 13H16C16.5523 13 17 12.5523 17 12V11ZM8.70711 17.7071C9.47713 16.9371 10.6985 16.5 12 16.5C13.3015 16.5 14.5229 16.9371 15.2929 17.7071C15.6834 18.0976 16.3166 18.0976 16.7071 17.7071C17.0976 17.3166 17.0976 16.6834 16.7071 16.2929C15.4771 15.0629 13.6985 14.5 12 14.5C10.3015 14.5 8.52287 15.0629 7.29289 16.2929C6.90237 16.6834 6.90237 17.3166 7.29289 17.7071C7.68342 18.0976 8.31658 18.0976 8.70711 17.7071Z" fill="currentColor"/>
</svg>
