<svg width="24" height="24" viewBox="0 0 24 24" fill="none" xmlns="http://www.w3.org/2000/svg">
<path fill-rule="evenodd" clip-rule="evenodd" d="M12.1144 1.93971C12.666 1.27779 13.4919 0.929443 14.4994 0.929443C14.7834 0.929443 15.0558 1.04225 15.2566 1.24305C15.4574 1.44385 15.5702 1.7162 15.5702 2.00017C15.5702 3.52074 14.3592 5.07092 12.4994 5.07092C11.9081 5.07092 11.4287 4.59153 11.4287 4.00019C11.4287 3.3411 11.5914 2.56729 12.1144 1.93971ZM2.92871 12.2792C2.92871 8.35034 5.63094 5.42938 9.05423 5.42947C10.0452 5.4295 10.7989 5.71036 11.3588 5.94567C11.4521 5.98486 11.5332 6.01975 11.6065 6.05125C11.7693 6.12125 11.8933 6.17454 12.0246 6.22118C12.1798 6.27632 12.2681 6.29177 12.3223 6.2942C12.3321 6.29154 12.3919 6.27913 12.5304 6.22731C12.6482 6.18323 12.746 6.1424 12.8638 6.09322C12.9668 6.05022 13.0851 6.00084 13.2454 5.93732C13.8368 5.70301 14.6446 5.42949 15.6231 5.42947C17.5584 5.42942 19.3059 6.38315 20.4305 7.95184C20.774 8.43103 20.6655 9.09778 20.1878 9.44331C19.322 10.0694 18.7706 11.0688 18.7706 12.1886C18.7706 12.836 18.9216 13.3427 19.1991 13.7939C19.4867 14.2614 19.9422 14.7208 20.6259 15.2142C21.0337 15.5083 21.1818 16.0466 20.982 16.5079L19.9994 16.0825C20.982 16.5079 20.982 16.508 20.982 16.5081L20.9819 16.5082L20.9817 16.5087L20.981 16.5103L20.9787 16.5156L20.9701 16.5352L20.9383 16.6078C20.9108 16.67 20.8712 16.7592 20.822 16.8683C20.7236 17.0862 20.5859 17.3858 20.4287 17.7117C20.1304 18.3304 19.7108 19.1532 19.3443 19.6423C18.8159 20.3475 18.2228 20.938 17.5994 21.3602C16.9847 21.7766 16.2771 22.0709 15.5413 22.0709C14.6397 22.0709 13.9448 21.7928 13.4365 21.584C12.8905 21.3598 12.6335 21.2577 12.3381 21.2577C12.0427 21.2577 11.786 21.3597 11.2404 21.5839C10.7322 21.7928 10.0376 22.0709 9.13584 22.0709C8.26163 22.0709 7.44473 21.6262 6.77911 21.0781C6.09174 20.5121 5.44246 19.7362 4.88413 18.8461C3.77081 17.0714 2.92871 14.6966 2.92871 12.2792ZM18.6783 16.4053C18.1614 15.9601 17.7172 15.472 17.3751 14.9159C16.8779 14.1074 16.6291 13.2083 16.6291 12.1886C16.6291 10.7678 17.1704 9.47491 18.0543 8.4961C17.3707 7.89749 16.5213 7.57091 15.6231 7.57093C15.0455 7.57095 14.5345 7.72998 14.0342 7.9282C13.9553 7.95948 13.8556 8.00066 13.7507 8.04398C13.5869 8.1116 13.4105 8.18444 13.2809 8.23295C13.0503 8.31924 12.7064 8.43602 12.3382 8.43602C11.9428 8.43602 11.5928 8.34039 11.3077 8.23908C11.1064 8.16756 10.8867 8.07312 10.699 7.99241C10.6385 7.96638 10.5813 7.94179 10.5291 7.91985C10.0598 7.72263 9.61929 7.57095 9.05418 7.57093C7.00371 7.57088 5.07017 9.33355 5.07017 12.2792C5.07017 14.2284 5.76098 16.2141 6.69821 17.7082C7.16516 18.4525 7.67057 19.0381 8.14039 19.425C8.63195 19.8298 8.97476 19.9294 9.13584 19.9294C9.58596 19.9294 9.9451 19.801 10.4264 19.6032C10.4594 19.5896 10.4936 19.5754 10.529 19.5607C10.9703 19.3772 11.5981 19.1162 12.3381 19.1162C13.0779 19.1162 13.7059 19.3772 14.1474 19.5606C14.1828 19.5754 14.2171 19.5896 14.25 19.6031C14.7317 19.8009 15.0911 19.9294 15.5413 19.9294C15.7104 19.9294 16.0028 19.8552 16.3985 19.5872C16.7853 19.3252 17.2128 18.9157 17.6306 18.3582C17.853 18.0613 18.1894 17.4252 18.4998 16.7815C18.563 16.6505 18.623 16.5237 18.6783 16.4053Z" fill="currentColor"/>
</svg>
