<svg width="24" height="24" viewBox="0 0 24 24" fill="none" xmlns="http://www.w3.org/2000/svg">
<path fill-rule="evenodd" clip-rule="evenodd" d="M12.7524 4.3415C12.5625 4.12448 12.2882 4 11.9998 4C11.7115 4 11.4372 4.12448 11.2473 4.3415L7.74727 8.3415C7.48889 8.63679 7.42708 9.0559 7.58921 9.41322C7.75135 9.77053 8.10747 10 8.49985 10H11.9998H15.4998C15.8922 10 16.2483 9.77053 16.4105 9.41322C16.5726 9.0559 16.5108 8.63679 16.2524 8.3415L12.9998 4.62426V4.58579L12.9819 4.60374L12.7524 4.3415ZM12.7523 19.6585C12.5625 19.8755 12.2881 20 11.9998 20C11.7114 20 11.4371 19.8755 11.2472 19.6585L7.7472 15.6585C7.48881 15.3632 7.427 14.9441 7.58914 14.5868C7.75128 14.2295 8.1074 14 8.49977 14H11.9998H15.4998C15.8921 14 16.2483 14.2295 16.4104 14.5868C16.5725 14.9441 16.5107 15.3632 16.2523 15.6585L12.9998 19.3757V19.4142L12.9818 19.3963L12.7523 19.6585Z" fill="currentColor"/>
</svg>
