<svg width="24" height="24" viewBox="0 0 24 24" fill="none" xmlns="http://www.w3.org/2000/svg">
<path fill-rule="evenodd" clip-rule="evenodd" d="M12.7071 4.29289C12.3166 3.90237 11.6834 3.90237 11.2929 4.29289C10.9024 4.68342 10.9024 5.31658 11.2929 5.70711L15.4645 9.87868C15.9688 10.383 16.305 10.7203 16.5429 11H4C3.44772 11 3 11.4477 3 12C3 12.5523 3.44772 13 4 13H16.5429C16.305 13.2797 15.9688 13.617 15.4645 14.1213L11.2929 18.2929C10.9024 18.6834 10.9024 19.3166 11.2929 19.7071C11.6834 20.0976 12.3166 20.0976 12.7071 19.7071L16.8787 15.5355L16.9071 15.5071C17.3779 15.0363 17.7736 14.6407 18.0709 14.2905C18.3817 13.9243 18.6434 13.5425 18.7932 13.0816C19.0216 12.3786 19.0216 11.6214 18.7932 10.9184C18.6434 10.4575 18.3817 10.0757 18.0709 9.70955C17.7736 9.35933 17.3779 8.9637 16.9071 8.49286L16.8787 8.46447L12.7071 4.29289Z" fill="currentColor"/>
</svg>
