<svg width="24" height="24" viewBox="0 0 24 24" fill="none" xmlns="http://www.w3.org/2000/svg">
<path fill-rule="evenodd" clip-rule="evenodd" d="M9.25725 4.29289C9.64777 3.90237 10.2809 3.90237 10.6715 4.29289C11.062 4.68342 11.062 5.31658 10.6715 5.70711L6.49989 9.87868C5.99555 10.383 5.65939 10.7203 5.42146 11H17.9644C18.5166 11 18.9644 11.4477 18.9644 12C18.9644 12.5523 18.5166 13 17.9644 13H5.42146C5.65939 13.2797 5.99555 13.617 6.49989 14.1213L10.6715 18.2929C11.062 18.6834 11.062 19.3166 10.6715 19.7071C10.2809 20.0976 9.64777 20.0976 9.25725 19.7071L5.08568 15.5355L5.05729 15.5071C4.58643 15.0363 4.19078 14.6407 3.89347 14.2905C3.58262 13.9243 3.32097 13.5425 3.1712 13.0816C2.94279 12.3786 2.94279 11.6214 3.1712 10.9184C3.32097 10.4575 3.58262 10.0757 3.89347 9.70955C4.19078 9.35933 4.58643 8.9637 5.05729 8.49286L5.08568 8.46447L9.25725 4.29289Z" fill="currentColor"/>
</svg>
