<svg width="24" height="24" viewBox="0 0 24 24" fill="none" xmlns="http://www.w3.org/2000/svg">
<path fill-rule="evenodd" clip-rule="evenodd" d="M9.77693 3.00005L9.90006 3.00009L17.2001 3.00015L17.2414 3.00015C18.0463 3.00015 18.7107 3.00014 19.2519 3.04437C19.814 3.09029 20.3307 3.18886 20.816 3.43615C21.5686 3.81965 22.1805 4.43157 22.564 5.18422C22.8113 5.66955 22.9099 6.18625 22.9558 6.74834C23 7.28953 23 7.95388 23 8.75883V8.80015V15.2003V15.2416C23 16.0466 23 16.7109 22.9558 17.2521C22.9099 17.8142 22.8113 18.3309 22.564 18.8163C22.1805 19.5689 21.5686 20.1808 20.8159 20.5643C20.3306 20.8116 19.8139 20.9102 19.2518 20.9561C18.7106 21.0003 18.0462 21.0003 17.2413 21.0003H17.2L9.89997 21.0002L9.77684 21.0003C9.01669 21.0007 8.44279 21.001 7.90154 20.8464C7.42463 20.7102 6.97721 20.4865 6.58211 20.1867C6.13369 19.8464 5.78961 19.3871 5.33386 18.7787L5.26002 18.6802L2.14 14.5202L2.0493 14.3995C1.62329 13.8333 1.24962 13.3367 1.09884 12.7639C0.967056 12.2633 0.967054 11.7371 1.09883 11.2365C1.24961 10.6637 1.62327 10.1671 2.04928 9.60088L2.13998 9.48021L5.25999 5.32013L5.33383 5.22159C5.78959 4.61319 6.13368 4.15386 6.5821 3.81359C6.97722 3.51378 7.42465 3.29007 7.90157 3.15386C8.44284 2.99928 9.01676 2.99961 9.77693 3.00005ZM9.90005 5.00009C8.96207 5.00008 8.68839 5.00912 8.45079 5.07697C8.21233 5.14508 7.98862 5.25693 7.79106 5.40684C7.59421 5.55621 7.42278 5.76973 6.86 6.52012L3.73999 10.6802C3.17021 11.4399 3.0706 11.6026 3.03294 11.7456C2.98902 11.9125 2.98902 12.0879 3.03295 12.2548C3.07061 12.3978 3.17022 12.5605 3.74 13.3202L6.86002 17.4802C7.42279 18.2306 7.59422 18.4441 7.79106 18.5935C7.98862 18.7434 8.21232 18.8552 8.45078 18.9233C8.68837 18.9912 8.96204 19.0002 9.89999 19.0002L17.2 19.0003C18.0566 19.0003 18.6389 18.9995 19.089 18.9627C19.5274 18.9269 19.7516 18.862 19.908 18.7823C20.2843 18.5906 20.5903 18.2846 20.782 17.9083C20.8617 17.7519 20.9266 17.5277 20.9625 17.0893C20.9992 16.6392 21 16.0569 21 15.2003V8.80015C21 7.94358 20.9992 7.36129 20.9625 6.91121C20.9266 6.4728 20.8617 6.24859 20.782 6.09219C20.5903 5.71587 20.2843 5.40991 19.908 5.21816C19.7516 5.13847 19.5274 5.07354 19.089 5.03772C18.6389 5.00094 18.0566 5.00016 17.2 5.00015L9.90005 5.00009ZM17.2071 8.29298C17.5976 8.68351 17.5976 9.31667 17.2071 9.7072L14.9142 12.0001L17.2071 14.293C17.5976 14.6835 17.5976 15.3167 17.2071 15.7072C16.8166 16.0977 16.1834 16.0977 15.7929 15.7072L13.5 13.4143L11.2071 15.7072C10.8166 16.0977 10.1834 16.0977 9.79289 15.7072C9.40237 15.3167 9.40237 14.6835 9.79289 14.293L12.0858 12.0001L9.79289 9.7072C9.40237 9.31667 9.40237 8.68351 9.79289 8.29298C10.1834 7.90246 10.8166 7.90246 11.2071 8.29298L13.5 10.5859L15.7929 8.29298C16.1834 7.90246 16.8166 7.90246 17.2071 8.29298Z" fill="currentColor"/>
</svg>
