<svg width="24" height="24" viewBox="0 0 24 24" fill="none" xmlns="http://www.w3.org/2000/svg">
<path fill-rule="evenodd" clip-rule="evenodd" d="M2.99976 9.00001C3.55204 9.00001 3.99976 8.5523 3.99976 8.00001V2C3.99976 1.44772 3.55204 1 2.99976 1C2.44747 1 1.99976 1.44772 1.99976 2V8.00001C1.99976 8.5523 2.44747 9.00001 2.99976 9.00001ZM12.2564 1.57063C12.086 1.54858 11.9135 1.54858 11.7431 1.57063C11.5468 1.59603 11.3627 1.65783 11.2166 1.7069L11.1776 1.71997L6.68353 3.21798C6.15958 3.39263 5.87642 3.95895 6.05107 4.48289C6.22572 5.00683 6.79204 5.28999 7.31598 5.11535L11.81 3.61734C11.9107 3.58378 11.9605 3.56736 11.9971 3.55666L11.9998 3.5559L12.0024 3.55666C12.039 3.56736 12.0888 3.58378 12.1895 3.61734L19.9998 6.22076V7H6.99976C6.44747 7 5.99976 7.44771 5.99976 8C5.99976 8.55228 6.44747 9 6.99976 9H20.1998L20.2229 9C20.342 9.00005 20.4843 9.0001 20.6096 8.98986C20.7548 8.978 20.9628 8.94756 21.1807 8.83651C21.463 8.6927 21.6925 8.46323 21.8363 8.18098C21.9473 7.96304 21.9778 7.75504 21.9896 7.60983C21.9999 7.48453 21.9998 7.3423 21.9998 7.22319V7.22317V7.22315V7.22313L21.9998 7.2V6.0766L22.0001 6.03628C22.0017 5.89107 22.0051 5.58956 21.8957 5.31137C21.8038 5.07768 21.6547 4.8708 21.462 4.7097C21.2327 4.51794 20.9456 4.4258 20.8073 4.38142L20.769 4.36897L12.8219 1.71997L12.7829 1.7069C12.6368 1.65783 12.4527 1.59603 12.2564 1.57063ZM9.99976 11.5C9.99976 10.9477 9.55204 10.5 8.99976 10.5C8.44747 10.5 7.99976 10.9477 7.99976 11.5V19.5H5.99976V16C5.99976 15.4477 5.55204 15 4.99976 15C4.44747 15 3.99976 15.4477 3.99976 16V19.5C3.44747 19.5 2.99976 19.9477 2.99976 20.5V21C2.99976 21.5523 3.44747 22 3.99976 22H19.9998C20.552 22 20.9998 21.5523 20.9998 21V20.5C20.9998 19.9477 20.552 19.5 19.9998 19.5V11.5C19.9998 10.9477 19.552 10.5 18.9998 10.5C18.4475 10.5 17.9998 10.9477 17.9998 11.5V19.5H15.9998V11.5C15.9998 10.9477 15.552 10.5 14.9998 10.5C14.4475 10.5 13.9998 10.9477 13.9998 11.5V20H9.99976V11.5ZM2.49976 13.5C1.94747 13.5 1.49976 13.0523 1.49976 12.5V11.5C1.49976 10.9477 1.94747 10.5 2.49976 10.5H3.49976C4.05204 10.5 4.49976 10.9477 4.49976 11.5V12.5C4.49976 13.0523 4.05204 13.5 3.49976 13.5H2.49976Z" fill="currentColor"/>
</svg>
