<svg width="24" height="24" viewBox="0 0 24 24" fill="none" xmlns="http://www.w3.org/2000/svg">
<path fill-rule="evenodd" clip-rule="evenodd" d="M12.2565 1.57074C12.0861 1.54869 11.9135 1.54869 11.7431 1.57074C11.5468 1.59614 11.3628 1.65794 11.2167 1.70701L11.1776 1.72008L3.23061 4.36908L3.19225 4.38153C3.05398 4.4259 2.76687 4.51804 2.53755 4.70981C2.34492 4.87091 2.19581 5.07779 2.1039 5.31148C1.99449 5.58967 1.99787 5.89118 1.9995 6.03639L1.99982 6.07671V7.20011L1.99981 7.22325C1.99977 7.34236 1.99971 7.48462 2.00995 7.60994C2.02182 7.75515 2.05226 7.96315 2.16331 8.18109C2.30712 8.46334 2.53659 8.69281 2.81883 8.83662C3.03678 8.94767 3.24477 8.97811 3.38999 8.98997C3.51531 9.00021 3.65756 9.00016 3.77668 9.00011L3.79982 9.00011H20.1998L20.223 9.00011C20.3421 9.00016 20.4843 9.00021 20.6096 8.98997C20.7549 8.97811 20.9629 8.94767 21.1808 8.83662C21.463 8.69281 21.6925 8.46334 21.8363 8.18109C21.9474 7.96315 21.9778 7.75515 21.9897 7.60994C21.9999 7.48466 21.9999 7.34245 21.9998 7.22336V7.22326L21.9998 7.20011V6.07671L22.0001 6.03639C22.0018 5.89118 22.0051 5.58967 21.8957 5.31148C21.8038 5.07779 21.6547 4.87091 21.4621 4.70981C21.2328 4.51805 20.9457 4.4259 20.8074 4.38153L20.769 4.36908L12.822 1.72008L12.783 1.70701C12.6369 1.65794 12.4528 1.59614 12.2565 1.57074ZM11.8101 3.61744C11.9107 3.58389 11.9605 3.56747 11.9972 3.55677L11.9998 3.55601L12.0025 3.55677C12.0391 3.56747 12.0889 3.58389 12.1896 3.61744L19.9998 6.22087V7.00011H3.99982V6.22087L11.8101 3.61744ZM5.99982 11.5001C5.99982 10.9478 5.5521 10.5001 4.99982 10.5001C4.44753 10.5001 3.99982 10.9478 3.99982 11.5001V19.5001C3.44753 19.5001 2.99982 19.9478 2.99982 20.5001V21.0001C2.99982 21.5524 3.44753 22.0001 3.99982 22.0001H19.9998C20.5521 22.0001 20.9998 21.5524 20.9998 21.0001V20.5001C20.9998 19.9478 20.5521 19.5001 19.9998 19.5001V11.5001C19.9998 10.9478 19.5521 10.5001 18.9998 10.5001C18.4475 10.5001 17.9998 10.9478 17.9998 11.5001V19.5001H15.9998V11.5001C15.9998 10.9478 15.5521 10.5001 14.9998 10.5001C14.4475 10.5001 13.9998 10.9478 13.9998 11.5001V20.0001H9.99982V11.5001C9.99982 10.9478 9.5521 10.5001 8.99982 10.5001C8.44753 10.5001 7.99982 10.9478 7.99982 11.5001V19.5001H5.99982V11.5001Z" fill="currentColor"/>
</svg>
