<svg width="24" height="24" viewBox="0 0 24 24" fill="none" xmlns="http://www.w3.org/2000/svg">
<path fill-rule="evenodd" clip-rule="evenodd" d="M13.189 1.99977L13.0514 1.99964C12.3997 1.99871 11.8273 1.99788 11.3114 2.19205C10.86 2.36194 10.4563 2.63814 10.1343 2.99725C9.76639 3.40769 9.5597 3.94146 9.32438 4.54917L9.2746 4.67753L7.20481 9.99997H2.75001L2.7308 9.99996H2.73077C2.63162 9.99993 2.51315 9.99989 2.40836 10.007C2.28772 10.0153 2.11408 10.0362 1.92598 10.1141C1.55844 10.2664 1.26643 10.5584 1.11419 10.9259C1.03628 11.114 1.01532 11.2877 1.00709 11.4083C0.999935 11.5131 0.999973 11.6316 1 11.7308L1.00001 11.75V11.9956L1.00004 12.0103C1.00568 12.8306 1.66933 13.4943 2.4897 13.4999L2.50439 13.5L2.5102 13.5C2.5112 13.5 2.51102 13.5 2.51037 13.5C2.51013 13.4994 2.51007 13.4992 2.51044 13.5001L2.51254 13.5055L4.97296 19.8325L5.01441 19.9396C5.1852 20.3817 5.35659 20.8254 5.66461 21.169C5.93288 21.4682 6.26935 21.6984 6.64549 21.84C7.07737 22.0025 7.55299 22.0014 8.02698 22.0004L8.14179 22.0002H15.8582L15.973 22.0004C16.447 22.0014 16.9226 22.0025 17.3545 21.84C17.7307 21.6984 18.0671 21.4682 18.3354 21.169C18.6434 20.8254 18.8148 20.3817 18.9856 19.9396L19.0271 19.8325L21.4875 13.5055L21.4896 13.5001L21.4896 13.5L21.4898 13.5L21.4956 13.5L21.5103 13.4999C22.3307 13.4943 22.9943 12.8306 23 12.0103L23 11.9956V11.75L23 11.7307V11.7306C23 11.6315 23.0001 11.5131 22.9929 11.4083C22.9847 11.2877 22.9637 11.114 22.8858 10.9259C22.7336 10.5584 22.4416 10.2664 22.074 10.1141C21.8859 10.0362 21.7123 10.0153 21.5917 10.007C21.4869 9.99989 21.3684 9.99993 21.2692 9.99996H21.2692L21.25 9.99997H19.5C18.9477 9.99997 18.5 10.4477 18.5 11C18.5 11.5523 18.9477 12 19.5 12H20.1667C19.9344 12.2048 19.7481 12.4648 19.6295 12.7653L19.6235 12.7807L17.163 19.1076C16.9191 19.735 16.8777 19.7989 16.8462 19.834C16.7925 19.8938 16.7253 19.9398 16.65 19.9682C16.6059 19.9848 16.5314 20.0002 15.8582 20.0002H8.14179C7.46866 20.0002 7.39411 19.9848 7.34999 19.9682C7.27477 19.9398 7.20747 19.8938 7.15382 19.834C7.12235 19.7989 7.08094 19.735 6.83697 19.1076L4.37656 12.7807L4.37056 12.7653C4.25187 12.4648 4.06563 12.2048 3.83329 12H7.86355C7.8803 12.0004 7.89702 12.0004 7.9137 12H12C12.5523 12 13 11.5523 13 11C13 10.4477 12.5523 9.99997 12 9.99997H9.35071L11.1386 5.4024C11.4542 4.591 11.5313 4.4351 11.6235 4.33226C11.7309 4.21256 11.8654 4.12049 12.0159 4.06386C12.1452 4.01521 12.3184 3.99977 13.189 3.99977H15.7255C16.2938 3.99977 16.6521 4.00074 16.9148 4.02455C17.096 4.04097 17.1648 4.06409 17.1797 4.06988C17.2619 4.12628 17.3202 4.2114 17.3429 4.30851C17.3429 4.32449 17.3395 4.39698 17.2891 4.57181C17.2161 4.82522 17.0872 5.15954 16.8812 5.6892L14.1791 12.6376C13.9789 13.1523 14.2339 13.7319 14.7487 13.932C15.2634 14.1322 15.8429 13.8772 16.0431 13.3625L18.7452 6.41408L18.7609 6.37387C18.9465 5.89646 19.1098 5.47669 19.211 5.12548C19.3159 4.76142 19.3955 4.34079 19.2999 3.89567C19.1677 3.28044 18.7992 2.74173 18.2737 2.39556C17.8935 2.1451 17.4726 2.06691 17.0953 2.03271C16.7313 1.99972 16.2809 1.99974 15.7687 1.99977L15.7255 1.99977H13.189Z" fill="currentColor"/>
</svg>
