<svg width="24" height="24" viewBox="0 0 24 24" fill="none" xmlns="http://www.w3.org/2000/svg">
<path fill-rule="evenodd" clip-rule="evenodd" d="M17.3555 10H17.3507L18.7452 6.41408L18.7609 6.37387C18.9465 5.89646 19.1098 5.47669 19.211 5.12548C19.3159 4.76142 19.3955 4.34079 19.2999 3.89567C19.1677 3.28044 18.7992 2.74173 18.2737 2.39556C17.8935 2.1451 17.4726 2.06691 17.0953 2.03271C16.7313 1.99972 16.2809 1.99974 15.7686 1.99977L15.7255 1.99977H13.189L13.0514 1.99964C12.3997 1.99871 11.8273 1.99788 11.3114 2.19205C10.86 2.36194 10.4563 2.63814 10.1343 2.99725C9.76639 3.40769 9.5597 3.94146 9.32438 4.54917L9.2746 4.67753L7.20479 10H2.75001L2.7308 10H2.73077C2.63162 9.99998 2.51315 9.99994 2.40836 10.0071C2.28772 10.0153 2.11408 10.0363 1.92598 10.1142C1.55844 10.2664 1.26643 10.5584 1.11419 10.926C1.03628 11.1141 1.01532 11.2877 1.00709 11.4084C0.999935 11.5132 0.999973 11.6316 1 11.7308L1.00001 11.75V11.9956L1.00004 12.0103C1.00568 12.8307 1.66933 13.4943 2.4897 13.5L2.50439 13.5L2.5102 13.5C2.5112 13.5 2.51102 13.5 2.51037 13.5L2.51044 13.5002L2.51254 13.5056L4.97296 19.8325L5.01441 19.9396C5.1852 20.3818 5.35659 20.8254 5.66461 21.169C5.93288 21.4683 6.26935 21.6985 6.64549 21.84C7.07737 22.0026 7.55299 22.0015 8.02698 22.0004L8.14179 22.0003H15.8582L15.973 22.0004C16.447 22.0015 16.9226 22.0026 17.3545 21.84C17.7307 21.6985 18.0671 21.4683 18.3354 21.169C18.6434 20.8254 18.8148 20.3818 18.9856 19.9396L19.0271 19.8325L21.4875 13.5056L21.4896 13.5002C21.4899 13.4992 21.4899 13.4994 21.4896 13.5L21.4898 13.5L21.4956 13.5L21.5103 13.5C22.3307 13.4943 22.9943 12.8307 23 12.0103L23 11.9956V11.75L23 11.7308V11.7306C23 11.6315 23.0001 11.5131 22.9929 11.4084C22.9847 11.2877 22.9637 11.1141 22.8858 10.926C22.7336 10.5584 22.4416 10.2664 22.074 10.1142C21.8859 10.0363 21.7123 10.0153 21.5917 10.0071C21.4869 9.99994 21.3684 9.99998 21.2692 10H21.2692L21.25 10H21H19.5055L17.783 14.3669C17.5803 14.8807 16.9995 15.1329 16.4858 14.9302C15.972 14.7276 15.7198 14.1468 15.9225 13.6331L17.3555 10ZM16.8812 5.6892L15.2048 10H9.3507L11.1386 5.4024C11.4542 4.591 11.5313 4.4351 11.6235 4.33226C11.7309 4.21256 11.8654 4.12049 12.0159 4.06386C12.1452 4.01521 12.3184 3.99977 13.189 3.99977H15.7255C16.2938 3.99977 16.6521 4.00074 16.9148 4.02455C17.096 4.04097 17.1648 4.06409 17.1797 4.06988C17.2619 4.12628 17.3202 4.2114 17.3429 4.30851C17.3429 4.32449 17.3395 4.39698 17.2891 4.57181C17.2161 4.82522 17.0872 5.15954 16.8812 5.6892Z" fill="currentColor"/>
</svg>
