<svg width="24" height="24" viewBox="0 0 24 24" fill="none" xmlns="http://www.w3.org/2000/svg">
<path fill-rule="evenodd" clip-rule="evenodd" d="M2.99988 9.00001C3.55216 9.00001 3.99988 8.5523 3.99988 8.00001V2C3.99988 1.44772 3.55216 1 2.99988 1C2.44759 1 1.99988 1.44772 1.99988 2V8.00001C1.99988 8.5523 2.44759 9.00001 2.99988 9.00001ZM13.189 1.99978L13.0513 1.99965C12.3997 1.99872 11.8273 1.9979 11.3114 2.19206C10.86 2.36195 10.4562 2.63815 10.1343 2.99726C9.76638 3.4077 9.55968 3.94148 9.32436 4.54918L9.27458 4.67754L7.20479 9.99998H6.99999C6.44771 9.99998 5.99999 10.4477 5.99999 11C5.99999 11.5523 6.44771 12 6.99999 12H7.86354C7.88029 12.0004 7.89701 12.0004 7.91368 12H12C12.5523 12 13 11.5523 13 11C13 10.4477 12.5523 9.99998 12 9.99998H9.3507L11.1386 5.40242C11.4541 4.59102 11.5313 4.43512 11.6235 4.33227C11.7308 4.21257 11.8654 4.1205 12.0159 4.06388C12.1451 4.01523 12.3184 3.99978 13.189 3.99978H15.7255C16.2938 3.99978 16.6521 4.00076 16.9148 4.02456C17.096 4.04098 17.1648 4.0641 17.1796 4.06989C17.2619 4.12629 17.3201 4.21141 17.3429 4.30852C17.3429 4.32451 17.3395 4.397 17.2891 4.57183C17.2161 4.82524 17.0872 5.15955 16.8812 5.68921L14.1791 12.6376C13.9789 13.1523 14.2339 13.7319 14.7487 13.932C15.2634 14.1322 15.8429 13.8772 16.0431 13.3625L18.7452 6.41409L18.7608 6.37388C18.9465 5.89647 19.1098 5.4767 19.211 5.12549C19.3158 4.76143 19.3955 4.34081 19.2999 3.89568C19.1677 3.28045 18.7992 2.74174 18.2737 2.39557C17.8935 2.14511 17.4726 2.06692 17.0953 2.03272C16.7313 1.99973 16.2809 1.99976 15.7686 1.99978L15.7255 1.99978H13.189ZM19.6294 12.7653C19.7481 12.4648 19.9344 12.2048 20.1667 12H19.5C18.9477 12 18.5 11.5523 18.5 11C18.5 10.4477 18.9477 9.99998 19.5 9.99998H21.25L21.2692 9.99998C21.3684 9.99994 21.4868 9.99991 21.5916 10.0071C21.7123 10.0153 21.8859 10.0362 22.074 10.1142C22.4416 10.2664 22.7336 10.5584 22.8858 10.926C22.9637 11.1141 22.9847 11.2877 22.9929 11.4083C23.0001 11.5131 23 11.6315 23 11.7306V11.7308L23 11.75V11.9956L23 12.0103C22.9943 12.8307 22.3307 13.4943 21.5103 13.4999L21.4956 13.5L21.4898 13.5L21.4896 13.5L21.4896 13.5001L21.4875 13.5056L19.027 19.8325L18.9856 19.9396L18.9856 19.9396C18.8148 20.3817 18.6434 20.8254 18.3354 21.169C18.0671 21.4682 17.7306 21.6984 17.3545 21.84C16.9226 22.0025 16.447 22.0015 15.973 22.0004L15.8582 22.0002H8.14177L8.02696 22.0004C7.55297 22.0015 7.07736 22.0025 6.64548 21.84C6.26933 21.6984 5.93287 21.4682 5.6646 21.169C5.35657 20.8254 5.18519 20.3817 5.01439 19.9396L4.97294 19.8325L3.6235 16.3624C3.42333 15.8477 3.67833 15.2681 4.19307 15.068C4.7078 14.8678 5.28734 15.1228 5.48751 15.6375L6.83696 19.1076C7.08092 19.735 7.12234 19.7989 7.1538 19.834C7.20746 19.8938 7.27475 19.9399 7.34998 19.9682C7.39409 19.9848 7.46864 20.0002 8.14177 20.0002H15.8582C16.5313 20.0002 16.6059 19.9848 16.65 19.9682C16.7252 19.9399 16.7925 19.8938 16.8462 19.834C16.8776 19.7989 16.9191 19.735 17.163 19.1076L19.6234 12.7807L19.6294 12.7653ZM2.49988 13.5C1.94759 13.5 1.49988 13.0523 1.49988 12.5V11.5C1.49988 10.9477 1.94759 10.5 2.49988 10.5H3.49988C4.05216 10.5 4.49988 10.9477 4.49988 11.5V12.5C4.49988 13.0523 4.05216 13.5 3.49988 13.5H2.49988Z" fill="currentColor"/>
</svg>
