<svg width="24" height="24" viewBox="0 0 24 24" fill="none" xmlns="http://www.w3.org/2000/svg">
<path fill-rule="evenodd" clip-rule="evenodd" d="M12.0249 1.5C12.5772 1.5 13.0249 1.94772 13.0249 2.5V3.07109C16.197 3.52556 18.7113 6.11055 19.0017 9.38495L19.3507 11.6033C19.3544 11.6273 19.3573 11.6514 19.3594 11.6756C19.4725 13.0335 19.837 14.3585 20.4342 15.5833L20.8378 16.4111L20.8516 16.4393C20.9324 16.605 21.0202 16.7848 21.0803 16.9434C21.1436 17.1102 21.2343 17.394 21.1823 17.7296C21.1195 18.1353 20.8931 18.4975 20.556 18.7317C20.2771 18.9256 19.9823 18.9684 19.8046 18.9847C19.6358 19.0001 19.4357 19.0001 19.2514 19H19.2514L19.2199 19H14.9918C15.0001 19.1752 15.0001 19.3696 15.0001 19.568V19.5681V19.5681L15 19.6V20.4L15.0001 20.4319V20.4319C15.0001 20.6843 15.0001 20.9301 14.9831 21.1382C14.9644 21.3668 14.9204 21.6366 14.7821 21.908C14.5903 22.2843 14.2844 22.5903 13.908 22.782C13.6366 22.9203 13.3669 22.9644 13.1383 22.9831C12.9301 23.0001 12.6844 23 12.432 23H12.432H12.4319L12.4001 23H11.6L11.5682 23H11.5681H11.5681C11.3157 23 11.07 23.0001 10.8618 22.9831C10.6332 22.9644 10.3635 22.9203 10.0921 22.782C9.71574 22.5903 9.40978 22.2843 9.21804 21.908C9.07974 21.6366 9.03567 21.3668 9.017 21.1382C8.99999 20.9301 9.00002 20.6843 9.00005 20.4319L9.00005 20.4V19.6L9.00005 19.5681C9.00002 19.3696 9 19.1752 9.00826 19H4.79448L4.76284 19H4.76279C4.57659 19.0001 4.37497 19.0001 4.20501 18.9846C4.0268 18.9682 3.72961 18.9252 3.44936 18.7292C3.11125 18.4927 2.88548 18.1274 2.82518 17.7192C2.77519 17.3809 2.8696 17.0959 2.93471 16.9292C2.99681 16.7702 3.08704 16.5898 3.17037 16.4233L3.18451 16.395L3.57215 15.6197C4.19797 14.3681 4.57921 13.0085 4.69544 11.614C4.69752 11.5891 4.70052 11.5643 4.70445 11.5396L5.0481 9.38383C5.33897 6.10992 7.85313 3.52546 11.0249 3.07108V2.5C11.0249 1.94772 11.4726 1.5 12.0249 1.5ZM12 19H12.4001C12.6966 19 12.8588 19.0008 12.9754 19.0103L12.9886 19.0114L12.9897 19.0246C12.9993 19.1412 13 19.3035 13 19.6V20.4C13 20.6965 12.9993 20.8588 12.9897 20.9754L12.9886 20.9886L12.9754 20.9897C12.8588 20.9992 12.6966 21 12.4001 21H11.6C11.3035 21 11.1413 20.9992 11.0247 20.9897L11.0115 20.9886L11.0104 20.9754C11.0008 20.8588 11 20.6965 11 20.4V19.6C11 19.3035 11.0008 19.1412 11.0104 19.0246L11.0115 19.0114L11.0247 19.0103C11.1413 19.0008 11.3035 19 11.6 19H12ZM18.8999 17H12.496L12.432 17H12.4319L12.4001 17H12H11.6L11.5682 17H11.5681L11.5041 17H5.11808L5.361 16.5142C6.09491 15.0464 6.54421 13.453 6.6853 11.8182L7.02884 9.66306C7.03278 9.63839 7.03578 9.61359 7.03786 9.58869C7.25402 6.99502 9.42222 5.00002 12.0249 5.00004C14.6275 5.00006 16.7957 6.99508 17.0119 9.58875C17.0139 9.61296 17.0168 9.63709 17.0205 9.6611L17.3694 11.8788C17.5067 13.4706 17.9362 15.0236 18.6365 16.4598L18.8999 17ZM5.43172 4.63219C5.78087 4.20428 5.71702 3.57434 5.28911 3.22519C4.86119 2.87604 4.23125 2.93989 3.8821 3.36781C2.63061 4.90162 1.80108 6.80149 1.57937 8.89467C1.5212 9.44388 1.91927 9.93627 2.46848 9.99444C3.0177 10.0526 3.51008 9.65454 3.56825 9.10533C3.74781 7.41001 4.41856 5.87392 5.43172 4.63219ZM20.1677 3.36781C19.8186 2.93989 19.1887 2.87604 18.7607 3.22519C18.3328 3.57434 18.269 4.20428 18.6181 4.63219C19.6313 5.87392 20.302 7.41002 20.4816 9.10533C20.5398 9.65454 21.0321 10.0526 21.5814 9.99444C22.1306 9.93627 22.5286 9.44388 22.4705 8.89467C22.2488 6.80149 21.4192 4.90162 20.1677 3.36781Z" fill="currentColor"/>
</svg>
