<svg width="24" height="24" viewBox="0 0 24 24" fill="none" xmlns="http://www.w3.org/2000/svg">
<path fill-rule="evenodd" clip-rule="evenodd" d="M13.0248 2.5C13.0248 1.94772 12.5771 1.5 12.0248 1.5C11.4725 1.5 11.0248 1.94772 11.0248 2.5V3.07108C7.84054 3.52725 5.31907 6.13033 5.04468 9.42258C4.94103 10.6663 4.80995 11.9794 4.5298 13.2175C4.24888 14.459 3.83216 15.5571 3.19997 16.4C2.9727 16.703 2.93615 17.1084 3.10554 17.4472C3.27493 17.786 3.62119 18 3.99997 18H20C20.3787 18 20.725 17.786 20.8944 17.4472C21.0638 17.1084 21.0272 16.703 20.8 16.4C20.1711 15.5615 19.7661 14.4681 19.4969 13.2263C19.2281 11.9867 19.1092 10.6744 19.0049 9.42265C18.7305 6.13041 16.2091 3.5273 13.0248 3.07109V2.5ZM10.109 19.546C9.99997 19.7599 9.99997 20.0399 9.99997 20.6V21.4C9.99997 21.9601 9.99997 22.2401 10.109 22.454C10.2048 22.6422 10.3578 22.7951 10.546 22.891C10.7599 23 11.0399 23 11.6 23H12.4C12.96 23 13.24 23 13.454 22.891C13.6421 22.7951 13.7951 22.6422 13.891 22.454C14 22.2401 14 21.9601 14 21.4V20.6C14 20.0399 14 19.7599 13.891 19.546C13.7951 19.3578 13.6421 19.2049 13.454 19.109C13.24 19 12.96 19 12.4 19H11.6C11.0399 19 10.7599 19 10.546 19.109C10.3578 19.2049 10.2048 19.3578 10.109 19.546ZM5.4316 4.63219C5.78075 4.20428 5.7169 3.57434 5.28898 3.22519C4.86107 2.87604 4.23113 2.93989 3.88198 3.36781C2.63049 4.90162 1.80096 6.80149 1.57925 8.89467C1.52108 9.44388 1.91915 9.93627 2.46836 9.99444C3.01757 10.0526 3.50996 9.65454 3.56813 9.10533C3.74769 7.41001 4.41843 5.87392 5.4316 4.63219ZM20.1676 3.36781C19.8185 2.93989 19.1885 2.87604 18.7606 3.22519C18.3327 3.57434 18.2688 4.20428 18.618 4.63219C19.6312 5.87392 20.3019 7.41002 20.4815 9.10533C20.5396 9.65454 21.032 10.0526 21.5812 9.99444C22.1305 9.93627 22.5285 9.44388 22.4703 8.89467C22.2486 6.80149 21.4191 4.90162 20.1676 3.36781Z" fill="currentColor"/>
</svg>
