<svg width="24" height="24" viewBox="0 0 24 24" fill="none" xmlns="http://www.w3.org/2000/svg">
<path fill-rule="evenodd" clip-rule="evenodd" d="M12.0249 1.5C12.5771 1.5 13.0249 1.94772 13.0249 2.5V3.07109C16.2091 3.5273 18.7305 6.13041 19.0049 9.42265C19.1092 10.6744 19.2281 11.9867 19.4969 13.2263C19.7662 14.4681 20.1711 15.5615 20.8 16.4C21.0273 16.703 21.0638 17.1084 20.8944 17.4472C20.725 17.786 20.3788 18 20 18H4.00001C3.62123 18 3.27497 17.786 3.10558 17.4472C2.93619 17.1084 2.97274 16.703 3.20001 16.4C3.8322 15.5571 4.24892 14.459 4.52984 13.2175C4.80999 11.9794 4.94107 10.6663 5.04472 9.42258C5.31911 6.13033 7.84059 3.52725 11.0249 3.07108V2.5C11.0249 1.94772 11.4726 1.5 12.0249 1.5ZM10 20.6C10 20.0399 10 19.7599 10.109 19.546C10.2049 19.3578 10.3579 19.2049 10.546 19.109C10.7599 19 11.04 19 11.6 19H12.4C12.9601 19 13.2401 19 13.454 19.109C13.6422 19.2049 13.7951 19.3578 13.891 19.546C14 19.7599 14 20.0399 14 20.6V21.4C14 21.9601 14 22.2401 13.891 22.454C13.7951 22.6422 13.6422 22.7951 13.454 22.891C13.2401 23 12.9601 23 12.4 23H11.6C11.04 23 10.7599 23 10.546 22.891C10.3579 22.7951 10.2049 22.6422 10.109 22.454C10 22.2401 10 21.9601 10 21.4V20.6Z" fill="currentColor"/>
</svg>
