<svg width="24" height="24" viewBox="0 0 24 24" fill="none" xmlns="http://www.w3.org/2000/svg">
<path fill-rule="evenodd" clip-rule="evenodd" d="M13.0248 2.5C13.0248 1.94772 12.5771 1.5 12.0248 1.5C11.4726 1.5 11.0248 1.94772 11.0248 2.5V3.07108C7.85308 3.52546 5.33892 6.10992 5.04805 9.38383L4.7044 11.5396C4.70047 11.5643 4.69747 11.5891 4.69539 11.614C4.57916 13.0085 4.19792 14.3681 3.5721 15.6197L3.18446 16.395L3.17031 16.4233L3.1703 16.4233C3.08698 16.5898 2.99676 16.7702 2.93466 16.9292C2.86955 17.0959 2.77514 17.3809 2.82513 17.7192C2.88543 18.1274 3.1112 18.4927 3.4493 18.7292L4.02245 17.9097L3.44931 18.7292C3.53711 18.7906 3.62658 18.837 3.71353 18.8723L2.29289 20.2929C1.90237 20.6834 1.90237 21.3166 2.29289 21.7071C2.68342 22.0976 3.31658 22.0976 3.70711 21.7071L17.8477 7.56653L21.7071 3.70711C22.0976 3.31658 22.0976 2.68342 21.7071 2.29289C21.3166 1.90237 20.6834 1.90237 20.2929 2.29289L17.2481 5.33766C16.1727 4.13506 14.6896 3.30966 13.0248 3.0711V2.5ZM15.8309 6.75486L5.58244 17.0033C5.55525 17.0011 5.52776 17 5.5 17H5.11803L5.36095 16.5142C6.09486 15.0464 6.54416 13.453 6.68525 11.8182L7.02879 9.66306C7.03273 9.63839 7.03573 9.61359 7.03781 9.58869C7.25397 6.99502 9.42217 5.00002 12.0248 5.00004C13.5401 5.00005 14.9089 5.67608 15.8309 6.75486ZM19.2313 10.8446C19.1454 10.299 18.6336 9.92632 18.088 10.0121C17.5424 10.098 17.1697 10.6098 17.2556 11.1554L17.3694 11.8788C17.5066 13.4706 17.9361 15.0236 18.6364 16.4598L18.8998 17H12.4959C12.4746 17 12.4533 17 12.4319 17H12.4319L12.4 17H12H11.6L11.5681 17H11.5681C11.3157 17 11.0699 16.9999 10.8618 17.0169C10.6332 17.0356 10.3634 17.0797 10.092 17.218C9.71569 17.4097 9.40973 17.7157 9.21799 18.092C9.07969 18.3634 9.03562 18.6332 9.01695 18.8618C8.99994 19.0699 8.99997 19.3157 9 19.5681V19.5681L9 19.6V20.4L9 20.4319V20.4319C8.99997 20.6843 8.99994 20.9301 9.01695 21.1382C9.03562 21.3668 9.07969 21.6366 9.21799 21.908C9.40973 22.2843 9.71569 22.5903 10.092 22.782C10.3634 22.9203 10.6332 22.9644 10.8618 22.9831C11.0699 23.0001 11.3157 23 11.5681 23H11.5681L11.6 23H12.4L12.4319 23H12.4319C12.6843 23 12.9301 23.0001 13.1382 22.9831C13.3668 22.9644 13.6366 22.9203 13.908 22.782C14.2843 22.5903 14.5903 22.2843 14.782 21.908C14.9203 21.6366 14.9644 21.3668 14.9831 21.1382C15.0001 20.9301 15 20.6843 15 20.4319V20.4319L15 20.4V19.6L15 19.5681V19.5681C15 19.3696 15 19.1752 14.9918 19H19.2199L19.2513 19H19.2514C19.4357 19.0001 19.6357 19.0001 19.8046 18.9847C19.9822 18.9684 20.2771 18.9256 20.556 18.7317C20.8931 18.4975 21.1194 18.1353 21.1822 17.7296C21.2342 17.394 21.1435 17.1102 21.0803 16.9434C21.0201 16.7848 20.9324 16.605 20.8515 16.4393L20.8378 16.4111L20.4341 15.5833C19.8369 14.3585 19.4725 13.0335 19.3593 11.6756C19.3573 11.6514 19.3544 11.6273 19.3506 11.6033L19.2313 10.8446ZM12.4 19H12H11.6C11.3035 19 11.1412 19.0008 11.0246 19.0103L11.0114 19.0114L11.0103 19.0246C11.0008 19.1412 11 19.3035 11 19.6V20.4C11 20.6965 11.0008 20.8588 11.0103 20.9754L11.0114 20.9886L11.0246 20.9897C11.1412 20.9992 11.3035 21 11.6 21H12.4C12.6965 21 12.8588 20.9992 12.9754 20.9897L12.9886 20.9886L12.9897 20.9754C12.9992 20.8588 13 20.6965 13 20.4V19.6C13 19.3035 12.9992 19.1412 12.9897 19.0246L12.9886 19.0114L12.9754 19.0103C12.8588 19.0008 12.6965 19 12.4 19Z" fill="currentColor"/>
</svg>
