<svg width="24" height="24" viewBox="0 0 24 24" fill="none" xmlns="http://www.w3.org/2000/svg">
<path fill-rule="evenodd" clip-rule="evenodd" d="M6.00001 8.00001C6.00001 8.5523 5.55229 9.00001 5.00001 9.00001C4.44772 9.00001 4.00001 8.5523 4.00001 8.00001V2C4.00001 1.44772 4.44772 1 5.00001 1C5.55229 1 6.00001 1.44772 6.00001 2V8.00001ZM13.0249 2.50001C13.0249 1.94773 12.5771 1.50001 12.0249 1.50001C11.4726 1.50001 11.0249 1.94773 11.0249 2.50001V3.07118C10.1159 3.20152 9.26022 3.50689 8.49566 3.95345C8.01876 4.232 7.85796 4.8444 8.13651 5.3213C8.41505 5.7982 9.02746 5.959 9.50436 5.68045C10.2461 5.24722 11.1074 5.00005 12.0248 5.00005C14.6275 5.00007 16.7957 6.99509 17.0118 9.58876C17.0138 9.61297 17.0167 9.63711 17.0205 9.66111L17.3694 11.8788C17.5066 13.4706 17.9361 15.0236 18.6365 16.4599L18.8998 17H12.5168L12.4319 17H12.4319L12.4 17H11.6L11.5681 17H11.5681L11.4832 17H4.88743L4.94869 16.8162C5.12334 16.2923 4.84018 15.726 4.31624 15.5513C3.79229 15.3767 3.22597 15.6598 3.05132 16.1838L2.55132 17.6838C2.44967 17.9887 2.50081 18.324 2.68877 18.5847C2.87672 18.8455 3.17856 19 3.50001 19H9.00821C8.99995 19.1752 8.99997 19.3696 9 19.5681V19.5681L9 19.6V20.4L9 20.4319V20.4319C8.99997 20.6843 8.99994 20.9301 9.01695 21.1382C9.03562 21.3668 9.07969 21.6366 9.21799 21.908C9.40973 22.2843 9.71569 22.5903 10.092 22.782C10.3634 22.9203 10.6332 22.9644 10.8618 22.9831C11.0699 23.0001 11.3157 23 11.568 23H11.5681H11.5681L11.6 23H12.4L12.4319 23H12.4319H12.432C12.6843 23 12.9301 23.0001 13.1382 22.9831C13.3668 22.9644 13.6366 22.9203 13.908 22.782C14.2843 22.5903 14.5903 22.2843 14.782 21.908C14.9203 21.6366 14.9644 21.3668 14.9831 21.1382C15.0001 20.9301 15 20.6843 15 20.4319V20.4319L15 20.4V19.6L15 19.5681V19.5681V19.568C15 19.3696 15 19.1752 14.9918 19H20.5C20.8448 19 21.1653 18.8224 21.348 18.53C21.5308 18.2376 21.55 17.8717 21.3988 17.5617L20.4341 15.5833C19.8369 14.3586 19.4725 13.0335 19.3593 11.6757C19.3573 11.6514 19.3544 11.6273 19.3506 11.6033L19.0017 9.38496C18.7113 6.11056 16.1969 3.52557 13.0249 3.0711V2.50001ZM11.0246 19.0103C11.1338 19.0014 11.2831 19.0001 11.5451 19H12H12.4549C12.7169 19.0001 12.8662 19.0014 12.9754 19.0103L12.9886 19.0114L12.9897 19.0246C12.9992 19.1412 13 19.3035 13 19.6V20.4C13 20.6965 12.9992 20.8588 12.9897 20.9754L12.9886 20.9886L12.9754 20.9897C12.8588 20.9992 12.6965 21 12.4 21H11.6C11.3035 21 11.1412 20.9992 11.0246 20.9897L11.0114 20.9886L11.0103 20.9754C11.0008 20.8588 11 20.6965 11 20.4V19.6C11 19.3035 11.0008 19.1412 11.0103 19.0246L11.0114 19.0114L11.0246 19.0103ZM4.50001 13.5C3.94772 13.5 3.50001 13.0523 3.50001 12.5V11.5C3.50001 10.9477 3.94772 10.5 4.50001 10.5H5.50001C6.05229 10.5 6.50001 10.9477 6.50001 11.5V12.5C6.50001 13.0523 6.05229 13.5 5.50001 13.5H4.50001Z" fill="currentColor"/>
</svg>
