<svg width="24" height="24" viewBox="0 0 24 24" fill="none" xmlns="http://www.w3.org/2000/svg">
<path fill-rule="evenodd" clip-rule="evenodd" d="M13.0249 2.5C13.0249 1.94772 12.5772 1.5 12.0249 1.5C11.4726 1.5 11.0249 1.94772 11.0249 2.5V3.07108C7.85311 3.52546 5.33895 6.10992 5.04808 9.38383L4.70443 11.5396C4.7005 11.5643 4.69749 11.5891 4.69542 11.614C4.57919 13.0085 4.19794 14.3681 3.57212 15.6197L3.18449 16.395L3.17035 16.4233C3.08702 16.5898 2.99679 16.7702 2.93469 16.9292C2.86958 17.0959 2.77517 17.3809 2.82515 17.7192C2.88546 18.1274 3.11123 18.4927 3.44934 18.7292C3.72958 18.9252 4.02678 18.9682 4.20499 18.9846C4.37495 19.0001 4.57657 19.0001 4.76276 19H4.76282L4.79446 19H9.00824C8.99998 19.1752 9 19.3696 9.00003 19.5681L9.00003 19.6V20.4L9.00003 20.4319C9 20.6843 8.99997 20.9301 9.01697 21.1382C9.03565 21.3668 9.07972 21.6366 9.21802 21.908C9.40976 22.2843 9.71572 22.5903 10.092 22.782C10.3635 22.9203 10.6332 22.9644 10.8618 22.9831C11.0699 23.0001 11.3157 23 11.5681 23H11.5681L11.6 23H12.4L12.4319 23H12.432C12.6843 23 12.9301 23.0001 13.1383 22.9831C13.3669 22.9644 13.6366 22.9203 13.908 22.782C14.2843 22.5903 14.5903 22.2843 14.782 21.908C14.9203 21.6366 14.9644 21.3668 14.9831 21.1382C15.0001 20.9301 15.0001 20.6843 15 20.4319V20.4319L15 20.4V19.6L15 19.5681V19.5681C15.0001 19.3696 15.0001 19.1752 14.9918 19H19.2199L19.2513 19H19.2514C19.4357 19.0001 19.6358 19.0001 19.8046 18.9847C19.9823 18.9684 20.2771 18.9256 20.556 18.7317C20.8931 18.4975 21.1194 18.1353 21.1823 17.7296C21.2343 17.394 21.1435 17.1102 21.0803 16.9434C21.0202 16.7848 20.9324 16.605 20.8516 16.4393L20.8378 16.4111L20.4341 15.5833C19.837 14.3585 19.4725 13.0335 19.3593 11.6756C19.3573 11.6514 19.3544 11.6273 19.3507 11.6033L19.0017 9.38495C18.7113 6.11055 16.197 3.52556 13.0249 3.07109V2.5ZM12.4 19H12H11.6C11.3035 19 11.1412 19.0008 11.0247 19.0103L11.0115 19.0114L11.0103 19.0246C11.0008 19.1412 11 19.3035 11 19.6V20.4C11 20.6965 11.0008 20.8588 11.0103 20.9754L11.0115 20.9886L11.0247 20.9897C11.1412 20.9992 11.3035 21 11.6 21H12.4C12.6966 21 12.8588 20.9992 12.9754 20.9897L12.9886 20.9886L12.9897 20.9754C12.9993 20.8588 13 20.6965 13 20.4V19.6C13 19.3035 12.9993 19.1412 12.9897 19.0246L12.9886 19.0114L12.9754 19.0103C12.8588 19.0008 12.6966 19 12.4 19ZM12.4959 17H18.8999L18.6365 16.4598C17.9361 15.0236 17.5066 13.4706 17.3694 11.8788L17.0205 9.6611C17.0168 9.63709 17.0139 9.61296 17.0118 9.58875C16.7957 6.99508 14.6275 5.00006 12.0249 5.00004C9.4222 5.00002 7.254 6.99502 7.03784 9.58869C7.03576 9.61359 7.03276 9.63839 7.02882 9.66306L6.68528 11.8182C6.54419 13.453 6.09489 15.0464 5.36098 16.5142L5.11806 17H11.5041C11.5254 17 11.5467 17 11.5681 17H11.5681L11.6 17H12H12.4L12.4319 17H12.432C12.4533 17 12.4747 17 12.4959 17Z" fill="currentColor"/>
</svg>
