<svg width="24" height="24" viewBox="0 0 24 24" fill="none" xmlns="http://www.w3.org/2000/svg">
<path fill-rule="evenodd" clip-rule="evenodd" d="M12.0248 1.5C12.5771 1.5 13.0248 1.94772 13.0248 2.5C13.0248 3.92383 11.8829 4.87531 10.7867 5.15449C8.76333 5.66981 7.21844 7.421 7.03778 9.58869C7.0357 9.61359 7.03269 9.63839 7.02876 9.66306L6.68522 11.8182C6.54413 13.453 6.09482 15.0464 5.36092 16.5142L5.118 17H11.5041L11.568 17H11.5681L11.6 17H12H12.4L12.4319 17H12.4319L12.4959 17H18.8998L18.6364 16.4598C18.4599 16.0979 18.3007 15.7286 18.1589 15.3532C17.9639 14.8365 18.2247 14.2595 18.7414 14.0644C19.2581 13.8694 19.835 14.1301 20.0301 14.6468C20.15 14.9646 20.2848 15.277 20.4341 15.5833L20.8377 16.4111L20.8515 16.4393C20.9323 16.605 21.0201 16.7848 21.0802 16.9434C21.1435 17.1102 21.2342 17.394 21.1822 17.7296C21.1194 18.1353 20.893 18.4975 20.5559 18.7317C20.277 18.9256 19.9822 18.9684 19.8046 18.9847C19.6357 19.0001 19.4356 19.0001 19.2513 19H19.2513L19.2198 19H14.9918C15 19.1752 15 19.3696 15 19.568V19.5681V19.5681L15 19.6V20.4L15 20.4319V20.4319C15 20.6843 15 20.9301 14.983 21.1382C14.9643 21.3668 14.9203 21.6366 14.782 21.908C14.5902 22.2843 14.2843 22.5903 13.9079 22.782C13.6365 22.9203 13.3668 22.9644 13.1382 22.9831C12.9301 23.0001 12.6843 23 12.4319 23H12.4319H12.4319L12.4 23H11.6L11.5681 23H11.568H11.568C11.3156 23 11.0699 23.0001 10.8617 22.9831C10.6331 22.9644 10.3634 22.9203 10.092 22.782C9.71566 22.5903 9.4097 22.2843 9.21796 21.908C9.07966 21.6366 9.03559 21.3668 9.01691 21.1382C8.99991 20.9301 8.99994 20.6843 8.99997 20.4319V20.4319L8.99997 20.4V19.6L8.99997 19.5681V19.5681C8.99994 19.3696 8.99992 19.1752 9.00818 19H4.7944L4.76276 19H4.7627C4.57651 19.0001 4.37489 19.0001 4.20493 18.9846C4.02672 18.9682 3.72952 18.9252 3.44927 18.7292C3.11117 18.4927 2.8854 18.1274 2.82509 17.7192C2.77511 17.3809 2.86951 17.0959 2.93463 16.9292C2.99673 16.7702 3.08696 16.5898 3.17029 16.4233L3.18443 16.395L3.57206 15.6197C4.19788 14.3681 4.57913 13.0085 4.69536 11.614C4.69743 11.5891 4.70044 11.5643 4.70437 11.5396L5.04802 9.38383C5.3162 6.36525 7.4737 3.93442 10.2931 3.21636C10.8026 3.08661 11.0248 2.73306 11.0248 2.5C11.0248 1.94772 11.4725 1.5 12.0248 1.5ZM12 19H12.4C12.6965 19 12.8587 19.0008 12.9753 19.0103L12.9885 19.0114L12.9897 19.0246C12.9992 19.1412 13 19.3035 13 19.6V20.4C13 20.6965 12.9992 20.8588 12.9897 20.9754L12.9885 20.9886L12.9753 20.9897C12.8587 20.9992 12.6965 21 12.4 21H11.6C11.3034 21 11.1412 20.9992 11.0246 20.9897L11.0114 20.9886L11.0103 20.9754C11.0007 20.8588 11 20.6965 11 20.4V19.6C11 19.3035 11.0007 19.1412 11.0103 19.0246L11.0114 19.0114L11.0246 19.0103C11.1412 19.0008 11.3034 19 11.6 19H12ZM19 3.00007C19 2.44778 18.5523 2.00004 18 2C17.4478 1.99996 17 2.44765 17 2.99993L16.9998 6.00005L14 6C13.4477 5.99999 13 6.4477 13 6.99998C13 7.55227 13.4477 7.99999 14 8L16.9998 8.00005L17 11.0001C17 11.5524 17.4478 12 18 12C18.5523 12 19 11.5522 19 10.9999L18.9998 8.00005L22 8C22.5523 7.99999 23 7.55227 23 6.99998C23 6.4477 22.5522 5.99999 22 6L18.9998 6.00005L19 3.00007Z" fill="currentColor"/>
</svg>
