<svg width="24" height="24" viewBox="0 0 24 24" fill="none" xmlns="http://www.w3.org/2000/svg">
<path fill-rule="evenodd" clip-rule="evenodd" d="M18.5 4.49982C19.8807 4.49982 21 5.6191 21 6.99982V16.9998C21 20.3135 18.3137 22.9998 15 22.9998H10.6922C8.67152 22.9998 6.79652 21.9483 5.74286 20.2241L2.42868 14.8009C1.71912 13.6398 1.98374 12.1322 3.04631 11.2821C4.21154 10.3499 5.91183 10.5389 6.84402 11.7041L6.99998 11.899L6.99998 4.99918C6.99998 3.6145 8.12424 2.49292 9.50892 2.49623C9.73844 2.49678 9.96067 2.52821 10.1717 2.58657C10.5373 1.65382 11.4465 0.994048 12.509 0.996589C13.397 0.998713 14.176 1.46299 14.6186 2.16135C14.8938 2.05696 15.1922 1.99982 15.5039 1.99982C16.8824 1.99982 18 3.11735 18 4.4959V4.54983C18.1615 4.51703 18.3287 4.49982 18.5 4.49982ZM18 6.99982V11.9998C18 12.5521 17.5523 12.9998 17 12.9998C16.4477 12.9998 16 12.5521 16 11.9998V6.99982V4.4959C16 4.22192 15.7779 3.99982 15.5039 3.99982C15.2301 3.99982 15.0081 4.22161 15.0078 4.49538L15 12.0005V12.0009C14.9994 12.5531 14.5513 13.0003 13.9991 12.9998C13.4469 12.9993 12.9996 12.5513 13 11.9991V11.9988L13 11.9981L13.0061 3.50001C13.0063 3.2225 12.7817 2.99725 12.5042 2.99658C12.2259 2.99592 11.9999 3.22134 11.9999 3.49965V4.8254C12.0039 4.88351 12.0059 4.94217 12.0059 5.0013L11.9999 11.9998V12.0007C11.9995 12.5528 11.5516 13.0001 10.9995 12.9998C10.4474 12.9996 9.99995 12.5519 9.99995 11.9998V11.999L9.99995 4.92166C9.96274 4.68115 9.75509 4.49683 9.50413 4.49623C9.22589 4.49556 8.99998 4.72093 8.99998 4.99918L8.99998 14.3332C8.99998 14.3545 8.99931 14.3756 8.998 14.3966L9.78084 15.3751C10.1259 15.8064 10.0559 16.4357 9.62467 16.7807C9.19341 17.1257 8.56412 17.0558 8.21911 16.6245L5.28228 12.9535C5.04012 12.6508 4.59841 12.6017 4.2957 12.8439C4.01966 13.0647 3.95092 13.4564 4.13525 13.758L7.44942 19.1812C8.13977 20.3109 9.36826 20.9998 10.6922 20.9998H15C17.2091 20.9998 19 19.209 19 16.9998V6.99982C19 6.72367 18.7761 6.49982 18.5 6.49982C18.2238 6.49982 18 6.72367 18 6.99982Z" fill="currentColor"/>
</svg>
