<svg width="24" height="24" viewBox="0 0 24 24" fill="none" xmlns="http://www.w3.org/2000/svg">
<path fill-rule="evenodd" clip-rule="evenodd" d="M16 2C17.6569 2 19 3.34315 19 5V7C19 7.55228 18.5523 8 18 8C17.4477 8 17 7.55228 17 7V5C17 4.44772 16.5523 4 16 4H5C4.44771 4 4 4.44772 4 5V19C4 19.5523 4.44771 20 5 20H7.5C8.05229 20 8.5 20.4477 8.5 21C8.5 21.5523 8.05229 22 7.5 22H5C3.34315 22 2 20.6569 2 19V5C2 3.34315 3.34315 2 5 2H16ZM13 6C13.5523 6 14 6.44772 14 7V8C14 8.55228 13.5523 9 13 9H12C11.4477 9 11 8.55228 11 8V7C11 6.44772 11.4477 6 12 6H13ZM8 6C8.55229 6 9 6.44772 9 7V8C9 8.55228 8.55229 9 8 9H7C6.44771 9 6 8.55228 6 8V7C6 6.44772 6.44771 6 7 6H8ZM8 11C8.55229 11 9 11.4477 9 12V13C9 13.5523 8.55229 14 8 14H7C6.44771 14 6 13.5523 6 13V12C6 11.4477 6.44771 11 7 11H8ZM14.5858 10.5C15.3668 9.71892 16.6332 9.71892 17.4142 10.5L21.1213 14.2071C21.6839 14.7697 22 15.5327 22 16.3284V20C22 21.1045 21.1046 22 20 22H16.25H15.75H12C10.8954 22 10 21.1045 10 20V16.3284C10 15.5327 10.3161 14.7697 10.8787 14.2071L14.5858 10.5ZM19.7071 15.6213L16 11.9142L12.2929 15.6213C12.1054 15.8088 12 16.0632 12 16.3284V20H14.75V19C14.75 18.4477 15.1977 18 15.75 18H16H16.25C16.8023 18 17.25 18.4477 17.25 19V20H20V16.3284C20 16.0632 19.8946 15.8088 19.7071 15.6213Z" fill="currentColor"/>
</svg>
