<svg width="24" height="24" viewBox="0 0 24 24" fill="none" xmlns="http://www.w3.org/2000/svg">
<mask id="mask0_1872_1164" style="mask-type:alpha" maskUnits="userSpaceOnUse" x="0" y="0" width="24" height="24">
<rect width="24" height="24" fill="#D9D9D9"/>
</mask>
<g mask="url(#mask0_1872_1164)">
<path d="M21.631 8.56236C21.3358 8.34602 20.7454 8.05756 19.5646 7.76911C19.1956 7.69699 18.8266 7.62487 18.3838 7.55275C17.7934 7.48064 17.2029 7.40853 16.3911 7.33642H16.3174C16.1698 6.97585 16.0222 6.61528 15.8745 6.25471C15.8007 6.03837 15.727 5.82203 15.5794 5.60569V5.53357C15.2841 4.74032 14.9151 3.94706 14.3247 3.22592C13.6605 2.43267 12.7749 2 11.8893 2C11.0037 2 10.1181 2.43267 9.45388 3.22592C8.86347 3.94706 8.49448 4.74032 8.19928 5.53357V5.60569C8.12548 5.82203 8.05166 6.03837 7.90406 6.25471C7.75646 6.61528 7.60887 6.97585 7.46127 7.33642H7.38747C6.64946 7.40853 5.98524 7.48064 5.39484 7.55275C4.95203 7.62487 4.58303 7.69699 4.21402 7.76911C3.10701 8.05756 2.44281 8.34602 2.14761 8.56236C2.07381 8.63448 2 8.77871 2 8.92293L2.07381 9.64407C2.22141 10.7258 2.36902 11.9517 2.66422 13.2498C2.88563 14.2594 3.10701 15.2689 3.47601 16.2064C3.62362 16.567 3.77122 16.9276 3.91882 17.2881C5.09963 19.5958 7.23986 21.3265 9.89669 21.9034C10.5609 22.0477 11.2251 22.1198 11.9631 22.1198C12.6273 22.1198 13.3653 22.0477 14.0295 21.9034C16.6864 21.3265 18.9004 19.5237 20.0812 17.1439C20.2288 16.8555 20.3764 16.567 20.4502 16.2785C21.262 14.1151 21.5572 11.8075 21.8524 9.93252L22 8.85082C21.7786 8.70659 21.7048 8.63448 21.631 8.56236ZM11.8155 7.12009C10.8561 7.12009 10.0443 7.12007 9.30629 7.19218C9.38009 7.12007 9.38008 6.97585 9.45388 6.90373C9.52768 6.68739 9.67527 6.47105 9.74908 6.25471C9.97048 5.74992 10.1919 5.24512 10.4133 4.81244C10.5609 4.59609 10.6347 4.45188 10.7823 4.23553C11.0037 4.01919 11.3727 3.65861 11.8893 3.65861C12.4059 3.65861 12.7749 4.01919 12.9963 4.23553C13.1439 4.37976 13.2915 4.59609 13.3653 4.81244C13.5867 5.24512 13.8081 5.74992 14.0295 6.25471C14.1033 6.47105 14.1771 6.68739 14.3247 6.90373C14.3985 6.97585 14.3985 7.12007 14.4723 7.19218C13.5867 7.12007 12.7011 7.12009 11.8155 7.12009Z" fill="url(#paint0_linear_1872_1164)"/>
</g>
<defs>
<linearGradient id="paint0_linear_1872_1164" x1="12" y1="2" x2="12" y2="22.1198" gradientUnits="userSpaceOnUse">
<stop stop-color="#96D700"/>
<stop offset="1" stop-color="#009A53"/>
</linearGradient>
</defs>
</svg>
