<svg width="24" height="24" viewBox="0 0 24 24" fill="none" xmlns="http://www.w3.org/2000/svg">
<path fill-rule="evenodd" clip-rule="evenodd" d="M8.7587 1H8.8H15.2H15.2413H15.2413C16.0463 0.999988 16.7106 0.999978 17.2518 1.04419C17.8139 1.09012 18.3306 1.18868 18.816 1.43598C19.5686 1.81947 20.1805 2.43139 20.564 3.18404C20.8113 3.66937 20.9099 4.18608 20.9558 4.74818C21 5.28937 21 5.95372 21 6.75868V6.8V9V17.2V17.2413C21 18.0463 21 18.7106 20.9558 19.2518C20.9099 19.8139 20.8113 20.3306 20.564 20.816C20.1805 21.5686 19.5686 22.1805 18.816 22.564C18.3306 22.8113 17.8139 22.9099 17.2518 22.9558C16.7106 23 16.0463 23 15.2413 23H15.2H8.8H8.75868C7.95372 23 7.28937 23 6.74818 22.9558C6.18608 22.9099 5.66937 22.8113 5.18404 22.564C4.43139 22.1805 3.81947 21.5686 3.43598 20.816C3.18868 20.3306 3.09012 19.8139 3.04419 19.2518C2.99998 18.7106 2.99999 18.0463 3 17.2413V17.2413V17.2V9V6.8V6.7587V6.75868C2.99999 5.95372 2.99998 5.28937 3.04419 4.74818C3.09012 4.18608 3.18868 3.66937 3.43598 3.18404C3.81947 2.43139 4.43139 1.81947 5.18404 1.43598C5.66937 1.18868 6.18608 1.09012 6.74818 1.04419C7.28937 0.999978 7.95372 0.999988 8.75868 1H8.7587ZM19 6.8V8H5V6.8C5 5.94342 5.00078 5.36113 5.03755 4.91104C5.07337 4.47262 5.1383 4.24842 5.21799 4.09202C5.40974 3.7157 5.7157 3.40974 6.09202 3.21799C6.24842 3.1383 6.47262 3.07337 6.91104 3.03755C7.36113 3.00078 7.94342 3 8.8 3H15.2C16.0566 3 16.6389 3.00078 17.089 3.03755C17.5274 3.07337 17.7516 3.1383 17.908 3.21799C18.2843 3.40974 18.5903 3.7157 18.782 4.09202C18.8617 4.24842 18.9266 4.47262 18.9624 4.91104C18.9992 5.36113 19 5.94342 19 6.8ZM19 10H5V17.2C5 18.0566 5.00078 18.6389 5.03755 19.089C5.07337 19.5274 5.1383 19.7516 5.21799 19.908C5.40974 20.2843 5.7157 20.5903 6.09202 20.782C6.24842 20.8617 6.47262 20.9266 6.91104 20.9624C7.36113 20.9992 7.94342 21 8.8 21H15.2C16.0566 21 16.6389 20.9992 17.089 20.9624C17.5274 20.9266 17.7516 20.8617 17.908 20.782C18.2843 20.5903 18.5903 20.2843 18.782 19.908C18.8617 19.7516 18.9266 19.5274 18.9624 19.089C18.9992 18.6389 19 18.0566 19 17.2V10ZM15.5 11.5C14.9477 11.5 14.5 11.9477 14.5 12.5V13.5C14.5 14.0523 14.9477 14.5 15.5 14.5H16.5C17.0523 14.5 17.5 14.0523 17.5 13.5V12.5C17.5 11.9477 17.0523 11.5 16.5 11.5H15.5ZM10.5 12.5C10.5 11.9477 10.9477 11.5 11.5 11.5H12.5C13.0523 11.5 13.5 11.9477 13.5 12.5V13.5C13.5 14.0523 13.0523 14.5 12.5 14.5H11.5C10.9477 14.5 10.5 14.0523 10.5 13.5V12.5ZM7.5 11.5C6.94772 11.5 6.5 11.9477 6.5 12.5V13.5C6.5 14.0523 6.94772 14.5 7.5 14.5H8.5C9.05229 14.5 9.5 14.0523 9.5 13.5V12.5C9.5 11.9477 9.05229 11.5 8.5 11.5H7.5ZM10.5 17C10.5 16.4477 10.9477 16 11.5 16H16.5C17.0523 16 17.5 16.4477 17.5 17V18C17.5 18.5523 17.0523 19 16.5 19H11.5C10.9477 19 10.5 18.5523 10.5 18V17ZM7.5 16C6.94772 16 6.5 16.4477 6.5 17V18C6.5 18.5523 6.94772 19 7.5 19H8.5C9.05229 19 9.5 18.5523 9.5 18V17C9.5 16.4477 9.05229 16 8.5 16H7.5Z" fill="currentColor"/>
</svg>
