<svg width="24" height="24" viewBox="0 0 24 24" fill="none" xmlns="http://www.w3.org/2000/svg">
<path fill-rule="evenodd" clip-rule="evenodd" d="M8.16146 2H8.2H15.8H15.8385H15.8386H15.8386C16.3657 1.99998 16.8205 1.99997 17.195 2.03057C17.5904 2.06287 17.9836 2.13419 18.362 2.32698C18.9265 2.6146 19.3854 3.07355 19.673 3.63803C19.8658 4.01641 19.9371 4.40963 19.9694 4.80498C20 5.17952 20 5.63424 20 6.16134V6.16136V6.16148V6.2V17.8V17.8385V17.8386V17.8387C20 18.3658 20 18.8205 19.9694 19.195C19.9371 19.5904 19.8658 19.9836 19.673 20.362C19.3854 20.9265 18.9265 21.3854 18.362 21.673C17.9836 21.8658 17.5904 21.9371 17.195 21.9694C16.8205 22 16.3657 22 15.8386 22H15.8H8.2H8.16144C7.6343 22 7.17954 22 6.80498 21.9694C6.40963 21.9371 6.01641 21.8658 5.63803 21.673C5.07355 21.3854 4.6146 20.9265 4.32698 20.362C4.13419 19.9836 4.06287 19.5904 4.03057 19.195C3.99997 18.8205 3.99998 18.3657 4 17.8386V17.8386V17.8385V17.8V6.2V6.16146V6.16142V6.16139C3.99998 5.63427 3.99997 5.17953 4.03057 4.80498C4.06287 4.40963 4.13419 4.01641 4.32698 3.63803C4.6146 3.07355 5.07355 2.6146 5.63803 2.32698C6.01641 2.13419 6.40963 2.06287 6.80498 2.03057C7.17953 1.99997 7.63426 1.99998 8.16138 2H8.16142H8.16146ZM6.96784 4.02393C6.69618 4.04613 6.59546 4.0838 6.54601 4.109C6.35785 4.20487 6.20487 4.35785 6.109 4.54601C6.0838 4.59546 6.04613 4.69618 6.02393 4.96784C6.00078 5.25118 6 5.62345 6 6.2V8H18V6.2C18 5.62345 17.9992 5.25118 17.9761 4.96784C17.9539 4.69618 17.9162 4.59546 17.891 4.54601C17.7951 4.35785 17.6422 4.20487 17.454 4.109C17.4046 4.0838 17.3038 4.04613 17.0322 4.02393C16.7488 4.00078 16.3766 4 15.8 4H8.2C7.62345 4 7.25118 4.00078 6.96784 4.02393ZM7.5 11.5C6.94772 11.5 6.5 11.9477 6.5 12.5V13.5C6.5 14.0523 6.94772 14.5 7.5 14.5H8.5C9.05229 14.5 9.5 14.0523 9.5 13.5V12.5C9.5 11.9477 9.05229 11.5 8.5 11.5H7.5ZM11.5 11.5C10.9477 11.5 10.5 11.9477 10.5 12.5V13.5C10.5 14.0523 10.9477 14.5 11.5 14.5H12.5C13.0523 14.5 13.5 14.0523 13.5 13.5V12.5C13.5 11.9477 13.0523 11.5 12.5 11.5H11.5ZM15.5 11.5C14.9477 11.5 14.5 11.9477 14.5 12.5V13.5C14.5 14.0523 14.9477 14.5 15.5 14.5H16.5C17.0523 14.5 17.5 14.0523 17.5 13.5V12.5C17.5 11.9477 17.0523 11.5 16.5 11.5H15.5ZM7.5 16C6.94772 16 6.5 16.4477 6.5 17V18C6.5 18.5523 6.94772 19 7.5 19H8.5C9.05229 19 9.5 18.5523 9.5 18V17C9.5 16.4477 9.05229 16 8.5 16H7.5ZM11.5 16C10.9477 16 10.5 16.4477 10.5 17V18C10.5 18.5523 10.9477 19 11.5 19H16.5C17.0523 19 17.5 18.5523 17.5 18V17C17.5 16.4477 17.0523 16 16.5 16H11.5Z" fill="currentColor"/>
</svg>
