<svg width="24" height="24" viewBox="0 0 24 24" fill="none" xmlns="http://www.w3.org/2000/svg">
<path fill-rule="evenodd" clip-rule="evenodd" d="M3 9.00001C3.55228 9.00001 4 8.5523 4 8.00001V2C4 1.44772 3.55228 1 3 1C2.44772 1 2 1.44772 2 2V8.00001C2 8.5523 2.44772 9.00001 3 9.00001ZM1.5 12.5C1.5 13.0523 1.94772 13.5 2.5 13.5H3.5C4.05228 13.5 4.5 13.0523 4.5 12.5V11.5C4.5 10.9477 4.05228 10.5 3.5 10.5H2.5C1.94772 10.5 1.5 10.9477 1.5 11.5V12.5ZM16 3C16 2.44772 16.4477 2 17 2C17.5523 2 18 2.44772 18 3V4.02583C18.2467 4.0493 18.5044 4.09803 18.7645 4.21285C19.1898 4.40052 19.5542 4.70301 19.8171 5.08637C19.9961 5.34754 20.094 5.62079 20.1641 5.88423C20.2289 6.12762 20.2838 6.42063 20.3441 6.74208L20.3499 6.77342L22.4499 17.9734L22.4573 18.0128C22.5425 18.4669 22.618 18.8693 22.6511 19.2047C22.686 19.5586 22.6874 19.9457 22.5482 20.3372C22.3502 20.8946 21.9609 21.3636 21.4496 21.661C21.0905 21.8699 20.7097 21.9399 20.3554 21.9708C20.0197 22 19.6103 22 19.1483 22H19.1483H19.1082H13.5L13.495 22L13.3785 22H13.3442H4.89182H4.85171H4.85166C4.38973 22 3.98031 22 3.6446 21.9708C3.29029 21.9399 2.90953 21.8699 2.55037 21.661C2.0391 21.3636 1.64983 20.8946 1.45175 20.3372C1.3126 19.9457 1.31394 19.5586 1.3489 19.2047C1.38203 18.8693 1.4575 18.4669 1.54265 18.0129L1.54265 18.0129L1.55005 17.9734L1.86087 16.3157C1.96265 15.7729 2.48521 15.4153 3.02803 15.5171C3.57086 15.6189 3.9284 16.1415 3.82662 16.6843L3.5158 18.342C3.42102 18.8475 3.36273 19.1632 3.33922 19.4012C3.32022 19.5936 3.33362 19.6579 3.33624 19.6675L3.33626 19.6674C3.37588 19.7789 3.45373 19.8727 3.55598 19.9322C3.55446 19.9313 3.55427 19.9314 3.55597 19.9322C3.56488 19.9366 3.62558 19.9616 3.81817 19.9783C4.0565 19.9991 4.37755 20 4.89182 20H13.3442C13.8316 20 14.1425 19.9994 14.3811 19.9815C14.6071 19.9646 14.696 19.936 14.7439 19.9149C14.914 19.8398 15.0598 19.7188 15.1649 19.5655C15.1945 19.5223 15.239 19.4401 15.2973 19.2211C15.3588 18.9899 15.4167 18.6845 15.5066 18.2054L17.7922 6.01519L17.7672 6.01318C17.5997 6.00065 17.3774 6 17.0082 6H17H7C6.44771 6 6 5.55228 6 5V3C6 2.44772 6.44771 2 7 2C7.55228 2 8 2.44772 8 3V4H16V3ZM17.2301 19.7353C17.2064 19.8242 17.1806 19.9125 17.1515 20H19.1082C19.6224 20 19.9435 19.9991 20.1818 19.9783C20.3744 19.9616 20.4351 19.9366 20.444 19.9322L20.444 19.9322C20.5463 19.8727 20.6241 19.7789 20.6637 19.6674C20.6631 19.6691 20.6632 19.6693 20.6638 19.6675C20.6664 19.6579 20.6798 19.5936 20.6608 19.4012C20.6373 19.1632 20.579 18.8475 20.4842 18.342L19 10.4263L17.4723 18.574L17.466 18.6076C17.3843 19.0434 17.3131 19.4231 17.2301 19.7353Z" fill="currentColor"/>
</svg>
