<svg width="24" height="24" viewBox="0 0 24 24" fill="none" xmlns="http://www.w3.org/2000/svg">
<path fill-rule="evenodd" clip-rule="evenodd" d="M7.5 2.5C7.5 1.94772 7.05229 1.5 6.5 1.5C5.94772 1.5 5.5 1.94772 5.5 2.5V4.00269C5.2446 4.00606 5.01248 4.01362 4.80497 4.03057C4.40963 4.06287 4.01641 4.13419 3.63803 4.32698C3.07354 4.6146 2.6146 5.07354 2.32698 5.63803C2.13419 6.01641 2.06287 6.40963 2.03057 6.80497C1.99997 7.17953 1.99998 7.63428 2 8.16141V8.16146V8.2V15.8V15.8385V15.8386C1.99998 16.3657 1.99997 16.8205 2.03057 17.195C2.06287 17.5904 2.13419 17.9836 2.32698 18.362C2.6146 18.9265 3.07354 19.3854 3.63803 19.673C4.01641 19.8658 4.40963 19.9371 4.80497 19.9694C5.01248 19.9864 5.2446 19.9939 5.5 19.9973V21.5C5.5 22.0523 5.94772 22.5 6.5 22.5C7.05229 22.5 7.5 22.0523 7.5 21.5V19.9973C7.7554 19.9939 7.98752 19.9864 8.19503 19.9694C8.59038 19.9371 8.98359 19.8658 9.36197 19.673C9.92646 19.3854 10.3854 18.9265 10.673 18.362C10.8658 17.9836 10.9371 17.5904 10.9694 17.195C11 16.8205 11 16.3657 11 15.8386V15.8385V15.8V8.2V8.16148V8.16145C11 7.6343 11 7.17954 10.9694 6.80497C10.9371 6.40963 10.8658 6.01641 10.673 5.63803C10.3854 5.07354 9.92646 4.6146 9.36197 4.32698C8.98359 4.13419 8.59038 4.06287 8.19503 4.03057C7.98752 4.01362 7.7554 4.00606 7.5 4.00269V2.5ZM4.54601 6.10899C4.59546 6.0838 4.69618 6.04612 4.96784 6.02393C5.25118 6.00078 5.62345 6 6.2 6H6.5H6.8C7.37656 6 7.74883 6.00078 8.03217 6.02393C8.30383 6.04612 8.40455 6.0838 8.45399 6.10899C8.64216 6.20487 8.79514 6.35785 8.89101 6.54601C8.9162 6.59545 8.95388 6.69617 8.97608 6.96784C8.99923 7.25117 9 7.62345 9 8.2V15.8C9 16.3766 8.99923 16.7488 8.97608 17.0322C8.95388 17.3038 8.9162 17.4045 8.89101 17.454C8.79514 17.6422 8.64216 17.7951 8.45399 17.891C8.40455 17.9162 8.30383 17.9539 8.03217 17.9761C7.74883 17.9992 7.37656 18 6.8 18H6.5H6.2C5.62345 18 5.25118 17.9992 4.96784 17.9761C4.69618 17.9539 4.59546 17.9162 4.54601 17.891C4.35785 17.7951 4.20487 17.6422 4.109 17.454C4.0838 17.4045 4.04613 17.3038 4.02393 17.0322C4.00078 16.7488 4 16.3766 4 15.8V8.2C4 7.62345 4.00078 7.25117 4.02393 6.96784C4.04613 6.69617 4.0838 6.59545 4.109 6.54601C4.20487 6.35785 4.35785 6.20487 4.54601 6.10899ZM18.5 2.5C18.5 1.94772 18.0523 1.5 17.5 1.5C16.9477 1.5 16.5 1.94772 16.5 2.5V7C16.5 7.55228 16.9477 8 17.5 8C18.0523 8 18.5 7.55228 18.5 7V2.5ZM17.2 9L17.1615 9C16.6343 8.99998 16.1795 8.99997 15.805 9.03057C15.4096 9.06287 15.0164 9.13419 14.638 9.32698C14.0735 9.6146 13.6146 10.0735 13.327 10.638C13.1342 11.0164 13.0629 11.4096 13.0306 11.805C13 12.1795 13 12.6343 13 13.1615L13 13.2V15.8L13 15.8385C13 16.3657 13 16.8205 13.0306 17.195C13.0629 17.5904 13.1342 17.9836 13.327 18.362C13.6146 18.9265 14.0735 19.3854 14.638 19.673C15.0164 19.8658 15.4096 19.9371 15.805 19.9694C16.0125 19.9864 16.2446 19.9939 16.5 19.9973V21.5C16.5 22.0523 16.9477 22.5 17.5 22.5C18.0523 22.5 18.5 22.0523 18.5 21.5V19.9973C18.7554 19.9939 18.9875 19.9864 19.195 19.9694C19.5904 19.9371 19.9836 19.8658 20.362 19.673C20.9265 19.3854 21.3854 18.9265 21.673 18.362C21.8658 17.9836 21.9371 17.5904 21.9694 17.195C22 16.8205 22 16.3658 22 15.8386V15.8385V15.8V13.2V13.1615V13.1614C22 12.6342 22 12.1795 21.9694 11.805C21.9371 11.4096 21.8658 11.0164 21.673 10.638C21.3854 10.0735 20.9265 9.6146 20.362 9.32698C19.9836 9.13419 19.5904 9.06287 19.195 9.03057C18.8205 8.99997 18.3657 8.99998 17.8385 9L17.8 9H17.5H17.2ZM15.546 11.109C15.5955 11.0838 15.6962 11.0461 15.9678 11.0239C16.2512 11.0008 16.6234 11 17.2 11H17.5H17.8C18.3766 11 18.7488 11.0008 19.0322 11.0239C19.3038 11.0461 19.4045 11.0838 19.454 11.109C19.6422 11.2049 19.7951 11.3578 19.891 11.546C19.9162 11.5955 19.9539 11.6962 19.9761 11.9678C19.9992 12.2512 20 12.6234 20 13.2V15.8C20 16.3766 19.9992 16.7488 19.9761 17.0322C19.9539 17.3038 19.9162 17.4045 19.891 17.454C19.7951 17.6422 19.6422 17.7951 19.454 17.891C19.4045 17.9162 19.3038 17.9539 19.0322 17.9761C18.7488 17.9992 18.3766 18 17.8 18H17.5H17.2C16.6234 18 16.2512 17.9992 15.9678 17.9761C15.6962 17.9539 15.5955 17.9162 15.546 17.891C15.3579 17.7951 15.2049 17.6422 15.109 17.454C15.0838 17.4045 15.0461 17.3038 15.0239 17.0322C15.0008 16.7488 15 16.3766 15 15.8V13.2C15 12.6234 15.0008 12.2512 15.0239 11.9678C15.0461 11.6962 15.0838 11.5955 15.109 11.546C15.2049 11.3578 15.3579 11.2049 15.546 11.109Z" fill="currentColor"/>
</svg>
