<svg width="24" height="24" viewBox="0 0 24 24" fill="none" xmlns="http://www.w3.org/2000/svg">
<path fill-rule="evenodd" clip-rule="evenodd" d="M7.93229 2.00007L7.7793 1.99991C7.06212 1.99879 6.4332 1.99782 5.87975 2.22529C5.39611 2.42406 4.97283 2.74579 4.65187 3.15858C4.28457 3.63097 4.11718 4.2372 3.92631 4.92852L3.88551 5.07597L3.21215 7.50006H2.00001C1.44772 7.50006 1.00001 7.94778 1.00001 8.50006V9.00006C1.00001 9.55235 1.44772 10.0001 2.00001 10.0001H2.51771L2.13666 11.3719C1.93886 11.5138 1.76351 11.6922 1.63208 11.8889C1.38995 12.2512 1.32258 12.6588 1.27042 12.9743L1.25699 13.0549C1.00347 14.5465 1.00353 15.7879 1.00359 16.9484L1.00359 16.9934C1 17.5822 1 20.4147 1 20.9969V21.0001C1 21.5523 1.44771 22.0001 2 22.0001H4C4.55228 22.0001 5 21.5523 5 21.0001V20.0001H9H12H15H19V21.0001C19 21.5523 19.4477 22.0001 20 22.0001H22C22.5523 22.0001 23 21.5523 23 21.0001V20.9969C23 20.4147 23 17.5822 22.9964 16.9934L22.9964 16.9484C22.9965 15.7879 22.9965 14.5465 22.743 13.0549L22.7296 12.9743C22.6774 12.6588 22.6101 12.2512 22.3679 11.8889C22.2365 11.6922 22.0612 11.5138 21.8634 11.3719L21.4823 10.0001H22C22.5523 10.0001 23 9.55235 23 9.00006V8.50006C23 7.94778 22.5523 7.50006 22 7.50006H20.7879L20.1145 5.07596L20.0737 4.92851C19.8828 4.2372 19.7155 3.63097 19.3482 3.15858C19.0272 2.74579 18.6039 2.42406 18.1203 2.22529C17.5668 1.99782 16.9379 1.99879 16.2207 1.99991L16.0677 2.00007H7.93229ZM4.31566 11.0001H5.00001H8.00001H12H16H19H19.6844L18.1875 5.61125C17.9301 4.68469 17.861 4.50417 17.7693 4.38624C17.6623 4.24864 17.5212 4.1414 17.36 4.07514C17.2218 4.01835 17.0294 4.00007 16.0677 4.00007H7.93229C6.97065 4.00007 6.77821 4.01835 6.64004 4.07514C6.47883 4.1414 6.33774 4.24864 6.23075 4.38624C6.13905 4.50417 6.06993 4.68469 5.81255 5.61125L4.31566 11.0001ZM6.00001 13.0001H7.00001V13.5001C7.00001 13.7762 6.77615 14.0001 6.50001 14.0001C6.22386 14.0001 6.00001 13.7762 6.00001 13.5001V13.0001ZM4.00001 13.5001V13.0001H3.74924C3.51104 13.0001 3.3906 13.0008 3.30414 13.0077L3.30036 13.0081C3.29298 13.0373 3.28395 13.0788 3.27218 13.1414C3.25948 13.2091 3.24613 13.2875 3.22872 13.39C3.00359 14.7146 3.00359 15.8133 3.00359 16.9915V16.9915V16.9953V16.9974V17.0001C3.00359 17.5514 3.44985 17.9987 4.00112 18.0001H9C9 17.4478 9.44772 17.0001 10 17.0001H14C14.5523 17.0001 15 17.4478 15 18.0001H19.9989C20.5502 17.9987 20.9964 17.5514 20.9964 17.0001V16.9974V16.9953V16.9915C20.9964 15.8133 20.9964 14.7146 20.7713 13.39C20.7539 13.2875 20.7405 13.2091 20.7278 13.1414C20.7161 13.0788 20.707 13.0373 20.6996 13.0081L20.6959 13.0077C20.6094 13.0008 20.489 13.0001 20.2508 13.0001H20V13.5001C20 14.8808 18.8807 16.0001 17.5 16.0001C16.1193 16.0001 15 14.8808 15 13.5001V13.0001H12H9.00001V13.5001C9.00001 14.8808 7.88072 16.0001 6.50001 16.0001C5.11929 16.0001 4.00001 14.8808 4.00001 13.5001ZM18 13.0001H17V13.5001C17 13.7762 17.2239 14.0001 17.5 14.0001C17.7761 14.0001 18 13.7762 18 13.5001V13.0001Z" fill="currentColor"/>
</svg>
