<svg width="24" height="24" viewBox="0 0 24 24" fill="none" xmlns="http://www.w3.org/2000/svg">
<path fill-rule="evenodd" clip-rule="evenodd" d="M3 10C3.55228 10 4 9.5523 4 9.00001V3C4 2.44772 3.55228 2 3 2C2.44772 2 2 2.44772 2 3V9.00001C2 9.5523 2.44772 10 3 10ZM1.5 13.5C1.5 14.0523 1.94772 14.5 2.5 14.5H3.5C4.05228 14.5 4.5 14.0523 4.5 13.5V12.5C4.5 11.9477 4.05228 11.5 3.5 11.5H2.5C1.94772 11.5 1.5 11.9477 1.5 12.5V13.5ZM17.8 6C18.3766 6 18.7488 6.00078 19.0322 6.02393C19.3038 6.04612 19.4046 6.0838 19.454 6.10899C19.6422 6.20487 19.7951 6.35785 19.891 6.54601L20.7729 6.09667L19.891 6.54601C19.9162 6.59545 19.9539 6.69617 19.9761 6.96784C19.9964 7.21698 19.9995 7.5349 19.9999 8H7.00001C6.44773 8 6.00001 8.44772 6.00001 9V10C6.00001 10.5523 6.44773 11 7.00001 11H20V15.8C20 16.3766 19.9992 16.7488 19.9761 17.0322C19.9539 17.3038 19.9162 17.4045 19.891 17.454L20.782 17.908L19.891 17.454C19.7951 17.6422 19.6422 17.7951 19.454 17.891C19.4046 17.9162 19.3038 17.9539 19.0322 17.9761C18.7488 17.9992 18.3766 18 17.8 18H5.50001C4.98743 18 4.87717 17.9952 4.80492 17.9808C4.40823 17.9019 4.09814 17.5918 4.01923 17.1951C4.01439 17.1708 4.00679 17.1177 4.00309 16.9742C3.98884 16.4221 3.52972 15.9861 2.97762 16.0003C2.42552 16.0146 1.9895 16.4737 2.00375 17.0258C2.00851 17.2103 2.0199 17.3954 2.05766 17.5853C2.29438 18.7753 3.22467 19.7056 4.41474 19.9424C4.7076 20.0006 5.03543 20.0003 5.41613 20L5.50001 20H17.8H17.8385C18.3657 20 18.8205 20 19.195 19.9694C19.5904 19.9371 19.9836 19.8658 20.362 19.673C20.9265 19.3854 21.3854 18.9265 21.673 18.362C21.8658 17.9836 21.9371 17.5904 21.9694 17.195C22 16.8205 22 16.3657 22 15.8386V15.8V10V9V8.2V8.16143C22 7.63429 22 7.17954 21.9694 6.80497C21.9371 6.40963 21.8658 6.01641 21.673 5.63803C21.3854 5.07354 20.9265 4.6146 20.362 4.32698C19.9836 4.13419 19.5904 4.06287 19.195 4.03057C18.8205 3.99997 18.3657 3.99998 17.8386 4L17.8 4H7.00001C6.44773 4 6.00001 4.44772 6.00001 5C6.00001 5.55228 6.44773 6 7.00001 6H17.8Z" fill="currentColor"/>
</svg>
