<svg width="24" height="24" viewBox="0 0 24 24" fill="none" xmlns="http://www.w3.org/2000/svg">
<path fill-rule="evenodd" clip-rule="evenodd" d="M12.267 3.91928C12.6188 3.83934 12.819 3.79477 12.9649 3.77484L12.9843 3.77232L12.9862 3.7918C12.9991 3.93855 13 4.14365 13 4.50436V19.4955C13 19.8562 12.9991 20.0613 12.9862 20.208L12.9843 20.2275L12.9649 20.225C12.819 20.2051 12.6188 20.1605 12.267 20.0806L11.5 19.9062V4.0936L12.267 3.91928ZM9 19.3381V4.66178L5.71244 5.40896C5.25376 5.5132 4.96202 5.58014 4.74138 5.64757C4.5328 5.71131 4.45442 5.75674 4.41274 5.78698C4.26645 5.89312 4.15166 6.03692 4.08058 6.20309C4.06033 6.25044 4.03341 6.33694 4.01748 6.55445C4.00062 6.78455 4 7.08387 4 7.55425V16.4456C4 16.916 4.00062 17.2153 4.01748 17.4454C4.03341 17.6629 4.06033 17.7494 4.08058 17.7967C4.15166 17.9629 4.26645 18.1067 4.41274 18.2129C4.45442 18.2431 4.5328 18.2885 4.74138 18.3523C4.96201 18.4197 5.25376 18.4866 5.71244 18.5909L9 19.3381ZM13.6193 1.85098C13.2794 1.7403 12.9559 1.75751 12.6944 1.79323C12.4503 1.82655 12.1626 1.89198 11.8594 1.96091L11.8238 1.96901L5.26919 3.45869L5.23674 3.46607L5.23673 3.46607C4.81989 3.56079 4.45595 3.64349 4.15685 3.73489C3.83795 3.83235 3.52822 3.95777 3.23822 4.16818C2.79935 4.48661 2.45499 4.91801 2.24175 5.41654C2.10084 5.74596 2.04718 6.07579 2.02282 6.40835C1.99997 6.72025 1.99999 7.09346 2 7.52089V7.52097L2 7.55425V16.4456L2 16.4789V16.4789C1.99999 16.9064 1.99997 17.2796 2.02282 17.5915C2.04718 17.924 2.10084 18.2539 2.24175 18.5833C2.45499 19.0818 2.79935 19.5132 3.23822 19.8316C3.52822 20.0421 3.83795 20.1675 4.15685 20.2649C4.45592 20.3563 4.81983 20.439 5.23663 20.5337L5.2367 20.5338L5.26919 20.5411L11.8238 22.0308L11.8594 22.0389C12.1626 22.1079 12.4503 22.1733 12.6944 22.2066C12.9559 22.2423 13.2794 22.2595 13.6193 22.1489C14.0792 21.9991 14.4692 21.6877 14.7172 21.2725C14.9004 20.9656 14.9553 20.6463 14.9785 20.3834C15.0001 20.138 15 19.8429 15 19.532L15 19.4955V4.50436L15 4.46783C15 4.15692 15.0001 3.86182 14.9785 3.61646C14.9553 3.3535 14.9004 3.03428 14.7172 2.72737C14.4692 2.31209 14.0792 2.00074 13.6193 1.85098ZM20 6.49992V17.4999C20 18.0522 20.4477 18.4999 21 18.4999C21.5523 18.4999 22 18.0522 22 17.4999V6.49992C22 5.94763 21.5523 5.49992 21 5.49992C20.4477 5.49992 20 5.94763 20 6.49992ZM18.5 4.49992C18.5 3.94763 18.0523 3.49992 17.5 3.49992C16.9477 3.49992 16.5 3.94763 16.5 4.49992L16.5 19.4999C16.5 20.0522 16.9477 20.4999 17.5 20.4999C18.0523 20.4999 18.5 20.0522 18.5 19.4999V4.49992Z" fill="currentColor"/>
</svg>
