<svg width="24" height="24" viewBox="0 0 24 24" fill="none" xmlns="http://www.w3.org/2000/svg">
<path fill-rule="evenodd" clip-rule="evenodd" d="M6.2 4H6.16146H6.16142C5.63429 3.99998 5.17954 3.99997 4.80497 4.03057C4.40963 4.06287 4.01641 4.13419 3.63803 4.32698C3.07354 4.6146 2.6146 5.07354 2.32698 5.63803C2.13419 6.01641 2.06287 6.40963 2.03057 6.80497C1.99997 7.17954 1.99998 7.63429 2 8.16142V8.16146V8.2V9V10V15.8V15.8385V15.8386C1.99998 16.3657 1.99997 16.8205 2.03057 17.195C2.06287 17.5904 2.13419 17.9836 2.32698 18.362C2.6146 18.9265 3.07354 19.3854 3.63803 19.673C4.01641 19.8658 4.40963 19.9371 4.80497 19.9694C5.17952 20 5.63425 20 6.16136 20H6.16148H6.2H10C10.5523 20 11 19.5523 11 19C11 18.4477 10.5523 18 10 18H6.2C5.62345 18 5.25118 17.9992 4.96784 17.9761C4.69618 17.9539 4.59546 17.9162 4.54601 17.891C4.35785 17.7951 4.20487 17.6422 4.109 17.454C4.0838 17.4045 4.04613 17.3038 4.02393 17.0322C4.00078 16.7488 4 16.3766 4 15.8V11H21C21.5523 11 22 10.5523 22 10V9V8.2V8.16144C22 7.6343 22 7.17954 21.9694 6.80497C21.9371 6.40963 21.8658 6.01641 21.673 5.63803C21.3854 5.07354 20.9265 4.6146 20.362 4.32698C19.9836 4.13419 19.5904 4.06287 19.195 4.03057C18.8205 3.99997 18.3657 3.99998 17.8386 4H17.8385H17.8H6.2ZM4.54601 6.109C4.59546 6.0838 4.69618 6.04613 4.96784 6.02393C5.25118 6.00078 5.62345 6 6.2 6H17.8C18.3766 6 18.7488 6.00078 19.0322 6.02393C19.3038 6.04613 19.4045 6.0838 19.454 6.109C19.6422 6.20487 19.7951 6.35785 19.891 6.54601C19.9162 6.59546 19.9539 6.69618 19.9761 6.96784C19.9964 7.21698 19.9995 7.5349 19.9999 8H4.00007C4.00052 7.5349 4.00357 7.21698 4.02393 6.96784C4.04613 6.69618 4.0838 6.59546 4.109 6.54601C4.20487 6.35785 4.35785 6.20487 4.54601 6.109ZM19 14.0001C19 13.4478 18.5524 13 18.0001 13C17.4478 13 17 13.4476 17 13.9999L16.9998 17L14 17C13.4477 17 13 17.4477 13 18C13 18.5523 13.4477 19 14 19L16.9998 19L17 22.0001C17 22.5524 17.4478 23 18.0001 23C18.5524 23 19 22.5522 19 21.9999L18.9998 19L22 19C22.5523 19 23 18.5523 23 18C23 17.4477 22.5523 17 22 17L18.9998 17L19 14.0001Z" fill="currentColor"/>
</svg>
