<svg width="24" height="24" viewBox="0 0 24 24" fill="none" xmlns="http://www.w3.org/2000/svg">
<path fill-rule="evenodd" clip-rule="evenodd" d="M6.16146 4L6.2 4H17.8L17.8385 4C18.3657 3.99998 18.8205 3.99997 19.195 4.03057C19.5904 4.06287 19.9836 4.13419 20.362 4.32698C20.9265 4.6146 21.3854 5.07354 21.673 5.63803C21.8658 6.01641 21.9371 6.40963 21.9694 6.80497C22 7.17954 22 7.6343 22 8.16144V8.2V9V10V15.8V15.8386C22 16.3657 22 16.8205 21.9694 17.195C21.9371 17.5904 21.8658 17.9836 21.673 18.362C21.3854 18.9265 20.9265 19.3854 20.362 19.673C19.9836 19.8658 19.5904 19.9371 19.195 19.9694C18.8205 20 18.3657 20 17.8385 20H17.8H6.2H6.16148C5.63432 20 5.17955 20 4.80497 19.9694C4.40963 19.9371 4.01641 19.8658 3.63803 19.673C3.07354 19.3854 2.6146 18.9265 2.32698 18.362C2.13419 17.9836 2.06287 17.5904 2.03057 17.195C1.99997 16.8205 1.99998 16.3657 2 15.8385L2 15.8V10V9V8.2L2 8.16146C1.99998 7.63431 1.99997 7.17955 2.03057 6.80497C2.06287 6.40963 2.13419 6.01641 2.32698 5.63803C2.6146 5.07354 3.07354 4.6146 3.63803 4.32698C4.01641 4.13419 4.40963 4.06287 4.80497 4.03057C5.17955 3.99997 5.63431 3.99998 6.16146 4ZM4.96784 6.02393C4.69617 6.04612 4.59546 6.0838 4.54601 6.109C4.35785 6.20487 4.20487 6.35785 4.109 6.54601C4.0838 6.59546 4.04612 6.69617 4.02393 6.96784C4.00357 7.21698 4.00052 7.5349 4.00007 8H19.9999C19.9995 7.5349 19.9964 7.21698 19.9761 6.96784C19.9539 6.69617 19.9162 6.59546 19.891 6.54601C19.7951 6.35785 19.6422 6.20487 19.454 6.109C19.4045 6.0838 19.3038 6.04612 19.0322 6.02393C18.7488 6.00078 18.3766 6 17.8 6H6.2C5.62345 6 5.25117 6.00078 4.96784 6.02393ZM4 11V15.8C4 16.3766 4.00078 16.7488 4.02393 17.0322C4.04612 17.3038 4.0838 17.4045 4.109 17.454C4.20487 17.6422 4.35785 17.7951 4.54601 17.891C4.59546 17.9162 4.69617 17.9539 4.96784 17.9761C5.25117 17.9992 5.62345 18 6.2 18H17.8C18.3766 18 18.7488 17.9992 19.0322 17.9761C19.3038 17.9539 19.4045 17.9162 19.454 17.891C19.6422 17.7951 19.7951 17.6422 19.891 17.454C19.9162 17.4045 19.9539 17.3038 19.9761 17.0322C19.9992 16.7488 20 16.3766 20 15.8V11H4Z" fill="currentColor"/>
</svg>
