<svg width="24" height="24" viewBox="0 0 24 24" fill="none" xmlns="http://www.w3.org/2000/svg">
<path fill-rule="evenodd" clip-rule="evenodd" d="M22.2071 3.20711C22.5976 2.81658 22.5976 2.18342 22.2071 1.79289C21.8166 1.40237 21.1834 1.40237 20.7929 1.79289L18.5824 4.00335C18.5553 4.00113 18.5278 4 18.5 4H6.2L6.16146 4H6.16145C5.63431 3.99998 5.17954 3.99997 4.80497 4.03057C4.40963 4.06287 4.01641 4.13419 3.63803 4.32698C3.07354 4.6146 2.6146 5.07354 2.32698 5.63803C2.13419 6.01641 2.06287 6.40963 2.03057 6.80497C1.99997 7.17954 1.99998 7.63431 2 8.16145V8.16146L2 8.2V9V10V15.8L2 15.8385C1.99998 16.3657 1.99997 16.8205 2.03057 17.195C2.06287 17.5904 2.13419 17.9836 2.32698 18.362C2.5344 18.7691 2.83093 19.1213 3.19189 19.3939L1.79289 20.7929C1.40237 21.1834 1.40237 21.8166 1.79289 22.2071C2.18342 22.5976 2.81658 22.5976 3.20711 22.2071L22.2071 3.20711ZM4.64022 17.9456L11.5858 11H4V15.8C4 16.3766 4.00078 16.7488 4.02393 17.0322C4.04612 17.3038 4.0838 17.4045 4.10899 17.454L3.21799 17.908L4.10899 17.454C4.20487 17.6422 4.35785 17.7951 4.54601 17.891C4.57874 17.9077 4.61016 17.9259 4.64022 17.9456ZM14.5824 8.00335L16.5858 6H6.2C5.62345 6 5.25117 6.00078 4.96784 6.02393C4.69617 6.04612 4.59545 6.0838 4.54601 6.10899C4.35785 6.20487 4.20487 6.35785 4.10899 6.54601C4.0838 6.59545 4.04612 6.69617 4.02393 6.96784C4.00357 7.21698 4.00051 7.5349 4.00007 8H14.5C14.5278 8 14.5553 8.00113 14.5824 8.00335ZM22 8.5C22 8.09554 21.7564 7.7309 21.3827 7.57612C21.009 7.42134 20.5789 7.5069 20.2929 7.79289L18.7929 9.29289C18.5069 9.57889 18.4213 10.009 18.5761 10.3827C18.7309 10.7564 19.0955 11 19.5 11H20V15.8C20 16.3766 19.9992 16.7488 19.9761 17.0322C19.9539 17.3038 19.9162 17.4045 19.891 17.454L20.782 17.908L19.891 17.454C19.7951 17.6422 19.6422 17.7951 19.454 17.891C19.4045 17.9162 19.3038 17.9539 19.0322 17.9761C18.7488 17.9992 18.3766 18 17.8 18H11C10.4477 18 10 18.4477 10 19C10 19.5523 10.4477 20 11 20H17.8H17.8385C18.3657 20 18.8204 20 19.195 19.9694C19.5904 19.9371 19.9836 19.8658 20.362 19.673C20.9265 19.3854 21.3854 18.9265 21.673 18.362C21.8658 17.9836 21.9371 17.5904 21.9694 17.195C22 16.8205 22 16.3657 22 15.8386V15.8V10V8.5Z" fill="currentColor"/>
</svg>
