<svg width="24" height="24" viewBox="0 0 24 24" fill="none" xmlns="http://www.w3.org/2000/svg">
<path fill-rule="evenodd" clip-rule="evenodd" d="M17 1.00004L16.8842 1.00002C16.0666 0.999816 15.5093 0.999677 15.0245 1.09611C13.0411 1.49064 11.4906 3.04113 11.0961 5.02459C10.9996 5.50939 10.9998 6.06668 11 6.88428L11 7.00004L11 7.11579C10.9998 7.9334 10.9996 8.49069 11.0961 8.97549C11.4906 10.9589 13.0411 12.5094 15.0245 12.904C15.5093 13.0004 16.0666 13.0003 16.8842 13.0001L17 13L17.1157 13.0001C17.9333 13.0003 18.4906 13.0004 18.9754 12.904C20.9589 12.5094 22.5094 10.9589 22.9039 8.97549C23.0003 8.49069 23.0002 7.9334 23 7.1158L23 7.00004L23 6.88428C23.0002 6.06668 23.0003 5.50939 22.9039 5.02459C22.5094 3.04113 20.9589 1.49064 18.9754 1.09611C18.4906 0.999677 17.9333 0.999816 17.1157 1.00002L17 1.00004ZM15.4147 3.05768C15.6802 3.00488 16.0227 3.00004 17 3.00004C17.9772 3.00004 18.3198 3.00488 18.5852 3.05768C19.7753 3.2944 20.7056 4.22469 20.9423 5.41477C20.9951 5.68021 21 6.0228 21 7.00004C21 7.97728 20.9951 8.31986 20.9423 8.58531C20.7056 9.77538 19.7753 10.7057 18.5852 10.9424C18.3198 10.9952 17.9772 11 17 11C16.0227 11 15.6802 10.9952 15.4147 10.9424C14.2246 10.7057 13.2943 9.77538 13.0576 8.58531C13.0048 8.31986 13 7.97728 13 7.00004C13 6.0228 13.0048 5.68021 13.0576 5.41477C13.2943 4.22469 14.2246 3.2944 15.4147 3.05768ZM6.16146 4.00003L6.2 4.00003H8.5C9.05229 4.00003 9.5 4.44775 9.5 5.00003C9.5 5.55232 9.05229 6.00003 8.5 6.00003H6.2C5.62345 6.00003 5.25117 6.00081 4.96784 6.02396C4.69617 6.04615 4.59546 6.08383 4.54601 6.10902C4.35785 6.2049 4.20487 6.35788 4.109 6.54604C4.0838 6.59548 4.04612 6.6962 4.02393 6.96787C4.00357 7.21701 4.00052 7.53493 4.00007 8.00003H8.5C9.05229 8.00003 9.5 8.44775 9.5 9.00003V10C9.5 10.5523 9.05229 11 8.5 11H4V15.8C4 16.3766 4.00078 16.7489 4.02393 17.0322C4.04612 17.3039 4.0838 17.4046 4.109 17.454C4.20487 17.6422 4.35785 17.7952 4.54601 17.891C4.59546 17.9162 4.69617 17.9539 4.96784 17.9761C5.25117 17.9993 5.62345 18 6.2 18H17.8C18.3766 18 18.7488 17.9993 19.0322 17.9761C19.3038 17.9539 19.4045 17.9162 19.454 17.891C19.6422 17.7952 19.7951 17.6422 19.891 17.454C19.9162 17.4046 19.9539 17.3039 19.9761 17.0322C19.9992 16.7489 20 16.3766 20 15.8V15C20 14.4477 20.4477 14 21 14C21.5523 14 22 14.4477 22 15V15.8V15.8386C22 16.3657 22 16.8205 21.9694 17.1951C21.9371 17.5904 21.8658 17.9836 21.673 18.362C21.3854 18.9265 20.9265 19.3854 20.362 19.673C19.9836 19.8658 19.5904 19.9372 19.195 19.9695C18.8205 20.0001 18.3657 20 17.8385 20H17.8H6.2H6.16148C5.63432 20 5.17955 20.0001 4.80497 19.9695C4.40963 19.9372 4.01641 19.8658 3.63803 19.673C3.07354 19.3854 2.6146 18.9265 2.32698 18.362C2.13419 17.9836 2.06287 17.5904 2.03057 17.1951C1.99997 16.8205 1.99998 16.3657 2 15.8386L2 15.8V10V9.00003V8.20003L2 8.16149C1.99998 7.63434 1.99997 7.17957 2.03057 6.805C2.06287 6.40966 2.13419 6.01644 2.32698 5.63806C2.6146 5.07357 3.07354 4.61463 3.63803 4.32701C4.01641 4.13422 4.40963 4.0629 4.80497 4.0306C5.17954 4 5.63431 4.00001 6.16145 4.00003H6.16145H6.16146ZM17 4.00004C17.5523 4.00004 18 4.44775 18 5.00004V6.58587L19.2069 7.79299C19.5974 8.18354 19.5973 8.81671 19.2068 9.2072C18.8162 9.59769 18.1831 9.59764 17.7926 9.20709L16.2928 7.70709C16.1053 7.51955 16 7.26523 16 7.00004V5.00004C16 4.44775 16.4477 4.00004 17 4.00004Z" fill="currentColor"/>
</svg>
