<svg width="24" height="24" viewBox="0 0 24 24" fill="none" xmlns="http://www.w3.org/2000/svg">
<path fill-rule="evenodd" clip-rule="evenodd" d="M6.16146 4H6.2H17.8H17.8385H17.8386C18.3657 3.99998 18.8205 3.99997 19.195 4.03057C19.5904 4.06287 19.9836 4.13419 20.362 4.32698C20.9265 4.6146 21.3854 5.07354 21.673 5.63803C21.8658 6.01641 21.9371 6.40963 21.9694 6.80497C22 7.17954 22 7.6343 22 8.16144V8.2V9V10C22 10.5523 21.5523 11 21 11H4V15.8C4 16.3766 4.00078 16.7488 4.02393 17.0322C4.04613 17.3038 4.0838 17.4045 4.109 17.454C4.20487 17.6422 4.35785 17.7951 4.54601 17.891C4.59546 17.9162 4.69618 17.9539 4.96784 17.9761C5.25118 17.9992 5.62345 18 6.2 18H9.5C10.0523 18 10.5 18.4477 10.5 19C10.5 19.5523 10.0523 20 9.5 20H6.2H6.16148H6.16136H6.16134C5.63424 20 5.17952 20 4.80497 19.9694C4.40963 19.9371 4.01641 19.8658 3.63803 19.673C3.07354 19.3854 2.6146 18.9265 2.32698 18.362C2.13419 17.9836 2.06287 17.5904 2.03057 17.195C1.99997 16.8205 1.99998 16.3657 2 15.8386V15.8385V15.8V10V9V8.2V8.16146V8.16142C1.99998 7.63429 1.99997 7.17954 2.03057 6.80497C2.06287 6.40963 2.13419 6.01641 2.32698 5.63803C2.6146 5.07354 3.07354 4.6146 3.63803 4.32698C4.01641 4.13419 4.40963 4.06287 4.80497 4.03057C5.17954 3.99997 5.63429 3.99998 6.16142 4H6.16146ZM4.96784 6.02393C4.69618 6.04613 4.59546 6.0838 4.54601 6.109C4.35785 6.20487 4.20487 6.35785 4.109 6.54601C4.0838 6.59546 4.04613 6.69618 4.02393 6.96784C4.00357 7.21698 4.00052 7.5349 4.00007 8H19.9999C19.9995 7.5349 19.9964 7.21698 19.9761 6.96784C19.9539 6.69618 19.9162 6.59546 19.891 6.54601C19.7951 6.35785 19.6422 6.20487 19.454 6.109C19.4045 6.0838 19.3038 6.04613 19.0322 6.02393C18.7488 6.00078 18.3766 6 17.8 6H6.2C5.62345 6 5.25118 6.00078 4.96784 6.02393ZM19.2609 14.8718L15.014 19.5048C14.6887 18.9987 14.5 18.3964 14.5 17.75C14.5 15.9551 15.9551 14.5 17.75 14.5C18.2955 14.5 18.8095 14.6344 19.2609 14.8718ZM14.4622 21.8433C15.362 22.5669 16.5054 23 17.75 23C20.6495 23 23 20.6495 23 17.75C23 14.8505 20.6495 12.5 17.75 12.5C14.8505 12.5 12.5 14.8505 12.5 17.75C12.5 19.3084 13.179 20.7081 14.2572 21.6696C14.2783 21.6929 14.3006 21.7155 14.3243 21.7372C14.3679 21.7771 14.4141 21.8125 14.4622 21.8433ZM16.5619 20.776L20.6613 16.3039C20.8781 16.7394 21 17.2305 21 17.75C21 19.5449 19.5449 21 17.75 21C17.3307 21 16.9299 20.9206 16.5619 20.776Z" fill="currentColor"/>
</svg>
