<svg width="24" height="24" viewBox="0 0 24 24" fill="none" xmlns="http://www.w3.org/2000/svg">
<path fill-rule="evenodd" clip-rule="evenodd" d="M13.1444 20.2937C12.778 20.4448 12.3638 20.5 12.0001 20.5C11.6363 20.5 11.2222 20.4448 10.8558 20.2937C10.0122 19.9456 9.5754 19.294 9.10241 18.5884L9.0219 18.4685C8.24128 17.3088 7.27111 15.7834 6.13628 13.838C4.56224 11.1396 3.5478 8.83913 2.92053 7.18597L2.89722 7.12462C2.6691 6.52482 2.4602 5.97555 2.6109 5.15137C2.67634 4.79346 2.85088 4.43044 3.01741 4.15463C3.18394 3.87882 3.42391 3.5553 3.71016 3.33072C4.36893 2.81385 4.93274 2.7452 5.55251 2.66972L5.60697 2.66308C7.0662 2.48452 9.14292 2.3341 12.0001 2.3341C14.8572 2.3341 16.9339 2.48452 18.3932 2.66308L18.4476 2.66972C19.0674 2.7452 19.6312 2.81385 20.29 3.33072C20.5762 3.5553 20.8162 3.87882 20.9827 4.15463C21.1492 4.43044 21.3238 4.79346 21.3892 5.15137C21.5399 5.97555 21.331 6.52482 21.1029 7.12461L21.0796 7.18597C20.4523 8.83914 19.4379 11.1396 17.8638 13.838C16.729 15.7834 15.7588 17.3088 14.9782 18.4685L14.8977 18.5884C14.4247 19.294 13.988 19.9456 13.1444 20.2937Z" fill="currentColor"/>
</svg>
