<svg width="24" height="24" viewBox="0 0 24 24" fill="none" xmlns="http://www.w3.org/2000/svg">
<path fill-rule="evenodd" clip-rule="evenodd" d="M13.1444 2.54044C12.778 2.38926 12.3638 2.33411 12.0001 2.33411C11.6363 2.33411 11.2222 2.38926 10.8558 2.54044C10.0122 2.88854 9.5754 3.54008 9.10241 4.24566L9.0219 4.3656C8.24128 5.52535 7.27111 7.05073 6.13628 8.99614C4.56224 11.6945 3.5478 13.995 2.92053 15.6481L2.89722 15.7095C2.6691 16.3093 2.4602 16.8586 2.6109 17.6827C2.67634 18.0406 2.85088 18.4037 3.01741 18.6795C3.18394 18.9553 3.42391 19.2788 3.71016 19.5034C4.36893 20.0203 4.93274 20.0889 5.55251 20.1644L5.60697 20.171C7.0662 20.3496 9.14292 20.5 12.0001 20.5C14.8572 20.5 16.9339 20.3496 18.3932 20.171L18.4476 20.1644C19.0674 20.0889 19.6312 20.0203 20.29 19.5034C20.5762 19.2788 20.8162 18.9553 20.9827 18.6795C21.1492 18.4037 21.3238 18.0406 21.3892 17.6827C21.5399 16.8586 21.331 16.3093 21.1029 15.7095L21.0796 15.6481C20.4523 13.995 19.4379 11.6945 17.8638 8.99614C16.729 7.05073 15.7588 5.52535 14.9782 4.3656L14.8977 4.24566C14.4247 3.54008 13.988 2.88854 13.1444 2.54044Z" fill="currentColor"/>
</svg>
