<svg width="24" height="24" viewBox="0 0 24 24" fill="none" xmlns="http://www.w3.org/2000/svg">
<path fill-rule="evenodd" clip-rule="evenodd" d="M6.1487 2.47427C6.33091 2.17945 6.65277 2 6.99935 2H20.9994C21.3459 2 21.6678 2.17945 21.85 2.47427C22.0322 2.76909 22.0488 3.13723 21.8938 3.44721L21.1374 4.95993C21.5748 5.7823 21.8886 6.7806 22.104 7.83031C22.3696 9.1251 22.4994 10.5685 22.4994 12C22.4994 13.4315 22.3696 14.8749 22.104 16.1697C21.8886 17.2194 21.5748 18.2177 21.1374 19.0401L21.8938 20.5528C22.0488 20.8628 22.0322 21.2309 21.85 21.5257C21.6678 21.8205 21.3459 22 20.9994 22H16C15.4477 22 15 21.5523 15 21C15 20.4477 15.4477 20 16 20H19.3813L19.1049 19.4472C18.9444 19.1262 18.9682 18.7439 19.1673 18.4453C19.5664 17.8467 19.9073 16.9253 20.1447 15.7678C20.3792 14.6251 20.4994 13.3185 20.4994 12C20.4994 10.6815 20.3792 9.3749 20.1447 8.23219C19.9073 7.07474 19.5664 6.15333 19.1673 5.5547C18.9682 5.25611 18.9444 4.87376 19.1049 4.55279L19.3813 4H8.61739L8.89378 4.55279C9.05427 4.87376 9.03046 5.25611 8.8314 5.5547C8.11025 6.63643 7.62797 8.68294 7.52149 11.0225V11.5C7.52149 12.0523 7.07377 12.5 6.52149 12.5C5.9692 12.5 5.52149 12.0523 5.52149 11.5V11C5.52149 10.9852 5.52182 10.9704 5.52248 10.9556C5.62011 8.7602 6.03328 6.51801 6.86134 4.96005L6.10493 3.44721C5.94993 3.13723 5.96649 2.76909 6.1487 2.47427ZM10 9C10 8.44772 10.4477 8 11 8H17C17.5523 8 18 8.44772 18 9V15C18 15.5523 17.5523 16 17 16H11C10.4477 16 10 15.5523 10 15V9ZM12 10V14H16V10H12ZM3.00001 17.8571C3.00001 16.8047 3.82231 16 4.77778 16C5.73325 16 6.55556 16.8047 6.55556 17.8571V18.4286C6.55556 18.9809 7.00328 19.4286 7.55556 19.4286H9.32143C10.2125 19.4286 10.9414 20.1229 10.9966 21H3.60001C3.30348 21 3.14122 20.9992 3.02464 20.9897L3.01145 20.9886L3.01031 20.9754C3.00078 20.8588 3.00001 20.6965 3.00001 20.4V17.8571ZM4.77778 14C2.66501 14 1.00001 15.7536 1.00001 17.8571V20.4L1 20.4319C0.999973 20.6843 0.999943 20.9301 1.01695 21.1382C1.03563 21.3668 1.07969 21.6366 1.21799 21.908C1.40974 22.2843 1.7157 22.5903 2.09202 22.782C2.36345 22.9203 2.63318 22.9644 2.86178 22.9831C3.06994 23.0001 3.31574 23 3.56813 23L3.60001 23H11.1071C12.1525 23 13 22.1525 13 21.1071C13 19.0755 11.3531 17.4286 9.32143 17.4286H8.53233C8.32443 15.5207 6.74526 14 4.77778 14Z" fill="currentColor"/>
</svg>
