<svg width="24" height="24" viewBox="0 0 24 24" fill="none" xmlns="http://www.w3.org/2000/svg">
<path fill-rule="evenodd" clip-rule="evenodd" d="M4.00011 3C4.00011 2.44772 3.55239 2 3.00011 2C2.44782 2 2.00011 2.44772 2.00011 3V16.2V16.2413V16.2413C2.0001 16.8391 2.00009 17.3594 2.0182 17.8093C1.98569 17.977 1.99716 18.1495 2.04923 18.3097C2.09719 18.8494 2.1973 19.3473 2.43608 19.816C2.81957 20.5686 3.4315 21.1805 4.18414 21.564C4.66948 21.8113 5.18618 21.9099 5.74828 21.9558C6.28947 22 6.95382 22 7.75878 22H7.80011H21.0001C21.5524 22 22.0001 21.5523 22.0001 21C22.0001 20.4477 21.5524 20 21.0001 20H7.80011C6.94353 20 6.36123 19.9992 5.91114 19.9624C5.47273 19.9266 5.24853 19.8617 5.09213 19.782C4.7158 19.5903 4.40984 19.2843 4.21809 18.908L3.58097 19.2326L4.21809 18.908C4.14723 18.7689 4.08805 18.5762 4.05062 18.227L9.23243 10.4543L14.9104 14.9156C15.6471 15.4944 16.7282 15.2638 17.1645 14.4348L21.885 5.46572C22.1422 4.977 21.9546 4.37228 21.4658 4.11506C20.9771 3.85784 20.3724 4.04551 20.1152 4.53424L15.6742 12.9722L10.043 8.54766C9.35539 8.00738 8.35326 8.16747 7.86819 8.89508L4.00011 14.6972L4.00011 3Z" fill="currentColor"/>
</svg>
