<svg width="24" height="24" viewBox="0 0 24 24" fill="none" xmlns="http://www.w3.org/2000/svg">
<path fill-rule="evenodd" clip-rule="evenodd" d="M3 2C3.55229 2 4 2.44772 4 3L4 16.2C4 17.0566 4.00078 17.6389 4.03755 18.089C4.07337 18.5274 4.1383 18.7516 4.21799 18.908L3.58086 19.2326L4.21799 18.908C4.40974 19.2843 4.7157 19.5903 5.09202 19.782C5.24842 19.8617 5.47262 19.9266 5.91104 19.9624C6.36113 19.9992 6.94342 20 7.8 20H21C21.5523 20 22 20.4477 22 21C22 21.5523 21.5523 22 21 22H7.8H7.75868C6.95372 22 6.28937 22 5.74818 21.9558C5.18608 21.9099 4.66937 21.8113 4.18404 21.564C3.43139 21.1805 2.81947 20.5686 2.43598 19.816C2.18868 19.3306 2.09012 18.8139 2.0442 18.2518C1.99998 17.7106 1.99999 17.0463 2 16.2413V16.2413V16.2V3C2 2.44772 2.44772 2 3 2ZM6.29289 11.2929C6.48043 11.1054 6.73478 11 7 11H8C8.55229 11 9 11.4477 9 12V17C9 17.5523 8.55229 18 8 18H7C6.44772 18 6 17.5523 6 17V12C6 11.7348 6.10536 11.4804 6.29289 11.2929ZM11 6C10.7348 6 10.4804 6.10536 10.2929 6.29289C10.1054 6.48043 10 6.73478 10 7V11C10 11.5523 10.4477 12 11 12H12C12.5523 12 13 11.5523 13 11V7C13 6.44772 12.5523 6 12 6H11ZM14.2929 4.29289C14.4804 4.10536 14.7348 4 15 4H16C16.5523 4 17 4.44772 17 5V7C17 7.55228 16.5523 8 16 8H15C14.4477 8 14 7.55228 14 7V5C14 4.73478 14.1054 4.48043 14.2929 4.29289ZM19 2C18.7348 2 18.4804 2.10536 18.2929 2.29289C18.1054 2.48043 18 2.73478 18 3V15C18 15.5523 18.4477 16 19 16H20C20.5523 16 21 15.5523 21 15V3C21 2.44772 20.5523 2 20 2H19Z" fill="currentColor"/>
</svg>
