<svg width="24" height="24" viewBox="0 0 24 24" fill="none" xmlns="http://www.w3.org/2000/svg">
<path fill-rule="evenodd" clip-rule="evenodd" d="M3 2C3.55229 2 4 2.44772 4 3L4 16.2C4 17.0566 4.00078 17.6389 4.03755 18.089C4.07337 18.5274 4.1383 18.7516 4.21799 18.908L3.58086 19.2326L4.21799 18.908C4.40974 19.2843 4.7157 19.5903 5.09202 19.782C5.24842 19.8617 5.47262 19.9266 5.91104 19.9624C6.36113 19.9992 6.94342 20 7.8 20H21C21.5523 20 22 20.4477 22 21C22 21.5523 21.5523 22 21 22H7.8H7.75868C6.95372 22 6.28937 22 5.74818 21.9558C5.18608 21.9099 4.66937 21.8113 4.18404 21.564C3.43139 21.1805 2.81947 20.5686 2.43598 19.816C2.18868 19.3306 2.09012 18.8139 2.0442 18.2518C1.99998 17.7106 1.99999 17.0463 2 16.2413V16.2413V16.2V3C2 2.44772 2.44772 2 3 2ZM6.29289 15.7929C6.48043 15.6054 6.73478 15.5 7 15.5H8C8.55229 15.5 9 15.9477 9 16.5V17.5C9 18.0523 8.55229 18.5 8 18.5H7C6.44772 18.5 6 18.0523 6 17.5V16.5C6 16.2348 6.10536 15.9804 6.29289 15.7929ZM11 4C10.7348 4 10.4804 4.10536 10.2929 4.29289C10.1054 4.48043 10 4.73478 10 5V17.5C10 18.0523 10.4477 18.5 11 18.5H12C12.5523 18.5 13 18.0523 13 17.5V5C13 4.44772 12.5523 4 12 4H11ZM14.2929 13.2929C14.4804 13.1054 14.7348 13 15 13H16C16.5523 13 17 13.4477 17 14V17.5C17 18.0523 16.5523 18.5 16 18.5H15C14.4477 18.5 14 18.0523 14 17.5V14C14 13.7348 14.1054 13.4804 14.2929 13.2929ZM19 9C18.7348 9 18.4804 9.10536 18.2929 9.29289C18.1054 9.48043 18 9.73478 18 10V17.5C18 18.0523 18.4477 18.5 19 18.5H20C20.5523 18.5 21 18.0523 21 17.5V10C21 9.44772 20.5523 9 20 9H19Z" fill="currentColor"/>
</svg>
