<svg width="24" height="24" viewBox="0 0 24 24" fill="none" xmlns="http://www.w3.org/2000/svg">
<path fill-rule="evenodd" clip-rule="evenodd" d="M10.8952 3.4542C10.7024 3.5413 10.4448 3.68613 10.0217 3.92596L7.99997 5.07187L5.97407 6.2631C5.03239 6.8168 4.75687 6.99186 4.56281 7.20877C4.36928 7.42509 4.2226 7.67913 4.13203 7.95491C4.04121 8.23142 4.02736 8.55756 4.01868 9.64992L4 12L4.01868 14.3501C4.02736 15.4425 4.04121 15.7686 4.13203 16.0451C4.2226 16.3209 4.36928 16.5749 4.56281 16.7912C4.75687 17.0081 5.03239 17.1832 5.97407 17.7369L7.99999 18.9282L10.0445 20.087C10.9949 20.6257 11.2843 20.7767 11.5691 20.8363C11.8532 20.8958 12.1466 20.8958 12.4307 20.8363C12.7156 20.7767 13.0049 20.6257 13.9553 20.087L15.9998 18.9282L18.0258 17.7369C18.9674 17.1832 19.243 17.0081 19.437 16.7912C19.6306 16.5749 19.7772 16.3209 19.8678 16.0451C19.9586 15.7686 19.9725 15.4425 19.9812 14.3501L19.9998 12L19.9812 9.65381C19.9725 8.56 19.9586 8.23342 19.8676 7.95662C19.7768 7.68057 19.6298 7.42631 19.4359 7.2099C19.2414 6.9929 18.9653 6.81792 18.0218 6.2646L15.6319 4.8632L15.6309 4.8626L14.9931 4.48757C14.517 4.20763 14.358 3.59476 14.6379 3.11868C14.9179 2.64259 15.5308 2.48358 16.0068 2.76352L16.6436 3.13795L16.6446 3.13855L19.0335 4.53936L19.1559 4.61112C19.9232 5.06045 20.4956 5.39565 20.9253 5.87513C21.3037 6.29732 21.5904 6.79333 21.7675 7.33187C21.9686 7.94349 21.9735 8.60679 21.9801 9.49594L21.9811 9.63791L21.9998 11.9921L21.9998 12.008L21.9811 14.366L21.98 14.5078C21.9735 15.3958 21.9686 16.0582 21.7679 16.6692C21.5913 17.2072 21.3051 17.7028 20.9276 18.1248C20.4988 18.6041 19.9275 18.9395 19.1617 19.3892L19.0395 19.461L17.0068 20.6562L16.993 20.6642L14.9415 21.8269L14.8182 21.8969C14.0459 22.3352 13.4698 22.6622 12.8403 22.794C12.286 22.9099 11.7138 22.9099 11.1595 22.794C10.5301 22.6622 9.95394 22.3352 9.18164 21.8969L9.05833 21.8269L7.00684 20.6642L6.99308 20.6562L4.96033 19.461L4.83807 19.3891L4.83805 19.3891C4.07231 18.9395 3.50106 18.604 3.07228 18.1248C2.69472 17.7028 2.40859 17.2072 2.23189 16.6692C2.03122 16.0582 2.02635 15.3958 2.01982 14.5078L2.01874 14.366L2 12.008L2 11.9921L2.01874 9.63402L2.01982 9.49226C2.02635 8.60426 2.03122 7.94181 2.23189 7.33083C2.40859 6.79284 2.69472 6.29725 3.07228 5.87524C3.50107 5.39596 4.07233 5.06052 4.83809 4.61086L4.96033 4.53905L6.99308 3.3438L7.00684 3.33585L9.03549 2.18601L9.07243 2.16507L9.07244 2.16507C9.44663 1.95294 9.78519 1.76101 10.0721 1.63145C10.3642 1.49956 10.7508 1.35999 11.1894 1.40855C11.7602 1.47176 12.2777 1.77331 12.6142 2.23876C12.8727 2.59632 12.9419 3.00154 12.9712 3.32066C13 3.63413 13 4.0233 12.9999 4.45341L12.9999 4.45346L12.9999 4.48989C13 4.49326 13 4.49664 13 4.50002L13 12C13 12.5523 12.5523 13 12 13C11.4477 13 11 12.5523 11 12L11 7.92075L9.97889 8.4995L8.25711 9.51189C8.11125 9.59766 8.03703 9.64174 7.98499 9.6766L7.98066 9.67951L7.9803 9.68472C7.97613 9.74722 7.97507 9.83353 7.97372 10.0027L7.95785 12L7.97372 13.9974C7.97507 14.1666 7.97613 14.2529 7.9803 14.3154L7.98066 14.3206L7.98499 14.3235C8.03703 14.3584 8.11125 14.4024 8.25711 14.4882L9.97889 15.5006L11.7166 16.4855C11.8638 16.5689 11.939 16.6112 11.9952 16.6388L11.9999 16.6411L12.0046 16.6388C12.0608 16.6112 12.1361 16.5689 12.2833 16.4855L14.021 15.5006L15.7428 14.4882C15.8886 14.4024 15.9628 14.3584 16.0149 14.3235L16.0192 14.3206L16.0196 14.3154C16.0237 14.2529 16.0248 14.1666 16.0262 13.9974L16.042 12L16.0262 10.0027C16.0248 9.83353 16.0237 9.74722 16.0196 9.68472L16.0192 9.67951L16.0149 9.6766C15.9628 9.64174 15.8886 9.59766 15.7428 9.5119L15.0145 9.08366C14.5585 8.81552 14.4061 8.22848 14.6743 7.77247C14.9424 7.31645 15.5295 7.16414 15.9855 7.43228L16.7138 7.86052L16.7713 7.89414C16.9822 8.01717 17.2475 8.1719 17.4513 8.39969C17.6275 8.5967 17.7611 8.82807 17.8436 9.07923C17.939 9.36962 17.9403 9.67673 17.9414 9.92091L17.9418 9.98751L17.9577 11.9924L17.9577 12.0077L17.9418 14.0126L17.9414 14.0792C17.9403 14.3234 17.939 14.6305 17.8436 14.9209C17.7611 15.172 17.6275 15.4034 17.4513 15.6004C17.2475 15.8282 16.9822 15.9829 16.7713 16.106L16.7138 16.1396L14.9854 17.1558L14.9722 17.1635L13.228 18.1521L13.1701 18.1851C12.9581 18.3062 12.6914 18.4586 12.3923 18.5212C12.1335 18.5754 11.8664 18.5754 11.6076 18.5212C11.3084 18.4586 11.0418 18.3062 10.8298 18.1851L10.7719 18.1521L9.02764 17.1635L9.01445 17.1558L7.28611 16.1396L7.22862 16.106C7.01769 15.9829 6.7524 15.8282 6.54861 15.6004C6.37234 15.4034 6.23876 15.172 6.15627 14.9209C6.0609 14.6305 6.05954 14.3234 6.05846 14.0792L6.05809 14.0126L6.04215 12.0077L6.04215 11.9924L6.05809 9.98751L6.05846 9.92091C6.05954 9.67673 6.0609 9.36962 6.15627 9.07923C6.23876 8.82807 6.37234 8.5967 6.54861 8.39969C6.7524 8.1719 7.01769 8.01717 7.22862 7.89414L7.28611 7.86052L9.01445 6.84426L9.02764 6.83664L11 5.71873L11 5.28607C10.9999 5.28268 10.9999 5.2793 10.9999 5.27591L10.9999 4.49593C10.9999 4.00957 10.9989 3.71408 10.9796 3.50335C10.9766 3.4708 10.9734 3.44399 10.9704 3.42224C10.9499 3.43031 10.925 3.44075 10.8952 3.4542Z" fill="currentColor"/>
</svg>
