<svg width="24" height="24" viewBox="0 0 24 24" fill="none" xmlns="http://www.w3.org/2000/svg">
<path fill-rule="evenodd" clip-rule="evenodd" d="M11 2L10.9562 2C9.5932 1.99999 8.50917 1.99999 7.63458 2.07144C6.73898 2.14462 5.9753 2.29768 5.27606 2.65396C4.14708 3.2292 3.2292 4.14708 2.65396 5.27606C2.29768 5.9753 2.14462 6.73898 2.07144 7.63458C1.99999 8.50917 1.99999 9.5932 2 10.9562L2 11V13.0001L2 13.0439C1.99999 14.4069 1.99999 15.491 2.07144 16.3655C2.14462 17.2611 2.29768 18.0248 2.65396 18.7241C3.2292 19.853 4.14708 20.7709 5.27606 21.3462C5.9753 21.7024 6.73898 21.8555 7.63458 21.9287C8.50914 22.0001 9.59313 22.0001 10.9561 22.0001H10.9562H11H13H13.0438H13.0439C14.4069 22.0001 15.4909 22.0001 16.3654 21.9287C17.261 21.8555 18.0247 21.7024 18.7239 21.3462C19.8529 20.7709 20.7708 19.853 21.346 18.7241C21.7023 18.0248 21.8554 17.2611 21.9286 16.3655C22 15.491 22 14.407 22 13.044V13.0439V13.0001V11V10.9562V10.9561C22 9.59313 22 8.50914 21.9286 7.63458C21.8554 6.73898 21.7023 5.9753 21.346 5.27606C20.7708 4.14708 19.8529 3.2292 18.7239 2.65396C18.0247 2.29768 17.261 2.14462 16.3654 2.07144C15.4908 1.99999 14.4068 1.99999 13.0438 2L13 2H11ZM6.18404 4.43597C6.55435 4.24729 7.02552 4.12787 7.79744 4.0648C8.58104 4.00078 9.58337 4 11 4H13C14.4166 4 15.419 4.00078 16.2026 4.0648C16.9745 4.12787 17.4457 4.24729 17.816 4.43597C18.5686 4.81947 19.1805 5.43139 19.564 6.18404C19.7527 6.55435 19.8721 7.02552 19.9352 7.79744C19.9992 8.58104 20 9.58337 20 11V13.0001C20 14.4168 19.9992 15.4191 19.9352 16.2027C19.8721 16.9746 19.7527 17.4458 19.564 17.8161C19.1805 18.5687 18.5686 19.1807 17.816 19.5642C17.4457 19.7528 16.9745 19.8723 16.2026 19.9353C15.419 19.9993 14.4166 20.0001 13 20.0001H11C9.58337 20.0001 8.58104 19.9993 7.79744 19.9353C7.02552 19.8723 6.55435 19.7528 6.18404 19.5642C5.43139 19.1807 4.81947 18.5687 4.43597 17.8161C4.24729 17.4458 4.12787 16.9746 4.0648 16.2027C4.00078 15.4191 4 14.4168 4 13.0001V11C4 9.58337 4.00078 8.58104 4.0648 7.79744C4.12787 7.02552 4.24729 6.55435 4.43597 6.18404C4.81947 5.43139 5.43139 4.81947 6.18404 4.43597ZM7.99999 13.8668V10.1333C7.99999 9.3866 7.99999 9.01323 8.14532 8.72801C8.27315 8.47713 8.47712 8.27315 8.72801 8.14532C9.01322 8 9.38659 8 10.1333 8H13.8667C14.6135 8 14.9868 8 15.272 8.14532C15.5229 8.27315 15.7269 8.47713 15.8547 8.72801C16.0001 9.01323 16.0001 9.3866 16.0001 10.1333V13.8668C16.0001 14.6135 16.0001 14.9869 15.8547 15.2721C15.7269 15.523 15.5229 15.727 15.272 15.8548C14.9868 16.0001 14.6135 16.0001 13.8667 16.0001H10.1333C9.38659 16.0001 9.01322 16.0001 8.72801 15.8548C8.47712 15.727 8.27315 15.523 8.14532 15.2721C7.99999 14.9869 7.99999 14.6135 7.99999 13.8668Z" fill="currentColor"/>
</svg>
