<svg width="24" height="24" viewBox="0 0 24 24" fill="none" xmlns="http://www.w3.org/2000/svg">
<path fill-rule="evenodd" clip-rule="evenodd" d="M21.8153 2.72318C22.1351 2.27291 22.0293 1.64864 21.5791 1.32883C21.1288 1.00903 20.5045 1.1148 20.1847 1.56507L13.9368 10.362L12.2682 8.35971C11.9147 7.93543 11.2841 7.87811 10.8598 8.23167C10.4355 8.58524 10.3782 9.2158 10.7318 9.64008L12.5666 11.8419L12.5844 11.8632L12.5844 11.8632C12.6816 11.98 12.7921 12.1127 12.8975 12.2185C13.0144 12.3359 13.2061 12.5062 13.4862 12.6013C13.8365 12.7203 14.2185 12.7055 14.5586 12.5599C14.8306 12.4435 15.0085 12.259 15.116 12.1329C15.213 12.0192 15.3129 11.8784 15.4008 11.7545L15.4009 11.7545L15.4169 11.7318L21.8153 2.72318ZM14.6428 17.9999H14.6H13.4H13.3572H13.3571C12.2734 17.9999 11.3992 17.9999 10.6914 17.9421C9.96253 17.8825 9.32234 17.7567 8.73005 17.4549C7.78924 16.9756 7.02433 16.2107 6.54497 15.2698C6.24318 14.6776 6.11737 14.0374 6.05782 13.3085C5.99998 12.6006 5.99999 11.7265 6 10.6427V10.5999V9.3999V9.35712C5.99999 8.27332 5.99998 7.39916 6.05782 6.69127C6.11737 5.96242 6.24318 5.32224 6.54497 4.72994C7.02433 3.78913 7.78924 3.02423 8.73005 2.54486C9.32234 2.24308 9.96253 2.11726 10.6914 2.05771C11.3993 1.99988 12.2734 1.99989 13.3572 1.9999H13.4H15.5C16.0523 1.9999 16.5 2.44761 16.5 2.9999C16.5 3.55218 16.0523 3.9999 15.5 3.9999H13.4C12.2634 3.9999 11.4711 4.00067 10.8542 4.05107C10.2491 4.10052 9.90138 4.19269 9.63803 4.32688C9.07354 4.6145 8.6146 5.07344 8.32698 5.63793C8.19279 5.90128 8.10062 6.24897 8.05118 6.85414C8.00078 7.47098 8 8.26329 8 9.3999V10.5999C8 11.7365 8.00078 12.5288 8.05118 13.1457C8.10062 13.7508 8.19279 14.0985 8.32698 14.3619C8.6146 14.9264 9.07354 15.3853 9.63803 15.6729C9.90138 15.8071 10.2491 15.8993 10.8542 15.9487C11.4711 15.9991 12.2634 15.9999 13.4 15.9999H14.6C15.7366 15.9999 16.5289 15.9991 17.1458 15.9487C17.7509 15.8993 18.0986 15.8071 18.362 15.6729C18.9265 15.3853 19.3854 14.9264 19.673 14.3619C19.8072 14.0985 19.8994 13.7508 19.9488 13.1457C19.9992 12.5288 20 11.7365 20 10.5999V8.9999C20 8.44761 20.4477 7.9999 21 7.9999C21.5523 7.9999 22 8.44761 22 8.9999V10.5999V10.6427V10.6428C22 11.7265 22 12.6007 21.9422 13.3085C21.8826 14.0374 21.7568 14.6776 21.455 15.2698C20.9757 16.2107 20.2108 16.9756 19.27 17.4549C18.6777 17.7567 18.0375 17.8825 17.3086 17.9421C16.6008 17.9999 15.7266 17.9999 14.6429 17.9999H14.6428ZM3.88997 7.29291C4.38205 7.54364 4.57771 8.14582 4.32698 8.63791C4.19279 8.90126 4.10062 9.24895 4.05118 9.85412C4.00078 10.471 4 11.2633 4 12.3999V14.5999C4 15.7365 4.00078 16.5288 4.05118 17.1456C4.10062 17.7508 4.19279 18.0985 4.32698 18.3619C4.6146 18.9263 5.07354 19.3853 5.63803 19.6729C5.90139 19.8071 6.24907 19.8993 6.85424 19.9487C7.47108 19.9991 8.26339 19.9999 9.4 19.9999H11.6C12.7366 19.9999 13.5289 19.9991 14.1458 19.9487C14.7509 19.8993 15.0986 19.8071 15.362 19.6729C15.8541 19.4222 16.4562 19.6178 16.707 20.1099C16.9577 20.602 16.762 21.2042 16.27 21.4549C15.6777 21.7567 15.0375 21.8825 14.3086 21.9421C13.6007 21.9999 12.7266 21.9999 11.6428 21.9999H11.6H9.4H9.35722C8.27342 21.9999 7.39926 21.9999 6.69138 21.9421C5.96253 21.8825 5.32234 21.7567 4.73005 21.4549C3.78924 20.9755 3.02434 20.2106 2.54497 19.2698C2.24318 18.6775 2.11737 18.0374 2.05782 17.3085C1.99998 16.6006 1.99999 15.7265 2 14.6427V14.5999V12.3999V12.3571C1.99999 11.2733 1.99998 10.3991 2.05782 9.69126C2.11737 8.96241 2.24318 8.32222 2.54497 7.72993C2.7957 7.23784 3.39788 7.04218 3.88997 7.29291Z" fill="currentColor"/>
</svg>
