<svg width="24" height="24" viewBox="0 0 24 24" fill="none" xmlns="http://www.w3.org/2000/svg">
<path fill-rule="evenodd" clip-rule="evenodd" d="M10.9562 2L11 2H13L13.0438 2C14.4068 1.99999 15.4908 1.99999 16.3654 2.07144C17.261 2.14462 18.0247 2.29768 18.7239 2.65396C19.8529 3.2292 20.7708 4.14708 21.346 5.27606C21.7023 5.9753 21.8554 6.73898 21.9286 7.63458C22 8.50914 22 9.59313 22 10.9561V10.9562V11V13.0001V13.0439V13.044C22 14.407 22 15.491 21.9286 16.3655C21.8554 17.2611 21.7023 18.0248 21.346 18.7241C20.7708 19.853 19.8529 20.7709 18.7239 21.3462C18.0247 21.7024 17.261 21.8555 16.3654 21.9287C15.4909 22.0001 14.4069 22.0001 13.0439 22.0001H13.0438H13H11H10.9562H10.9561C9.59313 22.0001 8.50914 22.0001 7.63458 21.9287C6.73898 21.8555 5.9753 21.7024 5.27606 21.3462C4.14708 20.7709 3.2292 19.853 2.65396 18.7241C2.29768 18.0248 2.14462 17.2611 2.07144 16.3655C1.99999 15.491 1.99999 14.4069 2 13.0439L2 13.0001V11L2 10.9562C1.99999 9.5932 1.99999 8.50917 2.07144 7.63458C2.14462 6.73898 2.29768 5.9753 2.65396 5.27606C3.2292 4.14708 4.14708 3.2292 5.27606 2.65396C5.9753 2.29768 6.73898 2.14462 7.63458 2.07144C8.50917 1.99999 9.5932 1.99999 10.9562 2ZM17.4849 8.20968C17.8216 7.77193 17.7398 7.14408 17.302 6.80735C16.8642 6.47061 16.2364 6.55251 15.8997 6.99026L10.9688 13.4005L9.26822 11.3598C8.91465 10.9355 8.28409 10.8782 7.85981 11.2318C7.43554 11.5853 7.37821 12.2159 7.73178 12.6402L9.59221 14.8727L9.60954 14.8935L9.60957 14.8935C9.7033 15.0061 9.81071 15.1351 9.91345 15.2384C10.0283 15.354 10.2145 15.5194 10.486 15.615C10.8275 15.7353 11.2011 15.728 11.5376 15.5945C11.8052 15.4883 11.9847 15.3158 12.095 15.1958C12.1937 15.0885 12.296 14.9555 12.3852 14.8393L12.3852 14.8393L12.4017 14.8178L17.4849 8.20968Z" fill="currentColor"/>
</svg>
