<svg width="24" height="24" viewBox="0 0 24 24" fill="none" xmlns="http://www.w3.org/2000/svg">
<path fill-rule="evenodd" clip-rule="evenodd" d="M19.6119 2.34226C18.78 2 17.6666 2 15.6 2H12.4C10.1598 2 9.03969 2 8.18404 2.43597C7.43139 2.81947 6.81947 3.43139 6.43597 4.18404C6 5.03968 6 6.15979 6 8.4V11.6C6 13.8402 6 14.9603 6.43597 15.816C6.81947 16.5686 7.43139 17.1805 8.18404 17.564C9.03969 18 10.1598 18 12.4 18H15.6C17.8402 18 18.9603 18 19.816 17.564C20.5686 17.1805 21.1805 16.5686 21.564 15.816C22 14.9603 22 13.8402 22 11.6V8.4C22 7.35098 22 6.54758 21.9552 5.90192L22.8153 4.69099C23.1351 4.24072 23.0293 3.61645 22.5791 3.29665C22.1996 3.02715 21.6966 3.05987 21.3564 3.3463L14.4104 12.7718L14.3941 12.7939C14.3055 12.9142 14.2044 13.0514 14.1067 13.1622C13.9978 13.2855 13.8191 13.4644 13.5491 13.5761C13.2106 13.7161 12.8325 13.7274 12.4862 13.6078C12.21 13.5124 12.021 13.3444 11.905 13.2279C11.8008 13.1232 11.6917 12.9922 11.5961 12.8774L11.5961 12.8774L11.5785 12.8563L9.73178 10.6402C9.37822 10.2159 9.43554 9.58534 9.85982 9.23177C10.2841 8.87821 10.9147 8.93553 11.2682 9.35981L12.9517 11.3799L19.6119 2.34226ZM3.88997 7.29301C4.38205 7.54375 4.57771 8.14592 4.32698 8.63801C4.1928 8.90137 4.10062 9.24906 4.05118 9.85422C4.00078 10.4711 4 11.2634 4 12.4V14.6C4 15.7366 4.00078 16.5289 4.05118 17.1457C4.10062 17.7509 4.1928 18.0986 4.32698 18.362C4.6146 18.9264 5.07354 19.3854 5.63803 19.673C5.90139 19.8072 6.24907 19.8994 6.85424 19.9488C7.47108 19.9992 8.2634 20 9.4 20H11.6C12.7366 20 13.5289 19.9992 14.1458 19.9488C14.7509 19.8994 15.0986 19.8072 15.362 19.673C15.8541 19.4223 16.4562 19.6179 16.707 20.11C16.9577 20.6021 16.762 21.2043 16.27 21.455C15.6777 21.7568 15.0375 21.8826 14.3086 21.9422C13.6007 22 12.7266 22 11.6428 22H11.6H9.4H9.35722C8.27342 22 7.39926 22 6.69138 21.9422C5.96253 21.8826 5.32234 21.7568 4.73005 21.455C3.78924 20.9756 3.02434 20.2107 2.54497 19.2699C2.24318 18.6776 2.11737 18.0375 2.05782 17.3086C1.99998 16.6007 1.99999 15.7266 2 14.6428V14.6428V14.6V12.4V12.3572V12.3572C1.99999 11.2734 1.99998 10.3992 2.05782 9.69136C2.11737 8.96251 2.24318 8.32232 2.54497 7.73003C2.7957 7.23794 3.39788 7.04228 3.88997 7.29301Z" fill="currentColor"/>
</svg>
