<svg width="24" height="24" viewBox="0 0 24 24" fill="none" xmlns="http://www.w3.org/2000/svg">
<path fill-rule="evenodd" clip-rule="evenodd" d="M19.5616 4.17262C20.0186 4.48273 20.1376 5.1046 19.8275 5.5616L11.7122 17.521L11.6899 17.5539C11.4757 17.8696 11.2789 18.1597 11.0962 18.3829C10.9041 18.6175 10.6482 18.8809 10.2808 19.038C9.7852 19.2499 9.22705 19.2631 8.72194 19.0749C8.3476 18.9353 8.07949 18.6843 7.87657 18.4591C7.6835 18.2448 7.47317 17.9643 7.24428 17.6591L7.22041 17.6272L4.20006 13.6001C3.86869 13.1583 3.95823 12.5315 4.40006 12.2001C4.84189 11.8687 5.46869 11.9583 5.80006 12.4001L8.82041 16.4272C9.08121 16.775 9.23719 16.9813 9.36248 17.1204C9.40252 17.1649 9.43026 17.1917 9.44694 17.2067C9.45406 17.2073 9.46123 17.2071 9.46832 17.2062C9.48426 17.1904 9.51071 17.1623 9.5486 17.116C9.66718 16.9712 9.81322 16.7577 10.0573 16.398L18.1726 4.4386C18.4827 3.9816 19.1046 3.86251 19.5616 4.17262Z" fill="currentColor"/>
</svg>
