<svg width="24" height="24" viewBox="0 0 24 24" fill="none" xmlns="http://www.w3.org/2000/svg">
<path fill-rule="evenodd" clip-rule="evenodd" d="M8.5 1C7.94772 1 7.5 1.44772 7.5 2C7.5 2.55228 7.94772 3 8.5 3V7.58579L3.79347 12.2923C3.79309 12.2927 3.7927 12.2931 3.79231 12.2935L3.03553 13.0503C2.05235 14.0334 1.5 15.3669 1.5 16.7574C1.5 19.6528 3.84721 22 6.74264 22H17.2574C20.1528 22 22.5 19.6528 22.5 16.7574C22.5 15.3669 21.9477 14.0334 20.9645 13.0503L15.6464 7.73223C15.5527 7.63846 15.5 7.51129 15.5 7.37868V3C16.0523 3 16.5 2.55228 16.5 2C16.5 1.44772 16.0523 1 15.5 1H14.5H9.5H8.5ZM4.91421 14L4.44975 14.4645C3.84163 15.0726 3.5 15.8974 3.5 16.7574C3.5 18.5482 4.95178 20 6.74264 20H17.2574C19.0482 20 20.5 18.5482 20.5 16.7574C20.5 15.8974 20.1584 15.0726 19.5503 14.4645L19.0858 14H16C16 14.5523 15.5523 15 15 15H14C13.4477 15 13 14.5523 13 14H4.91421ZM17.0858 12L14.2322 9.14645C13.7634 8.67761 13.5 8.04172 13.5 7.37868V3H10.5V7.58579C10.5 8.11622 10.2893 8.62493 9.91421 9L6.91421 12H14H15H17.0858ZM9 15C8.44772 15 8 15.4477 8 16V17C8 17.5523 8.44772 18 9 18H10C10.5523 18 11 17.5523 11 17V16C11 15.4477 10.5523 15 10 15H9Z" fill="currentColor"/>
</svg>
