<svg width="24" height="24" viewBox="0 0 24 24" fill="none" xmlns="http://www.w3.org/2000/svg">
<path fill-rule="evenodd" clip-rule="evenodd" d="M14.7071 6.29289C15.0976 6.68342 15.0976 7.31658 14.7071 7.70711L11.4042 11.0101C11.0955 11.3187 10.9071 11.5083 10.7772 11.6612C10.7167 11.7325 10.6836 11.7791 10.6651 11.809C10.6563 11.8232 10.6515 11.8325 10.6491 11.8377C10.6467 11.8427 10.6459 11.8451 10.6458 11.8455C10.6132 11.9459 10.6132 12.0541 10.6458 12.1545C10.6459 12.1549 10.6467 12.1573 10.6491 12.1623C10.6515 12.1675 10.6563 12.1768 10.6651 12.191C10.6836 12.2209 10.7167 12.2675 10.7772 12.3388C10.9071 12.4917 11.0955 12.6813 11.4042 12.9899L14.7071 16.2929C15.0976 16.6834 15.0976 17.3166 14.7071 17.7071C14.3166 18.0976 13.6834 18.0976 13.2929 17.7071L9.98997 14.4042L9.96446 14.3787C9.68931 14.1035 9.44171 13.856 9.25255 13.6331C9.04997 13.3945 8.85638 13.1193 8.7437 12.7725C8.58055 12.2704 8.58055 11.7296 8.7437 11.2275C8.85638 10.8807 9.04997 10.6055 9.25254 10.3669C9.44171 10.144 9.6893 9.89647 9.96445 9.62135C9.97293 9.61287 9.98143 9.60437 9.98997 9.59584L13.2929 6.29289C13.6834 5.90237 14.3166 5.90237 14.7071 6.29289Z" fill="currentColor"/>
</svg>
