<svg width="24" height="24" viewBox="0 0 24 24" fill="none" xmlns="http://www.w3.org/2000/svg">
<path fill-rule="evenodd" clip-rule="evenodd" d="M9.29289 17.7071C8.90237 17.3166 8.90237 16.6834 9.29289 16.2929L12.5958 12.9899C12.9045 12.6813 13.093 12.4917 13.2228 12.3388C13.2833 12.2675 13.3164 12.2209 13.3349 12.191C13.3437 12.1768 13.3485 12.1675 13.3509 12.1623C13.3533 12.1573 13.3541 12.1549 13.3542 12.1545C13.3868 12.0541 13.3868 11.9459 13.3542 11.8455C13.3541 11.8451 13.3533 11.8427 13.3509 11.8377C13.3485 11.8326 13.3437 11.8232 13.3349 11.809C13.3164 11.7791 13.2833 11.7325 13.2228 11.6612C13.093 11.5083 12.9045 11.3187 12.5958 11.0101L9.29289 7.70711C8.90237 7.31658 8.90237 6.68342 9.29289 6.29289C9.68342 5.90237 10.3166 5.90237 10.7071 6.29289L14.0101 9.59584L14.0356 9.62135C14.3107 9.89646 14.5583 10.144 14.7475 10.3669C14.95 10.6055 15.1436 10.8807 15.2563 11.2275C15.4195 11.7296 15.4195 12.2704 15.2563 12.7725C15.1436 13.1193 14.95 13.3945 14.7475 13.6331C14.5583 13.856 14.3107 14.1035 14.0356 14.3786C14.0271 14.3871 14.0186 14.3956 14.0101 14.4042L10.7071 17.7071C10.3166 18.0976 9.68342 18.0976 9.29289 17.7071Z" fill="currentColor"/>
</svg>
