<svg width="24" height="24" viewBox="0 0 24 24" fill="none" xmlns="http://www.w3.org/2000/svg">
<path fill-rule="evenodd" clip-rule="evenodd" d="M6.29289 9.29289C6.68342 8.90237 7.31658 8.90237 7.70711 9.29289L11.0101 12.5958C11.3187 12.9045 11.5083 13.093 11.6612 13.2228C11.7325 13.2833 11.7791 13.3164 11.809 13.3349C11.8232 13.3437 11.8325 13.3485 11.8377 13.3509C11.8427 13.3533 11.8451 13.3541 11.8455 13.3542C11.9459 13.3868 12.0541 13.3868 12.1545 13.3542C12.1549 13.3541 12.1573 13.3533 12.1623 13.3509C12.1675 13.3485 12.1768 13.3437 12.191 13.3349C12.2209 13.3164 12.2675 13.2833 12.3388 13.2228C12.4917 13.093 12.6813 12.9045 12.9899 12.5958L16.2929 9.29289C16.6834 8.90237 17.3166 8.90237 17.7071 9.29289C18.0976 9.68342 18.0976 10.3166 17.7071 10.7071L14.4042 14.0101L14.3787 14.0356C14.1035 14.3107 13.856 14.5583 13.6331 14.7475C13.3945 14.95 13.1193 15.1436 12.7725 15.2563C12.2704 15.4195 11.7296 15.4195 11.2275 15.2563C10.8807 15.1436 10.6055 14.95 10.3669 14.7475C10.144 14.5583 9.89647 14.3107 9.62135 14.0356C9.61287 14.0271 9.60437 14.0186 9.59584 14.0101L6.29289 10.7071C5.90237 10.3166 5.90237 9.68342 6.29289 9.29289Z" fill="currentColor"/>
</svg>
