<svg width="24" height="24" viewBox="0 0 24 24" fill="none" xmlns="http://www.w3.org/2000/svg">
<path fill-rule="evenodd" clip-rule="evenodd" d="M17.7072 14.7071C17.3166 15.0976 16.6835 15.0976 16.293 14.7071L12.99 11.4042C12.6813 11.0955 12.4918 10.9071 12.3389 10.7772C12.2676 10.7167 12.221 10.6836 12.1911 10.6651C12.1769 10.6563 12.1675 10.6515 12.1623 10.6491C12.1573 10.6467 12.155 10.6459 12.1546 10.6458C12.0541 10.6132 11.946 10.6132 11.8456 10.6458C11.8451 10.6459 11.8428 10.6467 11.8378 10.6491C11.8326 10.6515 11.8233 10.6563 11.809 10.6651C11.7791 10.6836 11.7325 10.7167 11.6613 10.7772C11.5083 10.9071 11.3188 11.0955 11.0101 11.4042L7.70717 14.7071C7.31664 15.0976 6.68348 15.0976 6.29295 14.7071C5.90243 14.3166 5.90243 13.6834 6.29295 13.2929L9.5959 9.98997L9.62141 9.96445C9.89652 9.68931 10.1441 9.44171 10.3669 9.25255C10.6055 9.04997 10.8807 8.85638 11.2275 8.7437C11.7296 8.58055 12.2705 8.58055 12.7726 8.7437C13.1194 8.85638 13.3946 9.04997 13.6332 9.25254C13.856 9.44171 14.1036 9.6893 14.3787 9.96445C14.3872 9.97293 14.3957 9.98143 14.4042 9.98997L17.7072 13.2929C18.0977 13.6834 18.0977 14.3166 17.7072 14.7071Z" fill="currentColor"/>
</svg>
