<svg width="24" height="24" viewBox="0 0 24 24" fill="none" xmlns="http://www.w3.org/2000/svg">
<path fill-rule="evenodd" clip-rule="evenodd" d="M10.0001 3C8.89549 3 8.00006 3.89543 8.00006 5C8.00006 6.10457 8.89549 7 10.0001 7C11.1046 7 12.0001 6.10457 12.0001 5C12.0001 3.89543 11.1046 3 10.0001 3ZM6.00006 5C6.00006 2.79086 7.79092 1 10.0001 1C12.2092 1 14.0001 2.79086 14.0001 5C14.0001 7.20914 12.2092 9 10.0001 9C7.79092 9 6.00006 7.20914 6.00006 5ZM19.5 10C18.6716 10 18 10.6716 18 11.5C18 12.3284 18.6716 13 19.5 13C20.3284 13 21 12.3284 21 11.5C21 10.6716 20.3284 10 19.5 10ZM16 11.5C16 9.567 17.567 8 19.5 8C21.433 8 23 9.567 23 11.5C23 13.433 21.433 15 19.5 15C17.567 15 16 13.433 16 11.5ZM15.3553 14.5025L15.5232 16.182C15.9863 16.0631 16.4693 16 16.9656 16C19.8017 16 22.1141 18.0293 22.9539 20.7C23.1196 21.2269 22.8268 21.7883 22.3 21.9539C21.7731 22.1196 21.2117 21.8268 21.0461 21.3C20.4202 19.3099 18.7781 18 16.9656 18C16.5352 18 16.1193 18.0722 15.7258 18.2076L15.9951 20.9005C16.0501 21.45 15.6491 21.9401 15.0996 21.995C14.55 22.05 14.06 21.649 14.005 21.0995L13.3652 14.7015C13.2119 13.1679 11.9214 12 10.3801 12H8.97219C7.83276 12 6.80587 12.6426 6.33567 13.6519C6.26032 13.8136 6.18674 13.9724 6.11452 14.1281L6.11441 14.1284L6.11434 14.1285C5.07114 16.3788 4.31215 18.0159 2.60006 19.3C2.15823 19.6314 1.53143 19.5418 1.20006 19.1C0.868688 18.6582 0.958231 18.0314 1.40006 17.7C2.69873 16.726 3.25043 15.5407 4.396 13.0795L4.52277 12.8073C5.33224 11.0698 7.08145 10 8.97219 10H10.3801C12.9489 10 15.0997 11.9465 15.3553 14.5025ZM7.49001 17.6414C7.56811 17.0947 7.18821 16.5882 6.64148 16.5101C6.09475 16.4319 5.58821 16.8118 5.51011 17.3586L5.01011 20.8586C4.932 21.4053 5.3119 21.9118 5.85864 21.99C6.40537 22.0681 6.9119 21.6882 6.99001 21.1414L7.49001 17.6414Z" fill="currentColor"/>
</svg>
