<svg width="24" height="24" viewBox="0 0 24 24" fill="none" xmlns="http://www.w3.org/2000/svg">
<path fill-rule="evenodd" clip-rule="evenodd" d="M6.06704 5.91312C7.59874 4.41992 9.69194 3.5 12 3.5C15.0419 3.5 17.7105 5.09785 19.2124 7.5H12C10.316 7.5 8.84798 8.42506 8.07648 9.79477L6.14646 6.04259C6.12291 5.99681 6.09631 5.95361 6.06704 5.91312ZM4.71113 7.6246C3.94222 8.90275 3.5 10.3997 3.5 12C3.5 16.4054 6.85134 20.028 11.1436 20.4574L12.8471 16.4204C12.5728 16.4726 12.2896 16.5 12 16.5C10.102 16.5 8.48083 15.3254 7.8191 13.6668L4.71113 7.6246ZM13.3408 20.3949C17.3981 19.7519 20.5 16.2382 20.5 12C20.5 11.1271 20.3684 10.285 20.1241 9.49238C20.0834 9.49741 20.042 9.5 20 9.5H15.7422C16.2209 10.215 16.5 11.0749 16.5 12C16.5 12.5666 16.3948 13.111 16.2019 13.6131C16.1691 13.6986 16.1337 13.7829 16.0959 13.8658L13.3408 20.3949ZM12 1.5C6.20101 1.5 1.5 6.20101 1.5 12C1.5 17.799 6.20101 22.5 12 22.5C17.799 22.5 22.5 17.799 22.5 12C22.5 6.20101 17.799 1.5 12 1.5ZM14.2657 13.0588L14.3402 12.8821C14.4432 12.6091 14.5 12.3123 14.5 12C14.5 10.6193 13.3807 9.5 12 9.5C10.6193 9.5 9.50002 10.6193 9.50002 12C9.50002 12.3176 9.55877 12.6192 9.6651 12.896C10.026 13.8357 10.9367 14.5 12 14.5C13.0008 14.5 13.8664 13.9115 14.2657 13.0588Z" fill="currentColor"/>
</svg>
