<svg width="24" height="24" viewBox="0 0 24 24" fill="none" xmlns="http://www.w3.org/2000/svg">
<path fill-rule="evenodd" clip-rule="evenodd" d="M3 10C3.55228 10 4 9.5523 4 9.00001V3C4 2.44772 3.55228 2 3 2C2.44772 2 2 2.44772 2 3V9.00001C2 9.5523 2.44772 10 3 10ZM1.5 13.5C1.5 14.0523 1.94772 14.5 2.5 14.5H3.5C4.05228 14.5 4.5 14.0523 4.5 13.5V12.5C4.5 11.9477 4.05228 11.5 3.5 11.5H2.5C1.94772 11.5 1.5 11.9477 1.5 12.5V13.5ZM11.9299 2.00001L12.0001 2.00001L12.0702 2.00001C12.9323 1.99998 13.4417 1.99996 13.8822 2.04335C18.1552 2.4642 21.5359 5.84487 21.9567 10.1179C22.0001 10.5584 22.0001 11.0678 22.0001 11.93V12.0001V12.0702C22.0001 12.9324 22.0001 13.4418 21.9567 13.8823C21.5359 18.1553 18.1552 21.5359 13.8822 21.9568C13.4417 22.0002 12.9323 22.0002 12.0702 22.0001H12.0001H11.93C11.0678 22.0002 10.5584 22.0002 10.1179 21.9568C7.3864 21.6878 5.01988 20.2089 3.55852 18.0629C3.24767 17.6064 3.36573 16.9843 3.82223 16.6735C4.27872 16.3626 4.90078 16.4807 5.21164 16.9372C6.34978 18.6085 8.19035 19.7573 10.3139 19.9664C10.6439 19.9989 11.0476 20.0001 12.0001 20.0001C12.9525 20.0001 13.3563 19.9989 13.6862 19.9664C17.0096 19.6391 19.639 17.0097 19.9664 13.6863C19.9989 13.3563 20.0001 12.9526 20.0001 12.0001C20.0001 11.0476 19.9989 10.6438 19.9664 10.3139C19.639 6.99046 17.0096 4.36105 13.6862 4.03372C13.3563 4.00123 12.9525 4.00001 12.0001 4.00001C11.0476 4.00001 10.6439 4.00123 10.3139 4.03372C9.29447 4.13413 8.3417 4.45066 7.5004 4.93682C7.02222 5.21315 6.41056 5.04951 6.13424 4.57132C5.85791 4.09314 6.02155 3.48148 6.49973 3.20515C7.58278 2.57929 8.8092 2.17225 10.1179 2.04335C10.5584 1.99996 11.0678 1.99998 11.9299 2.00001ZM12.0002 6.50001C12.5525 6.50001 13.0002 6.94773 13.0002 7.50001V11.5858L16.7073 15.2929C17.0978 15.6834 17.0978 16.3166 16.7073 16.7071C16.3167 17.0976 15.6836 17.0976 15.2931 16.7071L11.2931 12.7071C11.1055 12.5196 11.0002 12.2652 11.0002 12V7.50001C11.0002 6.94773 11.4479 6.50001 12.0002 6.50001Z" fill="currentColor"/>
</svg>
