<svg width="24" height="24" viewBox="0 0 24 24" fill="none" xmlns="http://www.w3.org/2000/svg">
<path fill-rule="evenodd" clip-rule="evenodd" d="M11.9299 2L12 2L12.0701 2H12.0702C12.9323 1.99997 13.4416 1.99996 13.8822 2.04334C18.1552 2.4642 21.5358 5.84486 21.9567 10.1179C21.993 10.4868 21.9985 10.8946 21.9997 11.498C22.0008 12.0503 21.554 12.4989 21.0017 12.5C20.4494 12.5011 20.0008 12.0543 19.9997 11.502C19.9985 10.8861 19.9918 10.5723 19.9663 10.3139C19.639 6.99045 17.0096 4.36104 13.6861 4.03371C13.3562 4.00122 12.9525 4 12 4C11.0475 4 10.6438 4.00122 10.3139 4.03371C6.99045 4.36104 4.36104 6.99045 4.03371 10.3139C4.00122 10.6438 4 11.0476 4 12.0001C4 12.9526 4.00122 13.3563 4.03371 13.6862C4.36104 17.0097 6.99045 19.6391 10.3139 19.9664C10.4887 19.9836 10.6949 19.9927 11.0129 19.9968C11.5652 20.0039 12.0071 20.4574 11.9999 21.0096C11.9928 21.5619 11.5393 22.0038 10.9871 21.9966C10.6487 21.9923 10.3765 21.9823 10.1179 21.9568C5.84486 21.5359 2.4642 18.1553 2.04334 13.8823C1.99996 13.4418 1.99997 12.9324 2 12.0702V12.0702L2 12.0001L2 11.9299V11.9299C1.99997 11.0678 1.99996 10.5584 2.04334 10.1179C2.4642 5.84486 5.84486 2.4642 10.1179 2.04334C10.5584 1.99996 11.0677 1.99997 11.9298 2H11.9299ZM22.6402 14.7318C23.0645 15.0853 23.1218 15.7159 22.7682 16.1402L18.3955 21.3875L18.3783 21.4081C18.2863 21.5186 18.1804 21.6458 18.0789 21.7479C17.9651 21.8625 17.7816 22.0255 17.5144 22.1214C17.1772 22.2423 16.808 22.2386 16.4733 22.111C16.208 22.0098 16.0278 21.8431 15.9163 21.7263C15.817 21.6222 15.7136 21.4929 15.6238 21.3805L15.6238 21.3805L15.6071 21.3596L14.2191 19.6247C13.8741 19.1934 13.944 18.5641 14.3753 18.2191C14.8066 17.8741 15.4359 17.944 15.7809 18.3753L17.0158 19.919L21.2318 14.8598C21.5853 14.4355 22.2159 14.3782 22.6402 14.7318ZM13 7.5C13 6.94772 12.5523 6.5 12 6.5C11.4477 6.5 11 6.94772 11 7.5V11.5858L7.2929 15.2929C6.90237 15.6834 6.90237 16.3166 7.2929 16.7071C7.68342 17.0976 8.31659 17.0976 8.70711 16.7071L12.7071 12.7071C12.8946 12.5196 13 12.2652 13 12V7.5Z" fill="currentColor"/>
</svg>
