<svg width="24" height="24" viewBox="0 0 24 24" fill="none" xmlns="http://www.w3.org/2000/svg">
<path fill-rule="evenodd" clip-rule="evenodd" d="M10.9562 2L11 2H13L13.0438 2C14.4068 1.99999 15.4908 1.99999 16.3654 2.07144C17.261 2.14462 18.0247 2.29768 18.7239 2.65396C19.8529 3.2292 20.7708 4.14708 21.346 5.27606C21.7023 5.9753 21.8554 6.73898 21.9286 7.63458C22 8.50914 22 9.59313 22 10.9561V10.9562V11V13.0001V13.0439V13.044C22 14.407 22 15.491 21.9286 16.3655C21.8554 17.2611 21.7023 18.0248 21.346 18.7241C20.7708 19.853 19.8529 20.7709 18.7239 21.3462C18.0247 21.7024 17.261 21.8555 16.3654 21.9287C15.4909 22.0001 14.4069 22.0001 13.0439 22.0001H13.0438H13H11H10.9562H10.9561C9.59313 22.0001 8.50914 22.0001 7.63458 21.9287C6.73898 21.8555 5.9753 21.7024 5.27606 21.3462C4.14708 20.7709 3.2292 19.853 2.65396 18.7241C2.29768 18.0248 2.14462 17.2611 2.07144 16.3655C1.99999 15.491 1.99999 14.4069 2 13.0439L2 13.0001V11L2 10.9562C1.99999 9.5932 1.99999 8.50917 2.07144 7.63458C2.14462 6.73898 2.29768 5.9753 2.65396 5.27606C3.2292 4.14708 4.14708 3.2292 5.27606 2.65396C5.9753 2.29768 6.73898 2.14462 7.63458 2.07144C8.50917 1.99999 9.5932 1.99999 10.9562 2ZM7.79744 4.0648C7.02552 4.12787 6.55435 4.24729 6.18404 4.43597C5.43139 4.81947 4.81947 5.43139 4.43597 6.18404C4.24729 6.55435 4.12787 7.02552 4.0648 7.79744C4.00078 8.58104 4 9.58337 4 11V13.0001C4 14.4168 4.00078 15.4191 4.0648 16.2027C4.12787 16.9746 4.24729 17.4458 4.43597 17.8161C4.81947 18.5687 5.43139 19.1807 6.18404 19.5642C6.55435 19.7528 7.02552 19.8723 7.79744 19.9353C8.58104 19.9993 9.58337 20.0001 11 20.0001H13C14.4166 20.0001 15.419 19.9993 16.2026 19.9353C16.9745 19.8723 17.4457 19.7528 17.816 19.5642C18.5686 19.1807 19.1805 18.5687 19.564 17.8161C19.7527 17.4458 19.8721 16.9746 19.9352 16.2027C19.9992 15.4191 20 14.4168 20 13.0001V11C20 9.58337 19.9992 8.58104 19.9352 7.79744C19.8721 7.02552 19.7527 6.55435 19.564 6.18404C19.1805 5.43139 18.5686 4.81947 17.816 4.43597C17.4457 4.24729 16.9745 4.12787 16.2026 4.0648C15.419 4.00078 14.4166 4 13 4H11C9.58337 4 8.58104 4.00078 7.79744 4.0648ZM16.2071 7.79289C16.5976 8.18342 16.5976 8.81658 16.2071 9.20711L13.4142 12L16.2071 14.7929C16.5976 15.1834 16.5976 15.8166 16.2071 16.2071C15.8166 16.5976 15.1834 16.5976 14.7929 16.2071L12 13.4142L9.20711 16.2071C8.81658 16.5976 8.18342 16.5976 7.79289 16.2071C7.40237 15.8166 7.40237 15.1834 7.79289 14.7929L10.5858 12L7.79289 9.20711C7.40237 8.81658 7.40237 8.18342 7.79289 7.79289C8.18342 7.40237 8.81658 7.40237 9.20711 7.79289L12 10.5858L14.7929 7.79289C15.1834 7.40237 15.8166 7.40237 16.2071 7.79289Z" fill="currentColor"/>
</svg>
