<svg width="24" height="24" viewBox="0 0 24 24" fill="none" xmlns="http://www.w3.org/2000/svg">
<path fill-rule="evenodd" clip-rule="evenodd" d="M12.1144 4.00656C12.663 4.06987 13.0565 4.56595 12.9932 5.1146L11.4932 18.1146C11.4299 18.6632 10.9338 19.0567 10.3851 18.9934C9.83649 18.9301 9.44304 18.434 9.50635 17.8853L11.0063 4.88535C11.0697 4.3367 11.5657 3.94326 12.1144 4.00656ZM8.62696 4.00817C9.17478 4.07829 9.56203 4.57923 9.49191 5.12704L7.85319 17.9295L7.84354 18.0052C7.79911 18.3544 7.76065 18.6567 7.67306 18.9265C7.33445 19.9694 6.4538 20.7445 5.37631 20.948C5.0976 21.0006 4.79284 21.0004 4.44086 21.0001L4.36451 21.0001L4.26579 21.0001C3.82538 21.0005 3.44855 21.0009 3.12203 20.9279C1.84976 20.6438 0.906621 19.5705 0.788362 18.2722C0.758012 17.939 0.806788 17.5654 0.863793 17.1287L0.876541 17.0308L1.67496 10.8715C1.74596 10.3238 2.24752 9.93738 2.79522 10.0084C3.34292 10.0794 3.72937 10.5809 3.65837 11.1286L2.85995 17.2879C2.78336 17.8787 2.77268 18.0091 2.78012 18.0908C2.81954 18.5235 3.13391 18.8813 3.55801 18.976C3.63802 18.9939 3.76877 19.0001 4.36451 19.0001C4.83641 19.0001 4.93606 18.9958 5.00523 18.9827C5.36439 18.9149 5.65794 18.6565 5.77081 18.3089C5.79254 18.2419 5.80946 18.1436 5.86938 17.6756L7.50809 4.87312C7.57821 4.3253 8.07915 3.93805 8.62696 4.00817ZM19.0876 3.99997C17.2146 3.99997 16.1983 6.19125 17.4082 7.62106L20.1763 10.8925C20.686 11.4948 20.9379 12.2737 20.8773 13.0604L20.6453 16.0767C20.6052 16.5977 20.1708 17 19.6483 17H18.2932L18.7272 13.3546C18.9396 11.5698 17.5456 9.99997 15.7482 9.99997H14.8337C14.2815 9.99997 13.8337 10.4477 13.8337 11C13.8337 11.5523 14.2815 12 14.8337 12H15.7482C16.3473 12 16.812 12.5232 16.7412 13.1182L16.2791 17H13.8337C13.2815 17 12.8337 17.4477 12.8337 18C12.8337 18.5523 13.2815 19 13.8337 19H17.1671H19.6483C21.2159 19 22.5192 17.7931 22.6394 16.2301L22.8714 13.2138C22.9723 11.9026 22.5525 10.6045 21.7031 9.60058L18.9349 6.32916C18.8249 6.19918 18.9173 5.99997 19.0876 5.99997H22.0003C22.5526 5.99997 23.0003 5.55226 23.0003 4.99997C23.0003 4.44769 22.5526 3.99997 22.0003 3.99997H19.0876Z" fill="currentColor"/>
</svg>
