<svg width="24" height="24" viewBox="0 0 24 24" fill="none" xmlns="http://www.w3.org/2000/svg">
<path fill-rule="evenodd" clip-rule="evenodd" d="M16.2026 4.06478C15.419 4.00076 14.4166 3.99999 13 4L11 4.00002C9.58337 4.00002 8.58104 4.00081 7.79745 4.06484C7.02554 4.12791 6.55437 4.24733 6.18406 4.43602C5.43142 4.81951 4.8195 5.43144 4.43601 6.18408C4.24733 6.55439 4.12791 7.02556 4.06484 7.79747C4.00082 8.58106 4.00004 9.58338 4.00004 11C4.00004 12.4523 4.007 13.0024 4.11056 13.4338C4.37047 14.5164 5.06371 15.4236 6.0001 15.9643C6.47837 16.2405 6.6422 16.8521 6.36603 17.3304C6.08985 17.8086 5.47825 17.9725 4.99998 17.6963C3.59615 16.8857 2.55582 15.5251 2.16582 13.9007C1.99961 13.2084 1.99977 12.4005 2.00002 11.1496L2.00004 11L2.00004 10.9562C2.00003 9.59321 2.00002 8.50919 2.07148 7.63461C2.14465 6.73901 2.29771 5.97535 2.65399 5.2761C3.22923 4.14713 4.14711 3.22925 5.27607 2.65401C5.97531 2.29772 6.73898 2.14466 7.63458 2.07148C8.50916 2.00002 9.59318 2.00002 10.9562 2.00002L11 2.00002L13 2H13.0437H13.0438C14.4068 1.99998 15.4908 1.99997 16.3654 2.07142C17.261 2.14459 18.0247 2.29765 18.724 2.65393C19.8529 3.22917 20.7708 4.14705 21.3461 5.27603L20.4551 5.73002L21.3461 5.27603C21.7024 5.97528 21.8554 6.73897 21.9286 7.63458C22.0001 8.50917 22 9.59319 22 10.9562V10.9563V11.0001V11.0439V11.044C22 12.407 22.0001 13.491 21.9286 14.3656C21.8554 15.2612 21.7024 16.0249 21.3461 16.7241C20.7708 17.8531 19.853 18.771 18.724 19.3462C18.0247 19.7025 17.2611 19.8556 16.3655 19.9288C15.4909 20.0002 14.4069 20.0002 13.0439 20.0002H13.0438H13H12.2312C10.8118 20.0002 10.2051 20.0028 9.61975 20.0926C9.08466 20.1746 8.55929 20.3107 8.0517 20.4989C7.49642 20.7047 6.96476 20.997 5.72397 21.6863L4.48565 22.3742C4.00286 22.6424 3.39406 22.4684 3.12587 21.9856C2.85767 21.5028 3.03163 20.894 3.51442 20.6258L4.75274 19.9379L4.82922 19.8954C5.9718 19.2607 6.64149 18.8886 7.35662 18.6235C7.99111 18.3884 8.64782 18.2182 9.31668 18.1157C10.0705 18.0001 10.8366 18.0001 12.1437 18.0002L12.2312 18.0002H13C14.4167 18.0002 15.419 17.9994 16.2026 17.9354C16.9745 17.8723 17.4457 17.7529 17.816 17.5642C18.5686 17.1807 19.1806 16.5688 19.5641 15.8162C19.7527 15.4458 19.8722 14.9747 19.9352 14.2027C19.9993 13.4191 20 12.4168 20 11.0001C20 9.58343 19.9993 8.58106 19.9352 7.79745C19.8722 7.0255 19.7527 6.55432 19.5641 6.18401C19.1806 5.43136 18.5686 4.81944 17.816 4.43595C17.4457 4.24726 16.9745 4.12784 16.2026 4.06478ZM7.00004 12C7.00004 12.5523 7.44775 13 8.00004 13H16C16.5523 13 17 12.5523 17 12C17 11.4477 16.5523 11 16 11H8.00004C7.44775 11 7.00004 11.4477 7.00004 12ZM12 8.99997C11.4478 8.99997 11 8.55226 11 7.99997C11 7.44769 11.4478 6.99997 12 6.99997H16C16.5523 6.99997 17 7.44769 17 7.99997C17 8.55226 16.5523 8.99997 16 8.99997H12Z" fill="currentColor"/>
</svg>
