<svg width="24" height="24" viewBox="0 0 24 24" fill="none" xmlns="http://www.w3.org/2000/svg">
<path fill-rule="evenodd" clip-rule="evenodd" d="M13 4C14.4166 3.99999 15.419 4.00076 16.2026 4.06478C16.9745 4.12784 17.4457 4.24726 17.816 4.43595C18.5686 4.81944 19.1806 5.43136 19.5641 6.18401C19.7527 6.55432 19.8722 7.0255 19.9352 7.79745C19.9993 8.58106 20 9.58343 20 11.0001C20 12.4168 19.9993 13.4191 19.9352 14.2027C19.8722 14.9747 19.7527 15.4458 19.5641 15.8162C19.1806 16.5688 18.5686 17.1807 17.816 17.5642C17.4457 17.7529 16.9745 17.8723 16.2026 17.9354C15.419 17.9994 14.4167 18.0002 13 18.0002H12.2312L12.1437 18.0002C10.8366 18.0001 10.0705 18.0001 9.31668 18.1157C8.64782 18.2182 7.99111 18.3884 7.35662 18.6235C6.64149 18.8886 5.9718 19.2607 4.82922 19.8954L4.75274 19.9379L3.51442 20.6258C3.03163 20.894 2.85767 21.5028 3.12587 21.9856C3.39406 22.4684 4.00286 22.6424 4.48565 22.3742L5.72397 21.6863C6.96476 20.997 7.49642 20.7047 8.0517 20.4989C8.55929 20.3107 9.08466 20.1746 9.61975 20.0926C10.2051 20.0028 10.8118 20.0002 12.2312 20.0002H13H13.0438H13.0439C14.4069 20.0002 15.4909 20.0002 16.3655 19.9288C17.2611 19.8556 18.0247 19.7025 18.724 19.3462C19.853 18.771 20.7708 17.8531 21.3461 16.7241C21.7024 16.0249 21.8554 15.2612 21.9286 14.3656C22.0001 13.491 22 12.407 22 11.044V11.0439V11.0001V10.9563V10.9562C22 9.59319 22.0001 8.50917 21.9286 7.63458C21.8554 6.73897 21.7024 5.97528 21.3461 5.27603L20.4551 5.73002L21.3461 5.27603C20.7708 4.14705 19.8529 3.22917 18.724 2.65393C18.0247 2.29765 17.261 2.14459 16.3654 2.07142C15.4908 1.99997 14.4068 1.99998 13.0438 2H13.0437H13L11 2.00002L10.9562 2.00002C9.59318 2.00002 8.50916 2.00002 7.63458 2.07148C6.73898 2.14466 5.97531 2.29772 5.27607 2.65401C4.14711 3.22925 3.22923 4.14713 2.65399 5.2761C2.29771 5.97535 2.14465 6.73901 2.07148 7.63461C2.00002 8.50919 2.00003 9.59321 2.00004 10.9562L2.00004 11L2.00002 11.1496C1.99977 12.4005 1.99961 13.2084 2.16582 13.9007C2.55582 15.5251 3.59615 16.8857 4.99998 17.6963C5.47825 17.9725 6.08985 17.8086 6.36603 17.3304C6.6422 16.8521 6.47837 16.2405 6.0001 15.9643C5.06371 15.4236 4.37047 14.5164 4.11056 13.4338C4.007 13.0024 4.00004 12.4523 4.00004 11C4.00004 9.58338 4.00082 8.58106 4.06484 7.79747C4.12791 7.02556 4.24733 6.55439 4.43601 6.18408C4.8195 5.43144 5.43142 4.81951 6.18406 4.43602C6.55437 4.24733 7.02554 4.12791 7.79745 4.06484C8.58104 4.00081 9.58337 4.00002 11 4.00002L13 4ZM8.89457 10.553C8.6477 10.0589 8.04708 9.85857 7.55304 10.1054C7.059 10.3523 6.85863 10.9529 7.1055 11.447C7.91128 13.0595 9.91315 14 12 14C14.0869 14 16.0888 13.0595 16.8946 11.447C17.1414 10.9529 16.9411 10.3523 16.447 10.1054C15.953 9.85857 15.3524 10.0589 15.1055 10.553C14.7468 11.2708 13.6066 12 12 12C10.3935 12 9.25328 11.2708 8.89457 10.553Z" fill="currentColor"/>
</svg>
