<svg width="24" height="24" viewBox="0 0 24 24" fill="none" xmlns="http://www.w3.org/2000/svg">
<path fill-rule="evenodd" clip-rule="evenodd" d="M21.346 5.27606C21.7023 5.97531 21.8554 6.739 21.9286 7.63462C22 8.5092 22 9.59322 22 10.9563V10.9563V11.0001V11.0439V11.044C22 12.407 22 13.491 21.9286 14.3656C21.8554 15.2612 21.7023 16.0249 21.346 16.7242C20.7708 17.8531 19.8529 18.771 18.7239 19.3463C18.0247 19.7025 17.261 19.8556 16.3654 19.9288C15.4909 20.0002 14.4069 20.0002 13.0439 20.0002H13.0438H13C10.2187 20.0002 7.4832 20.709 5.05184 22.0597L4.69997 22.2551C3.68205 22.8206 2.6425 21.5472 3.40033 20.6631L3.68686 20.3288L5.50429 19.4407L6.28086 19.0612C6.77707 18.8187 6.98275 18.2199 6.74028 17.7237C6.4978 17.2275 5.89897 17.0218 5.40277 17.2642L4.62619 17.6437L3.95939 17.9696C2.76807 17.0557 2 15.6175 2 14V11V10.9563C1.99999 9.59324 1.99999 8.50922 2.07144 7.63464C2.14461 6.73904 2.29768 5.97538 2.65396 5.27613C3.22919 4.14717 4.14707 3.22928 5.27603 2.65404C5.97527 2.29775 6.73894 2.14469 7.63454 2.07151C8.50912 2.00005 9.59314 2.00005 10.9562 2.00005L10.9999 2.00005L12.9999 2.00003H13.0437H13.0437C14.4068 2.00001 15.4908 2 16.3654 2.07145C17.261 2.14462 18.0247 2.29768 18.7239 2.65396C19.8529 3.2292 20.7708 4.14708 21.346 5.27606L20.455 5.73005L21.346 5.27606ZM6 10C6 9.44775 6.44772 9.00003 7 9.00003H8C8.55228 9.00003 9 9.44775 9 10V11C9 11.5523 8.55228 12 8 12H7C6.44772 12 6 11.5523 6 11V10ZM10.5 10C10.5 9.44775 10.9477 9.00003 11.5 9.00003H12.5C13.0523 9.00003 13.5 9.44775 13.5 10V11C13.5 11.5523 13.0523 12 12.5 12H11.5C10.9477 12 10.5 11.5523 10.5 11V10ZM15 10C15 9.44775 15.4477 9.00003 16 9.00003H17C17.5523 9.00003 18 9.44775 18 10V11C18 11.5523 17.5523 12 17 12H16C15.4477 12 15 11.5523 15 11V10Z" fill="currentColor"/>
</svg>
