<svg width="24" height="24" viewBox="0 0 24 24" fill="none" xmlns="http://www.w3.org/2000/svg">
<path fill-rule="evenodd" clip-rule="evenodd" d="M15.8 5.6C15.8 4.16406 16.9641 3 18.4 3C19.836 3 21 4.16406 21 5.6C21 7.03594 19.836 8.2 18.4 8.2C16.9641 8.2 15.8 7.03594 15.8 5.6ZM18.4 1C15.8595 1 13.8 3.05949 13.8 5.6C13.8 6.50826 14.0633 7.35504 14.5176 8.06821L12.2929 10.2929C11.9024 10.6834 11.9024 11.3166 12.2929 11.7071C12.6835 12.0976 13.3166 12.0976 13.7071 11.7071L15.9318 9.48243C16.645 9.93677 17.4918 10.2 18.4 10.2C20.9405 10.2 23 8.14051 23 5.6C23 3.05949 20.9405 1 18.4 1ZM10.5 2.00003L10.4993 2.00003C9.27397 2.00099 8.28382 2.00856 7.47035 2.08585C6.64536 2.16424 5.93274 2.3193 5.27607 2.6539C4.14711 3.22914 3.22923 4.14702 2.65399 5.27599C2.29771 5.97523 2.14465 6.7389 2.07148 7.63449C2.00002 8.50907 2.00003 9.59309 2.00004 10.9561L2.00004 10.9999L2.00002 11.1495C1.99977 12.4003 1.99961 13.2082 2.16582 13.9006C2.55582 15.525 3.59615 16.8855 4.99998 17.6962C5.47825 17.9724 6.08985 17.8085 6.36603 17.3302C6.6422 16.852 6.47837 16.2404 6.0001 15.9642C5.06371 15.4235 4.37047 14.5163 4.11056 13.4337C4.007 13.0023 4.00004 12.4522 4.00004 10.9999C4.00004 9.58326 4.00082 8.58094 4.06484 7.79736C4.12791 7.02545 4.24733 6.55428 4.43601 6.18397C4.8195 5.43132 5.43142 4.8194 6.18406 4.4359C6.53131 4.25897 6.96823 4.14257 7.65952 4.07689C8.36226 4.01012 9.25503 4.00101 10.5004 4.00003H11C11.5523 4.00003 12 3.55232 12 3.00003C12 2.44775 11.5523 2.00003 11 2.00003L10.5 2.00003ZM21.9998 12.5221C22.012 11.9699 21.5743 11.5124 21.0221 11.5002C20.47 11.488 20.0125 11.9258 20.0003 12.4779L19.9892 12.9779L19.9892 12.9809C19.9596 14.5241 19.8452 15.2642 19.5641 15.816C19.1806 16.5687 18.5686 17.1806 17.816 17.5641C17.4457 17.7528 16.9745 17.8722 16.2026 17.9353C15.419 17.9993 14.4167 18.0001 13 18.0001H12.2312L12.1437 18.0001H12.1436C10.8366 18 10.0705 18 9.31668 18.1156C8.64782 18.2181 7.99111 18.3883 7.35662 18.6234C6.64149 18.8885 5.9718 19.2605 4.82922 19.8953L4.75274 19.9378L3.51442 20.6257C3.03163 20.8939 2.85767 21.5027 3.12587 21.9855C3.39406 22.4683 4.00286 22.6423 4.48565 22.3741L5.72397 21.6862C6.96476 20.9969 7.49642 20.7046 8.0517 20.4988C8.55929 20.3106 9.08466 20.1745 9.61975 20.0925C10.2051 20.0027 10.8118 20.0001 12.2312 20.0001H13H13.0438H13.0439C14.4069 20.0001 15.4909 20.0001 16.3655 19.9286C17.2611 19.8555 18.0247 19.7024 18.724 19.3461C19.853 18.7709 20.7708 17.853 21.3461 16.724C21.8575 15.7203 21.9594 14.5552 21.9888 13.0206L21.9888 13.0192L21.9998 12.5221Z" fill="currentColor"/>
</svg>
