<svg width="24" height="24" viewBox="0 0 24 24" fill="none" xmlns="http://www.w3.org/2000/svg">
<path fill-rule="evenodd" clip-rule="evenodd" d="M12 9.3C12.5523 9.3 13 8.85228 13 8.3V2C13 1.44772 12.5523 1 12 1C11.4478 1 11 1.44772 11 2V8.3C11 8.85228 11.4478 9.3 12 9.3ZM8.99899 2.98703C9.03262 3.53829 8.613 4.01244 8.06174 4.04607C7.13091 4.10286 6.59665 4.22576 6.18406 4.43599C5.43142 4.81948 4.8195 5.4314 4.43601 6.18405C4.24733 6.55436 4.12791 7.02553 4.06484 7.79744C4.00082 8.58102 4.00004 9.58335 4.00004 11C4.00004 12.4523 4.007 13.0024 4.11056 13.4338C4.37047 14.5164 5.06371 15.4236 6.0001 15.9643C6.47837 16.2405 6.6422 16.8521 6.36603 17.3303C6.08985 17.8086 5.47825 17.9724 4.99998 17.6963C3.59615 16.8856 2.55582 15.5251 2.16582 13.9006C1.99961 13.2083 1.99977 12.4004 2.00002 11.1496L2.00004 11L2.00004 10.9562C2.00003 9.59317 2.00002 8.50916 2.07148 7.63457C2.14465 6.73898 2.29771 5.97532 2.65399 5.27607C3.22923 4.1471 4.14711 3.22922 5.27607 2.65398C6.05135 2.25895 6.90884 2.11269 7.93995 2.04978C8.49121 2.01615 8.96536 2.43577 8.99899 2.98703ZM15.0019 2.98698C15.0356 2.43573 15.5097 2.01613 16.061 2.04978C17.0917 2.11271 17.9489 2.25899 18.724 2.6539C19.8529 3.22913 20.7708 4.14702 21.3461 5.27599L20.4551 5.72999L21.3461 5.276C21.7024 5.97525 21.8554 6.73893 21.9286 7.63455C22.0001 8.50914 22 9.59316 22 10.9562V10.9563V11.0001V11.0439V11.0439C22 12.407 22.0001 13.491 21.9286 14.3656C21.8554 15.2612 21.7024 16.0249 21.3461 16.7241C20.7708 17.8531 19.853 18.771 18.724 19.3462C18.0247 19.7025 17.2611 19.8555 16.3655 19.9287C15.4909 20.0002 14.4069 20.0002 13.0439 20.0002H13.0438H13H12.2312C10.8118 20.0002 10.2051 20.0028 9.61974 20.0925C9.08466 20.1746 8.55929 20.3107 8.0517 20.4988C7.49642 20.7046 6.96476 20.997 5.72398 21.6862L4.48565 22.3741C4.00286 22.6423 3.39406 22.4684 3.12586 21.9856C2.85767 21.5028 3.03163 20.894 3.51443 20.6258L4.75276 19.9379L4.82928 19.8954C5.97183 19.2606 6.64151 18.8886 7.35662 18.6235C7.99111 18.3883 8.64782 18.2182 9.31667 18.1156C10.0705 18.0001 10.8366 18.0001 12.1437 18.0002L12.2312 18.0002H13C14.4167 18.0002 15.419 17.9994 16.2026 17.9354C16.9745 17.8723 17.4457 17.7529 17.816 17.5642C18.5686 17.1807 19.1806 16.5688 19.5641 15.8161C19.7527 15.4458 19.8722 14.9746 19.9352 14.2027C19.9993 13.4191 20 12.4167 20 11.0001C20 9.58339 19.9993 8.58103 19.9352 7.79741C19.8722 7.02547 19.7527 6.55429 19.5641 6.18398C19.1806 5.43133 18.5686 4.81941 17.816 4.43591C17.4035 4.22575 16.8694 4.10287 15.9391 4.04607C15.3878 4.01241 14.9682 3.53824 15.0019 2.98698ZM11.5 13.3C10.9478 13.3 10.5 12.8523 10.5 12.3V11.3C10.5 10.7477 10.9478 10.3 11.5 10.3H12.5C13.0523 10.3 13.5 10.7477 13.5 11.3V12.3C13.5 12.8523 13.0523 13.3 12.5 13.3H11.5Z" fill="currentColor"/>
</svg>
