<svg width="24" height="24" viewBox="0 0 24 24" fill="none" xmlns="http://www.w3.org/2000/svg">
<path fill-rule="evenodd" clip-rule="evenodd" d="M17.2 2H17.1615H17.1614C16.6343 1.99998 16.1795 1.99997 15.805 2.03057C15.4096 2.06287 15.0164 2.13419 14.638 2.32698C14.0735 2.6146 13.6146 3.07354 13.327 3.63803C13.1342 4.01641 13.0629 4.40963 13.0306 4.80497C13 5.17954 13 5.6343 13 6.16145V6.16148V6.2V16.8V16.8385V16.8386C13 17.3657 13 17.8205 13.0306 18.195C13.0629 18.5904 13.1342 18.9836 13.327 19.362C13.6146 19.9265 14.0735 20.3854 14.638 20.673C15.0164 20.8658 15.4096 20.9371 15.805 20.9694C16.1795 21 16.6343 21 17.1614 21H17.2H18.8H18.8386C19.3657 21 19.8205 21 20.195 20.9694C20.5904 20.9371 20.9836 20.8658 21.362 20.673C21.9265 20.3854 22.3854 19.9265 22.673 19.362C22.8658 18.9836 22.9371 18.5904 22.9694 18.195C23 17.8205 23 17.3657 23 16.8386V16.8V6.2V6.16144C23 5.6343 23 5.17954 22.9694 4.80497C22.9371 4.40963 22.8658 4.01641 22.673 3.63803C22.3854 3.07354 21.9265 2.6146 21.362 2.32698C20.9836 2.13419 20.5904 2.06287 20.195 2.03057C19.8205 1.99997 19.3657 1.99998 18.8386 2H18.8385H18.8H17.2ZM15.546 4.109C15.5955 4.0838 15.6962 4.04613 15.9678 4.02393C16.2512 4.00078 16.6234 4 17.2 4H18.8C19.3766 4 19.7488 4.00078 20.0322 4.02393C20.3038 4.04613 20.4045 4.0838 20.454 4.109C20.6422 4.20487 20.7951 4.35785 20.891 4.54601C20.9162 4.59546 20.9539 4.69618 20.9761 4.96784C20.9992 5.25118 21 5.62345 21 6.2V16.8C21 17.3766 20.9992 17.7488 20.9761 18.0322C20.9539 18.3038 20.9162 18.4045 20.891 18.454C20.7951 18.6422 20.6422 18.7951 20.454 18.891C20.4045 18.9162 20.3038 18.9539 20.0322 18.9761C19.7488 18.9992 19.3766 19 18.8 19H17.2C16.6234 19 16.2512 18.9992 15.9678 18.9761C15.6962 18.9539 15.5955 18.9162 15.546 18.891C15.3579 18.7951 15.2049 18.6422 15.109 18.454C15.0838 18.4045 15.0461 18.3038 15.0239 18.0322C15.0008 17.7488 15 17.3766 15 16.8V6.2C15 5.62345 15.0008 5.25118 15.0239 4.96784C15.0461 4.69618 15.0838 4.59546 15.109 4.54601C15.2049 4.35785 15.3579 4.20487 15.546 4.109ZM5.2 3H5.16146C4.63431 2.99998 4.17955 2.99997 3.80497 3.03057C3.40963 3.06287 3.01641 3.13419 2.63803 3.32698C2.07354 3.6146 1.6146 4.07354 1.32698 4.63803C1.13419 5.01641 1.06287 5.40963 1.03057 5.80497C0.999969 6.17954 0.999984 6.63429 1 7.16142V7.16146V7.2V14.8V14.8385V14.8386C0.999984 15.3657 0.999969 15.8205 1.03057 16.195C1.06287 16.5904 1.13419 16.9836 1.32698 17.362C1.6146 17.9265 2.07354 18.3854 2.63803 18.673C3.01641 18.8658 3.40963 18.9371 3.80497 18.9694C4.17954 19 4.6343 19 5.16144 19H5.2H7.5V20C7.5 20.5523 7.94772 21 8.5 21H10.5C11.0523 21 11.5 20.5523 11.5 20V18C11.5 17.4477 11.0523 17 10.5 17H8.5H5.2C4.62345 17 4.25118 16.9992 3.96784 16.9761C3.69618 16.9539 3.59546 16.9162 3.54601 16.891C3.35785 16.7951 3.20487 16.6422 3.109 16.454C3.0838 16.4045 3.04613 16.3038 3.02393 16.0322C3.00078 15.7488 3 15.3766 3 14.8V7.2C3 6.62345 3.00078 6.25118 3.02393 5.96784C3.04613 5.69617 3.0838 5.59546 3.109 5.54601C3.20487 5.35785 3.35785 5.20487 3.54601 5.109C3.59546 5.0838 3.69618 5.04613 3.96784 5.02393C4.25118 5.00078 4.62345 5 5.2 5H10.5C11.0523 5 11.5 4.55229 11.5 4C11.5 3.44772 11.0523 3 10.5 3H5.2ZM17.5 17.5C16.9477 17.5 16.5 17.0523 16.5 16.5V15.5C16.5 14.9477 16.9477 14.5 17.5 14.5H18.5C19.0523 14.5 19.5 14.9477 19.5 15.5V16.5C19.5 17.0523 19.0523 17.5 18.5 17.5H17.5Z" fill="currentColor"/>
</svg>
