<svg width="24" height="24" viewBox="0 0 24 24" fill="none" xmlns="http://www.w3.org/2000/svg">
<path fill-rule="evenodd" clip-rule="evenodd" d="M20.7072 2.29289C21.0978 2.68342 21.0978 3.31658 20.7072 3.70711L18.3707 6.04366L15.3196 9.09477L11.6018 12.8125L4.70724 19.7071C4.31672 20.0976 3.68355 20.0976 3.29303 19.7071C2.90251 19.3166 2.90251 18.6834 3.29303 18.2929L7.19734 14.3886C6.90935 14.0022 6.93573 13.4531 7.28199 13.0959C7.30583 13.0713 7.33001 13.0462 7.35458 13.0208C7.78793 12.5717 8.34411 11.9955 9.36566 11.5334C9.69468 11.3846 10.0468 11.2716 10.3971 11.1888L12.565 9.02094C12.3713 9.00698 12.1817 9.00008 12 9.00008C11.0514 9.00008 9.92162 9.19664 9.07879 9.57787C7.92785 10.0985 6.94754 11.0226 6.29466 11.6961C5.91025 12.0927 5.27716 12.1025 4.88062 11.7181C4.48407 11.3337 4.47422 10.7006 4.85863 10.304C5.53908 9.6021 6.73881 8.44121 8.25455 7.75561C9.41171 7.23221 10.8349 7.00008 12 7.00008C12.7151 7.00008 13.5319 7.08407 14.3161 7.26985L15.9417 5.64421C14.7349 5.21041 13.2586 5.00008 12 5.00008C10.523 5.00008 8.75496 5.30382 7.41212 5.91121C5.68724 6.6914 4.80276 7.60606 3.85753 8.58354C3.81121 8.63144 3.76474 8.6795 3.71802 8.7277C3.33361 9.12424 2.70052 9.13409 2.30397 8.74968C1.90742 8.36528 1.89758 7.73219 2.28198 7.33564C2.33358 7.28241 2.38549 7.22867 2.43784 7.17447C3.3999 6.17838 4.51034 5.02866 6.58788 4.08895C8.24504 3.33938 10.3065 3.00008 12 3.00008C13.682 3.00008 15.7896 3.32243 17.4271 4.09586C17.4414 4.10261 17.4556 4.10936 17.4698 4.11612L19.293 2.29289C19.6836 1.90237 20.3167 1.90237 20.7072 2.29289ZM19.7304 6.74833C20.1212 6.35806 20.7543 6.35848 21.1446 6.74926C21.3212 6.92605 21.4924 7.10279 21.657 7.27271C21.6775 7.29379 21.6978 7.31478 21.718 7.33564C22.1024 7.73219 22.0926 8.36528 21.696 8.74969C21.2995 9.13409 20.6664 9.12424 20.282 8.72769C20.2614 8.70651 20.241 8.68541 20.2206 8.66441C20.0548 8.49328 19.8946 8.32786 19.7295 8.16254C19.3392 7.77176 19.3396 7.1386 19.7304 6.74833ZM16.8987 9.58224C17.2668 9.17058 17.899 9.13533 18.3107 9.5035C18.6333 9.79205 18.9126 10.068 19.1414 10.3041C19.5258 10.7006 19.5159 11.3337 19.1194 11.7181C18.7228 12.1025 18.0897 12.0927 17.7053 11.6961C17.5001 11.4844 17.2557 11.2432 16.9774 10.9943C16.5657 10.6261 16.5305 9.99391 16.8987 9.58224ZM14.1818 12.318C14.4993 11.8661 15.123 11.7572 15.5749 12.0747C16.0578 12.414 16.4015 12.769 16.6799 13.0565C16.6927 13.0698 16.7054 13.0829 16.718 13.0959C17.1024 13.4924 17.0926 14.1255 16.696 14.5099C16.2995 14.8943 15.6664 14.8845 15.282 14.4879L15.2743 14.48C14.9801 14.1764 14.751 13.9401 14.4251 13.7112C13.9732 13.3936 13.8643 12.7699 14.1818 12.318ZM12 17.0001C11.803 17.0001 11.608 17.0389 11.426 17.1143C11.244 17.1896 11.0786 17.3001 10.9393 17.4394C10.8001 17.5787 10.6896 17.7441 10.6142 17.9261C10.5388 18.108 10.5 18.3031 10.5 18.5001C10.5 18.6971 10.5388 18.8921 10.6142 19.0741C10.6896 19.2561 10.8001 19.4214 10.9393 19.5607C11.0786 19.7 11.244 19.8105 11.426 19.8859C11.608 19.9613 11.803 20.0001 12 20.0001C12.197 20.0001 12.392 19.9613 12.574 19.8859C12.756 19.8105 12.9214 19.7 13.0607 19.5607C13.1999 19.4214 13.3104 19.2561 13.3858 19.0741C13.4612 18.8921 13.5 18.6971 13.5 18.5001C13.5 18.3031 13.4612 18.108 13.3858 17.9261C13.3104 17.7441 13.2 17.5787 13.0607 17.4394C12.9214 17.3001 12.756 17.1896 12.574 17.1143C12.392 17.0389 12.197 17.0001 12 17.0001ZM10.6606 15.2665C11.0852 15.0906 11.5404 15.0001 12 15.0001C12.4596 15.0001 12.9148 15.0906 13.3394 15.2665C13.764 15.4424 14.1499 15.7002 14.4749 16.0252C14.7999 16.3502 15.0577 16.736 15.2336 17.1607C15.4095 17.5853 15.5 18.0405 15.5 18.5001C15.5 18.9597 15.4095 19.4148 15.2336 19.8395C15.0577 20.2641 14.7999 20.6499 14.4749 20.975C14.1499 21.3 13.764 21.5578 13.3394 21.7337C12.9148 21.9095 12.4596 22.0001 12 22.0001C11.5404 22.0001 11.0852 21.9095 10.6606 21.7337C10.236 21.5578 9.85013 21.3 9.52513 20.9749C9.20012 20.6499 8.94231 20.2641 8.76642 19.8395C8.59053 19.4148 8.5 18.9597 8.5 18.5001C8.5 18.0404 8.59053 17.5853 8.76642 17.1607C8.94231 16.736 9.20012 16.3502 9.52513 16.0252C9.85013 15.7002 10.236 15.4424 10.6606 15.2665Z" fill="currentColor"/>
</svg>
