<svg width="24" height="24" viewBox="0 0 24 24" fill="none" xmlns="http://www.w3.org/2000/svg">
<path fill-rule="evenodd" clip-rule="evenodd" d="M3.00012 10C3.55241 10 4.00012 9.5523 4.00012 9.00001V3C4.00012 2.44772 3.55241 2 3.00012 2C2.44784 2 2.00012 2.44772 2.00012 3V9.00001C2.00012 9.5523 2.44784 10 3.00012 10ZM12 5.00001C10.523 5.00001 8.75496 5.30375 7.41212 5.91114C6.90892 6.13875 6.31648 5.91534 6.08887 5.41213C5.86126 4.90893 6.08468 4.31649 6.58788 4.08888C8.24505 3.33932 10.3065 3.00001 12 3.00001C13.682 3.00001 15.7896 3.32237 17.4271 4.0958C19.5514 5.09917 20.6551 6.23838 21.6493 7.26468L21.718 7.33558C22.1024 7.73213 22.0926 8.36522 21.696 8.74962C21.2995 9.13403 20.6664 9.12418 20.282 8.72763L20.2296 8.67358C19.2625 7.67563 18.3672 6.75169 16.5729 5.90423C15.2813 5.29418 13.4884 5.00001 12 5.00001ZM12 9.00001C11.0514 9.00001 9.92163 9.19658 9.07879 9.57781C8.55856 9.81312 8.06578 10.135 7.61656 10.4868C7.18174 10.8273 6.55321 10.7509 6.21269 10.3161C5.87218 9.88126 5.94862 9.25273 6.38344 8.91221C6.91925 8.49261 7.54924 8.07458 8.25455 7.75555C9.41171 7.23214 10.8349 7.00001 12 7.00001C13.1536 7.00001 14.6111 7.21961 15.7604 7.76246C17.2591 8.47032 18.45 9.59075 19.1414 10.304C19.5258 10.7005 19.5159 11.3336 19.1194 11.718C18.7228 12.1024 18.0897 12.0926 17.7053 11.696C17.0634 11.0338 16.0742 10.1226 14.9063 9.57089C14.1028 9.19142 12.96 9.00001 12 9.00001ZM12 13C11.4037 13 10.6994 13.1251 10.1899 13.3556C9.52097 13.6582 9.19087 13.9993 8.77354 14.4305L8.71802 14.4879C8.33361 14.8844 7.70052 14.8943 7.30398 14.5098C6.90743 14.1254 6.89758 13.4924 7.28199 13.0958L7.35458 13.0207L7.35458 13.0207L7.35459 13.0207C7.78794 12.5717 8.34411 11.9954 9.36566 11.5333C10.1895 11.1607 11.1872 11 12 11C12.8014 11 13.8254 11.1511 14.6493 11.5402C15.6852 12.0295 16.2335 12.5955 16.6838 13.0605L16.718 13.0958C17.1024 13.4924 17.0926 14.1254 16.696 14.5098C16.2995 14.8943 15.6664 14.8844 15.282 14.4879L15.2646 14.4699C14.8409 14.0327 14.501 13.6821 13.7951 13.3487C13.3172 13.1229 12.6077 13 12 13ZM12 17C11.803 17 11.608 17.0388 11.426 17.1142C11.244 17.1896 11.0786 17.3001 10.9393 17.4394C10.8001 17.5786 10.6896 17.744 10.6142 17.926C10.5388 18.108 10.5 18.303 10.5 18.5C10.5 18.697 10.5388 18.892 10.6142 19.074C10.6896 19.256 10.8001 19.4214 10.9393 19.5607C11.0786 19.7 11.244 19.8104 11.426 19.8858C11.608 19.9612 11.803 20 12 20C12.197 20 12.392 19.9612 12.574 19.8858C12.756 19.8105 12.9214 19.7 13.0607 19.5607C13.2 19.4214 13.3104 19.256 13.3858 19.074C13.4612 18.892 13.5 18.697 13.5 18.5C13.5 18.303 13.4612 18.108 13.3858 17.926C13.3104 17.744 13.2 17.5786 13.0607 17.4394C12.9214 17.3001 12.756 17.1896 12.574 17.1142C12.392 17.0388 12.197 17 12 17ZM10.6606 15.2664C11.0853 15.0905 11.5404 15 12 15C12.4596 15 12.9148 15.0905 13.3394 15.2664C13.764 15.4423 14.1499 15.7001 14.4749 16.0251C14.7999 16.3501 15.0577 16.736 15.2336 17.1606C15.4095 17.5853 15.5 18.0404 15.5 18.5C15.5 18.9596 15.4095 19.4148 15.2336 19.8394C15.0577 20.264 14.7999 20.6499 14.4749 20.9749C14.1499 21.2999 13.764 21.5577 13.3394 21.7336C12.9148 21.9095 12.4596 22 12 22C11.5404 22 11.0852 21.9095 10.6606 21.7336C10.236 21.5577 9.85013 21.2999 9.52513 20.9749C9.20012 20.6499 8.94232 20.264 8.76642 19.8394C8.59053 19.4148 8.5 18.9596 8.5 18.5C8.5 18.0404 8.59053 17.5853 8.76642 17.1606C8.94232 16.736 9.20012 16.3501 9.52513 16.0251C9.85013 15.7001 10.236 15.4423 10.6606 15.2664ZM2.50012 14.5C1.94784 14.5 1.50012 14.0523 1.50012 13.5V12.5C1.50012 11.9477 1.94784 11.5 2.50012 11.5H3.50012C4.05241 11.5 4.50012 11.9477 4.50012 12.5V13.5C4.50012 14.0523 4.05241 14.5 3.50012 14.5H2.50012Z" fill="currentColor"/>
</svg>
