<svg width="24" height="24" viewBox="0 0 24 24" fill="none" xmlns="http://www.w3.org/2000/svg">
<path fill-rule="evenodd" clip-rule="evenodd" d="M12 5C10.523 5 8.75496 5.30374 7.41212 5.91113C5.68724 6.69133 4.80276 7.60598 3.85753 8.58346C3.81121 8.63137 3.76474 8.67942 3.71802 8.72762C3.33361 9.12417 2.70052 9.13401 2.30397 8.74961C1.90742 8.3652 1.89758 7.73211 2.28198 7.33557C2.33359 7.28234 2.38549 7.22859 2.43784 7.17439C3.3999 6.1783 4.51034 5.02858 6.58788 4.08887C8.24504 3.3393 10.3065 3 12 3C13.682 3 15.7896 3.32235 17.4271 4.09579C19.5514 5.09916 20.6551 6.23838 21.6493 7.26468C21.6723 7.28837 21.6952 7.312 21.718 7.33557C22.1024 7.73212 22.0926 8.3652 21.696 8.74961C21.2995 9.13401 20.6664 9.12417 20.282 8.72762C20.2645 8.70957 20.247 8.69155 20.2296 8.67356C19.2625 7.67561 18.3672 6.75167 16.5729 5.90421C15.2813 5.29416 13.4884 5 12 5ZM12 9C11.0514 9 9.92162 9.19657 9.07879 9.5778C7.92785 10.0984 6.94754 11.0225 6.29466 11.696C5.91025 12.0926 5.27716 12.1024 4.88062 11.718C4.48407 11.3336 4.47422 10.7005 4.85863 10.304C5.53908 9.60202 6.73881 8.44113 8.25455 7.75554C9.41171 7.23213 10.8349 7 12 7C13.1536 7 14.6111 7.2196 15.7604 7.76245C17.2591 8.47031 18.45 9.59073 19.1414 10.304C19.5258 10.7005 19.5159 11.3336 19.1194 11.718C18.7228 12.1024 18.0897 12.0926 17.7053 11.696C17.0634 11.0338 16.0742 10.1225 14.9063 9.57088C14.1028 9.19141 12.96 9 12 9ZM12 13C11.4037 13 10.6994 13.1251 10.1899 13.3556C9.52097 13.6581 9.19087 13.9993 8.77354 14.4305C8.75521 14.4494 8.73672 14.4686 8.71802 14.4878C8.33361 14.8844 7.70052 14.8942 7.30397 14.5098C6.90742 14.1254 6.89758 13.4923 7.28199 13.0958C7.30583 13.0712 7.33001 13.0461 7.35458 13.0207C7.78793 12.5717 8.34411 11.9954 9.36566 11.5333C10.1895 11.1607 11.1872 11 12 11C12.8014 11 13.8254 11.1511 14.6493 11.5402C15.6852 12.0295 16.2335 12.5955 16.6838 13.0605C16.6953 13.0723 16.7067 13.0841 16.718 13.0958C17.1024 13.4923 17.0926 14.1254 16.696 14.5098C16.2995 14.8942 15.6664 14.8844 15.282 14.4878L15.2646 14.4699C14.8409 14.0327 14.501 13.682 13.7951 13.3487C13.3172 13.1229 12.6077 13 12 13ZM12 17C11.803 17 11.608 17.0388 11.426 17.1142C11.244 17.1896 11.0786 17.3001 10.9393 17.4393C10.8001 17.5786 10.6896 17.744 10.6142 17.926C10.5388 18.108 10.5 18.303 10.5 18.5C10.5 18.697 10.5388 18.892 10.6142 19.074C10.6896 19.256 10.8001 19.4214 10.9393 19.5607C11.0786 19.6999 11.244 19.8104 11.426 19.8858C11.608 19.9612 11.803 20 12 20C12.197 20 12.392 19.9612 12.574 19.8858C12.756 19.8104 12.9214 19.6999 13.0607 19.5607C13.1999 19.4214 13.3104 19.256 13.3858 19.074C13.4612 18.892 13.5 18.697 13.5 18.5C13.5 18.303 13.4612 18.108 13.3858 17.926C13.3104 17.744 13.2 17.5786 13.0607 17.4393C12.9214 17.3001 12.756 17.1896 12.574 17.1142C12.392 17.0388 12.197 17 12 17ZM10.6606 15.2664C11.0852 15.0905 11.5404 15 12 15C12.4596 15 12.9148 15.0905 13.3394 15.2664C13.764 15.4423 14.1499 15.7001 14.4749 16.0251C14.7999 16.3501 15.0577 16.736 15.2336 17.1606C15.4095 17.5852 15.5 18.0404 15.5 18.5C15.5 18.9596 15.4095 19.4148 15.2336 19.8394C15.0577 20.264 14.7999 20.6499 14.4749 20.9749C14.1499 21.2999 13.764 21.5577 13.3394 21.7336C12.9148 21.9095 12.4596 22 12 22C11.5404 22 11.0852 21.9095 10.6606 21.7336C10.236 21.5577 9.85013 21.2999 9.52513 20.9749C9.20012 20.6499 8.94231 20.264 8.76642 19.8394C8.59053 19.4148 8.5 18.9596 8.5 18.5C8.5 18.0404 8.59053 17.5852 8.76642 17.1606C8.94231 16.736 9.20012 16.3501 9.52513 16.0251C9.85013 15.7001 10.236 15.4423 10.6606 15.2664Z" fill="currentColor"/>
</svg>
