<svg width="24" height="24" viewBox="0 0 24 24" fill="none" xmlns="http://www.w3.org/2000/svg">
<path fill-rule="evenodd" clip-rule="evenodd" d="M8 4C8 3.44772 8.44772 3 9 3H14.5H16.5H21.1C22.1493 3 23 3.85066 23 4.9C23 9.20238 20.0143 12.8074 16.0018 13.7561C16.0054 14.0881 16.015 14.1877 16.0341 14.2588C16.1265 14.6039 16.3961 14.8735 16.7412 14.9659C16.8363 14.9914 16.9823 15 17.6667 15L17.7342 14.9999C17.969 14.9991 18.2568 14.9983 18.5176 15.0681C19.2078 15.2531 19.7469 15.7922 19.9319 16.4824C20.0017 16.7431 20.0009 17.0309 20.0001 17.2658V17.2658L20 17.3333V20C20 20.5523 19.5523 21 19 21H15.7454L15.6996 21H15.6996H15.6995C15.4726 21.0001 15.2724 21.0002 15.0709 20.973C14.8771 20.9469 14.6864 20.9019 14.5014 20.8386C14.309 20.7728 14.13 20.6832 13.9271 20.5816L13.8861 20.5611L13.4472 20.3416C13.3953 20.3157 13.3776 20.3069 13.3605 20.2986C12.9661 20.1081 12.5348 20.0063 12.0968 20.0003C12.0778 20 12.058 20 12 20C11.942 20 11.9222 20 11.9032 20.0003C11.4652 20.0063 11.0339 20.1081 10.6395 20.2986C10.6224 20.3069 10.6047 20.3157 10.5528 20.3416L10.1139 20.5611L10.0729 20.5816C9.87003 20.6832 9.69095 20.7728 9.49855 20.8386C9.31358 20.9019 9.12286 20.9469 8.92912 20.973C8.72762 21.0002 8.52736 21.0001 8.30045 21H8.30044H8.30042L8.25464 21H5C4.44771 21 4 20.5523 4 20L4 17.3333L3.99986 17.2658V17.2658C3.99915 17.031 3.99827 16.7431 4.06815 16.4824C4.25308 15.7922 4.79218 15.2531 5.48236 15.0681C5.74315 14.9983 6.03096 14.9991 6.26579 14.9999L6.33333 15C7.0177 15 7.16371 14.9914 7.25882 14.9659C7.60391 14.8735 7.87346 14.6039 7.96593 14.2588C7.99141 14.1637 8 14.0177 8 13.3333V11.8949C7.99965 11.8486 7.99977 11.8037 7.99989 11.7608L8 11.7V10.5V6H3C3 7.65685 4.34315 9 6 9C6.55228 9 7 9.44772 7 10C7 10.5523 6.55228 11 6 11C3.23858 11 1 8.76142 1 6V5.0049C1 4.44993 1.44988 4 2.0049 4H8ZM10 5V10.5V11.7C10 11.8476 10.0002 11.9283 10.0026 11.9871L10.0031 11.9969L10.0129 11.9974C10.0717 11.9998 10.1524 12 10.3 12H13.9C17.7878 12 20.9458 8.87512 20.9993 5H16.5H14.5H10ZM13.9 14C13.9351 14 13.9702 13.9998 14.0052 13.9994C14.0143 14.2811 14.0385 14.5387 14.1022 14.7765C14.3796 15.8117 15.1883 16.6204 16.2235 16.8978C16.6091 17.0011 17.0471 17.0006 17.5548 17.0001L17.6667 17C17.8307 17 17.9204 17.0002 17.9857 17.0032L17.9963 17.0037L17.9968 17.0143C17.9998 17.0796 18 17.1693 18 17.3333V19H15.7454C15.4479 19 15.3897 18.9979 15.3384 18.991C15.2738 18.9823 15.2102 18.9673 15.1486 18.9462C15.0995 18.9294 15.0466 18.9053 14.7805 18.7722L14.3416 18.5528L14.336 18.55C14.2919 18.5279 14.2613 18.5126 14.2304 18.4977C13.573 18.1802 12.8541 18.0105 12.1241 18.0005C12.0898 18 12.0557 18 12.0064 18H12H11.9936C11.9443 18 11.9102 18 11.8759 18.0005C11.1459 18.0105 10.427 18.1802 9.7696 18.4977C9.73868 18.5126 9.70812 18.5279 9.66396 18.55L9.65836 18.5528L9.21945 18.7722C8.9534 18.9053 8.90045 18.9294 8.85143 18.9462C8.78977 18.9673 8.7262 18.9823 8.66162 18.991C8.61027 18.9979 8.55209 19 8.25464 19H6V17.3333C6 17.1693 6.00024 17.0796 6.00322 17.0143L6.00374 17.0037L6.01426 17.0032C6.07959 17.0002 6.16927 17 6.33333 17L6.44517 17.0001C6.9529 17.0006 7.39093 17.0011 7.77646 16.8978C8.81173 16.6204 9.62038 15.8117 9.89778 14.7765C9.96157 14.5384 9.98579 14.2803 9.99486 13.9981C10.0803 14.0005 10.1628 14.0003 10.2392 14.0001L10.3 14H13.9Z" fill="currentColor"/>
</svg>
