<svg width="24" height="24" viewBox="0 0 24 24" fill="none" xmlns="http://www.w3.org/2000/svg">
<path fill-rule="evenodd" clip-rule="evenodd" d="M8.79292 3.20709C8.35502 2.76919 7.64504 2.76919 7.20714 3.20709L5.87129 4.54293C5.57011 4.84412 5.45226 4.96271 5.34529 5.08537C5.0507 5.42315 4.80286 5.799 4.60844 6.20283C4.53783 6.34948 4.47525 6.50451 4.31706 6.89999L3.17344 9.75904C3.3233 9.90833 3.41565 9.99803 3.4899 10.0611L3.50003 10.0696L3.51016 10.0611C3.59934 9.98536 3.71462 9.87118 3.92429 9.6615L5.29292 8.29288C5.67021 7.91559 6.27724 7.90096 6.67226 8.25964L10.0339 11.312L10.8625 10.5706L7.76154 7.17425C7.40106 6.77943 7.41489 6.17091 7.79292 5.79288L8.79292 4.79287C9.23083 4.35497 9.23083 3.64499 8.79292 3.20709ZM12.1209 8.98269L9.88282 6.5314L10.2071 6.20709C11.4261 4.98814 11.4261 3.01183 10.2071 1.79288C8.98819 0.573925 7.01187 0.573924 5.79292 1.79288L4.45708 3.12872L4.43187 3.15393C4.16377 3.42201 3.99518 3.59058 3.838 3.7708C3.42557 4.24369 3.0786 4.76989 2.80641 5.33525C2.70267 5.55072 2.61413 5.7721 2.47332 6.12417L2.46011 6.15721L1.07155 9.62859C0.922986 10 1.01006 10.4242 1.29292 10.7071L1.66155 11.0757L1.68408 11.0983L1.68409 11.0983C1.86253 11.2767 2.03632 11.4506 2.19554 11.5857C2.37039 11.7342 2.59228 11.8937 2.88199 11.9879C3.28368 12.1184 3.71638 12.1184 4.11806 11.9879C4.40778 11.8937 4.62967 11.7342 4.80452 11.5857C4.96372 11.4506 5.13749 11.2768 5.31592 11.0983L5.33851 11.0757L6.0333 10.3809L8.53537 12.6528L3.524 17.1367L3.51989 17.1404C3.50004 17.1581 3.48262 17.1737 3.46553 17.1895C2.86186 17.7465 2.51301 18.5268 2.50038 19.3481C2.50003 19.3714 2.50003 19.3947 2.50003 19.4214L2.50003 19.4269L2.50003 19.4391C2.50002 19.4948 2.50002 19.5426 2.50127 19.5861C2.5469 21.1754 3.8246 22.4531 5.41393 22.4987C5.45746 22.5 5.51088 22.5 5.57505 22.5H5.57525H5.59028H5.59862C5.63655 22.5 5.66924 22.5 5.6993 22.4994C6.48163 22.4838 7.22694 22.1633 7.77625 21.606C7.79737 21.5846 7.81812 21.5627 7.84176 21.5377L7.84653 21.5327L15.184 13.7875C15.5369 13.4151 15.6419 13.3084 15.7519 13.2237C15.9354 13.0825 16.1421 12.9743 16.3626 12.9038C16.4949 12.8615 16.6425 12.836 17.1495 12.758L18.2918 12.5822L18.3459 12.5739L18.346 12.5739C18.7354 12.514 19.0017 12.4731 19.2399 12.4121C21.2772 11.8906 22.7704 10.1501 22.9761 8.05725C23.0001 7.81248 23.0001 7.54303 23 7.149L23 7.09425V7.09407C23.0001 7.0912 23.0003 7.0552 22.9983 7.01775C22.9834 6.74477 22.8759 6.48504 22.6933 6.28154C22.6682 6.25352 22.6425 6.22816 22.6406 6.22629L22.6405 6.22619L21.7071 5.29286C21.3166 4.90234 20.6834 4.90234 20.2929 5.29286L18.7929 6.79286C18.6312 6.95462 18.3689 6.95462 18.2071 6.79286C18.0454 6.6311 18.0454 6.36883 18.2071 6.20707L19.7071 4.70707C20.0977 4.31655 20.0977 3.68338 19.7071 3.29286L18.7731 2.35883L18.773 2.3587C18.7711 2.3568 18.748 2.33344 18.7227 2.31047C18.5171 2.12436 18.2535 2.01516 17.9766 2.00144C17.9424 1.99974 17.9095 1.99995 17.9069 1.99997L17.9067 1.99997L17.8562 1.99996C17.4929 1.99992 17.2446 1.99989 17.0193 2.02025C14.8765 2.21385 13.0979 3.75648 12.6032 5.85033C12.5512 6.07049 12.5161 6.31632 12.4647 6.67592L12.4647 6.67595L12.4576 6.72599L12.2497 8.18105C12.1878 8.61439 12.1543 8.83468 12.1209 8.98269ZM16.3415 15.7526C15.9259 15.3889 15.8838 14.7571 16.2475 14.3415C16.6111 13.9258 17.2429 13.8837 17.6585 14.2474L20.9538 17.1308L20.9575 17.134C20.9752 17.1495 20.9907 17.163 21.0059 17.1768C21.6282 17.7363 21.9884 18.5302 21.9998 19.3669C22 19.3874 22 19.408 22 19.4315V19.4364V19.4471C22 19.4955 22 19.5371 21.9991 19.5749C21.9592 21.173 20.6731 22.4591 19.075 22.499C19.0371 22.5 18.9955 22.5 18.947 22.5H18.9364H18.9317C18.9081 22.5 18.8875 22.5 18.8669 22.4997C18.0302 22.4884 17.2363 22.1281 16.6768 21.5059C16.6631 21.4907 16.6495 21.4752 16.6341 21.4575L16.6308 21.4538L13.7475 18.1585C13.3838 17.7429 13.4259 17.1111 13.8415 16.7474C14.2572 16.3837 14.8889 16.4258 15.2526 16.8415L18.136 20.1368L18.164 20.1686C18.3505 20.376 18.6151 20.4961 18.894 20.4999L18.9364 20.5C19.0015 20.5 19.0157 20.4999 19.025 20.4997C19.5577 20.4864 19.9864 20.0577 19.9997 19.525C20 19.5156 20 19.5015 20 19.4364L19.9999 19.394C19.9962 19.1151 19.8761 18.8504 19.6687 18.6639L19.6368 18.6359L16.3415 15.7526ZM17.1993 4.01214C17.2856 4.00433 17.3854 4.00149 17.5853 4.00049L16.7929 4.79286C15.8501 5.73567 15.8501 7.26426 16.7929 8.20707C17.7357 9.14988 19.2643 9.14988 20.2071 8.20707L20.9996 7.41466C20.9985 7.65041 20.9953 7.76386 20.9857 7.86167C20.8623 9.11738 19.9663 10.1617 18.744 10.4746C18.6133 10.508 18.4515 10.5341 17.9877 10.6055L16.8454 10.7812L16.7796 10.7913L16.7795 10.7913C16.3664 10.8548 16.0544 10.9027 15.7538 10.9987C15.3127 11.1397 14.8995 11.3562 14.5324 11.6385C14.2823 11.8309 14.0653 12.0602 13.7779 12.3637L13.7779 12.3637L13.7321 12.4121L6.39462 20.1572C6.36353 20.19 6.35727 20.1966 6.35193 20.202C6.16882 20.3877 5.92039 20.4946 5.65961 20.4998C5.65217 20.4999 5.64121 20.5 5.59028 20.5C5.50267 20.5 5.48179 20.4999 5.47133 20.4996C4.94155 20.4843 4.51565 20.0584 4.50044 19.5287C4.50013 19.5179 4.50003 19.5017 4.50003 19.4269L4.50015 19.3788C4.50436 19.105 4.62064 18.845 4.82186 18.6593L4.85759 18.6272L12.404 11.8751L12.4652 11.8204C12.8485 11.4777 13.1381 11.2188 13.3722 10.91C13.6262 10.575 13.8258 10.202 13.9637 9.8048C14.0907 9.43878 14.1455 9.05417 14.218 8.54516L14.218 8.54515L14.2296 8.46389L14.4375 7.00883C14.4987 6.58042 14.5211 6.43096 14.5496 6.31019C14.8464 5.05387 15.9136 4.1283 17.1993 4.01214Z" fill="currentColor"/>
</svg>
