<svg width="24" height="24" viewBox="0 0 24 24" fill="none" xmlns="http://www.w3.org/2000/svg">
<path fill-rule="evenodd" clip-rule="evenodd" d="M10.4142 3L9.70711 3.70711L9 4.41421L9 5H13V4.41421L12.2929 3.70711L11.5858 3H10.4142ZM15 4V6C15 6.55229 14.5523 7 14 7H8C7.44772 7 7 6.55229 7 6L7 4H6.2C5.62345 4 5.25118 4.00078 4.96784 4.02393C4.69618 4.04612 4.59546 4.0838 4.54601 4.10899C4.35785 4.20487 4.20487 4.35785 4.109 4.54601C4.0838 4.59545 4.04613 4.69617 4.02393 4.96784C4.00078 5.25117 4 5.62345 4 6.2V17.8C4 18.3766 4.00078 18.7488 4.02393 19.0322C4.04613 19.3038 4.0838 19.4045 4.109 19.454C4.20487 19.6422 4.35785 19.7951 4.54601 19.891C4.59546 19.9162 4.69618 19.9539 4.96784 19.9761C5.25117 19.9992 5.62345 20 6.2 20H15.8C16.3765 20 16.7488 19.9992 17.0321 19.9761C17.3038 19.9539 17.4045 19.9162 17.4539 19.891C17.6421 19.7951 17.7951 19.6422 17.891 19.454C17.9188 19.3994 17.9593 19.2878 17.9808 18.9681V18C17.9808 17.4477 18.4285 17 18.9808 17C19.5331 17 19.9808 17.4477 19.9808 18V19C19.9808 19.0203 19.9802 19.0407 19.9789 19.061C19.9519 19.5033 19.8864 19.9432 19.673 20.362C19.3853 20.9265 18.9264 21.3854 18.3619 21.673C17.9835 21.8658 17.5903 21.9371 17.195 21.9694C16.8204 22 16.3657 22 15.8385 22H15.8H6.2H6.16143C5.63429 22 5.17954 22 4.80497 21.9694C4.40963 21.9371 4.01641 21.8658 3.63803 21.673C3.07355 21.3854 2.6146 20.9265 2.32698 20.362C2.13419 19.9836 2.06287 19.5904 2.03057 19.195C1.99997 18.8205 1.99998 18.3657 2 17.8386V17.8385V17.8V6.2V6.16146V6.16141C1.99998 5.63428 1.99997 5.17953 2.03057 4.80497C2.06287 4.40963 2.13419 4.01641 2.32698 3.63803C2.6146 3.07354 3.07354 2.6146 3.63803 2.32698C4.01641 2.13419 4.40963 2.06287 4.80497 2.03057C5.17955 1.99997 5.63431 1.99998 6.16146 2H6.2H8.58579L9.2929 1.29289C9.48043 1.10536 9.73479 1 10 1H12C12.2652 1 12.5196 1.10536 12.7071 1.29289L13.4142 2H15.7999H15.8385C16.3656 1.99998 16.8204 1.99997 17.195 2.03057C17.5903 2.06287 17.9835 2.13419 18.3619 2.32698C18.9264 2.6146 19.3853 3.07354 19.6729 3.63803C19.8657 4.01641 19.9371 4.40963 19.9694 4.80497C20 5.17954 19.9999 5.63429 19.9999 6.16143V6.2V6.5C19.9999 7.05228 19.5522 7.5 18.9999 7.5C18.4476 7.5 17.9999 7.05228 17.9999 6.5V6.2C17.9999 5.62345 17.9991 5.25117 17.976 4.96784C17.9538 4.69617 17.9161 4.59545 17.8909 4.54601C17.7951 4.35785 17.6421 4.20487 17.4539 4.10899C17.4045 4.0838 17.3038 4.04612 17.0321 4.02393C16.7488 4.00078 16.3765 4 15.7999 4L15 4ZM15.5899 13.6702C15.6379 13.574 15.7012 13.4863 15.7772 13.4103L20.7909 8.3964C21.3194 7.86781 22.1765 7.86785 22.7051 8.39648C23.2338 8.92512 23.2338 9.78217 22.7052 10.3108L17.6914 15.3245C17.6154 15.4005 17.5277 15.4637 17.4315 15.5118L14.6069 16.9241C14.3453 17.0549 14.2145 17.1203 14.1391 17.0981C14.0738 17.0789 14.0227 17.0279 14.0036 16.9626C13.9814 16.8872 14.0468 16.7564 14.1776 16.4948L15.5899 13.6702ZM7.39443 14.5528C7.14744 14.0588 6.54676 13.8586 6.05279 14.1056C5.55881 14.3526 5.35859 14.9533 5.60558 15.4472L5.91989 16.0759L5.93833 16.1127L5.93834 16.1128C6.11842 16.473 6.28273 16.8017 6.43967 17.0554C6.59998 17.3146 6.83232 17.6335 7.20669 17.8351C7.69471 18.098 8.26488 18.1469 8.79049 17.9708C9.19475 17.8354 9.47871 17.5589 9.68081 17.3304C9.87938 17.1059 10.0985 16.8081 10.3393 16.481L10.3637 16.4479C10.4513 16.3288 10.5386 16.2105 10.6244 16.0948L10.6349 16.0963L10.6453 16.0981L11.0513 17.3163C11.226 17.8402 11.7923 18.1234 12.3163 17.9487C12.8402 17.7741 13.1234 17.2077 12.9487 16.6838L12.5374 15.4499L12.5308 15.43L12.5308 15.43C12.4994 15.3342 12.4329 15.1315 12.2983 14.9338C12.145 14.7086 11.9512 14.55 11.7584 14.4196C11.4902 14.2383 11.1741 14.1571 10.9501 14.1213C10.7261 14.0856 10.4004 14.0644 10.0891 14.1532C9.8751 14.2143 9.64517 14.2997 9.43289 14.4582C9.23877 14.6031 9.11349 14.7738 9.05766 14.8498L9.04642 14.8651C8.9499 14.9952 8.85152 15.1284 8.75297 15.2623C8.47975 15.6334 8.3143 15.8566 8.18274 16.0053C8.17417 16.015 8.16615 16.0239 8.15868 16.032C8.15303 16.0233 8.14701 16.0137 8.14062 16.0034C8.03724 15.8362 7.9134 15.5908 7.70874 15.1814L7.39443 14.5528Z" fill="currentColor"/>
</svg>
