<svg width="24" height="24" viewBox="0 0 24 24" fill="none" xmlns="http://www.w3.org/2000/svg">
<path fill-rule="evenodd" clip-rule="evenodd" d="M13.6002 2H13.5581H13.558C12.6138 1.99999 11.8445 1.99998 11.22 2.05101C10.5745 2.10374 9.99607 2.21593 9.45726 2.49047C8.79449 2.82817 8.22873 3.32331 7.80728 3.92857C7.49169 4.38181 7.60327 5.00506 8.0565 5.32065C8.50974 5.63624 9.13299 5.52466 9.44858 5.07143C9.68273 4.73516 9.99705 4.46009 10.3652 4.27248C10.5751 4.16555 10.8611 4.087 11.3829 4.04436C11.9163 4.00078 12.6036 4 13.6002 4H15.4002C16.3968 4 17.0841 4.00078 17.6176 4.04436C18.1394 4.087 18.4253 4.16555 18.6352 4.27248C19.1056 4.51217 19.488 4.89462 19.7277 5.36502C19.8347 5.5749 19.9132 5.86085 19.9559 6.38264C19.9994 6.91611 20.0002 7.60341 20.0002 8.6V10.4C20.0002 11.3966 19.9994 12.0839 19.9559 12.6174C19.9132 13.1392 19.8347 13.4251 19.7277 13.635C19.5401 14.0032 19.265 14.3175 18.9287 14.5517C18.4755 14.8673 18.3639 15.4905 18.6794 15.9438C18.995 16.397 19.6183 16.5086 20.0715 16.193C20.6768 15.7716 21.172 15.2058 21.5097 14.543C21.7843 14.0041 21.8965 13.4257 21.9492 12.7802C22.0002 12.1557 22.0002 11.3864 22.0002 10.4421V10.4V8.6V8.55788C22.0002 7.61356 22.0002 6.84431 21.9492 6.21978C21.8965 5.5743 21.7843 4.99586 21.5097 4.45704C21.0783 3.61031 20.3899 2.9219 19.5432 2.49047C19.0044 2.21593 18.4259 2.10374 17.7804 2.05101C17.1559 1.99998 16.3867 1.99999 15.4424 2H15.4424H15.4002H13.6002ZM8.6 7L8.55785 7H8.55784C7.61355 6.99999 6.84431 6.99998 6.21978 7.05101C5.5743 7.10374 4.99586 7.21593 4.45704 7.49047C3.61031 7.9219 2.9219 8.61031 2.49047 9.45704C2.21593 9.99586 2.10374 10.5743 2.05101 11.2198C1.99998 11.8443 1.99999 12.6135 2 13.5578V13.5578V13.6V15.4V15.4422V15.4422C1.99999 16.3865 1.99998 17.1557 2.05101 17.7802C2.10374 18.4257 2.21593 19.0041 2.49047 19.543C2.9219 20.3897 3.61031 21.0781 4.45704 21.5095C4.99586 21.7841 5.5743 21.8963 6.21978 21.949C6.84431 22 7.61356 22 8.55788 22H8.6H10.4H10.4421C11.3864 22 12.1557 22 12.7802 21.949C13.4257 21.8963 14.0041 21.7841 14.543 21.5095C15.3897 21.0781 16.0781 20.3897 16.5095 19.543C16.7841 19.0041 16.8963 18.4257 16.949 17.7802C17 17.1557 17 16.3864 17 15.4421V15.4421V15.4V13.6V13.5579V13.5579C17 12.6136 17 11.8443 16.949 11.2198C16.8963 10.5743 16.7841 9.99586 16.5095 9.45704C16.0781 8.61031 15.3897 7.9219 14.543 7.49047C14.0041 7.21593 13.4257 7.10374 12.7802 7.05101C12.1557 6.99998 11.3865 6.99999 10.4422 7L10.4 7H8.6ZM5.36502 9.27248C5.5749 9.16555 5.86085 9.087 6.38264 9.04436C6.91611 9.00078 7.60341 9 8.6 9H10.4C11.3966 9 12.0839 9.00078 12.6174 9.04436C13.1392 9.087 13.4251 9.16555 13.635 9.27248C14.1054 9.51217 14.4878 9.89462 14.7275 10.365C14.8345 10.5749 14.913 10.8608 14.9556 11.3826C14.9992 11.9161 15 12.6034 15 13.6V15.4C15 16.3966 14.9992 17.0839 14.9556 17.6174C14.913 18.1392 14.8345 18.4251 14.7275 18.635C14.4878 19.1054 14.1054 19.4878 13.635 19.7275C13.4251 19.8345 13.1392 19.913 12.6174 19.9556C12.0839 19.9992 11.3966 20 10.4 20H8.6C7.60341 20 6.91611 19.9992 6.38264 19.9556C5.86085 19.913 5.5749 19.8345 5.36502 19.7275C4.89462 19.4878 4.51217 19.1054 4.27248 18.635C4.16555 18.4251 4.087 18.1392 4.04436 17.6174C4.00078 17.0839 4 16.3966 4 15.4V13.6C4 12.6034 4.00078 11.9161 4.04436 11.3826C4.087 10.8608 4.16555 10.5749 4.27248 10.365C4.51217 9.89462 4.89462 9.51217 5.36502 9.27248Z" fill="currentColor"/>
</svg>
