<svg width="24" height="24" viewBox="0 0 24 24" fill="none" xmlns="http://www.w3.org/2000/svg">
<path fill-rule="evenodd" clip-rule="evenodd" d="M15.767 5.99996C16.6016 5.35177 17.3518 4.60156 18 3.76694C18.6482 4.60156 19.3984 5.35177 20.233 5.99996C19.3984 6.64816 18.6482 7.39837 18 8.23298C17.3518 7.39837 16.6016 6.64816 15.767 5.99996ZM18.858 1.48628C18.4692 0.83834 17.5305 0.838772 17.142 1.48628C16.242 2.98638 14.9864 4.24192 13.4864 5.14194C12.8387 5.53053 12.8386 6.46926 13.4863 6.85792C14.9864 7.75801 16.2419 9.01353 17.142 10.5136C17.5307 11.1614 18.4694 11.1612 18.858 10.5136C19.7581 9.01353 21.0136 7.75801 22.5137 6.85792C23.1612 6.46937 23.1615 5.53065 22.5136 5.14194C21.0136 4.24192 19.758 2.98638 18.858 1.48628ZM10.3797 6.04479L10.3768 6.04475C10.3788 6.04473 10.3798 6.04476 10.3797 6.04479ZM4 12.9999C4 9.69866 6.41378 6.89118 9.65969 6.17539L9.61565 6.32655C9.40869 7.03577 9.29815 7.78381 9.29815 8.55549C9.29815 12.9801 12.9072 16.5391 17.3559 16.6633C16.0901 18.6596 13.8166 19.9999 11.2104 19.9999C7.20358 19.9999 4 16.8416 4 12.9999ZM11.4743 4.49548C11.086 4.076 10.5903 4.03154 10.268 4.04752C9.99325 4.06115 9.66925 4.12928 9.37785 4.19056L9.32458 4.20175C5.18703 5.06943 2 8.65462 2 12.9999C2 17.9948 6.14828 21.9999 11.2104 21.9999C14.9848 21.9999 18.2418 19.7788 19.6624 16.5817L19.6744 16.5547C19.7217 16.4489 19.7966 16.2811 19.8392 16.1247C19.8909 15.9347 19.9673 15.506 19.6718 15.0956C19.3628 14.6665 18.9042 14.619 18.7296 14.6109C18.5676 14.6033 18.3815 14.6214 18.255 14.6337L18.2236 14.6368C18.0176 14.6565 17.8083 14.6666 17.5963 14.6666C14.0933 14.6666 11.2982 11.9063 11.2982 8.55549C11.2982 7.97566 11.3811 7.41619 11.5356 6.8868L11.5511 6.83369C11.6566 6.47238 11.7621 6.11137 11.8078 5.81513C11.8519 5.5293 11.9021 4.95771 11.4743 4.49548Z" fill="currentColor"/>
</svg>
