<svg width="24" height="24" viewBox="0 0 24 24" fill="none" xmlns="http://www.w3.org/2000/svg">
<path fill-rule="evenodd" clip-rule="evenodd" d="M20 4.00001H16V3.60001L16 3.56811V3.56807C16.0001 3.3157 16.0001 3.06992 15.9831 2.86178C15.9644 2.63318 15.9203 2.36345 15.7821 2.09202C15.5903 1.7157 15.2843 1.40974 14.908 1.21799C14.6366 1.07969 14.3669 1.03563 14.1383 1.01695C13.9301 0.999943 13.6843 0.999972 13.4319 1L13.4 1.00001L10.6 1.00001L10.5681 1C10.3158 0.999973 10.07 0.999944 9.86181 1.01695C9.63322 1.03563 9.36348 1.0797 9.09206 1.21799C8.71573 1.40974 8.40977 1.7157 8.21803 2.09202C8.07973 2.36345 8.03566 2.63318 8.01698 2.86178C7.99998 3.06993 8.00001 3.31573 8.00004 3.56811L8.00004 3.60001V4.00001H4.00004C3.44775 4.00001 3.00004 4.44773 3.00004 5.00001V5.84001L3.00003 5.84394C2.99995 5.86272 2.99971 5.92573 3.00472 5.98713C3.01114 6.06564 3.03068 6.22424 3.11993 6.3994C3.22539 6.60638 3.39367 6.77466 3.60065 6.88012C3.7667 6.96473 3.91787 6.98669 4.00004 6.99422V12.0001C4.00004 12.037 4.00208 12.0739 4.00615 12.1106L4.68986 18.2638L4.69383 18.2996C4.74635 18.7724 4.79194 19.1828 4.85626 19.5205C4.92453 19.8788 5.02639 20.2309 5.23051 20.5647C5.53733 21.0666 5.98492 21.4673 6.51762 21.7168C6.87202 21.8828 7.23314 21.9451 7.59684 21.9734C7.93953 22 8.35247 22 8.82814 22H8.82816H8.82818H8.86417H15.1359H15.1719H15.1719H15.1719C15.6476 22 16.0605 22 16.4032 21.9734C16.7669 21.9451 17.1281 21.8828 17.4825 21.7168C18.0152 21.4673 18.4628 21.0666 18.7696 20.5647C18.9737 20.2309 19.0755 19.8788 19.1438 19.5205C19.2081 19.1828 19.2537 18.7724 19.3062 18.2997L19.3062 18.2996L19.3062 18.2996L19.3102 18.2638L19.9939 12.1106C19.998 12.0739 20 12.037 20 12.0001V6.99422C20.0822 6.98669 20.2334 6.96473 20.3994 6.88012C20.6064 6.77466 20.7747 6.60638 20.8801 6.3994C20.9694 6.22424 20.9889 6.06564 20.9954 5.98713C21.0004 5.92581 21.0001 5.86288 21 5.84401V5.84399V5.84394L21 5.84001V5.00001C21 4.44773 20.5523 4.00001 20 4.00001ZM10 3.60001V4.00001H14V3.60001C14 3.30348 13.9993 3.14122 13.9897 3.02464L13.9886 3.01145L13.9754 3.01031C13.8588 3.00078 13.6966 3.00001 13.4 3.00001L10.6 3.00001C10.3035 3.00001 10.1413 3.00078 10.0247 3.01031L10.0115 3.01145L10.0103 3.02464C10.0008 3.14122 10 3.30348 10 3.60001ZM18 6.00001L15 6.00001L9.00004 6.00001H6.00004V11.9447L6.67763 18.043C6.73527 18.5617 6.7729 18.8941 6.82093 19.1462C6.86664 19.3861 6.90884 19.4757 6.93692 19.5216C7.03919 19.6889 7.18839 19.8224 7.36595 19.9056C7.41471 19.9284 7.50837 19.9605 7.75187 19.9794C8.00775 19.9993 8.34223 20 8.86417 20H15.1359C15.6579 20 15.9923 19.9993 16.2482 19.9794C16.4917 19.9605 16.5854 19.9284 16.6341 19.9056C16.8117 19.8224 16.9609 19.6889 17.0632 19.5216C17.0912 19.4757 17.1334 19.3861 17.1791 19.1462C17.2272 18.8941 17.2648 18.5617 17.3224 18.043L18 11.9448V6.00001ZM15 16C15 16.5523 14.5523 17 14 17C13.4478 17 13 16.5523 13 16V9.00001C13 8.44773 13.4478 8.00001 14 8.00001C14.5523 8.00001 15 8.44773 15 9.00001V16ZM11 16C11 16.5523 10.5523 17 10 17C9.44775 17 9.00004 16.5523 9.00004 16V9.00001C9.00004 8.44773 9.44775 8.00001 10 8.00001C10.5523 8.00001 11 8.44773 11 9.00001V16Z" fill="currentColor"/>
</svg>
