<svg width="24" height="24" viewBox="0 0 24 24" fill="none" xmlns="http://www.w3.org/2000/svg">
<path fill-rule="evenodd" clip-rule="evenodd" d="M16.9972 5.00009C17.5098 5.00009 17.62 5.00493 17.6923 5.0193C18.089 5.09821 18.3991 5.40831 18.478 5.805C18.4924 5.87725 18.4972 5.9875 18.4972 6.50009C18.4972 7.05237 18.9449 7.50009 19.4972 7.50009C20.0495 7.50009 20.4972 7.05237 20.4972 6.50009L20.4972 6.41621V6.41618C20.4976 6.03549 20.4978 5.70766 20.4396 5.41482C20.2028 4.22474 19.2725 3.29445 18.0825 3.05773L17.8874 4.03852L18.0825 3.05773C17.7896 2.99948 17.4618 2.99974 17.0811 3.00004L16.9972 3.00009H7.2L7.16146 3.00009L7.16145 3.00009C6.63431 3.00007 6.17954 3.00005 5.80497 3.03066C5.40963 3.06296 5.01641 3.13427 4.63803 3.32707C4.07354 3.61469 3.6146 4.07363 3.32698 4.63812C3.13419 5.0165 3.06287 5.40971 3.03057 5.80506C2.99997 6.17963 2.99998 6.63439 3 7.16154L3 7.20009V17.5001H2C1.44772 17.5001 1 17.9478 1 18.5001V19.0001C1 19.5524 1.44772 20.0001 2 20.0001H4H12.5C13.0523 20.0001 13.5 19.5524 13.5 19.0001V18.5001C13.5 17.9478 13.0523 17.5001 12.5 17.5001H5V7.20009C5 6.62353 5.00078 6.25126 5.02393 5.96792C5.04612 5.69626 5.0838 5.59554 5.10899 5.5461C5.20487 5.35793 5.35785 5.20495 5.54601 5.10908C5.59545 5.08389 5.69617 5.04621 5.96784 5.02401C6.25117 5.00086 6.62345 5.00009 7.2 5.00009H16.9972ZM17.6 9.00009L17.5681 9.00008C17.3157 9.00005 17.0699 9.00003 16.8618 9.01703C16.6332 9.03571 16.3634 9.07978 16.092 9.21807C15.7157 9.40982 15.4097 9.71578 15.218 10.0921C15.0797 10.3635 15.0356 10.6333 15.0169 10.8619C14.9999 11.07 15 11.3158 15 11.5682V11.5682L15 11.6001V18.4001L15 18.432V18.432C15 18.6844 14.9999 18.9302 15.0169 19.1383C15.0356 19.3669 15.0797 19.6366 15.218 19.9081C15.4097 20.2844 15.7157 20.5904 16.092 20.7821C16.3634 20.9204 16.6332 20.9645 16.8618 20.9831C17.0699 21.0001 17.3157 21.0001 17.5681 21.0001L17.6 21.0001H20.4L20.4319 21.0001C20.6843 21.0001 20.9301 21.0001 21.1382 20.9831C21.3668 20.9645 21.6366 20.9204 21.908 20.7821C22.2843 20.5904 22.5903 20.2844 22.782 19.9081C22.9203 19.6366 22.9644 19.3669 22.9831 19.1383C23.0001 18.9302 23 18.6844 23 18.432V18.432L23 18.4001V11.6001L23 11.5682V11.5682C23 11.3158 23.0001 11.07 22.9831 10.8619C22.9644 10.6333 22.9203 10.3635 22.782 10.0921C22.5903 9.71578 22.2843 9.40982 21.908 9.21807C21.6366 9.07978 21.3668 9.03571 21.1382 9.01703C20.9301 9.00003 20.6843 9.00005 20.4319 9.00008L20.4 9.00009H17.6ZM17.0103 11.0247L17.0114 11.0115L17.0246 11.0104C17.1412 11.0009 17.3035 11.0001 17.6 11.0001H20.4C20.6965 11.0001 20.8588 11.0009 20.9754 11.0104L20.9886 11.0115L20.9897 11.0247C20.9992 11.1413 21 11.3036 21 11.6001V18.4001C21 18.6966 20.9992 18.8589 20.9897 18.9755L20.9886 18.9886L20.9754 18.9898C20.8588 18.9993 20.6965 19.0001 20.4 19.0001H17.6C17.3035 19.0001 17.1412 18.9993 17.0246 18.9898L17.0114 18.9886L17.0103 18.9755C17.0008 18.8589 17 18.6966 17 18.4001V11.6001C17 11.3036 17.0008 11.1413 17.0103 11.0247Z" fill="currentColor"/>
</svg>
