<svg width="24" height="24" viewBox="0 0 24 24" fill="none" xmlns="http://www.w3.org/2000/svg">
<path fill-rule="evenodd" clip-rule="evenodd" d="M7.33547 1.99994C7.36508 1.99997 7.39494 1.99999 7.42505 1.99999H16.5747C16.6048 1.99999 16.6347 1.99997 16.6643 1.99994C17.1004 1.9995 17.4848 1.99912 17.8554 2.0943C18.1808 2.17787 18.4899 2.31552 18.7697 2.50149C19.0884 2.71327 19.3453 2.99927 19.6367 3.32372C19.6565 3.34576 19.6764 3.36797 19.6966 3.39034L18.9533 4.05931L19.6966 3.39034L21.5676 5.46931L20.8243 6.13827L21.5676 5.46931C21.6031 5.5087 21.6383 5.54769 21.6732 5.58634C22.1667 6.13289 22.5992 6.61196 22.8 7.18989C22.9753 7.69473 23.0127 8.23726 22.9081 8.76136C22.7884 9.36136 22.4255 9.89515 22.0116 10.5042C21.9823 10.5472 21.9528 10.5907 21.9231 10.6345L16.8018 18.1944L16.7742 18.2353C16.1319 19.1834 15.6116 19.9515 15.1454 20.5211C14.6708 21.1009 14.1677 21.5845 13.5212 21.8504C12.5466 22.2512 11.4532 22.2512 10.4786 21.8504C9.83207 21.5845 9.32898 21.1009 8.85438 20.5211C8.38818 19.9515 7.86781 19.1833 7.22555 18.2352L7.19796 18.1944L2.07672 10.6345C2.04701 10.5907 2.01749 10.5472 1.98822 10.5042C1.57424 9.89515 1.2114 9.36136 1.09168 8.76136C0.987109 8.23726 1.02444 7.69473 1.19982 7.18989C1.40059 6.61194 1.83312 6.13288 2.32662 5.5863C2.36151 5.54766 2.3967 5.50868 2.43214 5.46931L3.17543 6.13827L2.43214 5.46931L4.30321 3.39034C4.32335 3.36797 4.3433 3.34576 4.36309 3.32372C4.65452 2.99926 4.9114 2.71327 5.23004 2.50149C5.50986 2.31552 5.81893 2.17787 6.14435 2.0943L6.38582 3.0345L6.14435 2.0943C6.51493 1.99912 6.89934 1.9995 7.33547 1.99994ZM7.42505 3.99999C6.84893 3.99999 6.73568 4.00733 6.64185 4.03143C6.53338 4.05929 6.43036 4.10517 6.33709 4.16716C6.25642 4.22078 6.1752 4.30005 5.7898 4.72827L3.91873 6.80724C3.85646 6.87643 3.799 6.94053 3.74596 6.99999H15.9772C15.9919 6.99966 16.0068 6.99966 16.0216 6.99999H20.2538C20.2008 6.94053 20.1433 6.87643 20.081 6.80724L18.21 4.72827C17.8246 4.30006 17.7434 4.22078 17.6627 4.16716L18.213 3.33917L17.6627 4.16716C17.5694 4.10517 17.4664 4.05929 17.3579 4.03143C17.2641 4.00733 17.1508 3.99999 16.5747 3.99999H7.42505ZM20.6096 8.99999H16.7664L14.2351 18.4019C14.4955 18.0325 14.7926 17.5944 15.146 17.0727L20.2672 9.51283C20.4093 9.30308 20.5212 9.1356 20.6096 8.99999ZM12 19.0108L14.6952 8.99999H9.30483L12 19.0108ZM7.26897 8.99999H3.39013C3.47854 9.1356 3.59047 9.30308 3.73256 9.51283L8.85379 17.0728C9.2073 17.5946 9.50442 18.0327 9.76489 18.4022L7.3036 9.25996C7.28022 9.17311 7.26903 9.08585 7.26897 8.99999Z" fill="currentColor"/>
</svg>
