<svg width="24" height="24" viewBox="0 0 24 24" fill="none" xmlns="http://www.w3.org/2000/svg">
<path fill-rule="evenodd" clip-rule="evenodd" d="M11.8 3.00001L11.7769 3.00001C11.6578 2.99996 11.5155 2.99991 11.3902 3.01015C11.245 3.02201 11.037 3.05245 10.819 3.1635C10.5368 3.30731 10.3073 3.53678 10.1635 3.81903C10.0525 4.03697 10.022 4.24496 10.0101 4.39018C9.9999 4.5155 9.99996 4.65776 10 4.77687L10 4.80001L10 5.20001L10 5.22315C9.99996 5.34227 9.99991 5.48452 10.0101 5.60984C10.022 5.75506 10.0525 5.96305 10.1635 6.181C10.3073 6.46324 10.5368 6.69271 10.819 6.83652C11.037 6.94757 11.245 6.97801 11.3902 6.98988C11.5155 7.00012 11.6578 7.00006 11.7769 7.00002L11.8 7.00001L12.2 7.00001L12.2232 7.00002H12.2232C12.3423 7.00006 12.4845 7.00012 12.6098 6.98988C12.7551 6.97801 12.9631 6.94757 13.181 6.83652C13.4632 6.69271 13.6927 6.46324 13.8365 6.181C13.9476 5.96305 13.978 5.75506 13.9899 5.60984C14.0001 5.48452 14.0001 5.34226 14 5.22314L14 5.20001V4.80001L14 4.77688C14.0001 4.65777 14.0001 4.5155 13.9899 4.39018C13.978 4.24496 13.9476 4.03697 13.8365 3.81903C13.6927 3.53678 13.4632 3.30731 13.181 3.1635C12.9631 3.05245 12.7551 3.02201 12.6098 3.01015C12.4845 2.99991 12.3423 2.99996 12.2231 3.00001L12.2 3.00001L11.8 3.00001ZM4.00001 3.00001C3.44773 3.00001 3.00001 3.44773 3.00001 4.00001V5.00001C3.00001 5.5523 3.44773 6.00001 4.00001 6.00001H5.00001C5.5523 6.00001 6.00001 5.5523 6.00001 5.00001V4.00001C6.00001 3.44773 5.5523 3.00001 5.00001 3.00001H4.00001ZM19 3.00001C18.4477 3.00001 18 3.44773 18 4.00001V5.00001C18 5.5523 18.4477 6.00001 19 6.00001H20C20.5523 6.00001 21 5.5523 21 5.00001V4.00001C21 3.44773 20.5523 3.00001 20 3.00001H19ZM11.3 9.50001L11.2769 9.50001C11.1578 9.49996 11.0155 9.49991 10.8902 9.51015C10.745 9.52201 10.537 9.55245 10.319 9.6635C10.0368 9.80731 9.80731 10.0368 9.6635 10.319C9.55245 10.537 9.52201 10.745 9.51015 10.8902C9.49991 11.0155 9.49996 11.1578 9.50001 11.2769L9.50001 11.3V12.7L9.50001 12.7232C9.49996 12.8423 9.49991 12.9845 9.51015 13.1098C9.52201 13.2551 9.55245 13.4631 9.6635 13.681C9.80731 13.9632 10.0368 14.1927 10.319 14.3365C10.537 14.4476 10.745 14.478 10.8902 14.4899C11.0155 14.5001 11.1577 14.5001 11.2769 14.5H11.2769L11.3 14.5H12.7L12.7231 14.5H12.7232C12.8423 14.5001 12.9845 14.5001 13.1098 14.4899C13.2551 14.478 13.4631 14.4476 13.681 14.3365C13.9632 14.1927 14.1927 13.9632 14.3365 13.681C14.4476 13.4631 14.478 13.2551 14.4899 13.1098C14.5001 12.9845 14.5001 12.8423 14.5 12.7232V12.7231L14.5 12.7V11.3L14.5 11.2769V11.2769C14.5001 11.1577 14.5001 11.0155 14.4899 10.8902C14.478 10.745 14.4476 10.537 14.3365 10.319C14.1927 10.0368 13.9632 9.80731 13.681 9.6635C13.4631 9.55245 13.2551 9.52201 13.1098 9.51015C12.9845 9.49991 12.8423 9.49996 12.7232 9.50001L12.7 9.50001H11.3ZM18.8 10L18.7769 10C18.6578 9.99996 18.5155 9.99991 18.3902 10.0101C18.245 10.022 18.037 10.0525 17.819 10.1635C17.5368 10.3073 17.3073 10.5368 17.1635 10.819C17.0525 11.037 17.022 11.245 17.0101 11.3902C16.9999 11.5155 17 11.6578 17 11.7769L17 11.8V12.2L17 12.2231C17 12.3423 16.9999 12.4845 17.0101 12.6098C17.022 12.7551 17.0525 12.9631 17.1635 13.181C17.3073 13.4632 17.5368 13.6927 17.819 13.8365C18.037 13.9476 18.245 13.978 18.3902 13.9899C18.5155 14.0001 18.6578 14.0001 18.7769 14L18.8 14H19.2L19.2231 14C19.3423 14.0001 19.4845 14.0001 19.6098 13.9899C19.7551 13.978 19.9631 13.9476 20.181 13.8365C20.4632 13.6927 20.6927 13.4632 20.8365 13.181C20.9476 12.9631 20.978 12.7551 20.9899 12.6098C21.0001 12.4846 21.0001 12.3424 21 12.2233V12.2232L21 12.2V11.8L21 11.7769V11.7768C21.0001 11.6577 21.0001 11.5155 20.9899 11.3902C20.978 11.245 20.9476 11.037 20.8365 10.819C20.6927 10.5368 20.4632 10.3073 20.181 10.1635C19.9631 10.0525 19.7551 10.022 19.6098 10.0101C19.4845 9.99991 19.3423 9.99996 19.2232 10L19.2 10H18.8ZM4.80001 10L4.77687 10C4.65776 9.99996 4.5155 9.99991 4.39018 10.0101C4.24496 10.022 4.03697 10.0525 3.81903 10.1635C3.53678 10.3073 3.30731 10.5368 3.1635 10.819C3.05245 11.037 3.02201 11.245 3.01015 11.3902C2.99991 11.5155 2.99996 11.6578 3.00001 11.7769L3.00001 11.8V12.2L3.00001 12.2232C2.99996 12.3423 2.99991 12.4845 3.01015 12.6098C3.02201 12.7551 3.05245 12.9631 3.1635 13.181C3.30731 13.4632 3.53678 13.6927 3.81903 13.8365C4.03697 13.9476 4.24496 13.978 4.39018 13.9899C4.5155 14.0001 4.65775 14.0001 4.77686 14H4.77688L4.80001 14H5.20001L5.22314 14H5.22316C5.34228 14.0001 5.48453 14.0001 5.60984 13.9899C5.75506 13.978 5.96305 13.9476 6.181 13.8365C6.46324 13.6927 6.69271 13.4632 6.83652 13.181C6.94757 12.9631 6.97801 12.7551 6.98988 12.6098C7.00012 12.4845 7.00006 12.3423 7.00002 12.2232V12.2232L7.00001 12.2V11.8L7.00002 11.7769V11.7769C7.00006 11.6577 7.00012 11.5155 6.98988 11.3902C6.97801 11.245 6.94757 11.037 6.83652 10.819C6.69271 10.5368 6.46324 10.3073 6.181 10.1635C5.96305 10.0525 5.75506 10.022 5.60984 10.0101C5.48452 9.99991 5.34227 9.99996 5.22315 10L5.20001 10H4.80001ZM11.7769 17C11.6578 17 11.5155 16.9999 11.3902 17.0101C11.245 17.022 11.037 17.0525 10.819 17.1635C10.5368 17.3073 10.3073 17.5368 10.1635 17.819C10.0525 18.037 10.022 18.245 10.0101 18.3902C9.99991 18.5155 9.99996 18.6578 10 18.7769L10 18.8V19.2L10 19.2232C9.99996 19.3423 9.99991 19.4845 10.0101 19.6098C10.022 19.7551 10.0525 19.9631 10.1635 20.181C10.3073 20.4632 10.5368 20.6927 10.819 20.8365C11.037 20.9476 11.245 20.978 11.3902 20.9899C11.5155 21.0001 11.6577 21.0001 11.7768 21H11.7769L11.8 21H12.2L12.2232 21H12.2233C12.3424 21.0001 12.4846 21.0001 12.6098 20.9899C12.7551 20.978 12.9631 20.9476 13.181 20.8365C13.4632 20.6927 13.6927 20.4632 13.8365 20.181C13.9476 19.9631 13.978 19.7551 13.9899 19.6098C14.0001 19.4845 14.0001 19.3423 14 19.2232V19.2231L14 19.2V18.8L14 18.7769V18.7769C14.0001 18.6577 14.0001 18.5155 13.9899 18.3902C13.978 18.245 13.9476 18.037 13.8365 17.819C13.6927 17.5368 13.4632 17.3073 13.181 17.1635C12.9631 17.0525 12.7551 17.022 12.6098 17.0101C12.4845 16.9999 12.3423 17 12.2231 17L12.2 17H11.8L11.7769 17ZM4.00001 18C3.44773 18 3.00001 18.4477 3.00001 19V20C3.00001 20.5523 3.44773 21 4.00001 21H5.00001C5.5523 21 6.00001 20.5523 6.00001 20V19C6.00001 18.4477 5.5523 18 5.00001 18H4.00001ZM19 18C18.4477 18 18 18.4477 18 19V20C18 20.5523 18.4477 21 19 21H20C20.5523 21 21 20.5523 21 20V19C21 18.4477 20.5523 18 20 18H19Z" fill="currentColor"/>
</svg>
