<svg width="24" height="24" viewBox="0 0 24 24" fill="none" xmlns="http://www.w3.org/2000/svg">
<path fill-rule="evenodd" clip-rule="evenodd" d="M21.8274 5.56148C22.1375 5.10448 22.0184 4.48261 21.5614 4.1725C21.1044 3.86239 20.4825 3.98147 20.1724 4.43848L12.0393 16.4241C11.8004 16.7762 11.6588 16.9832 11.5449 17.1219L11.5273 17.1431L11.5102 17.1214C11.4005 16.9794 11.2651 16.7683 11.0366 16.4093L8.84358 12.9631C8.54707 12.4972 7.92898 12.3598 7.46304 12.6563C6.9971 12.9528 6.85975 13.5709 7.15625 14.0369L9.34932 17.4831L9.37087 17.517C9.57035 17.8305 9.75495 18.1206 9.92726 18.3438C10.1067 18.5761 10.357 18.8516 10.7287 19.0134C11.2189 19.2267 11.7741 19.2349 12.2704 19.0361C12.6467 18.8854 12.905 18.6174 13.0912 18.3904C13.27 18.1724 13.4631 17.8879 13.6717 17.5803L13.6943 17.5471L21.8274 5.56148ZM16.8274 5.56155C17.1375 5.10455 17.0184 4.48268 16.5614 4.17257C16.1044 3.86246 15.4825 3.98154 15.1724 4.43855L10.4224 11.4385C10.1123 11.8955 10.2314 12.5174 10.6884 12.8275C11.1454 13.1376 11.7672 13.0186 12.0774 12.5615L16.8274 5.56155ZM3.84354 12.9632C3.54704 12.4972 2.92895 12.3599 2.46301 12.6564C1.99707 12.9529 1.85971 13.571 2.15622 14.0369L4.34928 17.4832L4.37084 17.517C4.57031 17.8306 4.75491 18.1207 4.92723 18.3439C5.10663 18.5762 5.357 18.8517 5.72863 19.0134L6.12767 18.0965L5.72863 19.0134C6.21886 19.2268 6.7741 19.235 7.2704 19.0362C7.36118 18.9998 7.44584 18.9563 7.52486 18.9076C7.99492 18.6177 8.14094 18.0016 7.851 17.5315C7.57537 17.0846 7.00498 16.9306 6.54551 17.1656C6.5354 17.1535 6.52364 17.1389 6.51022 17.1215C6.40051 16.9794 6.26505 16.7684 6.03661 16.4094L3.84354 12.9632Z" fill="currentColor"/>
</svg>
