<svg width="24" height="24" viewBox="0 0 24 24" fill="none" xmlns="http://www.w3.org/2000/svg">
<path d="M2 17.1506L2.50472 15.3852C2.86291 15.5957 3.43276 15.7577 4.01889 15.7577C4.94693 15.7901 5.59818 15.2232 5.59818 14.3648C5.59818 13.6359 5.20743 13.2148 4.49105 12.5345C3.64442 11.7247 3.18854 10.85 3.18854 9.89441C3.18854 7.86979 4.63758 6.44446 6.77044 6.44446C7.61707 6.44446 8.15435 6.62262 8.41486 6.78459L7.86129 8.53387C7.53566 8.3557 7.17747 8.24232 6.68903 8.24232C5.82612 8.24232 5.22371 8.79302 5.22371 9.63526C5.22371 10.1536 5.43537 10.5585 6.33084 11.3359C7.22632 12.1296 7.64963 13.0852 7.64963 13.9598C7.64963 16.2274 6.13547 17.5556 4.05145 17.5556C2.94432 17.5556 2.24422 17.3126 2 17.1506Z" fill="url(#paint0_linear_2102_1372)"/>
<path d="M9.34328 17.4584L11.0854 8.45288H9.16418L9.53865 6.54164H15.3837L15.0092 8.45288H13.1043L11.3784 17.4584H9.34328Z" fill="url(#paint1_linear_2102_1372)"/>
<path d="M21.365 11.4007L20.2742 17.1506C19.6718 17.3774 18.9717 17.5556 18.1088 17.5556C16.8062 17.5556 16.0085 17.1344 15.4549 16.4218C14.9013 15.7577 14.6245 14.6887 14.6245 13.7007C14.6245 11.4655 15.3735 9.34371 16.7086 7.93458C17.6203 6.97896 18.9065 6.44446 20.2579 6.44446C21.1696 6.44446 21.6744 6.60643 22 6.736L21.365 8.51767C21.0882 8.38809 20.6161 8.29091 20.1602 8.29091C19.4113 8.29091 18.8414 8.51767 18.3367 9.01977C17.4412 9.91061 16.7737 11.6437 16.7737 13.6683C16.7737 15.0288 17.2133 15.8063 18.0925 15.8063C18.3204 15.8063 18.4995 15.7901 18.6786 15.7415L19.1833 13.0366H18.2064L18.5321 11.4007H21.365Z" fill="url(#paint2_linear_2102_1372)"/>
<defs>
<linearGradient id="paint0_linear_2102_1372" x1="2" y1="18.6667" x2="26.2356" y2="1.70173" gradientUnits="userSpaceOnUse">
<stop stop-color="#F0414B"/>
<stop offset="0.322917" stop-color="#FFCD50"/>
<stop offset="0.65625" stop-color="#00AFCD"/>
<stop offset="1" stop-color="#46B97D"/>
</linearGradient>
<linearGradient id="paint1_linear_2102_1372" x1="2" y1="18.6667" x2="26.2356" y2="1.70173" gradientUnits="userSpaceOnUse">
<stop stop-color="#F0414B"/>
<stop offset="0.322917" stop-color="#FFCD50"/>
<stop offset="0.65625" stop-color="#00AFCD"/>
<stop offset="1" stop-color="#46B97D"/>
</linearGradient>
<linearGradient id="paint2_linear_2102_1372" x1="2" y1="18.6667" x2="26.2356" y2="1.70173" gradientUnits="userSpaceOnUse">
<stop stop-color="#F0414B"/>
<stop offset="0.322917" stop-color="#FFCD50"/>
<stop offset="0.65625" stop-color="#00AFCD"/>
<stop offset="1" stop-color="#46B97D"/>
</linearGradient>
</defs>
</svg>
