<svg width="24" height="24" viewBox="0 0 24 24" fill="none" xmlns="http://www.w3.org/2000/svg">
<path fill-rule="evenodd" clip-rule="evenodd" d="M18.109 2.54601C18 2.75992 18 3.03995 18 3.6V4.4C18 4.96005 18 5.24008 18.109 5.45399C18.2049 5.64215 18.3578 5.79513 18.546 5.89101C18.7599 6 19.0399 6 19.6 6H20.4C20.9601 6 21.2401 6 21.454 5.89101C21.6422 5.79513 21.7951 5.64215 21.891 5.45399C22 5.24008 22 4.96005 22 4.4V3.6C22 3.03995 22 2.75992 21.891 2.54601C21.7951 2.35785 21.6422 2.20487 21.454 2.10899C21.2401 2 20.9601 2 20.4 2H19.6C19.0399 2 18.7599 2 18.546 2.10899C18.3578 2.20487 18.2049 2.35785 18.109 2.54601ZM15.3654 3.07144C15.5856 3.08943 15.7978 3.11225 16.0031 3.14173C15.9999 3.28411 16 3.42557 16 3.55365V3.55373V3.55375L16 3.60002V4.40002L16 4.4463V4.44632C15.9999 4.68455 15.9998 4.96905 16.0203 5.21969C16.044 5.51012 16.1049 5.9261 16.327 6.362C16.4388 6.58141 16.5765 6.78487 16.7362 6.96853L12.9895 13.0995C12.8335 13.3548 12.7473 13.4943 12.6777 13.5897L12.6697 13.6006L12.6577 13.5945C12.5527 13.5402 12.4132 13.454 12.1595 13.2954L10.7136 12.3918L10.689 12.3764C10.5006 12.2586 10.3147 12.1424 10.1482 12.0552C9.96324 11.9585 9.73774 11.8619 9.46548 11.8268C9.08342 11.7775 8.69527 11.8396 8.34767 12.0057C8.09997 12.124 7.91591 12.2862 7.77043 12.4359C7.63937 12.5706 7.49904 12.7391 7.35685 12.9098L7.33826 12.9321L4.4818 16.3598L2.60108 18.6167C2.28229 17.9467 2.14089 17.2155 2.07144 16.3655C1.99999 15.491 1.99999 14.4069 2 13.0439V13.0439V13.0439V13.0001V12V11.9562V11.9562V11.9562C1.99999 10.5932 1.99999 9.50916 2.07144 8.63458C2.14462 7.73898 2.29768 6.9753 2.65396 6.27606C3.2292 5.14708 4.14709 4.2292 5.27606 3.65396C5.97531 3.29768 6.73898 3.14462 7.63458 3.07144C8.50917 2.99999 9.59319 2.99999 10.9562 3H10.9562H11H12H12.0438H12.0438C13.4068 2.99999 14.4908 2.99999 15.3654 3.07144ZM5.27606 21.3462C4.73292 21.0694 4.23863 20.7134 3.80785 20.2927L6.01825 17.6402L8.8747 14.2124C9.04283 14.0107 9.13348 13.903 9.20436 13.8301L9.21173 13.8226L9.22109 13.8274C9.31118 13.8745 9.43092 13.9486 9.65363 14.0878L11.0995 14.9914L11.1268 15.0085C11.3428 15.1435 11.5529 15.2749 11.7399 15.3714C11.945 15.4774 12.1992 15.5837 12.505 15.6095C12.9286 15.6454 13.3526 15.5453 13.7154 15.3238C13.9774 15.1639 14.1571 14.9552 14.2932 14.7687C14.4173 14.5987 14.5465 14.3872 14.6793 14.1698L14.6793 14.1698L14.6793 14.1698L14.6793 14.1698L14.6961 14.1424L18.4838 7.94434C18.5923 7.9619 18.6921 7.97255 18.7804 7.97976C19.031 8.00024 19.3155 8.00013 19.5538 8.00004L19.6 8.00002H20.4L20.4463 8.00004C20.5744 8.00009 20.7159 8.00014 20.8583 7.997C20.8878 8.20222 20.9106 8.41441 20.9286 8.63458C21 9.50914 21 10.5931 21 11.9561V11.9562V12V13.0001V13.0439V13.044C21 14.407 21 15.491 20.9286 16.3655C20.8554 17.2611 20.7023 18.0248 20.346 18.7241C19.7708 19.853 18.8529 20.7709 17.7239 21.3462C17.0247 21.7024 16.261 21.8555 15.3654 21.9287C14.4909 22.0001 13.4069 22.0001 12.0439 22.0001H12.0438H12H11H10.9562H10.9561C9.59313 22.0001 8.50914 22.0001 7.63458 21.9287C6.73898 21.8555 5.97531 21.7024 5.27606 21.3462Z" fill="currentColor"/>
</svg>
