<svg width="24" height="24" viewBox="0 0 24 24" fill="none" xmlns="http://www.w3.org/2000/svg">
<path fill-rule="evenodd" clip-rule="evenodd" d="M19.3123 4.00001C19.929 4 20.3219 4.001 20.6043 4.02683C20.7394 4.0392 20.8105 4.05492 20.8409 4.06295C20.8661 4.0898 20.8835 4.12314 20.891 4.15924C20.8802 4.18872 20.8523 4.25597 20.7849 4.37381C20.6442 4.61991 20.4196 4.94242 20.066 5.44759L16.6269 10.3606L16.5736 10.4368L16.5736 10.4368C16.0873 11.1313 15.769 11.5858 15.54 12.0885C15.3372 12.5336 15.1896 13.0019 15.1004 13.4829C14.9998 14.0261 14.9999 14.5809 15 15.4288V15.4288L15 15.5218V19.4002C15 19.6968 14.9992 19.859 14.9897 19.9756L14.9886 19.9888L14.9754 19.9899C14.8588 19.9994 14.6965 20.0002 14.4 20.0002H12.6C12.3035 20.0002 12.1412 19.9994 12.0246 19.9899L12.0114 19.9888L12.0103 19.9756C12.0008 19.859 12 19.6968 12 19.4002V18.5C12 17.9477 11.5523 17.5 11 17.5C10.4477 17.5 10 17.9477 10 18.5V19.4002L10 19.4321V19.4322C9.99997 19.6845 9.99994 19.9303 10.0169 20.1385C10.0356 20.3671 10.0797 20.6368 10.218 20.9082C10.4097 21.2845 10.7157 21.5905 11.092 21.7822C11.3634 21.9205 11.6332 21.9646 11.8618 21.9833C12.0699 22.0003 12.3156 22.0003 12.568 22.0002H12.5681L12.6 22.0002H14.4L14.4319 22.0002H14.432C14.6844 22.0003 14.9301 22.0003 15.1382 21.9833C15.3668 21.9646 15.6366 21.9205 15.908 21.7822C16.2843 21.5905 16.5903 21.2845 16.782 20.9082C16.9203 20.6368 16.9644 20.3671 16.9831 20.1385C17.0001 19.9303 17 19.6845 17 19.4321L17 19.4002V15.5218C17 14.5492 17.0039 14.1878 17.0669 13.8473C17.1264 13.5266 17.2248 13.2144 17.36 12.9177C17.5036 12.6025 17.7077 12.3043 18.2654 11.5075L21.7045 6.59451L21.7305 6.55728C22.0504 6.10035 22.3292 5.7021 22.5211 5.36668C22.712 5.03271 22.9149 4.60147 22.8931 4.10381C22.8647 3.45417 22.5503 2.85039 22.0344 2.45456C21.6392 2.15133 21.1696 2.0702 20.7865 2.03515C20.4017 1.99995 19.9156 1.99997 19.3579 2H19.3578L19.3123 2L7.66446 2.00008L7.61899 2.00008C7.06444 2.00006 6.58074 2.00004 6.19763 2.0351C5.81571 2.07006 5.34812 2.151 4.9538 2.45259C4.43855 2.84665 4.12347 3.44802 4.09276 4.09596C4.06927 4.59184 4.26888 5.02235 4.45754 5.35626C4.64677 5.6912 4.92212 6.08888 5.23779 6.54479L5.23781 6.54481L5.26369 6.5822L6.67781 8.62478C6.99218 9.07886 7.61514 9.19212 8.06922 8.87775C8.5233 8.56338 8.63656 7.94043 8.32219 7.48635L6.90806 5.44376C6.55892 4.93945 6.33745 4.61779 6.19883 4.37244C6.13254 4.25511 6.10519 4.18821 6.09459 4.15888C6.10219 4.12277 6.11965 4.08944 6.14501 4.06263C6.17516 4.05466 6.24574 4.03906 6.37994 4.02678C6.66056 4.00109 7.05109 4.00008 7.66447 4.00008L19.3123 4.00001ZM10.5 8.99998C10.0807 8.99998 9.70585 9.26162 9.5613 9.65526C9.41674 10.0489 9.53314 10.4909 9.85282 10.7623L10.8278 11.59L8.45714 14.1762L5.62578 12.1824C5.23122 11.9045 4.69454 11.9481 4.34995 12.2859L1.79993 14.7859C1.40556 15.1725 1.39929 15.8057 1.78592 16.2001C2.17256 16.5944 2.8057 16.6007 3.20007 16.2141L5.1553 14.2972L8.02446 16.3176C8.43554 16.6071 8.99763 16.5463 9.33737 16.1757L13.004 12.1757L13.0143 12.1643L14.3476 10.6643C14.6092 10.37 14.6738 9.94956 14.5125 9.59032C14.3511 9.23109 13.994 8.99998 13.6002 8.99998H10.5Z" fill="currentColor"/>
</svg>
