<svg width="24" height="24" viewBox="0 0 24 24" fill="none" xmlns="http://www.w3.org/2000/svg">
<path fill-rule="evenodd" clip-rule="evenodd" d="M18.5682 2L18.6001 2.00001H19.4001L19.432 2C19.6844 1.99997 19.9302 1.99994 20.1383 2.01695C20.3669 2.03563 20.6366 2.07969 20.9081 2.21799C21.2844 2.40974 21.5904 2.7157 21.7821 3.09202C21.9204 3.36345 21.9645 3.63318 21.9831 3.86178C22.0002 4.06993 22.0001 4.31572 22.0001 4.56811L22.0001 4.60001V5.40001L22.0001 5.4319C22.0001 5.68429 22.0002 5.93008 21.9831 6.13824C21.9645 6.36683 21.9204 6.63656 21.7821 6.90799C21.5904 7.28431 21.2844 7.59027 20.9081 7.78202C20.6366 7.92032 20.3669 7.96438 20.1383 7.98306C19.9302 8.00007 19.6844 8.00004 19.432 8.00001L19.4001 8.00001H18.6001L18.5682 8.00001C18.4045 8.00003 18.2437 8.00005 18.094 7.99542L14.7244 14.125C14.7154 14.1413 14.706 14.1574 14.6961 14.1732L14.6792 14.2003L14.6792 14.2003L14.6792 14.2003C14.5454 14.4143 14.4152 14.6228 14.2905 14.7903C14.1535 14.9742 13.9731 15.1796 13.712 15.3365C13.35 15.554 12.9283 15.6513 12.5076 15.6144C12.2041 15.5878 11.952 15.4822 11.7483 15.3769C11.5628 15.281 11.3543 15.1507 11.1403 15.0169L11.1403 15.0169L11.1133 15L9.6537 14.0878C9.43098 13.9486 9.31125 13.8746 9.22115 13.8274L9.2118 13.8226L9.20442 13.8301C9.13509 13.9014 9.04685 14.006 8.88567 14.1994L5.23795 18.8934C5.51735 19.1601 5.83562 19.3866 6.18404 19.5641C6.55435 19.7528 7.02552 19.8723 7.79744 19.9353C8.58104 19.9993 9.58337 20.0001 11 20.0001H13C14.4166 20.0001 15.419 19.9993 16.2026 19.9353C16.9745 19.8723 17.4457 19.7528 17.816 19.5641C18.3628 19.2855 18.8354 18.8862 19.2001 18.4C19.5315 17.9582 20.1583 17.8686 20.6001 18.1999C21.0419 18.5313 21.1315 19.1581 20.8001 19.5999C20.2532 20.3293 19.5443 20.9282 18.7239 21.3462C18.0247 21.7024 17.261 21.8555 16.3654 21.9287C15.4909 22.0001 14.4069 22.0001 13.0439 22.0001H13.0438H13H11H10.9562H10.9561C9.59313 22.0001 8.50914 22.0001 7.63458 21.9287C6.73898 21.8555 5.9753 21.7024 5.27606 21.3462C4.42909 20.9146 3.70093 20.2902 3.14712 19.5285C3.13855 19.5172 3.13026 19.5057 3.12223 19.494C2.94784 19.2506 2.79115 18.9933 2.65396 18.7241L3.02546 18.5348L2.65396 18.7241C2.29768 18.0248 2.14462 17.2611 2.07144 16.3655C1.99999 15.491 1.99999 14.4069 2 13.0439V13.0001V11V10.9562C1.99999 9.5932 1.99999 8.50917 2.07144 7.63458C2.14462 6.73898 2.29768 5.9753 2.65396 5.27606C3.07196 4.45568 3.6709 3.74689 4.40013 3.19998C4.84197 2.86861 5.46877 2.95816 5.80013 3.4C6.1315 3.84183 6.04194 4.46863 5.60011 4.79999C5.11385 5.16468 4.71459 5.63723 4.43597 6.18404C4.24729 6.55435 4.12787 7.02552 4.0648 7.79744C4.00078 8.58103 4 9.58337 4 11V13.0001C4 14.4168 4.00078 15.4191 4.0648 16.2027C4.09041 16.5162 4.12532 16.7801 4.17039 17.0078L7.31693 12.9587C7.32391 12.9497 7.33104 12.9408 7.33832 12.9321L7.3569 12.9098C7.4991 12.7391 7.63943 12.5707 7.77049 12.4359C7.91597 12.2863 8.10003 12.1241 8.34774 12.0057C8.69533 11.8397 9.08349 11.7775 9.46555 11.8268C9.73781 11.8619 9.96331 11.9585 10.1482 12.0553C10.3148 12.1424 10.5007 12.2586 10.689 12.3764L10.6891 12.3764L10.7137 12.3918L12.1733 13.304C12.4247 13.4612 12.5627 13.5465 12.6667 13.6002L12.6784 13.6063L12.6864 13.5957C12.754 13.5049 12.8374 13.3734 12.9853 13.1369L16.3158 7.07852C16.2806 7.02349 16.2479 6.96659 16.2181 6.90799C16.0798 6.63656 16.0357 6.36683 16.017 6.13824C16 5.93009 16.0001 5.68431 16.0001 5.43194V5.4319L16.0001 5.40001V4.60001L16.0001 4.56811V4.56807C16.0001 4.3157 16 4.06992 16.017 3.86178C16.0357 3.63318 16.0798 3.36345 16.2181 3.09202C16.4098 2.7157 16.7158 2.40974 17.0921 2.21799C17.3635 2.07969 17.6333 2.03563 17.8619 2.01695C18.07 1.99994 18.3158 1.99997 18.5682 2ZM18.0115 4.01145L18.0104 4.02464C18.0009 4.14122 18.0001 4.30348 18.0001 4.60001V5.40001C18.0001 5.69653 18.0009 5.85879 18.0104 5.97537L18.0115 5.98856L18.0247 5.9897C18.1413 5.99923 18.3036 6.00001 18.6001 6.00001H19.4001C19.6966 6.00001 19.8589 5.99923 19.9755 5.9897L19.9886 5.98856L19.9898 5.97537C19.9993 5.85879 20.0001 5.69653 20.0001 5.40001V4.60001C20.0001 4.30348 19.9993 4.14122 19.9898 4.02464L19.9886 4.01145L19.9755 4.01031C19.8589 4.00078 19.6966 4.00001 19.4001 4.00001H18.6001C18.3036 4.00001 18.1413 4.00078 18.0247 4.01031L18.0115 4.01145ZM11.0001 3C11.0001 2.44772 11.4478 2 12.0001 2H13.0001C13.5524 2 14.0001 2.44772 14.0001 3C14.0001 3.55228 13.5524 4 13.0001 4H12.0001C11.4478 4 11.0001 3.55228 11.0001 3ZM22.0001 11C22.0001 10.4477 21.5524 10 21.0001 10C20.4478 10 20.0001 10.4477 20.0001 11V12C20.0001 12.5523 20.4478 13 21.0001 13C21.5524 13 22.0001 12.5523 22.0001 12V11ZM21.0001 14C21.5524 14 22.0001 14.4477 22.0001 15V16C22.0001 16.5523 21.5524 17 21.0001 17C20.4478 17 20.0001 16.5523 20.0001 16V15C20.0001 14.4477 20.4478 14 21.0001 14ZM8.00012 2C7.44784 2 7.00012 2.44772 7.00012 3C7.00012 3.55228 7.44784 4 8.00012 4H9.00012C9.55241 4 10.0001 3.55228 10.0001 3C10.0001 2.44772 9.55241 2 9.00012 2H8.00012Z" fill="currentColor"/>
</svg>
