<svg width="24" height="24" viewBox="0 0 24 24" fill="none" xmlns="http://www.w3.org/2000/svg">
<path fill-rule="evenodd" clip-rule="evenodd" d="M19.5361 2.99973C19.5514 2.9999 19.565 3.00005 19.5766 3.00005H21.124C21.1324 3.00005 21.1409 3.00004 21.1496 3.00004C21.2749 2.99997 21.4312 2.99988 21.5705 3.01349C21.7392 3.02999 21.9655 3.07218 22.1967 3.20892C22.4995 3.38795 22.7426 3.68825 22.8548 4.02157C22.9918 4.42855 22.8994 4.83344 22.8565 5.02106C22.8523 5.03963 22.8485 5.05608 22.8455 5.07018C22.2096 8.06244 19.9115 11.673 16.4833 14.5735C13.0329 17.4928 8.34776 19.7714 2.84027 19.9839C2.83271 19.9842 2.825 19.9845 2.81716 19.9848C2.70306 19.9892 2.56141 19.9948 2.43463 19.9885C2.28245 19.981 2.07534 19.955 1.85535 19.8503C1.56457 19.7119 1.32099 19.4775 1.17147 19.1923C1.05659 18.9731 1.02366 18.7634 1.0108 18.6132C0.999894 18.4858 0.999956 18.3419 1.00001 18.2235C1.00001 18.2156 1.00001 18.2077 1.00001 18.2V16.8004C1.00001 16.7929 1.00001 16.7854 1.00001 16.7777C0.999969 16.6579 0.999923 16.5179 1.00936 16.3953C1.02005 16.2564 1.04751 16.0509 1.15348 15.8351C1.29007 15.5568 1.50177 15.3343 1.77288 15.184C1.9878 15.0649 2.19754 15.0284 2.33348 15.0116C2.4573 14.9962 2.60082 14.9891 2.72717 14.9828L2.75015 14.9817C9.75026 14.6329 15.8514 9.45551 17.8718 4.18478L17.8782 4.16812C17.9116 4.08076 17.9511 3.97783 17.9914 3.88925C18.0372 3.78887 18.1113 3.64389 18.2371 3.50257C18.4001 3.3195 18.5977 3.18363 18.827 3.09695C19.0968 2.99494 19.3925 2.99816 19.5361 2.99973ZM19.7008 5.00005C17.3959 10.882 10.7403 16.5175 3.00001 16.9711V17.9748C7.8871 17.7272 12.0723 15.6857 15.1915 13.0466C18.235 10.4716 20.1827 7.39865 20.8074 5.00005H19.7008Z" fill="currentColor"/>
</svg>
