<svg width="24" height="24" viewBox="0 0 24 24" fill="none" xmlns="http://www.w3.org/2000/svg">
<path fill-rule="evenodd" clip-rule="evenodd" d="M22.2966 2.41323C21.9283 2.13067 21.4971 2.05987 21.1704 2.02998C20.842 1.99994 20.4301 1.99997 19.9703 2L19.9267 2L7.07287 2.00009L7.02928 2.00009C6.56947 2.00006 6.15762 2.00004 5.82923 2.03008C5.50257 2.05997 5.07129 2.13078 4.70302 2.41334C4.23402 2.7732 3.94824 3.32209 3.9224 3.91267C3.90211 4.37641 4.09142 4.77033 4.25427 5.05508C4.41798 5.34133 4.65417 5.67871 4.91788 6.05538L4.91788 6.05538L4.91789 6.05539L4.94289 6.0911L7.50961 9.75781C7.53118 9.49146 7.58866 9.22515 7.68389 8.96583C8.11756 7.78491 9.24197 7 10.5 7H13.6002C14.7816 7 15.853 7.69333 16.3369 8.77103C16.8209 9.84873 16.6273 11.1101 15.8424 11.9931L14.3608 10.676L15.8424 11.9931L14.5091 13.4931L14.4989 13.5045L14.4886 13.5159L14.4783 13.5272L10.8117 17.5272C10.5729 17.7877 10.2975 17.9972 9.99983 18.154V20.2002L9.99982 20.2234C9.99978 20.3425 9.99972 20.4847 10.01 20.6101C10.0218 20.7553 10.0523 20.9633 10.1633 21.1812C10.3071 21.4635 10.5366 21.6929 10.8188 21.8367C11.0368 21.9478 11.2448 21.9782 11.39 21.9901C11.5153 22.0003 11.6575 22.0003 11.7766 22.0002H11.7767L11.7998 22.0002H15.1998L15.223 22.0002H15.2231C15.3422 22.0003 15.4844 22.0003 15.6097 21.9901C15.7549 21.9782 15.9629 21.9478 16.1808 21.8367C16.4631 21.6929 16.6925 21.4635 16.8363 21.1812C16.9474 20.9633 16.9778 20.7553 16.9897 20.6101C16.9999 20.4847 16.9999 20.3425 16.9998 20.2234L16.9998 20.2002V15.5218C16.9998 14.5492 17.0037 14.1878 17.0668 13.8473C17.1262 13.5267 17.2246 13.2145 17.3598 12.9177C17.5034 12.6025 17.7075 12.3043 18.2652 11.5075L22.0568 6.09101L22.0818 6.0553C22.3455 5.67862 22.5817 5.34124 22.7454 5.05497C22.9082 4.77022 23.0975 4.3763 23.0773 3.91256C23.0514 3.32198 22.7656 2.77308 22.2966 2.41323ZM10.5 9C10.0807 9 9.70585 9.26164 9.5613 9.65528C9.41674 10.0489 9.53314 10.4909 9.85282 10.7623L10.8278 11.59L8.45714 14.1762L5.62578 12.1824C5.23122 11.9045 4.69454 11.9481 4.34995 12.2859L1.79993 14.7859C1.40556 15.1726 1.39929 15.8057 1.78592 16.2001C2.17256 16.5944 2.8057 16.6007 3.20007 16.2141L5.1553 14.2972L8.02446 16.3176C8.43554 16.6071 8.99763 16.5463 9.33737 16.1757L13.004 12.1757L13.0143 12.1644L14.3476 10.6644C14.6092 10.37 14.6738 9.94958 14.5125 9.59034C14.3511 9.23111 13.994 9 13.6002 9H10.5Z" fill="currentColor"/>
</svg>
