<svg width="24" height="24" viewBox="0 0 24 24" fill="none" xmlns="http://www.w3.org/2000/svg">
<path fill-rule="evenodd" clip-rule="evenodd" d="M10.529 11.0568C10.453 11.1328 10.3898 11.2206 10.3417 11.3167L8.9294 14.1414C8.79862 14.4029 8.73323 14.5337 8.7554 14.6092C8.77458 14.6744 8.82563 14.7255 8.89091 14.7447C8.96638 14.7669 9.09716 14.7015 9.35873 14.5707L12.1834 13.1584C12.2795 13.1103 12.3672 13.047 12.4433 12.971L19 6.41436L21.4572 3.95715C21.9858 3.42855 21.9858 2.57153 21.4572 2.04293C20.9286 1.51433 20.0716 1.51434 19.543 2.04293L17.086 4.49993L10.529 11.0568ZM12 2.99999L11.9562 2.99999C10.5932 2.99998 9.50917 2.99997 8.63458 3.07143C7.73898 3.1446 6.9753 3.29767 6.27606 3.65395C5.14708 4.22919 4.2292 5.14707 3.65396 6.27605C3.29768 6.9753 3.14462 7.73897 3.07144 8.63458C2.99999 9.50918 2.99999 10.5932 3 11.9563V12.0001V12.0438C2.99999 13.4069 2.99999 14.4909 3.07144 15.3655C3.14462 16.2611 3.29768 17.0248 3.65396 17.7241C4.2292 18.853 5.14708 19.7709 6.27606 20.3462C6.9753 20.7024 7.73898 20.8555 8.63458 20.9287C9.50914 21.0001 10.5931 21.0001 11.9561 21.0001H11.9562H12H12.0438H12.0439C13.4069 21.0001 14.4909 21.0001 15.3654 20.9287C16.261 20.8555 17.0247 20.7024 17.7239 20.3462C18.8529 19.7709 19.7708 18.853 20.346 17.7241C20.7023 17.0248 20.8554 16.2611 20.9286 15.3655C21 14.491 21 13.407 21 12.044V12.0439V12.0001V9.99999C21 9.4477 20.5523 8.99999 20 8.99999C19.4477 8.99999 19 9.4477 19 9.99999V12.0001C19 13.4167 18.9992 14.4191 18.9352 15.2027C18.8721 15.9746 18.7527 16.4458 18.564 16.8161C18.1805 17.5687 17.5686 18.1806 16.816 18.5641C16.4457 18.7528 15.9745 18.8722 15.2026 18.9353C14.419 18.9993 13.4166 19.0001 12 19.0001C10.5834 19.0001 9.58104 18.9993 8.79744 18.9353C8.02552 18.8722 7.55435 18.7528 7.18404 18.5641C6.43139 18.1806 5.81947 17.5687 5.43597 16.8161C5.24729 16.4458 5.12787 15.9746 5.0648 15.2027C5.00078 14.4191 5 13.4167 5 12.0001C5 10.5834 5.00078 9.58105 5.0648 8.79745C5.12787 8.02551 5.24729 7.55434 5.43597 7.18403C5.81947 6.43138 6.43139 5.81946 7.18404 5.43596C7.55435 5.24728 8.02552 5.12786 8.79744 5.06479C9.58104 5.00077 10.5834 4.99999 12 4.99999H13C13.5523 4.99999 14 4.55227 14 3.99999C14 3.4477 13.5523 2.99999 13 2.99999H12Z" fill="currentColor"/>
</svg>
