<svg width="24" height="24" viewBox="0 0 24 24" fill="none" xmlns="http://www.w3.org/2000/svg">
<path fill-rule="evenodd" clip-rule="evenodd" d="M6.2 2H6.16146H6.16142C5.63429 1.99998 5.17954 1.99997 4.80497 2.03057C4.40963 2.06287 4.01641 2.13419 3.63803 2.32698C3.07354 2.6146 2.6146 3.07354 2.32698 3.63803C2.13419 4.01641 2.06287 4.40963 2.03057 4.80497C1.99997 5.17954 1.99998 5.63429 2 6.16142V6.16146V6.2V8L2 8.00198V12.998L2 13V14.8V14.8385V14.8386C1.99998 15.3657 1.99997 15.8205 2.03057 16.195C2.06287 16.5904 2.13419 16.9836 2.32698 17.362C2.6146 17.9265 3.07354 18.3854 3.63803 18.673C4.01641 18.8658 4.40963 18.9371 4.80497 18.9694C5.17953 19 5.63427 19 6.16139 19H6.16141H6.16144H6.16146L6.2 19H11.5C12.0523 19 12.5 18.5523 12.5 18C12.5 17.4477 12.0523 17 11.5 17H6.2C5.62345 17 5.25118 16.9992 4.96784 16.9761C4.69618 16.9539 4.59546 16.9162 4.54601 16.891C4.35785 16.7951 4.20487 16.6422 4.109 16.454C4.0838 16.4045 4.04613 16.3038 4.02393 16.0322C4.00078 15.7488 4 15.3766 4 14.8V14H16C16.5523 14 17 13.5523 17 13C17 12.4477 16.5523 12 16 12H4V9H18V10C18 10.5523 18.4477 11 19 11C19.5523 11 20 10.5523 20 10V8V6.2V6.16144C20 5.6343 20 5.17954 19.9694 4.80497C19.9371 4.40963 19.8658 4.01641 19.673 3.63803C19.3854 3.07354 18.9265 2.6146 18.362 2.32698C17.9836 2.13419 17.5904 2.06287 17.195 2.03057C16.8205 1.99997 16.3657 1.99998 15.8386 2H15.8385H15.8H6.2ZM18 7H4V6.2C4 5.62345 4.00078 5.25118 4.02393 4.96784C4.04613 4.69618 4.0838 4.59546 4.109 4.54601C4.20487 4.35785 4.35785 4.20487 4.54601 4.109C4.59546 4.0838 4.69618 4.04613 4.96784 4.02393C5.25118 4.00078 5.62345 4 6.2 4H15.8C16.3766 4 16.7488 4.00078 17.0322 4.02393C17.3038 4.04613 17.4045 4.0838 17.454 4.109C17.6422 4.20487 17.7951 4.35785 17.891 4.54601C17.9162 4.59546 17.9539 4.69618 17.9761 4.96784C17.9992 5.25118 18 5.62345 18 6.2V7ZM14.529 19.1624C14.453 19.2384 14.3897 19.3262 14.3416 19.4223L12.9293 22.247C12.7985 22.5085 12.7332 22.6393 12.7553 22.7148C12.7745 22.7801 12.8256 22.8311 12.8908 22.8503C12.9663 22.8725 13.0971 22.8071 13.3587 22.6763L16.1833 21.264C16.2794 21.2159 16.3672 21.1527 16.4432 21.0767L22.6058 14.9141C22.8483 14.6717 22.9795 14.3602 22.9996 14.0429C23.0232 13.6685 22.892 13.2861 22.6058 12.9999C22.0772 12.4713 21.2202 12.4713 20.6916 12.9999L14.529 19.1624Z" fill="currentColor"/>
</svg>
