<svg width="24" height="24" viewBox="0 0 24 24" fill="none" xmlns="http://www.w3.org/2000/svg">
<path fill-rule="evenodd" clip-rule="evenodd" d="M8.49978 2C8.12101 2 7.77475 2.214 7.60535 2.55279L7.10535 3.55279C6.85837 4.04676 7.05859 4.64744 7.55257 4.89443C8.04655 5.14142 8.64722 4.94119 8.89421 4.44721L9.11782 4H14.8817L15.1054 4.44721C15.3523 4.94119 15.953 5.14142 16.447 4.89443C16.941 4.64744 17.1412 4.04676 16.8942 3.55279L16.3942 2.55279C16.2248 2.214 15.8786 2 15.4998 2H8.49978ZM4.99978 6.5C4.66543 6.5 4.3532 6.6671 4.16773 6.9453L3.16773 8.4453C2.86138 8.90483 2.98555 9.5257 3.44508 9.83205C3.90461 10.1384 4.52548 10.0142 4.83183 9.5547L5.53497 8.5H6H7.31305H9.41496H9.49978H14.4998H14.5846H16.6865H18H18.4646L19.1677 9.5547C19.4741 10.0142 20.095 10.1384 20.5545 9.83205C21.014 9.5257 21.1382 8.90483 20.8318 8.4453L19.8318 6.9453C19.6464 6.6671 19.3341 6.5 18.9998 6.5H15.3123H15.1178L14.8942 6.05279C14.7248 5.714 14.3786 5.5 13.9998 5.5H9.99978C9.62101 5.5 9.27475 5.714 9.10535 6.05279L8.88175 6.5H8.68728H4.99978ZM17.1714 10H14.7793L12.0066 13.4075L9.28053 10H6.82814L3.04827 21.6924C2.87838 22.2179 3.16667 22.7816 3.69218 22.9515C4.21769 23.1214 4.78141 22.8331 4.9513 22.3076L5.50453 20.5963C5.5233 20.5853 5.54184 20.5736 5.56011 20.5612L12 16.2072L18.4398 20.5612C18.4579 20.5735 18.4763 20.5851 18.495 20.596L19.0483 22.3076C19.2181 22.8331 19.7819 23.1214 20.3074 22.9515C20.8329 22.7816 21.1212 22.2179 20.9513 21.6924L17.1714 10ZM10.5421 14.7786L6.50224 17.51L8.29379 11.9681L10.5421 14.7786ZM17.4972 17.5097L13.4653 14.7836L15.7201 12.0126L17.4972 17.5097Z" fill="currentColor"/>
</svg>
