<svg width="24" height="24" viewBox="0 0 24 24" fill="none" xmlns="http://www.w3.org/2000/svg">
<path fill-rule="evenodd" clip-rule="evenodd" d="M12.7082 2C12.0872 2 11.4748 2.14458 10.9193 2.42229L6.65836 4.55279C5.64201 5.06096 5 6.09975 5 7.23607V8.34179C2.66969 9.1656 1 11.3869 1 14.0001C1 17.3138 3.68629 20.0001 7 20.0001H18.0595C19.1312 20.0001 20 20.8689 20 21.9406V22.0001C20 22.5524 20.4477 23.0001 21 23.0001C21.5523 23.0001 22 22.5524 22 22.0001V21.9406C22 19.7643 20.2358 18.0001 18.0595 18.0001H7C4.79086 18.0001 3 16.2092 3 14.0001C3 12.5201 3.80435 11.2267 5 10.5349V10.7639C5 11.9002 5.64201 12.939 6.65836 13.4472L10.9193 15.5777C11.4748 15.8554 12.0872 16 12.7082 16H14C15.1046 16 16 15.1046 16 14V4C16 2.89543 15.1046 2 14 2H12.7082ZM7 9.12089V10.7639C7 11.1427 7.214 11.489 7.55279 11.6584L11.8138 13.7889C12.0915 13.9277 12.3977 14 12.7082 14H14V4H12.7082C12.3977 4 12.0915 4.07229 11.8138 4.21115L7.55279 6.34164C7.214 6.51103 7 6.8573 7 7.23607V9.0814C7.00026 9.0946 7.00026 9.10776 7 9.12089ZM18 5C17.4477 5 17 5.44772 17 6C17 6.55228 17.4477 7 18 7H21.5C22.0523 7 22.5 6.55228 22.5 6C22.5 5.44772 22.0523 5 21.5 5H18ZM18 11C17.4477 11 17 11.4477 17 12C17 12.5523 17.4477 13 18 13H21.5C22.0523 13 22.5 12.5523 22.5 12C22.5 11.4477 22.0523 11 21.5 11H18Z" fill="currentColor"/>
</svg>
