<svg width="24" height="24" viewBox="0 0 24 24" fill="none" xmlns="http://www.w3.org/2000/svg">
<path fill-rule="evenodd" clip-rule="evenodd" d="M16.6865 4.05282C16.0445 4.00038 15.2283 3.99999 14.1 4L9.89996 4.00003C8.77161 4.00004 7.95542 4.00043 7.3135 4.05289C6.67742 4.10486 6.2566 4.20545 5.91102 4.38153C5.73248 4.4725 5.563 4.57816 5.4041 4.69698L12 11.2929L18.5959 4.69694C18.437 4.5781 18.2675 4.47243 18.089 4.38145C17.7434 4.20537 17.3225 4.10478 16.6865 4.05282ZM11.2929 12L4.69698 5.40408C4.57814 5.56301 4.47246 5.73252 4.38147 5.91109C4.20539 6.25668 4.10481 6.67749 4.05284 7.31357C4.00039 7.95549 4 8.77168 4 9.90003V14.1C4 15.2284 4.00039 16.0446 4.05284 16.6865C4.10481 17.3226 4.20539 17.7434 4.38148 18.089C4.47245 18.2676 4.57811 18.437 4.69693 18.596L11.2929 12ZM12 12.7071L18.5959 19.303C18.437 19.4219 18.2675 19.5275 18.089 19.6185C17.7434 19.7946 17.3226 19.8952 16.6865 19.9471C16.0446 19.9996 15.2284 20 14.1 20L9.90004 20C8.77168 20 7.95548 19.9997 7.31355 19.9472C6.67746 19.8952 6.25664 19.7947 5.91105 19.6186C5.73248 19.5276 5.56296 19.4219 5.40403 19.3031L12 12.7071ZM19.303 18.5959L12.7071 12L19.303 5.40405C19.4219 5.56296 19.5275 5.73246 19.6185 5.91101C19.7946 6.2566 19.8952 6.67742 19.9472 7.31351C19.9996 7.95544 20 8.77164 20 9.9V14.1C20 15.2283 19.9996 16.0445 19.9472 16.6865C19.8952 17.3225 19.7946 17.7434 19.6185 18.0889C19.5275 18.2675 19.4219 18.437 19.303 18.5959ZM16.7679 3.05614C17.4658 3.11316 18.0329 3.23056 18.5429 3.49044C19.3897 3.92187 20.0781 4.61028 20.5095 5.45702C20.7694 5.96708 20.8868 6.53414 20.9438 7.23208C21 7.91946 21 8.77637 21 9.87731V9.87734V9.87736V9.9V14.1V14.1226V14.1227V14.1227C21 15.2236 21 16.0805 20.9438 16.7679C20.8868 17.4658 20.7694 18.0329 20.5095 18.5429C20.0781 19.3897 19.3897 20.0781 18.543 20.5095C18.0329 20.7694 17.4659 20.8868 16.7679 20.9438C16.0806 21 15.2237 21 14.1228 21H14.1227H14.1227H14.1L9.90005 21H9.87742H9.8773C8.77639 21 7.91949 21 7.23212 20.9439C6.53419 20.8869 5.96712 20.7695 5.45706 20.5096C4.61033 20.0782 3.92191 19.3897 3.49048 18.543C3.23059 18.033 3.11318 17.4659 3.05616 16.768C3 16.0806 3 15.2236 3 14.1227V14.1227V14.1V9.90003V9.8774V9.87739C3 8.77645 3 7.91952 3.05616 7.23214C3.11318 6.53421 3.23058 5.96715 3.49047 5.4571C3.92189 4.61037 4.6103 3.92196 5.45702 3.49053C5.96708 3.23064 6.53414 3.11323 7.23206 3.05621C7.91945 3.00004 8.77637 3.00004 9.87732 3.00003L9.89995 3.00003L14.1 3L14.1226 3C15.2235 2.99999 16.0805 2.99998 16.7679 3.05614Z" fill="currentColor"/>
</svg>
