<svg width="24" height="24" viewBox="0 0 24 24" fill="none" xmlns="http://www.w3.org/2000/svg">
<path fill-rule="evenodd" clip-rule="evenodd" d="M11 1.99988L10.9562 1.99988C9.5932 1.99987 8.50917 1.99986 7.63458 2.07132C6.73898 2.14449 5.9753 2.29755 5.27606 2.65384C4.14709 3.22908 3.2292 4.14696 2.65396 5.27594C2.29768 5.97518 2.14462 6.73885 2.07144 7.63446C1.99999 8.50904 1.99999 9.59307 2 10.9561V10.9561V10.9999V13V13.0438V13.0438C1.99999 14.4068 1.99999 15.4908 2.07144 16.3654C2.14462 17.261 2.29768 18.0247 2.65396 18.7239C3.2292 19.8529 4.14709 20.7708 5.27606 21.346C5.9753 21.7023 6.73898 21.8554 7.63458 21.9286C8.50914 22 9.59313 22 10.9561 22H10.9562H11H13H13.0438H13.0439C14.4069 22 15.4909 22 16.3654 21.9286C17.261 21.8554 18.0247 21.7023 18.7239 21.346C19.8529 20.7708 20.7708 19.8529 21.346 18.7239C21.7023 18.0247 21.8554 17.261 21.9286 16.3654C22 15.4909 22 14.4069 22 13.0439V13.0438V13V10.9999V10.9561V10.956C22 9.59301 22 8.50902 21.9286 7.63446C21.8554 6.73885 21.7023 5.97518 21.346 5.27594C20.7708 4.14696 19.8529 3.22908 18.7239 2.65384C18.0247 2.29755 17.261 2.14449 16.3654 2.07132C15.4908 1.99986 14.4068 1.99987 13.0438 1.99988L13 1.99988H11ZM6.18404 4.43585C6.55435 4.24717 7.02552 4.12775 7.79744 4.06468C8.58104 4.00066 9.58337 3.99988 11 3.99988H13C14.4166 3.99988 15.419 4.00066 16.2026 4.06468C16.9745 4.12775 17.4457 4.24717 17.816 4.43585C18.5686 4.81935 19.1805 5.43127 19.564 6.18392C19.7527 6.55423 19.8721 7.0254 19.9352 7.79732C19.9992 8.58091 20 9.58325 20 10.9999V13C20 14.4166 19.9992 15.419 19.9352 16.2026C19.8721 16.9745 19.7527 17.4457 19.564 17.816C19.1805 18.5686 18.5686 19.1805 17.816 19.564C17.4457 19.7527 16.9745 19.8721 16.2026 19.9352C15.419 19.9992 14.4166 20 13 20H11C9.58337 20 8.58104 19.9992 7.79744 19.9352C7.02552 19.8721 6.55435 19.7527 6.18404 19.564C5.43139 19.1805 4.81947 18.5686 4.43597 17.816C4.24729 17.4457 4.12787 16.9745 4.0648 16.2026C4.00078 15.419 4 14.4166 4 13V10.9999C4 9.58325 4.00078 8.58091 4.0648 7.79732C4.12787 7.0254 4.24729 6.55423 4.43597 6.18392C4.81947 5.43127 5.43139 4.81935 6.18404 4.43585ZM12.4142 7.99988H14.5858L12.566 10.0196L12.5575 10.0282L12.5575 10.0282C12.5249 10.0607 12.4617 10.1236 12.4096 10.1858L12.4064 10.1896C12.3631 10.2411 12.172 10.468 12.1448 10.8136C12.1172 11.1646 12.2593 11.5076 12.527 11.7363C12.7906 11.9614 13.0862 11.9868 13.1532 11.9925L13.1582 11.993C13.239 12.0001 13.3282 12 13.3742 11.9999H13.3742L13.3863 11.9999H15.5858L12 15.5857V13.1599L12 13.156C12.0001 13.1372 12.0003 13.0742 11.9953 13.0128C11.9889 12.9343 11.9694 12.7757 11.8801 12.6005C11.7746 12.3935 11.6064 12.2252 11.3994 12.1198C11.2242 12.0305 11.0656 12.011 10.9871 12.0046C10.9257 11.9995 10.8627 11.9998 10.8439 11.9999L10.84 11.9999H8.41421L12.4142 7.99988ZM12.059 7.99988C12.0588 7.99989 12.0588 7.99989 12.0591 7.99989L12.0591 7.99988L12.059 7.99988ZM17.473 6.26344C17.2094 6.03832 16.9138 6.01296 16.8468 6.00721L16.8418 6.00678C16.761 5.99962 16.6718 5.99978 16.6258 5.99987L16.6137 5.99988H12.0663L12.065 5.99988C12.0576 5.99986 12.0247 5.99976 11.9916 6.00127C11.9469 6.00332 11.873 6.00905 11.7846 6.03027C11.6724 6.05722 11.5651 6.10167 11.4667 6.16198C11.3892 6.20948 11.3329 6.25763 11.2998 6.28785C11.2754 6.31015 11.2521 6.33353 11.2469 6.33876L11.246 6.33964L5.56603 12.0196L5.5575 12.0282C5.5249 12.0606 5.46171 12.1236 5.40963 12.1858L5.40639 12.1896C5.36308 12.2411 5.17201 12.468 5.14481 12.8136C5.11719 13.1646 5.25928 13.5076 5.52703 13.7363C5.79061 13.9614 6.08619 13.9868 6.15318 13.9925L6.15819 13.993C6.23899 14.0001 6.32819 14 6.37421 13.9999H6.37422L6.38627 13.9999H10V17.6136L9.99998 17.6257V17.6257C9.9999 17.6717 9.99974 17.7609 10.0069 17.8417L10.0073 17.8467C10.0131 17.9137 10.0384 18.2093 10.2636 18.4729C10.4922 18.7406 10.8353 18.8827 11.1863 18.8551C11.5319 18.8279 11.7588 18.6368 11.8102 18.5935L11.8141 18.5903C11.8763 18.5382 11.9393 18.475 11.9717 18.4424L11.9802 18.4339L18.434 11.9801L18.4425 11.9716C18.4751 11.9391 18.5383 11.8762 18.5904 11.814L18.5936 11.8101C18.6369 11.7587 18.828 11.5318 18.8552 11.1862C18.8828 10.8352 18.7407 10.4921 18.473 10.2634C18.2094 10.0383 17.9138 10.013 17.8468 10.0072L17.8418 10.0068C17.761 9.99962 17.6718 9.99978 17.6258 9.99987H17.6258L17.6137 9.99988H15.4142L17.434 7.98013L17.4425 7.97162C17.4751 7.93914 17.5383 7.87617 17.5904 7.81397L17.5936 7.81012C17.6369 7.75868 17.828 7.53175 17.8552 7.18619C17.8828 6.83516 17.7407 6.49212 17.473 6.26344Z" fill="currentColor"/>
</svg>
