<svg width="24" height="24" viewBox="0 0 24 24" fill="none" xmlns="http://www.w3.org/2000/svg">
<path fill-rule="evenodd" clip-rule="evenodd" d="M11 2H10.9562C9.5932 1.99999 8.50917 1.99999 7.63458 2.07144C6.73898 2.14462 5.9753 2.29768 5.27606 2.65396C4.14708 3.2292 3.2292 4.14708 2.65396 5.27606C2.29768 5.9753 2.14462 6.73898 2.07144 7.63458C1.99999 8.50917 1.99999 9.5932 2 10.9562V11V13.0001V13.0439C1.99999 14.4069 1.99999 15.491 2.07144 16.3655C2.14462 17.2611 2.29768 18.0248 2.65396 18.7241C3.2292 19.853 4.14708 20.7709 5.27606 21.3462C5.9753 21.7024 6.73898 21.8555 7.63458 21.9287C8.50914 22.0001 9.59313 22.0001 10.9561 22.0001H10.9562H11H13H13.0438H13.0439C14.4069 22.0001 15.4909 22.0001 16.3654 21.9287C17.261 21.8555 18.0247 21.7024 18.7239 21.3462C19.8529 20.7709 20.7708 19.853 21.346 18.7241C21.7023 18.0248 21.8554 17.2611 21.9286 16.3655C22 15.491 22 14.407 22 13.044V13.0439V13.0001V11V10.9562V10.9561C22 9.59313 22 8.50914 21.9286 7.63458C21.8554 6.73898 21.7023 5.9753 21.346 5.27606C20.7708 4.14708 19.8529 3.2292 18.7239 2.65396C18.0247 2.29768 17.261 2.14462 16.3654 2.07144C15.4908 1.99999 14.4068 1.99999 13.0438 2H13H11ZM11.7137 6.38217C11.9033 6.14088 12.1931 6 12.5 6H15.5C15.8819 6 16.2305 6.21755 16.3983 6.56064C16.5661 6.90374 16.5238 7.31246 16.2893 7.61394L14.0446 10.5H16.6751L16.685 10.5C16.7238 10.4999 16.8085 10.4997 16.8866 10.5068L16.8875 10.5069C16.9584 10.5133 17.2264 10.5377 17.4782 10.7364C17.7389 10.9421 17.8928 11.2545 17.8968 11.5865C17.9008 11.9072 17.7567 12.1346 17.7186 12.1946L17.7181 12.1955C17.6761 12.2617 17.6243 12.3287 17.6006 12.3594L17.5945 12.3673L13.0794 18.2368L13.0705 18.2484C13.0365 18.2928 12.9789 18.3679 12.9223 18.43L12.9184 18.4343C12.8806 18.4768 12.659 18.7264 12.2854 18.7903C11.9184 18.853 11.5446 18.7259 11.292 18.4524C11.0348 18.174 11.0113 17.841 11.0072 17.7842L11.0068 17.7785C10.9998 17.6947 10.9999 17.6 11 17.5442L11 17.5296V15H7.32919L7.31907 15C7.27977 15.0001 7.19479 15.0003 7.11646 14.9932L7.11509 14.993C7.04445 14.9866 6.77445 14.9621 6.52177 14.7615C6.26046 14.554 6.10744 14.2392 6.10575 13.9056C6.10412 13.5829 6.25165 13.3555 6.29024 13.296L6.29099 13.2948C6.33378 13.2288 6.38644 13.1621 6.41079 13.1313L6.41706 13.1233L11.7137 6.38217Z" fill="currentColor"/>
</svg>
