<svg width="24" height="24" viewBox="0 0 24 24" fill="none" xmlns="http://www.w3.org/2000/svg">
<path fill-rule="evenodd" clip-rule="evenodd" d="M10.9882 1.99994L10.8863 1.99991C10.2513 1.99961 9.77149 1.99938 9.3088 2.11046C8.90066 2.20845 8.51048 2.37007 8.15259 2.58938C7.74687 2.83801 7.40776 3.17743 6.95897 3.62666L6.88695 3.69872L3.69872 6.88695L3.62665 6.95897C3.17743 7.40776 2.83801 7.74687 2.58938 8.15259C2.37007 8.51048 2.20845 8.90066 2.11046 9.3088C1.99938 9.77149 1.99961 10.2513 1.99991 10.8863L1.99994 10.9882V16.1999L1.99994 16.2412C1.99993 17.0462 1.99992 17.7106 2.04413 18.2518C2.09006 18.8139 2.18862 19.3306 2.43591 19.8159C2.81941 20.5686 3.43133 21.1805 4.18398 21.564C4.66931 21.8113 5.18602 21.9098 5.74812 21.9557C6.2893 22 6.95366 22 7.75862 21.9999H7.79994H7.99994C8.55223 21.9999 8.99994 21.5522 8.99994 20.9999C8.99994 20.4477 8.55223 19.9999 7.99994 19.9999H7.79994C6.94336 19.9999 6.36107 19.9992 5.91098 19.9624C5.47256 19.9266 5.24836 19.8616 5.09196 19.782C4.71564 19.5902 4.40967 19.2842 4.21793 18.9079C4.13824 18.7515 4.07331 18.5273 4.03749 18.0889C4.00072 17.6388 3.99994 17.0565 3.99994 16.1999V10.9999H9.19994L9.22307 10.9999C9.34219 11 9.48445 11 9.60977 10.9898C9.75499 10.9779 9.96298 10.9475 10.1809 10.8365C10.4632 10.6926 10.6926 10.4632 10.8365 10.1809C10.9475 9.96298 10.9779 9.75499 10.9898 9.60977C11 9.48445 11 9.34219 10.9999 9.22307L10.9999 9.19994V3.99994H14.1999C15.0565 3.99994 15.6388 4.00072 16.0889 4.03749C16.5273 4.07331 16.7515 4.13824 16.9079 4.21793C17.2842 4.40967 17.5902 4.71564 17.782 5.09196C17.8616 5.24836 17.9266 5.47256 17.9624 5.91098C17.9992 6.36107 17.9999 6.94336 17.9999 7.79994V7.99994C17.9999 8.55223 18.4477 8.99994 18.9999 8.99994C19.5522 8.99994 19.9999 8.55223 19.9999 7.99994V7.79994V7.75862C20 6.95366 20 6.2893 19.9557 5.74812C19.9098 5.18602 19.8113 4.66931 19.564 4.18398C19.1805 3.43133 18.5686 2.81941 17.8159 2.43591C17.3306 2.18862 16.8139 2.09006 16.2518 2.04413C15.7106 1.99992 15.0462 1.99993 14.2412 1.99994L14.1999 1.99994H10.9882ZM8.99994 8.99994H4.43997C4.56014 8.85783 4.75206 8.66204 5.11294 8.30116L8.30116 5.11294C8.66204 4.75206 8.85783 4.56014 8.99994 4.43997V8.99994ZM15.1999 11.9999H15.1613H15.1613H15.1613H15.1612C14.6341 11.9999 14.1794 11.9998 13.8049 12.0305C13.4095 12.0628 13.0163 12.1341 12.6379 12.3269C12.0734 12.6145 11.6145 13.0734 11.3269 13.6379C11.1341 14.0163 11.0628 14.4095 11.0305 14.8049C10.9998 15.1794 10.9999 15.6341 10.9999 16.1612V16.1613V16.1613V16.1613V16.1999V18.7999V18.8384V18.8385V18.8385V18.8385C10.9999 19.3656 10.9998 19.8204 11.0305 20.1949C11.0628 20.5903 11.1341 20.9835 11.3269 21.3619C11.6145 21.9263 12.0734 22.3853 12.6379 22.6729C13.0163 22.8657 13.4095 22.937 13.8049 22.9693C14.1794 22.9999 14.6342 22.9999 15.1613 22.9999H15.1613H15.1614H15.1999H17.7999H17.8384H17.8384H17.8385C18.3656 22.9999 18.8203 22.9999 19.1949 22.9693C19.5903 22.937 19.9835 22.8657 20.3619 22.6729C20.9263 22.3853 21.3853 21.9263 21.6729 21.3619C21.8657 20.9835 21.937 20.5903 21.9693 20.1949C21.9999 19.8203 21.9999 19.3656 21.9999 18.8385V18.8384V18.8384V18.7999V16.1999V16.1614V16.1613V16.1613C21.9999 15.6342 21.9999 15.1794 21.9693 14.8049C21.937 14.4095 21.8657 14.0163 21.6729 13.6379C21.3853 13.0734 20.9263 12.6145 20.3619 12.3269C19.9835 12.1341 19.5903 12.0628 19.1949 12.0305C18.8204 11.9998 18.3656 11.9999 17.8385 11.9999H17.8385H17.8385H17.8384H17.7999H15.1999ZM17.9011 20.9999L16.5175 18.568L15.087 20.9999H12.9999L15.4036 17.4944L13.1875 13.9999H15.3098L16.5878 16.3442L17.948 13.9999H19.953L17.69 17.4725L19.9999 20.9999H17.9011Z" fill="currentColor"/>
</svg>
