<svg width="24" height="24" viewBox="0 0 24 24" fill="none" xmlns="http://www.w3.org/2000/svg">
<path fill-rule="evenodd" clip-rule="evenodd" d="M12 2.00001L11.9299 2H11.9298H11.9298C11.0677 1.99997 10.5584 1.99996 10.1179 2.04334C5.84486 2.4642 2.4642 5.84486 2.04334 10.1179C1.99996 10.5584 1.99997 11.0677 2 11.9298V11.9299V11.9299L2.00001 12.0001L2 12.0702V12.0702V12.0703C1.99997 12.9324 1.99996 13.4418 2.04334 13.8823C2.4642 18.1553 5.84486 21.5359 10.1179 21.9568C10.5584 22.0002 11.0678 22.0002 11.9299 22.0001H12H12.0701C12.9322 22.0002 13.4416 22.0002 13.8822 21.9568C18.1552 21.5359 21.5358 18.1553 21.9567 13.8823C22.0001 13.4418 22 12.9323 22 12.0702V12.0001V11.93C22 11.0678 22.0001 10.5584 21.9567 10.1179C21.5358 5.84486 18.1552 2.4642 13.8822 2.04334C13.4417 1.99996 12.9323 1.99997 12.0702 2H12.0702H12.0701L12 2.00001ZM8.00001 11.5C7.67857 11.5 7.37672 11.6545 7.18877 11.9153C7.00082 12.1761 6.94968 12.5113 7.05133 12.8162C7.34716 13.7037 7.92606 14.7153 8.7304 15.5196C9.53554 16.3247 10.6501 17 12 17C13.35 17 14.4645 16.3247 15.2696 15.5196C16.074 14.7153 16.6529 13.7037 16.9487 12.8162C17.0503 12.5113 16.9992 12.1761 16.8113 11.9153C16.6233 11.6545 16.3215 11.5 16 11.5H8.00001ZM8 7C7.44772 7 7 7.44772 7 8V9C7 9.55229 7.44772 10 8 10H9C9.55229 10 10 9.55229 10 9V8C10 7.44772 9.55229 7 9 7H8ZM15 7C14.4477 7 14 7.44772 14 8V9C14 9.55229 14.4477 10 15 10H16C16.5523 10 17 9.55229 17 9V8C17 7.44772 16.5523 7 16 7H15Z" fill="currentColor"/>
</svg>
