<svg width="24" height="24" viewBox="0 0 24 24" fill="none" xmlns="http://www.w3.org/2000/svg">
<path fill-rule="evenodd" clip-rule="evenodd" d="M12 2L11.9299 2H11.9298C11.0677 1.99997 10.5584 1.99996 10.1179 2.04334C5.84486 2.4642 2.4642 5.84486 2.04334 10.1179C1.99996 10.5584 1.99997 11.0678 2 11.9299V11.9299L2 12.0001L2 12.0702V12.0702C1.99997 12.9324 1.99996 13.4418 2.04334 13.8823C2.4642 18.1553 5.84486 21.5359 10.1179 21.9568C10.5584 22.0002 11.0678 22.0002 11.9299 22.0001H12H12.0701C12.9322 22.0002 13.4416 22.0002 13.8822 21.9568C18.1552 21.5359 21.5358 18.1553 21.9567 13.8823C22.0001 13.4418 22 12.9323 22 12.0702V12.0001V11.93C22 11.0678 22.0001 10.5584 21.9567 10.1179C21.5358 5.84486 18.1552 2.4642 13.8822 2.04334C13.4416 1.99996 12.9323 1.99997 12.0702 2H12.0701L12 2ZM10.3139 4.03371C10.6438 4.00122 11.0475 4 12 4C12.9525 4 13.3562 4.00122 13.6861 4.03371C17.0096 4.36104 19.639 6.99045 19.9663 10.3139C19.9988 10.6438 20 11.0476 20 12.0001C20 12.9526 19.9988 13.3563 19.9663 13.6862C19.639 17.0097 17.0096 19.6391 13.6861 19.9664C13.3562 19.9989 12.9525 20.0001 12 20.0001C11.0475 20.0001 10.6438 19.9989 10.3139 19.9664C6.99045 19.6391 4.36104 17.0097 4.03371 13.6862C4.00122 13.3563 4 12.9526 4 12.0001C4 11.0476 4.00122 10.6438 4.03371 10.3139C4.36104 6.99045 6.99045 4.36104 10.3139 4.03371ZM15 7C14.4477 7 14 7.44772 14 8V9C14 9.55229 14.4477 10 15 10H16C16.5523 10 17 9.55229 17 9V8C17 7.44772 16.5523 7 16 7H15ZM7 8C7 7.44772 7.44772 7 8 7H9C9.55229 7 10 7.44772 10 8V9C10 9.55229 9.55229 10 9 10H8C7.44772 10 7 9.55229 7 9V8ZM8 11.5C7.67856 11.5 7.37671 11.6545 7.18876 11.9153C7.00081 12.1761 6.94967 12.5113 7.05132 12.8162C7.34715 13.7037 7.92606 14.7153 8.7304 15.5196C9.53554 16.3247 10.65 17 12 17C13.35 17 14.4645 16.3247 15.2696 15.5196C16.0739 14.7153 16.6529 13.7037 16.9487 12.8162C17.0503 12.5113 16.9992 12.1761 16.8112 11.9153C16.6233 11.6545 16.3214 11.5 16 11.5H8ZM10.1446 14.1054C9.95741 13.9182 9.78631 13.7129 9.63368 13.5H14.3663C14.2137 13.7129 14.0426 13.9182 13.8554 14.1054C13.2855 14.6753 12.65 15 12 15C11.35 15 10.7145 14.6753 10.1446 14.1054Z" fill="currentColor"/>
</svg>
