<svg width="24" height="24" viewBox="0 0 24 24" fill="none" xmlns="http://www.w3.org/2000/svg">
<path fill-rule="evenodd" clip-rule="evenodd" d="M16.0002 4C15.4479 4 15.0002 3.55229 15.0002 3.00001C15.0002 2.44772 15.4479 2.00001 16.0002 2.00001H19.4002L19.4321 2C19.6844 1.99997 19.9302 1.99994 20.1384 2.01695C20.367 2.03563 20.6367 2.07969 20.9081 2.21799C21.2845 2.40974 21.5904 2.7157 21.7822 3.09202C21.9205 3.36345 21.9645 3.63318 21.9832 3.86178C22.0002 4.06994 22.0002 4.31573 22.0002 4.56812L22.0002 4.6V8.00001C22.0002 8.55229 21.5524 9.00001 21.0002 9.00001C20.4479 9.00001 20.0002 8.55229 20.0002 8.00001V5.41422L11.7073 13.7071C11.3167 14.0976 10.6836 14.0976 10.2931 13.7071C9.90253 13.3166 9.90253 12.6834 10.2931 12.2929L18.5859 4H16.0002ZM11.0036 5.00115C11.5558 4.99919 12.002 4.54988 12 3.9976C11.998 3.44532 11.5487 2.9992 10.9964 3.00117C8.90993 3.00859 7.46296 3.04925 6.27606 3.65401C5.14708 4.22925 4.2292 5.14713 3.65396 6.2761C3.29768 6.97535 3.14462 7.73903 3.07144 8.63464C2.99999 9.50924 2.99999 10.5933 3 11.9564L3 12.0001L3 12.0439C2.99999 13.4069 2.99999 14.491 3.07144 15.3656C3.14462 16.2612 3.29768 17.0249 3.65396 17.7241L4.54497 17.2701L3.65396 17.7241C4.2292 18.8531 5.14708 19.771 6.27606 20.3462C6.9753 20.7025 7.73898 20.8556 8.63458 20.9287C9.50914 21.0002 10.5931 21.0002 11.9561 21.0002H11.9562H12H12.0438H12.0439C13.4069 21.0002 14.4909 21.0002 15.3654 20.9287C16.261 20.8556 17.0247 20.7025 17.7239 20.3462C18.8529 19.771 19.7708 18.8531 20.346 17.7241C20.9508 16.5372 20.9915 15.0902 20.9989 13.0036C21.0008 12.4513 20.5547 12.002 20.0024 12.0001C19.4502 11.9981 19.0009 12.4442 18.9989 12.9965C18.991 15.2102 18.911 16.1352 18.564 16.8161C18.1805 17.5688 17.5686 18.1807 16.816 18.5642C16.4457 18.7529 15.9745 18.8723 15.2026 18.9354C14.419 18.9994 13.4166 19.0002 12 19.0002C10.5834 19.0002 9.58104 18.9994 8.79744 18.9354C8.02552 18.8723 7.55435 18.7529 7.18404 18.5642C6.43139 18.1807 5.81947 17.5688 5.43597 16.8161C5.24729 16.4458 5.12787 15.9746 5.0648 15.2027C5.00078 14.4191 5 13.4168 5 12.0001C5 10.5835 5.00078 9.58111 5.0648 8.7975C5.12787 8.02557 5.24729 7.5544 5.43597 7.18409C5.81947 6.43144 6.43139 5.81952 7.18404 5.43602C7.86497 5.08907 8.78993 5.00903 11.0036 5.00115Z" fill="currentColor"/>
</svg>
