<svg width="24" height="24" viewBox="0 0 24 24" fill="none" xmlns="http://www.w3.org/2000/svg">
<path fill-rule="evenodd" clip-rule="evenodd" d="M3.22282 1.86367C3.51458 1.55827 3.89554 1.35307 4.31109 1.27749C4.61081 1.22298 4.88185 1.25825 5.10618 1.30603C5.31044 1.34952 5.54585 1.42015 5.78758 1.49267L5.78762 1.49268L5.8182 1.50185L7.73224 2.07585L7.76312 2.0851C8.00816 2.15855 8.24643 2.22998 8.44303 2.30699C8.65866 2.39146 8.90706 2.51269 9.12877 2.72637C9.43575 3.02222 9.64015 3.40843 9.71215 3.82864C9.76416 4.13214 9.72472 4.40572 9.6733 4.63152C9.62643 4.83736 9.55151 5.0745 9.47446 5.31838L9.47442 5.31851L9.47441 5.31855L9.46471 5.34925L8.83361 7.34765L12 8.19226L12 6.99997C12.0001 6.44769 12.4478 6 13.0001 6.00003C13.5524 6.00006 14.0001 6.4478 14 7.00008L13.9999 8.34449L14.1328 8.76118L17.178 9.57347C17.468 8.84634 18.0858 8.29076 18.853 8.08521C19.1758 7.99871 19.5382 7.99931 19.9069 7.99992L20 8.00003L20.0931 7.99992C20.4618 7.99931 20.8242 7.99871 21.1471 8.08521C22.0098 8.31638 22.6837 8.99025 22.9148 9.85298C23.0013 10.1758 23.0007 10.5382 23.0001 10.9069V10.907L23 11L23.0001 11.0931V11.0931C23.0007 11.4618 23.0013 11.8242 22.9148 12.1471C22.6837 13.0098 22.0098 13.6837 21.1471 13.9148C20.8242 14.0013 20.4618 14.0007 20.0931 14.0001L20 14L19.907 14.0001C19.5382 14.0007 19.1758 14.0013 18.853 13.9148C17.9902 13.6837 17.3164 13.0098 17.0852 12.1471C17.0388 11.9737 17.0174 11.789 17.0077 11.598L14.8541 11.0235L17.7162 20H18.5C19.0523 20 19.5 20.4477 19.5 21C19.5 21.5523 19.0523 22 18.5 22H4.00002C3.44774 22 3.00002 21.5523 3.00002 21C3.00002 20.4477 3.44774 20 4.00002 20H5.00006L4.99992 13.814C4.79851 13.768 4.62646 13.7223 4.46952 13.6684C2.17178 12.8793 0.773809 10.5527 1.15577 8.15339C1.20849 7.82222 1.31954 7.4521 1.48309 6.90694L1.48309 6.90693L1.50655 6.82875L2.58089 3.24556L2.59005 3.21502C2.66251 2.97325 2.73308 2.73779 2.80915 2.54327C2.8927 2.32967 3.01238 2.08395 3.22282 1.86367ZM8.2307 9.25676L11.4364 10.1119L8.28367 20H7.00006L6.99991 13.1541L8.2307 9.25676ZM5.31925 11.8346C5.23773 11.8143 5.17521 11.7961 5.11915 11.7768C3.7405 11.3034 2.90172 9.90739 3.1309 8.46783C3.15973 8.28675 3.22663 8.05573 3.42229 7.40315L4.49664 3.81996C4.5818 3.53592 4.62915 3.38071 4.67176 3.27177L4.67664 3.25947L4.6896 3.26216C4.80402 3.28653 4.95966 3.33239 5.24371 3.41757L7.15775 3.99156C7.44544 4.07783 7.603 4.1259 7.71356 4.16921L7.72616 4.17422L7.72322 4.18747C7.69686 4.30324 7.648 4.46055 7.55755 4.74696L5.31925 11.8346ZM15.617 20L12.9999 11.792L10.3829 20H15.617ZM19.3706 10.0171C19.3669 10.0181 19.392 10.0102 19.4986 10.0054C19.6107 10.0003 19.7585 10 20 10C20.2416 10 20.3894 10.0003 20.5014 10.0054C20.6081 10.0102 20.6332 10.0181 20.6294 10.0171C20.802 10.0633 20.9368 10.1981 20.983 10.3706C20.982 10.3669 20.9898 10.392 20.9947 10.4986C20.9998 10.6107 21 10.7585 21 11C21 11.2416 20.9998 11.3894 20.9947 11.5014C20.9898 11.6081 20.982 11.6332 20.983 11.6294C20.9368 11.802 20.802 11.9368 20.6294 11.983C20.6332 11.982 20.6081 11.9898 20.5014 11.9947C20.3894 11.9998 20.2416 12 20 12C19.7585 12 19.6107 11.9998 19.4986 11.9947C19.392 11.9898 19.3669 11.982 19.3706 11.983C19.1981 11.9368 19.0633 11.802 19.0171 11.6294C19.0181 11.6332 19.0102 11.6081 19.0054 11.5014C19.0003 11.3894 19 11.2416 19 11C19 10.7585 19.0003 10.6107 19.0054 10.4986C19.0096 10.4049 19.0162 10.3741 19.0171 10.3706C19.0633 10.1981 19.1981 10.0633 19.3706 10.0171ZM19.0171 10.3706C19.0172 10.3702 19.0172 10.3701 19.0171 10.3706H19.0171Z" fill="currentColor"/>
</svg>
