<svg width="24" height="24" viewBox="0 0 24 24" fill="none" xmlns="http://www.w3.org/2000/svg">
<path fill-rule="evenodd" clip-rule="evenodd" d="M7.88402 17.481C6.91725 17.2257 5.99485 16.8743 5.15677 16.4225L4.3945 17.947C4.14751 18.441 3.54684 18.6412 3.05286 18.3943C2.55888 18.1473 2.35865 17.5466 2.60564 17.0526L3.47626 15.3114L1.41152 13.8083C0.965021 13.4832 0.866562 12.8578 1.19161 12.4113C1.51665 11.9648 2.14211 11.8663 2.58862 12.1914L5.27191 14.1448C6.96144 15.3508 9.44025 15.9998 12.0001 15.9998C14.5599 15.9998 17.0388 15.3508 18.7285 14.1448L21.4115 12.1914C21.858 11.8663 22.4834 11.9648 22.8085 12.4112C23.1336 12.8577 23.0351 13.4832 22.5887 13.8083L19.902 15.7643L19.8948 15.7695L19.8948 15.7695C19.8601 15.7943 19.8251 15.819 19.7899 15.8434L20.3945 17.0526C20.6415 17.5466 20.4413 18.1473 19.9473 18.3943C19.4533 18.6412 18.8526 18.441 18.6056 17.947L18.0394 16.8145C17.1397 17.2102 16.1659 17.5038 15.1599 17.6999L15.4807 19.3037C15.589 19.8453 15.2377 20.3721 14.6962 20.4804C14.1546 20.5887 13.6278 20.2375 13.5195 19.6959L13.1722 17.9594C12.7815 17.9864 12.39 17.9998 12.0001 17.9998C11.283 17.9998 10.5606 17.9545 9.84734 17.8625L9.48065 19.6959C9.37234 20.2375 8.84551 20.5887 8.30395 20.4804C7.76239 20.3721 7.41118 19.8453 7.51949 19.3037L7.88402 17.481Z" fill="currentColor"/>
</svg>
