<svg width="24" height="24" viewBox="0 0 24 24" fill="none" xmlns="http://www.w3.org/2000/svg">
<path fill-rule="evenodd" clip-rule="evenodd" d="M20.1364 8.4628C18.0615 5.45328 15.063 3.88257 12.0001 3.88257C8.93711 3.88257 5.93861 5.45326 3.86353 8.46277L3.8635 8.46275L3.85865 8.46991L1.17195 12.4394C0.862392 12.8968 0.982214 13.5185 1.43959 13.8281C1.89696 14.1377 2.51868 14.0178 2.82825 13.5605L5.51247 9.5946C7.25051 7.07601 9.65752 5.88257 12.0001 5.88257C14.3426 5.88257 16.7495 7.07601 18.4874 9.59458L21.172 13.5605C21.4816 14.0179 22.1033 14.1377 22.5607 13.8281C23.018 13.5185 23.1378 12.8968 22.8282 12.4394L20.1413 8.46988L20.1413 8.46986L20.1364 8.4628ZM8.5001 12.9999C8.5001 11.0669 10.0671 9.49994 12.0001 9.49994C13.9331 9.49994 15.5001 11.0669 15.5001 12.9999C15.5001 14.9329 13.9331 16.4999 12.0001 16.4999C10.0671 16.4999 8.5001 14.9329 8.5001 12.9999ZM12.0001 7.49994C8.96253 7.49994 6.5001 9.96238 6.5001 12.9999C6.5001 16.0375 8.96253 18.4999 12.0001 18.4999C15.0377 18.4999 17.5001 16.0375 17.5001 12.9999C17.5001 9.96238 15.0377 7.49994 12.0001 7.49994Z" fill="currentColor"/>
</svg>
