<svg width="24" height="24" viewBox="0 0 24 24" fill="none" xmlns="http://www.w3.org/2000/svg">
<path fill-rule="evenodd" clip-rule="evenodd" d="M15.3123 4.00001C15.9289 4 16.3219 4.001 16.6042 4.02683C16.7394 4.0392 16.8105 4.05492 16.8408 4.06295C16.8661 4.0898 16.8835 4.12315 16.891 4.15925C16.8801 4.18873 16.8523 4.25597 16.7849 4.37381C16.6441 4.61991 16.4196 4.94242 16.066 5.44759L12.6269 10.3606L12.5736 10.4368L12.5735 10.4368C12.0872 11.1313 11.769 11.5858 11.54 12.0885C11.3371 12.5336 11.1895 13.0019 11.1004 13.4829C10.9997 14.0261 10.9998 14.5809 11 15.4288V15.4288V15.4288V15.4288L11 15.5218V20.0002H8.99997V15.5219L8.99997 15.429V15.429C9.0001 14.5811 9.00019 14.0263 8.89954 13.4831C8.81041 13.0021 8.6628 12.5338 8.45998 12.0887C8.23095 11.586 7.91271 11.1315 7.42638 10.4369L7.37307 10.3608L3.9339 5.44766C3.58029 4.9425 3.35576 4.61999 3.21502 4.37389C3.14763 4.25606 3.11975 4.18882 3.10893 4.15934C3.11644 4.12324 3.1338 4.0899 3.15906 4.06304C3.18942 4.05501 3.26049 4.03929 3.39567 4.02692C3.67799 4.00109 4.07096 4.00008 4.68759 4.00008L15.3123 4.00001ZM18.0344 2.45456C17.6392 2.15133 17.1695 2.0702 16.7864 2.03515C16.4017 1.99995 15.9156 1.99997 15.3579 2H15.3578L15.3123 2.00001L4.68757 2.00008L4.64204 2.00008C4.08431 2.00005 3.5982 2.00004 3.21344 2.03524C2.83032 2.07029 2.36072 2.15144 1.96552 2.45466C1.44962 2.85049 1.13526 3.45427 1.10684 4.10391C1.08506 4.60156 1.28788 5.0328 1.47887 5.36676C1.67068 5.70216 1.94946 6.10038 2.26932 6.55728L2.29543 6.59458L5.7346 11.5077C6.29231 12.3044 6.49639 12.6027 6.63998 12.9179C6.77519 13.2146 6.8736 13.5268 6.93302 13.8475C6.99611 14.188 6.99997 14.5494 6.99997 15.5219V21.0002C6.99997 21.5525 7.44768 22.0002 7.99997 22.0002H12C12.5523 22.0002 13 21.5525 13 21.0002V15.5218C13 14.5492 13.0038 14.1878 13.0669 13.8473C13.1263 13.5266 13.2247 13.2144 13.36 12.9177C13.5035 12.6025 13.7076 12.3043 14.2653 11.5075L17.7044 6.59451L17.7306 6.55718C18.0504 6.10029 18.3292 5.70207 18.521 5.36668C18.712 5.03271 18.9148 4.60147 18.8931 4.10381C18.8646 3.45417 18.5503 2.85039 18.0344 2.45456ZM16 19C15.4477 19 15 19.4477 15 20C15 20.5523 15.4477 21 16 21H21C21.5522 21 22 20.5523 22 20C22 19.4477 21.5522 19 21 19H16ZM15 17C15 16.4477 15.4477 16 16 16H21C21.5522 16 22 16.4477 22 17C22 17.5523 21.5522 18 21 18H16C15.4477 18 15 17.5523 15 17ZM16 13C15.4477 13 15 13.4477 15 14C15 14.5523 15.4477 15 16 15H21C21.5522 15 22 14.5523 22 14C22 13.4477 21.5522 13 21 13H16Z" fill="currentColor"/>
</svg>
