<svg width="24" height="24" viewBox="0 0 24 24" fill="none" xmlns="http://www.w3.org/2000/svg">
<path fill-rule="evenodd" clip-rule="evenodd" d="M20.2071 2.70711C20.5976 2.31658 20.5976 1.68342 20.2071 1.29289C19.8166 0.902369 19.1834 0.902369 18.7929 1.29289L18.0855 2.00024L6.6229 2.00006L6.57757 2.00005H6.57756C6.02873 2.00002 5.54934 1.99999 5.16921 2.0348C4.78945 2.06957 4.32549 2.15013 3.93274 2.44874C3.41867 2.83959 3.10229 3.43656 3.06747 4.0814C3.04086 4.57406 3.23468 5.00322 3.41911 5.33701C3.60372 5.67112 3.8729 6.06781 4.18106 6.52197L4.20651 6.55947L7.48716 11.3948C7.49931 11.4128 7.51204 11.4303 7.52532 11.4473C7.71941 11.6969 7.87751 11.9002 8.01037 12.0754L2.29289 17.7929C1.90237 18.1834 1.90237 18.8166 2.29289 19.2071C2.68342 19.5976 3.31658 19.5976 3.70711 19.2071L19.1938 3.72042C19.2028 3.71179 19.2115 3.703 19.2202 3.69404L20.2071 2.70711ZM16.0856 4.00021L6.62287 4.00006C6.01532 4.00005 5.62917 4.00105 5.35158 4.02646C5.21914 4.03859 5.14946 4.05397 5.11969 4.06184C5.09415 4.08855 5.0765 4.12185 5.06873 4.15799C5.07894 4.18704 5.10533 4.25334 5.16965 4.36974C5.30447 4.61372 5.52044 4.93383 5.86154 5.43659L9.12396 10.2451C9.23632 10.3895 9.34052 10.5236 9.43702 10.6488L16.0856 4.00021ZM21.2069 7.20709C21.5974 6.81655 21.5974 6.18339 21.2068 5.79287C20.8163 5.40236 20.1831 5.40238 19.7926 5.79291L15.2929 10.2929L15.2929 10.2929C14.4839 11.1019 13.899 11.9994 13.6308 12.5371C13.3944 13.011 13.2218 13.5141 13.1174 14.0333C12.9996 14.6198 12.9997 15.2224 12.9998 16.1435L12.9998 16.2447V20.0001H10.9998V16.5C10.9998 15.9477 10.5521 15.5 9.99984 15.5C9.44756 15.5 8.99984 15.9477 8.99984 16.5V21.0001C8.99984 21.5524 9.44756 22.0001 9.99984 22.0001H13.9998C14.5521 22.0001 14.9998 21.5524 14.9998 21.0001V16.2447C14.9998 15.1878 15.0044 14.795 15.0782 14.4274C15.1478 14.0812 15.2629 13.7458 15.4205 13.4298L14.5257 12.9835L15.4205 13.4298C15.5964 13.0773 16.0566 12.3576 16.7071 11.7071L16.7071 11.7071L21.2069 7.20709Z" fill="currentColor"/>
</svg>
