<svg width="24" height="24" viewBox="0 0 24 24" fill="none" xmlns="http://www.w3.org/2000/svg">
<path fill-rule="evenodd" clip-rule="evenodd" d="M15.3125 4.00013C15.9292 4.00012 16.3221 4.00112 16.6045 4.02695C16.7396 4.03932 16.8107 4.05504 16.8411 4.06307C16.8663 4.08993 16.8837 4.12327 16.8912 4.15937C16.8804 4.18885 16.8525 4.25609 16.7851 4.37393C16.6444 4.62003 16.4198 4.94255 16.0662 5.44771L12.0411 11.1979C11.3636 12.1657 11.0002 13.3186 11.0002 14.5C11.0002 15.0523 11.4479 15.5 12.0002 15.5C12.5525 15.5 13.0002 15.0523 13.0002 14.5C13.0002 13.7289 13.2374 12.9765 13.6796 12.3448L17.7047 6.59464L17.7308 6.5573C18.0507 6.10041 18.3295 5.70219 18.5213 5.3668C18.7123 5.03283 18.9151 4.60159 18.8933 4.10394C18.8649 3.45429 18.5505 2.85051 18.0346 2.45468C17.6394 2.15146 17.1698 2.07032 16.7867 2.03527C16.4019 2.00007 15.9158 2.0001 15.3581 2.00012H15.358L15.3125 2.00013L4.68782 2.0002L4.64228 2.0002C4.08455 2.00018 3.59844 2.00016 3.21369 2.03536C2.83057 2.07042 2.36097 2.15156 1.96577 2.45478C1.44987 2.85061 1.13551 3.4544 1.10708 4.10403C1.0853 4.60168 1.28813 5.03292 1.47912 5.36689C1.67092 5.70228 1.9497 6.1005 2.26956 6.5574L2.29568 6.5947L5.73484 11.5078C6.29256 12.3046 6.49664 12.6028 6.64022 12.918C6.77543 13.2148 6.87384 13.5269 6.93326 13.8476C6.99636 14.1881 7.00021 14.5495 7.00021 15.5221V21.0003C7.00021 21.5526 7.44792 22.0003 8.00021 22.0003H11.0001C11.5524 22.0003 12.0001 21.5526 12.0001 21.0003C12.0001 20.4481 11.5524 20.0003 11.0001 20.0003H9.00021V15.5221L9.00022 15.4291V15.4291C9.00035 14.5812 9.00043 14.0264 8.89979 13.4832C8.81066 13.0022 8.66304 12.5339 8.46022 12.0888C8.23119 11.5861 7.91296 11.1316 7.42662 10.4371L7.37331 10.3609L3.93414 5.44778C3.58053 4.94262 3.356 4.62011 3.21527 4.37402C3.14788 4.25618 3.12 4.18894 3.10917 4.15946C3.11668 4.12336 3.13404 4.09002 3.15931 4.06317C3.18967 4.05513 3.26074 4.03941 3.39592 4.02704C3.67824 4.00121 4.07121 4.0002 4.68783 4.0002L15.3125 4.00013ZM19.0001 14.0001C19.0001 13.4478 18.5524 13.0001 18.0001 13C17.4479 13 17.0001 13.4477 17.0001 13.9999L16.9999 17.0001L14.0001 17C13.4478 17 13.0001 17.4477 13.0001 18C13.0001 18.5523 13.4478 19 14.0001 19L16.9999 19.0001L17.0001 22.0001C17.0001 22.5524 17.4479 23.0001 18.0001 23C18.5524 23 19.0001 22.5522 19.0001 21.9999L18.9999 19.0001L22.0001 19C22.5524 19 23.0001 18.5523 23.0001 18C23.0001 17.4477 22.5523 17 22.0001 17L18.9999 17.0001L19.0001 14.0001Z" fill="currentColor"/>
</svg>
