<svg width="24" height="24" viewBox="0 0 24 24" fill="none" xmlns="http://www.w3.org/2000/svg">
<path fill-rule="evenodd" clip-rule="evenodd" d="M18.6042 4.02683C18.3219 4.001 17.9289 4 17.3123 4L6.68759 4.00008C6.07096 4.00008 5.67799 4.00109 5.39567 4.02692C5.26049 4.03929 5.18942 4.05501 5.15906 4.06304C5.1338 4.0899 5.11644 4.12324 5.10893 4.15934C5.11975 4.18882 5.14763 4.25605 5.21502 4.37389C5.35576 4.61999 5.58029 4.9425 5.9339 5.44766L9.37307 10.3608C9.39106 10.3865 9.40883 10.4119 9.42638 10.4369C9.91271 11.1315 10.2309 11.586 10.46 12.0886C10.6628 12.5338 10.8104 13.0021 10.8995 13.4831C11.0002 14.0263 11.0001 14.5811 11 15.429C11 15.4596 11 15.4906 11 15.5219V20.0002H13V15.5218C13 15.4904 13 15.4594 13 15.4288C12.9998 14.5809 12.9997 14.0261 13.1004 13.4829C13.1895 13.0019 13.3371 12.5336 13.54 12.0885C13.769 11.5858 14.0872 11.1313 14.5736 10.4368C14.5911 10.4117 14.6089 10.3863 14.6269 10.3606L18.066 5.44759C18.4196 4.94242 18.6441 4.61991 18.7849 4.3738C18.8523 4.25596 18.8801 4.18872 18.891 4.15925C18.8835 4.12315 18.8661 4.0898 18.8408 4.06295C18.8105 4.05491 18.7394 4.0392 18.6042 4.02683ZM18.7864 2.03515C19.1695 2.0702 19.6392 2.15133 20.0344 2.45455C20.5503 2.85039 20.8646 3.45417 20.8931 4.10381C20.9148 4.60146 20.712 5.03271 20.521 5.36668C20.3292 5.70207 20.0504 6.10029 19.7306 6.55718L19.7044 6.59451L16.2653 11.5075C15.7076 12.3043 15.5035 12.6025 15.36 12.9177C15.2247 13.2144 15.1263 13.5266 15.0669 13.8473C15.0038 14.1878 15 14.5492 15 15.5218V21.0002C15 21.5525 14.5523 22.0002 14 22.0002H9.99997C9.44768 22.0002 8.99997 21.5525 8.99997 21.0002V15.5219C8.99997 14.5494 8.99611 14.188 8.93302 13.8475C8.8736 13.5268 8.77519 13.2146 8.63998 12.9179C8.49639 12.6027 8.29231 12.3044 7.7346 11.5077L4.29543 6.59458C4.2867 6.5821 4.27799 6.56967 4.26932 6.55728C3.94946 6.10038 3.67068 5.70216 3.47887 5.36676C3.28788 5.0328 3.08506 4.60155 3.10684 4.10391C3.13526 3.45427 3.44962 2.85049 3.96552 2.45466C4.36072 2.15143 4.83032 2.07029 5.21344 2.03524C5.5982 2.00003 6.08431 2.00005 6.64204 2.00007C6.65716 2.00008 6.67234 2.00008 6.68757 2.00008L17.3123 2L17.3578 2C17.9155 1.99997 18.4017 1.99995 18.7864 2.03515Z" fill="currentColor"/>
</svg>
