<svg width="24" height="24" viewBox="0 0 24 24" fill="none" xmlns="http://www.w3.org/2000/svg">
<path fill-rule="evenodd" clip-rule="evenodd" d="M20.2071 2.70711L19.2137 3.70054L19.2006 3.71361L3.70711 19.2071C3.31658 19.5976 2.68342 19.5976 2.29289 19.2071C1.90237 18.8166 1.90237 18.1834 2.29289 17.7929L8.0187 12.0671L4.24313 6.57398L4.2174 6.53656C3.90444 6.08127 3.63131 5.68393 3.44374 5.34929C3.2566 5.01542 3.05908 4.58539 3.08369 4.09066C3.11588 3.44383 3.43143 2.84405 3.94626 2.45114C4.34002 2.15062 4.8063 2.06982 5.18744 2.03492C5.56947 1.99995 6.05162 1.99997 6.60411 2L6.64952 2H18.0858L18.7929 1.29289C19.1834 0.902369 19.8166 0.902369 20.2071 1.29289C20.5976 1.68342 20.5976 2.31658 20.2071 2.70711ZM21.1908 7.2234C21.5904 6.84209 21.6051 6.2091 21.2238 5.80957C20.8425 5.41005 20.2095 5.39529 19.81 5.7766L14.8092 10.5494L14.7926 10.5657C14.6943 10.6639 14.5993 10.7634 14.5076 10.8633L9.77734 15.8088C9.59934 15.9949 9.5 16.2425 9.5 16.5V21C9.5 21.5523 9.94772 22 10.5 22H13.5C14.0523 22 14.5 21.5523 14.5 21V16.5C14.5 15.443 14.5045 15.0502 14.5784 14.6826C14.648 14.3365 14.763 14.001 14.9207 13.6851C15.0711 13.3836 15.4408 12.8072 15.9671 12.2308L16.2066 11.9804L21.1908 7.2234Z" fill="currentColor"/>
</svg>
