<svg width="24" height="24" viewBox="0 0 24 24" fill="none" xmlns="http://www.w3.org/2000/svg">
<path fill-rule="evenodd" clip-rule="evenodd" d="M19.5785 3.50206C19.5459 3.50035 19.5008 3.5 19.3333 3.5H18.7415C16.6751 3.5 15 5.17513 15 7.24151C15 8.32479 14.543 9.35781 13.7415 10.0865L4.35349 18.621C4.32537 18.6466 4.31976 18.6517 4.31511 18.6561C4.11825 18.8411 4.00464 19.098 4.00014 19.3681C4.00003 19.3745 4 19.3821 4 19.4201C4 19.5019 4.00013 19.5197 4.00049 19.5314C4.01706 20.0591 4.44095 20.4829 4.96863 20.4995C4.98036 20.4999 4.99813 20.5 5.07991 20.5C5.11791 20.5 5.12552 20.5 5.1319 20.4999C5.40204 20.4954 5.65886 20.3818 5.84391 20.1849C5.84827 20.1803 5.85342 20.1746 5.87898 20.1465L14.4135 10.7585C15.1422 9.95698 16.1752 9.5 17.2585 9.5C19.3249 9.5 21 7.82488 21 5.7585V5.16667C21 4.99925 20.9997 4.95413 20.9979 4.9215C20.9578 4.15482 20.3452 3.54224 19.5785 3.50206ZM19.3586 1.5C19.4885 1.49998 19.5909 1.49997 19.6832 1.5048C21.4721 1.59855 22.9015 3.02792 22.9952 4.81683C23 4.90905 23 5.01146 23 5.14141V5.14143V5.14145L23 5.16667V5.7585C23 8.92945 20.4294 11.5 17.2585 11.5C16.7387 11.5 16.243 11.7193 15.8934 12.1039L7.35886 21.4919L7.35493 21.4962L7.35476 21.4964C7.33541 21.5177 7.31841 21.5364 7.30119 21.5547C6.74607 22.1453 5.9756 22.4861 5.16518 22.4996C5.14002 22.5 5.11474 22.5 5.08594 22.5H5.0859H5.08585H5.07991H5.06651H5.06638C5.00561 22.5 4.95339 22.5 4.90587 22.4985C3.32286 22.4488 2.05117 21.1771 2.00148 19.5941C1.99999 19.5466 1.99999 19.4943 2 19.4335L2 19.4201L2 19.4142C2 19.3853 2 19.36 2.00042 19.3348C2.0139 18.5244 2.35474 17.7539 2.94532 17.1988C2.96365 17.1816 2.98235 17.1646 3.00365 17.1452L3.00377 17.1451L3.00381 17.1451L3.00814 17.1411L8.30684 12.3241C7.89969 11.8764 7.7759 11.7469 7.64208 11.6468C7.50618 11.5451 7.3579 11.4612 7.2008 11.3969C7.04419 11.3329 6.86672 11.2932 6.25459 11.1707L6.19477 11.1588C5.8999 11.1 5.63977 11.0482 5.39057 10.9504C5.17136 10.8645 4.96303 10.753 4.76989 10.6183C4.55033 10.4651 4.36305 10.2776 4.15081 10.0651L4.10779 10.022L1.29289 7.20711C0.902369 6.81659 0.902369 6.18342 1.29289 5.7929C1.68342 5.40237 2.31658 5.40237 2.70711 5.7929L5.522 8.6078C5.80099 8.88678 5.85813 8.93887 5.91398 8.97782C5.97836 9.02272 6.0478 9.05989 6.12087 9.08855C6.18425 9.11341 6.25944 9.13209 6.64682 9.20956L6.72622 9.22542L6.72624 9.22543C7.22485 9.32495 7.60177 9.40018 7.95761 9.54565C8.2718 9.6741 8.56837 9.84201 8.84016 10.0453C9.14797 10.2756 9.40616 10.5599 9.74766 10.9358L9.74768 10.9358L9.74769 10.9358L9.78673 10.9788L10.5134 10.3182L10.4956 10.302L10.4358 10.2477L10.4358 10.2477C10.0599 9.90617 9.77563 9.64798 9.54534 9.34017C9.34201 9.06838 9.17409 8.77181 9.04565 8.45761C8.90018 8.10177 8.82495 7.72486 8.72543 7.22625L8.72542 7.22624L8.72542 7.22623L8.70956 7.14682C8.63208 6.75944 8.6134 6.68425 8.58855 6.62088C8.55988 6.54781 8.52272 6.47836 8.47782 6.41398C8.43887 6.35813 8.38678 6.301 8.10779 6.02201L5.29289 3.20711C4.90237 2.81659 4.90237 2.18342 5.29289 1.7929C5.68342 1.40237 6.31658 1.40237 6.70711 1.7929L9.52201 4.6078L9.56507 4.65082C9.77761 4.86306 9.96514 5.05033 10.1183 5.26989C10.253 5.46303 10.3645 5.67136 10.4504 5.89057C10.5482 6.13977 10.6 6.39991 10.6588 6.69478L10.6707 6.75459C10.7931 7.36672 10.8329 7.54419 10.8969 7.7008C10.9612 7.8579 11.0451 8.00619 11.1468 8.14208C11.2481 8.27757 11.3796 8.40277 11.841 8.82216L12 8.96673L12.3961 8.60662C12.7807 8.25697 13 7.7613 13 7.24151C13 4.07056 15.5706 1.5 18.7415 1.5H19.3333L19.3586 1.5ZM15.8601 13.8273C15.4886 14.236 15.5187 14.8684 15.9273 15.2399L19.6465 18.621C19.6746 18.6466 19.6802 18.6517 19.6849 18.6561C19.8818 18.8411 19.9954 19.098 19.9999 19.3681L20 19.379L20 19.4201C20 19.5019 19.9999 19.5197 19.9995 19.5314C19.9829 20.0591 19.559 20.4829 19.0314 20.4995C19.0196 20.4999 19.0019 20.5 18.9201 20.5C18.8981 20.5 18.8863 20.5 18.879 20.5C18.8737 20.4999 18.8708 20.4999 18.8681 20.4999C18.598 20.4954 18.3411 20.3818 18.1561 20.1849C18.1517 20.1803 18.1466 20.1746 18.121 20.1465L14.7399 16.4273C14.3684 16.0187 13.736 15.9886 13.3273 16.3601C12.9187 16.7316 12.8886 17.364 13.2601 17.7727L16.6411 21.4919L16.645 21.4961L16.645 21.4962C16.6645 21.5175 16.6815 21.5363 16.6988 21.5547C17.2539 22.1453 18.0244 22.4861 18.8348 22.4996C18.86 22.5 18.8853 22.5 18.9141 22.5H18.9142H18.9201H18.9335H18.9336C18.9944 22.5 19.0466 22.5 19.0941 22.4985C20.6771 22.4488 21.9488 21.1771 21.9985 19.5941C22 19.5466 22 19.4943 22 19.4335L22 19.4201V19.4142V19.4141V19.4141C22 19.3853 22 19.36 21.9996 19.3348C21.9861 18.5244 21.6453 17.7539 21.0547 17.1988C21.0363 17.1816 21.0176 17.1645 20.9962 17.1451L20.9962 17.1451L20.9919 17.1411L17.2727 13.7601C16.864 13.3886 16.2316 13.4187 15.8601 13.8273ZM4.20711 3.2929C3.81658 2.90237 3.18342 2.90237 2.79289 3.2929C2.40237 3.68342 2.40237 4.31659 2.79289 4.70711L5.79289 7.70711C6.18342 8.09764 6.81658 8.09764 7.20711 7.70711C7.59763 7.31659 7.59763 6.68342 7.20711 6.2929L4.20711 3.2929Z" fill="currentColor"/>
</svg>
