<svg width="24" height="24" viewBox="0 0 24 24" fill="none" xmlns="http://www.w3.org/2000/svg">
<path fill-rule="evenodd" clip-rule="evenodd" d="M13.0438 22H13H10C9.44773 22 9.00002 21.5523 9.00002 21C9.00002 20.4477 9.44773 20 10 20H13C14.4166 20 15.419 19.9992 16.2026 19.9352C16.9745 19.8721 17.4457 19.7527 17.816 19.564C18.5686 19.1805 19.1805 18.5686 19.564 17.816C19.7527 17.4457 19.8721 16.9745 19.9352 16.2026C19.9992 15.419 20 14.4166 20 13V11C20 9.58337 19.9992 8.58104 19.9352 7.79744C19.8721 7.02552 19.7527 6.55435 19.564 6.18404C19.1805 5.43139 18.5686 4.81947 17.816 4.43597C17.4457 4.24729 16.9745 4.12787 16.2026 4.0648C15.419 4.00078 14.4166 4 13 4H11C9.58338 4 8.58105 4.00078 7.79746 4.0648C7.02554 4.12787 6.55437 4.24729 6.18405 4.43597C5.43141 4.81947 4.81948 5.43139 4.43599 6.18404C4.24731 6.55435 4.12789 7.02552 4.06482 7.79744C4.00079 8.58104 4.00002 9.58337 4.00002 11V14C4.00002 14.5523 3.5523 15 3.00002 15C2.44773 15 2.00002 14.5523 2.00002 14V11V10.9562V10.9561C2.00001 9.59313 2 8.50914 2.07146 7.63458C2.14463 6.73898 2.29769 5.9753 2.65398 5.27606C3.22922 4.14709 4.1471 3.2292 5.27607 2.65396C5.97532 2.29768 6.73899 2.14462 7.63459 2.07144C8.50916 1.99999 9.59315 1.99999 10.9561 2H10.9562H11H13H13.0438H13.0439C14.4069 1.99999 15.4909 1.99999 16.3654 2.07144C17.261 2.14462 18.0247 2.29768 18.724 2.65396C19.8529 3.2292 20.7708 4.14709 21.3461 5.27606C21.7023 5.9753 21.8554 6.73898 21.9286 7.63458C22 8.50915 22 9.59315 22 10.9562V10.9562V11V13V13.0438V13.0438C22 14.4069 22 15.4909 21.9286 16.3654C21.8554 17.261 21.7023 18.0247 21.3461 18.7239C20.7708 19.8529 19.8529 20.7708 18.724 21.346C18.0247 21.7023 17.261 21.8554 16.3654 21.9286C15.4909 22 14.4069 22 13.0439 22H13.0438ZM3.56811 17L3.60001 17H4.40001L4.4319 17H4.43194C4.68431 17 4.93009 16.9999 5.13824 17.0169C5.36683 17.0356 5.63656 17.0797 5.90799 17.218C6.28431 17.4097 6.59027 17.7157 6.78202 18.092C6.92032 18.3634 6.96438 18.6332 6.98306 18.8618C7.00007 19.0699 7.00004 19.3157 7.00001 19.5681L7.00001 19.6V20.4L7.00001 20.4319C7.00004 20.6843 7.00007 20.9301 6.98306 21.1382C6.96438 21.3668 6.92032 21.6366 6.78202 21.908C6.59027 22.2843 6.28431 22.5903 5.90799 22.782C5.63656 22.9203 5.36683 22.9644 5.13824 22.9831C4.93009 23.0001 4.68433 23 4.43197 23H4.43194H4.4319L4.40001 23H3.60001L3.56811 23H3.56807H3.56804C3.31568 23 3.06992 23.0001 2.86178 22.9831C2.63318 22.9644 2.36345 22.9203 2.09202 22.782C1.7157 22.5903 1.40974 22.2843 1.21799 21.908C1.07969 21.6366 1.03563 21.3668 1.01695 21.1382C0.999943 20.9301 0.999973 20.6843 1 20.4319L1.00001 20.4V19.6L1 19.5681C0.999973 19.3157 0.999943 19.0699 1.01695 18.8618C1.03563 18.6332 1.07969 18.3634 1.21799 18.092C1.40974 17.7157 1.7157 17.4097 2.09202 17.218C2.36345 17.0797 2.63318 17.0356 2.86178 17.0169C3.06992 16.9999 3.3157 17 3.56807 17H3.56811ZM3.01145 19.0114L3.01031 19.0246C3.00078 19.1412 3.00001 19.3035 3.00001 19.6V20.4C3.00001 20.6965 3.00078 20.8588 3.01031 20.9754L3.01145 20.9886L3.02464 20.9897C3.14122 20.9992 3.30348 21 3.60001 21H4.40001C4.69653 21 4.85879 20.9992 4.97537 20.9897L4.98856 20.9886L4.9897 20.9754C4.99923 20.8588 5.00001 20.6965 5.00001 20.4V19.6C5.00001 19.3035 4.99923 19.1412 4.9897 19.0246L4.98856 19.0114L4.97537 19.0103C4.85879 19.0008 4.69653 19 4.40001 19H3.60001C3.30348 19 3.14122 19.0008 3.02464 19.0103L3.01145 19.0114ZM14 13.9999C14.5523 13.9999 15 14.4477 15 14.9999C15 15.5522 14.5523 15.9999 14 15.9999H10.6L10.5681 15.9999H10.5681C10.3157 16 10.0699 16 9.86178 15.983C9.63319 15.9643 9.36346 15.9202 9.09203 15.782C8.71571 15.5902 8.40975 15.2842 8.218 14.9079C8.0797 14.6365 8.03564 14.3668 8.01696 14.1382C7.99995 13.93 7.99998 13.6842 8.00001 13.4318L8.00002 13.3999V9.99994C8.00001 9.44765 8.44773 8.99994 9.00001 8.99994C9.5523 8.99994 10 9.44765 10 9.99994L10 12.5858L15.2937 7.29286C15.6842 6.90236 16.3174 6.9024 16.7079 7.29295C17.0984 7.6835 17.0983 8.31666 16.7078 8.70716L11.4143 13.9999H14Z" fill="currentColor"/>
</svg>
