<svg width="155" height="42" viewBox="0 0 155 42" fill="none" xmlns="http://www.w3.org/2000/svg">
<path d="M49 26.961V11H60.4332L59.5529 13.3912H51.8455V17.6708H59.2945L58.4159 20.0625H51.8455V24.5706H60.4332L59.5529 26.961H49Z" fill="white" fill-opacity="0.3"/>
<path d="M71.6357 18.1264V23.4552C71.6357 24.3202 71.9327 24.8202 72.6374 24.8202H72.9791V26.7791C72.5689 27.0287 72.1141 27.098 71.6817 27.098C70.4509 27.098 69.7456 26.4832 69.3815 25.6631H69.2908C68.7666 26.324 67.8104 27.189 65.8521 27.189C63.4398 27.189 62.1408 25.5039 62.1408 23.7278C62.1408 20.8593 64.8276 19.4932 68.9946 19.6523V18.5139C68.9946 16.8518 68.1298 16.3737 66.8547 16.3737C65.4655 16.3737 64.7591 17.1477 64.4185 17.8305L62.4145 16.3285C62.8926 15.6673 64.1221 14.0746 66.8547 14.0746C69.9056 14.0743 71.6357 15.2125 71.6357 18.1264ZM68.9946 21.6098C66.4669 21.4739 64.8964 22.0655 64.8964 23.4774C64.8964 24.3429 65.4882 25.0033 66.5815 25.0033C67.6512 25.0033 68.5392 24.4561 68.9946 23.7958V21.6098Z" fill="white" fill-opacity="0.3"/>
<path d="M74.3458 17.8308C74.3458 15.8492 76.0301 14.0504 78.9219 14.0504C80.9259 14.0504 82.3608 14.7568 83.1798 15.6679L81.3815 17.4891C80.8574 16.9195 79.9463 16.3509 78.8545 16.3509C77.7163 16.3509 77.1239 16.9195 77.1239 17.6713C77.1239 19.9252 83.2716 19.0827 83.2716 23.3401C83.2716 25.0479 81.8824 27.1887 78.4446 27.1887C75.8944 27.1887 74.2557 26.1412 73.5268 25.3893L75.2111 23.4089C75.8492 24.1147 77.0787 24.9115 78.5816 24.9115C79.902 24.9115 80.4708 24.2744 80.4708 23.4993C80.4702 21.2684 74.3458 22.0885 74.3458 17.8308Z" fill="white" fill-opacity="0.3"/>
<path d="M84.9109 29.1012C85.2518 29.2604 85.7305 29.3752 86.2316 29.3752C87.5753 29.3752 88.3272 28.6234 88.6223 27.0975L83.6235 13.5457H87.0284L88.6905 19.3107C89.2593 21.0413 89.7147 22.7033 89.9196 23.7958H90.0112C90.1934 22.7255 90.489 21.3366 91.0814 19.3107L92.8189 13.5457H95.4531L91.1266 27.689C90.375 29.9668 89.1228 31.7883 86.2998 31.7883C85.5025 31.7883 84.7745 31.5837 84.4553 31.4466L84.9109 29.1012Z" fill="white" fill-opacity="0.3"/>
<path d="M97.4413 11.0385L97.0084 12.2391H102.539V26.9241H103.833V12.2391H109.918V11.0385H97.4413Z" fill="white" fill-opacity="0.3"/>
<path d="M125.345 25.9961C124.472 25.9961 124.01 25.2648 124.01 23.8873V18.1481C124.01 15.8043 122.646 14.566 120.063 14.566C118.362 14.566 116.985 15.2216 116.082 16.4596L117.002 17.2284C117.706 16.2167 118.685 15.7208 119.996 15.7208C121.999 15.7208 122.855 16.5772 122.855 18.5804V20.0545H122.599C119.782 20.0545 117.712 20.625 116.611 21.7168C115.993 22.3262 115.683 23.0944 115.683 24.0015C115.683 26.0627 117.481 27.1762 119.172 27.1762C121.398 27.1762 122.393 26.0713 122.927 25.4797L122.94 25.4673H123.07L123.077 25.4917C123.388 26.4446 124.191 26.991 125.273 26.991C125.396 26.991 125.53 26.9735 125.601 26.958V25.9959L125.345 25.9961ZM122.855 24.1946L122.846 24.2032C122.289 25.0812 121.058 26.1093 119.424 26.1093C117.946 26.1093 116.951 25.2149 116.951 23.8873C116.951 23.3007 117.169 22.7921 117.594 22.3761C118.501 21.4944 120.352 21.0451 122.817 21.1164L122.855 21.1206V24.1946Z" fill="white" fill-opacity="0.3"/>
<path d="M147.055 21.3222C147.127 20.5665 147.168 19.8193 147.168 19.2644C147.168 16.2627 145.601 14.5444 142.877 14.5444C139.177 14.5444 137.859 17.757 137.859 20.7678C137.859 25.1178 139.471 27.0625 143.083 27.0625C144.464 27.0625 145.82 26.6881 146.723 26.0627L146.144 25.0341C145.585 25.4587 144.464 25.9035 143.263 25.9035C140.541 25.9035 139.304 24.5471 139.126 21.3599V21.3222H147.055ZM139.127 20.1294C139.212 18.5635 139.631 17.3915 140.369 16.6358C140.97 16.0226 141.781 15.6992 142.717 15.6992C144.826 15.6992 145.895 16.9128 145.895 19.3104C145.895 19.4998 145.895 19.8143 145.875 20.1338L145.871 20.1676H139.127V20.1294Z" fill="white" fill-opacity="0.3"/>
<path d="M134.604 11.4973V14.9401L134.558 14.931C133.986 14.8178 133.231 14.7471 132.631 14.7471C130.817 14.7471 129.321 15.3389 128.306 16.4599C127.272 17.5981 126.726 19.2818 126.726 21.3394C126.726 25.1569 128.289 27.1762 131.241 27.1762C132.303 27.1762 133.917 26.7688 134.597 25.622L134.604 25.6145V26.9244H135.851V11.0385L134.604 11.4973ZM131.472 26.0422C130.179 26.0422 128.016 25.4085 128.016 21.1541C128.016 17.6694 129.57 15.9047 132.631 15.9047C133.173 15.9047 134.046 16.0184 134.575 16.1571L134.605 16.1618L134.6 23.7866C134.205 24.8164 133.336 26.0422 131.472 26.0422Z" fill="white" fill-opacity="0.3"/>
<path d="M113.642 14.5446C112.408 14.5446 111.104 15.0985 110.49 15.9643L110.484 15.9702V14.5444L109.238 15V26.9238H110.485L110.489 17.589C110.98 16.4594 112.105 15.8123 113.571 15.8123C114.012 15.8123 114.461 15.8756 114.903 16.0062V14.6706C114.549 14.5868 114.125 14.5446 113.642 14.5446Z" fill="white" fill-opacity="0.3"/>
<path d="M153.74 14.5446C152.505 14.5446 151.308 15.0985 150.695 15.9643L150.683 15.9765H150.581V14.5446L149.335 14.9978V26.9241H150.581L150.586 17.5892C151.077 16.4596 152.204 15.8126 153.668 15.8126C154.11 15.8126 154.558 15.8759 155 16.0065V14.6708C154.647 14.5868 154.223 14.5446 153.74 14.5446Z" fill="white" fill-opacity="0.3"/>
<path d="M18.2857 0.525H23.7143C26.9232 0.525 29.2984 0.525408 31.1778 0.678961C33.0511 0.832014 34.3855 1.13459 35.5215 1.71342C37.5732 2.75878 39.2412 4.42682 40.2866 6.47845C40.8654 7.61446 41.168 8.94893 41.321 10.8222C41.4746 12.7016 41.475 15.0768 41.475 18.2857V23.7143C41.475 26.9232 41.4746 29.2984 41.321 31.1778C41.168 33.0511 40.8654 34.3855 40.2866 35.5215C39.2412 37.5732 37.5732 39.2412 35.5215 40.2866C34.3855 40.8654 33.0511 41.168 31.1778 41.321C29.2984 41.4746 26.9232 41.475 23.7143 41.475H18.2857C15.0768 41.475 12.7016 41.4746 10.8222 41.321C8.94893 41.168 7.61446 40.8654 6.47845 40.2866C4.42682 39.2412 2.75878 37.5732 1.71342 35.5215C1.13459 34.3855 0.832014 33.0511 0.678961 31.1778C0.525408 29.2984 0.525 26.9232 0.525 23.7143V18.2857C0.525 15.0768 0.525408 12.7016 0.678961 10.8222C0.832014 8.94893 1.13459 7.61446 1.71342 6.47845C2.75878 4.42682 4.42682 2.75878 6.47845 1.71342C7.61446 1.13459 8.94893 0.832014 10.8222 0.678961C12.7016 0.525408 15.0768 0.525 18.2857 0.525Z" stroke="white" stroke-opacity="0.1" stroke-width="1.05"/>
<mask id="mask0_2254_1339" style="mask-type:luminance" maskUnits="userSpaceOnUse" x="5" y="11" width="31" height="20">
<path d="M32.5432 11.1429C32.4567 11.332 32.354 11.5277 32.2449 11.7402C31.4838 13.185 30.1332 15.3916 27.9971 17.6677C24.2603 21.6581 17.3656 26.6035 5.71436 27.608V30.5299C18.4341 29.5003 26.0109 24.0508 30.1247 19.6627C32.4811 17.1497 33.9802 14.7004 34.8277 13.0911C35.1739 12.4243 35.4881 11.7639 35.739 11.1432H32.5432V11.1429Z" fill="white"/>
</mask>
<g mask="url(#mask0_2254_1339)">
<path d="M35.7393 11.1429H5.71436V30.5299H35.7393V11.1429Z" fill="url(#paint0_linear_2254_1339)"/>
</g>
<defs>
<linearGradient id="paint0_linear_2254_1339" x1="5.71164" y1="20.8315" x2="35.7328" y2="20.8315" gradientUnits="userSpaceOnUse">
<stop stop-color="#F0414B"/>
<stop offset="0.322917" stop-color="#FFCD50"/>
<stop offset="0.65625" stop-color="#00AFCD"/>
<stop offset="1" stop-color="#46B97D"/>
</linearGradient>
</defs>
</svg>
