<svg width="24" height="24" viewBox="0 0 24 24" fill="none" xmlns="http://www.w3.org/2000/svg">
<path fill-rule="evenodd" clip-rule="evenodd" d="M14.6428 22H14.6H13C12.4477 22 12 21.5523 12 21C12 20.4477 12.4477 20 13 20H14.6C15.7366 20 16.5289 19.9992 17.1458 19.9488C17.7509 19.8994 18.0986 19.8072 18.362 19.673C18.9265 19.3854 19.3854 18.9265 19.673 18.362C19.8072 18.0986 19.8994 17.7509 19.9488 17.1458C19.9992 16.5289 20 15.7366 20 14.6V13C20 12.4477 20.4477 12 21 12C21.5523 12 22 12.4477 22 13V14.6V14.6428V14.6429C22 15.7266 22 16.6008 21.9422 17.3086C21.8826 18.0375 21.7568 18.6777 21.455 19.27C20.9757 20.2108 20.2108 20.9757 19.27 21.455C18.6777 21.7568 18.0375 21.8826 17.3086 21.9422C16.6008 22 15.7266 22 14.6429 22H14.6428ZM3 12C2.44772 12 2 11.5523 2 11V9.4V9.35717V9.35706C1.99999 8.27334 1.99998 7.39923 2.05782 6.69138C2.11737 5.96253 2.24318 5.32234 2.54497 4.73005C3.02433 3.78924 3.78924 3.02433 4.73005 2.54497C5.32234 2.24318 5.96253 2.11737 6.69138 2.05782C7.39923 1.99998 8.27334 1.99999 9.35706 2H9.35717H9.4H11C11.5523 2 12 2.44772 12 3C12 3.55228 11.5523 4 11 4H9.4C8.26339 4 7.47108 4.00078 6.85424 4.05118C6.24907 4.10062 5.90138 4.1928 5.63803 4.32698C5.07354 4.6146 4.6146 5.07354 4.32698 5.63803C4.1928 5.90138 4.10062 6.24907 4.05118 6.85424C4.00078 7.47108 4 8.26339 4 9.4V11C4 11.5523 3.55228 12 3 12ZM14 4C14 4.55228 14.4477 5 15 5L17.5881 5L13.375 9.26203C12.9867 9.6548 12.9904 10.288 13.3832 10.6762C13.7759 11.0645 14.4091 11.0608 14.7974 10.6681L19.0003 6.41631L19.0007 9.00027C19.0008 9.55255 19.4485 10.0002 20.0008 10.0001C20.5531 10.0001 21.0008 9.55228 21.0007 9L21.0002 5.59965L21.0002 5.56774C21.0002 5.31539 21.0002 5.06963 20.9832 4.8615C20.9645 4.63293 20.9204 4.36323 20.7821 4.09185C20.5903 3.71558 20.2843 3.40966 19.908 3.21795C19.6366 3.07968 19.3669 3.03562 19.1384 3.01694C18.9302 2.99994 18.6845 2.99997 18.4321 3L18.4002 3L15 3C14.4477 3 14 3.44772 14 4ZM8.99996 18.9999C9.55224 18.9999 9.99996 19.4476 9.99996 19.9999C9.99996 20.5522 9.55224 20.9999 8.99996 20.9999H5.59974L5.56785 20.9999C5.31549 21 5.06973 21 4.86159 20.983C4.63302 20.9643 4.36332 20.9202 4.09191 20.782C3.71562 20.5903 3.40966 20.2843 3.2179 19.9081C3.07959 19.6367 3.03549 19.367 3.01678 19.1384C2.99975 18.9303 2.99975 18.6845 2.99974 18.4322L2.99974 18.4003L2.99928 14.9999C2.9992 14.4476 3.44686 13.9999 3.99914 13.9998C4.55143 13.9997 4.9992 14.4474 4.99928 14.9997L4.99963 17.5786L9.20301 13.3314C9.59151 12.9389 10.2247 12.9356 10.6172 13.3241C11.0098 13.7126 11.013 14.3458 10.6245 14.7383L6.4069 18.9999H8.99996Z" fill="currentColor"/>
</svg>
