<svg width="24" height="24" viewBox="0 0 24 24" fill="none" xmlns="http://www.w3.org/2000/svg">
<path fill-rule="evenodd" clip-rule="evenodd" d="M20.4426 11.2447V13.2114H17.1257V7.98315L15.5683 8.29395V13.2114C15.5683 14.0712 16.2659 14.7688 17.1257 14.7688H22V10.9322L20.4426 11.243V11.2447ZM19.8958 7.98714L18.7848 9.09817L19.8958 10.2092L21.0068 9.09817L19.8958 7.98714ZM10.6143 9.93426H12.3202C13.6825 9.93426 14.7858 11.0376 14.7858 12.3999C14.7858 13.7622 13.6825 14.8655 12.3202 14.8655C11.5778 14.8655 10.913 14.5374 10.4606 14.0177V14.7774H7.9674C8.08309 15.1746 8.03474 15.601 7.82237 15.974C7.54265 16.4695 7.03503 16.7665 6.46524 16.7665H4.30869C3.67156 16.7665 3.05689 16.4989 2.62178 16.0344C2.18667 15.57 1.96221 14.938 2.00537 14.3026L2.1953 11.4934L3.7389 11.8215L3.56451 14.4079C3.5507 14.6169 3.62149 14.8154 3.7648 14.9691C3.90811 15.1228 4.10149 15.2074 4.31214 15.2074H6.46869L5.5156 13.2183H9.99791C9.90813 12.9628 9.85806 12.6917 9.85806 12.3999C9.85806 12.1081 9.90985 11.8266 10.0031 11.5659L10.6143 9.93426ZM11.4189 12.3999C11.4189 12.9006 11.8247 13.3046 12.3237 13.3046C12.8244 13.3046 13.2284 12.9006 13.2284 12.3999C13.2284 11.8992 12.8244 11.4951 12.3237 11.4951C11.823 11.4951 11.4189 11.8992 11.4189 12.3999Z" fill="currentColor"/>
</svg>
