<svg width="24" height="24" viewBox="0 0 24 24" fill="none" xmlns="http://www.w3.org/2000/svg">
<path fill-rule="evenodd" clip-rule="evenodd" d="M11.1948 14.7666H9.70631V8.64208L11.1948 8.34473V14.7666ZM21.9994 8.58771H18.8772V9.87174H21.9994V8.58771ZM20.5098 10.987V13.2763H16.9669C17.1055 12.9367 17.1663 12.5684 17.1426 12.1916C17.1021 11.5327 16.8064 10.9278 16.3097 10.4902C15.2859 9.58805 13.7197 9.68604 12.8175 10.7082C12.3799 11.2032 12.1619 11.8402 12.2025 12.4991C12.243 13.158 12.5387 13.7628 13.0354 14.2004C13.2973 14.4319 13.5964 14.5958 13.9106 14.6971L12.8935 15.8494L14.3904 16.4052L16.4955 14.0196C16.5013 14.0131 16.507 14.007 16.5125 14.0011L16.5125 14.0011C16.5184 13.9947 16.5241 13.9886 16.5293 13.9825C16.6459 13.849 16.7473 13.7071 16.8318 13.555V14.7647H20.4118C21.2887 14.7647 22 14.0534 22 13.1766V10.6896L20.5098 10.987ZM15.4109 12.9975C15.051 13.4047 14.4276 13.4435 14.0204 13.0837C13.8227 12.9096 13.7062 12.6697 13.6893 12.4062C13.6724 12.1443 13.7602 11.8909 13.9342 11.6932C14.2941 11.286 14.9176 11.2472 15.3247 11.607C15.5224 11.781 15.639 12.021 15.6559 12.2845C15.6728 12.5481 15.5849 12.7998 15.4109 12.9975ZM5.21826 9.41382L4.1562 10.4759L5.21826 11.5379L6.28032 10.4759L5.21826 9.41382ZM8.06127 14.7498C7.48177 14.6484 7.04251 14.1449 7.04251 13.5384H7.0442V10.6628H8.53096V14.0132C8.53096 15.309 7.57978 16.2585 6.28561 16.2585H4.38153C3.72093 16.2585 3.08229 15.9781 2.63288 15.4932C2.18347 15.0066 1.95538 14.3494 2.00775 13.6888L2.20205 11.1967L3.67023 11.5177L3.49284 13.7783C3.47257 14.03 3.5469 14.2852 3.71754 14.4744C3.88818 14.6653 4.12641 14.7701 4.38153 14.7701H8.06127V14.7498Z" fill="currentColor"/>
</svg>
