<svg width="24" height="24" viewBox="0 0 24 24" fill="none" xmlns="http://www.w3.org/2000/svg">
<path fill-rule="evenodd" clip-rule="evenodd" d="M2.71062 8.92644L3.62877 8.0083L4.54691 8.92645L3.62877 9.84459L2.71062 8.92644ZM8.28744 8.22894H10.9812V9.33803H8.28744V8.22894ZM21.7172 10.5412V12.5159H19.4976V10.2835L18.2119 10.5412V12.4305C18.2119 12.4495 18.2132 12.4684 18.2145 12.4874C18.2151 12.4969 18.2157 12.5064 18.2162 12.5159H10.2404V10.2835H8.95478V12.4305C8.95478 12.4495 8.95605 12.4684 8.95732 12.4874L8.95802 12.4982L8.95906 12.5159H6.81918V8.25465L5.53354 8.51378V12.4291C5.53354 13.1865 6.14717 13.8001 6.9046 13.8001H8.98184V12.7038C9.10855 13.3289 9.66238 13.8001 10.3244 13.8001H18.2361V12.6981C18.3614 13.3274 18.9153 13.8001 19.5802 13.8001H21.6289C22.3863 13.8001 23 13.1865 23 12.4291V10.2821L21.7143 10.5398L21.7172 10.5412ZM16.1529 9.20124H14.9527V10.2776H12.5025V11.3767H16.1529V9.20124ZM21.545 15.8644H20.1455V14.7667H22.7452V16.7414H21.545V15.8644ZM19.0861 14.7456H16.2827V15.8547H19.0861V14.7456ZM3.13425 12.9669C3.13425 13.2288 2.9577 13.4581 2.7057 13.5264L1.00006 13.9849L1.76746 15.111L3.03743 14.7722C3.85324 14.5544 4.42131 13.8154 4.42131 12.9712V10.4269L3.13425 10.7686V12.964V12.9669Z" fill="currentColor"/>
</svg>
