<svg width="24" height="24" viewBox="0 0 24 24" fill="none" xmlns="http://www.w3.org/2000/svg">
<path fill-rule="evenodd" clip-rule="evenodd" d="M16.9997 8.7019H18.0355V9.71581H16.9997V8.7019ZM23 8.97415H20.7549V9.79745H23V8.97415ZM8.82085 13.6682H6.57574V14.4915H8.82085V13.6682ZM3.47347 9.66192H2.43771V10.6758H3.47347V9.66192ZM19.7062 12.0942H21.6053V12.093V10.6876L22.6329 10.4866V12.0253C22.6329 12.6178 22.1414 13.0989 21.5361 13.0989H16.2999C15.8471 13.0989 15.4623 12.8095 15.3298 12.4088V13.0989H13.8671C13.7462 13.0989 13.6313 13.0794 13.5234 13.0426C13.4155 13.0059 13.3158 12.9531 13.2266 12.8865C12.9498 13.1035 12.5979 13.2333 12.2155 13.2333C11.5668 13.2333 11.005 12.8589 10.7445 12.3192V13.0989H5.11064C4.82561 13.7098 4.20157 14.1025 3.5142 14.1025H2.64266C2.18637 14.1025 1.74649 13.9142 1.43682 13.5858C1.12598 13.2574 0.968795 12.8141 1.00516 12.3686L1.12715 10.838L2.13945 11.0596L2.02919 12.4295C2.00573 12.7211 2.17464 13.0174 2.53592 13.0863C2.58284 13.0966 2.63093 13.0989 2.67785 13.0989H4.95699V13.0909C4.45495 13.0289 4.06786 12.6109 4.06786 12.1022V10.5268H5.09422V12.0942H8.13933V10.6864L9.16687 10.4855V12.0942H10.6577C10.6143 11.9518 10.5909 11.8002 10.5909 11.6441C10.5909 10.7657 11.3463 10.0526 12.2167 10.0526C13.087 10.0526 13.799 10.7243 13.8401 11.566C13.8424 11.5924 13.8424 11.6177 13.8424 11.6429V12.0942H15.331V10.5062L16.3585 10.2375V10.6681L17.908 10.2662C18.3409 10.1536 18.7936 10.2432 19.1479 10.5108C19.5033 10.7771 19.7062 11.1825 19.7062 11.6211V12.0942ZM11.6184 11.6441C11.6184 11.9667 11.8871 12.2285 12.2167 12.2285C12.5474 12.2285 12.8149 11.9679 12.8149 11.6441C12.8149 11.3203 12.5463 11.0585 12.2167 11.0585C11.8871 11.0585 11.6184 11.3214 11.6184 11.6441ZM16.3585 12.0942H17.8306L17.8318 12.093H18.6822L18.6822 12.093C18.681 12.0804 18.6799 12.0678 18.6799 12.054V11.636C18.6799 11.5155 18.6318 11.3984 18.5391 11.3203C18.4359 11.2342 18.301 11.2054 18.172 11.2387L16.3585 11.7095V12.0942Z" fill="currentColor"/>
</svg>
