<svg width="24" height="24" viewBox="0 0 24 24" fill="none" xmlns="http://www.w3.org/2000/svg">
<path fill-rule="evenodd" clip-rule="evenodd" d="M21.5922 6.56934C21.3415 6.67601 21.062 6.6871 20.8041 6.60076L20.4198 6.47218C20.3643 6.46241 20.3083 6.45555 20.2521 6.45581C19.7589 6.45898 19.4352 6.84288 19.4352 7.2648V7.88685L21.6541 7.43166C21.8552 7.39048 22.0001 7.20882 22.0001 6.99813V6.39587L21.5922 6.56934ZM19.9368 14.042H21.4983V8.33602L19.9368 8.65682V14.042ZM17.2311 12.4372V10.1499L18.7932 9.82749V12.3302C18.7932 13.276 18.0478 14.0419 17.1279 14.0419H14.9853C14.1777 14.0419 13.5051 13.45 13.3531 12.6642V14.0422H7.72209C7.15079 14.0417 6.617 13.7829 6.24916 13.3592C5.81092 13.8165 5.2029 14.1006 4.5304 14.1006C3.20003 14.1006 2.11755 12.9879 2.11755 11.62C2.11755 10.2526 3.20003 9.13943 4.5304 9.13943H6.23477L7.43747 12.4372H13.3253C13.3248 12.4227 13.3239 12.4083 13.3229 12.394C13.3216 12.3727 13.3202 12.3516 13.3202 12.3305V10.1499L14.8815 9.82775V12.4372H17.2311ZM3.67782 11.62C3.67782 12.1032 4.06057 12.4966 4.5304 12.4966C5.00125 12.4966 5.38323 12.1034 5.38323 11.62C5.38323 11.1365 5.00099 10.7437 4.5304 10.7437C4.06057 10.7437 3.67782 11.1368 3.67782 11.62ZM15.0744 15.2199H11.6697V16.6037H15.0744V15.2199ZM15.5205 7.44091H18.6189V8.82496H15.5205V7.44091Z" fill="currentColor"/>
</svg>
