<svg width="24" height="24" viewBox="0 0 24 24" fill="none" xmlns="http://www.w3.org/2000/svg">
<path fill-rule="evenodd" clip-rule="evenodd" d="M20.5698 8.59345V14.2726H21.9999V8.31274L20.5698 8.59345ZM17.4219 10.0224H15.8578L15.322 11.4275C15.2203 11.6796 15.1638 11.954 15.1638 12.2411C15.1638 12.4583 15.1961 12.6693 15.2558 12.8675H13.385C13.3721 12.8675 13.3624 12.858 13.3624 12.8453V10.6044L11.9323 10.8851V12.8691H6.35713V12.1094C6.35713 11.4893 6.08918 10.8962 5.61948 10.4823C5.14977 10.0684 4.52187 9.86697 3.89398 9.93199L2.65434 10.0589L3.03204 11.4307L4.04409 11.3276C4.2733 11.3038 4.49281 11.3736 4.66391 11.5258C4.83501 11.6765 4.92863 11.8842 4.92863 12.111V12.8707H2.00061V14.2742H4.9593V13.1577C5.09488 13.7937 5.67112 14.2726 6.35874 14.2726H11.971V13.2069C12.1195 13.8412 12.6974 14.2726 13.3866 14.2726H15.6286V13.5843C16.0419 14.1156 16.6923 14.4597 17.4251 14.4597C18.6696 14.4597 19.6833 13.4638 19.6833 12.2411C19.6833 11.0183 18.6696 10.0224 17.4251 10.0224H17.4219ZM17.4219 13.0546C16.9651 13.0546 16.5939 12.6899 16.5939 12.2411C16.5939 11.7922 16.9651 11.4275 17.4219 11.4275C17.8787 11.4275 18.25 11.7922 18.25 12.2411C18.25 12.6899 17.8787 13.0546 17.4219 13.0546ZM10.2619 15.2273H13.3626V16.4374H10.2619V15.2273Z" fill="currentColor"/>
</svg>
