<svg width="24" height="24" viewBox="0 0 24 24" fill="none" xmlns="http://www.w3.org/2000/svg">
<path fill-rule="evenodd" clip-rule="evenodd" d="M14.8999 8.31262H13.6485V9.47196H11.0919V10.6551H14.8999V8.31262ZM22 9.5925V11.7922C22 12.6074 21.3597 13.2703 20.5705 13.2703H18.4791C17.7851 13.2703 17.2077 12.7597 17.0772 12.0825V13.2703H9.97863H9.9786C9.95865 13.2703 9.9387 13.2703 9.91875 13.2688C9.90544 13.2688 9.89214 13.2674 9.87883 13.2659L9.87882 13.2659C9.87217 13.2652 9.86551 13.2645 9.85886 13.264C9.54408 13.2355 9.24159 13.0911 9.00819 12.8659V12.8881C9.00819 13.7937 8.41856 14.5851 7.57097 14.8183L6.47617 15.1196L5.79442 13.8778L7.22549 13.4797C7.48806 13.4067 7.67078 13.1609 7.67078 12.8802V9.5925H9.00665V11.8842H17.0511C17.0506 11.8735 17.0499 11.8631 17.0492 11.8526L17.0492 11.8525L17.0492 11.8523V11.8523V11.8523V11.8523C17.0478 11.8318 17.0465 11.8116 17.0465 11.7906V9.86846L18.387 9.59091V11.8826H20.658V9.86687L21.9985 9.58933L22 9.5925ZM20.2668 15.4935H18.894V14.3103H21.5182V16.4371H20.2668V15.4935ZM17.5886 14.2871H14.7787V15.4813H17.5886V14.2871ZM5.70233 9.60342C6.14762 10.0094 6.4148 10.5709 6.45165 11.1846C6.49004 11.7984 6.29195 12.39 5.89886 12.8499C5.88811 12.861 5.87737 12.8721 5.86816 12.8848L3.97337 15.102L2.62674 14.5865L3.54188 13.5144C3.25935 13.4208 2.99064 13.2686 2.75418 13.0529C2.30735 12.6469 2.04171 12.0855 2.00486 11.4717C2.00178 11.4225 2.00024 11.3734 2.00024 11.3242C2.00024 10.7643 2.19679 10.2299 2.55763 9.80643C3.37144 8.85485 4.78104 8.76445 5.70233 9.60342ZM3.64169 12.0157C4.00868 12.3487 4.56914 12.3138 4.89312 11.9348C5.04974 11.7508 5.12804 11.5161 5.11269 11.2719C5.09733 11.0276 4.99293 10.804 4.81481 10.6422C4.44783 10.3092 3.88737 10.3441 3.56338 10.7231C3.40676 10.9071 3.32844 11.1418 3.3438 11.386C3.35762 11.6303 3.46358 11.8539 3.64169 12.0157Z" fill="currentColor"/>
</svg>
