<svg width="24" height="24" viewBox="0 0 24 24" fill="none" xmlns="http://www.w3.org/2000/svg">
<path fill-rule="evenodd" clip-rule="evenodd" d="M2.69894 9.41281L3.61171 8.57654L4.52448 9.41281L3.61171 10.2491L2.69894 9.41281ZM2.69235 13.6028C2.94422 13.5399 3.11882 13.3314 3.11882 13.0928V11.0959L4.39822 10.7838V13.1006C4.39822 13.869 3.83437 14.5416 3.02293 14.7396L1.7607 15.0477L0.997925 14.0211L2.69235 13.6028ZM10.9217 8.96523H8.24122V9.97613H10.9217V8.96523ZM19.5853 10.3078H20.9835L20.9806 10.3065C22.0955 10.3065 22.9999 11.1364 22.9999 12.1565C22.9999 13.1766 22.0955 14.0053 20.9806 14.0053C20.3767 14.0053 19.8343 13.7627 19.4651 13.3785C19.3621 13.6591 19.073 13.8492 18.7481 13.8492H17.6061V13.2474C17.2383 13.7063 16.6458 14.0053 15.9761 14.0053C15.355 14.0053 14.7983 13.747 14.4276 13.3405L14.4133 13.3772C14.3103 13.6591 14.0212 13.8492 13.6963 13.8492H10.12C9.50322 13.8492 8.98945 13.4493 8.86781 12.917V13.8492H6.78413C6.07717 13.8492 5.50473 13.3248 5.50473 12.6771V9.08054L6.78413 8.84585V12.6771H8.84062V10.848H10.12V12.6771H14.0412C13.9883 12.5105 13.9597 12.3361 13.9597 12.1552C13.9597 11.9166 14.0098 11.6871 14.0999 11.4773L14.5793 10.3065H15.9775C17.0923 10.3065 17.9968 11.1351 17.9968 12.1565C17.9968 12.3375 17.9682 12.5132 17.9152 12.6784H19.0472C18.9943 12.5118 18.9657 12.3375 18.9657 12.1565C18.9657 11.9179 19.0157 11.6884 19.1059 11.4787L19.5853 10.3078ZM15.2391 12.1578C15.2391 12.5315 15.5697 12.8357 15.9789 12.8357C16.3882 12.8357 16.7188 12.5328 16.7188 12.1578C16.7188 11.7828 16.3868 11.48 15.9789 11.48C15.5711 11.48 15.2391 11.7842 15.2391 12.1578ZM20.2436 12.1578C20.2436 12.5315 20.5742 12.8357 20.9835 12.8357C21.3928 12.8357 21.7234 12.5328 21.7234 12.1578C21.7234 11.7828 21.3914 11.48 20.9835 11.48C20.5756 11.48 20.2436 11.7842 20.2436 12.1578Z" fill="currentColor"/>
</svg>
