<svg width="24" height="24" viewBox="0 0 24 24" fill="none" xmlns="http://www.w3.org/2000/svg">
<path fill-rule="evenodd" clip-rule="evenodd" d="M11.5 4C9.56699 4 7.99999 5.567 7.99999 7.5C7.99999 8.05228 7.55227 8.5 6.99999 8.5C6.44771 8.5 5.99999 8.05228 5.99999 7.5C5.99999 4.46243 8.46242 2 11.5 2C14.5376 2 17 4.46243 17 7.5C17 8.05228 16.5523 8.5 16 8.5C15.4477 8.5 15 8.05228 15 7.5C15 5.567 13.433 4 11.5 4ZM11.5 7C11.2238 7 11 7.22386 11 7.5V17.5C11 17.8635 10.8027 18.1984 10.4848 18.3746C10.1668 18.5509 9.77826 18.5407 9.46999 18.348L6.72742 16.6339C6.44088 16.4548 6.06563 16.5187 5.85455 16.7826C5.61972 17.0761 5.67426 17.5057 5.97498 17.7312L9.76554 20.5742C10.1341 20.8506 10.5824 21 11.043 21H16.3516C17.3603 21 18.2111 20.2489 18.3362 19.2481L18.7803 15.6954C18.8446 15.1807 18.5047 14.7023 17.9975 14.5936L12.7905 13.4778C12.3294 13.379 12 12.9715 12 12.5L12 7.5C12 7.22386 11.7761 7 11.5 7ZM8.99999 7.5C8.99999 6.11929 10.1193 5 11.5 5C12.8807 5 14 6.11929 14 7.5L14 11.6916L18.4166 12.638C19.9382 12.9641 20.9578 14.3994 20.7648 15.9435L20.3208 19.4961C20.0705 21.4979 18.3689 23 16.3516 23H11.043C10.1496 23 9.28029 22.7102 8.56554 22.1742L4.77498 19.3312C3.57102 18.4283 3.35267 16.7084 4.29281 15.5332C5.1379 14.4768 6.64023 14.2209 7.78741 14.9379L8.99999 15.6958V7.5Z" fill="currentColor"/>
</svg>
