<svg width="24" height="24" viewBox="0 0 24 24" fill="none" xmlns="http://www.w3.org/2000/svg">
<path fill-rule="evenodd" clip-rule="evenodd" d="M6.42334 4.06898C6.61368 3.4345 7.19766 3 7.86008 3H7.91188C8.50641 3 9.04992 3.33591 9.3158 3.86767L10.382 6H7.86008C6.85528 6 6.13461 5.0314 6.42334 4.06898ZM16.1399 6H13.618L14.6842 3.86767C14.9501 3.33591 15.4936 3 16.0881 3H16.1399C16.8023 3 17.3863 3.4345 17.5767 4.06898C17.8654 5.0314 17.1447 6 16.1399 6ZM12.8953 2.97324L12 4.76393L11.1047 2.97324C10.5 1.76391 9.26396 1 7.91188 1H7.86008C6.31445 1 4.95182 2.01384 4.50768 3.49428C3.83399 5.73992 5.51556 8 7.86008 8H12H16.1399C18.4844 8 20.166 5.73992 19.4923 3.49428C19.0482 2.01384 17.6856 1 16.1399 1H16.0881C14.736 1 13.5 1.76391 12.8953 2.97324ZM4.60001 9L4.56811 9H4.56807C4.3157 8.99997 4.06992 8.99994 3.86178 9.01694C3.63318 9.03562 3.36345 9.07969 3.09202 9.21799C2.7157 9.40973 2.40974 9.71569 2.21799 10.092C2.07969 10.3634 2.03563 10.6332 2.01695 10.8618C1.99994 11.0699 1.99997 11.3157 2 11.5681L2 11.5681L2.00001 11.6V13C2.00001 13.7403 2.4022 14.3866 3.00001 14.7324V18.6002V18.6363C2.99998 19.0254 2.99996 19.3756 3.02376 19.6669C3.04925 19.9788 3.10694 20.3103 3.27249 20.6352C3.51217 21.1056 3.89462 21.4881 4.36503 21.7278C4.68993 21.8933 5.02141 21.951 5.33338 21.9765C5.62467 22.0003 5.97478 22.0003 6.36383 22.0002H6.36394L6.40001 22.0002H12H17.6L17.6361 22.0002H17.6362C18.0252 22.0003 18.3753 22.0003 18.6666 21.9765C18.9786 21.951 19.3101 21.8933 19.635 21.7278C20.1054 21.4881 20.4878 21.1056 20.7275 20.6352C20.8931 20.3103 20.9508 19.9788 20.9762 19.6669C21 19.3756 21 19.0254 21 18.6364V18.6364V18.6002V14.7324C21.5978 14.3866 22 13.7403 22 13V11.6L22 11.5681V11.568C22 11.3156 22.0001 11.0699 21.9831 10.8618C21.9644 10.6332 21.9203 10.3634 21.782 10.092C21.5903 9.71569 21.2843 9.40973 20.908 9.21799C20.6366 9.07969 20.3668 9.03562 20.1382 9.01694C19.9301 8.99994 19.6843 8.99997 19.4319 9H19.4319L19.4 9H12H4.60001ZM5.00001 18.6002V15H11V20.0002H6.40001C5.96346 20.0002 5.6962 19.9995 5.49624 19.9831C5.40309 19.9755 5.34673 19.966 5.3125 19.9579C5.29622 19.9541 5.28621 19.9509 5.28079 19.9489C5.27559 19.9471 5.27341 19.946 5.27301 19.9457C5.17893 19.8978 5.10244 19.8213 5.0545 19.7272C5.0543 19.7268 5.05319 19.7247 5.05133 19.7195C5.0494 19.714 5.04618 19.704 5.04235 19.6877C5.03429 19.6535 5.02473 19.5972 5.01712 19.504C5.00078 19.304 5.00001 19.0368 5.00001 18.6002ZM11 11V13H4.00001V11.6C4.00001 11.3035 4.00078 11.1412 4.01031 11.0246L4.01145 11.0114L4.02464 11.0103C4.14122 11.0008 4.30348 11 4.60001 11H11ZM13 14V11H19.4C19.6965 11 19.8588 11.0008 19.9754 11.0103L19.9885 11.0114L19.9897 11.0246C19.9992 11.1412 20 11.3035 20 11.6V13H16C15.4477 13 15 13.4477 15 14C15 14.5523 15.4477 15 16 15H19V18.6002C19 19.0368 18.9992 19.304 18.9829 19.504C18.9753 19.5972 18.9657 19.6535 18.9577 19.6877C18.9538 19.704 18.9506 19.714 18.9487 19.7195C18.9475 19.7228 18.9466 19.7249 18.9461 19.7261C18.9458 19.7267 18.9456 19.7271 18.9455 19.7272C18.8976 19.8213 18.8211 19.8978 18.727 19.9457C18.7266 19.946 18.7244 19.9471 18.7192 19.9489C18.7138 19.9509 18.7038 19.9541 18.6875 19.9579C18.6533 19.966 18.5969 19.9755 18.5038 19.9831C18.3038 19.9995 18.0365 20.0002 17.6 20.0002H13V14Z" fill="currentColor"/>
</svg>
