<svg width="24" height="24" viewBox="0 0 24 24" fill="none" xmlns="http://www.w3.org/2000/svg">
<mask id="mask0_1872_1165" style="mask-type:alpha" maskUnits="userSpaceOnUse" x="0" y="0" width="24" height="24">
<rect width="24" height="24" fill="#D9D9D9"/>
</mask>
<g mask="url(#mask0_1872_1165)">
<path d="M12.4813 11.5723L4.07812 20.3782C4.07875 20.3801 4.07875 20.3819 4.07938 20.3838C4.33744 21.3396 5.22122 22.0443 6.27162 22.0443C6.69128 22.0443 7.08525 21.9322 7.42286 21.7355L7.44979 21.7198L16.9084 16.3313L12.4813 11.5723Z" fill="#EA4335"/>
<path d="M20.9797 10.0721L20.9715 10.067L16.8877 7.72949L12.2871 11.772L16.9052 16.3306L20.9659 14.015C21.678 13.6354 22.1616 12.8944 22.1616 12.0394C22.1616 11.1907 21.6849 10.4535 20.9797 10.0721Z" fill="#FBBC04"/>
<path d="M4.07704 3.66504C4.02631 3.84919 4 4.0421 4 4.24191V19.8018C4.00814 20.0254 4.02631 20.1952 4.07767 20.3781L12.7696 11.7976L4.07704 3.66504Z" fill="#4285F4"/>
<path d="M12.5439 12.0217L16.8915 7.72989L7.44478 2.32007C7.10154 2.11713 6.70067 2 6.27225 2C5.22248 2 4.33681 2.70528 4.07875 3.66297C4.07875 3.66297 4.07812 3.66422 4.07812 3.66548L12.5439 12.0217Z" fill="#34A853"/>
</g>
</svg>
