<svg width="24" height="24" viewBox="0 0 24 24" fill="none" xmlns="http://www.w3.org/2000/svg">
<path fill-rule="evenodd" clip-rule="evenodd" d="M11.9299 2L12 2.00001L12.0701 2H12.0702H12.0702C12.9323 1.99997 13.4417 1.99996 13.8822 2.04334C18.1552 2.4642 21.5358 5.84486 21.9567 10.1179C22.0001 10.5584 22 11.0678 22 11.93V12.0001V12.0702C22 12.9323 22.0001 13.4418 21.9567 13.8823C21.5358 18.1553 18.1552 21.5359 13.8822 21.9568C13.4416 22.0002 12.9322 22.0002 12.0701 22.0001H12H11.9299C11.0678 22.0002 10.5584 22.0002 10.1179 21.9568C5.84486 21.5359 2.4642 18.1553 2.04334 13.8823C1.99996 13.4418 1.99997 12.9324 2 12.0703V12.0702V12.0702L2.00001 12.0001L2 11.9299V11.9299V11.9298C1.99997 11.0677 1.99996 10.5584 2.04334 10.1179C2.4642 5.84486 5.84486 2.4642 10.1179 2.04334C10.5584 1.99996 11.0677 1.99997 11.9298 2H11.9298H11.9299ZM8 7C7.44772 7 7 7.44772 7 8V9C7 9.55229 7.44772 10 8 10H9C9.55229 10 10 9.55229 10 9V8C10 7.44772 9.55229 7 9 7H8ZM15 7C14.4477 7 14 7.44772 14 8V9C14 9.55229 14.4477 10 15 10H16C16.5523 10 17 9.55229 17 9V8C17 7.44772 16.5523 7 16 7H15ZM7.29289 11.7929C6.90237 12.1834 6.90237 12.8166 7.29289 13.2071C8.52287 14.4371 10.3015 15 12 15C13.6985 15 15.4771 14.4371 16.7071 13.2071C17.0976 12.8166 17.0976 12.1834 16.7071 11.7929C16.3166 11.4024 15.6834 11.4024 15.2929 11.7929C14.5229 12.5629 13.3015 13 12 13C10.6985 13 9.47713 12.5629 8.70711 11.7929C8.31658 11.4024 7.68342 11.4024 7.29289 11.7929Z" fill="currentColor"/>
</svg>
