<svg width="24" height="24" viewBox="0 0 24 24" fill="none" xmlns="http://www.w3.org/2000/svg">
<path fill-rule="evenodd" clip-rule="evenodd" d="M4 12C4 7.58172 7.58172 4 12 4C16.4183 4 20 7.58172 20 12C20 16.1172 16.889 19.5091 12.8901 19.9511C12.3412 20.0118 11.9454 20.506 12.0061 21.0549C12.0667 21.6039 12.5609 21.9997 13.1099 21.939C18.1109 21.3862 22 17.148 22 12C22 6.47715 17.5228 2 12 2C6.47715 2 2 6.47715 2 12C2 14.4493 2.93097 16.7378 4.42141 18.5H2C1.44772 18.5 1 18.9477 1 19.5C1 20.0523 1.44772 20.5 2 20.5H7C7.55228 20.5 8 20.0523 8 19.5V14.5C8 13.9477 7.55228 13.5 7 13.5C6.44772 13.5 6 13.9477 6 14.5V17.2694C4.76769 15.8402 4 13.9745 4 12ZM13 7.5C13 6.94772 12.5523 6.5 12 6.5C11.4477 6.5 11 6.94772 11 7.5V11.2L10.9999 11.2615C10.9992 11.4883 10.9983 11.7739 11.0769 12.0492C11.145 12.2877 11.2569 12.5114 11.4068 12.709C11.5799 12.9371 11.8088 13.1077 11.9908 13.2432L11.9908 13.2432L12.04 13.28L15.4 15.8C15.8419 16.1314 16.4687 16.0418 16.8 15.6C17.1314 15.1582 17.0419 14.5314 16.6 14.2L13.24 11.68C13.1145 11.5859 13.0513 11.5381 13.0072 11.5011L13.0037 11.4982L13.0034 11.4936C13.0004 11.4361 13 11.3569 13 11.2V7.5Z" fill="currentColor"/>
</svg>
