<svg width="24" height="24" viewBox="0 0 24 24" fill="none" xmlns="http://www.w3.org/2000/svg">
<path fill-rule="evenodd" clip-rule="evenodd" d="M10.6908 2.8776C11.216 2.70693 11.5035 2.14278 11.3328 1.61752C11.1621 1.09227 10.598 0.804818 10.0727 0.975483C9.57941 1.13577 9.19067 1.44389 8.82371 1.78082C8.66035 1.93082 8.48502 2.10243 8.29552 2.29078C8.21173 2.37407 8.12341 2.46239 8.03101 2.55479L8.03063 2.55517L8.02994 2.55586L4.63583 5.94997L4.54925 6.03653C3.76726 6.81821 3.25583 7.32944 2.88395 7.9363C2.55497 8.47314 2.31255 9.0584 2.16557 9.67062C1.99941 10.3627 1.99956 11.0858 1.99977 12.1915L1.99979 12.3139V16.2002L1.99979 16.2415C1.99977 17.0465 1.99976 17.7109 2.04398 18.2521C2.08991 18.8141 2.18847 19.3309 2.43576 19.8162C2.81925 20.5688 3.43118 21.1808 4.18382 21.5643C4.66916 21.8115 5.18586 21.9101 5.74796 21.956C6.28915 22.0002 6.9535 22.0002 7.75846 22.0002H7.79979H14.1998H14.2411C15.0461 22.0002 15.7104 22.0002 16.2516 21.956C16.8137 21.9101 17.3304 21.8115 17.8158 21.5643C18.5684 21.1808 19.1803 20.5688 19.5638 19.8162C19.7961 19.3603 19.8969 18.8775 19.9464 18.3558C19.9949 17.8455 19.9991 17.232 19.9997 16.5008C20.0001 15.9485 19.5528 15.5005 19.0005 15.5C18.4482 15.4996 18.0001 15.947 17.9997 16.4992C17.9991 17.2507 17.9934 17.7671 17.9554 18.1666C17.9185 18.5547 17.8564 18.7617 17.7818 18.9082C17.5901 19.2845 17.2841 19.5905 16.9078 19.7822C16.7514 19.8619 16.5272 19.9269 16.0887 19.9627C15.6387 19.9994 15.0564 20.0002 14.1998 20.0002H12.2752V18C12.2752 17.4477 11.8275 17 11.2752 17H11.0002H10.7252C10.173 17 9.72524 17.4477 9.72524 18V20.0002H7.79979C6.94321 20.0002 6.36091 19.9994 5.91082 19.9627C5.47241 19.9269 5.24821 19.8619 5.09181 19.7822C4.71548 19.5905 4.40952 19.2845 4.21777 18.9082L3.32677 19.3622L4.21777 18.9082C4.13808 18.7518 4.07316 18.5276 4.03734 18.0892C4.00056 17.6391 3.99979 17.0568 3.99979 16.2002V12.3139C3.99979 11.0434 4.00621 10.5711 4.11031 10.1375C4.20829 9.72937 4.36991 9.33919 4.58923 8.9813C4.82221 8.60111 5.15162 8.2626 6.05004 7.36419L9.44415 3.97007C9.53743 3.8768 9.62388 3.79035 9.70545 3.70927C9.89184 3.524 10.0438 3.37575 10.1764 3.25403C10.4935 2.9628 10.6214 2.90012 10.6908 2.8776ZM17.9998 6C17.9998 5.44772 17.552 5 16.9998 5C16.4475 5 15.9998 5.44772 15.9998 6V8C15.9998 8.26519 16.1051 8.51952 16.2926 8.70705L17.7923 10.207C18.1828 10.5976 18.816 10.5977 19.2066 10.2072C19.5971 9.81667 19.5972 9.18351 19.2067 8.79295L17.9998 7.58583V6ZM16.884 1.99998L16.9998 2L17.1155 1.99998C17.9331 1.99978 18.4904 1.99964 18.9752 2.09607C20.9587 2.49061 22.5091 4.0411 22.9037 6.02455C23.0001 6.50935 23 7.06664 22.9998 7.88424L22.9998 8L22.9998 8.11576C23 8.93336 23.0001 9.49065 22.9037 9.97545C22.5091 11.9589 20.9587 13.5094 18.9752 13.9039C18.4904 14.0004 17.9331 14.0002 17.1155 14L16.9998 14L16.884 14C16.0664 14.0002 15.5091 14.0004 15.0243 13.9039C13.0409 13.5094 11.4904 11.9589 11.0958 9.97545C10.9994 9.49065 10.9995 8.93337 10.9997 8.11577V8.11576L10.9998 8L10.9997 7.88424V7.88423V7.88422C10.9995 7.06663 10.9994 6.50935 11.0958 6.02455C11.4904 4.0411 13.0409 2.49061 15.0243 2.09607C15.5091 1.99964 16.0664 1.99978 16.884 1.99998ZM16.9998 4C16.0225 4 15.6799 4.00484 15.4145 4.05764C14.2244 4.29436 13.2941 5.22466 13.0574 6.41473C13.0046 6.68018 12.9998 7.02276 12.9998 8C12.9998 8.97724 13.0046 9.31982 13.0574 9.58527C13.2941 10.7753 14.2244 11.7056 15.4145 11.9424C15.6799 11.9952 16.0225 12 16.9998 12C17.977 12 18.3196 11.9952 18.585 11.9424C19.7751 11.7056 20.7054 10.7753 20.9421 9.58527C20.9949 9.31982 20.9998 8.97724 20.9998 8C20.9998 7.02276 20.9949 6.68018 20.9421 6.41473C20.7054 5.22466 19.7751 4.29436 18.585 4.05764C18.3196 4.00484 17.977 4 16.9998 4Z" fill="currentColor"/>
</svg>
