<svg width="24" height="24" viewBox="0 0 24 24" fill="none" xmlns="http://www.w3.org/2000/svg">
<path fill-rule="evenodd" clip-rule="evenodd" d="M6.76462 4.56236C6.97073 4.15025 7.43176 3.93233 7.88104 4.03464C7.90701 4.04056 7.99679 4.06866 8.22996 4.20638C8.46002 4.34227 8.75476 4.53833 9.19271 4.8303L9.27336 4.8841C9.7607 5.2093 10.1264 5.45331 10.5161 5.60899C11.4688 5.98957 12.5312 5.98957 13.4839 5.60899C13.8736 5.45331 14.2393 5.2093 14.7266 4.8841L14.8073 4.8303C15.2452 4.53833 15.54 4.34227 15.77 4.20638C16.0032 4.06866 16.093 4.04056 16.1189 4.03464C16.5682 3.93233 17.0293 4.15025 17.2354 4.56236C17.2473 4.58618 17.2825 4.6734 17.3241 4.941C17.3652 5.20502 17.4007 5.55722 17.4531 6.08096L17.845 9.99997H6.15498L6.54688 6.08096C6.59926 5.55722 6.63483 5.20502 6.67586 4.941C6.71744 4.6734 6.75271 4.58618 6.76462 4.56236ZM4.55681 5.88195L4.05275 10.9225C3.93324 10.9067 3.81405 10.8885 3.69524 10.868C3.37745 10.8129 3.06055 10.7343 2.33165 10.5521L2.24253 10.5298C1.70673 10.3959 1.1638 10.7216 1.02985 11.2574C0.895901 11.7932 1.22166 12.3362 1.75746 12.4701L1.84658 12.4924L1.88759 12.5027C2.56431 12.6718 2.95524 12.7696 3.35394 12.8386C3.70805 12.9 4.06494 12.9439 4.42335 12.9703C4.82691 13 5.22988 13 5.92747 13H5.96968H18.0303H18.0725C18.7701 13 19.1731 13 19.5766 12.9703C19.935 12.9439 20.2919 12.9 20.646 12.8386C21.0447 12.7696 21.4356 12.6719 22.1123 12.5027L22.1124 12.5027L22.1124 12.5026L22.1534 12.4924L22.2425 12.4701C22.7783 12.3362 23.1041 11.7932 22.9701 11.2574C22.8362 10.7216 22.2933 10.3959 21.7575 10.5298L21.6683 10.5521C20.9394 10.7343 20.6225 10.8129 20.3047 10.868C20.1859 10.8885 20.0667 10.9067 19.9472 10.9225L19.4432 5.88195L19.4404 5.85386L19.4403 5.8536C19.3915 5.36521 19.3508 4.95832 19.3004 4.6339C19.2496 4.30681 19.1769 3.97319 19.0241 3.66773C18.4058 2.4314 17.0227 1.77763 15.6749 2.08457C15.3418 2.1604 15.0379 2.31599 14.7529 2.48433C14.4702 2.65133 14.1299 2.87821 13.7214 3.15054L13.7213 3.15056L13.6979 3.1662C13.0942 3.56864 12.9125 3.68359 12.742 3.7517C12.2656 3.94199 11.7344 3.94199 11.258 3.7517C11.0875 3.68359 10.9058 3.56864 10.3021 3.1662L10.2787 3.15059L10.2787 3.15056L10.2786 3.15055L10.2786 3.15053C9.87012 2.8782 9.52982 2.65133 9.24709 2.48433C8.96207 2.31599 8.65814 2.1604 8.32513 2.08457C6.9773 1.77763 5.59421 2.4314 4.97587 3.66773C4.82309 3.97319 4.7504 4.30681 4.69957 4.6339C4.64915 4.95839 4.60846 5.36537 4.55961 5.85389L4.55961 5.85393L4.55961 5.85395L4.55961 5.85397L4.55681 5.88195ZM5.49999 18C5.49999 16.8954 6.39542 16 7.49999 16C8.60456 16 9.49999 16.8954 9.49999 18C9.49999 19.1046 8.60456 20 7.49999 20C6.39542 20 5.49999 19.1046 5.49999 18ZM7.49999 14C5.29085 14 3.49999 15.7908 3.49999 18C3.49999 20.2091 5.29085 22 7.49999 22C9.70913 22 11.5 20.2091 11.5 18C11.5 17.7088 11.4689 17.4248 11.4098 17.1513C11.7903 17.0108 12.2096 17.0109 12.5902 17.1514C12.5311 17.4249 12.5 17.7088 12.5 18C12.5 20.2091 14.2909 22 16.5 22C18.7091 22 20.5 20.2091 20.5 18C20.5 15.7908 18.7091 14 16.5 14C15.3022 14 14.2273 14.5265 13.4943 15.3607C12.5432 14.9411 11.4567 14.9411 10.5056 15.3605C9.77252 14.5264 8.69773 14 7.49999 14ZM14.5 18C14.5 16.8954 15.3954 16 16.5 16C17.6046 16 18.5 16.8954 18.5 18C18.5 19.1046 17.6046 20 16.5 20C15.3954 20 14.5 19.1046 14.5 18Z" fill="currentColor"/>
</svg>
