<svg width="24" height="24" viewBox="0 0 24 24" fill="none" xmlns="http://www.w3.org/2000/svg">
<path fill-rule="evenodd" clip-rule="evenodd" d="M10.9562 2L11 2H13L13.0438 2C14.4068 1.99999 15.4908 1.99999 16.3654 2.07144C17.261 2.14462 18.0247 2.29768 18.7239 2.65396C19.8529 3.2292 20.7708 4.14708 21.346 5.27606C21.7023 5.9753 21.8554 6.73898 21.9286 7.63458C22 8.50914 22 9.59313 22 10.9561V10.9562V11V13.0001V13.0439V13.044C22 14.407 22 15.491 21.9286 16.3655C21.8554 17.2611 21.7023 18.0248 21.346 18.7241C20.7708 19.853 19.8529 20.7709 18.7239 21.3462C18.0247 21.7024 17.261 21.8555 16.3654 21.9287C15.4909 22.0001 14.4069 22.0001 13.0439 22.0001H13.0438H13H11H10.9562H10.9561C9.59313 22.0001 8.50914 22.0001 7.63458 21.9287C6.73898 21.8555 5.9753 21.7024 5.27606 21.3462C4.14708 20.7709 3.2292 19.853 2.65396 18.7241C2.29768 18.0248 2.14462 17.2611 2.07144 16.3655C1.99999 15.491 1.99999 14.4069 2 13.0439L2 13.0001V11L2 10.9562C1.99999 9.5932 1.99999 8.50917 2.07144 7.63458C2.14462 6.73898 2.29768 5.9753 2.65396 5.27606C3.2292 4.14708 4.14708 3.2292 5.27606 2.65396C5.9753 2.29768 6.73898 2.14462 7.63458 2.07144C8.50917 1.99999 9.5932 1.99999 10.9562 2ZM11.5 6C10.9477 6 10.5 6.44771 10.5 7V8C10.5 8.55228 10.9477 9 11.5 9H12.5C13.0523 9 13.5 8.55228 13.5 8V7C13.5 6.44771 13.0523 6 12.5 6H11.5ZM13 11.5C13 10.9477 12.5523 10.5 12 10.5C11.4477 10.5 11 10.9477 11 11.5V17C11 17.5523 11.4477 18 12 18C12.5523 18 13 17.5523 13 17V11.5Z" fill="currentColor"/>
</svg>
