<svg width="24" height="24" viewBox="0 0 24 24" fill="none" xmlns="http://www.w3.org/2000/svg">
<path fill-rule="evenodd" clip-rule="evenodd" d="M5.66314 4.19069C7.19731 3.64321 9.5326 3 12.0002 3C14.4678 3 16.8031 3.64321 18.3373 4.19069C18.9456 4.40779 19.0379 4.45395 19.1529 4.55301C19.2528 4.6391 19.3856 4.82744 19.4331 4.95048C19.4858 5.08695 19.5002 5.2213 19.5002 5.97771V13.1194C19.5002 14.4746 19.4894 14.9375 19.3637 15.34C19.2428 15.7267 19.0449 16.085 18.7819 16.3931C18.5081 16.7138 18.122 16.9694 16.9747 17.6908L12.3196 20.6179C12.1548 20.7215 12.0696 20.7745 12.0058 20.8093L12.0002 20.8123L11.9946 20.8093C11.9308 20.7745 11.8456 20.7215 11.6808 20.6179L7.02572 17.6908C5.87844 16.9694 5.4923 16.7138 5.21853 16.3931C4.95547 16.085 4.75755 15.7267 4.63672 15.34C4.51097 14.9375 4.5002 14.4746 4.5002 13.1194V5.97771C4.5002 5.2213 4.51462 5.08695 4.5673 4.95048C4.61479 4.82744 4.74756 4.6391 4.84747 4.55301C4.96246 4.45395 5.05479 4.40779 5.66314 4.19069ZM12.0002 1C9.21415 1 6.63654 1.71979 4.99094 2.30704L4.90884 2.33627C4.41633 2.51137 3.96809 2.67074 3.54202 3.03783C3.19276 3.33875 2.86752 3.80013 2.70149 4.23022C2.49858 4.75585 2.4993 5.2815 2.5001 5.86634L2.5002 5.97771V13.1194L2.50016 13.2718C2.49974 14.4153 2.49944 15.2058 2.72773 15.9365C2.92912 16.581 3.25898 17.1781 3.69742 17.6917C4.19443 18.2739 4.86382 18.6944 5.83203 19.3027L5.83205 19.3028L5.96109 19.3839L10.6162 22.311L10.6813 22.3521C10.9181 22.5023 11.2156 22.691 11.5549 22.7685C11.848 22.8355 12.1524 22.8355 12.4455 22.7685C12.7848 22.691 13.0823 22.5023 13.3191 22.3521L13.3842 22.311L18.0393 19.3839L18.1684 19.3027C19.1366 18.6944 19.806 18.2739 20.303 17.6917C20.7414 17.1781 21.0713 16.581 21.2727 15.9365C21.501 15.2058 21.5007 14.4153 21.5002 13.2718L21.5002 13.1194V5.97771L21.5003 5.86634C21.5011 5.2815 21.5018 4.75585 21.2989 4.23022C21.1329 3.80013 20.8076 3.33875 20.4584 3.03783C20.0323 2.67074 19.5841 2.51137 19.0916 2.33627L19.0095 2.30704C17.3639 1.71979 14.7863 1 12.0002 1ZM16.7928 8.10971C17.1296 7.67196 17.0477 7.04411 16.6099 6.70738C16.1722 6.37064 15.5443 6.45254 15.2076 6.89029L10.969 12.4005L9.26842 10.3598C8.91486 9.93554 8.28429 9.87821 7.86002 10.2318C7.43574 10.5853 7.37842 11.2159 7.73198 11.6402L9.59242 13.8727L9.60974 13.8935C9.70348 14.0061 9.8109 14.1351 9.91366 14.2384C10.0285 14.354 10.2147 14.5194 10.4862 14.615C10.8277 14.7353 11.2013 14.728 11.5378 14.5945C11.8054 14.4883 11.9849 14.3158 12.0952 14.1958C12.1939 14.0885 12.2962 13.9555 12.3854 13.8393L12.4019 13.8179L16.7928 8.10971Z" fill="currentColor"/>
</svg>
