<svg width="24" height="24" viewBox="0 0 24 24" fill="none" xmlns="http://www.w3.org/2000/svg">
<path fill-rule="evenodd" clip-rule="evenodd" d="M11.0679 2L11.0998 2.00001L12.8998 2.00001L12.9317 2.00001C13.1841 1.99998 13.4299 1.99995 13.6381 2.01695C13.8667 2.03563 14.1364 2.0797 14.4078 2.218C14.7841 2.40974 15.0901 2.7157 15.2818 3.09203C15.4201 3.36345 15.4642 3.63319 15.4829 3.86178C15.4999 4.06994 15.4999 4.31574 15.4998 4.56813L15.4998 4.60001V4.99999H17.8279L17.8618 4.99999C18.2164 4.99997 18.5378 4.99995 18.8071 5.021C19.0972 5.04368 19.4041 5.09494 19.7102 5.23953C20.1568 5.45052 20.5309 5.78907 20.7853 6.21246C20.9597 6.50264 21.0412 6.80292 21.0927 7.08939C21.1404 7.35522 21.1724 7.675 21.2076 8.0278L21.211 8.0616L21.8191 14.1412L21.8225 14.1751C21.8501 14.4506 21.8767 14.716 21.8801 14.9409C21.8838 15.1856 21.8641 15.48 21.736 15.7815C21.5823 16.1437 21.3257 16.4512 20.9998 16.6672V18.6V18.6361C20.9999 19.0252 20.9999 19.3753 20.9761 19.6666C20.9506 19.9786 20.8929 20.3101 20.7273 20.635C20.4877 21.1054 20.1052 21.4878 19.6348 21.7275C19.3099 21.8931 18.9784 21.9507 18.6665 21.9762C18.3751 22 18.025 22 17.6359 22H17.5998H6.39983H6.36372C5.97464 22 5.62451 22 5.3332 21.9762C5.02123 21.9507 4.68975 21.8931 4.36485 21.7275C3.89445 21.4878 3.51199 21.1054 3.27231 20.635C3.10677 20.3101 3.04907 19.9786 3.02358 19.6666C2.99978 19.3753 2.9998 19.0252 2.99983 18.6361V18.6V16.667C2.67403 16.4511 2.41754 16.1436 2.26384 15.7815C2.13582 15.48 2.1161 15.1856 2.11978 14.941C2.12317 14.716 2.14974 14.4506 2.17733 14.1751L2.18071 14.1413L2.78867 8.06168L2.79204 8.028C2.8273 7.67514 2.85927 7.35531 2.90701 7.08945C2.95845 6.80298 3.03999 6.50268 3.21433 6.2125C3.46871 5.78909 3.84282 5.45053 4.28943 5.23954C4.59553 5.09494 4.90244 5.04368 5.19261 5.021C5.46191 4.99995 5.78333 4.99997 6.13795 4.99999C6.1492 4.99999 6.16048 4.99999 6.1718 4.99999H8.49983L8.49983 4.60001C8.49983 4.58936 8.49983 4.57872 8.49983 4.56809C8.4998 4.31571 8.49977 4.06993 8.51677 3.86178C8.53545 3.63318 8.57952 3.36345 8.71782 3.09202C8.90956 2.7157 9.21552 2.40974 9.59185 2.21799C9.86327 2.07969 10.133 2.03563 10.3616 2.01695C10.5698 1.99994 10.8156 1.99997 11.0679 2ZM10.4998 4.99999H13.4998V4.60001C13.4998 4.30348 13.4991 4.14123 13.4895 4.02464C13.4891 4.02 13.4888 4.01561 13.4884 4.01146C13.4842 4.01107 13.4798 4.01069 13.4752 4.01031C13.3586 4.00079 13.1964 4.00001 12.8998 4.00001L11.0998 4.00001C10.8033 4 10.641 4.00078 10.5245 4.01031C10.5198 4.01069 10.5154 4.01107 10.5113 4.01145C10.5109 4.0156 10.5105 4.02 10.5101 4.02464C10.5006 4.14122 10.4998 4.30348 10.4998 4.60001L10.4998 4.99999ZM14.4998 6.99999H6.1718C5.77251 6.99999 5.53035 7.0007 5.34846 7.01492C5.2641 7.02151 5.21298 7.02977 5.18182 7.03671C5.15352 7.04301 5.14416 7.0477 5.14373 7.0479C5.05441 7.0901 4.97959 7.15781 4.92871 7.24249C4.92847 7.2429 4.92287 7.25175 4.91378 7.27928C4.90378 7.30959 4.89048 7.35964 4.87552 7.44292C4.84328 7.62249 4.81848 7.86338 4.77875 8.26069L4.17079 14.3403C4.13858 14.6623 4.12151 14.8415 4.11956 14.9711C4.11947 14.9766 4.11943 14.9819 4.11941 14.9868C4.12432 14.9873 4.12953 14.9877 4.13506 14.9882C4.26417 14.9992 4.44419 15 4.76781 15L10.5001 15L13.5001 15L19.232 15C19.5557 15 19.7357 14.9992 19.8648 14.9882C19.8703 14.9877 19.8756 14.9873 19.8805 14.9868C19.8804 14.9819 19.8804 14.9766 19.8803 14.9711C19.8784 14.8415 19.8613 14.6623 19.8291 14.3403L19.221 8.26066C19.1812 7.86336 19.1564 7.62247 19.1242 7.44291C19.1092 7.35963 19.0959 7.30958 19.0859 7.27927C19.077 7.25236 19.0715 7.2433 19.071 7.24253L19.071 7.24249C19.0201 7.15781 18.9453 7.0901 18.856 7.0479C18.8555 7.0477 18.8462 7.04301 18.8179 7.03671C18.7867 7.02977 18.7356 7.02151 18.6512 7.01492C18.4693 7.0007 18.2272 6.99999 17.8279 6.99999H14.4998ZM4.99983 17V18.6C4.99983 19.0365 5.00061 19.3038 5.01694 19.5038C5.02455 19.5969 5.03411 19.6533 5.04217 19.6875C5.04601 19.7038 5.04922 19.7138 5.05115 19.7192C5.05301 19.7244 5.05412 19.7266 5.05432 19.727C5.10226 19.8211 5.17875 19.8976 5.27283 19.9455C5.27323 19.9457 5.27542 19.9468 5.28062 19.9487C5.28603 19.9506 5.29605 19.9538 5.31233 19.9577C5.34655 19.9657 5.40291 19.9753 5.49606 19.9829C5.69602 19.9992 5.96329 20 6.39983 20H17.5998C18.0364 20 18.3036 19.9992 18.5036 19.9829C18.5967 19.9753 18.6531 19.9657 18.6873 19.9577C18.7036 19.9538 18.7136 19.9506 18.719 19.9487C18.7242 19.9468 18.7264 19.9457 18.7268 19.9455C18.8209 19.8976 18.8974 19.8211 18.9453 19.727C18.9455 19.7266 18.9466 19.7244 18.9485 19.7192C18.9504 19.7138 18.9536 19.7038 18.9575 19.6875C18.9655 19.6533 18.9751 19.5969 18.9827 19.5038C18.9991 19.3038 18.9998 19.0365 18.9998 18.6V17L14.5001 17C14.5001 17.5523 14.0524 18 13.5001 18H10.5001C9.94779 18 9.50007 17.5523 9.50007 17L4.99983 17Z" fill="currentColor"/>
</svg>
