<svg width="24" height="24" viewBox="0 0 24 24" fill="none" xmlns="http://www.w3.org/2000/svg">
<path fill-rule="evenodd" clip-rule="evenodd" d="M12.9999 3C12.9999 2.44772 12.5522 2 11.9999 2C11.4477 2 10.9999 2.44772 10.9999 3V3.00001L6.2 3.00002L6.16145 3.00002H6.16144C5.6343 3 5.17954 2.99999 4.80497 3.03059C4.40963 3.06289 4.01641 3.13421 3.63803 3.327C3.07354 3.61462 2.6146 4.07356 2.32698 4.63805C2.13419 5.01643 2.06287 5.40965 2.03057 5.80499C1.99997 6.17955 1.99998 6.6343 2 7.16143V7.16147V7.20002V15.8V15.8385V15.8386C1.99998 16.3657 1.99997 16.8205 2.03057 17.195C2.06287 17.5904 2.13419 17.9836 2.32698 18.362C2.6146 18.9265 3.07354 19.3854 3.63803 19.673C4.01641 19.8658 4.40963 19.9371 4.80497 19.9694C4.92796 19.9795 5.0596 19.9862 5.1996 19.9908C5.06845 20.3094 5 20.6521 5 21C5 21.5523 5.44772 22 6 22C6.55229 22 7 21.5523 7 21C7 20.8714 7.03807 20.7457 7.1094 20.6387L7.53519 20H16.4648L16.8906 20.6387C16.9619 20.7457 17 20.8714 17 21C17 21.5523 17.4477 22 18 22C18.5523 22 19 21.5523 19 21C19 20.6521 18.9316 20.3094 18.8004 19.9908C18.9404 19.9862 19.072 19.9795 19.1949 19.9694C19.5903 19.9371 19.9835 19.8658 20.3619 19.673C20.9263 19.3854 21.3853 18.9265 21.6729 18.362C21.8657 17.9836 21.937 17.5904 21.9693 17.195C21.9999 16.8205 21.9999 16.3657 21.9999 15.8386V15.8V7.2V7.16144C21.9999 6.6343 21.9999 6.17954 21.9693 5.80497C21.937 5.40963 21.8657 5.01641 21.6729 4.63803C21.3853 4.07354 20.9263 3.6146 20.3618 3.32698C19.9835 3.13419 19.5903 3.06287 19.1949 3.03057C18.8203 2.99997 18.3656 2.99998 17.8384 3L17.7999 3L12.9999 3.00001V3ZM17.7999 5C18.3764 5 18.7487 5.00078 19.032 5.02393C19.3037 5.04613 19.4044 5.0838 19.4539 5.109C19.642 5.20487 19.795 5.35785 19.8909 5.54601C19.9161 5.59546 19.9538 5.69617 19.976 5.96784C19.9991 6.25118 19.9999 6.62345 19.9999 7.2V15.8C19.9999 16.3766 19.9991 16.7488 19.976 17.0322C19.9538 17.3038 19.9161 17.4045 19.8909 17.454C19.795 17.6422 19.642 17.7951 19.4539 17.891C19.4044 17.9162 19.3037 17.9539 19.032 17.9761C18.7487 17.9992 18.3764 18 17.7999 18H17H7H6.2C5.62345 18 5.25118 17.9992 4.96784 17.9761C4.69618 17.9539 4.59546 17.9162 4.54601 17.891C4.35785 17.7951 4.20487 17.6422 4.109 17.454C4.0838 17.4045 4.04613 17.3038 4.02393 17.0322C4.00078 16.7488 4 16.3766 4 15.8V7.20002C4 6.62347 4.00078 6.25119 4.02393 5.96786C4.04613 5.69619 4.0838 5.59547 4.109 5.54603C4.20487 5.35787 4.35785 5.20489 4.54601 5.10901C4.59545 5.08382 4.69617 5.04614 4.96784 5.02395C5.25117 5.0008 5.62345 5.00002 6.2 5.00002L11.9999 5.00001L17.7999 5ZM13.9608 8C13.5528 8 13.1857 8.24783 13.0332 8.62623C12.8808 9.00463 12.9734 9.43772 13.2674 9.72059L14.3364 10.7492L12.83 12.6005L10.1238 10.4406C9.71009 10.1105 9.11076 10.1598 8.75668 10.5533L6.25681 13.3311C5.88737 13.7416 5.92066 14.3739 6.33118 14.7433C6.7417 15.1128 7.37399 15.0795 7.74344 14.6689L9.61283 12.5917L12.3566 14.7816C12.7853 15.1238 13.4097 15.0567 13.756 14.6312L16.4685 11.2978L16.4798 11.2838L17.7869 9.61712C18.023 9.31601 18.0666 8.90655 17.8992 8.56246C17.7318 8.21837 17.3827 8 17 8H13.9608Z" fill="currentColor"/>
</svg>
