<svg width="24" height="24" viewBox="0 0 24 24" fill="none" xmlns="http://www.w3.org/2000/svg">
<path fill-rule="evenodd" clip-rule="evenodd" d="M6.80001 2H6.75871H6.75868C5.95372 1.99998 5.28936 1.99997 4.74817 2.04418C4.18607 2.09011 3.66937 2.18867 3.18403 2.43596C2.43137 2.81945 1.81945 3.43137 1.43595 4.18402C1.18866 4.66936 1.09009 5.18606 1.04417 5.74816C0.999951 6.28936 0.999961 6.95373 0.999974 7.7587L0.999974 7.8V14.0001L0.999925 14.1377C0.999494 14.9331 0.999175 15.5238 1.13628 16.0354C1.50615 17.4158 2.58431 18.4939 3.96464 18.8638C4.28559 18.9498 4.61192 18.9784 4.96813 18.9906C5.52009 19.0094 5.9828 18.5772 6.00162 18.0252C6.02045 17.4733 5.58825 17.0106 5.03628 16.9917C4.73452 16.9814 4.58532 16.9596 4.48231 16.932C3.79214 16.747 3.25306 16.2079 3.06813 15.5178C3.00856 15.2955 2.99997 14.9945 2.99997 14.0001V7.8C2.99997 6.94342 3.00075 6.36112 3.03753 5.91103C3.07335 5.47261 3.13827 5.24841 3.21796 5.09201C3.40971 4.71568 3.71567 4.40972 4.092 4.21797C4.2484 4.13828 4.47261 4.07336 4.91103 4.03754C5.36112 4.00077 5.94341 4 6.8 4L17.2 4.00007C18.0566 4.00007 18.6389 4.00085 19.0889 4.03763C19.5274 4.07345 19.7516 4.13838 19.908 4.21807C20.2843 4.40982 20.5902 4.71578 20.782 5.0921L21.673 4.63811L20.782 5.0921C20.8617 5.2485 20.9266 5.4727 20.9624 5.91112C20.9992 6.3612 21 6.94349 21 7.80007V14.0002C21 14.9945 20.9914 15.2956 20.9318 15.5178C20.7469 16.208 20.2078 16.7471 19.5176 16.9321C19.4148 16.9596 19.2661 16.9814 18.9657 16.9917C18.4137 17.0107 17.9816 17.4735 18.0006 18.0255C18.0195 18.5774 18.4823 19.0095 19.0343 18.9906C19.3894 18.9784 19.715 18.9497 20.0352 18.8639C21.4156 18.4941 22.4938 17.4158 22.8637 16.0354C23.0008 15.5238 23.0005 14.9332 23 14.1378L23 14.0002V7.80007V7.75874C23 6.95379 23 6.28944 22.9558 5.74825C22.9099 5.18616 22.8113 4.66946 22.564 4.18412C22.1805 3.43148 21.5686 2.81955 20.816 2.43606C20.3306 2.18877 19.8139 2.0902 19.2518 2.04427C18.7106 2.00005 18.0463 2.00006 17.2413 2.00007L17.2 2.00007L6.80001 2ZM4.49994 11.9999C4.49994 12.5522 4.94765 12.9999 5.49994 12.9999H6.49994C7.05222 12.9999 7.49994 12.5522 7.49994 11.9999V10.9999C7.49994 10.4477 7.05222 9.99994 6.49994 9.99994H5.49994C4.94765 9.99994 4.49994 10.4477 4.49994 10.9999V11.9999ZM6.49994 7.99994C6.49994 8.55222 6.94766 8.99994 7.49994 8.99994H8.49994C9.05223 8.99994 9.49994 8.55222 9.49994 7.99994V6.99994C9.49994 6.44765 9.05223 5.99994 8.49994 5.99994L7.49994 5.99994C6.94766 5.99994 6.49994 6.44765 6.49994 6.99994V7.99994ZM8.49994 11.9999C8.49994 12.5522 8.94765 12.9999 9.49994 12.9999H10.4999C11.0522 12.9999 11.4999 12.5522 11.4999 11.9999V10.9999C11.4999 10.4477 11.0522 9.99994 10.4999 9.99994H9.49994C8.94765 9.99994 8.49994 10.4477 8.49994 10.9999V11.9999ZM10.4999 7.99994C10.4999 8.55222 10.9477 8.99994 11.4999 8.99994H12.4999C13.0522 8.99994 13.4999 8.55222 13.4999 7.99994V6.99994C13.4999 6.44765 13.0522 5.99994 12.4999 5.99994H11.4999C10.9477 5.99994 10.4999 6.44765 10.4999 6.99994V7.99994ZM12.4999 11.9999C12.4999 12.5522 12.9477 12.9999 13.4999 12.9999H14.4999C14.7652 12.9999 15.0195 12.8946 15.207 12.707C15.3946 12.5195 15.4999 12.2652 15.4999 11.9999V10.9999C15.4999 10.4477 15.0522 9.99994 14.4999 9.99994H13.4999C12.9477 9.99994 12.4999 10.4477 12.4999 10.9999V11.9999ZM14.4999 7.99994C14.4999 8.55222 14.9477 8.99994 15.4999 8.99994H16.4999C17.0522 8.99994 17.4999 8.55222 17.4999 7.99994V6.99994C17.4999 6.44765 17.0522 5.99994 16.4999 5.99994H15.4999C14.9477 5.99994 14.4999 6.44765 14.4999 6.99994V7.99994ZM16.4999 11.9999C16.4999 12.5522 16.9477 12.9999 17.4999 12.9999H18.4999C19.0522 12.9999 19.4999 12.5522 19.4999 11.9999V10.9999C19.4999 10.4477 19.0522 9.99994 18.4999 9.99994H17.4999C16.9477 9.99994 16.4999 10.4477 16.4999 10.9999V11.9999ZM6.99994 14.9999C6.99994 14.4477 7.44765 13.9999 7.99994 13.9999H15.9999C16.5522 13.9999 16.9999 14.4477 16.9999 14.9999C16.9999 15.5522 16.5522 15.9999 15.9999 15.9999H7.99994C7.44765 15.9999 6.99994 15.5522 6.99994 14.9999ZM9.70705 18.2928C9.31653 17.9023 8.68337 17.9022 8.29284 18.2928C7.90231 18.6833 7.9023 19.3164 8.29283 19.707L9.59575 21.0099L9.62127 21.0354C9.89638 21.3106 10.144 21.5582 10.3668 21.7474C10.6054 21.9499 10.8806 22.1436 11.2274 22.2562C11.7295 22.4194 12.2704 22.4194 12.7725 22.2562C13.1193 22.1436 13.3945 21.9499 13.6331 21.7474C13.8559 21.5582 14.1035 21.3106 14.3786 21.0354L14.4041 21.0099L15.7071 19.707C16.0976 19.3164 16.0976 18.6833 15.707 18.2928C15.3165 17.9022 14.6833 17.9023 14.2928 18.2928L12.9899 19.5957C12.6812 19.9044 12.4917 20.0929 12.3387 20.2227C12.2675 20.2832 12.2209 20.3163 12.191 20.3348C12.1767 20.3436 12.1674 20.3484 12.1622 20.3509C12.1572 20.3532 12.1549 20.354 12.1544 20.3541C12.054 20.3868 11.9459 20.3868 11.8454 20.3541C11.845 20.354 11.8427 20.3532 11.8377 20.3509C11.8325 20.3484 11.8231 20.3436 11.8089 20.3348C11.779 20.3163 11.7324 20.2832 11.6611 20.2227C11.5082 20.0929 11.3187 19.9044 11.01 19.5957L9.70705 18.2928Z" fill="currentColor"/>
</svg>
