<svg width="24" height="24" viewBox="0 0 24 24" fill="none" xmlns="http://www.w3.org/2000/svg">
<path fill-rule="evenodd" clip-rule="evenodd" d="M7.5 1C6.94772 1 6.5 1.44772 6.5 2V3C6.5 3.55228 6.94772 4 7.5 4H8.5C9.05228 4 9.5 3.55228 9.5 3V2C9.5 1.44772 9.05228 1 8.5 1H7.5ZM15.5 1C14.9477 1 14.5 1.44772 14.5 2V3C14.5 3.55228 14.9477 4 15.5 4H16.5C17.0523 4 17.5 3.55228 17.5 3V2C17.5 1.44772 17.0523 1 16.5 1H15.5ZM2 7.5C1.44772 7.5 1 7.94772 1 8.5V9.5C1 10.0523 1.44772 10.5 2 10.5H3C3.55228 10.5 4 10.0523 4 9.5V8.5C4 7.94772 3.55228 7.5 3 7.5H2ZM21 7.5C20.4477 7.5 20 7.94772 20 8.5V9.5C20 10.0523 20.4477 10.5 21 10.5H22C22.5523 10.5 23 10.0523 23 9.5V8.5C23 7.94772 22.5523 7.5 22 7.5H21ZM2 15.5C1.44772 15.5 1 15.9477 1 16.5V17.5C1 18.0523 1.44772 18.5 2 18.5H3C3.55228 18.5 4 18.0523 4 17.5V16.5C4 15.9477 3.55228 15.5 3 15.5H2ZM12 7C9.23858 7 7 9.23858 7 12C7 13.4932 7.65331 14.8326 8.693 15.7503C9.10707 16.1157 9.14647 16.7477 8.781 17.1617C8.41554 17.5758 7.7836 17.6152 7.36953 17.2497C5.91795 15.9685 5 14.0909 5 12C5 8.13401 8.13401 5 12 5C15.0494 5 17.641 6.94932 18.6014 9.66675C18.7855 10.1875 18.5126 10.7588 17.9918 10.9428C17.4711 11.1269 16.8998 10.854 16.7157 10.3332C16.0289 8.38991 14.1755 7 12 7ZM17.9999 15C16.3111 15 14.9999 16.2923 14.9999 18C14.9999 18.5523 14.5522 19 13.9999 19H12.9999C12.4476 19 11.9999 19.4478 11.9999 20C11.9999 20.5523 12.4476 21 12.9999 21H18.1176C19.7094 21 20.9999 19.7096 20.9999 18.1177V18C20.9999 16.2923 19.6887 15 17.9999 15ZM13.0956 17C13.5484 14.6799 15.5551 13 17.9999 13C20.784 13 22.9999 15.1784 22.9999 18V18.1177C22.9999 20.8141 20.814 23 18.1176 23H12.9999C11.3431 23 9.99992 21.6569 9.99992 20C9.99992 18.3432 11.3431 17 12.9999 17H13.0956Z" fill="currentColor"/>
</svg>
