<svg width="24" height="24" viewBox="0 0 24 24" fill="none" xmlns="http://www.w3.org/2000/svg">
<path fill-rule="evenodd" clip-rule="evenodd" d="M17.1002 2.20717C16.3884 1.95427 15.6173 1.91929 14.8854 2.1067C14.4131 2.22767 14.007 2.45758 13.6036 2.74339C13.2174 3.01696 12.776 3.38487 12.2465 3.82606L12.2168 3.85085L10.4462 5.32636C9.41104 6.18898 9.34004 7.75424 10.2928 8.70704C10.6834 9.09757 11.3165 9.09757 11.707 8.70705C12.0976 8.31652 12.0976 7.68336 11.7071 7.29283C11.5859 7.17164 11.5949 6.97253 11.7266 6.86281L13.4972 5.38729C14.064 4.91496 14.4453 4.59811 14.7598 4.37532C15.0642 4.15965 15.2416 4.08003 15.3816 4.04418C15.7282 3.95541 16.0935 3.97198 16.4307 4.09177C16.5668 4.14014 16.7363 4.2355 17.02 4.47784C17.313 4.72819 17.664 5.07826 18.1858 5.59997L18.3999 5.81413C18.9216 6.33584 19.2717 6.68692 19.522 6.97992C19.7644 7.26355 19.8597 7.43304 19.9081 7.56919C20.0279 7.90639 20.0445 8.27165 19.9557 8.61831C19.9199 8.75828 19.8402 8.93571 19.6246 9.24011C19.4018 9.55458 19.0849 9.93591 18.6126 10.5027L17.1371 12.2733C17.0274 12.405 16.8282 12.414 16.707 12.2928C16.3165 11.9023 15.6834 11.9023 15.2928 12.2928C14.9023 12.6834 14.9023 13.3165 15.2928 13.707C16.2456 14.6598 17.8109 14.5888 18.6735 13.5537L20.149 11.7831L20.1738 11.7533C20.615 11.2239 20.9829 10.7825 21.2565 10.3963C21.5423 9.99292 21.7722 9.58682 21.8932 9.11447C22.0806 8.38263 22.0456 7.61153 21.7927 6.89966C21.6295 6.4402 21.3637 6.05659 21.0426 5.68072C20.7352 5.32095 20.3288 4.91461 19.8415 4.42732L19.8141 4.39992L19.6 4.18576L19.5726 4.15843C19.0853 3.67109 18.679 3.26471 18.3192 2.95729C17.9433 2.63614 17.5597 2.3704 17.1002 2.20717ZM6.86281 11.7266C6.97254 11.5949 7.17165 11.5858 7.29286 11.707C7.68338 12.0976 8.31655 12.0976 8.70707 11.707C9.09759 11.3165 9.09759 10.6834 8.70707 10.2928C7.75426 9.34003 6.189 9.41103 5.32637 10.4462L3.85085 12.2168L3.82606 12.2466L3.82606 12.2466C3.38486 12.776 3.01696 13.2174 2.74339 13.6036C2.45758 14.007 2.22767 14.4131 2.10671 14.8854C1.91929 15.6173 1.95427 16.3884 2.20717 17.1002C2.3704 17.5597 2.63614 17.9433 2.95729 18.3192C3.26469 18.6789 3.67104 19.0853 4.15834 19.5726L4.15838 19.5726L4.18575 19.6L4.39992 19.8141L4.42734 19.8416C4.91462 20.3288 5.32095 20.7352 5.68072 21.0426C6.05659 21.3637 6.4402 21.6295 6.89966 21.7927C7.61153 22.0456 8.38263 22.0806 9.11447 21.8932C9.58682 21.7722 9.99291 21.5423 10.3963 21.2565C10.7824 20.9829 11.2239 20.615 11.7533 20.1738L11.7534 20.1738L11.7831 20.149L13.5537 18.6735L12.9135 17.9053L13.5537 18.6735C14.5888 17.8109 14.6598 16.2456 13.707 15.2928C13.3165 14.9023 12.6834 14.9023 12.2928 15.2928C11.9023 15.6834 11.9023 16.3165 12.2928 16.707C12.414 16.8282 12.405 17.0274 12.2733 17.1371L10.5027 18.6126C9.93591 19.0849 9.55458 19.4018 9.24011 19.6246C8.93571 19.8402 8.75828 19.9199 8.61831 19.9557C8.27165 20.0445 7.90639 20.0279 7.56919 19.9081C7.43304 19.8597 7.26355 19.7644 6.97992 19.522C6.68692 19.2717 6.33584 18.9216 5.81413 18.3999L5.59997 18.1858C5.07826 17.664 4.72819 17.313 4.47784 17.02C4.2355 16.7363 4.14014 16.5668 4.09177 16.4307C3.97198 16.0935 3.95541 15.7282 4.04418 15.3816C4.08003 15.2416 4.15965 15.0642 4.37532 14.7598C4.59811 14.4453 4.91496 14.064 5.38729 13.4972L6.86281 11.7266ZM16.2071 9.20705C16.5976 8.81653 16.5976 8.18336 16.207 7.79284C15.8165 7.40231 15.1834 7.40231 14.7928 7.79284L7.79284 14.7928C7.40231 15.1834 7.40231 15.8165 7.79284 16.2071C8.18336 16.5976 8.81653 16.5976 9.20705 16.2071L16.2071 9.20705Z" fill="currentColor"/>
</svg>
