<svg width="24" height="24" viewBox="0 0 24 24" fill="none" xmlns="http://www.w3.org/2000/svg">
<path fill-rule="evenodd" clip-rule="evenodd" d="M22.3001 3.60007C22.6315 3.15825 22.5419 2.53144 22.1001 2.20007C21.6583 1.86869 21.0315 1.95822 20.7001 2.40005L18.5 5.33338L17.8001 4.40008C17.4687 3.95824 16.8419 3.86868 16.4001 4.20004C15.9583 4.5314 15.8687 5.1582 16.2001 5.60004L17.06 6.74668L17.0769 6.76928C17.1703 6.89383 17.2758 7.03465 17.3774 7.14758C17.4894 7.2721 17.6755 7.45551 17.9563 7.5647C18.306 7.70072 18.694 7.70073 19.0437 7.56472C19.3244 7.45554 19.5106 7.27214 19.6226 7.14762C19.7241 7.03476 19.8296 6.89404 19.9229 6.76954L19.923 6.76947L19.923 6.76937L19.9231 6.76934L19.94 6.74673L22.3001 3.60007ZM4 4.00006C3.44772 4.00006 3 4.44777 3 5.00006C3 5.55234 3.44772 6.00006 4 6.00006H13C13.5523 6.00006 14 5.55234 14 5.00006C14 4.44777 13.5523 4.00006 13 4.00006H4ZM4 11.0001C3.44772 11.0001 3 11.4478 3 12.0001C3 12.5523 3.44772 13.0001 4 13.0001H13C13.5523 13.0001 14 12.5523 14 12.0001C14 11.4478 13.5523 11.0001 13 11.0001H4ZM3 19.0001C3 18.4478 3.44772 18.0001 4 18.0001H13C13.5523 18.0001 14 18.4478 14 19.0001C14 19.5523 13.5523 20.0001 13 20.0001H4C3.44772 20.0001 3 19.5523 3 19.0001ZM22.0998 9.20007C22.5417 9.53144 22.6312 10.1582 22.2998 10.6001L19.9398 13.7467L19.9228 13.7693L19.9228 13.7693C19.8295 13.8939 19.7239 14.0347 19.6224 14.1476C19.5104 14.2721 19.3242 14.4555 19.0435 14.5647C18.6937 14.7007 18.3057 14.7007 17.956 14.5647C17.6753 14.4555 17.4891 14.2721 17.3771 14.1476C17.2756 14.0347 17.17 13.8938 17.0767 13.7693L17.0598 13.7467L16.1998 12.6C15.8685 12.1582 15.958 11.5314 16.3999 11.2C16.8417 10.8687 17.4685 10.9582 17.7999 11.4001L18.4998 12.3334L20.6998 9.40005C21.0312 8.95823 21.658 8.86869 22.0998 9.20007ZM18.7658 17L18.8 17.0001H19.2L19.2342 17C19.3908 16.9999 19.5944 16.9997 19.7722 17.0236C19.992 17.0532 20.3146 17.1348 20.5899 17.4101C20.8653 17.6855 20.9469 18.0081 20.9764 18.2279C21.0003 18.4057 21.0002 18.6093 21 18.7658V18.7659L21 18.8001V19.2001L21 19.2342V19.2343C21.0002 19.3909 21.0003 19.5944 20.9764 19.7722C20.9469 19.992 20.8653 20.3147 20.5899 20.59C20.3146 20.8654 19.992 20.9469 19.7722 20.9765C19.5944 21.0004 19.3908 21.0002 19.2342 21.0001H19.2342L19.2 21.0001H18.8L18.7658 21.0001H18.7658C18.6092 21.0002 18.4056 21.0004 18.2278 20.9765C18.008 20.9469 17.6854 20.8654 17.4101 20.59C17.1347 20.3147 17.0531 19.992 17.0236 19.7722C16.9997 19.5944 16.9998 19.3908 17 19.2342L17 19.2001V18.8001L17 18.7659C16.9998 18.6093 16.9997 18.4057 17.0236 18.2279C17.0531 18.0081 17.1347 17.6855 17.4101 17.4101C17.6854 17.1348 18.008 17.0532 18.2278 17.0236C18.4056 16.9997 18.6092 16.9999 18.7658 17Z" fill="currentColor"/>
</svg>
