<svg width="24" height="24" viewBox="0 0 24 24" fill="none" xmlns="http://www.w3.org/2000/svg">
<path fill-rule="evenodd" clip-rule="evenodd" d="M12 4C7.88281 4 4.4909 7.11098 4.04884 11.1099C3.98816 11.6588 3.49396 12.0546 2.94502 11.9939C2.39608 11.9333 2.00027 11.4391 2.06095 10.8901C2.61378 5.88912 6.85202 2 12 2C12.5523 2 13 2.44772 13 3C13 3.55228 12.5523 4 12 4ZM3.0017 13.0248C3.54029 12.9026 4.07598 13.2401 4.19819 13.7787C4.25381 14.0238 4.32067 14.2646 4.39822 14.5005C4.57069 15.0251 4.28517 15.5903 3.76051 15.7627C3.23584 15.9352 2.67071 15.6497 2.49824 15.125C2.40112 14.8296 2.3174 14.5281 2.24778 14.2213C2.12556 13.6827 2.46311 13.147 3.0017 13.0248ZM4.37092 16.88C4.80025 16.5325 5.42992 16.599 5.77733 17.0283L5.80324 17.0601C6.15284 17.4877 6.08965 18.1177 5.6621 18.4673C5.23455 18.8169 4.60455 18.7537 4.25495 18.3261L4.2226 18.2864C3.87518 17.857 3.94159 17.2274 4.37092 16.88Z" fill="currentColor"/>
</svg>
