<svg width="24" height="24" viewBox="0 0 24 24" fill="none" xmlns="http://www.w3.org/2000/svg">
<path fill-rule="evenodd" clip-rule="evenodd" d="M12.0001 1C14.7615 1 17 3.23855 17 5.99995V9L16.9999 9.01761C17.0671 9.02117 17.1322 9.02544 17.195 9.03057C17.5904 9.06287 17.9836 9.13419 18.362 9.32698C18.9265 9.6146 19.3854 10.0735 19.673 10.638C19.8658 11.0164 19.9371 11.4096 19.9694 11.805C20 12.1795 20 12.6343 20 13.1614V13.1615L20 13.2V17.8L20 17.8385V17.8386C20 18.3657 20 18.8205 19.9694 19.195C19.9371 19.5904 19.8658 19.9836 19.673 20.362C19.3854 20.9265 18.9265 21.3854 18.362 21.673C17.9836 21.8658 17.5904 21.9371 17.195 21.9694C16.8205 22 16.3657 22 15.8386 22H15.8H8.2H8.16144C7.6343 22 7.17954 22 6.80497 21.9694C6.40963 21.9371 6.01641 21.8658 5.63803 21.673C5.07354 21.3854 4.6146 20.9265 4.32698 20.362C4.13419 19.9836 4.06287 19.5904 4.03057 19.195C3.99997 18.8205 3.99998 18.3657 4 17.8386V17.8385V17.8V13.2V13.1615V13.1614C3.99998 12.6343 3.99997 12.1795 4.03057 11.805C4.06287 11.4096 4.13419 11.0164 4.32698 10.638C4.6146 10.0735 5.07354 9.6146 5.63803 9.32698C6.01641 9.13419 6.40963 9.06287 6.80497 9.03057C6.86783 9.02543 6.93294 9.02116 7.00027 9.0176L7.00011 9V5.99995C7.00011 3.23855 9.23866 1 12.0001 1ZM9.00011 5.99995V9H15V5.99995C15 4.34312 13.6569 3 12.0001 3C10.3432 3 9.00011 4.34312 9.00011 5.99995ZM17.454 11.109C17.4045 11.0838 17.3038 11.0461 17.0322 11.0239C16.7488 11.0008 16.3766 11 15.8 11H8.2C7.62345 11 7.25117 11.0008 6.96784 11.0239C6.69617 11.0461 6.59545 11.0838 6.54601 11.109C6.35785 11.2049 6.20487 11.3578 6.109 11.546C6.0838 11.5955 6.04613 11.6962 6.02393 11.9678C6.00078 12.2512 6 12.6234 6 13.2V17.8C6 18.3766 6.00078 18.7488 6.02393 19.0322C6.04613 19.3038 6.0838 19.4045 6.109 19.454C6.20487 19.6422 6.35785 19.7951 6.54601 19.891C6.59545 19.9162 6.69617 19.9539 6.96784 19.9761C7.25117 19.9992 7.62345 20 8.2 20H15.8C16.3766 20 16.7488 19.9992 17.0322 19.9761C17.3038 19.9539 17.4045 19.9162 17.454 19.891C17.6422 19.7951 17.7951 19.6422 17.891 19.454C17.9162 19.4045 17.9539 19.3038 17.9761 19.0322C17.9992 18.7488 18 18.3766 18 17.8V13.2C18 12.6234 17.9992 12.2512 17.9761 11.9678C17.9539 11.6962 17.9162 11.5955 17.891 11.546C17.7951 11.3578 17.6422 11.2049 17.454 11.109ZM12.5 14C13.0523 14 13.5 14.4477 13.5 15V16C13.5 16.5523 13.0523 17 12.5 17H11.5C10.9477 17 10.5 16.5523 10.5 16V15C10.5 14.4477 10.9477 14 11.5 14H12.5Z" fill="currentColor"/>
</svg>
