<svg width="24" height="24" viewBox="0 0 24 24" fill="none" xmlns="http://www.w3.org/2000/svg">
<path fill-rule="evenodd" clip-rule="evenodd" d="M12.0001 3C10.3432 3 9.00011 4.34312 9.00011 5.99995V9H15V5.99995C15 4.34312 13.6569 3 12.0001 3ZM17 9.01762V5.99995C17 3.23855 14.7615 1 12.0001 1C9.23866 1 7.00011 3.23855 7.00011 5.99995V9.01761C6.93284 9.02117 6.86778 9.02544 6.80497 9.03057C6.40963 9.06287 6.01641 9.13419 5.63803 9.32698C5.07354 9.6146 4.6146 10.0735 4.32698 10.638C4.13419 11.0164 4.06287 11.4096 4.03057 11.805C3.99997 12.1795 3.99998 12.6343 4 13.1614V13.1615V13.2V17.8V17.8385V17.8386C3.99998 18.3657 3.99997 18.8205 4.03057 19.195C4.06287 19.5904 4.13419 19.9836 4.32698 20.362C4.6146 20.9265 5.07355 21.3854 5.63803 21.673C6.01641 21.8658 6.40963 21.9371 6.80497 21.9694C7.17954 22 7.6343 22 8.16144 22H8.2H15.8H15.8386C16.3657 22 16.8205 22 17.195 21.9694C17.5904 21.9371 17.9836 21.8658 18.362 21.673C18.9265 21.3854 19.3854 20.9265 19.673 20.362C19.8658 19.9836 19.9371 19.5904 19.9694 19.195C20 18.8205 20 18.3658 20 17.8387V17.8386V17.8385V17.8V13.2V13.1615V13.1614V13.1613C20 12.6342 20 12.1795 19.9694 11.805C19.9371 11.4096 19.8658 11.0164 19.673 10.638C19.3854 10.0735 18.9265 9.6146 18.362 9.32698C17.9836 9.13419 17.5904 9.06287 17.195 9.03057C17.1323 9.02544 17.0672 9.02117 17 9.01762ZM12.5 14C13.0523 14 13.5 14.4477 13.5 15V16C13.5 16.5523 13.0523 17 12.5 17H11.5C10.9477 17 10.5 16.5523 10.5 16V15C10.5 14.4477 10.9477 14 11.5 14H12.5Z" fill="currentColor"/>
</svg>
