<svg width="81" height="81" viewBox="0 0 81 81" fill="none" xmlns="http://www.w3.org/2000/svg">
<path d="M1 34.8299C1 22.6383 1 16.5425 3.37265 11.8859C5.45969 7.78988 8.78988 4.45969 12.8859 2.37265C17.5425 0 23.6383 0 35.8299 0H46.1701C58.3617 0 64.4575 0 69.1141 2.37265C73.2101 4.45969 76.5403 7.78988 78.6273 11.8859C81 16.5425 81 22.6383 81 34.8299V45.1701C81 57.3617 81 63.4575 78.6273 68.1141C76.5403 72.2101 73.2101 75.5403 69.1141 77.6273C64.4575 80 58.3617 80 46.1701 80H35.8299C23.6383 80 17.5425 80 12.8859 77.6273C8.78988 75.5403 5.45969 72.2101 3.37265 68.1141C1 63.4575 1 57.3617 1 45.1701V34.8299Z" fill="white" fill-opacity="0.1"/>
<path fill-rule="evenodd" clip-rule="evenodd" d="M45.217 1.05275e-08C51.2732 -2.01603e-06 55.8785 -3.63588e-06 59.5491 0.299902C63.241 0.601535 66.0753 1.21152 68.5681 2.48164C72.8523 4.66455 76.3354 8.14772 78.5184 12.4319C79.7885 14.9247 80.3985 17.759 80.7001 21.4509C81 25.1215 81 29.7268 81 35.783V45.217C81 51.2732 81 55.8785 80.7001 59.5491C80.3985 63.241 79.7885 66.0753 78.5184 68.5681C76.3354 72.8523 72.8523 76.3354 68.5681 78.5184C66.0753 79.7885 63.241 80.3985 59.5491 80.7001C55.8785 81 51.2732 81 45.217 81H35.783C29.7268 81 25.1215 81 21.4509 80.7001C17.759 80.3985 14.9247 79.7885 12.4319 78.5184C8.14772 76.3354 4.66455 72.8523 2.48164 68.5681C1.21152 66.0753 0.601535 63.241 0.299902 59.5491C-3.57628e-06 55.8785 -2.01603e-06 51.2732 1.05265e-08 45.217V35.783C-2.01603e-06 29.7268 -3.57628e-06 25.1215 0.299902 21.4509C0.601535 17.759 1.21152 14.9247 2.48164 12.4319C4.66455 8.14772 8.14772 4.66455 12.4319 2.48164C14.9247 1.21152 17.759 0.601535 21.4509 0.299902C25.1215 -3.63588e-06 29.7268 -2.01603e-06 35.783 1.05275e-08H45.217ZM3.37265 12.8859C1 17.5425 1 23.6383 1 35.8299V45.1701C1 57.3617 1 63.4575 3.37265 68.1141C5.45969 72.2101 8.78988 75.5403 12.8859 77.6273C17.5425 80 23.6383 80 35.8299 80H45.1701C57.3617 80 63.4575 80 68.1141 77.6273C72.2101 75.5403 75.5403 72.2101 77.6273 68.1141C80 63.4575 80 57.3617 80 45.1701V35.8299C80 23.6383 80 17.5425 77.6273 12.8859C75.5403 8.78988 72.2101 5.45969 68.1141 3.37265C63.4575 1 57.3617 1 45.1701 1H35.8299C23.6383 1 17.5425 1 12.8859 3.37265C8.78988 5.45969 5.45969 8.78988 3.37265 12.8859Z" fill="black" fill-opacity="0.1"/>
<mask id="mask0_2257_1388" style="mask-type:luminance" maskUnits="userSpaceOnUse" x="11" y="21" width="57" height="38">
<path d="M62.0271 21.9182C61.8656 22.2718 61.6736 22.6373 61.4696 23.0346C60.0472 25.735 57.5229 29.859 53.5307 34.1129C46.5466 41.5709 33.6606 50.8138 11.8848 52.6911V58.152C35.6577 56.2278 49.8185 46.0428 57.5071 37.8416C61.9112 33.1448 64.7129 28.5671 66.2969 25.5595C66.9438 24.3132 67.5311 23.079 68 21.9188H62.0271V21.9182Z" fill="white"/>
</mask>
<g mask="url(#mask0_2257_1388)">
<path d="M68.0006 21.9182H11.8848V58.152H68.0006V21.9182Z" fill="url(#paint0_linear_2257_1388)"/>
</g>
<defs>
<linearGradient id="paint0_linear_2257_1388" x1="11.8797" y1="40.0261" x2="67.9885" y2="40.0261" gradientUnits="userSpaceOnUse">
<stop stop-color="#F0414B"/>
<stop offset="0.322917" stop-color="#FFCD50"/>
<stop offset="0.65625" stop-color="#00AFCD"/>
<stop offset="1" stop-color="#46B97D"/>
</linearGradient>
</defs>
</svg>
