<svg width="24" height="24" viewBox="0 0 24 24" fill="none" xmlns="http://www.w3.org/2000/svg">
<path fill-rule="evenodd" clip-rule="evenodd" d="M10.3337 4.19128C10.6585 4.15519 10.8396 4.13593 10.9706 4.13256L10.9866 4.13224L10.988 4.14819C10.9992 4.27877 11 4.46086 11 4.78761L11 19.2124C11 19.5391 10.9992 19.7212 10.988 19.8518L10.9866 19.8677L10.9706 19.8674C10.8396 19.864 10.6585 19.8448 10.3337 19.8087L5.95705 19.3224C5.4383 19.2648 5.10594 19.2271 4.85382 19.1791C4.61391 19.1334 4.52436 19.0912 4.47842 19.0631C4.31113 18.9608 4.17759 18.8116 4.09442 18.6341C4.07158 18.5853 4.03953 18.4917 4.0206 18.2482C4.0007 17.9923 4 17.6578 4 17.1358V6.86412C4 6.34218 4.0007 6.00769 4.0206 5.75181C4.03953 5.50832 4.07158 5.41466 4.09442 5.3659C4.17759 5.18833 4.31113 5.03914 4.47842 4.93687C4.52436 4.90879 4.61391 4.86659 4.85382 4.82088C5.10594 4.77285 5.4383 4.73522 5.95705 4.67758L10.3337 4.19128ZM11.7674 2.27032C11.4624 2.14363 11.1654 2.12688 10.9191 2.13322C10.6924 2.13905 10.4249 2.16881 10.1469 2.19973L10.1129 2.20351L5.73619 2.68981L5.70044 2.69378C5.22765 2.7463 4.81722 2.79188 4.47955 2.85621C4.12119 2.92448 3.76917 3.02634 3.43527 3.23046C2.93338 3.53727 2.53276 3.98487 2.28325 4.51757C2.11725 4.87196 2.05489 5.23309 2.02662 5.59679C1.99997 5.93949 1.99999 6.35242 2 6.8281V6.82815V6.86412V17.1358V17.1718V17.1719C1.99999 17.6475 1.99997 18.0605 2.02662 18.4032C2.05489 18.7669 2.11725 19.128 2.28325 19.4824C2.53276 20.0151 2.93338 20.4627 3.43527 20.7695C3.76917 20.9736 4.12119 21.0755 4.47955 21.1438C4.81719 21.2081 5.22757 21.2537 5.7003 21.3062L5.70042 21.3062L5.73619 21.3102L10.1129 21.7965L10.1468 21.8002C10.4249 21.8312 10.6924 21.8609 10.9191 21.8668C11.1654 21.8731 11.4624 21.8563 11.7674 21.7297C12.1854 21.556 12.5321 21.2456 12.7509 20.8493C12.9105 20.5603 12.9599 20.2669 12.9808 20.0214C13.0001 19.7955 13 19.5263 13 19.2466L13 19.2124L13 4.78761L13 4.75341C13 4.47367 13.0001 4.20451 12.9808 3.97853C12.9599 3.73305 12.9105 3.43968 12.7509 3.15062C12.5321 2.75434 12.1854 2.444 11.7674 2.27032ZM15.8 4.99998C16.3766 4.99998 16.7488 5.00076 17.0322 5.02391C17.3038 5.04611 17.4045 5.08378 17.454 5.10898C17.6422 5.20485 17.7951 5.35783 17.891 5.54599C17.9162 5.59544 17.9539 5.69616 17.9761 5.96782C17.9992 6.25116 18 6.62343 18 7.19998V9.49998C18 10.0523 18.4477 10.5 19 10.5C19.5523 10.5 20 10.0523 20 9.49998V7.19998V7.16151C20 6.63433 20 6.17954 19.9694 5.80496C19.9371 5.40961 19.8658 5.01639 19.673 4.63801C19.3854 4.07353 18.9265 3.61458 18.362 3.32696C17.9836 3.13417 17.5904 3.06285 17.195 3.03055C16.8205 2.99995 16.3657 2.99997 15.8385 2.99998H15.8H15.5C14.9477 2.99998 14.5 3.4477 14.5 3.99998C14.5 4.55227 14.9477 4.99998 15.5 4.99998H15.8ZM8 10.5C7.44772 10.5 7 10.9477 7 11.5V12.5C7 13.0523 7.44772 13.5 8 13.5H9C9.55229 13.5 10 13.0523 10 12.5V11.5C10 10.9477 9.55229 10.5 9 10.5H8ZM18.2929 14.2071C17.9024 13.8166 17.9024 13.1834 18.2929 12.7929C18.6834 12.4024 19.3166 12.4024 19.7071 12.7929L22.0757 15.1615L22.0983 15.1841C22.2768 15.3625 22.4506 15.5363 22.5858 15.6955C22.7342 15.8704 22.8938 16.0922 22.9879 16.382C23.1184 16.7837 23.1184 17.2163 22.9879 17.618C22.8938 17.9078 22.7342 18.1296 22.5858 18.3045C22.4506 18.4637 22.2768 18.6375 22.0983 18.8159L22.0983 18.8159L22.0757 18.8385L19.7071 21.2071C19.3166 21.5976 18.6834 21.5976 18.2929 21.2071C17.9024 20.8166 17.9024 20.1834 18.2929 19.7929L20.0858 18H15.5C14.9477 18 14.5 17.5523 14.5 17C14.5 16.4477 14.9477 16 15.5 16H20.0858L18.2929 14.2071Z" fill="currentColor"/>
</svg>
