<svg width="24" height="24" viewBox="0 0 24 24" fill="none" xmlns="http://www.w3.org/2000/svg">
<path fill-rule="evenodd" clip-rule="evenodd" d="M22.6402 1.2318C23.0645 1.58537 23.1218 2.21593 22.7682 2.64021L18.3954 7.88754L18.3783 7.90808C18.2863 8.01862 18.1804 8.1458 18.0789 8.24793C17.9651 8.36254 17.7816 8.52555 17.5144 8.62142C17.1772 8.74236 16.808 8.73867 16.4733 8.61101C16.208 8.50982 16.0278 8.34317 15.9163 8.22631C15.8169 8.12217 15.7136 7.9929 15.6238 7.88054L15.6071 7.85966L14.2191 6.12472C13.8741 5.69346 13.944 5.06417 14.3753 4.71916C14.8066 4.37415 15.4359 4.44407 15.7809 4.87533L17.0158 6.419L21.2318 1.35984C21.5853 0.935564 22.2159 0.87824 22.6402 1.2318ZM20 10.8C20 11.3766 19.9992 11.7489 19.9761 12.0322C19.9539 12.3039 19.9162 12.4046 19.891 12.454C19.7951 12.6422 19.6422 12.7952 19.454 12.891C19.4045 12.9162 19.3038 12.9539 19.0322 12.9761C18.7488 12.9992 18.3766 13 17.8 13H12.0014L12 13L11.9986 13H6.2C5.62345 13 5.25118 12.9992 4.96784 12.9761C4.69618 12.9539 4.59546 12.9162 4.54601 12.891C4.35785 12.7952 4.20487 12.6422 4.109 12.454C4.0838 12.4046 4.04613 12.3039 4.02393 12.0322C4.00078 11.7489 4 11.3766 4 10.8V8.20002C4 7.62347 4.00078 7.2512 4.02393 6.96786C4.04613 6.6962 4.0838 6.59548 4.109 6.54603C4.20487 6.35787 4.35785 6.20489 4.54601 6.10902C4.59546 6.08383 4.69618 6.04615 4.96784 6.02395C5.25118 6.0008 5.62345 6.00002 6.2 6.00002H11C11.5523 6.00002 12 5.55231 12 5.00002C12 4.44774 11.5523 4.00002 11 4.00002H6.2L6.16146 4.00002H6.16145H6.16145H6.16145C5.6343 4.00001 5.17954 3.99999 4.80497 4.03059C4.40963 4.06289 4.01641 4.13421 3.63803 4.327C3.07354 4.61462 2.6146 5.07357 2.32698 5.63805C2.13419 6.01643 2.06287 6.40965 2.03057 6.805C1.99997 7.17956 1.99998 7.63431 2 8.16144V8.16146V8.20002V10.8V10.8386V10.8386C1.99998 11.3657 1.99997 11.8205 2.03057 12.1951C2.06287 12.5904 2.13419 12.9836 2.32698 13.362C2.6146 13.9265 3.07354 14.3854 3.63803 14.673C4.01641 14.8658 4.40963 14.9372 4.80497 14.9695C5.17954 15.0001 5.6343 15 6.16145 15H6.16148H6.2H11V16.0082C10.9524 16.0105 10.9062 16.0133 10.8618 16.017C10.6332 16.0356 10.3634 16.0797 10.092 16.218C9.7157 16.4098 9.40974 16.7157 9.21799 17.092C9.07969 17.3635 9.03562 17.6332 9.01695 17.8618C9.01332 17.9063 9.01046 17.9524 9.00821 18H3C2.44772 18 2 18.4477 2 19C2 19.5523 2.44772 20 3 20H9.00821C9.01046 20.0476 9.01332 20.0938 9.01695 20.1383C9.03562 20.3668 9.07969 20.6366 9.21799 20.908C9.40974 21.2843 9.7157 21.5903 10.092 21.782C10.3634 21.9203 10.6332 21.9644 10.8618 21.9831C11.0699 22.0001 11.3157 22.0001 11.568 22H11.5681H11.5681H11.5681L11.6 22H12.4L12.4319 22H12.4319H12.432H12.432C12.6843 22.0001 12.9301 22.0001 13.1382 21.9831C13.3668 21.9644 13.6366 21.9203 13.908 21.782C14.2843 21.5903 14.5903 21.2843 14.782 20.908C14.9203 20.6366 14.9644 20.3668 14.9831 20.1383C14.9867 20.0938 14.9895 20.0476 14.9918 20H21C21.5523 20 22 19.5523 22 19C22 18.4477 21.5523 18 21 18H14.9918C14.9895 17.9524 14.9867 17.9063 14.9831 17.8618C14.9644 17.6332 14.9203 17.3635 14.782 17.092C14.5903 16.7157 14.2843 16.4098 13.908 16.218C13.6366 16.0797 13.3668 16.0356 13.1382 16.017C13.0938 16.0133 13.0476 16.0105 13 16.0082V15H17.8H17.8385H17.8386C18.3657 15 18.8205 15.0001 19.195 14.9695C19.5904 14.9372 19.9836 14.8658 20.362 14.673C20.9265 14.3854 21.3854 13.9265 21.673 13.362C21.8658 12.9836 21.9371 12.5904 21.9694 12.1951C22 11.8205 22 11.3657 22 10.8386V10.8V9.50003C22 8.94774 21.5523 8.50003 21 8.50003C20.4477 8.50003 20 8.94774 20 9.50002V10.8ZM11.0103 18.0247L11.0115 18.0115L11.0246 18.0103C11.1412 18.0008 11.3035 18 11.6 18H12H12.4C12.6965 18 12.8588 18.0008 12.9754 18.0103L12.9886 18.0115L12.9897 18.0247C12.9992 18.1412 13 18.3035 13 18.6V19V19.4C13 19.6966 12.9992 19.8588 12.9897 19.9754L12.9886 19.9886L12.9754 19.9897C12.8588 19.9992 12.6965 20 12.4 20H11.6C11.3035 20 11.1412 19.9992 11.0246 19.9897L11.0115 19.9886L11.0103 19.9754C11.0008 19.8588 11 19.6966 11 19.4V19V18.6C11 18.3035 11.0008 18.1412 11.0103 18.0247ZM6 9.00002C6 8.73481 6.10536 8.48045 6.2929 8.29292C6.48043 8.10538 6.73479 8.00002 7 8.00002H8C8.26522 8.00002 8.51957 8.10538 8.70711 8.29292C8.89465 8.48045 9 8.73481 9 9.00002V10C9 10.5523 8.55229 11 8 11H7C6.44772 11 6 10.5523 6 10V9.00002Z" fill="currentColor"/>
</svg>
