<svg width="24" height="24" viewBox="0 0 24 24" fill="none" xmlns="http://www.w3.org/2000/svg">
<path fill-rule="evenodd" clip-rule="evenodd" d="M17.3544 3.28473C18.3375 2.78272 19.5705 2.94479 20.3913 3.76556C21.4121 4.78636 21.4121 6.44139 20.3913 7.46218C19.3705 8.48297 17.7154 8.48297 16.6947 7.46218L16.4142 7.18174H17.2124C17.7646 7.18174 18.2124 6.73402 18.2124 6.18174C18.2124 5.62945 17.7646 5.18174 17.2124 5.18174L14 5.18174C13.4477 5.18174 13 5.62945 13 6.18174L13 9.39409C13 9.94638 13.4477 10.3941 14 10.3941C14.5523 10.3941 15 9.94638 15 9.3941L15 8.59595L15.2804 8.87639C17.0823 10.6782 20.0036 10.6782 21.8055 8.87639C23.6073 7.07455 23.6073 4.15319 21.8055 2.35135C20.3537 0.899578 18.1774 0.618766 16.4448 1.50354C15.9529 1.75472 15.7578 2.35707 16.009 2.84893C16.2602 3.34079 16.8625 3.53591 17.3544 3.28473ZM6.2 3.99996L6.16146 3.99996H6.16145C5.63431 3.99994 5.17954 3.99993 4.80497 4.03053C4.40963 4.06283 4.01641 4.13415 3.63803 4.32694L3.63803 4.32694C3.07354 4.61456 2.6146 5.07351 2.32698 5.63799C2.13419 6.01637 2.06287 6.40959 2.03057 6.80494C1.99997 7.17951 1.99998 7.63427 2 8.16142V8.16142V8.19996V10.8V10.8385C1.99998 11.3657 1.99997 11.8204 2.03057 12.195C2.06287 12.5903 2.13419 12.9836 2.32698 13.3619C2.6146 13.9264 3.07354 14.3854 3.63803 14.673C4.01641 14.8658 4.40963 14.9371 4.80497 14.9694C5.17954 15 5.6343 15 6.16145 15H6.16148H6.2H11V16.0082C10.9524 16.0104 10.9062 16.0133 10.8618 16.0169C10.6332 16.0356 10.3634 16.0797 10.092 16.218C9.7157 16.4097 9.40974 16.7157 9.21799 17.092C9.07969 17.3634 9.03562 17.6331 9.01695 17.8617C9.01332 17.9062 9.01046 17.9524 9.00822 18H3C2.44772 18 2 18.4477 2 19C2 19.5523 2.44772 20 3 20H9.00822C9.01046 20.0476 9.01332 20.0937 9.01695 20.1382C9.03562 20.3668 9.07969 20.6365 9.21799 20.908C9.40974 21.2843 9.7157 21.5902 10.092 21.782C10.3634 21.9203 10.6332 21.9643 10.8618 21.983C11.0699 22 11.3157 22 11.568 22H11.5681H11.5681H11.5681L11.6 22H12.4L12.4319 22H12.4319H12.432H12.432C12.6843 22 12.9301 22 13.1382 21.983C13.3668 21.9643 13.6366 21.9203 13.908 21.782C14.2843 21.5902 14.5903 21.2843 14.782 20.908C14.9203 20.6365 14.9644 20.3668 14.9831 20.1382C14.9867 20.0937 14.9895 20.0476 14.9918 20H21C21.5523 20 22 19.5523 22 19C22 18.4477 21.5523 18 21 18H14.9918C14.9895 17.9524 14.9867 17.9062 14.9831 17.8617C14.9644 17.6331 14.9203 17.3634 14.782 17.092C14.5903 16.7157 14.2843 16.4097 13.908 16.218C13.6366 16.0797 13.3668 16.0356 13.1382 16.0169C13.0938 16.0133 13.0476 16.0104 13 16.0082V15H17.8H17.8386H17.8386C18.3657 15 18.8205 15 19.195 14.9694C19.5904 14.9371 19.9836 14.8658 20.362 14.673C20.9265 14.3854 21.3854 13.9264 21.673 13.3619C21.9238 12.8698 21.7281 12.2677 21.236 12.0169C20.7439 11.7662 20.1417 11.9619 19.891 12.454C19.7951 12.6421 19.6422 12.7951 19.454 12.891C19.4045 12.9162 19.3038 12.9538 19.0322 12.976C18.7488 12.9992 18.3766 13 17.8 13L6.2 13C5.62345 13 5.25117 12.9992 4.96784 12.976C4.69617 12.9538 4.59545 12.9162 4.54601 12.891C4.35785 12.7951 4.20487 12.6421 4.109 12.454L3.27871 12.877L4.109 12.454C4.0838 12.4045 4.04612 12.3038 4.02393 12.0321C4.00078 11.7488 4 11.3765 4 10.8V8.19996C4 7.62341 4.00078 7.25114 4.02393 6.9678C4.04612 6.69614 4.0838 6.59542 4.109 6.54597L4.109 6.54597C4.20487 6.35781 4.35785 6.20483 4.54601 6.10896C4.59545 6.08376 4.69617 6.04609 4.96784 6.02389C5.25117 6.00074 5.62345 5.99996 6.2 5.99996L10.5 5.99996C11.0523 5.99996 11.5 5.55225 11.5 4.99996C11.5 4.44768 11.0523 3.99996 10.5 3.99996L6.2 3.99996ZM11.0103 18.0246L11.0115 18.0114L11.0246 18.0103C11.1412 18.0007 11.3035 18 11.6 18H12H12.4C12.6965 18 12.8588 18.0007 12.9754 18.0103L12.9886 18.0114L12.9897 18.0246C12.9992 18.1412 13 18.3034 13 18.6V19V19.4C13 19.6965 12.9992 19.8588 12.9897 19.9753L12.9886 19.9885L12.9754 19.9897C12.8588 19.9992 12.6965 20 12.4 20H11.6C11.3035 20 11.1412 19.9992 11.0246 19.9897L11.0115 19.9885L11.0103 19.9753C11.0008 19.8588 11 19.6965 11 19.4V19V18.6C11 18.3034 11.0008 18.1412 11.0103 18.0246ZM6.2929 8.29287C6.10536 8.4804 6 8.73476 6 8.99997V9.99997C6 10.5523 6.44772 11 7 11H8C8.55229 11 9 10.5523 9 9.99997V8.99997C9 8.73476 8.89465 8.4804 8.70711 8.29287C8.51957 8.10533 8.26522 7.99997 8 7.99997H7C6.73479 7.99997 6.48043 8.10533 6.2929 8.29287Z" fill="currentColor"/>
</svg>
