<svg width="24" height="24" viewBox="0 0 24 24" fill="none" xmlns="http://www.w3.org/2000/svg">
<path fill-rule="evenodd" clip-rule="evenodd" d="M22.7071 2.70711C23.0976 2.31658 23.0976 1.68342 22.7071 1.29289C22.3166 0.902369 21.6834 0.902369 21.2929 1.29289L19.5 3.08579L17.7071 1.29289C17.3166 0.902369 16.6834 0.902369 16.2929 1.29289C15.9024 1.68342 15.9024 2.31658 16.2929 2.70711L18.0858 4.5L16.2929 6.29289C15.9024 6.68342 15.9024 7.31658 16.2929 7.70711C16.6834 8.09763 17.3166 8.09763 17.7071 7.70711L19.5 5.91421L21.2929 7.70711C21.6834 8.09763 22.3166 8.09763 22.7071 7.70711C23.0976 7.31658 23.0976 6.68342 22.7071 6.29289L20.9142 4.5L22.7071 2.70711ZM19.9833 12.0262C19.9995 11.7893 20 11.4796 20 11C20 10.4477 20.4477 10 21 10C21.5523 10 22 10.4477 22 11V11.032C22 11.4706 22 11.8491 21.9787 12.1624C21.9561 12.4922 21.9066 12.8221 21.7716 13.1481C21.4672 13.8831 20.8831 14.4672 20.1481 14.7716C19.8221 14.9066 19.4922 14.9561 19.1624 14.9787C18.8491 15 18.4707 15 18.032 15H18.032H18H13V16.0082C13.0476 16.0105 13.0938 16.0133 13.1382 16.0169C13.3668 16.0356 13.6366 16.0797 13.908 16.218C14.2843 16.4097 14.5903 16.7157 14.782 17.092C14.9203 17.3634 14.9644 17.6332 14.9831 17.8618C14.9867 17.9062 14.9895 17.9524 14.9918 18H21C21.5523 18 22 18.4477 22 19C22 19.5523 21.5523 20 21 20H14.9918C14.9895 20.0476 14.9867 20.0938 14.9831 20.1382C14.9644 20.3668 14.9203 20.6366 14.782 20.908C14.5903 21.2843 14.2843 21.5903 13.908 21.782C13.6366 21.9203 13.3668 21.9644 13.1382 21.9831C12.9301 22.0001 12.6843 22 12.4319 22L12.4 22H11.6L11.5681 22C11.3157 22 11.0699 22.0001 10.8618 21.9831C10.6332 21.9644 10.3634 21.9203 10.092 21.782C9.7157 21.5903 9.40974 21.2843 9.21799 20.908C9.07969 20.6366 9.03562 20.3668 9.01695 20.1382C9.01332 20.0938 9.01046 20.0476 9.00821 20H3C2.44772 20 2 19.5523 2 19C2 18.4477 2.44772 18 3 18H9.00821C9.01046 17.9524 9.01332 17.9062 9.01695 17.8618C9.03562 17.6332 9.07969 17.3634 9.21799 17.092C9.40974 16.7157 9.7157 16.4097 10.092 16.218C10.3634 16.0797 10.6332 16.0356 10.8618 16.0169C10.9062 16.0133 10.9524 16.0105 11 16.0082V15H6.2H6.16148H6.16145C5.6343 15 5.17954 15 4.80497 14.9694C4.40963 14.9371 4.01641 14.8658 3.63803 14.673C3.07354 14.3854 2.6146 13.9265 2.32698 13.362C2.13419 12.9836 2.06287 12.5904 2.03057 12.195C1.99997 11.8205 1.99998 11.3657 2 10.8386V10.8386V10.8V8.2V8.16143V8.16142C1.99998 7.63428 1.99997 7.17953 2.03057 6.80497C2.06287 6.40963 2.13419 6.01641 2.32698 5.63803C2.6146 5.07354 3.07354 4.6146 3.63803 4.32698C4.01641 4.13419 4.40963 4.06287 4.80497 4.03057C5.17954 3.99996 5.6343 3.99998 6.16144 4H6.16145H6.16145H6.16145H6.16146L6.2 4H13.5C14.0523 4 14.5 4.44771 14.5 5C14.5 5.55228 14.0523 6 13.5 6H6.2C5.62345 6 5.25118 6.00078 4.96784 6.02393C4.69618 6.04612 4.59546 6.0838 4.54601 6.10899C4.35785 6.20487 4.20487 6.35785 4.109 6.54601C4.0838 6.59545 4.04613 6.69617 4.02393 6.96783C4.00078 7.25117 4 7.62345 4 8.2V10.8C4 11.3766 4.00078 11.7488 4.02393 12.0322C4.04613 12.3038 4.0838 12.4045 4.109 12.454C4.20487 12.6422 4.35785 12.7951 4.54601 12.891C4.59546 12.9162 4.69618 12.9539 4.96784 12.9761C5.25118 12.9992 5.62345 13 6.2 13H11.999H12H12.001L18 13C18.4796 13 18.7893 12.9995 19.0262 12.9833C19.2542 12.9677 19.3411 12.9411 19.3827 12.9239C19.6277 12.8224 19.8224 12.6277 19.9239 12.3827C19.9411 12.3411 19.9677 12.2542 19.9833 12.0262ZM11.0115 18.0114L11.0103 18.0246C11.0008 18.1412 11 18.3035 11 18.6V19V19.4C11 19.6965 11.0008 19.8588 11.0103 19.9754L11.0115 19.9886L11.0246 19.9897C11.1412 19.9992 11.3035 20 11.6 20H12.4C12.6965 20 12.8588 19.9992 12.9754 19.9897L12.9886 19.9886L12.9897 19.9754C12.9992 19.8588 13 19.6965 13 19.4V19V18.6C13 18.3035 12.9992 18.1412 12.9897 18.0246L12.9886 18.0114L12.9754 18.0103C12.8588 18.0008 12.6965 18 12.4 18H12H11.6C11.3035 18 11.1412 18.0008 11.0246 18.0103L11.0115 18.0114ZM6 9C6 8.73478 6.10536 8.48043 6.2929 8.29289C6.48043 8.10536 6.73479 8 7 8H8C8.26522 8 8.51957 8.10536 8.70711 8.29289C8.89465 8.48043 9 8.73478 9 9V10C9 10.5523 8.55229 11 8 11H7C6.44772 11 6 10.5523 6 10V9Z" fill="currentColor"/>
</svg>
