<svg width="24" height="24" viewBox="0 0 24 24" fill="none" xmlns="http://www.w3.org/2000/svg">
<path fill-rule="evenodd" clip-rule="evenodd" d="M6 11C6 7.13401 9.13401 4 13 4C16.866 4 20 7.13401 20 11C20 14.866 16.866 18 13 18C9.13401 18 6 14.866 6 11ZM13 2C8.02944 2 4 6.02944 4 11C4 13.0981 4.71791 15.0284 5.92147 16.5589L2.4 19.2C2.14819 19.3889 2 19.6852 2 20V21C2 21.5523 2.44772 22 3 22H4C4.31476 22 4.61115 21.8518 4.8 21.6L7.4411 18.0785C8.97156 19.2821 10.9019 20 13 20C17.9706 20 22 15.9706 22 11C22 6.02944 17.9706 2 13 2Z" fill="currentColor"/>
</svg>
