<svg width="24" height="24" viewBox="0 0 24 24" fill="none" xmlns="http://www.w3.org/2000/svg">
<path fill-rule="evenodd" clip-rule="evenodd" d="M13 2C8.02944 2 4 6.02944 4 11C4 13.0981 4.71791 15.0284 5.92147 16.5589L2.4 19.2C2.14819 19.3889 2 19.6852 2 20V21C2 21.5523 2.44772 22 3 22H4C4.31476 22 4.61115 21.8518 4.8 21.6L7.4411 18.0785C8.97156 19.2821 10.9019 20 13 20C17.9706 20 22 15.9706 22 11C22 6.02944 17.9706 2 13 2ZM8.66828 8.50073C9.53431 7.00361 11.1505 6 13 6C13.5523 6 14 5.55228 14 5C14 4.44772 13.5523 4 13 4C10.4077 4 8.14589 5.40958 6.93707 7.49927C6.66052 7.97733 6.82389 8.58906 7.30195 8.86561C7.78001 9.14215 8.39174 8.97879 8.66828 8.50073Z" fill="currentColor"/>
</svg>
