<svg width="24" height="24" viewBox="0 0 24 24" fill="none" xmlns="http://www.w3.org/2000/svg">
<path fill-rule="evenodd" clip-rule="evenodd" d="M4.31622 1.05134C3.79228 0.876696 3.22596 1.15986 3.05131 1.6838C2.87666 2.20774 3.15982 2.77406 3.68377 2.94871L11.0001 5.38749V5.50003V19.6327L8.35868 20.0101C7.81194 20.0882 7.43204 20.5947 7.51015 21.1415C7.58825 21.6882 8.09478 22.0681 8.64152 21.99L12.0001 21.5102L15.3587 21.99C15.9054 22.0681 16.4119 21.6882 16.49 21.1415C16.5682 20.5947 16.1883 20.0882 15.6415 20.0101L13.0001 19.6327V6.05415L20.1838 8.44871C20.7077 8.62336 21.274 8.3402 21.4487 7.81626C21.6233 7.29231 21.3402 6.72599 20.8162 6.55134L13.0001 3.94597V3.00003C13.0001 2.44775 12.5524 2.00003 12.0001 2.00003C11.4478 2.00003 11.0001 2.44775 11.0001 3.00003V3.2793L4.31622 1.05134ZM2.99842 10.7383L4.99953 6.73607L6.99848 10.734L6.99796 10.8491C6.99391 11.7571 6.64522 12.2371 6.278 12.3505C5.88924 12.4707 5.44858 12.5348 4.99795 12.5355C4.54851 12.5362 4.10822 12.4738 3.71881 12.3555C3.34686 12.2424 2.99361 11.756 2.99795 10.8368L2.99842 10.7383ZM6.6095 5.48387C5.94616 4.15718 4.05291 4.15718 3.38956 5.48387L1.10511 10.0528C1.03639 10.1902 1.00027 10.3416 0.999544 10.4953L0.997976 10.8274C0.992237 12.043 1.46664 13.7614 3.13728 14.2691C3.73299 14.4501 4.37189 14.5365 5.00112 14.5355C5.63193 14.5345 6.27217 14.4456 6.86842 14.2614C8.51656 13.7522 8.99258 12.0595 8.99794 10.8581L8.99952 10.5045C9.00022 10.3477 8.96406 10.193 8.89396 10.0528L6.6095 5.48387ZM17.0001 15.2006L19.0001 11.2006L21.0001 15.2006V15.3076C21.0001 16.2211 20.6492 16.7042 20.2797 16.8175C19.8906 16.9367 19.4502 17 19.0001 17C18.5501 17 18.1096 16.9367 17.7206 16.8175C17.351 16.7042 17.0001 16.2211 17.0001 15.3077V15.2006ZM20.5207 9.76948C19.8942 8.51649 18.1061 8.5165 17.4796 9.76948L15.1057 14.5173C15.0363 14.6561 15.0001 14.8093 15.0001 14.9645L15.0001 15.3077C15.0001 16.516 15.4754 18.2211 17.1344 18.7297C17.7304 18.9123 18.3701 19 19.0001 19C19.6302 19 20.2698 18.9124 20.8658 18.7297C22.5249 18.2211 23.0001 16.516 23.0001 15.3076V14.9645C23.0001 14.8092 22.964 14.6561 22.8946 14.5173L20.5207 9.76948Z" fill="currentColor"/>
</svg>
