<svg width="24" height="24" viewBox="0 0 24 24" fill="none" xmlns="http://www.w3.org/2000/svg">
<path fill-rule="evenodd" clip-rule="evenodd" d="M13.0001 9.8L13.0001 9.83855V9.83858C13.0001 10.3657 13.0001 10.8205 12.9695 11.195C12.9372 11.5904 12.8659 11.9836 12.6731 12.362C12.3855 12.9265 11.9265 13.3854 11.3621 13.673C10.9837 13.8658 10.5905 13.9371 10.1951 13.9694C9.82054 14 9.36578 14 8.83863 14L8.80009 14H6.20009L6.16154 14H6.16147H6.16145H6.16143C5.63433 14 5.17961 14 4.80506 13.9694C4.40972 13.9371 4.0165 13.8658 3.63812 13.673C3.07363 13.3854 2.61469 12.9265 2.32707 12.362C2.13428 11.9836 2.06296 11.5904 2.03066 11.195C2.00006 10.8205 2.00007 10.3657 2.00009 9.8386V9.83852V9.8V6.2V6.16144V6.16135C2.00007 5.63425 2.00006 5.17952 2.03066 4.80497C2.06296 4.40963 2.13427 4.01641 2.32707 3.63803C2.61469 3.07354 3.07363 2.6146 3.63812 2.32698C4.0165 2.13419 4.40972 2.06287 4.80506 2.03057C5.17963 1.99997 5.6344 1.99998 6.16155 2H6.16157H6.20009H8.80009H8.83861H8.83863C9.36578 1.99998 9.82054 1.99997 10.1951 2.03057C10.5905 2.06287 10.9837 2.13419 11.3621 2.32698C11.9265 2.6146 12.3855 3.07354 12.6731 3.63803C12.8659 4.01641 12.9372 4.40963 12.9695 4.80497C13.0001 5.17953 13.0001 5.63427 13.0001 6.16139V6.16141V6.16143V6.16145L13.0001 6.2V9.8ZM10.8911 11.454C10.9163 11.4045 10.954 11.3038 10.9762 11.0322C10.9993 10.7488 11.0001 10.3766 11.0001 9.8V6.2C11.0001 5.62345 10.9993 5.25117 10.9762 4.96784C10.954 4.69617 10.9163 4.59545 10.8911 4.54601C10.7952 4.35785 10.6422 4.20487 10.4541 4.10899C10.4046 4.0838 10.3039 4.04612 10.0323 4.02393C9.74891 4.00078 9.37664 4 8.80009 4L6.20009 4C5.62354 4 5.25126 4.00078 4.96792 4.02393C4.69626 4.04612 4.59554 4.0838 4.5461 4.10899C4.35794 4.20487 4.20496 4.35785 4.10908 4.54601C4.08389 4.59545 4.04621 4.69617 4.02402 4.96784C4.00087 5.25117 4.00009 5.62345 4.00009 6.2L4.00009 9.8C4.00009 10.3766 4.00087 10.7488 4.02402 11.0322C4.04621 11.3038 4.08389 11.4045 4.10908 11.454C4.20496 11.6422 4.35794 11.7951 4.5461 11.891C4.59554 11.9162 4.69626 11.9539 4.96793 11.9761C5.25126 11.9992 5.62354 12 6.20009 12H8.80009C9.37664 12 9.74891 11.9992 10.0323 11.9761C10.3039 11.9539 10.4046 11.9162 10.4541 11.891C10.6422 11.7951 10.7952 11.6422 10.8911 11.454ZM20.0001 18.5C20.0001 17.9874 19.9952 17.8772 19.9809 17.8049C19.902 17.4082 19.5919 17.0981 19.1952 17.0192C19.1229 17.0048 19.0127 17 18.5001 17H13.5001C12.9875 17 12.8772 17.0048 12.805 17.0192C12.4083 17.0981 12.0982 17.4082 12.0193 17.8049C12.0049 17.8772 12.0001 17.9874 12.0001 18.5C12.0001 19.0126 12.0049 19.1228 12.0193 19.1951C12.0982 19.5918 12.4083 19.9019 12.805 19.9808C12.8772 19.9952 12.9875 20 13.5001 20H18.5001C19.0127 20 19.1229 19.9952 19.1952 19.9808C19.5919 19.9019 19.902 19.5918 19.9809 19.1951C19.9952 19.1228 20.0001 19.0126 20.0001 18.5ZM21.9424 17.4147C22.0007 17.7076 22.0004 18.0354 22.0001 18.4161L22.0001 18.5L22.0001 18.5839V18.5839C22.0004 18.9646 22.0007 19.2924 21.9424 19.5853C21.7057 20.7753 20.7754 21.7056 19.5854 21.9424C19.2925 22.0006 18.9647 22.0003 18.584 22L18.5001 22H13.5001L13.4162 22C13.0355 22.0003 12.7077 22.0006 12.4148 21.9424C11.2247 21.7056 10.2944 20.7753 10.0577 19.5853C9.99948 19.2924 9.99974 18.9646 10 18.5839L10.0001 18.5L10 18.4161C9.99974 18.0354 9.99948 17.7076 10.0577 17.4147C10.2945 16.2247 11.2247 15.2944 12.4148 15.0576C12.7077 14.9994 13.0355 14.9997 13.4162 15L13.5001 15H18.5001L18.584 15C18.9647 14.9997 19.2925 14.9994 19.5854 15.0576C20.7754 15.2944 21.7057 16.2247 21.9424 17.4147ZM22.0001 10.032V10V6V5.96801C22.0001 5.52936 22.0001 5.15088 21.9787 4.83762C21.9562 4.50779 21.9067 4.17788 21.7717 3.85195C21.4672 3.11687 20.8832 2.53284 20.1481 2.22836C19.8222 2.09336 19.4923 2.04385 19.1625 2.02135C18.8492 1.99998 18.4708 1.99999 18.0321 2H18.0321H18.0001H17.9681H17.9681C17.5294 1.99999 17.151 1.99998 16.8377 2.02135C16.5079 2.04385 16.178 2.09336 15.852 2.22836C15.117 2.53284 14.5329 3.11687 14.2284 3.85195C14.0934 4.17788 14.0439 4.50779 14.0214 4.83762C14.0001 5.15087 14.0001 5.52936 14.0001 5.96801L14.0001 6V10L14.0001 10.032C14.0001 10.4706 14.0001 10.8491 14.0214 11.1624C14.0439 11.4922 14.0934 11.8221 14.2284 12.1481C14.5329 12.8831 15.117 13.4672 15.852 13.7716C16.178 13.9066 16.5079 13.9561 16.8377 13.9787C17.151 14 17.5294 14 17.9681 14H17.9681H18.0001H18.0321C18.4707 14 18.8492 14 19.1625 13.9787C19.4923 13.9561 19.8222 13.9066 20.1481 13.7716C20.8832 13.4672 21.4672 12.8831 21.7717 12.1481C21.9067 11.8221 21.9562 11.4922 21.9787 11.1624C22.0001 10.8491 22.0001 10.4706 22.0001 10.032ZM19.9834 11.0262C19.9678 11.2542 19.9412 11.3411 19.924 11.3827C19.8225 11.6277 19.6278 11.8224 19.3828 11.9239C19.3412 11.9411 19.2543 11.9677 19.0263 11.9833C18.7893 11.9995 18.4797 12 18.0001 12C17.5205 12 17.2108 11.9995 16.9738 11.9833C16.7458 11.9677 16.659 11.9411 16.6174 11.9239C16.3724 11.8224 16.1777 11.6277 16.0762 11.3827C16.059 11.3411 16.0324 11.2542 16.0168 11.0262C16.0006 10.7893 16.0001 10.4796 16.0001 10V6C16.0001 5.52038 16.0006 5.21074 16.0168 4.97376C16.0324 4.74576 16.059 4.65893 16.0762 4.61732C16.1777 4.37229 16.3724 4.17761 16.6174 4.07612C16.659 4.05888 16.7458 4.03227 16.9738 4.01671C17.2108 4.00054 17.5205 4 18.0001 4C18.4797 4 18.7893 4.00054 19.0263 4.01671C19.2543 4.03227 19.3412 4.05888 19.3828 4.07612C19.6278 4.17762 19.8225 4.37229 19.924 4.61732C19.9412 4.65893 19.9678 4.74576 19.9834 4.97376C19.9995 5.21074 20.0001 5.52038 20.0001 6V10C20.0001 10.4796 19.9995 10.7893 19.9834 11.0262ZM9.00009 18.5L9.00013 18.5839C9.00043 18.9646 9.0007 19.2924 8.94244 19.5853C8.70572 20.7753 7.77543 21.7056 6.58536 21.9424C6.2925 22.0006 5.96467 22.0003 5.58397 22L5.50009 22L5.4162 22C5.03551 22.0003 4.70767 22.0006 4.41482 21.9424C3.22474 21.7056 2.29445 20.7753 2.05773 19.5853C1.99948 19.2924 1.99974 18.9646 2.00004 18.5839L2.00009 18.5L2.00004 18.4161C1.99974 18.0354 1.99948 17.7076 2.05773 17.4147C2.29445 16.2247 3.22474 15.2944 4.41482 15.0576C4.70767 14.9994 5.0355 14.9997 5.4162 15L5.50009 15L5.58397 15C5.96467 14.9997 6.29251 14.9994 6.58536 15.0576C7.77543 15.2944 8.70572 16.2247 8.94244 17.4147C9.0007 17.7076 9.00043 18.0354 9.00013 18.4161L9.00009 18.5ZM6.98087 19.1951C6.99524 19.1228 7.00009 19.0126 7.00009 18.5C7.00009 17.9874 6.99524 17.8772 6.98087 17.8049C6.90197 17.4082 6.59187 17.0981 6.19518 17.0192C6.12293 17.0048 6.01267 17 5.50009 17C4.9875 17 4.87725 17.0048 4.805 17.0192C4.40831 17.0981 4.09821 17.4082 4.0193 17.8049C4.00493 17.8772 4.00009 17.9874 4.00009 18.5C4.00009 19.0126 4.00493 19.1228 4.0193 19.1951C4.09821 19.5918 4.40831 19.9019 4.805 19.9808C4.87725 19.9952 4.9875 20 5.50009 20C6.01267 20 6.12293 19.9952 6.19518 19.9808C6.59187 19.9019 6.90197 19.5918 6.98087 19.1951Z" fill="currentColor"/>
</svg>
