<svg width="24" height="24" viewBox="0 0 24 24" fill="none" xmlns="http://www.w3.org/2000/svg">
<path fill-rule="evenodd" clip-rule="evenodd" d="M11 1C10.5807 1 10.2059 1.26164 10.0613 1.65528C9.91674 2.04892 10.0331 2.49094 10.3528 2.76233L11.3278 3.59003L8.95714 6.17619L6.12578 4.18238C5.73036 3.90393 5.19234 3.94836 4.84795 4.28789L1.29793 7.78789C0.904643 8.17564 0.900151 8.80879 1.28789 9.20207C1.67564 9.59536 2.30879 9.59985 2.70207 9.21211L5.65725 6.29857L8.52446 8.31762C8.93554 8.6071 9.49763 8.54635 9.83737 8.17572L13.504 4.17572L13.5143 4.16436L14.8476 2.66436C15.1092 2.37004 15.1738 1.94958 15.0125 1.59034C14.8511 1.23111 14.494 1 14.1002 1H11ZM19.4 4.00001L19.4319 4C19.6843 3.99997 19.9301 3.99994 20.1382 4.01695C20.3668 4.03563 20.6366 4.07969 20.908 4.21799C21.2843 4.40974 21.5903 4.7157 21.782 5.09202C21.9203 5.36345 21.9644 5.63318 21.9831 5.86178C22.0001 6.06989 22 6.31561 22 6.56793V6.56797V6.568V6.56804V6.56807V6.56811L22 6.60001V19.4L22 19.4319V19.4319V19.432V19.432V19.432V19.4321C22 19.6844 22.0001 19.9301 21.9831 20.1382C21.9644 20.3668 21.9203 20.6366 21.782 20.908C21.5903 21.2843 21.2843 21.5903 20.908 21.782C20.6366 21.9203 20.3668 21.9644 20.1382 21.9831C19.9302 22.0001 19.6845 22 19.4322 22H19.4321H19.4321H19.4321H19.432H19.4319L19.4 22H17C16.4477 22 16 21.5523 16 21V6.60001L16 6.56811V6.56807C16 6.3157 15.9999 6.06992 16.017 5.86178C16.0356 5.63318 16.0797 5.36345 16.218 5.09202C16.4097 4.7157 16.7157 4.40974 17.092 4.21799C17.3634 4.07969 17.6332 4.03563 17.8618 4.01695C18.0699 3.99994 18.3157 3.99997 18.5681 4L18.6 4.00001H19.4ZM12.4319 10L12.4 10H11.6L11.5681 10H11.5681C11.3157 9.99997 11.0699 9.99994 10.8618 10.017C10.6332 10.0356 10.3634 10.0797 10.092 10.218C9.7157 10.4097 9.40974 10.7157 9.21799 11.092C9.0797 11.3634 9.03563 11.6332 9.01695 11.8618C8.99994 12.0699 8.99997 12.3157 9 12.5681L9.00001 12.6V21C9.00001 21.5523 9.44772 22 10 22H14C14.5523 22 15 21.5523 15 21V12.6L15 12.5681V12.5681C15 12.3157 15.0001 12.0699 14.9831 11.8618C14.9644 11.6332 14.9203 11.3634 14.782 11.092C14.5903 10.7157 14.2843 10.4097 13.908 10.218C13.6366 10.0797 13.3668 10.0356 13.1382 10.017C12.9301 9.99994 12.6843 9.99997 12.4319 10H12.4319ZM5.4319 13L5.40001 13H4.60001L4.56811 13H4.56807C4.3157 13 4.06992 12.9999 3.86178 13.017C3.63318 13.0356 3.36345 13.0797 3.09202 13.218C2.7157 13.4097 2.40974 13.7157 2.21799 14.092C2.07969 14.3634 2.03563 14.6332 2.01695 14.8618C1.99994 15.0699 1.99997 15.3157 2 15.5681L2.00001 15.6V19.4L2 19.4319C1.99997 19.6843 1.99994 19.9301 2.01695 20.1382C2.03563 20.3668 2.07969 20.6366 2.21799 20.908C2.40974 21.2843 2.7157 21.5903 3.09202 21.782C3.36345 21.9203 3.63318 21.9644 3.86178 21.9831C4.06988 22.0001 4.3156 22 4.56791 22H4.56795H4.56798H4.56802H4.56805H4.56809H4.56813L4.60001 22H7.00001C7.55229 22 8.00001 21.5523 8.00001 21V15.6L8.00001 15.5681V15.5681C8.00004 15.3157 8.00007 15.0699 7.98306 14.8618C7.96438 14.6332 7.92032 14.3634 7.78202 14.092C7.59027 13.7157 7.28431 13.4097 6.90799 13.218C6.63656 13.0797 6.36683 13.0356 6.13824 13.017C5.93009 12.9999 5.68431 13 5.43194 13H5.4319Z" fill="currentColor"/>
</svg>
