<svg width="24" height="24" viewBox="0 0 24 24" fill="none" xmlns="http://www.w3.org/2000/svg">
<path fill-rule="evenodd" clip-rule="evenodd" d="M11 1C10.5807 1 10.2059 1.26164 10.0613 1.65528C9.91674 2.04892 10.0331 2.49094 10.3528 2.76233L11.3278 3.59003L8.95714 6.17619L6.12578 4.18238C5.73036 3.90393 5.19234 3.94836 4.84795 4.28789L1.29793 7.78789C0.904643 8.17564 0.900151 8.80879 1.28789 9.20207C1.67564 9.59536 2.30879 9.59985 2.70207 9.21211L5.65725 6.29857L8.52446 8.31762C8.93554 8.6071 9.49763 8.54635 9.83737 8.17572L13.504 4.17572L13.5143 4.16436L14.8476 2.66436C15.1092 2.37004 15.1738 1.94958 15.0125 1.59034C14.8511 1.23111 14.494 1 14.1002 1H11ZM18 5L18.032 5H18.032C18.4706 4.99999 18.8491 4.99998 19.1624 5.02135C19.4922 5.04385 19.8221 5.09336 20.1481 5.22836C20.8831 5.53284 21.4672 6.11687 21.7716 6.85195C21.9066 7.17788 21.9561 7.50779 21.9787 7.83762C22 8.15088 22 8.52937 22 8.96802V9V17.8V17.8385C22 18.3657 22 18.8205 21.9694 19.195C21.9371 19.5904 21.8658 19.9836 21.673 20.362C21.3854 20.9265 20.9265 21.3854 20.362 21.673C19.9836 21.8658 19.5904 21.9371 19.195 21.9694C18.8205 22 18.3657 22 17.8386 22H17.8H15H9H6.2H6.16143C5.63429 22 5.17954 22 4.80497 21.9694C4.40963 21.9371 4.01641 21.8658 3.63803 21.673C3.07354 21.3854 2.6146 20.9265 2.32698 20.362C2.13419 19.9836 2.06287 19.5904 2.03057 19.195C1.99997 18.8205 1.99998 18.3657 2 17.8386V17.8V17.2V17.1614C1.99998 16.6343 1.99997 16.1795 2.03057 15.805C2.06287 15.4096 2.13419 15.0164 2.32698 14.638C2.6146 14.0735 3.07354 13.6146 3.63803 13.327C4.01641 13.1342 4.40963 13.0629 4.80497 13.0306C5.17954 13 5.63431 13 6.16146 13L6.2 13H8.01233C8.01481 12.9441 8.01778 12.8899 8.02135 12.8376C8.04385 12.5078 8.09336 12.1779 8.22836 11.8519C8.53284 11.1169 9.11687 10.5328 9.85195 10.2284C10.1779 10.0934 10.5078 10.0439 10.8376 10.0213C11.1509 9.99998 11.5294 9.99999 11.968 10H12H12.032C12.4706 9.99999 12.8491 9.99998 13.1624 10.0213C13.4424 10.0405 13.7224 10.079 14 10.1728V9L14 8.96801C14 8.52936 14 8.15087 14.0213 7.83762C14.0439 7.50779 14.0934 7.17788 14.2284 6.85195C14.5328 6.11687 15.1169 5.53284 15.8519 5.22836C16.1779 5.09336 16.5078 5.04385 16.8376 5.02135C17.1509 4.99998 17.5294 4.99999 17.968 5H17.968L18 5ZM6.2 15H8V20H6.2C5.62345 20 5.25117 19.9992 4.96784 19.9761C4.69617 19.9539 4.59545 19.9162 4.54601 19.891C4.35785 19.7951 4.20487 19.6422 4.10899 19.454C4.0838 19.4045 4.04612 19.3038 4.02393 19.0322C4.00078 18.7488 4 18.3766 4 17.8V17.2C4 16.6234 4.00078 16.2512 4.02393 15.9678C4.04612 15.6962 4.0838 15.5955 4.10899 15.546C4.20487 15.3578 4.35785 15.2049 4.54601 15.109C4.59545 15.0838 4.69617 15.0461 4.96784 15.0239C5.25117 15.0008 5.62345 15 6.2 15ZM10 14V20H14V15.5V14C14 13.5204 13.9995 13.2107 13.9833 12.9738C13.9677 12.7458 13.9411 12.6589 13.9239 12.6173C13.8224 12.3723 13.6277 12.1776 13.3827 12.0761C13.3411 12.0589 13.2542 12.0323 13.0262 12.0167C12.7893 12.0005 12.4796 12 12 12C11.5204 12 11.2107 12.0005 10.9738 12.0167C10.7458 12.0323 10.6589 12.0589 10.6173 12.0761C10.3723 12.1776 10.1776 12.3723 10.0761 12.6173C10.0589 12.6589 10.0323 12.7458 10.0167 12.9738C10.0005 13.2107 10 13.5204 10 14ZM16 15.5V20H17.8C18.3766 20 18.7488 19.9992 19.0322 19.9761C19.3038 19.9539 19.4045 19.9162 19.454 19.891C19.6422 19.7951 19.7951 19.6422 19.891 19.454C19.9162 19.4045 19.9539 19.3038 19.9761 19.0322C19.9992 18.7488 20 18.3766 20 17.8V9C20 8.52038 19.9995 8.21074 19.9833 7.97376C19.9677 7.74576 19.9411 7.65893 19.9239 7.61732C19.8224 7.37229 19.6277 7.17761 19.3827 7.07612C19.3411 7.05888 19.2542 7.03227 19.0262 7.01671C18.7893 7.00054 18.4796 7 18 7C17.5204 7 17.2107 7.00054 16.9738 7.01671C16.7458 7.03227 16.6589 7.05888 16.6173 7.07612C16.3723 7.17761 16.1776 7.37229 16.0761 7.61732C16.0589 7.65893 16.0323 7.74576 16.0167 7.97376C16.0005 8.21074 16 8.52038 16 9V13.9014L16 13.968L16 14V15.5Z" fill="currentColor"/>
</svg>
