<svg width="24" height="24" viewBox="0 0 24 24" fill="none" xmlns="http://www.w3.org/2000/svg">
<path fill-rule="evenodd" clip-rule="evenodd" d="M12 1C12.5523 1 13 1.44772 13 2V2.49688C13 2.49792 13 2.49896 13 2.5V21.5C13 21.501 13 21.5021 13 21.5031V22C13 22.5523 12.5523 23 12 23C11.4477 23 11 22.5523 11 22V21H6.4H6.36392H6.3639H6.36388H6.36386C5.97479 21 5.62468 21 5.33338 20.9762C5.02141 20.9508 4.68993 20.8931 4.36503 20.7275C3.89462 20.4878 3.51217 20.1054 3.27249 19.635C3.10694 19.3101 3.04925 18.9786 3.02376 18.6666C2.99996 18.3753 2.99998 18.0252 3 17.6361L3.00001 17.6V17.4L3 17.3639C2.99998 16.9748 2.99996 16.6247 3.02376 16.3334C3.03408 16.2071 3.04966 16.0777 3.07553 15.9469C2.84193 15.9115 2.60173 15.8481 2.36503 15.7275C1.89462 15.4878 1.51217 15.1054 1.27249 14.635C1.10694 14.3101 1.04925 13.9786 1.02376 13.6666C0.999964 13.3753 0.999981 13.0253 1 12.6362V12.6362V12.6361L1.00001 12.6V11.4L1 11.3639V11.3638V11.3638C0.999981 10.9747 0.999964 10.6247 1.02376 10.3334C1.04925 10.0214 1.10694 9.68993 1.27249 9.36502C1.51217 8.89462 1.89462 8.51217 2.36503 8.27248C2.68993 8.10694 3.02141 8.04925 3.33338 8.02376C3.62469 7.99996 3.97483 7.99998 4.36392 8L4.40001 8H6.06556C6.04553 7.88723 6.03268 7.77574 6.02376 7.66663C5.99996 7.37531 5.99998 7.02518 6 6.63609L6.00001 6.6V6.4L6 6.36391C5.99998 5.97482 5.99996 5.62469 6.02376 5.33337C6.04925 5.0214 6.10694 4.68993 6.27249 4.36502C6.51217 3.89462 6.89462 3.51217 7.36503 3.27248C7.68993 3.10694 8.02141 3.04925 8.33338 3.02376C8.62469 2.99996 8.97483 2.99998 9.36392 3L9.40001 3H11V2C11 1.44772 11.4477 1 12 1ZM15 21H19.6H19.6361H19.6361H19.6361H19.6361C20.0252 21 20.3753 21 20.6666 20.9762C20.9786 20.9508 21.3101 20.8931 21.635 20.7275C22.1054 20.4878 22.4878 20.1054 22.7275 19.635C22.8931 19.3101 22.9508 18.9786 22.9762 18.6666C23 18.3753 23 18.0252 23 17.6361V17.6V17.4V17.3639C23 16.9748 23 16.6247 22.9762 16.3334C22.9508 16.0214 22.8931 15.6899 22.7275 15.365C22.4878 14.8946 22.1054 14.5122 21.635 14.2725C21.3101 14.1069 20.9786 14.0492 20.6666 14.0238C20.3753 14 20.0252 14 19.6361 14L19.6 14H18.9345C18.9545 13.8872 18.9673 13.7757 18.9762 13.6666C19 13.3753 19 13.0252 19 12.6362V12.6362V12.6361V12.6361V12.6361V12.6V11.4V11.3639V11.3639V11.3639V11.3638V11.3638C19 10.9748 19 10.6247 18.9762 10.3334C18.9659 10.2071 18.9503 10.0777 18.9245 9.94685C19.1581 9.91148 19.3983 9.84812 19.635 9.72752C20.1054 9.48783 20.4878 9.10538 20.7275 8.63498C20.8931 8.31007 20.9508 7.9786 20.9762 7.66663C21 7.37531 21 7.02517 21 6.63607V6.6V6.4V6.36393C21 5.97483 21 5.62469 20.9762 5.33337C20.9508 5.0214 20.8931 4.68993 20.7275 4.36502C20.4878 3.89462 20.1054 3.51217 19.635 3.27248C19.3101 3.10694 18.9786 3.04925 18.6666 3.02376C18.3753 2.99996 18.0252 2.99998 17.6361 3L17.6 3H15V5H17.6C18.0365 5 18.3038 5.00078 18.5038 5.01712C18.5969 5.02473 18.6533 5.03429 18.6875 5.04235C18.7038 5.04618 18.7138 5.04939 18.7192 5.05133L18.7252 5.05368L18.727 5.0545C18.8211 5.10243 18.8976 5.17892 18.9455 5.273C18.9457 5.27341 18.9468 5.27559 18.9487 5.28079C18.9506 5.2862 18.9538 5.29622 18.9577 5.3125C18.9657 5.34673 18.9753 5.40308 18.9829 5.49623C18.9992 5.6962 19 5.96346 19 6.4V6.6C19 7.03654 18.9992 7.3038 18.9829 7.50377C18.9753 7.59692 18.9657 7.65327 18.9577 7.6875C18.9538 7.70378 18.9506 7.7138 18.9487 7.71921C18.9468 7.72441 18.9457 7.72659 18.9455 7.72699C18.8976 7.82108 18.8211 7.89757 18.727 7.9455L18.7246 7.94661L18.7192 7.94867C18.7138 7.95061 18.7038 7.95382 18.6875 7.95765C18.6533 7.96571 18.5969 7.97527 18.5038 7.98288C18.3038 7.99922 18.0365 8 17.6 8H15.7074L15.6361 8L15.6 8H15V10H15.6C16.0365 10 16.3038 10.0008 16.5038 10.0171C16.5969 10.0247 16.6533 10.0343 16.6875 10.0423C16.7038 10.0462 16.7138 10.0494 16.7192 10.0513L16.7253 10.0537L16.727 10.0545C16.8211 10.1024 16.8976 10.1789 16.9455 10.273L16.9466 10.2755L16.9487 10.2808C16.9506 10.2862 16.9538 10.2962 16.9577 10.3125C16.9657 10.3467 16.9753 10.4031 16.9829 10.4962C16.9992 10.6962 17 10.9635 17 11.4V12.6C17 13.0365 16.9992 13.3038 16.9829 13.5038C16.9753 13.5969 16.9657 13.6533 16.9577 13.6875C16.9538 13.7038 16.9506 13.7138 16.9487 13.7192C16.9468 13.7244 16.9457 13.7266 16.9455 13.727C16.8976 13.8211 16.8211 13.8976 16.727 13.9455C16.7268 13.9456 16.7261 13.946 16.7247 13.9465C16.7235 13.9471 16.7217 13.9478 16.7192 13.9487C16.7138 13.9506 16.7038 13.9538 16.6875 13.9577C16.6533 13.9657 16.5969 13.9753 16.5038 13.9829C16.3038 13.9992 16.0365 14 15.6 14H15V16H15.6L15.6361 16L15.7051 16H19.6C20.0365 16 20.3038 16.0008 20.5038 16.0171C20.5969 16.0247 20.6533 16.0343 20.6875 16.0423C20.7038 16.0462 20.7138 16.0494 20.7192 16.0513C20.7244 16.0532 20.7266 16.0543 20.727 16.0545C20.8211 16.1024 20.8976 16.1789 20.9455 16.273C20.9457 16.2734 20.9468 16.2756 20.9487 16.2808C20.9506 16.2862 20.9538 16.2962 20.9577 16.3125C20.9657 16.3467 20.9753 16.4031 20.9829 16.4962C20.9992 16.6962 21 16.9635 21 17.4V17.6C21 18.0365 20.9992 18.3038 20.9829 18.5038C20.9753 18.5969 20.9657 18.6533 20.9577 18.6875C20.9557 18.6959 20.9539 18.7026 20.9523 18.7079C20.9509 18.7129 20.9496 18.7166 20.9487 18.7192C20.9468 18.7244 20.9457 18.7266 20.9455 18.727C20.8976 18.8211 20.8211 18.8976 20.727 18.9455L20.7251 18.9464L20.7192 18.9487C20.7138 18.9506 20.7038 18.9538 20.6875 18.9577C20.6533 18.9657 20.5969 18.9753 20.5038 18.9829C20.3038 18.9992 20.0365 19 19.6 19H15V21ZM9.40001 5H11V8H9.4C8.96346 8 8.6962 7.99922 8.49624 7.98288C8.40309 7.97527 8.34673 7.96571 8.3125 7.95765C8.29622 7.95382 8.28621 7.95061 8.28079 7.94867C8.27559 7.94682 8.27341 7.94571 8.27301 7.9455C8.17893 7.89757 8.10244 7.82108 8.0545 7.72699C8.0543 7.72659 8.05319 7.72441 8.05133 7.71921C8.0494 7.7138 8.04619 7.70378 8.04235 7.6875C8.03429 7.65327 8.02473 7.59692 8.01712 7.50377C8.00078 7.3038 8.00001 7.03654 8.00001 6.6V6.4C8.00001 5.96346 8.00078 5.6962 8.01712 5.49623C8.02473 5.40308 8.03429 5.34673 8.04235 5.3125C8.04619 5.29622 8.0494 5.2862 8.05133 5.28079C8.05319 5.27559 8.0543 5.27341 8.0545 5.273C8.10244 5.17892 8.17893 5.10243 8.27301 5.0545C8.27341 5.05429 8.27559 5.05318 8.28079 5.05133C8.28621 5.04939 8.29622 5.04618 8.3125 5.04235C8.34673 5.03429 8.40309 5.02473 8.49624 5.01712C8.6962 5.00078 8.96347 5 9.40001 5ZM9.4 10H11V14H6.40001L6.36392 14H6.3639L6.29045 14H4.4C3.96346 14 3.6962 13.9992 3.49624 13.9829C3.40309 13.9753 3.34673 13.9657 3.3125 13.9577C3.29622 13.9538 3.28621 13.9506 3.28079 13.9487C3.27559 13.9468 3.27341 13.9457 3.27301 13.9455C3.17893 13.8976 3.10244 13.8211 3.0545 13.727L3.05375 13.7254L3.05133 13.7192C3.0494 13.7138 3.04618 13.7038 3.04235 13.6875C3.03429 13.6533 3.02473 13.5969 3.01712 13.5038C3.00078 13.3038 3.00001 13.0365 3.00001 12.6V11.4C3.00001 10.9635 3.00078 10.6962 3.01712 10.4962C3.02473 10.4031 3.03429 10.3467 3.04235 10.3125C3.04618 10.2962 3.0494 10.2862 3.05133 10.2808L3.05368 10.2748L3.0545 10.273C3.10244 10.1789 3.17893 10.1024 3.27301 10.0545C3.27341 10.0543 3.27559 10.0532 3.28079 10.0513C3.28621 10.0494 3.29622 10.0462 3.3125 10.0423C3.34673 10.0343 3.40309 10.0247 3.49624 10.0171C3.6962 10.0008 3.96346 10 4.40001 10H9.29494L9.36392 10L9.4 10ZM6.40001 16H11V19H6.4C5.96346 19 5.6962 18.9992 5.49624 18.9829C5.40309 18.9753 5.34673 18.9657 5.3125 18.9577C5.29622 18.9538 5.28621 18.9506 5.28079 18.9487C5.27559 18.9468 5.27341 18.9457 5.27301 18.9455C5.17893 18.8976 5.10244 18.8211 5.0545 18.727C5.0543 18.7266 5.05319 18.7244 5.05133 18.7192C5.0494 18.7138 5.04619 18.7038 5.04235 18.6875C5.03429 18.6533 5.02473 18.5969 5.01712 18.5038C5.00078 18.3038 5.00001 18.0365 5.00001 17.6V17.4C5.00001 16.9635 5.00078 16.6962 5.01712 16.4962C5.02473 16.4031 5.03429 16.3467 5.04235 16.3125C5.04619 16.2962 5.0494 16.2862 5.05133 16.2808C5.05319 16.2756 5.0543 16.2734 5.0545 16.273C5.10244 16.1789 5.17893 16.1024 5.27301 16.0545C5.27341 16.0543 5.27559 16.0532 5.28079 16.0513C5.28621 16.0494 5.29622 16.0462 5.3125 16.0423C5.34673 16.0343 5.40309 16.0247 5.49624 16.0171C5.6962 16.0008 5.96347 16 6.40001 16Z" fill="currentColor"/>
</svg>
