<svg width="24" height="24" viewBox="0 0 24 24" fill="none" xmlns="http://www.w3.org/2000/svg">
<path fill-rule="evenodd" clip-rule="evenodd" d="M12.9 2.00001L12.9319 2L12.9319 2C13.1843 1.99997 13.4301 1.99994 13.6382 2.01695C13.8668 2.03563 14.1365 2.07969 14.408 2.21799C14.7843 2.40974 15.0903 2.7157 15.282 3.09203C15.4203 3.36345 15.4644 3.63318 15.483 3.86178C15.5 4.06993 15.5 4.31572 15.5 4.56809V4.56813L15.5 4.60001L15.5 5.00021C16.0068 5.00115 16.4415 5.00624 16.8124 5.03365C17.2888 5.06886 17.7284 5.14435 18.1566 5.32991C18.8278 5.62087 19.4065 6.09037 19.8295 6.68732C20.0993 7.06804 20.2637 7.48267 20.3963 7.94161C20.5231 8.38045 20.6368 8.92047 20.7734 9.56964L20.7734 9.56968L20.7809 9.60514L21.6697 13.8268L21.6769 13.8611L21.6769 13.8611C21.7858 14.3783 21.8496 14.6814 21.8947 14.9897C21.9348 15.2635 21.9634 15.5388 21.9806 15.815C22 16.126 22 16.4359 22 16.9645V16.9995V17.0397V17.0397C22 17.7057 22 18.2654 21.9626 18.7233C21.9235 19.2021 21.8386 19.6571 21.6185 20.089C21.283 20.7475 20.7475 21.283 20.089 21.6185C19.6571 21.8386 19.2021 21.9235 18.7234 21.9626C18.2656 22 17.7061 22 17.0402 22H17.0402H17H7H6.95982H6.95979C6.29394 22 5.73443 22 5.27657 21.9626C4.79785 21.9235 4.34289 21.8386 3.91103 21.6185C3.25247 21.283 2.71703 20.7475 2.38148 20.089C2.16142 19.6571 2.07649 19.2021 2.03738 18.7233C1.99997 18.2654 1.99999 17.7058 2 17.0398V17.0397V16.9995V16.9644V16.9644C1.99999 16.4359 1.99999 16.126 2.01937 15.815C2.03658 15.5388 2.06525 15.2635 2.1053 14.9897C2.1504 14.6814 2.21423 14.3783 2.32311 13.8611L2.33033 13.8268L3.2191 9.60514L3.22657 9.56969L3.22659 9.56957C3.36324 8.92043 3.47692 8.38043 3.60371 7.94161C3.73631 7.48267 3.90073 7.06804 4.17052 6.68732C4.59353 6.09037 5.17216 5.62087 5.84345 5.32991C6.27159 5.14435 6.7112 5.06886 7.18761 5.03365C7.55849 5.00624 7.99322 5.00115 8.5 5.00022V4.60001L8.5 4.56812C8.49997 4.31574 8.49994 4.06994 8.51695 3.86178C8.53562 3.63318 8.57969 3.36345 8.71799 3.09202C8.90973 2.7157 9.2157 2.40974 9.59202 2.21799C9.86344 2.07969 10.1332 2.03563 10.3618 2.01695C10.5699 1.99994 10.8157 1.99997 11.0681 2L11.0681 2L11.1 2.00001H12.9ZM15.1053 7H14.5L9.50022 7.00001H9.5H9.49978H8.89469C8.18582 7.00001 7.70814 7.00064 7.33502 7.02821C6.97448 7.05486 6.78155 7.1031 6.63882 7.16496C6.30317 7.31044 6.01386 7.54519 5.80235 7.84366C5.71241 7.97058 5.62547 8.14945 5.52511 8.49676C5.42126 8.8562 5.32224 9.3235 5.1762 10.0172L4.28743 14.2388C4.16932 14.7999 4.11927 15.0397 4.08424 15.2792C4.0522 15.4982 4.02927 15.7185 4.0155 15.9394C4.00044 16.181 4 16.4261 4 16.9995C4 17.7163 4.00078 18.1937 4.03074 18.5605C4.05975 18.9156 4.11106 19.0781 4.16349 19.181C4.3073 19.4632 4.53677 19.6927 4.81901 19.8365C4.92194 19.889 5.0844 19.9403 5.43944 19.9693C5.80615 19.9992 6.28343 20 7 20H17C17.7166 20 18.1939 19.9992 18.5606 19.9693C18.9156 19.9403 19.0781 19.889 19.181 19.8365C19.4632 19.6927 19.6927 19.4632 19.8365 19.181C19.8889 19.0781 19.9402 18.9156 19.9693 18.5605C19.9992 18.1937 20 17.7163 20 16.9995C20 16.4261 19.9996 16.181 19.9845 15.9394C19.9707 15.7185 19.9478 15.4982 19.9158 15.2792C19.8807 15.0397 19.8307 14.7999 19.7126 14.2388L18.8238 10.0172C18.6778 9.3235 18.5787 8.8562 18.4749 8.49676C18.3745 8.14945 18.2876 7.97058 18.1976 7.84366C17.9861 7.54519 17.6968 7.31044 17.3612 7.16496C17.2185 7.1031 17.0255 7.05486 16.665 7.02821C16.2919 7.00064 15.8142 7 15.1053 7ZM13.5 5.00001H10.5V4.60001C10.5 4.30348 10.5008 4.14122 10.5103 4.02464L10.5114 4.01145L10.5246 4.01031C10.6412 4.00078 10.8035 4.00001 11.1 4.00001H12.9C13.1965 4.00001 13.3588 4.00078 13.4754 4.01031L13.4885 4.01145L13.4897 4.02464C13.4992 4.14122 13.5 4.30348 13.5 4.60001L13.5 5.00001ZM10.9999 11C10.9999 10.4477 11.4476 10 11.9999 10C12.5522 10 12.9999 10.4477 12.9999 11V13H14.9999C15.5522 13 15.9999 13.4477 15.9999 14C15.9999 14.5523 15.5522 15 14.9999 15H12.9999V17C12.9999 17.5523 12.5522 18 11.9999 18C11.4476 18 10.9999 17.5523 10.9999 17V15H8.99993C8.44764 15 7.99993 14.5523 7.99993 14C7.99993 13.4477 8.44764 13 8.99993 13H10.9999V11Z" fill="currentColor"/>
</svg>
