<svg width="24" height="24" viewBox="0 0 24 24" fill="none" xmlns="http://www.w3.org/2000/svg">
<path fill-rule="evenodd" clip-rule="evenodd" d="M11.8 3.00001L11.7769 3.00001C11.6578 2.99996 11.5155 2.99991 11.3902 3.01015C11.245 3.02201 11.037 3.05245 10.819 3.1635C10.5368 3.30731 10.3073 3.53678 10.1635 3.81903C10.0525 4.03697 10.022 4.24496 10.0101 4.39018C9.99991 4.5155 9.99996 4.65776 10 4.77687L10 4.80001L10 5.20001L10 5.22315C9.99996 5.34227 9.99991 5.48452 10.0101 5.60984C10.022 5.75506 10.0525 5.96305 10.1635 6.181C10.3073 6.46324 10.5368 6.69271 10.819 6.83652C11.037 6.94757 11.245 6.97801 11.3902 6.98988C11.5155 7.00012 11.6578 7.00006 11.7769 7.00002L11.8 7.00001L12.2 7.00001L12.2232 7.00002H12.2232C12.3423 7.00006 12.4845 7.00012 12.6098 6.98988C12.7551 6.97801 12.9631 6.94757 13.181 6.83652C13.4632 6.69271 13.6927 6.46324 13.8365 6.181C13.9476 5.96305 13.978 5.75506 13.9899 5.60984C14.0001 5.48452 14.0001 5.34227 14 5.22315L14 5.20001V4.80001L14 4.77687C14.0001 4.65776 14.0001 4.5155 13.9899 4.39018C13.978 4.24496 13.9476 4.03697 13.8365 3.81903C13.6927 3.53678 13.4632 3.30731 13.181 3.1635C12.9631 3.05245 12.7551 3.02201 12.6098 3.01015C12.4845 2.99991 12.3423 2.99996 12.2231 3.00001L12.2 3.00001L11.8 3.00001ZM11.7769 10C11.6578 9.99996 11.5155 9.99991 11.3902 10.0101C11.245 10.022 11.037 10.0525 10.819 10.1635C10.5368 10.3073 10.3073 10.5368 10.1635 10.819C10.0525 11.037 10.022 11.245 10.0101 11.3902C9.99991 11.5155 9.99996 11.6578 10 11.7769L10 11.8V12.2L10 12.2232C9.99996 12.3423 9.99991 12.4845 10.0101 12.6098C10.022 12.7551 10.0525 12.9631 10.1635 13.181C10.3073 13.4632 10.5368 13.6927 10.819 13.8365C11.037 13.9476 11.245 13.978 11.3902 13.9899C11.5155 14.0001 11.6577 14.0001 11.7769 14H11.7769L11.8 14H12.2L12.2231 14H12.2232C12.3423 14.0001 12.4845 14.0001 12.6098 13.9899C12.7551 13.978 12.9631 13.9476 13.181 13.8365C13.4632 13.6927 13.6927 13.4632 13.8365 13.181C13.9476 12.9631 13.978 12.7551 13.9899 12.6098C14.0001 12.4845 14.0001 12.3423 14 12.2232L14 12.2V11.8L14 11.7769C14.0001 11.6578 14.0001 11.5155 13.9899 11.3902C13.978 11.245 13.9476 11.037 13.8365 10.819C13.6927 10.5368 13.4632 10.3073 13.181 10.1635C12.9631 10.0525 12.7551 10.022 12.6098 10.0101C12.4845 9.99991 12.3423 9.99996 12.2232 10L12.2 10H11.8L11.7769 10ZM11.7769 17C11.6578 17 11.5155 16.9999 11.3902 17.0101C11.245 17.022 11.037 17.0525 10.819 17.1635C10.5368 17.3073 10.3073 17.5368 10.1635 17.819C10.0525 18.037 10.022 18.245 10.0101 18.3902C9.99991 18.5155 9.99996 18.6578 10 18.7769L10 18.8V19.2L10 19.2232C9.99996 19.3423 9.99991 19.4845 10.0101 19.6098C10.022 19.7551 10.0525 19.9631 10.1635 20.181C10.3073 20.4632 10.5368 20.6927 10.819 20.8365C11.037 20.9476 11.245 20.978 11.3902 20.9899C11.5155 21.0001 11.6577 21.0001 11.7768 21H11.7769L11.8 21H12.2L12.2232 21H12.2233C12.3424 21.0001 12.4846 21.0001 12.6098 20.9899C12.7551 20.978 12.9631 20.9476 13.181 20.8365C13.4632 20.6927 13.6927 20.4632 13.8365 20.181C13.9476 19.9631 13.978 19.7551 13.9899 19.6098C14.0001 19.4845 14.0001 19.3423 14 19.2232L14 19.2V18.8L14 18.7769C14.0001 18.6578 14.0001 18.5155 13.9899 18.3902C13.978 18.245 13.9476 18.037 13.8365 17.819C13.6927 17.5368 13.4632 17.3073 13.181 17.1635C12.9631 17.0525 12.7551 17.022 12.6098 17.0101C12.4845 16.9999 12.3423 17 12.2231 17L12.2 17H11.8L11.7769 17Z" fill="currentColor"/>
</svg>
