<svg width="24" height="24" viewBox="0 0 24 24" fill="none" xmlns="http://www.w3.org/2000/svg">
<path fill-rule="evenodd" clip-rule="evenodd" d="M3.00001 12.2L3.00001 12.2231C2.99996 12.3422 2.99991 12.4845 3.01015 12.6098C3.02201 12.755 3.05245 12.963 3.1635 13.181C3.30731 13.4632 3.53678 13.6927 3.81903 13.8365C4.03697 13.9475 4.24496 13.978 4.39018 13.9899C4.5155 14.0001 4.65776 14 4.77687 14L4.80001 14L5.20001 14L5.22315 14C5.34227 14 5.48452 14.0001 5.60984 13.9899C5.75506 13.978 5.96305 13.9475 6.181 13.8365C6.46324 13.6927 6.69271 13.4632 6.83652 13.181C6.94757 12.963 6.97801 12.755 6.98988 12.6098C7.00012 12.4845 7.00006 12.3422 7.00002 12.2231L7.00001 12.2L7.00001 11.8L7.00002 11.7768L7.00002 11.7768C7.00006 11.6577 7.00012 11.5155 6.98988 11.3902C6.97801 11.2449 6.94757 11.0369 6.83652 10.819C6.69271 10.5368 6.46324 10.3073 6.181 10.1635C5.96305 10.0524 5.75506 10.022 5.60984 10.0101C5.48452 9.99988 5.34227 9.99994 5.22315 9.99998L5.20001 9.99999L4.80001 9.99999L4.77687 9.99998C4.65776 9.99994 4.5155 9.99988 4.39018 10.0101C4.24496 10.022 4.03697 10.0524 3.81903 10.1635C3.53678 10.3073 3.30731 10.5368 3.1635 10.819C3.05245 11.0369 3.02201 11.2449 3.01015 11.3902C2.99991 11.5155 2.99996 11.6577 3.00001 11.7769L3.00001 11.8L3.00001 12.2ZM10 12.2231C9.99996 12.3422 9.99991 12.4845 10.0101 12.6098C10.022 12.755 10.0525 12.963 10.1635 13.181C10.3073 13.4632 10.5368 13.6927 10.819 13.8365C11.037 13.9475 11.245 13.978 11.3902 13.9899C11.5155 14.0001 11.6578 14 11.7769 14L11.8 14L12.2 14L12.2232 14C12.3423 14 12.4845 14.0001 12.6098 13.9899C12.7551 13.978 12.9631 13.9475 13.181 13.8365C13.4632 13.6927 13.6927 13.4632 13.8365 13.181C13.9476 12.963 13.978 12.755 13.9899 12.6098C14.0001 12.4845 14.0001 12.3423 14 12.2231L14 12.2231L14 12.2L14 11.8L14 11.7769L14 11.7768C14.0001 11.6577 14.0001 11.5155 13.9899 11.3902C13.978 11.2449 13.9476 11.0369 13.8365 10.819C13.6927 10.5368 13.4632 10.3073 13.181 10.1635C12.9631 10.0524 12.7551 10.022 12.6098 10.0101C12.4845 9.99988 12.3423 9.99993 12.2232 9.99998L12.2232 9.99998L12.2 9.99999L11.8 9.99999L11.7769 9.99998L11.7769 9.99998C11.6577 9.99993 11.5155 9.99988 11.3902 10.0101C11.245 10.022 11.037 10.0524 10.819 10.1635C10.5368 10.3073 10.3073 10.5368 10.1635 10.819C10.0525 11.0369 10.022 11.2449 10.0101 11.3902C9.99991 11.5155 9.99996 11.6577 10 11.7768L10 11.8L10 12.2L10 12.2231ZM17 12.2231C17 12.3422 16.9999 12.4845 17.0101 12.6098C17.022 12.755 17.0525 12.963 17.1635 13.181C17.3073 13.4632 17.5368 13.6927 17.819 13.8365C18.037 13.9475 18.245 13.978 18.3902 13.9899C18.5155 14.0001 18.6578 14 18.7769 14L18.8 14L19.2 14L19.2232 14C19.3423 14 19.4845 14.0001 19.6098 13.9899C19.7551 13.978 19.9631 13.9475 20.181 13.8365C20.4632 13.6927 20.6927 13.4632 20.8365 13.181C20.9476 12.963 20.978 12.755 20.9899 12.6098C21.0001 12.4845 21.0001 12.3423 21 12.2232L21 12.2231L21 12.2L21 11.8L21 11.7768L21 11.7767C21.0001 11.6576 21.0001 11.5154 20.9899 11.3902C20.978 11.2449 20.9476 11.0369 20.8365 10.819C20.6927 10.5368 20.4632 10.3073 20.181 10.1635C19.9631 10.0524 19.7551 10.022 19.6098 10.0101C19.4845 9.99988 19.3423 9.99993 19.2232 9.99998L19.2 9.99999L18.8 9.99999L18.7769 9.99998C18.6578 9.99993 18.5155 9.99988 18.3902 10.0101C18.245 10.022 18.037 10.0524 17.819 10.1635C17.5368 10.3073 17.3073 10.5368 17.1635 10.819C17.0525 11.0369 17.022 11.2449 17.0101 11.3902C16.9999 11.5155 17 11.6577 17 11.7769L17 11.8L17 12.2L17 12.2231Z" fill="currentColor"/>
</svg>
