<svg width="24" height="24" viewBox="0 0 24 24" fill="none" xmlns="http://www.w3.org/2000/svg">
<path fill-rule="evenodd" clip-rule="evenodd" d="M19.4 4.00001C19.6965 4.00001 19.8587 4.00078 19.9753 4.01031L19.9885 4.01145L19.9897 4.02464C19.9992 4.14122 20 4.30348 20 4.60001V4.79312C20 5.02339 19.9994 5.14444 19.9932 5.23181L19.9926 5.24L19.9837 5.24325C19.9001 5.27365 19.782 5.30798 19.5586 5.37181L19.4105 5.41397C18.7193 5.6103 18.1141 5.78218 17.6463 6.1498C17.2375 6.47104 16.9193 6.89299 16.7227 7.37429C16.4977 7.92503 16.4987 8.5497 16.4998 9.26195L16.5 9.41377V14.5862L16.4998 14.7381C16.4987 15.4503 16.4977 16.075 16.7227 16.6257C16.9193 17.107 17.2375 17.529 17.6463 17.8502C18.1141 18.2178 18.7192 18.3897 19.4104 18.586L19.5586 18.6282C19.782 18.692 19.9001 18.7264 19.9837 18.7568L19.9926 18.76L19.9932 18.7682C19.9994 18.8556 20 18.9766 20 19.2069V19.4C20 19.6965 19.9992 19.8588 19.9897 19.9754L19.9885 19.9885L19.9753 19.9897C19.8587 19.9992 19.6965 20 19.4 20H14.9918C15 19.8248 15 19.6304 15 19.4319L15 19.4V19.2069L15.0002 19.1149C15.0017 18.7846 15.0036 18.3704 14.8515 17.9981C14.7204 17.6772 14.5083 17.3959 14.2357 17.1818C13.9194 16.9332 13.5184 16.8206 13.1977 16.7305L13.108 16.7051C12.1805 16.4401 11.9987 16.3693 11.8821 16.2777C11.7458 16.1706 11.6397 16.0299 11.5742 15.8695C11.518 15.732 11.5 15.541 11.5 14.5862V9.41377C11.5 8.45901 11.518 8.26803 11.5742 8.1305C11.6397 7.97007 11.7458 7.82942 11.8821 7.72234C11.9987 7.63073 12.1805 7.55987 13.108 7.29486L13.1977 7.26953C13.5184 7.17946 13.9194 7.06679 14.2357 6.81824C14.5083 6.60408 14.7204 6.32278 14.8515 6.00191C15.0036 5.6296 15.0017 5.21545 15.0002 4.8851L15 4.79312V4.60001L15 4.56812C15 4.36964 15 4.17524 14.9918 4.00001H19.4ZM12.4 4.00001H11H4.59996C4.30344 4.00001 4.14118 4.00078 4.0246 4.01031L4.01141 4.01145L4.01027 4.02464C4.00074 4.14122 3.99996 4.30348 3.99996 4.60001V4.79312C3.99996 5.02339 4.00054 5.14444 4.00674 5.23181L4.00735 5.24L4.0162 5.24325C4.09986 5.27365 4.21794 5.30798 4.44135 5.37181L4.58947 5.41397L4.58948 5.41397C5.28068 5.6103 5.88582 5.78218 6.35362 6.1498C6.7624 6.47104 7.08068 6.89299 7.27725 7.37429C7.50219 7.92503 7.50122 8.5497 7.50012 9.26195L7.49996 9.41377V14.5862L7.50012 14.7381C7.50122 15.4503 7.50219 16.075 7.27725 16.6257C7.08068 17.107 6.7624 17.529 6.35362 17.8502C5.88582 18.2178 5.28068 18.3897 4.58948 18.586L4.44135 18.6282C4.21794 18.692 4.09986 18.7264 4.0162 18.7568L4.00735 18.76L4.00674 18.7682C4.00054 18.8556 3.99996 18.9766 3.99996 19.2069V19.4C3.99996 19.6965 4.00074 19.8588 4.01027 19.9754L4.01141 19.9885L4.0246 19.9897C4.14118 19.9992 4.30344 20 4.59996 20H11H12.4C12.6965 20 12.8587 19.9992 12.9753 19.9897L12.9885 19.9885L12.9897 19.9754C12.9992 19.8588 13 19.6965 13 19.4V19.2069C13 18.9766 12.9994 18.8556 12.9932 18.7682L12.9926 18.76L12.9837 18.7568C12.9001 18.7264 12.782 18.692 12.5586 18.6282L12.4105 18.586C11.7193 18.3897 11.1141 18.2178 10.6463 17.8502C10.2375 17.529 9.91925 17.107 9.72268 16.6257C9.49774 16.075 9.49871 15.4503 9.49981 14.7381L9.49996 14.5862V9.41377L9.49981 9.26195C9.49871 8.5497 9.49774 7.92503 9.72268 7.37429C9.91925 6.89299 10.2375 6.47104 10.6463 6.1498C11.1141 5.78218 11.7193 5.6103 12.4105 5.41397L12.5586 5.37181C12.782 5.30798 12.9001 5.27365 12.9837 5.24325L12.9926 5.24L12.9932 5.23181C12.9994 5.14444 13 5.02339 13 4.79312V4.60001C13 4.30348 12.9992 4.14122 12.9897 4.02464L12.9885 4.01145L12.9753 4.01031C12.8587 4.00078 12.6965 4.00001 12.4 4.00001ZM11 22H4.59996L4.56805 22H4.56793C4.3156 22 4.06986 22.0001 3.86173 21.9831C3.63314 21.9644 3.36341 21.9203 3.09198 21.782C2.71566 21.5903 2.4097 21.2843 2.21795 20.908C2.07965 20.6366 2.03559 20.3668 2.01691 20.1382C1.9999 19.9301 1.99993 19.6843 1.99996 19.4319L1.99996 19.4V19.2069L1.99969 19.1149C1.99822 18.7846 1.99638 18.3704 2.14844 17.9981C2.27949 17.6772 2.49168 17.3959 2.7642 17.1818C3.08048 16.9332 3.48157 16.8206 3.80222 16.7305L3.89191 16.7051C4.81945 16.4401 5.00127 16.3693 5.11785 16.2777C5.25411 16.1706 5.3602 16.0299 5.42573 15.8695C5.4819 15.732 5.49996 15.541 5.49996 14.5862V9.41377C5.49996 8.45901 5.4819 8.26803 5.42573 8.1305C5.3602 7.97007 5.25411 7.82942 5.11785 7.72234C5.00127 7.63073 4.81945 7.55987 3.89191 7.29486L3.80221 7.26953C3.48156 7.17946 3.08048 7.06679 2.7642 6.81824C2.49168 6.60408 2.27949 6.32278 2.14844 6.00191C1.99638 5.6296 1.99822 5.21545 1.99969 4.8851L1.99996 4.79312V4.60001L1.99996 4.56811V4.56809C1.99993 4.31572 1.9999 4.06993 2.01691 3.86178C2.03559 3.63318 2.07965 3.36345 2.21795 3.09202C2.4097 2.7157 2.71566 2.40974 3.09198 2.21799C3.36341 2.07969 3.63314 2.03563 3.86173 2.01695C4.06989 1.99994 4.31568 1.99997 4.56805 2L4.56807 2L4.59996 2.00001H11H12.4L12.4319 2L12.4319 2C12.4531 2 12.4743 2 12.4955 2.00001H19.4L19.4319 2C19.6842 1.99997 19.93 1.99994 20.1382 2.01695C20.3668 2.03563 20.6365 2.07969 20.9079 2.21799C21.2843 2.40974 21.5902 2.7157 21.782 3.09202C21.9203 3.36345 21.9643 3.63318 21.983 3.86178C22 4.06994 22 4.31574 22 4.56812L22 4.60001V4.79312L22.0002 4.8851C22.0017 5.21545 22.0036 5.6296 21.8515 6.00191C21.7204 6.32278 21.5083 6.60408 21.2357 6.81824C20.9194 7.06679 20.5184 7.17946 20.1977 7.26953L20.108 7.29486C19.1805 7.55987 18.9987 7.63073 18.8821 7.72234C18.7458 7.82942 18.6397 7.97007 18.5742 8.1305C18.518 8.26803 18.5 8.45901 18.5 9.41377V14.5862C18.5 15.541 18.518 15.732 18.5742 15.8695C18.6397 16.0299 18.7458 16.1706 18.8821 16.2777C18.9987 16.3693 19.1805 16.4401 20.108 16.7051L20.1977 16.7305C20.5184 16.8206 20.9194 16.9332 21.2357 17.1818C21.5083 17.3959 21.7204 17.6772 21.8515 17.9981C22.0036 18.3704 22.0017 18.7846 22.0002 19.1149L22 19.2069V19.4L22 19.4319C22 19.6843 22 19.9301 21.983 20.1382C21.9643 20.3668 21.9203 20.6366 21.782 20.908C21.5902 21.2843 21.2843 21.5903 20.9079 21.782C20.6365 21.9203 20.3668 21.9644 20.1382 21.9831C19.9301 22.0001 19.6843 22 19.432 22H19.4319L19.4 22H12.4978C12.476 22 12.454 22 12.432 22H12.4319L12.4 22H11Z" fill="currentColor"/>
</svg>
