<svg width="24" height="24" viewBox="0 0 24 24" fill="none" xmlns="http://www.w3.org/2000/svg">
<path fill-rule="evenodd" clip-rule="evenodd" d="M10.9998 2C8.23834 2 5.99976 4.23858 5.99976 7V12C5.99976 14.7614 8.23834 17 10.9998 17H12.9998C15.7612 17 17.9998 14.7614 17.9998 12V7C17.9998 4.23858 15.7612 2 12.9998 2H10.9998ZM7.99976 7C7.99976 5.34315 9.34291 4 10.9998 4H12.9998C14.6566 4 15.9998 5.34315 15.9998 7V12C15.9998 13.6569 14.6566 15 12.9998 15H10.9998C9.34291 15 7.99976 13.6569 7.99976 12V7ZM20.7918 15.4004C21.013 14.8943 20.7819 14.3048 20.2759 14.0836C19.7698 13.8625 19.1803 14.0935 18.9591 14.5996C17.9552 16.8974 15.6634 18.5 12.9996 18.5H12.0003H11.9996L10.9883 18.4985C8.329 18.4945 6.04261 16.8934 5.0401 14.5995C4.81894 14.0935 4.2294 13.8625 3.72333 14.0837C3.21726 14.3049 2.98631 14.8944 3.20747 15.4005C4.5164 18.3955 7.50399 20.4932 10.9852 20.4985L10.9996 20.4985V22C10.9996 22.5523 11.4473 23 11.9996 23C12.5518 23 12.9996 22.5523 12.9996 22V20.5C16.4866 20.5 19.4811 18.4003 20.7918 15.4004Z" fill="currentColor"/>
</svg>
