<svg width="24" height="24" viewBox="0 0 24 24" fill="none" xmlns="http://www.w3.org/2000/svg">
<path fill-rule="evenodd" clip-rule="evenodd" d="M11 2L10.9562 2C9.5932 1.99999 8.50917 1.99999 7.63458 2.07144C6.73898 2.14462 5.97531 2.29768 5.27606 2.65396C4.14709 3.2292 3.2292 4.14708 2.65396 5.27606C2.29768 5.9753 2.14462 6.73898 2.07145 7.63458C2.008 8.4111 2.00089 9.35272 2.0001 10.5081C2.00007 10.5081 2.00003 10.5082 2 10.5082V12.3002L2 13.0001L2 13.0439C1.99999 14.4069 1.99999 15.491 2.07145 16.3655C2.14462 17.2611 2.29768 18.0248 2.65396 18.7241C3.2292 19.853 4.14709 20.7709 5.27606 21.3462C5.97531 21.7024 6.73898 21.8555 7.63458 21.9287C8.50915 22.0001 9.59314 22.0001 10.9561 22.0001H10.9562H11H13H13.0438H13.0439C14.4069 22.0001 15.4909 22.0001 16.3654 21.9287C17.261 21.8555 18.0247 21.7024 18.7239 21.3462C19.8529 20.7709 20.7708 19.853 21.346 18.7241C21.7023 18.0248 21.8554 17.2611 21.9286 16.3655C22 15.491 22 14.407 22 13.044V13.0439V13.0001V11V10.9562V10.9561C22 9.59313 22 8.50914 21.9286 7.63458C21.8554 6.73898 21.7023 5.9753 21.346 5.27606C20.7708 4.14708 19.8529 3.2292 18.7239 2.65396C18.0247 2.29768 17.261 2.14462 16.3654 2.07144C15.4908 1.99999 14.4068 1.99999 13.0438 2L13 2H11ZM4 11.791V13.0001C4 14.4168 4.00078 15.4191 4.0648 16.2027C4.12787 16.9746 4.24729 17.4458 4.43598 17.8161C4.81947 18.5687 5.43139 19.1807 6.18404 19.5642C6.49871 19.7245 6.88622 19.8348 7.4692 19.903C8.11023 17.5529 9.06665 15.342 10.9062 13.5855C11.31 13.2025 11.3769 12.9696 10.9463 12.5919C10.7342 12.3892 10.569 12.1424 10.4623 11.8689C10.1306 11.1538 9.64394 10.8673 8.85761 11.0815C8.65801 11.1359 8.08882 11.186 7.69494 11.2207C7.54542 11.2339 7.42114 11.2448 7.35196 11.2529C6.22524 11.3708 5.10625 11.5505 4 11.791ZM8.94172 19.9877C9.51696 19.9999 10.1909 20.0001 11 20.0001H13C14.4166 20.0001 15.419 19.9993 16.2026 19.9353C16.9745 19.8723 17.4457 19.7528 17.816 19.5642C18.5686 19.1807 19.1805 18.5687 19.564 17.8161C19.7527 17.4458 19.8721 16.9746 19.9352 16.2027C19.9992 15.4191 20 14.4168 20 13.0001V11C20 9.58337 19.9992 8.58104 19.9352 7.79744C19.8721 7.02552 19.7527 6.55435 19.564 6.18404C19.1805 5.43139 18.5686 4.81947 17.816 4.43597C17.4457 4.24729 16.9745 4.12787 16.2026 4.0648C15.419 4.00078 14.4166 4 13 4H11C9.58337 4 8.58104 4.00078 7.79744 4.0648C7.02553 4.12787 6.55435 4.24729 6.18404 4.43597C5.43139 4.81947 4.81947 5.43139 4.43598 6.18404C4.24729 6.55435 4.12787 7.02552 4.0648 7.79744C4.01492 8.40795 4.00343 9.15124 4.00079 10.1198C5.64563 9.83512 7.30431 9.63678 8.97 9.52561C9.36972 9.47874 9.76335 9.38896 10.144 9.25781C10.2649 9.15806 10.3775 9.04881 10.481 8.93109C10.5826 8.82397 10.6976 8.69275 10.8313 8.52939C11.233 8.01924 11.8096 7.67663 12.4493 7.56798C15.3348 6.97078 15.5729 7.00023 15.5729 7.00023C15.5729 7.00023 15.9099 7.11003 15.4338 7.58672C15.0063 7.95708 14.5325 8.27034 14.0245 8.51868C13.7132 8.75365 13.3689 8.94135 13.0029 9.07571C12.3985 9.30602 12.3985 9.42384 12.3985 9.42384C12.0722 9.75325 12.8558 10.1683 13.5297 10.0559C14.2037 9.94339 16.0864 9.86036 16.6827 9.97016C17.2791 10.08 18.0333 9.16676 18.0333 9.16676C18.0462 9.13422 18.0658 9.10475 18.0907 9.08022C18.1157 9.05569 18.1454 9.03664 18.1782 9.02429C18.2109 9.01194 18.2459 9.00657 18.2808 9.0085C18.3157 9.01043 18.3498 9.01964 18.381 9.03553L18.389 9.04357C18.7554 9.19354 18.389 9.93 18.389 9.93C17.8622 10.9905 17.1294 11.1699 15.621 11.4377C15.0273 11.5448 14.5941 11.6466 14.2839 11.735C14.4833 12.3622 14.5047 13.0326 14.3454 13.6712C14.3144 14.0622 14.3469 14.4556 14.4416 14.8361C14.4671 14.9389 14.4665 15.0463 14.4399 15.1488C14.4133 15.2512 14.3614 15.3454 14.2892 15.4226C14.1673 15.5633 14.0182 15.6779 13.851 15.7594C13.6836 15.8409 13.5016 15.8875 13.3157 15.8966C13.1286 15.9207 12.5348 15.8163 12.3717 15.6529C12.3008 15.5875 12.2217 15.5317 12.1364 15.4869C11.9559 15.513 11.7768 15.7093 11.6332 15.8669C11.5853 15.9194 11.5413 15.9676 11.5026 16.0037C10.346 17.1133 9.46953 18.479 8.94172 19.9877Z" fill="currentColor"/>
</svg>
