<svg width="24" height="24" viewBox="0 0 24 24" fill="none" xmlns="http://www.w3.org/2000/svg">
<path fill-rule="evenodd" clip-rule="evenodd" d="M10.9562 2H11H13H13.0438C14.4068 1.99999 15.4908 1.99999 16.3654 2.07144C17.261 2.14462 18.0247 2.29768 18.7239 2.65396C19.8529 3.2292 20.7708 4.14708 21.346 5.27606C21.7023 5.9753 21.8554 6.73898 21.9286 7.63458C22 8.50914 22 9.59313 22 10.9561V10.9562V11V13.0001V13.0439V13.044C22 14.407 22 15.491 21.9286 16.3655C21.8554 17.2611 21.7023 18.0248 21.346 18.7241C20.7708 19.853 19.8529 20.7709 18.7239 21.3462C18.0247 21.7024 17.261 21.8555 16.3654 21.9287C15.4909 22.0001 14.4069 22.0001 13.0439 22.0001H13.0438H13H11H10.9562H10.9561C10.035 22.0001 9.24122 22.0001 8.55345 21.9781C8.59179 21.4744 8.6708 20.9567 8.83358 20.3601C9.36962 18.3955 10.2563 17.1218 11.532 15.898C11.5703 15.8623 11.6138 15.8146 11.6611 15.7627C11.803 15.6071 11.98 15.413 12.1584 15.3873C12.2427 15.4315 12.3209 15.4867 12.3909 15.5513C12.5521 15.7128 13.1389 15.8159 13.3239 15.7921C13.5076 15.7832 13.6874 15.7371 13.8528 15.6565C14.0181 15.576 14.1655 15.4628 14.2859 15.3237C14.3573 15.2473 14.4085 15.1543 14.4348 15.0531C14.4611 14.9518 14.4618 14.8456 14.4366 14.7441C14.3429 14.368 14.3108 13.9792 14.3414 13.5929C14.4988 12.9617 14.4777 12.2992 14.2806 11.6794C14.5872 11.592 15.0154 11.4915 15.6021 11.3856C17.0927 11.1209 17.8169 10.9436 18.3376 9.89559C18.3376 9.89559 18.6996 9.16778 18.3376 9.01957L18.3296 9.01163C18.2988 8.99592 18.2651 8.98682 18.2306 8.98491C18.1961 8.983 18.1615 8.98832 18.1292 9.00052C18.0969 9.01272 18.0675 9.03155 18.0428 9.05579C18.0181 9.08003 17.9988 9.10916 17.986 9.14131C17.986 9.14131 17.2407 10.0438 16.6513 9.93528C16.062 9.82677 14.2014 9.90882 13.5354 10.02C12.8693 10.1311 12.0949 9.72092 12.4174 9.39538C12.4174 9.39538 12.4174 9.27894 13.0147 9.05133C13.3764 8.91855 13.7166 8.73306 14.0243 8.50084C14.5264 8.25542 14.9945 7.94584 15.4171 7.57983C15.8875 7.10874 15.5545 7.00023 15.5545 7.00023C15.5545 7.00023 15.3193 6.97112 12.4676 7.56131C11.8355 7.66869 11.2656 8.00727 10.8687 8.51143C10.7365 8.67287 10.6228 8.80255 10.5224 8.90841C10.4201 9.02475 10.3088 9.13272 10.1894 9.23129C9.8132 9.3609 9.4242 9.44963 9.02917 9.49595C7.42099 9.60328 3.89959 10.1403 3.29356 10.2338C3.23271 10.2431 3.17344 10.2522 3.11254 10.2612L2.00017 10.4258C2.00126 9.30787 2.00951 8.39257 2.07144 7.63458C2.14462 6.73898 2.29768 5.9753 2.65396 5.27606C3.2292 4.14708 4.14708 3.2292 5.27606 2.65396C5.9753 2.29768 6.73898 2.14462 7.63458 2.07144C8.50917 1.99999 9.5932 1.99999 10.9562 2ZM2 12.016V13.0001V13.0439C1.99999 14.4069 1.99999 15.491 2.07144 16.3655C2.14462 17.2611 2.29768 18.0248 2.65396 18.7241C3.2292 19.853 4.14708 20.7709 5.27606 21.3462C5.84192 21.6345 6.44997 21.7897 7.13598 21.8772L7.27761 20.8153C7.76909 18.1585 8.84931 15.507 10.9426 13.5082C11.3417 13.1297 11.4078 12.8994 10.9822 12.5263C10.7727 12.3259 10.6094 12.082 10.5039 11.8117C10.1762 11.1051 9.6952 10.8219 8.91811 11.0336C8.72085 11.0873 8.15837 11.1369 7.76913 11.1711L7.76909 11.1712C7.62133 11.1842 7.49851 11.195 7.43013 11.203C7.36056 11.2103 7.28264 11.2183 7.19722 11.2271C6.09702 11.3403 3.75368 11.5815 2 12.016Z" fill="currentColor"/>
</svg>
