<svg width="24" height="24" viewBox="0 0 24 24" fill="none" xmlns="http://www.w3.org/2000/svg">
<path fill-rule="evenodd" clip-rule="evenodd" d="M18.4472 1.98192C17.8323 1.7773 17.1677 1.77731 16.5528 1.98193C16.156 2.11396 15.833 2.33909 15.5355 2.59231C15.2535 2.83228 14.9368 3.14899 14.5697 3.51611L14.5429 3.54294L14.5161 3.56977C14.149 3.93686 13.8323 4.25354 13.5923 4.53552C13.3391 4.83307 13.1139 5.15605 12.9819 5.55281C12.7773 6.16772 12.7773 6.83235 12.9819 7.44726C13.1139 7.84403 13.3391 8.167 13.5923 8.46455C13.8323 8.74653 14.149 9.06322 14.5161 9.4303L14.5429 9.45714L14.5697 9.48396L14.5698 9.48402L14.5698 9.48403L14.5698 9.48404C14.9369 9.85112 15.2535 10.1678 15.5355 10.4078C15.8331 10.661 16.156 10.8861 16.5528 11.0181C17.1677 11.2228 17.8323 11.2228 18.4472 11.0181C18.844 10.8861 19.167 10.661 19.4645 10.4078C19.7465 10.1678 20.0631 9.85115 20.4302 9.48409L20.4303 9.48401L20.4571 9.45715L20.484 9.43028C20.8511 9.06321 21.1678 8.74653 21.4077 8.46456C21.661 8.16701 21.8861 7.84403 22.0181 7.44726C22.2227 6.83235 22.2227 6.16772 22.0181 5.55281C21.8861 5.15604 21.661 4.83306 21.4077 4.53551C21.1678 4.25353 20.8511 3.93684 20.4839 3.56975L20.4571 3.54292L20.4303 3.51609C20.0632 3.14898 19.7465 2.83227 19.4645 2.5923C19.167 2.33908 18.844 2.11395 18.4472 1.98192ZM6.2 3L6.16146 3H6.16145H6.16145H6.16145C5.6343 2.99998 5.17954 2.99997 4.80497 3.03057C4.40963 3.06287 4.01641 3.13419 3.63803 3.32698C3.07354 3.6146 2.6146 4.07355 2.32698 4.63803C2.13419 5.01641 2.06287 5.40963 2.03057 5.80498C1.99997 6.17954 1.99998 6.63429 2 7.16142V7.16146V7.2V7.8V7.83855V7.83859C1.99998 8.36572 1.99997 8.82047 2.03057 9.19503C2.06287 9.59038 2.13419 9.98359 2.32698 10.362C2.6146 10.9265 3.07354 11.3854 3.63803 11.673C4.01641 11.8658 4.40963 11.9371 4.80497 11.9694C5.17954 12 5.63431 12 6.16145 12H6.16148H6.2H6.8H6.83852H6.83855C7.3657 12 7.82046 12 8.19503 11.9694C8.59038 11.9371 8.98359 11.8658 9.36197 11.673C9.92646 11.3854 10.3854 10.9265 10.673 10.362C10.8658 9.98359 10.9371 9.59038 10.9694 9.19503C11 8.82046 11 8.3657 11 7.83856V7.83853V7.8V7.2V7.16148V7.16145C11 6.63431 11 6.17955 10.9694 5.80498C10.9371 5.40963 10.8658 5.01641 10.673 4.63803C10.3854 4.07355 9.92646 3.6146 9.36197 3.32698C8.98359 3.13419 8.59038 3.06287 8.19503 3.03057C7.82046 2.99997 7.3657 2.99998 6.83856 3H6.83856H6.83855H6.83855L6.8 3H6.2ZM6.2 13H6.16148H6.16145C5.6343 13 5.17954 13 4.80497 13.0306C4.40963 13.0629 4.01641 13.1342 3.63803 13.327C3.07354 13.6146 2.6146 14.0735 2.32698 14.638C2.13419 15.0164 2.06287 15.4096 2.03057 15.805C1.99997 16.1795 1.99998 16.6343 2 17.1614V17.1614V17.2V17.8V17.8385V17.8386C1.99998 18.3657 1.99997 18.8205 2.03057 19.195C2.06287 19.5904 2.13419 19.9836 2.32698 20.362C2.6146 20.9264 3.07354 21.3854 3.63803 21.673C4.01641 21.8658 4.40963 21.9371 4.80497 21.9694C5.17954 22 5.6343 22 6.16144 22H6.2H6.8H6.83857C7.36571 22 7.82046 22 8.19503 21.9694C8.59038 21.9371 8.98359 21.8658 9.36197 21.673C9.92646 21.3854 10.3854 20.9264 10.673 20.362C10.8658 19.9836 10.9371 19.5904 10.9694 19.195C11 18.8204 11 18.3657 11 17.8385V17.8385V17.8V17.2V17.1615V17.1614C11 16.6343 11 16.1795 10.9694 15.805C10.9371 15.4096 10.8658 15.0164 10.673 14.638C10.3854 14.0735 9.92646 13.6146 9.36197 13.327C8.98359 13.1342 8.59038 13.0629 8.19503 13.0306C7.82046 13 7.3657 13 6.83856 13H6.83853H6.8H6.2ZM16.2 13H16.1615H16.1615C15.6343 13 15.1795 13 14.805 13.0306C14.4096 13.0629 14.0164 13.1342 13.638 13.327C13.0735 13.6146 12.6146 14.0735 12.327 14.638C12.1342 15.0164 12.0629 15.4096 12.0306 15.805C12 16.1795 12 16.6343 12 17.1614V17.1615V17.2V17.8V17.8385V17.8385C12 18.3657 12 18.8204 12.0306 19.195C12.0629 19.5904 12.1342 19.9836 12.327 20.362C12.6146 20.9264 13.0735 21.3854 13.638 21.673C14.0164 21.8658 14.4096 21.9371 14.805 21.9694C15.1795 22 15.6343 22 16.1614 22H16.2H16.8H16.8386C17.3657 22 17.8205 22 18.195 21.9694C18.5904 21.9371 18.9836 21.8658 19.362 21.673C19.9265 21.3854 20.3854 20.9264 20.673 20.362C20.8658 19.9836 20.9371 19.5904 20.9694 19.195C21 18.8204 21 18.3657 21 17.8386V17.8V17.2V17.1614C21 16.6343 21 16.1795 20.9694 15.805C20.9371 15.4096 20.8658 15.0164 20.673 14.638C20.3854 14.0735 19.9265 13.6146 19.362 13.327C18.9836 13.1342 18.5904 13.0629 18.195 13.0306C17.8205 13 17.3657 13 16.8386 13H16.8385H16.8H16.2Z" fill="currentColor"/>
</svg>
