<svg width="24" height="24" viewBox="0 0 24 24" fill="none" xmlns="http://www.w3.org/2000/svg">
<path fill-rule="evenodd" clip-rule="evenodd" d="M17.691 2.87737C17.8918 2.81212 18.1082 2.81212 18.309 2.87737C18.3618 2.89452 18.4597 2.9391 18.6674 3.1155C18.8842 3.29948 19.148 3.56216 19.5556 3.96985L20.0302 4.44437C20.4379 4.85205 20.7005 5.11584 20.8845 5.33256C21.0609 5.54035 21.1055 5.63821 21.1227 5.69099C21.1879 5.89183 21.1879 6.10818 21.1227 6.30902C21.1055 6.3618 21.0609 6.45966 20.8845 6.66745C20.7005 6.88417 20.4379 7.14796 20.0302 7.55565L19.5557 8.03015C19.148 8.43784 18.8842 8.70052 18.6675 8.8845C18.4597 9.0609 18.3618 9.10548 18.309 9.12262C18.1082 9.18788 17.8919 9.18788 17.691 9.12262C17.6382 9.10548 17.5404 9.0609 17.3326 8.8845C17.1159 8.70052 16.8521 8.43783 16.4444 8.03015L15.9699 7.55563C15.5622 7.14795 15.2995 6.88416 15.1155 6.66745C14.9391 6.45966 14.8945 6.3618 14.8774 6.30902C14.8121 6.10818 14.8121 5.89183 14.8774 5.69099C14.8945 5.63821 14.9391 5.54035 15.1155 5.33256C15.2995 5.11584 15.5622 4.85205 15.9699 4.44437L16.4444 3.96986C16.8521 3.56217 17.1158 3.29948 17.3326 3.1155C17.5404 2.9391 17.6382 2.89452 17.691 2.87737ZM18.9271 0.975258C18.3245 0.779486 17.6755 0.779488 17.0729 0.975264C16.6691 1.10649 16.3406 1.33412 16.0382 1.59083C15.7517 1.83405 15.4301 2.15563 15.0574 2.5284L15.0302 2.55565L14.5556 3.03016L14.5284 3.05742C14.1556 3.43015 13.8341 3.75171 13.5908 4.03821C13.3341 4.3406 13.1065 4.66908 12.9753 5.07296C12.7795 5.67549 12.7795 6.32453 12.9753 6.92706C13.1065 7.33094 13.3341 7.65941 13.5908 7.9618C13.8341 8.2483 14.1556 8.56985 14.5284 8.94259L14.5284 8.94259L14.5557 8.96985L15.0302 9.44436L15.0574 9.47163C15.4302 9.84439 15.7517 10.166 16.0382 10.4092C16.3406 10.6659 16.6691 10.8935 17.073 11.0247C17.6755 11.2205 18.3245 11.2205 18.9271 11.0247C19.3309 10.8935 19.6594 10.6659 19.9618 10.4092C20.2483 10.166 20.5698 9.84443 20.9425 9.4717L20.9426 9.47162L20.9699 9.44437L21.4444 8.96986L21.4716 8.94262C21.8444 8.56988 22.166 8.24832 22.4092 7.96181C22.6659 7.65942 22.8935 7.33094 23.0248 6.92706C23.2205 6.32453 23.2205 5.67549 23.0248 5.07295C22.8935 4.66907 22.6659 4.34059 22.4092 4.0382C22.166 3.75173 21.8445 3.43022 21.4718 3.05754L21.4717 3.05743L21.4444 3.03015L20.9699 2.55563L20.9426 2.52837L20.9426 2.52833C20.5698 2.15559 20.2483 1.83403 19.9618 1.59081C19.6594 1.3341 19.3309 1.10649 18.9271 0.975258ZM6.2 3.99994L6.16146 3.99994H6.16145C5.63431 3.99992 5.17955 3.99991 4.80497 4.03051C4.40963 4.06281 4.01641 4.13413 3.63803 4.32692C3.07354 4.61454 2.6146 5.07348 2.32698 5.63797C2.13419 6.01635 2.06287 6.40957 2.03057 6.80491C1.99997 7.17948 1.99998 7.63422 2 8.16136V8.1614V8.19994V12.9999V17.7999V17.8385V17.8385C1.99998 18.3657 1.99997 18.8204 2.03057 19.195C2.06287 19.5903 2.13419 19.9835 2.32698 20.3619C2.6146 20.9264 3.07354 21.3853 3.63803 21.673C4.01641 21.8658 4.40963 21.9371 4.80497 21.9694C5.17954 22 5.6343 22 6.16144 21.9999H6.2H11H15.8H15.8386C16.3657 22 16.8205 22 17.195 21.9694C17.5904 21.9371 17.9836 21.8658 18.362 21.673C18.9265 21.3853 19.3854 20.9264 19.673 20.3619C19.8658 19.9835 19.9371 19.5903 19.9694 19.195C20 18.8204 20 18.3656 20 17.8385V17.7999V16.1999V16.1614C20 15.6342 20 15.1795 19.9694 14.8049C19.9371 14.4096 19.8658 14.0163 19.673 13.638C19.3854 13.0735 18.9265 12.6145 18.362 12.3269C17.9836 12.1341 17.5904 12.0628 17.195 12.0305C16.8205 11.9999 16.3657 11.9999 15.8385 11.9999L15.8 11.9999H12V8.19994V8.16142V8.16139C12 7.63424 12 7.17948 11.9694 6.80491C11.9371 6.40957 11.8658 6.01635 11.673 5.63797C11.3854 5.07348 10.9265 4.61454 10.362 4.32692C9.98359 4.13413 9.59038 4.06281 9.19503 4.03051C8.82046 3.99991 8.3657 3.99992 7.83855 3.99994H7.83855L7.8 3.99994H6.2ZM10 8.19994V11.9999H4V8.19994C4 7.62339 4.00078 7.25111 4.02393 6.96778C4.04613 6.69611 4.0838 6.59539 4.109 6.54595C4.20487 6.35779 4.35785 6.20481 4.54601 6.10893C4.59546 6.08374 4.69618 6.04606 4.96784 6.02387C5.25118 6.00072 5.62345 5.99994 6.2 5.99994H7.8C8.37656 5.99994 8.74883 6.00072 9.03217 6.02387C9.30383 6.04606 9.40455 6.08374 9.45399 6.10893C9.64216 6.20481 9.79514 6.35779 9.89101 6.54595C9.9162 6.59539 9.95388 6.69611 9.97608 6.96778C9.99923 7.25111 10 7.62339 10 8.19994ZM10 13.9999H4V17.7999C4 18.3765 4.00078 18.7488 4.02393 19.0321C4.04613 19.3038 4.0838 19.4045 4.109 19.4539C4.20487 19.6421 4.35785 19.7951 4.54601 19.8909C4.59546 19.9161 4.69618 19.9538 4.96784 19.976C5.25118 19.9992 5.62345 19.9999 6.2 19.9999H10V13.9999ZM12 13.9999V19.9999H15.8C16.3766 19.9999 16.7488 19.9992 17.0322 19.976C17.3038 19.9538 17.4045 19.9161 17.454 19.8909C17.6422 19.7951 17.7951 19.6421 17.891 19.4539C17.9162 19.4045 17.9539 19.3038 17.9761 19.0321C17.9992 18.7488 18 18.3765 18 17.7999V16.1999C18 15.6234 17.9992 15.2511 17.9761 14.9678C17.9539 14.6961 17.9162 14.5954 17.891 14.5459C17.7951 14.3578 17.6422 14.2048 17.454 14.1089C17.4045 14.0837 17.3038 14.0461 17.0322 14.0239C16.7488 14.0007 16.3766 13.9999 15.8 13.9999H12Z" fill="currentColor"/>
</svg>
