<svg width="24" height="24" viewBox="0 0 24 24" fill="none" xmlns="http://www.w3.org/2000/svg">
<path fill-rule="evenodd" clip-rule="evenodd" d="M11.9299 2L12 2.00001L12.0701 2H12.0702H12.0702C12.9323 1.99997 13.4417 1.99996 13.8822 2.04334C18.1552 2.4642 21.5358 5.84486 21.9567 10.1179C22.0001 10.5584 22 11.0678 22 11.93V12.0001V12.0702C22 12.9323 22.0001 13.4418 21.9567 13.8823C21.5358 18.1553 18.1552 21.5359 13.8822 21.9568C13.4416 22.0002 12.9322 22.0002 12.0701 22.0001H12H11.9299C11.0678 22.0002 10.5584 22.0002 10.1179 21.9568C5.84486 21.5359 2.4642 18.1553 2.04334 13.8823C1.99996 13.4418 1.99997 12.9324 2 12.0703V12.0702V12.0702L2.00001 12.0001L2 11.9299V11.9299V11.9298C1.99997 11.0677 1.99996 10.5584 2.04334 10.1179C2.4642 5.84486 5.84486 2.4642 10.1179 2.04334C10.5584 1.99996 11.0677 1.99997 11.9298 2H11.9298H11.9299ZM8 9C7.44772 9 7 9.44772 7 10V11C7 11.5523 7.44772 12 8 12H9C9.55229 12 10 11.5523 10 11V10C10 9.44772 9.55229 9 9 9H8ZM15 9C14.4477 9 14 9.44772 14 10V11C14 11.5523 14.4477 12 15 12H16C16.5523 12 17 11.5523 17 11V10C17 9.44772 16.5523 9 16 9H15ZM10 14C9.44772 14 9 14.4477 9 15C9 15.5523 9.44772 16 10 16H14C14.5523 16 15 15.5523 15 15C15 14.4477 14.5523 14 14 14H10Z" fill="currentColor"/>
</svg>
