<svg width="24" height="24" viewBox="0 0 24 24" fill="none" xmlns="http://www.w3.org/2000/svg">
<path fill-rule="evenodd" clip-rule="evenodd" d="M15.3416 7.31671C15.3897 7.22057 15.453 7.13282 15.529 7.05682L20.5449 2.04086C21.0735 1.51226 21.9305 1.51226 22.4591 2.04086C22.9877 2.56945 22.9877 3.42647 22.4591 3.95507L17.4432 8.97103C17.3672 9.04703 17.2794 9.11028 17.1833 9.15835L14.3587 10.5707C14.0971 10.7015 13.9663 10.7668 13.8908 10.7447C13.8256 10.7255 13.7745 10.6744 13.7553 10.6092C13.7332 10.5337 13.7985 10.4029 13.9293 10.1413L15.3416 7.31671ZM8 14.0001C7.44772 14.0001 7 13.5523 7 13.0001C7 12.4478 7.44772 12.0001 8 12.0001H11C11.5523 12.0001 12 12.4478 12 13.0001C12 13.5523 11.5523 14.0001 11 14.0001H8ZM8 18C7.44772 18 7 17.5523 7 17C7 16.4477 7.44772 16 8 16H16C16.5523 16 17 16.4477 17 17C17 17.5523 16.5523 18 16 18H8ZM8.8 3.00011L8.7587 3.00011H8.7587C7.95373 3.0001 7.28937 3.00009 6.74818 3.04431C6.18608 3.09023 5.66937 3.1888 5.18404 3.43609C4.43139 3.81958 3.81947 4.4315 3.43598 5.18415C3.18868 5.66949 3.09012 6.18619 3.04419 6.74829C2.99998 7.28948 2.99999 7.95383 3 8.7588V8.75882V8.80011V16.2002V16.2415V16.2416C2.99999 17.0465 2.99998 17.7109 3.04419 18.2521C3.09012 18.8142 3.18868 19.3309 3.43598 19.8162C3.81947 20.5688 4.43139 21.1808 5.18404 21.5643C5.66937 21.8116 6.18608 21.9101 6.74818 21.956C7.28937 22.0003 7.95372 22.0003 8.75868 22.0002H8.8H15.2H15.2413C16.0463 22.0003 16.7106 22.0003 17.2518 21.956C17.8139 21.9101 18.3306 21.8116 18.816 21.5643C19.5686 21.1808 20.1805 20.5688 20.564 19.8162C20.8113 19.3309 20.9099 18.8142 20.9558 18.2521C21 17.7109 21 17.0465 21 16.2416V16.2002V11C21 10.4477 20.5523 9.99999 20 9.99999C19.4477 9.99999 19 10.4477 19 11V16.2002C19 17.0568 18.9992 17.6391 18.9624 18.0892C18.9266 18.5276 18.8617 18.7518 18.782 18.9082C18.5903 19.2845 18.2843 19.5905 17.908 19.7823C17.7516 19.8619 17.5274 19.9269 17.089 19.9627C16.6389 19.9995 16.0566 20.0002 15.2 20.0002H8.8C7.94342 20.0002 7.36113 19.9995 6.91104 19.9627C6.47262 19.9269 6.24842 19.8619 6.09202 19.7823C5.7157 19.5905 5.40974 19.2845 5.21799 18.9082C5.1383 18.7518 5.07337 18.5276 5.03755 18.0892C5.00078 17.6391 5 17.0568 5 16.2002V8.80011C5 7.94353 5.00078 7.36124 5.03755 6.91115C5.07337 6.47274 5.1383 6.24853 5.21799 6.09213C5.40974 5.71581 5.7157 5.40985 6.09202 5.2181C6.24842 5.13841 6.47262 5.07349 6.91104 5.03767C7.36113 5.00089 7.94342 5.00011 8.8 5.00011H14C14.5523 5.00011 15 4.5524 15 4.00011C15 3.44783 14.5523 3.00011 14 3.00011H8.8Z" fill="currentColor"/>
</svg>
