<svg width="24" height="24" viewBox="0 0 24 24" fill="none" xmlns="http://www.w3.org/2000/svg">
<path fill-rule="evenodd" clip-rule="evenodd" d="M15.3418 7.31674C15.3899 7.2206 15.4531 7.13284 15.5291 7.05684L20.5428 2.04296C21.0714 1.51437 21.9284 1.51441 22.4571 2.04305C22.9857 2.57168 22.9858 3.42874 22.4572 3.95732L17.4434 8.97106C17.3674 9.04706 17.2796 9.11031 17.1835 9.15838L14.3588 10.5707C14.0973 10.7015 13.9665 10.7669 13.891 10.7447C13.8257 10.7255 13.7747 10.6745 13.7555 10.6092C13.7333 10.5337 13.7987 10.4029 13.9295 10.1414L15.3418 7.31674ZM16.7552 3.00207L14.1147 5.64265L14.1147 5.64268C13.8868 5.87064 13.697 6.13389 13.5528 6.42233L13.5528 6.42238L12.1405 9.24696L12.1272 9.2735C12.0761 9.37541 11.9906 9.54579 11.928 9.70243L11.9237 9.7127C11.8812 9.8147 11.6207 10.4388 11.8364 11.173C12.0474 11.8911 12.609 12.4526 13.327 12.6636C14.0612 12.8793 14.6853 12.6189 14.7873 12.5763L14.7976 12.5721C14.9542 12.5094 15.1246 12.424 15.2265 12.3729L15.2265 12.3729L15.2265 12.3729L15.2265 12.3729L15.2531 12.3596L18.0777 10.9473L18.0777 10.9472C18.3662 10.803 18.6294 10.6133 18.8574 10.3853L18.8574 10.3853L21 8.24271V17.0002V17.0404V17.0404V17.0405V17.0405V17.0405C21 17.7063 21 18.2658 20.9626 18.7237C20.9235 19.2024 20.8386 19.6573 20.6185 20.0892C20.283 20.7478 19.7475 21.2832 19.089 21.6188C18.6571 21.8388 18.2022 21.9237 17.7234 21.9629C17.2656 22.0003 16.7061 22.0003 16.0403 22.0002H16.0403H16.0402H16.0402H16.0402H16H8H7.95982H7.95979H7.95977H7.95974H7.95971C7.2939 22.0003 6.73442 22.0003 6.27658 21.9629C5.79786 21.9237 5.34289 21.8388 4.91104 21.6188C4.25247 21.2832 3.71704 20.7478 3.38148 20.0892C3.16144 19.6573 3.0765 19.2024 3.03739 18.7237C2.99998 18.2658 2.99999 17.7063 3 17.0405V17.0405V17.0405V17.0405V17.0404V17.0002V8.00008V7.95992V7.95986V7.95984V7.95981V7.95979C2.99999 7.29398 2.99998 6.73451 3.03739 6.27667C3.0765 5.79795 3.16144 5.34299 3.38148 4.91113C3.71703 4.25257 4.25246 3.71714 4.91102 3.38158C5.34287 3.16153 5.79783 3.07659 6.27655 3.03748C6.73442 3.00006 7.29394 3.00007 7.95981 3.00008L7.99997 3.00008L16 3.00002L16.0401 3.00002C16.2938 3.00001 16.5321 3 16.7552 3.00207ZM7 13.0001C6.44772 13.0001 6 13.4478 6 14.0001C6 14.5523 6.44772 15.0001 7 15.0001H11C11.5523 15.0001 12 14.5523 12 14.0001C12 13.4478 11.5523 13.0001 11 13.0001H7ZM7 17.0001C6.44772 17.0001 6 17.4478 6 18.0001C6 18.5523 6.44772 19.0001 7 19.0001H16C16.5523 19.0001 17 18.5523 17 18.0001C17 17.4478 16.5523 17.0001 16 17.0001H7Z" fill="currentColor"/>
</svg>
