<svg width="24" height="24" viewBox="0 0 24 24" fill="none" xmlns="http://www.w3.org/2000/svg">
<path fill-rule="evenodd" clip-rule="evenodd" d="M3.5 2C2.94772 2 2.5 2.44772 2.5 3C2.5 3.55228 2.94772 4 3.5 4H4V11.0001H3.5C2.94772 11.0001 2.5 11.4478 2.5 12.0001C2.5 12.5523 2.94772 13.0001 3.5 13.0001H4V20.0001H3.5C2.94772 20.0001 2.5 20.4478 2.5 21.0001C2.5 21.5524 2.94772 22.0001 3.5 22.0001H5H19H20.5C21.0523 22.0001 21.5 21.5524 21.5 21.0001C21.5 20.4478 21.0523 20.0001 20.5 20.0001H20V13.0001H20.5C21.0523 13.0001 21.5 12.5523 21.5 12.0001C21.5 11.4478 21.0523 11.0001 20.5 11.0001H20V4H20.5C21.0523 4 21.5 3.55228 21.5 3C21.5 2.44772 21.0523 2 20.5 2H19H5H3.5ZM6 12.0001V4H18V12.0001V20.0001H6V12.0001ZM10.3347 11.7823C10.6159 11.2652 11.1114 10.5932 11.9984 9.53926C13.8179 11.7097 14 12.2812 14 13.05C14 14.1124 13.1231 15 12 15C10.8769 15 10 14.1124 10 13.05C10 12.6163 10.0657 12.2772 10.3347 11.7823ZM12.5107 7.35499C12.1824 7.2359 11.8186 7.23556 11.4901 7.35405C11.2331 7.44676 11.0548 7.60028 10.9407 7.71283C10.8414 7.81078 10.7386 7.93197 10.6513 8.03488L10.6513 8.03489L10.6346 8.05459C9.64382 9.22155 8.98351 10.0804 8.5776 10.8271C8.14302 11.6265 8 12.2958 8 13.05C8 15.2476 9.80311 17 12 17C14.1969 17 16 15.2476 16 13.05C16 11.4487 15.3091 10.3556 13.365 8.05721L13.3483 8.03748L13.3483 8.03746C13.2612 7.93437 13.1586 7.81297 13.0594 7.71482C12.9456 7.60207 12.7676 7.44819 12.5107 7.35499Z" fill="currentColor"/>
</svg>
