<svg width="24" height="24" viewBox="0 0 24 24" fill="none" xmlns="http://www.w3.org/2000/svg">
<path fill-rule="evenodd" clip-rule="evenodd" d="M10.9562 2H11H13H13.0438H13.0438C14.4068 1.99999 15.4908 1.99999 16.3654 2.07144C17.261 2.14462 18.0247 2.29768 18.7239 2.65396C19.8529 3.2292 20.7708 4.14709 21.346 5.27606C21.6843 5.94002 21.8394 6.66207 21.9169 7.5H20.0001H18.0001C17.4478 7.5 17.0001 7.94772 17.0001 8.5C17.0001 9.05228 17.4478 9.5 18.0001 9.5H18.7631L17.5223 15.2905C17.4066 15.8305 17.7505 16.3621 18.2905 16.4778C18.8306 16.5935 19.3622 16.2496 19.4779 15.7095L20.8085 9.5H21.9959C22 9.94656 22 10.4306 22 10.9561V10.9562V11V13.0001V13.0439V13.044C22 14.407 22 15.491 21.9286 16.3655C21.8554 17.2611 21.7023 18.0248 21.346 18.7241C20.7708 19.853 19.8529 20.7709 18.7239 21.3462C18.0247 21.7024 17.261 21.8555 16.3654 21.9287C15.4909 22.0001 14.4069 22.0001 13.0439 22.0001H13.0438H13H11H10.9562H10.9561C9.59313 22.0001 8.50914 22.0001 7.63458 21.9287C6.73898 21.8555 5.97531 21.7024 5.27606 21.3462C4.14709 20.7709 3.2292 19.853 2.65396 18.7241C2.29768 18.0248 2.14462 17.2611 2.07144 16.3655C1.99999 15.491 1.99999 14.4069 2 13.0439V13.0439V13.0001V11V10.9562V10.9562C1.99999 9.59319 1.99999 8.50917 2.07144 7.63458C2.14462 6.73898 2.29768 5.97531 2.65396 5.27606C3.2292 4.14709 4.14709 3.2292 5.27606 2.65396C5.97531 2.29768 6.73898 2.14462 7.63458 2.07144C8.50917 1.99999 9.59319 1.99999 10.9562 2H10.9562ZM6.58102 7.5C5.18734 7.5 3.98304 8.47358 3.69102 9.83632L3.02914 12.9251C2.63487 14.765 4.03747 16.5 5.91914 16.5C7.31282 16.5 8.51712 15.5264 8.80913 14.1637L9.47102 11.0749C9.86528 9.23499 8.46269 7.5 6.58102 7.5ZM5.64663 10.2554C5.74104 9.81478 6.13042 9.5 6.58102 9.5C7.1894 9.5 7.64289 10.061 7.51541 10.6558L6.85353 13.7446C6.75911 14.1852 6.36974 14.5 5.91914 14.5C5.31076 14.5 4.85727 13.939 4.98474 13.3442L5.64663 10.2554ZM12.1251 7.5C11.6544 7.5 11.2475 7.82824 11.1478 8.28825L9.63115 15.2881C9.51421 15.8279 9.85696 16.3603 10.3967 16.4772C10.9365 16.5942 11.4689 16.2514 11.5858 15.7116L11.9569 13.9991C11.9712 13.9997 11.9856 14 12.0001 14H13.2275C14.9673 14 16.4406 12.7171 16.68 10.9939C16.9364 9.14734 15.5021 7.5 13.6378 7.5H12.1251ZM13.2275 12H12.39L12.9317 9.5H13.6378C14.2881 9.5 14.7885 10.0746 14.699 10.7187C14.597 11.4532 13.969 12 13.2275 12Z" fill="currentColor"/>
</svg>
