<svg width="24" height="24" viewBox="0 0 24 24" fill="none" xmlns="http://www.w3.org/2000/svg">
<path fill-rule="evenodd" clip-rule="evenodd" d="M9.35733 2H9.40014H14.6001H14.6429C15.7267 1.99999 16.6009 1.99998 17.3088 2.05782C18.0376 2.11737 18.6778 2.24318 19.2701 2.54497C20.2109 3.02434 20.9758 3.78924 21.4552 4.73005C21.7743 5.35637 21.8977 6.03773 21.9532 6.82271L21.9555 6.85583C21.972 7.08938 21.9889 7.32729 21.9842 7.53461C21.9789 7.77236 21.9457 8.0403 21.8207 8.31894C21.6435 8.71366 21.3227 9.05788 20.9415 9.26241C20.6637 9.41142 20.3866 9.46056 20.1483 9.48136C19.9339 9.50007 19.6819 9.50004 19.426 9.5L19.3927 9.5H18.8086L17.4779 15.7095C17.3622 16.2496 16.8306 16.5935 16.2906 16.4778C15.7506 16.3621 15.4066 15.8305 15.5223 15.2905L16.7632 9.5H16.0001C15.4479 9.5 15.0001 9.05229 15.0001 8.5C15.0001 7.94772 15.4479 7.5 16.0001 7.5H18.0001H19.3927C19.6951 7.5 19.8578 7.49912 19.9744 7.48894L19.9848 7.48798C19.9869 7.38557 19.9778 7.24275 19.9581 6.96363C19.9106 6.29136 19.8158 5.91803 19.6732 5.63803C19.3855 5.07354 18.9266 4.6146 18.3621 4.32698C18.0988 4.19279 17.7511 4.10062 17.1459 4.05118C16.5291 4.00078 15.7367 4 14.6001 4H9.40014C8.26353 4 7.47122 4.00078 6.85438 4.05118C6.24921 4.10062 5.90152 4.19279 5.63817 4.32698C5.07368 4.6146 4.61474 5.07354 4.32712 5.63803C4.07639 6.13012 3.47421 6.32578 2.98212 6.07505C2.49003 5.82431 2.29437 5.22214 2.54511 4.73005C3.02447 3.78924 3.78938 3.02434 4.73019 2.54497C5.32248 2.24318 5.96267 2.11737 6.69151 2.05782C7.39939 1.99998 8.27355 1.99999 9.35733 2ZM21.0001 11.0001C21.5524 11.0001 22.0001 11.4478 22.0001 12.0001V14.6001V14.643V14.6431C22.0001 15.7268 22.0002 16.6009 21.9423 17.3087C21.8828 18.0376 21.757 18.6778 21.4552 19.2701C20.9758 20.2109 20.2109 20.9758 19.2701 21.4552C18.6778 21.7569 18.0376 21.8828 17.3088 21.9423C16.6009 22.0001 15.7268 22.0001 14.6431 22.0001H14.643H14.6001H9.40014H9.35731H9.3572C8.27348 22.0001 7.39937 22.0001 6.69151 21.9423C5.96267 21.8828 5.32248 21.7569 4.73019 21.4552C3.78938 20.9758 3.02447 20.2109 2.54511 19.2701C2.29437 18.778 2.49003 18.1758 2.98212 17.9251C3.47421 17.6743 4.07639 17.87 4.32712 18.3621C4.61474 18.9266 5.07368 19.3855 5.63817 19.6731C5.90152 19.8073 6.24921 19.8995 6.85438 19.9489C7.47122 19.9993 8.26353 20.0001 9.40014 20.0001H14.6001C15.7367 20.0001 16.5291 19.9993 17.1459 19.9489C17.7511 19.8995 18.0988 19.8073 18.3621 19.6731C18.9266 19.3855 19.3855 18.9266 19.6732 18.3621C19.8073 18.0987 19.8995 17.7511 19.949 17.1459C19.9994 16.529 20.0001 15.7367 20.0001 14.6001V12.0001C20.0001 11.4478 20.4479 11.0001 21.0001 11.0001ZM1.69102 9.83632C1.98304 8.47358 3.18734 7.5 4.58102 7.5C6.46269 7.5 7.86528 9.23499 7.47102 11.0749L6.80913 14.1637C6.51712 15.5264 5.31282 16.5 3.91914 16.5C2.03747 16.5 0.634874 14.765 1.02914 12.9251L1.69102 9.83632ZM4.58102 9.5C4.13042 9.5 3.74104 9.81478 3.64663 10.2554L2.98474 13.3442C2.85727 13.939 3.31076 14.5 3.91914 14.5C4.36974 14.5 4.75911 14.1852 4.85353 13.7446L5.51541 10.6558C5.64289 10.061 5.1894 9.5 4.58102 9.5ZM10.1251 7.5C9.65443 7.5 9.24746 7.82824 9.14779 8.28825L7.63115 15.2881C7.5142 15.8279 7.85696 16.3603 8.39672 16.4772C8.93648 16.5942 9.46885 16.2514 9.5858 15.7116L9.95685 13.9991C9.9712 13.9997 9.98562 14 10.0001 14H11.2275C12.9673 14 14.4406 12.7171 14.68 10.9939C14.9364 9.14734 13.5021 7.5 11.6378 7.5H10.1251ZM11.2275 12H10.39L10.9317 9.5H11.6378C12.2881 9.5 12.7885 10.0746 12.699 10.7187C12.597 11.4532 11.969 12 11.2275 12Z" fill="currentColor"/>
</svg>
