<svg width="24" height="24" viewBox="0 0 24 24" fill="none" xmlns="http://www.w3.org/2000/svg">
<path fill-rule="evenodd" clip-rule="evenodd" d="M6.00011 5.99995C6.00011 3.23855 8.23866 1 11.0001 1C13.7615 1 16 3.23855 16 5.99995V9L16 9.00293C16.2112 9.00808 16.4049 9.02176 16.5853 9.05764C17.4481 9.22926 18.1739 9.76538 18.5981 10.4999C18.8743 10.9781 18.7105 11.5898 18.2323 11.866C17.754 12.1422 17.1424 11.9784 16.8662 11.5001C16.7244 11.2546 16.4823 11.0763 16.1951 11.0192C16.1228 11.0048 16.0126 11 15.5 11H7.2C6.62345 11 6.25117 11.0008 5.96784 11.0239C5.69617 11.0461 5.59546 11.0838 5.54601 11.109C5.35785 11.2049 5.20487 11.3578 5.109 11.546C5.0838 11.5955 5.04612 11.6962 5.02393 11.9678C5.00078 12.2512 5 12.6234 5 13.2V17.8C5 18.3766 5.00078 18.7488 5.02393 19.0322C5.04612 19.3038 5.0838 19.4045 5.109 19.454C5.20487 19.6422 5.35785 19.7951 5.54601 19.891L5.09202 20.782L5.54601 19.891C5.59546 19.9162 5.69617 19.9539 5.96784 19.9761C6.25118 19.9992 6.62345 20 7.2 20H10C10.5523 20 11 20.4477 11 21C11 21.5523 10.5523 22 10 22H7.2H7.16144C6.6343 22 6.17954 22 5.80497 21.9694C5.40963 21.9371 5.01641 21.8658 4.63803 21.673C4.07354 21.3854 3.6146 20.9265 3.32698 20.362C3.13419 19.9836 3.06287 19.5904 3.03057 19.195C2.99997 18.8205 2.99998 18.3657 3 17.8385L3 17.8V13.2L3 13.1615C2.99998 12.6343 2.99997 12.1795 3.03057 11.805C3.06287 11.4096 3.13419 11.0164 3.32698 10.638C3.6146 10.0735 4.07354 9.6146 4.63803 9.32698C5.01641 9.13419 5.40963 9.06287 5.80497 9.03057C5.86783 9.02543 5.93293 9.02116 6.00026 9.01761L6.00011 9V5.99995ZM14 9V5.99995C14 4.34312 12.6569 3 11.0001 3C9.34323 3 8.00011 4.34312 8.00011 5.99995V9H14ZM12.5 15C12.5 14.4477 12.0523 14 11.5 14H10.5C9.94772 14 9.5 14.4477 9.5 15V16C9.5 16.5523 9.94772 17 10.5 17H11.5C12.0523 17 12.5 16.5523 12.5 16V15ZM17.3544 15.8906C18.3375 15.3886 19.5705 15.5507 20.3913 16.3714C21.4121 17.3922 21.4121 19.0473 20.3913 20.068C19.3705 21.0888 17.7155 21.0888 16.6947 20.068L16.4142 19.7876H17.2124C17.7646 19.7876 18.2124 19.3399 18.2124 18.7876C18.2124 18.2353 17.7646 17.7876 17.2124 17.7876L14 17.7876C13.4477 17.7876 13 18.2353 13 18.7876L13 22C13 22.5522 13.4477 23 14 23C14.5523 23 15 22.5522 15 22L15 21.2018L15.2804 21.4823C17.0823 23.2841 20.0036 23.2841 21.8055 21.4823C23.6073 19.6804 23.6073 16.7591 21.8055 14.9572C20.3537 13.5054 18.1774 13.2246 16.4448 14.1094C15.9529 14.3606 15.7578 14.9629 16.009 15.4548C16.2602 15.9467 16.8625 16.1418 17.3544 15.8906Z" fill="currentColor"/>
</svg>
