<svg width="24" height="24" viewBox="0 0 24 24" fill="none" xmlns="http://www.w3.org/2000/svg">
<path fill-rule="evenodd" clip-rule="evenodd" d="M10.9882 2L10.8863 1.99997C10.2513 1.99967 9.77155 1.99944 9.30886 2.11052C8.90072 2.20851 8.51054 2.37013 8.15265 2.58944C7.74693 2.83807 7.40782 3.17749 6.95903 3.62672L6.88701 3.69878L3.69878 6.88701L3.62672 6.95903C3.1775 7.40782 2.83807 7.74693 2.58944 8.15265C2.37013 8.51054 2.20851 8.90072 2.11052 9.30886C1.99944 9.77155 1.99967 10.2513 1.99997 10.8863L2 10.9882V17.5L1.99999 17.5688C1.99988 17.9662 1.9998 18.2607 2.03422 18.5221C2.23363 20.0368 3.27017 21.2782 4.66696 21.7716C5.18772 21.9555 5.75898 21.6825 5.94291 21.1617C6.12685 20.641 5.8538 20.0697 5.33304 19.8858C4.6346 19.6391 4.11672 19.0176 4.01711 18.2611C4.00216 18.1475 4 17.9962 4 17.5V11H9.2L9.22313 11C9.34225 11.0001 9.48451 11.0001 9.60983 10.9899C9.75505 10.978 9.96304 10.9476 10.181 10.8365C10.4632 10.6927 10.6927 10.4632 10.8365 10.181C10.9476 9.96304 10.978 9.75505 10.9899 9.60983C11.0001 9.48451 11.0001 9.34225 11 9.22313L11 9.2V4H14.2C15.0566 4 15.6389 4.00078 16.089 4.03755C16.5274 4.07337 16.7516 4.1383 16.908 4.21799C17.2843 4.40974 17.5903 4.7157 17.782 5.09202C17.8617 5.24842 17.9266 5.47262 17.9625 5.91104C17.9992 6.36113 18 6.94342 18 7.8V9C18 9.55229 18.4477 10 19 10C19.5523 10 20 9.55229 20 9V7.8V7.75868C20 6.95372 20 6.28937 19.9558 5.74818C19.9099 5.18608 19.8113 4.66938 19.564 4.18404C19.1805 3.43139 18.5686 2.81947 17.816 2.43598C17.3306 2.18869 16.8139 2.09012 16.2518 2.0442C15.7106 1.99998 15.0463 1.99999 14.2413 2L14.2 2H10.9882ZM9 9H4.44003C4.5602 8.8579 4.75212 8.6621 5.113 8.30122L8.30122 5.113C8.6621 4.75212 8.8579 4.5602 9 4.44003V9ZM11.2 12H11.1614C10.6343 12 10.1795 12 9.80496 12.0306C9.40962 12.0629 9.0164 12.1342 8.63802 12.327C8.07353 12.6146 7.61459 13.0735 7.32697 13.638C7.13418 14.0164 7.06286 14.4096 7.03056 14.805C6.99996 15.1795 6.99997 15.6343 6.99999 16.1614V16.1615V16.2V18.8V18.8385V18.8386C6.99997 19.3657 6.99996 19.8205 7.03056 20.195C7.06286 20.5904 7.13418 20.9836 7.32697 21.362C7.61459 21.9265 8.07353 22.3854 8.63802 22.673C9.0164 22.8658 9.40962 22.9371 9.80496 22.9694C10.1795 23 10.6343 23 11.1614 23H11.1614H11.1615H11.2H18.8H18.8385H18.8385H18.8386C19.3657 23 19.8205 23 20.195 22.9694C20.5904 22.9371 20.9836 22.8658 21.362 22.673C21.9264 22.3854 22.3854 21.9265 22.673 21.362C22.8658 20.9836 22.9371 20.5904 22.9694 20.195C23 19.8205 23 19.3658 23 18.8387V18.8387V18.8387V18.8386V18.8V16.2V16.1614V16.1613V16.1613V16.1613C23 15.6342 23 15.1795 22.9694 14.805C22.9371 14.4096 22.8658 14.0164 22.673 13.638C22.3854 13.0735 21.9264 12.6146 21.362 12.327C20.9836 12.1342 20.5904 12.0629 20.195 12.0306C19.8204 12 19.3657 12 18.8385 12H18.8H11.2ZM12.6463 17.3889C12.7805 17.0983 12.8477 16.7792 12.8477 16.4316C12.8477 16.0556 12.7781 15.7222 12.6391 15.4316C12.5001 15.141 12.2915 14.9131 12.0134 14.7479C11.7353 14.5826 11.3949 14.5 10.9921 14.5H8.99999V20.5H10.2298V18.3461H10.9921C11.4045 18.3461 11.7497 18.2578 12.0278 18.0812C12.3059 17.9046 12.512 17.6738 12.6463 17.3889ZM11.4237 16.9872C11.3086 17.1182 11.1336 17.1838 10.8987 17.1838H10.2298V15.6795H10.8987C11.1336 15.6795 11.3086 15.745 11.4237 15.8761C11.5387 16.0071 11.5963 16.1923 11.5963 16.4316C11.5963 16.6709 11.5387 16.8561 11.4237 16.9872ZM16.7746 14.8761C16.3767 14.6254 15.9116 14.5 15.3794 14.5H13.4879V20.5H15.3794C15.9068 20.5 16.3695 20.3746 16.7674 20.1239C17.1702 19.8732 17.4794 19.5199 17.6952 19.0641C17.9157 18.6083 18.026 18.0869 18.026 17.5C18.026 16.9074 17.9157 16.386 17.6952 15.9359C17.4794 15.4801 17.1726 15.1268 16.7746 14.8761ZM16.3863 18.782C16.1273 19.084 15.7654 19.235 15.3003 19.235H14.7177V15.7479H15.3003C15.7654 15.7479 16.1273 15.9017 16.3863 16.2094C16.6452 16.5171 16.7746 16.9473 16.7746 17.5C16.7746 18.0527 16.6452 18.4801 16.3863 18.782ZM22 14.5V15.6709H19.9431V16.9359H21.4822V18.0726H19.9431V20.5H18.7133V14.5H22Z" fill="currentColor"/>
</svg>
