<svg width="24" height="24" viewBox="0 0 24 24" fill="none" xmlns="http://www.w3.org/2000/svg">
<path fill-rule="evenodd" clip-rule="evenodd" d="M4.50005 6L9.5 6C10.0523 6 10.5 5.55228 10.5 5C10.5 4.44771 10.0523 4 9.5 4L4.50005 4C2.56707 4 1.00008 5.56697 1.00005 7.49994L1 10.5L1 10.5L1 14.5L1 17.5C1.00001 19.433 2.56701 21 4.5 21L19.5 21C21.433 21 23 19.433 23 17.5L23 17C23 16.4477 22.5523 16 22 16C21.4477 16 21 16.4477 21 17L21 17.5C21 18.3284 20.3284 19 19.5 19L4.5 19C3.67158 19 3 18.3284 3 17.5L3 15.5C3.55228 15.5 4 15.0523 4 14.5L4 10.5C4 9.94772 3.55229 9.50001 3.00002 9.5L3.00005 7.49998C3.00006 6.67156 3.67163 6 4.50005 6ZM14.5768 8.99152C13.9215 7.69905 14.1336 6.07806 15.2032 5.00076C15.8873 4.31166 16.787 3.97881 17.6821 3.99943C18.5248 4.01885 19.3601 4.35152 20.0047 5.00076C20.6436 5.64427 20.9761 6.4791 21.0012 7.32578C21.0283 8.24195 20.6952 9.16177 20.0047 9.85731L19.0001 10.8692L19.0001 8.99999C19.0001 8.44771 18.5523 7.99999 18.0001 7.99999C17.4478 7.99999 17.0001 8.44771 17.0001 8.99999L17.0001 13C17.0001 13.5523 17.4478 14 18.0001 14L22.0007 14C22.553 14 23.0007 13.5523 23.0007 13C23.0007 12.4477 22.553 12 22.0007 12L20.6957 12L21.424 11.2664C22.5183 10.1642 23.0429 8.70589 23.0003 7.26661C22.9609 5.93493 22.4358 4.61076 21.424 3.59164C20.4022 2.56252 19.069 2.03086 17.7282 1.99996C16.3048 1.96717 14.869 2.49865 13.7839 3.59164C12.0874 5.30039 11.7603 7.85914 12.793 9.89594C13.0427 10.3885 13.6445 10.5854 14.1371 10.3356C14.6297 10.0859 14.8266 9.48411 14.5768 8.99152Z" fill="currentColor"/>
</svg>
