<svg width="24" height="24" viewBox="0 0 24 24" fill="none" xmlns="http://www.w3.org/2000/svg">
<path fill-rule="evenodd" clip-rule="evenodd" d="M18.5001 2.00009L18.584 2.00004C18.9647 1.99974 19.2925 1.99948 19.5854 2.05773C20.7754 2.29445 21.7057 3.22474 21.9424 4.41482C22.0007 4.70767 22.0004 5.03551 22.0001 5.4162L22.0001 5.50009V6.00009C22.0001 14.8366 14.8366 22.0001 6.00009 22.0001H5.50009L5.41622 22.0001H5.41618C5.03549 22.0004 4.70767 22.0007 4.41482 21.9424C3.22475 21.7057 2.29445 20.7754 2.05773 19.5854C1.99948 19.2925 1.99974 18.9647 2.00004 18.584L2.00004 18.584L2.00009 18.5001L2.00004 18.4162L2.00004 18.4162C1.99974 18.0355 1.99948 17.7077 2.05773 17.4148C2.29445 16.2247 3.22475 15.2945 4.41482 15.0577C4.70767 14.9995 5.03551 14.9997 5.4162 15L5.50009 15.0001L5.58397 15C5.96467 14.9997 6.29251 14.9995 6.58536 15.0577C7.77543 15.2945 8.70572 16.2247 8.94244 17.4148C9.0007 17.7077 9.00044 18.0355 9.00013 18.4162L9.00009 18.5001V19.6779C14.324 18.5156 18.5156 14.324 19.6779 9.00009H18.5001L18.4162 9.00013C18.0355 9.00043 17.7077 9.0007 17.4148 8.94244C16.2247 8.70572 15.2945 7.77543 15.0577 6.58536C14.9995 6.2925 14.9997 5.96467 15 5.58397L15.0001 5.50009L15 5.4162C14.9997 5.0355 14.9995 4.70767 15.0577 4.41482C15.2945 3.22474 16.2247 2.29445 17.4148 2.05773C17.7077 1.99948 18.0355 1.99974 18.4162 2.00004L18.5001 2.00009ZM6.00009 20.0001C6.33632 20.0001 6.66979 19.9882 7.00009 19.9649V18.5001C7.00009 17.9875 6.99524 17.8772 6.98087 17.805C6.90197 17.4083 6.59187 17.0982 6.19518 17.0193C6.12293 17.0049 6.01267 17.0001 5.50009 17.0001C4.9875 17.0001 4.87725 17.0049 4.805 17.0193C4.40831 17.0982 4.09821 17.4083 4.0193 17.805C4.00493 17.8772 4.00009 17.9875 4.00009 18.5001C4.00009 19.0127 4.00493 19.1229 4.0193 19.1952C4.09821 19.5919 4.40831 19.902 4.805 19.9809C4.87725 19.9952 4.9875 20.0001 5.50009 20.0001H6.00009ZM18.5001 7.00009H19.9649C19.9882 6.66979 20.0001 6.33632 20.0001 6.00009V5.50009C20.0001 4.9875 19.9952 4.87725 19.9809 4.805C19.902 4.40831 19.5919 4.09821 19.1952 4.0193C19.1229 4.00493 19.0127 4.00009 18.5001 4.00009C17.9875 4.00009 17.8772 4.00493 17.805 4.0193C17.4083 4.09821 17.0982 4.40831 17.0193 4.805C17.0049 4.87725 17.0001 4.9875 17.0001 5.50009C17.0001 6.01267 17.0049 6.12293 17.0193 6.19518C17.0982 6.59187 17.4083 6.90197 17.805 6.98087C17.8772 6.99524 17.9875 7.00009 18.5001 7.00009ZM11.0001 2.00009C11.5524 2.00009 12.0001 2.4478 12.0001 3.00009C12.0001 3.55237 11.5524 4.00009 11.0001 4.00009C7.13409 4.00009 4.00009 7.13409 4.00009 11.0001C4.00009 11.5524 3.55237 12.0001 3.00009 12.0001C2.4478 12.0001 2.00009 11.5524 2.00009 11.0001C2.00009 6.02952 6.02952 2.00009 11.0001 2.00009ZM11.0001 6.00009C11.5524 6.00009 12.0001 6.4478 12.0001 7.00009C12.0001 7.55237 11.5524 8.00009 11.0001 8.00009C9.34323 8.00009 8.00009 9.34323 8.00009 11.0001C8.00009 11.5524 7.55237 12.0001 7.00009 12.0001C6.4478 12.0001 6.00009 11.5524 6.00009 11.0001C6.00009 8.23866 8.23866 6.00009 11.0001 6.00009Z" fill="currentColor"/>
</svg>
