<svg width="24" height="24" viewBox="0 0 24 24" fill="none" xmlns="http://www.w3.org/2000/svg">
<path fill-rule="evenodd" clip-rule="evenodd" d="M13.4708 2.8203C14.7279 1.06034 17.2644 0.850394 18.7938 2.37973L21.6202 5.20617C23.1495 6.73548 22.9396 9.27199 21.1797 10.5291L17.2463 13.3387C17.0332 13.491 16.8883 13.7207 16.8428 13.9787L15.7184 20.3498C15.4794 21.7042 13.8147 22.229 12.8422 21.2565L8.5 16.9142L3.70711 21.7071C3.31658 22.0977 2.68342 22.0977 2.29289 21.7071C1.90237 21.3166 1.90237 20.6835 2.29289 20.2929L7.08579 15.5L2.74357 11.1578C1.77106 10.1853 2.2958 8.52062 3.65022 8.2816L10.0213 7.15728C10.2793 7.11177 10.5091 6.96687 10.6613 6.75373L13.4708 2.8203Z" fill="currentColor"/>
</svg>
