<svg width="24" height="24" viewBox="0 0 24 24" fill="none" xmlns="http://www.w3.org/2000/svg">
<path fill-rule="evenodd" clip-rule="evenodd" d="M18.6428 2.22871C17.1874 0.773389 14.7967 0.881857 13.4791 2.46297L10.6208 5.89296C10.494 6.04515 10.3248 6.15625 10.1348 6.21215L3.3491 8.20794C2.11113 8.57204 1.71425 10.1285 2.6267 11.0409L7.08579 15.5L2.29289 20.2929C1.90237 20.6834 1.90237 21.3166 2.29289 21.7071C2.68342 22.0977 3.31658 22.0977 3.70711 21.7071L8.5 16.9142L12.9591 21.3733C13.8715 22.2858 15.428 21.8889 15.7921 20.6509L17.7878 13.8652C17.8437 13.6752 17.9548 13.506 18.1069 13.3792L21.537 10.5208C23.1181 9.20324 23.2265 6.81246 21.7712 5.35716L18.6428 2.22871ZM9.20711 14.7929L14.0159 19.6017L15.869 13.3009C16.0367 12.7307 16.37 12.2232 16.8266 11.8427L20.2566 8.98436C20.9342 8.41969 20.9807 7.39507 20.357 6.77137L17.2286 3.64292C16.6048 3.01921 15.5802 3.0657 15.0155 3.74332L12.1573 7.17331C11.7768 7.62989 11.2693 7.96318 10.6991 8.13088L4.39826 9.98407L9.20711 14.7929Z" fill="currentColor"/>
</svg>
