<svg width="24" height="24" viewBox="0 0 24 24" fill="none" xmlns="http://www.w3.org/2000/svg">
<path fill-rule="evenodd" clip-rule="evenodd" d="M10.9562 2L11 2H13L13.0438 2C14.4068 1.99999 15.4908 1.99999 16.3654 2.07144C17.261 2.14462 18.0247 2.29768 18.7239 2.65396C19.8529 3.2292 20.7708 4.14708 21.346 5.27606C21.7023 5.9753 21.8554 6.73898 21.9286 7.63458C22 8.50914 22 9.59313 22 10.9561V10.9562V11V13.0001V13.0439V13.044C22 14.407 22 15.491 21.9286 16.3655C21.8554 17.2611 21.7023 18.0248 21.346 18.7241C20.7708 19.853 19.8529 20.7709 18.7239 21.3462C18.0247 21.7024 17.261 21.8555 16.3654 21.9287C15.4909 22.0001 14.4069 22.0001 13.0439 22.0001H13.0438H13H11H10.9562H10.9561C9.59313 22.0001 8.50914 22.0001 7.63458 21.9287C6.73898 21.8555 5.9753 21.7024 5.27606 21.3462C4.14708 20.7709 3.2292 19.853 2.65396 18.7241C2.29768 18.0248 2.14462 17.2611 2.07144 16.3655C1.99999 15.491 1.99999 14.4069 2 13.0439L2 13.0001V11L2 10.9562C1.99999 9.5932 1.99999 8.50917 2.07144 7.63458C2.14462 6.73898 2.29768 5.9753 2.65396 5.27606C3.2292 4.14708 4.14708 3.2292 5.27606 2.65396C5.9753 2.29768 6.73898 2.14462 7.63458 2.07144C8.50917 1.99999 9.5932 1.99999 10.9562 2ZM11.6668 8.49678L11.6879 8.50831L15.7055 10.6965L15.7279 10.7087C15.833 10.7659 15.9645 10.8374 16.072 10.9094C16.18 10.9817 16.4159 11.1497 16.5556 11.455C16.7126 11.798 16.7128 12.1923 16.5563 12.5355C16.4169 12.841 16.1813 13.0093 16.0734 13.0817C15.966 13.1539 15.8346 13.2255 15.7295 13.2829L15.7294 13.2829L15.7071 13.2951L11.6895 15.4897L11.6684 15.5013L11.6683 15.5013L11.6683 15.5013C11.5712 15.5544 11.4463 15.6227 11.3323 15.6721C11.2132 15.7237 10.9592 15.8233 10.6428 15.7848C10.2813 15.7407 9.95485 15.5471 9.7429 15.251C9.55739 14.9918 9.52305 14.721 9.5112 14.5918C9.49986 14.4681 9.49994 14.3257 9.50001 14.215L9.50002 14.1909V9.80804L9.50001 9.78394C9.49994 9.67336 9.49986 9.53114 9.51119 9.40751C9.52304 9.27825 9.55737 9.0078 9.74262 8.74878C9.95433 8.45277 10.2804 8.25905 10.6416 8.21472C10.9577 8.17592 11.2116 8.27513 11.3308 8.32655C11.4448 8.37573 11.5697 8.44383 11.6668 8.49678Z" fill="currentColor"/>
</svg>
