<svg width="24" height="24" viewBox="0 0 24 24" fill="none" xmlns="http://www.w3.org/2000/svg">
<path fill-rule="evenodd" clip-rule="evenodd" d="M11 2L10.9562 2C9.5932 1.99999 8.50917 1.99999 7.63458 2.07144C6.73898 2.14462 5.9753 2.29768 5.27606 2.65396C4.14708 3.2292 3.2292 4.14708 2.65396 5.27606C2.29768 5.9753 2.14462 6.73898 2.07144 7.63458C1.99999 8.50917 1.99999 9.5932 2 10.9562L2 11V13.0001L2 13.0439C1.99999 14.4069 1.99999 15.491 2.07144 16.3655C2.14462 17.2611 2.29768 18.0248 2.65396 18.7241C3.2292 19.853 4.14708 20.7709 5.27606 21.3462C5.9753 21.7024 6.73898 21.8555 7.63458 21.9287C8.50914 22.0001 9.59313 22.0001 10.9561 22.0001H10.9562H11H13H13.0438H13.0439C14.4069 22.0001 15.4909 22.0001 16.3654 21.9287C17.261 21.8555 18.0247 21.7024 18.7239 21.3462C19.8529 20.7709 20.7708 19.853 21.346 18.7241C21.7023 18.0248 21.8554 17.2611 21.9286 16.3655C22 15.491 22 14.407 22 13.044V13.0439V13.0001V11V10.9562V10.9561C22 9.59313 22 8.50914 21.9286 7.63458C21.8554 6.73898 21.7023 5.9753 21.346 5.27606C20.7708 4.14708 19.8529 3.2292 18.7239 2.65396C18.0247 2.29768 17.261 2.14462 16.3654 2.07144C15.4908 1.99999 14.4068 1.99999 13.0438 2L13 2H11ZM6.18404 4.43597C6.55435 4.24729 7.02552 4.12787 7.79744 4.0648C8.58104 4.00078 9.58337 4 11 4H13C14.4166 4 15.419 4.00078 16.2026 4.0648C16.9745 4.12787 17.4457 4.24729 17.816 4.43597C18.5686 4.81947 19.1805 5.43139 19.564 6.18404C19.7527 6.55435 19.8721 7.02552 19.9352 7.79744C19.9992 8.58104 20 9.58337 20 11V13.0001C20 14.4168 19.9992 15.4191 19.9352 16.2027C19.8721 16.9746 19.7527 17.4458 19.564 17.8161C19.1805 18.5687 18.5686 19.1807 17.816 19.5642C17.4457 19.7528 16.9745 19.8723 16.2026 19.9353C15.419 19.9993 14.4166 20.0001 13 20.0001H11C9.58337 20.0001 8.58104 19.9993 7.79744 19.9353C7.02552 19.8723 6.55435 19.7528 6.18404 19.5642C5.43139 19.1807 4.81947 18.5687 4.43597 17.8161C4.24729 17.4458 4.12787 16.9746 4.0648 16.2027C4.00078 15.4191 4 14.4168 4 13.0001V11C4 9.58337 4.00078 8.58104 4.0648 7.79744C4.12787 7.02552 4.24729 6.55435 4.43597 6.18404C4.81947 5.43139 5.43139 4.81947 6.18404 4.43597ZM11.3113 7.45879L11.2862 7.44807C11.1558 7.3924 11.0016 7.32658 10.8614 7.28181C10.6992 7.22998 10.4578 7.17206 10.1725 7.21457C9.80853 7.26882 9.46886 7.46116 9.2351 7.74542C9.05215 7.96788 8.97759 8.20427 8.9385 8.37021C8.90479 8.51333 8.88195 8.67921 8.86267 8.81926L8.86266 8.81927L8.85894 8.84631C8.54713 11.1034 8.54674 12.8957 8.85998 15.1232L8.86371 15.1498C8.88288 15.2865 8.90576 15.4497 8.93938 15.5909C8.97863 15.7558 9.05287 15.9879 9.23229 16.2075C9.46261 16.4893 9.79791 16.6821 10.1573 16.7395C10.4374 16.7842 10.6755 16.7315 10.8376 16.6826C10.9766 16.6406 11.1292 16.5783 11.2571 16.5261L11.2571 16.5261L11.282 16.5159C13.2112 15.7291 14.9159 14.8112 16.5921 13.2927L16.6095 13.277C16.6919 13.2024 16.7983 13.1061 16.8859 13.01C16.9945 12.891 17.1217 12.7235 17.2022 12.4914C17.3105 12.1794 17.3105 11.8203 17.2023 11.5083C17.1218 11.2761 16.9945 11.1086 16.8859 10.9896C16.7983 10.8935 16.6919 10.7972 16.6094 10.7226L16.5921 10.7069C14.9218 9.19356 13.2246 8.27456 11.3113 7.45879ZM10.8007 14.5506C10.5666 12.7428 10.5665 11.254 10.8007 9.41677C12.386 10.1103 13.7295 10.862 15.0362 11.9998C13.7275 13.1388 12.3833 13.8855 10.8007 14.5506Z" fill="currentColor"/>
</svg>
