<svg width="24" height="24" viewBox="0 0 24 24" fill="none" xmlns="http://www.w3.org/2000/svg">
<path fill-rule="evenodd" clip-rule="evenodd" d="M12 5C12.5523 5.00003 13 5.44776 13 6.00005L12.9998 11.0001L18 11C18.5523 11 19 11.4477 19 12C19 12.5523 18.5523 13 18 13L12.9998 13.0001L13 18C13 18.5522 12.5523 19 12 19C11.4478 19 11 18.5523 11 18L10.9998 13.0001L5.99999 13C5.4477 13 4.99999 12.5523 5 12C5.00001 11.4477 5.44773 11 6.00001 11L10.9998 11.0001L11 5.99995C11 5.44767 11.4478 4.99997 12 5Z" fill="currentColor"/>
</svg>
