<svg width="24" height="24" viewBox="0 0 24 24" fill="none" xmlns="http://www.w3.org/2000/svg">
<path fill-rule="evenodd" clip-rule="evenodd" d="M4.00012 8.00001C4.00012 8.5523 3.55241 9.00001 3.00012 9.00001C2.44784 9.00001 2.00012 8.5523 2.00012 8.00001V2C2.00012 1.44772 2.44784 1 3.00012 1C3.55241 1 4.00012 1.44772 4.00012 2V8.00001ZM7.06319 7.21106C7.65129 6.81024 8.30307 6.49703 9 6.28966V9.53532L8.98271 9.54543C7.79886 10.2379 7 11.5251 7 13.0001C7 15.2092 8.79086 17.0001 11 17.0001C12.475 17.0001 13.7622 16.2012 14.4546 15.0173L14.4647 15.0001H17.7104C16.85 17.8919 14.1701 20.0001 11 20.0001C8.23373 20.0001 5.84031 18.3956 4.70315 16.0619C4.46122 15.5655 3.86263 15.3591 3.36615 15.6011C2.86968 15.843 2.66333 16.4416 2.90526 16.9381C4.36466 19.933 7.43998 22.0001 11 22.0001C15.239 22.0001 18.7912 19.0704 19.747 15.1267L19.753 15.1023L19.753 15.1023L19.753 15.1023L19.753 15.1022C19.7806 14.9886 19.817 14.8391 19.8354 14.7003C19.8588 14.5253 19.8651 14.3003 19.7864 14.0499C19.6789 13.7085 19.4365 13.4003 19.13 13.2155C18.8939 13.0731 18.6614 13.0304 18.491 13.0138C18.349 12.9999 18.1886 13 18.0584 13L18.0322 13.0001H14.395L14.3795 13.0001H14.3794H14.3794H14.3794C14.2947 13 14.1974 13 14.1123 13.0044C14.0185 13.0092 13.8752 13.0215 13.7168 13.0727C13.5057 13.1409 13.3441 13.2336 13.1786 13.3814C13.0411 13.5043 12.9493 13.6443 12.903 13.7164C12.8519 13.7961 12.7942 13.8949 12.7365 13.9935L12.7365 13.9935L12.7282 14.0076C12.3797 14.6035 11.7356 15.0001 11 15.0001C9.89543 15.0001 9 14.1046 9 13.0001C9 12.2644 9.39661 11.6203 9.99245 11.2718L10.0065 11.2636L10.0065 11.2636C10.1052 11.2059 10.204 11.1481 10.2837 11.097C10.3558 11.0508 10.4958 10.959 10.6187 10.8214C10.7665 10.656 10.8592 10.4944 10.9274 10.2832C10.9785 10.1248 10.9908 9.98157 10.9956 9.88779C11 9.80262 11 9.70528 11 9.62061L11 9.60502V5.96791L11 5.94167V5.94165C11.0001 5.8114 11.0002 5.65111 10.9863 5.50907C10.9697 5.33865 10.9269 5.10616 10.7846 4.87009C10.5998 4.5636 10.2916 4.32114 9.95019 4.21373C9.69986 4.13497 9.47498 4.14128 9.29995 4.16459C9.16117 4.18307 9.01167 4.2194 8.89808 4.24701L8.89807 4.24702L8.89805 4.24702L8.87376 4.25292C7.80757 4.51128 6.81597 4.95921 5.93681 5.55841C5.48044 5.86945 5.36263 6.49156 5.67367 6.94793C5.98471 7.40429 6.60682 7.52211 7.06319 7.21106ZM14.6815 1.14028L14.7681 1.15606C18.8746 1.8892 22.1109 5.12545 22.844 9.23195L22.8598 9.31859C22.9271 9.68468 23.0159 10.1679 22.8299 10.6813C22.6778 11.1012 22.3372 11.5079 21.9506 11.7315C21.6721 11.8925 21.3951 11.9526 21.1434 11.9782C20.9266 12.0002 20.6771 12.0001 20.4353 12.0001H20.4352L20.4 12.0001H14.6L14.5681 12.0001C14.3157 12.0001 14.0699 12.0001 13.8618 11.9831C13.6332 11.9644 13.3634 11.9204 13.092 11.7821C12.7157 11.5903 12.4097 11.2844 12.218 10.908C12.0797 10.6366 12.0356 10.3669 12.0169 10.1383C11.9999 9.93014 12 9.68436 12 9.43199V9.43196L12 9.40006V3.60006L12 3.56485V3.56484V3.56483C11.9999 3.32294 11.9999 3.07346 12.0219 2.85666C12.0475 2.60493 12.1075 2.32796 12.2686 2.04944C12.4921 1.66283 12.8989 1.32225 13.3188 1.17014C13.8322 0.984141 14.3154 1.07297 14.6815 1.14028ZM14.0115 3.0606C14.0012 3.16381 14 3.30943 14 3.60006V9.40006C14 9.69659 14.0008 9.85884 14.0103 9.97543L14.0114 9.98861L14.0246 9.98976C14.1412 9.99928 14.3035 10.0001 14.6 10.0001H20.4C20.6906 10.0001 20.8363 9.99889 20.9395 9.98858C20.9369 9.95999 20.932 9.91999 20.9231 9.86224C20.9114 9.78705 20.896 9.70016 20.8751 9.58346C20.2892 6.30158 17.6985 3.71084 14.4166 3.12492C14.2999 3.10409 14.213 3.08863 14.1378 3.07701C14.0801 3.06808 14.0401 3.06317 14.0115 3.0606ZM2.50012 13.5C1.94784 13.5 1.50012 13.0523 1.50012 12.5V11.5C1.50012 10.9477 1.94784 10.5 2.50012 10.5H3.50012C4.05241 10.5 4.50012 10.9477 4.50012 11.5V12.5C4.50012 13.0523 4.05241 13.5 3.50012 13.5H2.50012Z" fill="currentColor"/>
</svg>
