<svg width="24" height="24" viewBox="0 0 24 24" fill="none" xmlns="http://www.w3.org/2000/svg">
<path fill-rule="evenodd" clip-rule="evenodd" d="M14.7681 1.15609L14.6815 1.14031C14.3154 1.07301 13.8322 0.984176 13.3188 1.17018C12.8989 1.32229 12.4921 1.66287 12.2686 2.04947C12.1075 2.32799 12.0475 2.60496 12.0219 2.85669C11.9999 3.07349 11.9999 3.32297 12 3.56486V3.56487V3.56487V3.56488L12 3.6001V9.4001L12 9.43199V9.43203C12 9.6844 11.9999 9.93018 12.0169 10.1383C12.0356 10.3669 12.0797 10.6367 12.218 10.9081C12.4097 11.2844 12.7157 11.5904 13.092 11.7821C13.3634 11.9204 13.6332 11.9645 13.8618 11.9832C14.0699 12.0002 14.3157 12.0001 14.5681 12.0001L14.6 12.0001H20.4L20.4352 12.0001H20.4353C20.6771 12.0002 20.9266 12.0002 21.1434 11.9782C21.3951 11.9526 21.6721 11.8925 21.9506 11.7315C22.3372 11.508 22.6778 11.1012 22.8299 10.6813C23.0159 10.1679 22.9271 9.68472 22.8598 9.31863L22.844 9.23199C22.1109 5.12548 18.8746 1.88923 14.7681 1.15609ZM9.95015 4.21374C9.69971 4.13496 9.47476 4.14132 9.29976 4.16464C9.16095 4.18314 9.01139 4.2195 8.89771 4.24714L8.8734 4.25304C4.92964 5.20886 2 8.76112 2 13.0001C2 17.9707 6.02944 22.0001 11 22.0001C15.239 22.0001 18.7912 19.0705 19.747 15.1267L19.753 15.1024C19.7806 14.9887 19.817 14.8391 19.8354 14.7003C19.8588 14.5253 19.8651 14.3004 19.7864 14.0499C19.6789 13.7085 19.4365 13.4003 19.13 13.2155C18.8939 13.0732 18.6614 13.0304 18.491 13.0138C18.349 12.9999 18.1886 13 18.0584 13.0001L18.0322 13.0001H14.395L14.3795 13.0001C14.2948 13.0001 14.1974 13.0001 14.1123 13.0044C14.0185 13.0093 13.8752 13.0216 13.7168 13.0727C13.5057 13.1409 13.3441 13.2336 13.1786 13.3814C13.0411 13.5043 12.9493 13.6443 12.903 13.7164C12.8519 13.7961 12.7942 13.8949 12.7365 13.9936L12.7365 13.9936L12.7282 14.0076C12.3797 14.6035 11.7356 15.0001 11 15.0001C9.89543 15.0001 9 14.1047 9 13.0001C9 12.2645 9.39661 11.6204 9.99245 11.2719L10.0065 11.2637C10.1051 11.206 10.204 11.1482 10.2837 11.097C10.3558 11.0508 10.4958 10.959 10.6187 10.8214C10.7665 10.656 10.8592 10.4944 10.9274 10.2833C10.9785 10.1249 10.9908 9.9816 10.9956 9.88783C11 9.80267 11 9.70537 11 9.62071V9.6207V9.62068V9.62066L11 9.60506V5.96794L11 5.9417V5.94168C11.0001 5.81143 11.0002 5.65113 10.9863 5.5091C10.9697 5.33867 10.9269 5.10618 10.7846 4.87009C10.5998 4.5636 10.2915 4.32115 9.95015 4.21374Z" fill="currentColor"/>
</svg>
