<svg width="24" height="24" viewBox="0 0 24 24" fill="none" xmlns="http://www.w3.org/2000/svg">
<path fill-rule="evenodd" clip-rule="evenodd" d="M14.7681 1.15603L14.6815 1.14025C14.3154 1.07295 13.8322 0.984115 13.3188 1.17011C12.8989 1.32222 12.4921 1.66281 12.2686 2.04941C12.1075 2.32793 12.0475 2.6049 12.0219 2.85663C11.9999 3.07344 11.9999 3.32292 12 3.56481V3.56482L12 3.60004V9.40003L12 9.43193V9.43197C12 9.68434 11.9999 9.93012 12.0169 10.1383C12.0356 10.3669 12.0797 10.6366 12.218 10.908C12.4097 11.2843 12.7157 11.5903 13.092 11.782C13.3634 11.9203 13.6332 11.9644 13.8618 11.9831C14.0699 12.0001 14.3157 12.0001 14.5681 12L14.6 12H20.4L20.4352 12H20.4353C20.6771 12.0001 20.9266 12.0001 21.1434 11.9781C21.3951 11.9526 21.6721 11.8925 21.9506 11.7314C22.3372 11.5079 22.6778 11.1011 22.8299 10.6813C23.0159 10.1678 22.9271 9.68466 22.8598 9.31857L22.844 9.23193C22.1109 5.12542 18.8746 1.88917 14.7681 1.15603ZM14 3.60004C14 3.30941 14.0012 3.16378 14.0115 3.06057C14.0401 3.06315 14.0801 3.06805 14.1378 3.07698C14.213 3.08861 14.2999 3.10406 14.4166 3.1249C17.6985 3.71082 20.2892 6.30155 20.8751 9.58343C20.896 9.70014 20.9114 9.78703 20.9231 9.86221C20.932 9.91997 20.9369 9.95997 20.9395 9.98856C20.8363 9.99887 20.6906 10 20.4 10H14.6C14.3035 10 14.1412 9.99926 14.0246 9.98973L14.0114 9.98859L14.0103 9.9754C14.0008 9.85882 14 9.69656 14 9.40003V3.60004ZM4 13C4 9.82997 6.10811 7.15001 9 6.28963V9.53529L8.98271 9.54541C7.79886 10.2378 7 11.5251 7 13C7 15.2092 8.79086 17 11 17C12.475 17 13.7622 16.2012 14.4546 15.0173L14.4647 15H17.7104C16.85 17.8919 14.1701 20 11 20C7.13401 20 4 16.866 4 13ZM9.95015 4.21368C9.69971 4.1349 9.47476 4.14126 9.29976 4.16458C9.16095 4.18308 9.01139 4.21944 8.89771 4.24708L8.8734 4.25298C4.92964 5.2088 2 8.76106 2 13C2 17.9706 6.02944 22 11 22C15.239 22 18.7912 19.0704 19.747 15.1266L19.753 15.1023C19.7806 14.9886 19.817 14.8391 19.8354 14.7003C19.8588 14.5253 19.8651 14.3003 19.7864 14.0499C19.6789 13.7085 19.4365 13.4003 19.13 13.2155C18.8939 13.0731 18.6614 13.0304 18.491 13.0137C18.349 12.9999 18.1886 13 18.0584 13L18.0322 13H14.395L14.3795 13H14.3794C14.2948 13 14.1974 13 14.1123 13.0044C14.0185 13.0092 13.8752 13.0215 13.7168 13.0727C13.5057 13.1409 13.3441 13.2336 13.1786 13.3814C13.0411 13.5043 12.9493 13.6443 12.903 13.7164C12.8519 13.7961 12.7942 13.8948 12.7365 13.9935L12.7365 13.9935L12.7282 14.0076C12.3797 14.6034 11.7356 15 11 15C9.89543 15 9 14.1046 9 13C9 12.2644 9.3966 11.6203 9.99245 11.2718L10.0065 11.2636C10.1051 11.2059 10.204 11.1481 10.2837 11.097C10.3558 11.0507 10.4958 10.959 10.6187 10.8214C10.7665 10.6559 10.8592 10.4943 10.9274 10.2832C10.9785 10.1248 10.9908 9.98154 10.9956 9.88777C11 9.8026 11 9.70529 11 9.62062V9.6206L11 9.605V5.96788L11 5.94164V5.94162C11.0001 5.81137 11.0002 5.65107 10.9863 5.50904C10.9697 5.33861 10.9269 5.10612 10.7846 4.87003C10.5998 4.56354 10.2915 4.32108 9.95015 4.21368Z" fill="currentColor"/>
</svg>
