<svg width="24" height="24" viewBox="0 0 24 24" fill="none" xmlns="http://www.w3.org/2000/svg">
<path fill-rule="evenodd" clip-rule="evenodd" d="M11 2L10.9562 2C9.5932 1.99999 8.50917 1.99999 7.63458 2.07144C6.73898 2.14462 5.9753 2.29768 5.27606 2.65396C4.14708 3.2292 3.2292 4.14708 2.65396 5.27606C2.29768 5.9753 2.14462 6.73898 2.07144 7.63458C1.99999 8.50917 1.99999 9.5932 2 10.9562L2 11V13.0001L2 13.0439C1.99999 14.4069 1.99999 15.491 2.07144 16.3655C2.14462 17.2611 2.29768 18.0248 2.65396 18.7241C3.2292 19.853 4.14708 20.7709 5.27606 21.3462C5.9753 21.7024 6.73898 21.8555 7.63458 21.9287C8.50914 22.0001 9.59313 22.0001 10.9561 22.0001H10.9562H11H13H13.0438H13.0439C14.4069 22.0001 15.4909 22.0001 16.3654 21.9287C17.261 21.8555 18.0247 21.7024 18.7239 21.3462C19.8529 20.7709 20.7708 19.853 21.346 18.7241C21.7023 18.0248 21.8554 17.2611 21.9286 16.3655C22 15.491 22 14.407 22 13.044V13.0439V13.0001V11V10.9562V10.9561C22 9.59313 22 8.50914 21.9286 7.63458C21.8554 6.73898 21.7023 5.9753 21.346 5.27606C20.7708 4.14708 19.8529 3.2292 18.7239 2.65396C18.0247 2.29768 17.261 2.14462 16.3654 2.07144C15.4908 1.99999 14.4068 1.99999 13.0438 2L13 2H11ZM14 16.5C14 15.9477 13.5523 15.5 13 15.5H12C11.4477 15.5 11 15.9477 11 16.5V17.5C11 18.0523 11.4477 18.5 12 18.5H13C13.5523 18.5 14 18.0523 14 17.5V16.5ZM10.5 9.5C10.5 8.39543 11.3954 7.5 12.5 7.5C13.3692 7.5 14.1114 8.0551 14.3865 8.83324C14.5705 9.35396 15.1418 9.62688 15.6625 9.44284C16.1833 9.25879 16.4562 8.68747 16.2721 8.16675C15.7235 6.61451 14.2432 5.5 12.5 5.5C10.2909 5.5 8.5 7.29086 8.5 9.5C8.5 11.0881 9.40691 11.9643 10.1525 12.5484L10.1695 12.5617L10.1871 12.5743L11.5001 13.5141C11.5076 14.0599 11.9524 14.5 12.5 14.5C13.0523 14.5 13.5 14.0523 13.5 13.5C13.5 12.8636 13.193 12.2662 12.6754 11.8958L11.3693 10.961C10.7945 10.5082 10.5 10.1483 10.5 9.5Z" fill="currentColor"/>
</svg>
