<svg width="24" height="24" viewBox="0 0 24 24" fill="none" xmlns="http://www.w3.org/2000/svg">
<path fill-rule="evenodd" clip-rule="evenodd" d="M10.9562 2H11H13H13.0438C14.4068 1.99999 15.4908 1.99999 16.3654 2.07144C17.261 2.14462 18.0247 2.29768 18.7239 2.65396C19.8529 3.2292 20.7708 4.14708 21.346 5.27606C21.7023 5.9753 21.8554 6.73898 21.9286 7.63458C22 8.50914 22 9.59313 22 10.9561V10.9562V11V13.0001V13.0439V13.044C22 14.407 22 15.491 21.9286 16.3655C21.8554 17.2611 21.7023 18.0248 21.346 18.7241C20.7708 19.853 19.8529 20.7709 18.7239 21.3462C18.0247 21.7024 17.261 21.8555 16.3654 21.9287C15.4909 22.0001 14.4069 22.0001 13.0439 22.0001H13.0438H13H11H10.9562H10.9561C9.59313 22.0001 8.50914 22.0001 7.63458 21.9287C6.73898 21.8555 5.9753 21.7024 5.27606 21.3462C4.14708 20.7709 3.2292 19.853 2.65396 18.7241C2.29768 18.0248 2.14462 17.2611 2.07144 16.3655C1.99999 15.491 1.99999 14.4069 2 13.0439V13.0001V11V10.9562C1.99999 9.5932 1.99999 8.50917 2.07144 7.63458C2.14462 6.73898 2.29768 5.9753 2.65396 5.27606C3.2292 4.14708 4.14708 3.2292 5.27606 2.65396C5.9753 2.29768 6.73898 2.14462 7.63458 2.07144C8.50917 1.99999 9.5932 1.99999 10.9562 2ZM7.79744 4.0648C7.02552 4.12787 6.55435 4.24729 6.18404 4.43597C5.43139 4.81947 4.81947 5.43139 4.43597 6.18404C4.24729 6.55435 4.12787 7.02552 4.0648 7.79744C4.00078 8.58104 4 9.58337 4 11V13.0001C4 14.4168 4.00078 15.4191 4.0648 16.2027C4.12787 16.9746 4.24729 17.4458 4.43597 17.8161C4.81947 18.5687 5.43139 19.1807 6.18404 19.5641C6.55435 19.7528 7.02552 19.8723 7.79744 19.9353C8.58104 19.9993 9.58337 20.0001 11 20.0001H13C14.4166 20.0001 15.419 19.9993 16.2026 19.9353C16.9745 19.8723 17.4457 19.7528 17.816 19.5641C18.5686 19.1807 19.1805 18.5687 19.564 17.8161C19.7527 17.4458 19.8721 16.9746 19.9352 16.2027C19.9992 15.4191 20 14.4168 20 13.0001V11C20 9.58337 19.9992 8.58104 19.9352 7.79744C19.8721 7.02552 19.7527 6.55435 19.564 6.18404C19.1805 5.43139 18.5686 4.81947 17.816 4.43597C17.4457 4.24729 16.9745 4.12787 16.2026 4.0648C15.419 4.00078 14.4166 4 13 4H11C9.58337 4 8.58104 4.00078 7.79744 4.0648ZM14 16.4999C14 15.9477 13.5523 15.4999 13 15.4999H12C11.4477 15.4999 11 15.9477 11 16.4999V17.4999C11 18.0522 11.4477 18.4999 12 18.4999H13C13.5523 18.4999 14 18.0522 14 17.4999V16.4999ZM10.5 9.5C10.5 8.39543 11.3954 7.5 12.5 7.5C13.3693 7.5 14.1114 8.0551 14.3865 8.83325C14.5705 9.35396 15.1418 9.62689 15.6625 9.44284C16.1833 9.25879 16.4562 8.68747 16.2721 8.16675C15.7235 6.61451 14.2432 5.5 12.5 5.5C10.2909 5.5 8.5 7.29086 8.5 9.5C8.5 11.0881 9.40692 11.9643 10.1525 12.5484L10.1695 12.5617L10.1871 12.5743L11.5001 13.5141C11.5076 14.0599 11.9524 14.5 12.5 14.5C13.0523 14.5 13.5 14.0523 13.5 13.5C13.5 12.8636 13.193 12.2662 12.6754 11.8958L11.3693 10.961C10.7945 10.5082 10.5 10.1483 10.5 9.5Z" fill="currentColor"/>
</svg>
