<svg width="24" height="24" viewBox="0 0 24 24" fill="none" xmlns="http://www.w3.org/2000/svg">
<path fill-rule="evenodd" clip-rule="evenodd" d="M16.8843 0.999957L17 0.999976L17.1158 0.999957C17.9334 0.999754 18.4907 0.999616 18.9755 1.09605C20.9589 1.49058 22.5094 3.04107 22.904 5.02452C23.0004 5.50933 23.0003 6.06661 23.0001 6.88422L23 6.99998L23.0001 7.11573C23.0003 7.93334 23.0004 8.49063 22.904 8.97543C22.5094 10.9589 20.9589 12.5094 18.9755 12.9039C18.4907 13.0003 17.9334 13.0002 17.1158 13L17 13L16.8843 13C16.0667 13.0002 15.5094 13.0003 15.0246 12.9039C13.0411 12.5094 11.4906 10.9589 11.0961 8.97543C10.9997 8.49063 10.9998 7.93335 11 7.11576V7.11574V7.11573L11 6.99998L11 6.88422V6.88421V6.8842C10.9998 6.0666 10.9997 5.50932 11.0961 5.02452C11.4906 3.04107 13.0411 1.49058 15.0246 1.09605C15.5094 0.999616 16.0667 0.999754 16.8843 0.999957ZM17 2.99998C16.0228 2.99998 15.6802 3.00482 15.4148 3.05762C14.2247 3.29434 13.2944 4.22463 13.0577 5.41471C13.0049 5.68015 13 6.02274 13 6.99998C13 7.97722 13.0049 8.3198 13.0577 8.58525C13.2944 9.77532 14.2247 10.7056 15.4148 10.9423C15.6802 10.9951 16.0228 11 17 11C17.9773 11 18.3199 10.9951 18.5853 10.9423C19.7754 10.7056 20.7057 9.77532 20.9424 8.58525C20.9952 8.3198 21 7.97722 21 6.99998C21 6.02274 20.9952 5.68015 20.9424 5.41471C20.7057 4.22463 19.7754 3.29434 18.5853 3.05762C18.3199 3.00482 17.9773 2.99998 17 2.99998ZM17 3.99998C17.5523 3.99998 18 4.44769 18 4.99998V6.58581L19.207 7.79293C19.5975 8.18348 19.5974 8.81665 19.2068 9.20714C18.8163 9.59763 18.1831 9.59758 17.7926 9.20703L16.2929 7.70703C16.1054 7.51949 16 7.26516 16 6.99998V4.99998C16 4.44769 16.4478 3.99998 17 3.99998ZM3.80001 1.99997L3.77687 1.99997C3.65776 1.99992 3.5155 1.99987 3.39018 2.0101C3.24496 2.02197 3.03697 2.05241 2.81903 2.16346C2.53678 2.30727 2.30731 2.53674 2.1635 2.81899C2.05245 3.03693 2.02201 3.24492 2.01015 3.39014C1.99991 3.51546 1.99996 3.65772 2.00001 3.77683L2.00001 3.79997V20.1999L2.00001 20.223C1.99996 20.3421 1.99991 20.4844 2.01015 20.6097C2.02201 20.7549 2.05245 20.9629 2.1635 21.1808C2.30731 21.4631 2.53678 21.6926 2.81903 21.8364C3.03697 21.9474 3.24496 21.9779 3.39018 21.9897C3.51546 22 3.65767 21.9999 3.77676 21.9999H3.77686L3.80001 21.9999H4.50001C5.0523 21.9999 5.50001 21.5521 5.50001 20.9999C5.50001 20.4476 5.0523 19.9999 4.50001 19.9999H4.00001V3.99997H4.50001C5.0523 3.99997 5.50001 3.55226 5.50001 2.99997C5.50001 2.44769 5.0523 1.99997 4.50001 1.99997H3.80001ZM7.50001 1.99997C6.94773 1.99997 6.50001 2.44769 6.50001 2.99997C6.50001 3.55226 6.94773 3.99997 7.50001 3.99997H8.50001C9.0523 3.99997 9.50001 3.55226 9.50001 2.99997C9.50001 2.44769 9.0523 1.99997 8.50001 1.99997H7.50001ZM22 14.9999C22 14.4476 21.5523 13.9999 21 13.9999C20.4477 13.9999 20 14.4476 20 14.9999L20 19.9999H19.5C18.9477 19.9999 18.5 20.4476 18.5 20.9999C18.5 21.5521 18.9477 21.9999 19.5 21.9999H21C21.5523 21.9999 22 21.5521 22 20.9999L22 14.9999ZM11.5001 19.9999C10.9478 19.9998 10.5 20.4475 10.5 20.9998C10.5 21.5521 10.9477 21.9998 11.5 21.9999L12.5 21.9999C13.0523 21.9999 13.5 21.5522 13.5 20.9999C13.5 20.4477 13.0523 19.9999 12.5001 19.9999L11.5001 19.9999ZM7.50001 19.9999C6.94773 19.9999 6.50001 20.4476 6.50001 20.9999C6.50001 21.5522 6.94773 21.9999 7.50001 21.9999H8.50001C9.0523 21.9999 9.50001 21.5522 9.50001 20.9999C9.50001 20.4476 9.0523 19.9999 8.50001 19.9999H7.50001ZM15.5 19.9999C14.9477 19.9999 14.5 20.4476 14.5 20.9999C14.5 21.5522 14.9477 21.9999 15.5 21.9999H16.5C17.0523 21.9999 17.5 21.5522 17.5 20.9999C17.5 20.4476 17.0523 19.9999 16.5 19.9999H15.5Z" fill="currentColor"/>
</svg>
