<svg width="24" height="24" viewBox="0 0 24 24" fill="none" xmlns="http://www.w3.org/2000/svg">
<path fill-rule="evenodd" clip-rule="evenodd" d="M12 4C16.4183 4 20 7.58172 20 12C20 13.9745 19.2323 15.8402 18 17.2694V14.5C18 13.9477 17.5523 13.5 17 13.5C16.4477 13.5 16 13.9477 16 14.5V19.5C16 20.0523 16.4477 20.5 17 20.5H22C22.5523 20.5 23 20.0523 23 19.5C23 18.9477 22.5523 18.5 22 18.5H19.5786C21.069 16.7378 22 14.4493 22 12C22 6.47715 17.5228 2 12 2C6.47715 2 2 6.47715 2 12C2 17.148 5.88912 21.3862 10.8901 21.939C11.4391 21.9997 11.9333 21.6039 11.9939 21.0549C12.0546 20.506 11.6588 20.0118 11.1099 19.9511C7.11098 19.5091 4 16.1172 4 12C4 7.58172 7.58172 4 12 4Z" fill="currentColor"/>
</svg>
