<svg width="24" height="24" viewBox="0 0 24 24" fill="none" xmlns="http://www.w3.org/2000/svg">
<path fill-rule="evenodd" clip-rule="evenodd" d="M12 4C16.4183 4 20 7.58172 20 12C20 13.9745 19.2323 15.8402 18 17.2694V14.5C18 13.9477 17.5523 13.5 17 13.5C16.4477 13.5 16 13.9477 16 14.5V19.5C16 20.0523 16.4477 20.5 17 20.5H22C22.5523 20.5 23 20.0523 23 19.5C23 18.9477 22.5523 18.5 22 18.5H19.5786C21.069 16.7378 22 14.4493 22 12C22 6.47715 17.5228 2 12 2C6.47715 2 2 6.47715 2 12C2 17.148 5.88912 21.3862 10.8901 21.939C11.4391 21.9997 11.9333 21.6039 11.9939 21.0549C12.0546 20.506 11.6588 20.0118 11.1099 19.9511C7.11098 19.5091 4 16.1172 4 12C4 7.58172 7.58172 4 12 4Z" fill="currentColor"/>
<path fill-rule="evenodd" clip-rule="evenodd" d="M11.8 10L11.7769 10C11.6578 9.99996 11.5155 9.99991 11.3902 10.0101C11.245 10.022 11.037 10.0525 10.819 10.1635C10.5368 10.3073 10.3073 10.5368 10.1635 10.819C10.0525 11.037 10.022 11.245 10.0101 11.3902C9.99991 11.5155 9.99996 11.6578 10 11.7769L10 11.8V12.2L10 12.2232C9.99996 12.3423 9.99991 12.4845 10.0101 12.6098C10.022 12.7551 10.0525 12.9631 10.1635 13.181C10.3073 13.4632 10.5368 13.6927 10.819 13.8365C11.037 13.9476 11.245 13.978 11.3902 13.9899C11.5155 14.0001 11.6577 14.0001 11.7769 14H11.7769L11.8 14H12.2L12.2232 14H12.2232C12.3423 14.0001 12.4845 14.0001 12.6098 13.9899C12.7551 13.978 12.9631 13.9476 13.181 13.8365C13.4632 13.6927 13.6927 13.4632 13.8365 13.181C13.9476 12.9631 13.978 12.7551 13.9899 12.6098C14.0001 12.4845 14.0001 12.3423 14 12.2232V12.2232L14 12.2V11.8L14 11.7769V11.7769C14.0001 11.6577 14.0001 11.5155 13.9899 11.3902C13.978 11.245 13.9476 11.037 13.8365 10.819C13.6927 10.5368 13.4632 10.3073 13.181 10.1635C12.9631 10.0525 12.7551 10.022 12.6098 10.0101C12.4845 9.99991 12.3423 9.99996 12.2232 10L12.2 10H11.8Z" fill="currentColor"/>
</svg>
