<svg width="24" height="24" viewBox="0 0 24 24" fill="none" xmlns="http://www.w3.org/2000/svg">
<path fill-rule="evenodd" clip-rule="evenodd" d="M11.9299 2L12 2.00001L12.0701 2H12.0702H12.0702C12.9323 1.99997 13.4417 1.99996 13.8822 2.04334C18.1552 2.4642 21.5358 5.84486 21.9567 10.1179C22.0001 10.5584 22 11.0678 22 11.93V12.0001V12.0702C22 12.9323 22.0001 13.4418 21.9567 13.8823C21.5358 18.1553 18.1552 21.5359 13.8822 21.9568C13.4416 22.0002 12.9322 22.0002 12.0701 22.0001H12H11.9299C11.0678 22.0002 10.5584 22.0002 10.1179 21.9568C5.84486 21.5359 2.4642 18.1553 2.04334 13.8823C1.99996 13.4418 1.99997 12.9324 2 12.0703V12.0702V12.0702L2.00001 12.0001L2 11.9299V11.9299V11.9298C1.99997 11.0677 1.99996 10.5584 2.04334 10.1179C2.4642 5.84486 5.84486 2.4642 10.1179 2.04334C10.5584 1.99996 11.0677 1.99997 11.9298 2H11.9298H11.9299ZM8 10C7.44772 10 7 10.4477 7 11V12C7 12.5523 7.44772 13 8 13H9C9.55229 13 10 12.5523 10 12V11C10 10.4477 9.55229 10 9 10H8ZM15 10C14.4477 10 14 10.4477 14 11V12C14 12.5523 14.4477 13 15 13H16C16.5523 13 17 12.5523 17 12V11C17 10.4477 16.5523 10 16 10H15ZM16.7071 16.2929C15.4771 15.0629 13.6985 14.5 12 14.5C10.3015 14.5 8.52287 15.0629 7.29289 16.2929C6.90237 16.6834 6.90237 17.3166 7.29289 17.7071C7.68342 18.0976 8.31658 18.0976 8.70711 17.7071C9.47713 16.9371 10.6985 16.5 12 16.5C13.3015 16.5 14.5229 16.9371 15.2929 17.7071C15.6834 18.0976 16.3166 18.0976 16.7071 17.7071C17.0976 17.3166 17.0976 16.6834 16.7071 16.2929Z" fill="currentColor"/>
</svg>
