<svg width="24" height="24" viewBox="0 0 24 24" fill="none" xmlns="http://www.w3.org/2000/svg">
<path fill-rule="evenodd" clip-rule="evenodd" d="M9.4 22H9.35719H9.35709H9.35649H9.3564C8.86201 22 8.41125 22 8 21.9945V22C8 22.5523 7.55229 23 7 23H6C5.44772 23 5 22.5523 5 22V21.5793C4.90885 21.5416 4.81891 21.5003 4.73005 21.455C3.78924 20.9757 3.02434 20.2108 2.54497 19.27C2.24318 18.6777 2.11737 18.0375 2.05782 17.3086C1.99998 16.6007 1.99999 15.7266 2 14.6428V14.6V14V10V9.4V9.35719V9.35719C1.99999 8.27341 1.99998 7.39925 2.05782 6.69138C2.11737 5.96253 2.24318 5.32234 2.54497 4.73005C3.02434 3.78924 3.78924 3.02433 4.73005 2.54497C5.32234 2.24318 5.96253 2.11737 6.69138 2.05782C7.39923 1.99998 8.27334 1.99999 9.35707 2H9.35717H9.4H14.6H14.6428H14.6429C15.7267 1.99999 16.6008 1.99998 17.3086 2.05782C18.0375 2.11737 18.6777 2.24318 19.27 2.54497C20.2108 3.02433 20.9757 3.78924 21.455 4.73005C21.7568 5.32234 21.8826 5.96253 21.9422 6.69138C21.9533 6.82699 21.9622 6.96871 21.9695 7.11683C22.2851 7.28497 22.5 7.61739 22.5 8V9C22.5 9.37014 22.2989 9.69331 22 9.86622V14.1338C22.2989 14.3067 22.5 14.6299 22.5 15V16C22.5 16.3826 22.2851 16.715 21.9695 16.8832C21.9622 17.0313 21.9533 17.173 21.9422 17.3086C21.8826 18.0375 21.7568 18.6777 21.455 19.27C20.9757 20.2108 20.2108 20.9757 19.27 21.455C19.1811 21.5003 19.0912 21.5416 19 21.5793V22C19 22.5523 18.5523 23 18 23H17C16.4477 23 16 22.5523 16 22V21.9945C15.5888 22 15.138 22 14.6436 22H14.6435H14.6429H14.6428H14.6H9.4ZM4.00012 9C4.00093 8.07314 4.00691 7.39601 4.05118 6.85424C4.10062 6.24907 4.19279 5.90138 4.32698 5.63803C4.6146 5.07354 5.07354 4.6146 5.63803 4.32698C5.90138 4.1928 6.24907 4.10062 6.85424 4.05118C7.47108 4.00078 8.26339 4 9.4 4H14.6C15.7366 4 16.5289 4.00078 17.1458 4.05118C17.7509 4.10062 18.0986 4.1928 18.362 4.32698C18.9265 4.6146 19.3854 5.07354 19.673 5.63803C19.8072 5.90138 19.8994 6.24907 19.9488 6.85424C19.9992 7.47108 20 8.26339 20 9.4V14.6C20 15.7366 19.9992 16.5289 19.9488 17.1458C19.8994 17.7509 19.8072 18.0986 19.673 18.362C19.3854 18.9265 18.9265 19.3854 18.362 19.673C18.0986 19.8072 17.7509 19.8994 17.1458 19.9488C16.5289 19.9992 15.7366 20 14.6 20H9.4C8.2634 20 7.47108 19.9992 6.85424 19.9488C6.24907 19.8994 5.90138 19.8072 5.63803 19.673C5.07354 19.3854 4.6146 18.9265 4.32698 18.362C4.19279 18.0986 4.10062 17.7509 4.05118 17.1458C4.00691 16.604 4.00093 15.9269 4.00012 15C4.55235 14.9999 5 14.5522 5 14V10C5 9.44776 4.55235 9.00007 4.00012 9ZM7.79289 7.79289C8.18342 7.40237 8.81658 7.40237 9.20711 7.79289L9.96803 8.55382C10.5635 8.20193 11.2582 8 12 8C12.7418 8 13.4365 8.20193 14.032 8.55382L14.7929 7.79289C15.1834 7.40237 15.8166 7.40237 16.2071 7.79289C16.5976 8.18342 16.5976 8.81658 16.2071 9.20711L15.4462 9.96803C15.7981 10.5635 16 11.2582 16 12C16 12.7418 15.7981 13.4365 15.4462 14.032L16.2071 14.7929C16.5976 15.1834 16.5976 15.8166 16.2071 16.2071C15.8166 16.5976 15.1834 16.5976 14.7929 16.2071L14.032 15.4462C13.4365 15.7981 12.7418 16 12 16C11.2582 16 10.5635 15.7981 9.96803 15.4462L9.20711 16.2071C8.81658 16.5976 8.18342 16.5976 7.79289 16.2071C7.40237 15.8166 7.40237 15.1834 7.79289 14.7929L8.55382 14.032C8.20193 13.4365 8 12.7418 8 12C8 11.2582 8.20193 10.5635 8.55382 9.96803L7.79289 9.20711C7.40237 8.81658 7.40237 8.18342 7.79289 7.79289ZM10 12C10 10.8954 10.8954 10 12 10C13.1046 10 14 10.8954 14 12C14 13.1046 13.1046 14 12 14C10.8954 14 10 13.1046 10 12Z" fill="currentColor"/>
</svg>
