<svg width="24" height="24" viewBox="0 0 24 24" fill="none" xmlns="http://www.w3.org/2000/svg">
<path fill-rule="evenodd" clip-rule="evenodd" d="M9.39995 22H9.35715H9.35704H9.35644H9.35635H9.35626H9.35617C8.86185 22 8.41115 22 7.99995 21.9945V22C7.99995 22.5523 7.55224 23 6.99995 23H5.99995C5.44767 23 4.99995 22.5523 4.99995 22V21.5793C4.9088 21.5416 4.81886 21.5003 4.73 21.455C3.78919 20.9757 3.02429 20.2108 2.54492 19.27C2.24313 18.6777 2.11732 18.0375 2.05777 17.3086C2.03638 17.0468 2.0229 16.7623 2.01441 16.4529C2.17148 16.4838 2.33382 16.5 2.49995 16.5C3.88066 16.5 4.99995 15.3807 4.99995 14V11C4.99995 9.61929 3.88066 8.5 2.49995 8.5C2.32908 8.5 2.16221 8.51715 2.00098 8.5498C2.00389 7.82794 2.01505 7.21429 2.05777 6.69138C2.11732 5.96253 2.24313 5.32234 2.54492 4.73005C3.02429 3.78924 3.78919 3.02433 4.73 2.54497C5.32229 2.24318 5.96248 2.11737 6.69133 2.05782C7.39918 1.99998 8.27328 1.99999 9.357 2H9.35701H9.35702H9.35712H9.39995H14.6H14.6428H14.6429H14.6429H14.6429C15.7266 1.99999 16.6007 1.99998 17.3086 2.05782C18.0374 2.11737 18.6776 2.24318 19.2699 2.54497C20.2107 3.02433 20.9756 3.78924 21.455 4.73005C21.7568 5.32234 21.8826 5.96253 21.9421 6.69138C21.9532 6.82699 21.9622 6.9687 21.9694 7.11683C22.2851 7.28497 22.5 7.61739 22.5 8V9C22.5 9.37014 22.2989 9.69331 22 9.86622V14.1338C22.2989 14.3067 22.5 14.6299 22.5 15V16C22.5 16.3826 22.2851 16.715 21.9694 16.8832C21.9622 17.0313 21.9532 17.173 21.9421 17.3086C21.8826 18.0375 21.7568 18.6777 21.455 19.27C20.9756 20.2108 20.2107 20.9757 19.2699 21.455C19.181 21.5003 19.0911 21.5416 19 21.5793V22C19 22.5523 18.5522 23 18 23H17C16.4477 23 16 22.5523 16 22V21.9945C15.5888 22 15.1381 22 14.6437 22H14.6436H14.6436H14.6435H14.6429H14.6428H14.6H9.39995ZM7.79285 7.79289C8.18337 7.40237 8.81653 7.40237 9.20706 7.79289L9.96798 8.55382C10.5635 8.20193 11.2581 8 12 8C12.7418 8 13.4364 8.20193 14.0319 8.55382L14.7928 7.79289C15.1834 7.40237 15.8165 7.40237 16.2071 7.79289C16.5976 8.18342 16.5976 8.81658 16.2071 9.20711L15.4461 9.96803C15.798 10.5635 16 11.2582 16 12C16 12.7418 15.798 13.4365 15.4461 14.032L16.2071 14.7929C16.5976 15.1834 16.5976 15.8166 16.2071 16.2071C15.8165 16.5976 15.1834 16.5976 14.7928 16.2071L14.0319 15.4462C13.4364 15.7981 12.7418 16 12 16C11.2581 16 10.5635 15.7981 9.96798 15.4462L9.20706 16.2071C8.81653 16.5976 8.18337 16.5976 7.79285 16.2071C7.40232 15.8166 7.40232 15.1834 7.79285 14.7929L8.55377 14.032C8.20188 13.4365 7.99995 12.7418 7.99995 12C7.99995 11.2582 8.20188 10.5635 8.55377 9.96803L7.79285 9.20711C7.40232 8.81658 7.40232 8.18342 7.79285 7.79289ZM12 10C10.8954 10 9.99995 10.8954 9.99995 12C9.99995 13.1046 10.8954 14 12 14C13.1045 14 14 13.1046 14 12C14 10.8954 13.1045 10 12 10ZM3.5 11C3.5 10.4477 3.05228 10 2.5 10C1.94772 10 1.5 10.4477 1.5 11V14C1.5 14.5523 1.94772 15 2.5 15C3.05228 15 3.5 14.5523 3.5 14V11Z" fill="currentColor"/>
</svg>
