<svg width="24" height="24" viewBox="0 0 24 24" fill="none" xmlns="http://www.w3.org/2000/svg">
<path fill-rule="evenodd" clip-rule="evenodd" d="M11.2546 3.96714C11.6112 3.87798 11.815 3.82798 11.9638 3.80446L11.984 3.80142L11.9859 3.82166C11.9992 3.97176 12.0001 4.18162 12.0001 4.54923V19.4507C12.0001 19.8183 11.9992 20.0282 11.9859 20.1783L11.984 20.1985L11.9638 20.1955C11.815 20.172 11.6112 20.122 11.2546 20.0328L5.6665 18.6358C4.70975 18.3966 4.52262 18.3302 4.4007 18.2389C4.25837 18.1323 4.14702 17.9897 4.07815 17.8258C4.01915 17.6854 4.00008 17.4877 4.00008 16.5015V7.49847C4.00008 6.51227 4.01915 6.31461 4.07815 6.17419C4.14702 6.01026 4.25837 5.86765 4.4007 5.76107C4.52262 5.66978 4.70976 5.60334 5.6665 5.36415L11.2546 3.96714ZM12.5907 1.86994C12.244 1.76281 11.9157 1.78724 11.6517 1.82897C11.4045 1.86803 11.1132 1.9409 10.8053 2.01789L10.7695 2.02685L5.18143 3.42387L5.02893 3.46182C4.31582 3.6389 3.69078 3.79411 3.20195 4.16014C2.77493 4.47988 2.4409 4.9077 2.23427 5.39951C1.99773 5.96253 1.99875 6.60655 1.99992 7.34131L2.00008 7.49847V16.5015L1.99992 16.6587C1.99875 17.3934 1.99773 18.0374 2.23427 18.6005C2.4409 19.0923 2.77493 19.5201 3.20195 19.8398C3.69078 20.2059 4.31582 20.3611 5.02892 20.5381L5.18143 20.5761L10.7695 21.9731L10.8053 21.9821C11.1131 22.0591 11.4045 22.1319 11.6517 22.171C11.9157 22.2127 12.244 22.2372 12.5907 22.13C13.0584 21.9855 13.4569 21.6743 13.7106 21.2556C13.8986 20.9453 13.9545 20.6209 13.9781 20.3546C14.0001 20.1053 14.0001 19.805 14.0001 19.4877L14.0001 19.4507V4.54923L14.0001 4.51226C14.0001 4.19497 14.0001 3.89463 13.9781 3.64541C13.9545 3.37908 13.8986 3.05468 13.7106 2.74438C13.4569 2.32564 13.0584 2.01451 12.5907 1.86994ZM20.0001 6.49998V17.5C20.0001 18.0523 20.4478 18.5 21.0001 18.5C21.5524 18.5 22.0001 18.0523 22.0001 17.5V6.49998C22.0001 5.9477 21.5524 5.49998 21.0001 5.49998C20.4478 5.49998 20.0001 5.9477 20.0001 6.49998ZM18.0001 4.49998C18.0001 3.9477 17.5524 3.49998 17.0001 3.49998C16.4478 3.49998 16.0001 3.9477 16.0001 4.49998L16.0001 19.5C16.0001 20.0523 16.4478 20.5 17.0001 20.5C17.5524 20.5 18.0001 20.0523 18.0001 19.5V4.49998Z" fill="currentColor"/>
</svg>
