<svg width="24" height="24" viewBox="0 0 24 24" fill="none" xmlns="http://www.w3.org/2000/svg">
<path fill-rule="evenodd" clip-rule="evenodd" d="M11.6515 1.82897C11.9156 1.78724 12.2439 1.76281 12.5905 1.86994C13.0583 2.01451 13.4568 2.32564 13.7105 2.74438C13.8985 3.05468 13.9544 3.37908 13.978 3.64541C14 3.89463 14 4.19497 14 4.51226L14 4.54923V19.4507L14 19.4877C14 19.805 14 20.1053 13.978 20.3546C13.9544 20.6209 13.8985 20.9453 13.7105 21.2556C13.4568 21.6743 13.0583 21.9855 12.5905 22.13C12.2439 22.2372 11.9156 22.2127 11.6515 22.171C11.4044 22.1319 11.113 22.0591 10.8052 21.9821L10.7694 21.9731L5.18131 20.5761L5.0288 20.5381C4.3157 20.3611 3.69066 20.2059 3.20183 19.8398C2.77481 19.5201 2.44078 19.0923 2.23415 18.6005C1.99761 18.0374 1.99863 17.3934 1.9998 16.6587L1.99996 16.5015V7.49847L1.9998 7.34131C1.99863 6.60655 1.99761 5.96253 2.23415 5.39951C2.44078 4.9077 2.77481 4.47988 3.20183 4.16014C3.69066 3.79411 4.3157 3.6389 5.02881 3.46182L5.18131 3.42387L10.7694 2.02685L10.8052 2.01789C11.113 1.9409 11.4044 1.86803 11.6515 1.82897ZM20 6.49998V17.5C20 18.0523 20.4477 18.5 21 18.5C21.5522 18.5 22 18.0523 22 17.5V6.49998C22 5.9477 21.5522 5.49998 21 5.49998C20.4477 5.49998 20 5.9477 20 6.49998ZM18 4.49998C18 3.9477 17.5522 3.49998 17 3.49998C16.4477 3.49998 16 3.9477 16 4.49998L16 19.5C16 20.0523 16.4477 20.5 17 20.5C17.5522 20.5 18 20.0523 18 19.5V4.49998Z" fill="currentColor"/>
</svg>
