<svg width="24" height="24" viewBox="0 0 24 24" fill="none" xmlns="http://www.w3.org/2000/svg">
<path fill-rule="evenodd" clip-rule="evenodd" d="M5 2C4.44772 2 4 2.44772 4 3C4 3.55228 4.44772 4 5 4V4.24863C5 7.13758 6.2489 9.87819 8.41263 11.7724L7.98137 12.1198C6.09616 13.6384 5 15.929 5 18.3498V20C4.44772 20 4 20.4477 4 21C4 21.5523 4.44772 22 5 22L6 22L18 22H19C19.5523 22 20 21.5523 20 21C20 20.4477 19.5523 20 19 20V18.3498C19 15.929 17.9038 13.6384 16.0186 12.1198L15.5874 11.7724C17.7511 9.87819 19 7.13759 19 4.24864L19 4C19.5523 4 20 3.55228 20 3C20 2.44772 19.5523 2 19 2H5ZM7 4.24863V4H17V4.24864C17 6.66943 15.9038 8.96003 14.0186 10.4787L13.3727 10.999C13.137 11.1889 13 11.4752 13 11.7778C13 12.0804 13.137 12.3667 13.3727 12.5565L14.764 13.6773C16.1779 14.8163 17 16.5342 17 18.3498V20H7V18.3498C7 16.5342 7.82212 14.8163 9.23602 13.6773L10.6273 12.5565C10.863 12.3667 11 12.0804 11 11.7778C11 11.4752 10.863 11.1889 10.6273 10.999L9.98136 10.4787C8.09616 8.96003 7 6.66943 7 4.24863ZM10 17C9.44772 17 9 17.4477 9 18C9 18.5523 9.44772 19 10 19H14C14.5523 19 15 18.5523 15 18C15 17.4477 14.5523 17 14 17H10Z" fill="currentColor"/>
</svg>
