<svg width="24" height="24" viewBox="0 0 24 24" fill="none" xmlns="http://www.w3.org/2000/svg">
<path fill-rule="evenodd" clip-rule="evenodd" d="M4 6C4 4.89543 4.89543 4 6 4H14.7574C15.2878 4 15.7965 4.21071 16.1716 4.58579L19.4142 7.82843C19.7893 8.2035 20 8.71221 20 9.24264V18C20 19.1046 19.1046 20 18 20V16C18 14.3431 16.6569 13 15 13H9C7.34315 13 6 14.3431 6 16V20C4.89543 20 4 19.1046 4 18V6ZM6 2C3.79086 2 2 3.79086 2 6V18C2 20.2091 3.79086 22 6 22H18C20.2091 22 22 20.2091 22 18V9.24264C22 8.18177 21.5786 7.16436 20.8284 6.41421L17.5858 3.17157C16.8356 2.42143 15.8182 2 14.7574 2H6ZM8 16C8 15.4477 8.44772 15 9 15H15C15.5523 15 16 15.4477 16 16V20H8V16ZM7 6C6.44772 6 6 6.44772 6 7V8C6 8.55228 6.44772 9 7 9H8C8.55228 9 9 8.55228 9 8V7C9 6.44772 8.55228 6 8 6H7Z" fill="currentColor"/>
</svg>
