<svg width="24" height="24" viewBox="0 0 24 24" fill="none" xmlns="http://www.w3.org/2000/svg">
<path fill-rule="evenodd" clip-rule="evenodd" d="M3 9.00001C3.55228 9.00001 4 8.5523 4 8.00001V2C4 1.44772 3.55228 1 3 1C2.44772 1 2 1.44772 2 2V8.00001C2 8.5523 2.44772 9.00001 3 9.00001ZM6 3.00001C6 2.44773 6.44772 2.00001 7 2.00001H14.7574C15.8182 2.00001 16.8356 2.42144 17.5858 3.17158L20.8284 6.41423C21.5786 7.16437 22 8.18179 22 9.24265V18C22 20.2092 20.2091 22 18 22H6C3.79086 22 2 20.2092 2 18V16.5C2 15.9477 2.44772 15.5 3 15.5C3.55228 15.5 4 15.9477 4 16.5V18C4 19.1046 4.89543 20 6 20V16C6 14.3432 7.34315 13 9 13H15C16.6569 13 18 14.3432 18 16V20C19.1046 20 20 19.1046 20 18V9.24265C20 8.71222 19.7893 8.20351 19.4142 7.82844L16.1716 4.5858C15.7965 4.21073 15.2878 4.00001 14.7574 4.00001H7C6.44772 4.00001 6 3.5523 6 3.00001ZM16 16C16 15.4477 15.5523 15 15 15H9C8.44772 15 8 15.4477 8 16V20H16V16ZM2.5 13.5C1.94772 13.5 1.5 13.0523 1.5 12.5V11.5C1.5 10.9477 1.94772 10.5 2.5 10.5H3.5C4.05228 10.5 4.5 10.9477 4.5 11.5V12.5C4.5 13.0523 4.05228 13.5 3.5 13.5H2.5Z" fill="currentColor"/>
</svg>
