<svg width="24" height="24" viewBox="0 0 24 24" fill="none" xmlns="http://www.w3.org/2000/svg">
<path fill-rule="evenodd" clip-rule="evenodd" d="M12.7226 3.5L11.2773 3.5L11.1938 3.71689L11.1805 3.75148L11.1805 3.75151C11.0018 4.21561 10.8472 4.61744 10.6928 4.9397C10.5294 5.28092 10.333 5.60689 10.0365 5.88365C9.59231 6.29836 9.03261 6.56838 8.43154 6.65797C8.0304 6.71775 7.65305 6.66857 7.28423 6.58414C6.93593 6.50441 6.52517 6.37536 6.05076 6.22631L6.05074 6.22631L6.01535 6.21519L5.87476 6.17102L4.95102 7.35915L5.12625 7.67192L5.14394 7.70349C5.37845 8.12201 5.58192 8.48515 5.72715 8.79952C5.88121 9.13302 6.00395 9.48114 6.03148 9.87421C6.07285 10.4647 5.9386 11.0542 5.64563 11.5686C5.45062 11.911 5.18925 12.1717 4.90598 12.4056C4.63894 12.626 4.29829 12.8653 3.90569 13.141L3.87608 13.1618L3.62109 13.3409L3.95523 14.8425L4.17075 14.8763L4.20687 14.8819C4.68848 14.9574 5.10597 15.0228 5.44757 15.1042C5.80966 15.1905 6.16382 15.3113 6.49294 15.5371C6.98682 15.8759 7.36797 16.3549 7.5873 16.9122C7.73347 17.2836 7.77162 17.6558 7.77444 18.0281C7.77711 18.3792 7.74713 18.8007 7.71254 19.287L7.71254 19.287L7.70995 19.3235L7.68698 19.6465L8.99926 20.2947L9.31198 19.9983C9.71281 19.6183 10.3457 19.6353 10.7257 20.0361C11.1056 20.4369 11.0887 21.0699 10.6879 21.4498L10.274 21.8421L10.2458 21.8693C10.1445 21.9674 9.93421 22.1712 9.66532 22.2828C9.43931 22.3766 9.19379 22.4137 8.95016 22.3908C8.66032 22.3636 8.39922 22.2311 8.27344 22.1672L8.27342 22.1672L8.2385 22.1496L6.68078 21.3802L6.64677 21.3637C6.5237 21.3045 6.26828 21.1817 6.07418 20.9763C5.91092 20.8035 5.79106 20.5944 5.72447 20.3662C5.64531 20.0949 5.6684 19.8125 5.67952 19.6763L5.68249 19.6387L5.71498 19.1816C5.75288 18.6485 5.7765 18.3062 5.7745 18.0432C5.7726 17.7926 5.74611 17.6951 5.72623 17.6446C5.65312 17.4588 5.52607 17.2992 5.36145 17.1862C5.31668 17.1555 5.22766 17.1078 4.98382 17.0497C4.72801 16.9887 4.38915 16.9349 3.86112 16.8521L3.51094 16.7973L3.47305 16.7916C3.3362 16.7717 3.05213 16.7303 2.80321 16.5896C2.59389 16.4713 2.41607 16.3045 2.28474 16.1031C2.12855 15.8636 2.06921 15.5827 2.04061 15.4474L2.03258 15.4099L1.63983 13.645L1.63139 13.6083C1.60049 13.476 1.53636 13.2015 1.57401 12.9228C1.60569 12.6883 1.69237 12.4647 1.82698 12.2701C1.98701 12.0388 2.21941 11.8793 2.33139 11.8024L2.36231 11.781L2.72659 11.5251C3.15724 11.2227 3.43297 11.0281 3.63256 10.8634C3.82259 10.7064 3.88103 10.6257 3.90776 10.5788C4.00541 10.4073 4.05016 10.2108 4.03637 10.014C4.0326 9.9601 4.01488 9.86201 3.91153 9.63828C3.80298 9.40332 3.63866 9.10859 3.38144 8.64948L3.14135 8.22095L3.12284 8.18849C3.05559 8.07135 2.91601 7.82823 2.87165 7.55197C2.83432 7.31956 2.85222 7.08163 2.92389 6.85742C3.00909 6.5909 3.18346 6.3714 3.26749 6.26564L3.29064 6.23631L4.3811 4.83375L4.40479 4.80278L4.40479 4.80278C4.4899 4.69082 4.66659 4.45839 4.91477 4.30771C5.1234 4.18105 5.35978 4.10721 5.6034 4.0926C5.89323 4.07521 6.1708 4.16574 6.30451 4.20934L6.34161 4.22131L6.61475 4.30712C7.13461 4.47043 7.46903 4.57471 7.73051 4.63457C7.98012 4.69171 8.08268 4.68787 8.13671 4.67982C8.33707 4.64995 8.52364 4.55995 8.67171 4.42171C8.71165 4.38443 8.77848 4.30654 8.88911 4.07561C9.00501 3.83369 9.13153 3.50703 9.32726 2.99849L9.46006 2.65344L9.47364 2.61734C9.52224 2.48689 9.62313 2.2161 9.81461 2.00146C9.97561 1.82099 10.1779 1.68212 10.4041 1.59669C10.6732 1.49509 10.9622 1.49821 11.1014 1.49971L11.1399 1.5L12.8599 1.5L12.8985 1.4997C13.0377 1.4982 13.3266 1.49509 13.5958 1.59669C13.822 1.68211 14.0243 1.82098 14.1853 2.00145C14.3767 2.2161 14.4776 2.48689 14.5262 2.61734L14.5398 2.65344L14.6726 2.99849C14.8683 3.50703 14.9949 3.83369 15.1107 4.07561C15.2214 4.30654 15.2882 4.38443 15.3282 4.42171C15.4762 4.55995 15.6628 4.64995 15.8631 4.67982C15.9172 4.68787 16.0197 4.69171 16.2694 4.63457C16.5308 4.57471 16.8653 4.47043 17.3851 4.30712L17.6583 4.22131L17.6954 4.20934C17.8291 4.16574 18.1066 4.07521 18.3965 4.0926C18.6401 4.10721 18.8765 4.18105 19.0851 4.30771C19.3333 4.45839 19.51 4.69082 19.5951 4.80278L19.6188 4.83375L20.7633 6.30587L20.7828 6.33065C20.8542 6.42071 21.0019 6.60729 21.0861 6.83254C21.1571 7.02255 21.1888 7.22499 21.1794 7.42762C21.1681 7.66782 21.0845 7.89064 21.0442 7.99821L21.0442 7.99822L21.0332 8.02779L20.1038 10.5744C20.3169 11.0262 20.1632 11.5761 19.7293 11.8477C19.2611 12.1407 18.6441 11.9987 18.3511 11.5305C18.062 11.0686 18.0022 10.4992 18.189 9.98729L19.1164 7.44609L18.1251 6.17102L17.9845 6.21518L17.9491 6.2263L17.9491 6.2263C17.4747 6.37536 17.0639 6.50441 16.7156 6.58414C16.3468 6.66857 15.9695 6.71775 15.5683 6.65797C14.9672 6.56838 14.4076 6.29836 13.9633 5.88365C13.6669 5.60688 13.4705 5.28092 13.307 4.93969C13.1527 4.61743 12.998 4.21559 12.8194 3.75147L12.8061 3.71689L12.7226 3.5ZM11.568 8.99999L11.5999 9H12.3999L12.4318 8.99999H12.4319C12.6842 8.99997 12.93 8.99994 13.1382 9.01694C13.3668 9.03562 13.6365 9.07969 13.9079 9.21798C14.2842 9.40973 14.5902 9.71569 14.7819 10.092C14.9202 10.3634 14.9643 10.6332 14.983 10.8618C15 11.0699 15 11.3157 14.9999 11.5681L14.9999 11.6V12.4L14.9999 12.4319C15 12.6843 15 12.9301 14.983 13.1382C14.9643 13.3668 14.9202 13.6366 14.7819 13.908C14.5902 14.2843 14.2842 14.5903 13.9079 14.782C13.6365 14.9203 13.3668 14.9644 13.1382 14.9831C12.93 15.0001 12.6842 15 12.4319 15H12.4318L12.3999 15H11.5999L11.568 15H11.568C11.3156 15 11.0698 15.0001 10.8617 14.9831C10.6331 14.9644 10.3634 14.9203 10.092 14.782C9.71563 14.5903 9.40967 14.2843 9.21792 13.908C9.07962 13.6366 9.03555 13.3668 9.01688 13.1382C8.99987 12.9301 8.9999 12.6843 8.99993 12.4319V12.4319L8.99993 12.4V11.6L8.99993 11.5681V11.5681C8.9999 11.3157 8.99987 11.0699 9.01688 10.8618C9.03555 10.6332 9.07962 10.3634 9.21792 10.092C9.40967 9.71569 9.71563 9.40973 10.092 9.21798C10.3634 9.07969 10.6331 9.03562 10.8617 9.01694C11.0698 8.99994 11.3156 8.99997 11.568 8.99999H11.568ZM11.0114 11.0114L11.0102 11.0246C11.0007 11.1412 10.9999 11.3035 10.9999 11.6V12.4C10.9999 12.6965 11.0007 12.8588 11.0102 12.9754L11.0114 12.9885L11.0246 12.9897C11.1412 12.9992 11.3034 13 11.5999 13H12.3999C12.6965 13 12.8587 12.9992 12.9753 12.9897L12.9885 12.9885L12.9896 12.9754C12.9992 12.8588 12.9999 12.6965 12.9999 12.4V11.6C12.9999 11.3035 12.9992 11.1412 12.9896 11.0246L12.9885 11.0114L12.9753 11.0103C12.8587 11.0008 12.6965 11 12.3999 11H11.5999C11.3034 11 11.1412 11.0008 11.0246 11.0103L11.0114 11.0114ZM17.3544 15.8906C18.3375 15.3886 19.5705 15.5507 20.3913 16.3714C21.4121 17.3922 21.4121 19.0473 20.3913 20.068C19.3705 21.0888 17.7154 21.0888 16.6947 20.068L16.4142 19.7876H17.2124C17.7646 19.7876 18.2124 19.3399 18.2124 18.7876C18.2124 18.2353 17.7646 17.7876 17.2124 17.7876L14 17.7876C13.4477 17.7876 13 18.2353 13 18.7876L13 22C13 22.5522 13.4477 23 14 23C14.5523 23 15 22.5522 15 22L15 21.2018L15.2804 21.4823C17.0823 23.2841 20.0036 23.2841 21.8055 21.4823C23.6073 19.6804 23.6073 16.7591 21.8055 14.9572C20.3537 13.5054 18.1774 13.2246 16.4448 14.1094C15.9529 14.3606 15.7578 14.9629 16.009 15.4548C16.2602 15.9467 16.8625 16.1418 17.3544 15.8906Z" fill="currentColor"/>
</svg>
