<svg width="24" height="24" viewBox="0 0 24 24" fill="none" xmlns="http://www.w3.org/2000/svg">
<path fill-rule="evenodd" clip-rule="evenodd" d="M9.20711 5.79289C8.81658 5.40236 8.18342 5.40236 7.79289 5.79289C7.40237 6.18341 7.40237 6.81658 7.79289 7.2071L10.7272 10.1414L10.7436 10.1578L10.7436 10.1578C10.8278 10.2421 10.9283 10.3427 11.0242 10.424C11.1352 10.5183 11.3038 10.6439 11.5365 10.7195C11.8377 10.8174 12.1623 10.8174 12.4635 10.7195C12.6962 10.6439 12.8648 10.5183 12.9758 10.424C13.0717 10.3427 13.1722 10.2421 13.2564 10.1578L13.2564 10.1578L13.2728 10.1414L16.2071 7.2071C16.5976 6.81657 16.5976 6.18341 16.2071 5.79289C15.8166 5.40236 15.1834 5.40236 14.7929 5.79289L13 7.58578V2C13 1.44771 12.5523 1 12 1C11.4477 1 11 1.44771 11 2V7.58578L9.20711 5.79289ZM7.20046 2.88175C7.30821 3.42343 6.95644 3.94988 6.41477 4.05763C5.22469 4.29435 4.2944 5.22464 4.05768 6.41471C4.00488 6.68016 4.00004 7.02274 4.00004 7.99998V9.49731L4.00004 9.49993V11.8C4.00004 12.3765 4.00082 12.7488 4.02397 13.0322C4.04616 13.3038 4.08384 13.4045 4.10903 13.454C4.20491 13.6421 4.35789 13.7951 4.54605 13.891C4.59549 13.9162 4.69621 13.9539 4.96788 13.9761C5.25121 13.9992 5.62349 14 6.20004 14H7.20004L7.2615 13.9999H7.26151C7.48838 13.9991 7.7739 13.9982 8.04927 14.0769C8.28772 14.145 8.51144 14.2568 8.70899 14.4067C8.93713 14.5799 9.10772 14.8088 9.24327 14.9907L9.28004 15.04L9.82004 15.76C9.91418 15.8855 9.96198 15.9487 9.99891 15.9928L10.0019 15.9963L10.0064 15.9966C10.0639 15.9997 10.1431 16 10.3 16H13.7C13.8569 16 13.9362 15.9997 13.9936 15.9966L13.9982 15.9963L14.0012 15.9928C14.0381 15.9487 14.0859 15.8855 14.18 15.76L14.72 15.04L14.7568 14.9907C14.8924 14.8088 15.063 14.5799 15.2911 14.4067C15.4886 14.2568 15.7124 14.145 15.9508 14.0769C16.2262 13.9982 16.5117 13.9991 16.7386 13.9999H16.7386L16.8 14H17.8C18.3766 14 18.7489 13.9992 19.0322 13.9761C19.3039 13.9539 19.4046 13.9162 19.454 13.891C19.6422 13.7951 19.7952 13.6421 19.891 13.454C19.9162 13.4045 19.9539 13.3038 19.9761 13.0322C19.9984 12.7588 20 12.4026 20 11.86V7.99999C20 7.02275 19.9952 6.68016 19.9424 6.41471C19.7057 5.22464 18.7754 4.29435 17.5853 4.05763C17.0436 3.94988 16.6919 3.42343 16.7996 2.88175C16.9074 2.34008 17.4338 1.98831 17.9755 2.09606C19.9589 2.49059 21.5094 4.04108 21.904 6.02453C22.0004 6.50933 22.0003 7.06662 22.0001 7.88421V7.88425L22 7.99999V9.49713L22 9.49993V11.8V11.8386L22 11.9359V14.6001V14.6429V14.643C22 15.7268 22.0001 16.6009 21.9422 17.3087C21.8827 18.0376 21.7569 18.6778 21.4551 19.2701C20.9757 20.2109 20.2108 20.9758 19.27 21.4551C18.6777 21.7569 18.0375 21.8827 17.3087 21.9423C16.6009 22.0001 15.7268 22.0001 14.6432 22.0001H14.6429H14.6H9.40004H9.3572H9.35691C8.27327 22.0001 7.39922 22.0001 6.69141 21.9423C5.96256 21.8827 5.32238 21.7569 4.73008 21.4551C3.78927 20.9758 3.02437 20.2109 2.545 19.2701C2.24322 18.6778 2.1174 18.0376 2.05785 17.3087C2.00002 16.6009 2.00003 15.7267 2.00004 14.6429L2.00004 14.6001V7.99998L2.00002 7.88423C1.99982 7.06662 1.99968 6.50934 2.09611 6.02453C2.49064 4.04108 4.04113 2.49059 6.02459 2.09606C6.56626 1.98831 7.09272 2.34008 7.20046 2.88175ZM4.05121 17.1459C4.02123 16.7789 4.00881 16.3497 4.00366 15.8229C4.26711 15.9073 4.53557 15.9474 4.80501 15.9694C5.17958 16 5.63435 16 6.1615 16L6.20004 16H7.20004C7.35693 16 7.43617 16.0003 7.49364 16.0034L7.49822 16.0036L7.50117 16.0071C7.5381 16.0513 7.58591 16.1145 7.68004 16.24L8.22004 16.96L8.25681 17.0092C8.39236 17.1912 8.56295 17.4201 8.79109 17.5932C8.98865 17.7431 9.21236 17.855 9.45081 17.9231C9.72618 18.0017 10.0117 18.0008 10.2386 18.0001L10.3 18H13.7L13.7615 18.0001C13.9884 18.0008 14.2739 18.0017 14.5493 17.9231C14.7877 17.855 15.0114 17.7431 15.209 17.5932C15.4371 17.4201 15.6077 17.1912 15.7433 17.0092L15.78 16.96L16.32 16.24C16.4142 16.1145 16.462 16.0513 16.4989 16.0071L16.5019 16.0036L16.5064 16.0034C16.5639 16.0003 16.6431 16 16.8 16H17.8L17.8386 16C18.3657 16 18.8205 16 19.1951 15.9694C19.4645 15.9474 19.733 15.9073 19.9964 15.8229C19.9913 16.3497 19.9788 16.7789 19.9489 17.1459C19.8994 17.751 19.8072 18.0987 19.6731 18.3621C19.3854 18.9266 18.9265 19.3855 18.362 19.6731C18.0987 19.8073 17.751 19.8995 17.1458 19.9489C16.529 19.9993 15.7366 20.0001 14.6 20.0001H9.40004C8.26343 20.0001 7.47112 19.9993 6.85428 19.9489C6.24911 19.8995 5.90142 19.8073 5.63807 19.6731C5.07358 19.3855 4.61464 18.9266 4.32702 18.3621C4.19283 18.0987 4.10066 17.751 4.05121 17.1459Z" fill="currentColor"/>
</svg>
