<svg width="24" height="24" viewBox="0 0 24 24" fill="none" xmlns="http://www.w3.org/2000/svg">
<path fill-rule="evenodd" clip-rule="evenodd" d="M11.2773 3.5L12.7226 3.5L12.8061 3.71689L12.8194 3.75147C12.998 4.21559 13.1527 4.61743 13.307 4.93969C13.4705 5.28092 13.6669 5.60688 13.9633 5.88365C14.4076 6.29836 14.9672 6.56838 15.5683 6.65797C15.9695 6.71775 16.3468 6.66857 16.7156 6.58414C17.064 6.50441 17.4747 6.37535 17.9492 6.22629L17.9845 6.21518L18.1251 6.17102L19.0488 7.35914L18.8736 7.67192L18.8559 7.70345C18.6214 8.12199 18.4179 8.48514 18.2727 8.79952C18.1186 9.13302 17.9959 9.48114 17.9684 9.87421C17.927 10.4647 18.0613 11.0542 18.3542 11.5686C18.5492 11.911 18.8106 12.1717 19.0939 12.4056C19.3609 12.626 19.7016 12.8653 20.0942 13.141L20.1238 13.1618L20.3788 13.3409L20.0446 14.8425L19.8291 14.8763L19.793 14.8819L19.7929 14.8819C19.3113 14.9574 18.8939 15.0228 18.5523 15.1042C18.1902 15.1905 17.836 15.3113 17.5069 15.5371C17.013 15.8759 16.6319 16.3549 16.4126 16.9122C16.2664 17.2836 16.2282 17.6558 16.2254 18.0281C16.2228 18.3792 16.2527 18.8008 16.2873 19.287L16.2899 19.3235L16.3129 19.6465L15.0006 20.2947L14.8893 20.1892L14.8623 20.1636L14.8622 20.1635C14.4981 19.8184 14.183 19.5197 13.9028 19.2936C13.6062 19.0542 13.2862 18.8431 12.8964 18.7211C12.3127 18.5383 11.6871 18.5383 11.1034 18.7211C10.7137 18.8431 10.3936 19.0542 10.097 19.2936C9.81683 19.5197 9.50176 19.8184 9.13767 20.1635L9.11054 20.1892L8.99926 20.2947L7.68698 19.6465L7.70995 19.3235L7.71254 19.287C7.74713 18.8007 7.77711 18.3792 7.77444 18.0281C7.77162 17.6558 7.73347 17.2836 7.5873 16.9122C7.36797 16.3549 6.98682 15.8759 6.49294 15.5371C6.16382 15.3113 5.80966 15.1905 5.44757 15.1042C5.10597 15.0228 4.68848 14.9574 4.20687 14.8819L4.17075 14.8763L3.95523 14.8425L3.62109 13.3409L3.87608 13.1618L3.90569 13.141C4.29829 12.8653 4.63894 12.626 4.90598 12.4056C5.18925 12.1717 5.45062 11.911 5.64563 11.5686C5.9386 11.0542 6.07285 10.4647 6.03148 9.87421C6.00395 9.48114 5.88122 9.13302 5.72715 8.79952C5.58192 8.48515 5.37845 8.12201 5.14394 7.70349L5.12625 7.67191L4.95102 7.35915L5.87476 6.17102L6.01535 6.21519L6.05075 6.22631L6.05076 6.22631C6.52517 6.37536 6.93593 6.50441 7.28423 6.58414C7.65305 6.66857 8.0304 6.71775 8.43154 6.65797C9.03262 6.56838 9.59231 6.29836 10.0365 5.88365C10.333 5.60689 10.5294 5.28092 10.6928 4.9397C10.8472 4.61745 11.0018 4.21561 11.1805 3.75151L11.1805 3.75148L11.1938 3.71689L11.2773 3.5ZM13.5958 1.59669C13.3266 1.49509 13.0377 1.4982 12.8985 1.4997L12.8599 1.5L11.1399 1.5L11.1014 1.49971C10.9622 1.49821 10.6732 1.49509 10.4041 1.59669C10.1779 1.68212 9.97561 1.82099 9.81461 2.00146C9.62313 2.2161 9.52224 2.48689 9.47364 2.61734L9.47364 2.61734L9.46006 2.65344L9.32726 2.99849C9.13153 3.50703 9.00501 3.83369 8.88912 4.07561C8.77848 4.30654 8.71165 4.38443 8.67171 4.42171C8.52364 4.55995 8.33707 4.64995 8.13672 4.67982C8.08268 4.68787 7.98012 4.69171 7.73051 4.63457C7.46903 4.57471 7.13461 4.47043 6.61475 4.30712L6.34161 4.22131L6.30451 4.20934C6.1708 4.16574 5.89323 4.07521 5.6034 4.0926C5.35978 4.10721 5.1234 4.18105 4.91477 4.30771C4.66659 4.45839 4.4899 4.69082 4.40479 4.80279L4.3811 4.83375L3.29064 6.23631L3.26749 6.26564C3.18346 6.3714 3.00909 6.5909 2.92389 6.85742C2.85222 7.08163 2.83432 7.31956 2.87165 7.55197C2.91601 7.82823 3.05559 8.07135 3.12284 8.18849L3.14135 8.22095L3.38144 8.64948C3.63866 9.10859 3.80298 9.40332 3.91153 9.63828C4.01488 9.86201 4.0326 9.9601 4.03637 10.014C4.05016 10.2108 4.00541 10.4073 3.90776 10.5788C3.88103 10.6257 3.82259 10.7064 3.63256 10.8634C3.43297 11.0281 3.15724 11.2227 2.72659 11.5251L2.36231 11.781L2.33139 11.8024C2.21941 11.8793 1.98701 12.0388 1.82698 12.2701C1.69237 12.4647 1.60569 12.6883 1.57401 12.9228C1.53636 13.2015 1.60049 13.476 1.63139 13.6083L1.63983 13.645L2.03258 15.4099L2.04061 15.4474C2.06921 15.5827 2.12855 15.8636 2.28474 16.1031C2.41607 16.3045 2.59389 16.4713 2.80321 16.5896C3.05213 16.7303 3.3362 16.7717 3.47305 16.7916L3.51094 16.7973L3.86112 16.8521C4.38915 16.9349 4.72801 16.9887 4.98382 17.0497C5.22766 17.1078 5.31668 17.1555 5.36145 17.1862C5.52607 17.2992 5.65312 17.4588 5.72623 17.6446C5.74611 17.6951 5.7726 17.7926 5.7745 18.0432C5.7765 18.3062 5.75288 18.6485 5.71498 19.1816L5.68249 19.6387L5.67952 19.6763C5.6684 19.8125 5.64531 20.0949 5.72447 20.3662C5.79106 20.5944 5.91092 20.8035 6.07418 20.9763C6.26828 21.1817 6.5237 21.3045 6.64677 21.3637L6.68078 21.3802L8.2385 22.1496L8.27342 22.1672L8.27344 22.1672C8.39922 22.2311 8.66032 22.3636 8.95016 22.3908C9.19379 22.4137 9.43932 22.3766 9.66532 22.2828C9.93421 22.1712 10.1445 21.9674 10.2458 21.8693L10.274 21.8421L10.4864 21.6407C10.8853 21.2626 11.1424 21.02 11.353 20.85C11.5542 20.6877 11.6488 20.646 11.7011 20.6297C11.8957 20.5687 12.1042 20.5687 12.2988 20.6297C12.351 20.646 12.4456 20.6877 12.6468 20.85C12.8574 21.02 13.1145 21.2626 13.5134 21.6407L13.7259 21.8421L13.7541 21.8693C13.8554 21.9674 14.0657 22.1712 14.3345 22.2828C14.5605 22.3766 14.8061 22.4137 15.0497 22.3908C15.3396 22.3636 15.6007 22.2311 15.7264 22.1672L15.7614 22.1496L17.3191 21.3802L17.3531 21.3637C17.4762 21.3045 17.7316 21.1817 17.9257 20.9763C18.0889 20.8035 18.2088 20.5944 18.2754 20.3662C18.3546 20.0949 18.3315 19.8125 18.3203 19.6763L18.3174 19.6387L18.2849 19.1816C18.247 18.6485 18.2234 18.3062 18.2254 18.0432C18.2273 17.7926 18.2537 17.6951 18.2736 17.6446C18.3467 17.4588 18.4738 17.2992 18.6384 17.1862C18.6832 17.1555 18.7722 17.1078 19.016 17.0497C19.2719 16.9887 19.6107 16.9349 20.1387 16.8521L20.4889 16.7973L20.5268 16.7916C20.6637 16.7717 20.9477 16.7303 21.1967 16.5896C21.406 16.4713 21.5838 16.3045 21.7151 16.1031C21.8713 15.8636 21.9307 15.5827 21.9592 15.4474L21.9673 15.4099L22.36 13.645L22.3685 13.6083C22.3994 13.4761 22.4635 13.2015 22.4258 12.9228C22.3942 12.6883 22.3075 12.4647 22.1729 12.2701C22.0128 12.0388 21.7804 11.8792 21.6685 11.8023L21.6376 11.781L21.2733 11.5251C20.8426 11.2227 20.5669 11.0281 20.3673 10.8633C20.1773 10.7064 20.1188 10.6257 20.0921 10.5788C19.9945 10.4073 19.9497 10.2108 19.9635 10.014C19.9673 9.9601 19.985 9.86201 20.0883 9.63828C20.1969 9.40332 20.3612 9.10859 20.6184 8.64948L20.8585 8.22095L20.877 8.1885C20.9443 8.07136 21.0839 7.82824 21.1282 7.55197C21.1655 7.31956 21.1476 7.08163 21.076 6.85742C20.9908 6.59089 20.8164 6.37139 20.7324 6.26563L20.7092 6.23631L19.6188 4.83375L19.5951 4.80278C19.51 4.69082 19.3333 4.45839 19.0851 4.30771C18.8765 4.18105 18.6401 4.10721 18.3965 4.0926C18.1066 4.07521 17.8291 4.16574 17.6954 4.20934L17.6583 4.22131L17.3851 4.30712C16.8653 4.47043 16.5308 4.57471 16.2694 4.63457C16.0197 4.69171 15.9172 4.68787 15.8631 4.67982C15.6628 4.64995 15.4762 4.55995 15.3281 4.42171C15.2882 4.38443 15.2214 4.30654 15.1107 4.07561C14.9949 3.83369 14.8683 3.50703 14.6726 2.99849L14.5398 2.65344L14.5262 2.61734C14.4776 2.48689 14.3767 2.2161 14.1853 2.00145C14.0243 1.82098 13.822 1.68211 13.5958 1.59669ZM11.5999 9L11.568 9H11.5679C11.3156 8.99997 11.0698 8.99994 10.8616 9.01695C10.633 9.03562 10.3633 9.07969 10.0919 9.21799C9.71556 9.40973 9.4096 9.71569 9.21785 10.092C9.07956 10.3634 9.03549 10.6332 9.01681 10.8618C8.99981 11.0699 8.99983 11.3157 8.99986 11.5681V11.5681L8.99987 11.6V12.4L8.99986 12.4319V12.4319C8.99983 12.6843 8.99981 12.9301 9.01681 13.1382C9.03549 13.3668 9.07956 13.6366 9.21785 13.908C9.4096 14.2843 9.71556 14.5903 10.0919 14.782C10.3633 14.9203 10.633 14.9644 10.8616 14.9831C11.0698 15.0001 11.3156 15 11.5679 15H11.568L11.5999 15H12.3999L12.4318 15H12.4318C12.6842 15 12.9299 15.0001 13.1381 14.9831C13.3667 14.9644 13.6364 14.9203 13.9078 14.782C14.2842 14.5903 14.5901 14.2843 14.7819 13.908C14.9202 13.6366 14.9642 13.3668 14.9829 13.1382C14.9999 12.9301 14.9999 12.6843 14.9999 12.4319L14.9999 12.4V11.6L14.9999 11.5681C14.9999 11.3157 14.9999 11.0699 14.9829 10.8618C14.9642 10.6332 14.9202 10.3634 14.7819 10.092C14.5901 9.71569 14.2842 9.40973 13.9078 9.21799C13.6364 9.07969 13.3667 9.03562 13.1381 9.01695C12.9299 8.99994 12.6842 8.99997 12.4318 9H12.4318L12.3999 9H11.5999ZM11.0102 11.0246L11.0113 11.0114L11.0245 11.0103C11.1411 11.0008 11.3033 11 11.5999 11H12.3999C12.6964 11 12.8586 11.0008 12.9752 11.0103L12.9884 11.0114L12.9896 11.0246C12.9991 11.1412 12.9999 11.3035 12.9999 11.6V12.4C12.9999 12.6965 12.9991 12.8588 12.9896 12.9754L12.9884 12.9886L12.9752 12.9897C12.8586 12.9992 12.6964 13 12.3999 13H11.5999C11.3033 13 11.1411 12.9992 11.0245 12.9897L11.0113 12.9886L11.0102 12.9754C11.0006 12.8588 10.9999 12.6965 10.9999 12.4V11.6C10.9999 11.3035 11.0006 11.1412 11.0102 11.0246Z" fill="currentColor"/>
</svg>
