<svg width="24" height="24" viewBox="0 0 24 24" fill="none" xmlns="http://www.w3.org/2000/svg">
<path fill-rule="evenodd" clip-rule="evenodd" d="M12.8985 1.4997C13.0377 1.4982 13.3266 1.49509 13.5958 1.59669C13.822 1.68211 14.0243 1.82098 14.1853 2.00145C14.3767 2.2161 14.4776 2.48689 14.5262 2.61734L14.5398 2.65344L14.6726 2.99849C14.8683 3.50703 14.9949 3.83369 15.1107 4.07561C15.2214 4.30654 15.2882 4.38443 15.3282 4.42171C15.4762 4.55995 15.6628 4.64995 15.8631 4.67982C15.9172 4.68787 16.0197 4.69171 16.2694 4.63457C16.5308 4.57471 16.8653 4.47043 17.3851 4.30712L17.6583 4.22131L17.6954 4.20934C17.8291 4.16574 18.1066 4.07521 18.3965 4.0926C18.6401 4.10721 18.8765 4.18105 19.0851 4.30771C19.3333 4.45839 19.51 4.69082 19.5951 4.80278L19.6188 4.83375L20.7092 6.23631L20.7324 6.26563C20.8164 6.37139 20.9908 6.59089 21.076 6.85742C21.1476 7.08163 21.1655 7.31956 21.1282 7.55197C21.0839 7.82824 20.9443 8.07136 20.877 8.1885L20.8585 8.22095L20.6184 8.64948C20.3612 9.10859 20.1969 9.40332 20.0883 9.63828C19.985 9.86201 19.9673 9.9601 19.9635 10.014C19.9497 10.2108 19.9945 10.4073 20.0921 10.5788C20.1188 10.6257 20.1773 10.7064 20.3673 10.8633C20.5669 11.0281 20.8426 11.2227 21.2733 11.5251L21.6375 11.781L21.6685 11.8023C21.7804 11.8792 22.0128 12.0388 22.1729 12.2701C22.3075 12.4647 22.3942 12.6883 22.4258 12.9228C22.4635 13.2015 22.3994 13.4761 22.3685 13.6083L22.36 13.645L21.9673 15.4099L21.9592 15.4474C21.9307 15.5827 21.8713 15.8636 21.7151 16.1031C21.5838 16.3045 21.406 16.4713 21.1967 16.5896C20.9477 16.7303 20.6637 16.7717 20.5268 16.7916L20.4889 16.7973L20.1387 16.8521C19.6107 16.9349 19.2719 16.9887 19.016 17.0497C18.7722 17.1078 18.6832 17.1555 18.6384 17.1862C18.4738 17.2992 18.3467 17.4588 18.2736 17.6446C18.2537 17.6951 18.2273 17.7926 18.2254 18.0432C18.2234 18.3062 18.247 18.6485 18.2849 19.1816L18.3174 19.6387L18.3203 19.6763C18.3315 19.8125 18.3546 20.0949 18.2754 20.3662C18.2088 20.5944 18.0889 20.8035 17.9257 20.9763C17.7316 21.1817 17.4762 21.3045 17.3531 21.3637L17.3191 21.3802L15.7614 22.1496L15.7264 22.1672C15.6007 22.2311 15.3396 22.3636 15.0497 22.3908C14.8061 22.4137 14.5605 22.3766 14.3345 22.2828C14.0657 22.1712 13.8554 21.9674 13.7541 21.8693L13.7259 21.8421L13.5134 21.6407C13.1145 21.2626 12.8574 21.02 12.6468 20.85C12.4457 20.6877 12.351 20.646 12.2988 20.6297C12.1042 20.5687 11.8957 20.5687 11.7011 20.6297C11.6488 20.646 11.5542 20.6877 11.353 20.85C11.1424 21.02 10.8853 21.2626 10.4864 21.6407L10.274 21.8421L10.2458 21.8693C10.1445 21.9674 9.93421 22.1712 9.66532 22.2828C9.43932 22.3766 9.19379 22.4137 8.95016 22.3908C8.66032 22.3636 8.39922 22.2311 8.27344 22.1672L8.27342 22.1672L8.2385 22.1496L6.68078 21.3802L6.64677 21.3637C6.5237 21.3045 6.26828 21.1817 6.07418 20.9763C5.91092 20.8035 5.79106 20.5944 5.72447 20.3662C5.64531 20.0949 5.6684 19.8125 5.67952 19.6763L5.68249 19.6387L5.71498 19.1816C5.75288 18.6485 5.7765 18.3062 5.7745 18.0432C5.7726 17.7926 5.74611 17.6951 5.72623 17.6446C5.65312 17.4588 5.52607 17.2992 5.36145 17.1862C5.31668 17.1555 5.22766 17.1078 4.98382 17.0497C4.72801 16.9887 4.38915 16.9349 3.86112 16.8521L3.51094 16.7973L3.47305 16.7916C3.3362 16.7717 3.05213 16.7303 2.80321 16.5896C2.59389 16.4713 2.41607 16.3045 2.28474 16.1031C2.12855 15.8636 2.06921 15.5827 2.04061 15.4474L2.03258 15.4099L1.63983 13.645L1.63139 13.6083C1.60049 13.476 1.53636 13.2015 1.57401 12.9228C1.60569 12.6883 1.69237 12.4647 1.82698 12.2701C1.98701 12.0388 2.21941 11.8793 2.33139 11.8024L2.36231 11.781L2.72659 11.5251C3.15724 11.2227 3.43297 11.0281 3.63256 10.8634C3.82259 10.7064 3.88103 10.6257 3.90776 10.5788C4.00541 10.4073 4.05016 10.2108 4.03637 10.014C4.0326 9.9601 4.01488 9.86201 3.91153 9.63828C3.80298 9.40332 3.63866 9.10859 3.38144 8.64948L3.14135 8.22095L3.12284 8.18849C3.05559 8.07135 2.91601 7.82823 2.87165 7.55197C2.83432 7.31956 2.85222 7.08163 2.92389 6.85742C3.00909 6.5909 3.18346 6.3714 3.26749 6.26564L3.29064 6.23631L4.3811 4.83375L4.40479 4.80279C4.4899 4.69082 4.66659 4.45839 4.91477 4.30771C5.1234 4.18105 5.35978 4.10721 5.6034 4.0926C5.89323 4.07521 6.1708 4.16574 6.30451 4.20934L6.34161 4.22131L6.61475 4.30712C7.13461 4.47043 7.46903 4.57471 7.73051 4.63457C7.98012 4.69171 8.08268 4.68787 8.13671 4.67982C8.33707 4.64995 8.52364 4.55995 8.67171 4.42171C8.71165 4.38443 8.77848 4.30654 8.88911 4.07561C9.00501 3.83369 9.13153 3.50703 9.32726 2.99849L9.46006 2.65344L9.47364 2.61734C9.52224 2.48689 9.62313 2.2161 9.81461 2.00146C9.97561 1.82099 10.1779 1.68212 10.4041 1.59669C10.6732 1.49509 10.9622 1.49821 11.1014 1.49971L11.1399 1.5L12.8599 1.5L12.8985 1.4997ZM11.5807 9.5H11.6H12.4H12.4193H12.4193C12.6829 9.49999 12.9102 9.49998 13.0975 9.51529C13.2952 9.53144 13.4918 9.56709 13.681 9.66349C13.9632 9.8073 14.1927 10.0368 14.3365 10.319C14.4329 10.5082 14.4686 10.7048 14.4847 10.9025C14.5 11.0898 14.5 11.3171 14.5 11.5807V11.5807V11.5807V11.6V12.4V12.4193V12.4193V12.4193C14.5 12.6829 14.5 12.9102 14.4847 13.0975C14.4686 13.2952 14.4329 13.4918 14.3365 13.681C14.1927 13.9632 13.9632 14.1927 13.681 14.3365C13.4918 14.4329 13.2952 14.4686 13.0975 14.4847C12.9102 14.5 12.6829 14.5 12.4193 14.5H12.4193H12.4193H12.4H11.6H11.5807H11.5807H11.5807C11.3171 14.5 11.0898 14.5 10.9025 14.4847C10.7048 14.4686 10.5082 14.4329 10.319 14.3365C10.0368 14.1927 9.8073 13.9632 9.66349 13.681C9.56709 13.4918 9.53144 13.2952 9.51529 13.0975C9.49998 12.9102 9.49999 12.6828 9.5 12.4193V12.4V11.6V11.5807C9.49999 11.3172 9.49998 11.0898 9.51529 10.9025C9.53144 10.7048 9.56709 10.5082 9.66349 10.319C9.8073 10.0368 10.0368 9.8073 10.319 9.66349C10.5082 9.56709 10.7048 9.53144 10.9025 9.51529C11.0898 9.49998 11.3171 9.49999 11.5807 9.5H11.5807Z" fill="currentColor"/>
</svg>
