<svg width="24" height="24" viewBox="0 0 24 24" fill="none" xmlns="http://www.w3.org/2000/svg">
<path fill-rule="evenodd" clip-rule="evenodd" d="M11.6 1.50001L11.5681 1.5L11.5681 1.5C11.3157 1.49997 11.0699 1.49994 10.8618 1.51695C10.6332 1.53563 10.3634 1.57969 10.092 1.71799C9.71569 1.90974 9.40973 2.2157 9.21799 2.59202C9.07969 2.86345 9.03562 3.13318 9.01694 3.36178C8.99994 3.56992 8.99997 3.8157 9 4.06807V4.06811L9 4.10001V4.90001L9 4.9319V4.93194C8.99997 5.18431 8.99994 5.43009 9.01694 5.63824C9.03562 5.86683 9.07969 6.13656 9.21799 6.40799C9.40973 6.78431 9.71569 7.09027 10.092 7.28202C10.3634 7.42032 10.6332 7.46438 10.8618 7.48306C10.9062 7.48669 10.9524 7.48955 11 7.49179V8.00001H10C6.13401 8.00001 3 11.134 3 15V16H2C1.73478 16 1.48043 16.1054 1.29289 16.2929C1.10536 16.4804 1 16.7348 1 17V18C1 18.5523 1.44771 19 2 19H3C3 20.6569 4.34315 22 6 22H18C19.6569 22 21 20.6569 21 19H22C22.5523 19 23 18.5523 23 18V17C23 16.4477 22.5523 16 22 16H21V15C21 11.134 17.866 8.00001 14 8.00001H13V7.49179C13.0476 7.48955 13.0938 7.48669 13.1382 7.48306C13.3668 7.46438 13.6366 7.42032 13.908 7.28202C14.2843 7.09027 14.5903 6.78431 14.782 6.40799C14.9203 6.13656 14.9644 5.86683 14.9831 5.63824C15.0001 5.43009 15 5.18431 15 4.93194V4.9319L15 4.90001V4.10001L15 4.06811V4.06807C15 3.8157 15.0001 3.56992 14.9831 3.36178C14.9644 3.13318 14.9203 2.86345 14.782 2.59202C14.5903 2.2157 14.2843 1.90974 13.908 1.71799C13.6366 1.57969 13.3668 1.53563 13.1382 1.51695C12.9301 1.49994 12.6843 1.49997 12.4319 1.5L12.4319 1.5L12.4 1.50001H11.6ZM10 10C7.23858 10 5 12.2386 5 15V17V18V19C5 19.5523 5.44771 20 6 20H18C18.5523 20 19 19.5523 19 19V18V17V15C19 12.2386 16.7614 10 14 10L12 10L10 10ZM11.0103 3.52464L11.0114 3.51145L11.0246 3.51031C11.1412 3.50078 11.3035 3.50001 11.6 3.50001H12.4C12.6965 3.50001 12.8588 3.50078 12.9754 3.51031L12.9886 3.51145L12.9897 3.52464C12.9992 3.64122 13 3.80348 13 4.10001V4.90001C13 5.19653 12.9992 5.35879 12.9897 5.47537L12.9886 5.48856L12.9754 5.4897C12.8588 5.49923 12.6965 5.50001 12.4 5.50001H12H11.6C11.3035 5.50001 11.1412 5.49923 11.0246 5.4897L11.0114 5.48856L11.0103 5.47537C11.0008 5.35879 11 5.19653 11 4.90001V4.10001C11 3.80348 11.0008 3.64122 11.0103 3.52464ZM14 16C14 15.4477 14.4477 15 15 15H16C16.5523 15 17 15.4477 17 16V17C17 17.5523 16.5523 18 16 18H15C14.4477 18 14 17.5523 14 17V16ZM8 15C7.44772 15 7 15.4477 7 16V17C7 17.5523 7.44772 18 8 18H9C9.55228 18 10 17.5523 10 17V16C10 15.4477 9.55228 15 9 15H8Z" fill="currentColor"/>
</svg>
