<svg width="24" height="24" viewBox="0 0 24 24" fill="none" xmlns="http://www.w3.org/2000/svg">
<path fill-rule="evenodd" clip-rule="evenodd" d="M11.9735 2L12 2.00001L12.0265 2H12.0266H12.0266C12.2366 1.99998 12.4412 1.99997 12.6152 2.01184C12.8056 2.02483 13.0313 2.0553 13.2654 2.15225C13.7554 2.35524 14.1448 2.74458 14.3478 3.23464C14.4447 3.46868 14.4752 3.69441 14.4882 3.88478C14.5 4.05886 14.5 4.26348 14.5 4.47353L14.5 4.50001L14.5 4.52649C14.5 4.73653 14.5 4.94115 14.4882 5.11523C14.4752 5.30561 14.4447 5.53133 14.3478 5.76537C14.1448 6.25543 13.7554 6.64478 13.2654 6.84777C13.0313 6.94471 12.8056 6.97518 12.6152 6.98817C12.4411 7.00005 12.2365 7.00003 12.0265 7.00001L12 7.00001L11.9735 7.00001C11.7635 7.00003 11.5589 7.00005 11.3848 6.98817C11.1944 6.97518 10.9687 6.94471 10.7346 6.84777C10.2446 6.64478 9.85523 6.25543 9.65224 5.76537C9.5553 5.53133 9.52482 5.30561 9.51183 5.11523C9.49996 4.94115 9.49998 4.73653 9.5 4.52648L9.5 4.50001L9.5 4.47353C9.49998 4.26349 9.49996 4.05886 9.51183 3.88478C9.52482 3.69441 9.5553 3.46868 9.65224 3.23464C9.85523 2.74458 10.2446 2.35524 10.7346 2.15225C10.9687 2.0553 11.1944 2.02483 11.3848 2.01184C11.5588 1.99997 11.7634 1.99998 11.9734 2H11.9734H11.9735ZM4 15C4 11.134 7.13401 8.00001 11 8.00001H13C16.866 8.00001 20 11.134 20 15V16H22C22.5523 16 23 16.4477 23 17V18C23 18.5523 22.5523 19 22 19H20C20 20.6569 18.6569 22 17 22H7C5.34315 22 4 20.6569 4 19H2C1.44772 19 1 18.5523 1 18V17C1 16.7348 1.10536 16.4804 1.29289 16.2929C1.48043 16.1054 1.73478 16 2 16H4V15ZM8 15C7.44772 15 7 15.4477 7 16V17C7 17.5523 7.44772 18 8 18H9C9.55228 18 10 17.5523 10 17V16C10 15.4477 9.55228 15 9 15H8ZM15 15C14.4477 15 14 15.4477 14 16V17C14 17.5523 14.4477 18 15 18H16C16.5523 18 17 17.5523 17 17V16C17 15.4477 16.5523 15 16 15H15Z" fill="url(#paint0_linear_2081_530)"/>
<defs>
<linearGradient id="paint0_linear_2081_530" x1="27.675" y1="9.5" x2="9.02843" y2="29.4892" gradientUnits="userSpaceOnUse">
<stop offset="0.300306" stop-color="#02B0CC"/>
<stop offset="1" stop-color="#FFCD51"/>
</linearGradient>
</defs>
</svg>
