<svg width="24" height="24" viewBox="0 0 24 24" fill="none" xmlns="http://www.w3.org/2000/svg">
<path fill-rule="evenodd" clip-rule="evenodd" d="M15.0591 6.50003C16.0139 5.84123 16.8412 5.01394 17.5 4.05913C18.1588 5.01394 18.9861 5.84123 19.9409 6.50003C18.9861 7.15885 18.1588 7.98613 17.5 8.94093C16.8412 7.98613 16.0139 7.15885 15.0591 6.50003ZM18.4195 1.60702C18.073 0.798523 16.9269 0.798589 16.5805 1.60702C15.8153 3.39252 14.3925 4.81529 12.607 5.58047C11.7983 5.92705 11.7988 7.07316 12.607 7.41955C14.3925 8.18479 15.8152 9.60754 16.5805 11.393C16.9269 12.2015 18.0731 12.2015 18.4195 11.393C19.1848 9.60754 20.6075 8.18479 22.393 7.41955C23.2016 7.07301 23.2013 5.92689 22.393 5.58047C20.6075 4.81529 19.1847 3.39252 18.4195 1.60702ZM4 6.00001C4 4.89544 4.89543 4.00001 6 4.00001H11.5C12.0523 4.00001 12.5 3.5523 12.5 3.00001C12.5 2.44773 12.0523 2.00001 11.5 2.00001H6C3.79086 2.00001 2 3.79087 2 6.00001V16.5C2 18.433 3.567 20 5.5 20H6.92893C7.9898 20 9.00721 20.4214 9.75736 21.1716L11.2929 22.7071C11.6834 23.0976 12.3166 23.0976 12.7071 22.7071L14.2426 21.1716C14.9928 20.4214 16.0102 20 17.0711 20H18.5C20.433 20 22 18.433 22 16.5V12.5C22 11.9477 21.5523 11.5 21 11.5C20.4477 11.5 20 11.9477 20 12.5V16.5C20 17.3284 19.3284 18 18.5 18H17.0711C15.4798 18 13.9536 18.6322 12.8284 19.7574L12 20.5858L11.1716 19.7574C10.0464 18.6322 8.52023 18 6.92893 18H5.5C4.67157 18 4 17.3284 4 16.5V6.00001Z" fill="currentColor"/>
</svg>
