<svg width="24" height="24" viewBox="0 0 24 24" fill="none" xmlns="http://www.w3.org/2000/svg">
<path fill-rule="evenodd" clip-rule="evenodd" d="M14.6 18H14.6428H14.6429C15.7266 18 16.6008 18 17.3086 17.9422C18.0375 17.8826 18.6777 17.7568 19.27 17.455C20.2108 16.9757 20.9757 16.2108 21.455 15.27C21.7568 14.6777 21.8826 14.0375 21.9422 13.3086C22 12.6008 22 11.7266 22 10.6429V10.6428V10.6V9.4V9.35719V9.35709C22 8.27335 22 7.39923 21.9422 6.69138C21.8826 5.96253 21.7568 5.32234 21.455 4.73005C20.9757 3.78924 20.2108 3.02433 19.27 2.54497C18.6777 2.24318 18.0375 2.11737 17.3086 2.05782C16.6007 1.99998 15.7266 1.99999 14.6428 2H14.6H13.4H13.3572C12.2734 1.99999 11.3993 1.99998 10.6914 2.05782C9.96253 2.11737 9.32234 2.24318 8.73005 2.54497C7.78924 3.02433 7.02433 3.78924 6.54497 4.73005C6.24318 5.32234 6.11737 5.96253 6.05782 6.69138C5.99998 7.39926 5.99999 8.27342 6 9.35722V9.4V10.6V10.6428C5.99999 11.7266 5.99998 12.6007 6.05782 13.3086C6.11737 14.0375 6.24318 14.6777 6.54497 15.27C7.02433 16.2108 7.78924 16.9757 8.73005 17.455C9.32234 17.7568 9.96253 17.8826 10.6914 17.9422C11.3992 18 12.2734 18 13.3571 18H13.3572H13.4H14.6ZM18.362 15.673C18.0986 15.8072 17.7509 15.8994 17.1458 15.9488C16.5289 15.9992 15.7366 16 14.6 16H13.4C12.2634 16 11.4711 15.9992 10.8542 15.9488C10.2491 15.8994 9.90138 15.8072 9.63803 15.673C9.07354 15.3854 8.6146 14.9265 8.32698 14.362C8.19279 14.0986 8.10062 13.7509 8.05118 13.1458C8.00078 12.5289 8 11.7366 8 10.6V9.4C8 8.26339 8.00078 7.47108 8.05118 6.85424C8.10062 6.24907 8.19279 5.90138 8.32698 5.63803C8.6146 5.07354 9.07354 4.6146 9.63803 4.32698C9.90138 4.19279 10.2491 4.10062 10.8542 4.05118C11.4711 4.00078 12.2634 4 13.4 4H14.6C15.7366 4 16.5289 4.00078 17.1458 4.05118C17.7509 4.10062 18.0986 4.19279 18.362 4.32698C18.9265 4.6146 19.3854 5.07354 19.673 5.63803C19.8072 5.90138 19.8994 6.24907 19.9488 6.85424C19.9992 7.47108 20 8.26339 20 9.4V10.6C20 11.7366 19.9992 12.5289 19.9488 13.1458C19.8994 13.7509 19.8072 14.0986 19.673 14.362C19.3854 14.9265 18.9265 15.3854 18.362 15.673ZM17.2071 8.20711C17.5976 7.81658 17.5976 7.18342 17.2071 6.79289C16.8166 6.40237 16.1834 6.40237 15.7929 6.79289L14 8.58579L12.2071 6.79289C11.8166 6.40237 11.1834 6.40237 10.7929 6.79289C10.4024 7.18342 10.4024 7.81658 10.7929 8.20711L12.5858 10L10.7929 11.7929C10.4024 12.1834 10.4024 12.8166 10.7929 13.2071C11.1834 13.5976 11.8166 13.5976 12.2071 13.2071L14 11.4142L15.7929 13.2071C16.1834 13.5976 16.8166 13.5976 17.2071 13.2071C17.5976 12.8166 17.5976 12.1834 17.2071 11.7929L15.4142 10L17.2071 8.20711ZM4.32698 8.63801C4.57771 8.14592 4.38205 7.54375 3.88997 7.29302C3.39788 7.04228 2.7957 7.23794 2.54497 7.73003C2.24318 8.32232 2.11737 8.96251 2.05782 9.69136C1.99998 10.3992 1.99999 11.2734 2 12.3572V12.4V14.6V14.6428C1.99999 15.7266 1.99998 16.6007 2.05782 17.3086C2.11737 18.0375 2.24318 18.6776 2.54497 19.2699C3.02434 20.2107 3.78924 20.9756 4.73005 21.455C5.32234 21.7568 5.96253 21.8826 6.69138 21.9422C7.39926 22 8.27342 22 9.35722 22H9.4H11.6H11.6428C12.7266 22 13.6007 22 14.3086 21.9422C15.0375 21.8826 15.6777 21.7568 16.27 21.455C16.762 21.2043 16.9577 20.6021 16.707 20.11C16.4562 19.6179 15.8541 19.4223 15.362 19.673C15.0986 19.8072 14.7509 19.8994 14.1458 19.9488C13.5289 19.9992 12.7366 20 11.6 20H9.4C8.26339 20 7.47108 19.9992 6.85424 19.9488C6.24907 19.8994 5.90139 19.8072 5.63803 19.673C5.07354 19.3854 4.6146 18.9264 4.32698 18.362C4.19279 18.0986 4.10062 17.7509 4.05118 17.1457C4.00078 16.5289 4 15.7366 4 14.6V12.4C4 11.2634 4.00078 10.4711 4.05118 9.85422C4.10062 9.24906 4.19279 8.90137 4.32698 8.63801Z" fill="currentColor"/>
</svg>
