<svg width="24" height="24" viewBox="0 0 24 24" fill="none" xmlns="http://www.w3.org/2000/svg">
<path fill-rule="evenodd" clip-rule="evenodd" d="M15.2071 9.29289C14.8166 8.90237 14.1834 8.90237 13.7929 9.29289C13.4024 9.68342 13.4024 10.3166 13.7929 10.7071L16.7272 13.6414L16.7436 13.6578L16.7436 13.6578C16.8278 13.7421 16.9283 13.8427 17.0242 13.9241C17.1352 14.0183 17.3038 14.1439 17.5365 14.2195C17.8377 14.3174 18.1623 14.3174 18.4635 14.2195C18.6962 14.1439 18.8648 14.0183 18.9758 13.9241C19.0717 13.8427 19.1722 13.7421 19.2564 13.6578L19.2728 13.6414L22.2071 10.7071C22.5976 10.3166 22.5976 9.68342 22.2071 9.29289C21.8166 8.90237 21.1834 8.90237 20.7929 9.29289L19 11.0858V3.5C19 2.94771 18.5523 2.5 18 2.5C17.4477 2.5 17 2.94771 17 3.5V11.0858L15.2071 9.29289ZM2 4C2 4.55228 2.44772 5 3 5H4.5C5.05228 5 5.5 4.55228 5.5 4C5.5 3.44772 5.05228 3 4.5 3H3C2.44772 3 2 3.44772 2 4ZM2 9C2 9.55228 2.44772 10 3 10H7C7.55228 10 8 9.55228 8 9C8 8.44772 7.55228 8 7 8H3C2.44772 8 2 8.44772 2 9ZM3 15C2.44772 15 2 14.5523 2 14C2 13.4477 2.44772 13 3 13H11.5C12.0523 13 12.5 13.4477 12.5 14C12.5 14.5523 12.0523 15 11.5 15H3ZM2 19C2 19.5523 2.44772 20 3 20H17C17.5523 20 18 19.5523 18 19C18 18.4477 17.5523 18 17 18H3C2.44772 18 2 18.4477 2 19Z" fill="currentColor"/>
</svg>
