<svg width="24" height="24" viewBox="0 0 24 24" fill="none" xmlns="http://www.w3.org/2000/svg">
<path fill-rule="evenodd" clip-rule="evenodd" d="M4 6C3.44772 6 3 6.44772 3 7C3 7.55228 3.44772 8 4 8H20C20.5523 8 21 7.55228 21 7C21 6.44772 20.5523 6 20 6H4ZM3 12C3 11.4477 3.44772 11 4 11H14C14.5523 11 15 11.4477 15 12C15 12.5523 14.5523 13 14 13H4C3.44772 13 3 12.5523 3 12ZM3 17C3 16.4477 3.44772 16 4 16H8C8.55228 16 9 16.4477 9 17C9 17.5523 8.55228 18 8 18H4C3.44772 18 3 17.5523 3 17Z" fill="currentColor"/>
</svg>
