<svg width="24" height="24" viewBox="0 0 24 24" fill="none" xmlns="http://www.w3.org/2000/svg">
<path fill-rule="evenodd" clip-rule="evenodd" d="M2 4C2 3.44772 2.44772 3 3 3H17C17.5523 3 18 3.44772 18 4C18 4.55228 17.5523 5 17 5H3C2.44772 5 2 4.55228 2 4ZM3 8C2.44772 8 2 8.44772 2 9C2 9.55228 2.44772 10 3 10H11.5C12.0523 10 12.5 9.55228 12.5 9C12.5 8.44772 12.0523 8 11.5 8H3ZM2 14C2 13.4477 2.44772 13 3 13H7C7.55228 13 8 13.4477 8 14C8 14.5523 7.55228 15 7 15H3C2.44772 15 2 14.5523 2 14ZM2 19C2 18.4477 2.44772 18 3 18H4.5C5.05228 18 5.5 18.4477 5.5 19C5.5 19.5523 5.05228 20 4.5 20H3C2.44772 20 2 19.5523 2 19ZM15.2071 15.7929C14.8166 15.4024 14.1834 15.4024 13.7929 15.7929C13.4024 16.1834 13.4024 16.8166 13.7929 17.2071L16.7272 20.1414L16.7436 20.1578L16.7436 20.1578C16.8278 20.2421 16.9283 20.3427 17.0242 20.4241C17.1352 20.5183 17.3038 20.6439 17.5365 20.7195C17.8377 20.8174 18.1623 20.8174 18.4635 20.7195C18.6962 20.6439 18.8648 20.5183 18.9758 20.424C19.0717 20.3427 19.1722 20.2421 19.2564 20.1578L19.2728 20.1414L22.2071 17.2071C22.5976 16.8166 22.5976 16.1834 22.2071 15.7929C21.8166 15.4024 21.1834 15.4024 20.7929 15.7929L19 17.5858V8.5C19 7.94772 18.5523 7.5 18 7.5C17.4477 7.5 17 7.94771 17 8.5V17.5858L15.2071 15.7929Z" fill="currentColor"/>
</svg>
