<svg width="24" height="24" viewBox="0 0 24 24" fill="none" xmlns="http://www.w3.org/2000/svg">
<path fill-rule="evenodd" clip-rule="evenodd" d="M3 7C3 7.55228 3.44772 8 4 8H8C8.55228 8 9 7.55228 9 7C9 6.44772 8.55228 6 8 6H4C3.44772 6 3 6.44772 3 7ZM3 12C3 12.5523 3.44772 13 4 13H14C14.5523 13 15 12.5523 15 12C15 11.4477 14.5523 11 14 11H4C3.44772 11 3 11.4477 3 12ZM4 18C3.44772 18 3 17.5523 3 17C3 16.4477 3.44772 16 4 16H20C20.5523 16 21 16.4477 21 17C21 17.5523 20.5523 18 20 18H4Z" fill="currentColor"/>
</svg>
