<svg width="24" height="24" viewBox="0 0 24 24" fill="none" xmlns="http://www.w3.org/2000/svg">
<path fill-rule="evenodd" clip-rule="evenodd" d="M12.6912 5.15074L11.9999 4.20025L11.6191 4.72387L11.5764 4.78258C10.8822 5.7372 10.4815 6.28814 10.0245 6.77835C8.9388 7.94273 7.61334 8.85757 6.13962 9.45971C5.5854 9.68615 5.00185 9.85333 4.07196 10.1078C5.0575 11.6563 5.62952 12.5589 6.01469 13.5412C6.35969 14.421 6.58986 15.3417 6.69952 16.2803C6.81926 17.3052 6.74521 18.3498 6.60983 20.1122L7.00071 19.992L7.10192 19.9608L7.10194 19.9608C8.75436 19.4523 9.7086 19.1587 10.6899 19.0409C11.5603 18.9365 12.4401 18.9365 13.3105 19.0409C14.2918 19.1587 15.246 19.4523 16.8984 19.9608L16.9996 19.992L17.3905 20.1122L17.3859 20.0524C17.2485 18.2679 17.1692 17.2374 17.2797 16.2215C17.3778 15.3205 17.5868 14.4351 17.902 13.5854C18.2574 12.6273 18.7891 11.7411 19.71 10.2063L19.71 10.2063L19.7665 10.1122L20.1424 9.48555C20.4265 9.01195 21.0408 8.85836 21.5144 9.14249C21.988 9.42662 22.1416 10.0409 21.8574 10.5145L21.4815 11.1411C20.4885 12.7963 20.0603 13.5177 19.7771 14.281C19.5192 14.9762 19.3482 15.7007 19.268 16.4378C19.1799 17.2472 19.2404 18.0839 19.3884 20.0085L19.4071 20.2517L19.4094 20.2815C19.4225 20.4513 19.437 20.6392 19.4348 20.8004C19.4325 20.9739 19.4127 21.2535 19.2566 21.5345C19.0652 21.8791 18.7458 22.1345 18.3675 22.2454C18.0591 22.3359 17.782 22.2937 17.6122 22.2579C17.4545 22.2246 17.2744 22.1691 17.1118 22.119L17.1117 22.119L17.0831 22.1102L16.4115 21.9035C14.6295 21.3552 13.8541 21.1205 13.0722 21.0267C12.3601 20.9413 11.6403 20.9413 10.9281 21.0267C10.1463 21.1205 9.37081 21.3552 7.58889 21.9035L6.91725 22.1102L6.88863 22.119C6.72593 22.1691 6.54582 22.2246 6.38816 22.2579C6.21829 22.2937 5.94119 22.3359 5.63281 22.2455C5.25455 22.1345 4.93517 21.8791 4.74374 21.5345C4.58745 21.2532 4.56785 20.973 4.56552 20.7997C4.56335 20.6383 4.57789 20.4501 4.59104 20.2797L4.59334 20.2498C4.74843 18.2328 4.81156 17.3557 4.71304 16.5124C4.62331 15.7444 4.43499 14.9912 4.15272 14.2713C3.84277 13.4808 3.37583 12.7391 2.2931 11.0377L2.15159 10.8153L2.14247 10.801C2.09166 10.7212 2.03434 10.6311 1.98882 10.5503C1.93967 10.4629 1.8669 10.3229 1.82544 10.1458C1.68474 9.54466 1.92674 8.91872 2.4352 8.56856C2.58505 8.46537 2.73308 8.41072 2.82818 8.37917C2.91627 8.34995 3.01925 8.32189 3.11053 8.29701L3.11055 8.29701L3.1269 8.29255C4.35508 7.95759 4.88888 7.81024 5.38316 7.60829C6.58893 7.11563 7.6734 6.36712 8.56166 5.41445C8.92579 5.02392 9.25288 4.57708 10.0016 3.54753L10.5442 2.80151L10.5611 2.77823C10.6553 2.64868 10.761 2.50316 10.8629 2.38661C10.9745 2.25898 11.162 2.06856 11.448 1.95539C11.8026 1.81508 12.1973 1.81508 12.5518 1.95539C12.8378 2.06856 13.0254 2.25898 13.1369 2.38661C13.2388 2.50315 13.3446 2.64866 13.4387 2.7782L13.4387 2.77823L13.4557 2.8015L14.3087 3.9744C14.6335 4.42105 14.5348 5.04646 14.0881 5.3713C13.6414 5.69614 13.016 5.59739 12.6912 5.15074ZM12.9995 9.50002C12.9235 9.57602 12.8602 9.66377 12.8122 9.75991L11.3999 12.5845C11.2691 12.8461 11.2037 12.9769 11.2259 13.0524C11.245 13.1176 11.2961 13.1687 11.3614 13.1879C11.4368 13.21 11.5676 13.1446 11.8292 13.0139L14.6538 11.6015C14.75 11.5535 14.8377 11.4902 14.9137 11.4142L21.4566 4.95712C21.9852 4.42852 21.9852 3.5715 21.4566 3.0429C20.928 2.51431 20.071 2.51431 19.5424 3.0429L12.9995 9.50002Z" fill="currentColor"/>
</svg>
