<svg width="24" height="24" viewBox="0 0 24 24" fill="none" xmlns="http://www.w3.org/2000/svg">
<path fill-rule="evenodd" clip-rule="evenodd" d="M12 9.00001C12.5523 9.00001 13 8.5523 13 8.00001V2C13 1.44772 12.5523 1 12 1C11.4477 1 11 1.44772 11 2V8.00001C11 8.5523 11.4477 9.00001 12 9.00001ZM8.83207 6.44531C9.13843 6.90484 9.01425 7.52571 8.55472 7.83206C7.23318 8.71309 5.6862 9.3747 4.00888 10.0084L4.04217 10.0607C5.04605 11.6381 5.62574 12.549 6.01478 13.5411C6.35978 14.421 6.58995 15.3416 6.69962 16.2803C6.81936 17.3052 6.74531 18.3497 6.60992 20.1122L7.00081 19.9919L7.10205 19.9608L7.10208 19.9608C8.75447 19.4523 9.7087 19.1586 10.69 19.0409C11.5604 18.9365 12.4401 18.9365 13.3105 19.0409C14.2918 19.1586 15.2461 19.4523 16.8985 19.9608L16.9997 19.9919L17.3906 20.1122C17.2551 18.3498 17.181 17.3052 17.3007 16.2803C17.4104 15.3416 17.6405 14.421 17.9855 13.5411C18.3745 12.5489 18.9541 11.6381 19.958 10.0607L20.0033 9.98947C18.7186 9.47504 16.5357 8.55897 15.4453 7.83206C14.9858 7.52571 14.8616 6.90484 15.168 6.44531C15.4743 5.98578 16.0952 5.86161 16.5547 6.16796C17.495 6.7948 19.6477 7.69691 20.9508 8.21412L20.9756 8.22398C21.1126 8.27832 21.2677 8.33982 21.3968 8.40417C21.5388 8.47499 21.7537 8.59785 21.9299 8.82245C22.1501 9.1033 22.2622 9.44964 22.2484 9.80629C22.2374 10.0903 22.1363 10.3149 22.0626 10.4561C21.996 10.5835 21.9068 10.7235 21.8285 10.8466L21.8142 10.8691L21.707 11.0375C20.6243 12.739 20.1574 13.4807 19.8475 14.2712C19.5652 14.9911 19.3769 15.7443 19.2872 16.5123C19.1887 17.3556 19.2519 18.2327 19.407 20.2497L19.4094 20.2796C19.4225 20.4499 19.4371 20.6382 19.4349 20.7995C19.4326 20.9729 19.413 21.2531 19.2567 21.5344C19.0653 21.879 18.7459 22.1344 18.3676 22.2454C18.0592 22.3358 17.7821 22.2937 17.6123 22.2578C17.4546 22.2245 17.2745 22.169 17.1118 22.1189L17.0831 22.1101L16.4116 21.9035C14.6296 21.3552 13.8542 21.1204 13.0723 21.0266C12.3602 20.9412 11.6404 20.9412 10.9282 21.0266C10.1464 21.1204 9.3709 21.3552 7.58898 21.9035L6.91734 22.1101L6.88872 22.1189L6.88865 22.119L6.88854 22.119C6.72589 22.1691 6.54585 22.2246 6.38825 22.2578C6.21838 22.2937 5.94128 22.3359 5.63291 22.2454C5.25465 22.1345 4.93527 21.8791 4.74384 21.5345C4.58754 21.2531 4.56795 20.973 4.56562 20.7996C4.56345 20.6383 4.57798 20.45 4.59113 20.2796L4.59344 20.2497C4.74852 18.2327 4.81165 17.3556 4.71313 16.5124C4.6234 15.7444 4.43508 14.9911 4.15281 14.2713C3.84286 13.4808 3.37593 12.7391 2.2932 11.0376L2.19139 10.8777L2.17693 10.8549C2.09842 10.7317 2.00864 10.5907 1.9417 10.4621C1.86709 10.3187 1.76621 10.0922 1.7568 9.80592C1.74496 9.44576 1.86236 9.09508 2.08866 8.81465C2.26925 8.59086 2.48747 8.47068 2.63295 8.40144C2.76423 8.33897 2.9215 8.2802 3.05975 8.22854L3.08504 8.21908C4.82936 7.5666 6.26991 6.95157 7.44532 6.16796C7.90485 5.86161 8.52572 5.98578 8.83207 6.44531ZM11.5 13.5C10.9477 13.5 10.5 13.0523 10.5 12.5V11.5C10.5 10.9477 10.9477 10.5 11.5 10.5H12.5C13.0523 10.5 13.5 10.9477 13.5 11.5V12.5C13.5 13.0523 13.0523 13.5 12.5 13.5H11.5Z" fill="currentColor"/>
</svg>
