<svg width="24" height="24" viewBox="0 0 24 24" fill="none" xmlns="http://www.w3.org/2000/svg">
<path fill-rule="evenodd" clip-rule="evenodd" d="M12.5521 1.95539C12.1975 1.81508 11.8028 1.81508 11.4483 1.95539C11.1623 2.06856 10.9747 2.25898 10.8632 2.38661C10.7613 2.50315 10.6555 2.64866 10.5614 2.77821L10.5614 2.77823L10.5444 2.8015L10.0019 3.54753C9.25312 4.57708 8.92604 5.02392 8.56191 5.41445C7.67364 6.36712 6.58918 7.11563 5.38341 7.60829C4.88912 7.81024 4.35533 7.95759 3.12714 8.29255L3.11079 8.29701L3.11078 8.29701C3.0195 8.32189 2.91652 8.34995 2.82843 8.37917C2.73332 8.41072 2.5853 8.46537 2.43545 8.56856C1.92698 8.91872 1.68499 9.54466 1.82568 10.1458C1.86714 10.3229 1.93992 10.4629 1.98907 10.5503C2.03459 10.6311 2.09191 10.7212 2.14271 10.801L2.15183 10.8153L2.29335 11.0377C3.37608 12.7391 3.84301 13.4808 4.15296 14.2713C4.43523 14.9912 4.62355 15.7444 4.71328 16.5124C4.8118 17.3557 4.74867 18.2328 4.59359 20.2498L4.59128 20.2797C4.57813 20.4501 4.5636 20.6383 4.56577 20.7997C4.5681 20.973 4.58769 21.2532 4.74399 21.5345C4.93542 21.8791 5.2548 22.1345 5.63306 22.2455C5.94143 22.3359 6.21854 22.2937 6.3884 22.2579C6.54607 22.2246 6.72618 22.1691 6.88888 22.119L6.91749 22.1102L7.58913 21.9035C9.37105 21.3552 10.1465 21.1205 10.9284 21.0267C11.6405 20.9413 12.3603 20.9413 13.0725 21.0267C13.8543 21.1205 14.6298 21.3552 16.4117 21.9035L17.0833 22.1102L17.1119 22.119L17.112 22.119C17.2747 22.1691 17.4548 22.2246 17.6124 22.2579C17.7823 22.2937 18.0594 22.3359 18.3678 22.2454C18.746 22.1345 19.0654 21.8791 19.2568 21.5345C19.4131 21.2531 19.4327 20.973 19.435 20.7996C19.4372 20.6383 19.4227 20.45 19.4095 20.2796L19.4072 20.2497C19.252 18.2327 19.1889 17.3557 19.2874 16.5124C19.3771 15.7444 19.5654 14.9911 19.8476 14.2712C20.1575 13.4808 20.6245 12.739 21.7071 11.0375L21.8486 10.8153L21.8576 10.801L21.8577 10.801C21.9085 10.7211 21.9658 10.6311 22.0113 10.5502C22.0605 10.4629 22.1332 10.3229 22.1747 10.1457C22.3154 9.54463 22.0734 8.91872 21.5649 8.56857C21.4151 8.46537 21.267 8.41073 21.1719 8.37918C21.0838 8.34996 20.9809 8.32189 20.8896 8.29702L20.8732 8.29256C19.645 7.95759 19.1112 7.81024 18.6169 7.60828C17.4112 7.11562 16.3267 6.36712 15.4385 5.41446C15.0743 5.02393 14.7472 4.57708 13.9984 3.5475L13.4559 2.8015L13.439 2.77823L13.439 2.7782C13.3448 2.64866 13.2391 2.50315 13.1372 2.38661C13.0256 2.25898 12.8381 2.06856 12.5521 1.95539Z" fill="currentColor"/>
</svg>
