<svg width="24" height="24" viewBox="0 0 24 24" fill="none" xmlns="http://www.w3.org/2000/svg">
<path fill-rule="evenodd" clip-rule="evenodd" d="M11.4483 1.95539C11.8028 1.81508 12.1975 1.81508 12.5521 1.95539C12.8381 2.06856 13.0256 2.25898 13.1372 2.38661C13.2391 2.50315 13.3448 2.64866 13.439 2.7782L13.439 2.77823L13.4559 2.8015L13.9984 3.5475C14.7472 4.57708 15.0743 5.02393 15.4385 5.41446C15.7896 5.79111 16.1715 6.13585 16.5794 6.44548L11.4529 13.3814L9.76822 11.3598C9.41466 10.9355 8.78409 10.8782 8.35982 11.2318C7.93554 11.5853 7.87821 12.2159 8.23178 12.6402L10.0795 14.8574L10.0971 14.8785C10.1925 14.9931 10.3015 15.124 10.4056 15.2286C10.5215 15.3451 10.7104 15.5129 10.9862 15.6083C11.3321 15.728 11.7099 15.717 12.0484 15.5774C12.3182 15.4661 12.497 15.2876 12.6059 15.1645C12.7037 15.054 12.8049 14.9171 12.8935 14.7971L12.9098 14.775L18.306 7.47434C18.3101 7.47621 18.3142 7.47807 18.3183 7.47993L19.5433 5.80031L20.2724 4.8138C20.6129 4.45195 21.1774 4.3917 21.5893 4.69205C22.0355 5.01748 22.1334 5.64303 21.808 6.08925L20.3128 8.13928C20.4823 8.18589 20.6681 8.23661 20.8732 8.29256L20.8896 8.29702C20.9809 8.32189 21.0838 8.34996 21.1719 8.37918C21.267 8.41073 21.4151 8.46537 21.5649 8.56857C22.0734 8.91872 22.3154 9.54463 22.1747 10.1457C22.1332 10.3229 22.0605 10.4629 22.0113 10.5502C21.9658 10.6311 21.9085 10.7211 21.8577 10.801L21.8576 10.801L21.8486 10.8153L21.7071 11.0375C20.6245 12.739 20.1575 13.4808 19.8476 14.2712C19.5654 14.9911 19.3771 15.7444 19.2874 16.5124C19.1889 17.3557 19.252 18.2327 19.4072 20.2497L19.4095 20.2796C19.4227 20.45 19.4372 20.6383 19.435 20.7996C19.4327 20.973 19.4131 21.2531 19.2568 21.5345C19.0654 21.8791 18.746 22.1345 18.3678 22.2454C18.0594 22.3359 17.7823 22.2937 17.6124 22.2579C17.4548 22.2246 17.2747 22.1691 17.1121 22.119L17.112 22.119L17.1119 22.119L17.0833 22.1102L16.4117 21.9035C14.6298 21.3552 13.8543 21.1205 13.0725 21.0267C12.3603 20.9413 11.6405 20.9413 10.9284 21.0267C10.1465 21.1205 9.37105 21.3552 7.58913 21.9035L6.91749 22.1102L6.88888 22.119C6.72618 22.1691 6.54607 22.2246 6.3884 22.2579C6.21854 22.2937 5.94143 22.3359 5.63306 22.2455C5.2548 22.1345 4.93542 21.8791 4.74399 21.5345C4.58769 21.2532 4.5681 20.973 4.56577 20.7997C4.5636 20.6383 4.57813 20.4501 4.59128 20.2797L4.59359 20.2498C4.74867 18.2328 4.8118 17.3557 4.71328 16.5124C4.62355 15.7444 4.43523 14.9912 4.15296 14.2713C3.84301 13.4808 3.37608 12.7391 2.29335 11.0377L2.15183 10.8153L2.14271 10.801C2.09191 10.7212 2.03459 10.6311 1.98907 10.5503C1.93992 10.4629 1.86714 10.3229 1.82568 10.1458C1.68499 9.54466 1.92698 8.91872 2.43545 8.56856C2.5853 8.46537 2.73332 8.41072 2.82843 8.37917C2.91652 8.34995 3.0195 8.32189 3.11078 8.29701L3.11079 8.29701L3.12714 8.29255C4.35533 7.95759 4.88912 7.81024 5.38341 7.60829C6.58918 7.11563 7.67364 6.36712 8.56191 5.41445C8.92604 5.02392 9.25312 4.57708 10.0019 3.54753L10.5444 2.8015L10.5614 2.77823L10.5614 2.77821C10.6555 2.64866 10.7613 2.50315 10.8632 2.38661C10.9747 2.25898 11.1623 2.06856 11.4483 1.95539Z" fill="currentColor"/>
</svg>
