<svg width="24" height="24" viewBox="0 0 24 24" fill="none" xmlns="http://www.w3.org/2000/svg">
<path fill-rule="evenodd" clip-rule="evenodd" d="M12.7436 2.16144C12.2741 1.93308 11.7258 1.93308 11.2563 2.16144C10.9949 2.28859 10.8158 2.47487 10.6964 2.61475C10.5848 2.74549 10.4654 2.90973 10.3481 3.07106L10.3481 3.07108L10.331 3.09458L9.61017 4.08578C9.25555 4.57338 9.10093 4.78534 8.94075 4.98083C7.86804 6.29007 6.44788 7.27028 4.8433 7.80894C4.60371 7.88937 4.35069 7.95877 3.76902 8.11741L3.72401 8.12962C3.57399 8.17024 3.39543 8.21858 3.24585 8.28643C2.25318 8.73669 1.80386 9.89891 2.2355 10.8998C2.30054 11.0506 2.40014 11.2065 2.48382 11.3375L2.50892 11.3768L2.84095 11.8986C3.60071 13.0925 3.9292 13.6126 4.17896 14.1566C4.54785 14.96 4.79636 15.8134 4.91647 16.6893C4.9978 17.2823 4.99993 17.8975 4.99993 19.3126L4.99993 19.3442C4.99991 19.6334 4.99989 19.9024 5.0161 20.1242C5.03296 20.355 5.07256 20.6443 5.21611 20.9274C5.52815 21.5429 6.13538 21.954 6.82267 22.0151C7.13887 22.0433 7.42223 21.9726 7.64274 21.9025C7.85475 21.8352 8.10442 21.7353 8.37296 21.6279L8.4023 21.6161L10.3716 20.8284C10.8843 20.6233 11.1338 20.0413 10.9286 19.5286C10.7235 19.0158 10.1416 18.7664 9.62878 18.9715L7.65951 19.7592C7.35152 19.8824 7.17092 19.9539 7.03728 19.9964L7.01284 20.0039L7.01078 19.9784C7.00056 19.8386 6.99993 19.6443 6.99993 19.3126L6.99993 19.2323C6.99997 17.9197 6.99999 17.1618 6.89793 16.4175C6.75112 15.347 6.44739 14.304 5.99652 13.3221C5.68306 12.6394 5.27615 12 4.5714 10.8926L4.52828 10.8248L4.19624 10.303C4.13771 10.2111 4.10408 10.1581 4.08043 10.1187L4.07452 10.1088L4.08557 10.1054C4.12954 10.0922 4.19008 10.0756 4.29525 10.0469L4.32845 10.0379C4.86782 9.89079 5.17905 9.80591 5.47979 9.70495C7.44094 9.0466 9.1767 7.84856 10.4878 6.24837C10.6889 6.00298 10.8786 5.74208 11.2074 5.2899L11.2276 5.26212L11.9485 4.27092L11.9999 4.20027L12.0513 4.27092L12.6493 5.09315L12.6766 5.13065C13.1201 5.7405 13.376 6.0924 13.6538 6.41791C14.8994 7.87729 16.505 8.9855 18.3113 9.63252C18.7142 9.77683 19.1339 9.89131 19.8614 10.0897L19.9062 10.1019C20.0267 10.1348 20.0938 10.1532 20.1424 10.1682L20.1521 10.1712L20.1487 10.1807C20.1313 10.2286 20.1056 10.2932 20.0592 10.4092L19.9715 10.6286C19.7664 11.1413 20.0158 11.7233 20.5286 11.9284C21.0414 12.1335 21.6233 11.8841 21.8284 11.3713L21.9162 11.152L21.9356 11.1036L21.9356 11.1036C22.0024 10.9379 22.0832 10.737 22.1202 10.541C22.2867 9.65997 21.8464 8.77581 21.043 8.37771C20.8643 8.28915 20.6552 8.23265 20.4828 8.18603L20.4324 8.17238C19.6479 7.95841 19.3067 7.86464 18.9857 7.74967C17.5079 7.22029 16.1942 6.31357 15.1751 5.11954C14.9538 4.86022 14.7451 4.57447 14.2668 3.91681L13.6688 3.09458L13.6517 3.07111C13.5344 2.90976 13.415 2.7455 13.3034 2.61475C13.184 2.47487 13.0049 2.28859 12.7436 2.16144ZM12.2417 3.88676L12.2395 3.88893C12.2409 3.88741 12.2417 3.88673 12.2417 3.88676ZM11.7604 3.88893L11.7582 3.88676C11.7582 3.88673 11.7589 3.88741 11.7604 3.88893ZM18.9999 14.0001C19 13.4478 18.5523 13 18 13C17.4477 12.9999 17 13.4476 16.9999 13.9999L16.9997 17L13.9999 17C13.4477 17 12.9999 17.4477 12.9999 18C12.9999 18.5523 13.4476 19 13.9999 19L16.9997 19L16.9999 22.0001C17 22.5523 17.4477 23 18 23C18.5523 22.9999 19 22.5522 18.9999 21.9999L18.9997 19L21.9999 19C22.5522 19 22.9999 18.5523 22.9999 18C22.9999 17.4477 22.5522 17 21.9999 17L18.9997 17L18.9999 14.0001Z" fill="currentColor"/>
</svg>
