<svg width="24" height="24" viewBox="0 0 24 24" fill="none" xmlns="http://www.w3.org/2000/svg">
<path fill-rule="evenodd" clip-rule="evenodd" d="M11.448 1.95539C11.8026 1.81508 12.1973 1.81508 12.5518 1.95539C12.8378 2.06856 13.0254 2.25898 13.1369 2.38661C13.2388 2.50316 13.3446 2.64868 13.4387 2.77823C13.4444 2.78605 13.4501 2.79381 13.4557 2.8015L13.9982 3.5475C14.747 4.57708 15.0741 5.02393 15.4382 5.41446C16.3265 6.36712 17.4109 7.11562 18.6167 7.60828C19.111 7.81024 19.6448 7.95759 20.873 8.29256L20.8893 8.29702C20.9806 8.32189 21.0836 8.34996 21.1717 8.37918C21.2668 8.41073 21.4148 8.46537 21.5647 8.56857C22.0731 8.91872 22.3151 9.54463 22.1745 10.1457C22.133 10.3229 22.0602 10.4629 22.0111 10.5502C21.9656 10.6311 21.9082 10.7212 21.8574 10.801L21.8483 10.8153L21.7069 11.0375C20.6242 12.739 20.1573 13.4808 19.8474 14.2712C19.5651 14.9911 19.3768 15.7444 19.2871 16.5124C19.1886 17.3557 19.2518 18.2327 19.407 20.2497L19.4093 20.2796C19.4224 20.45 19.437 20.6383 19.4348 20.7996C19.4325 20.973 19.4129 21.2531 19.2566 21.5345C19.0652 21.8791 18.7458 22.1345 18.3675 22.2454C18.0591 22.3359 17.782 22.2937 17.6122 22.2579C17.4545 22.2246 17.2744 22.1691 17.1117 22.119L17.0831 22.1102L16.4115 21.9035C14.6295 21.3552 13.8541 21.1205 13.0722 21.0267C12.3601 20.9413 11.6403 20.9413 10.9281 21.0267C10.1463 21.1205 9.37081 21.3552 7.58889 21.9035L6.91725 22.1102C6.90777 22.1131 6.89823 22.116 6.88863 22.119C6.72593 22.1691 6.54582 22.2246 6.38816 22.2579C6.21829 22.2937 5.94119 22.3359 5.63281 22.2455C5.25455 22.1345 4.93517 21.8791 4.74374 21.5345C4.58745 21.2532 4.56785 20.973 4.56552 20.7997C4.56335 20.6383 4.57789 20.4501 4.59104 20.2797L4.59334 20.2498C4.74843 18.2328 4.81156 17.3557 4.71304 16.5124C4.62331 15.7444 4.43499 14.9912 4.15272 14.2713C3.84277 13.4808 3.37583 12.7391 2.2931 11.0377L2.15159 10.8153L2.14247 10.801C2.09166 10.7212 2.03434 10.6311 1.98882 10.5503C1.93967 10.4629 1.8669 10.3229 1.82544 10.1458C1.68474 9.54466 1.92674 8.91872 2.4352 8.56856C2.58505 8.46537 2.73308 8.41072 2.82818 8.37917C2.91628 8.34995 3.01927 8.32188 3.11055 8.29701L3.1269 8.29255C4.35508 7.95759 4.88888 7.81024 5.38316 7.60829C6.58893 7.11563 7.6734 6.36712 8.56166 5.41445C8.92579 5.02392 9.25288 4.57708 10.0016 3.54753L10.5442 2.8015C10.5498 2.79381 10.5554 2.78605 10.5611 2.77823C10.6553 2.64868 10.761 2.50316 10.8629 2.38661C10.9745 2.25898 11.162 2.06856 11.448 1.95539ZM11.9999 4.20025L11.6191 4.72387L11.5764 4.78258C10.8822 5.7372 10.4815 6.28814 10.0245 6.77835C8.9388 7.94273 7.61334 8.85757 6.13962 9.45971C5.5854 9.68615 5.00185 9.85333 4.07196 10.1078C5.0575 11.6563 5.62952 12.5589 6.01469 13.5412C6.35969 14.421 6.58986 15.3417 6.69952 16.2803C6.81926 17.3052 6.74521 18.3498 6.60983 20.1122L7.00071 19.992L7.10192 19.9608C8.75435 19.4523 9.70859 19.1587 10.6899 19.0409C11.5603 18.9365 12.4401 18.9365 13.3105 19.0409C14.2918 19.1587 15.246 19.4523 16.8984 19.9608L16.9996 19.992L17.3905 20.1122C17.255 18.3498 17.1809 17.3053 17.3006 16.2804C17.4103 15.3417 17.6404 14.421 17.9854 13.5412C18.3705 12.5589 18.9425 11.6563 19.9279 10.1078C18.998 9.85333 18.4144 9.68615 17.8602 9.4597C16.3865 8.85757 15.0611 7.94273 13.9754 6.77837C13.5183 6.28815 13.1177 5.73721 12.4234 4.78257L12.3807 4.72385L11.9999 4.20025Z" fill="currentColor"/>
</svg>
