<svg width="24" height="24" viewBox="0 0 24 24" fill="none" xmlns="http://www.w3.org/2000/svg">
<path fill-rule="evenodd" clip-rule="evenodd" d="M11.4482 1.95539C11.8028 1.81508 12.1975 1.81508 12.552 1.95539L12.1841 2.88524L12.552 1.95539C12.838 2.06856 13.0256 2.25898 13.1371 2.38661C13.239 2.50315 13.3447 2.64866 13.4389 2.77821C13.4446 2.78603 13.4502 2.7938 13.4558 2.8015L13.9984 3.5475C14.7472 4.57708 15.0743 5.02393 15.4384 5.41446C15.7181 5.7145 16.0174 5.99429 16.3337 6.25221L20.293 2.2929C20.6835 1.90237 21.3167 1.90237 21.7072 2.2929C22.0977 2.68342 22.0977 3.31659 21.7072 3.70711L17.1384 8.27591L6.44185 18.9725L3.70722 21.7071C3.3167 22.0976 2.68353 22.0976 2.29301 21.7071C1.90248 21.3166 1.90248 20.6834 2.29301 20.2929L4.75234 17.8336C4.76988 17.3027 4.75839 16.899 4.71322 16.5124C4.62349 15.7444 4.43517 14.9912 4.1529 14.2713C3.84362 13.4826 3.23878 12.5235 2.15177 10.8153L2.14266 10.801C2.09185 10.7212 2.03453 10.6311 1.98901 10.5503C1.93986 10.4629 1.86708 10.3229 1.82562 10.1458C1.68493 9.54466 1.92692 8.91872 2.43539 8.56856C2.58523 8.46537 2.73326 8.41073 2.82837 8.37917C2.91646 8.34995 3.01944 8.32189 3.11072 8.29701C3.11622 8.29551 3.12167 8.29403 3.12708 8.29255C3.84042 8.09801 4.5439 7.87847 4.98729 7.73569L4.99533 7.7331C5.05701 7.71325 5.08954 7.70278 5.24935 7.64458C5.31078 7.62221 5.61003 7.50464 5.67025 7.47922C5.74509 7.44762 5.78655 7.43038 5.8117 7.42013C6.70539 6.99954 7.52379 6.43467 8.234 5.74824C8.2525 5.72836 8.28333 5.6957 8.33942 5.63693C8.38454 5.58964 8.6006 5.35154 8.6433 5.30204C8.75441 5.17324 8.77572 5.14655 8.81617 5.09591L8.82143 5.08932C9.11218 4.72539 9.56694 4.1455 10.0018 3.54753L10.8106 4.1357L10.0018 3.54752L10.5444 2.8015C10.55 2.79381 10.5556 2.78604 10.5613 2.77821C10.6555 2.64866 10.7612 2.50315 10.8631 2.38661C10.9747 2.25898 11.1622 2.06856 11.4482 1.95539L11.8161 2.88524L11.4482 1.95539ZM6.65343 15.9325L14.9135 7.67238C14.5843 7.39371 14.2711 7.09528 13.9756 6.77837C13.5185 6.28815 13.1179 5.73721 12.4236 4.78258L12.3809 4.72385L12.0001 4.20025L11.6193 4.72387C11.1595 5.35613 10.684 5.96215 10.384 6.33769C10.3226 6.41455 10.2881 6.45724 10.1577 6.6084C10.0931 6.68326 9.85455 6.94618 9.78629 7.01771C9.72528 7.08164 9.70313 7.1053 9.69669 7.11225C9.68876 7.12109 9.67649 7.13449 9.66074 7.15035L9.64901 7.162L9.64529 7.16562C8.76522 8.02085 7.7482 8.72281 6.63644 9.24236L6.63173 9.24456L6.61668 9.2514C6.59626 9.2605 6.57939 9.26722 6.56831 9.2715C6.55952 9.27506 6.52954 9.28738 6.44813 9.32174C6.35705 9.3602 6.02661 9.49002 5.9337 9.52385C5.74613 9.59216 5.69399 9.60926 5.60035 9.63941C5.22794 9.75934 4.67153 9.93378 4.07066 10.1055C4.98739 11.547 5.6475 12.6043 6.01487 13.5412C6.31715 14.3121 6.53127 15.1143 6.65343 15.9325ZM9.69796 7.11082L9.69781 7.111C9.70271 7.10553 9.69928 7.10936 9.69796 7.11082ZM19.0354 8.82663C19.1811 8.29391 19.7311 7.98018 20.2638 8.12589L20.8732 8.29256L20.8739 8.29275L20.8896 8.29702C20.9808 8.3219 21.0838 8.34996 21.1719 8.37918C21.267 8.41073 21.415 8.46537 21.5649 8.56857C21.9833 8.85672 22.2209 9.33125 22.214 9.82494V9.82496V9.82502L22.214 9.82522L22.214 9.82605L22.2139 9.82968L22.2134 9.84699C22.2128 9.86488 22.2114 9.89015 22.2081 9.92032C22.2049 9.94931 22.2011 9.97273 22.1984 9.98742C22.1979 9.99018 22.1975 9.99282 22.197 9.99527C22.1967 9.99711 22.1963 9.99977 22.1957 10.0034C22.1854 10.0672 22.1683 10.1316 22.1647 10.1452L22.1643 10.1468C22.16 10.1633 22.1438 10.2254 22.1222 10.284C22.0854 10.3838 22.0523 10.4456 22.0278 10.4906L21.8833 10.7563L21.8669 10.7864L21.8485 10.8153L21.7071 11.0375C20.6244 12.739 20.1575 13.4808 19.8476 14.2712C19.5653 14.9911 19.377 15.7444 19.2873 16.5124C19.1888 17.3557 19.252 18.2327 19.4071 20.2497L19.4095 20.2797C19.4226 20.45 19.4371 20.6383 19.435 20.7996C19.4327 20.973 19.4131 21.2531 19.2568 21.5345C19.0654 21.8791 18.746 22.1345 18.3677 22.2454C18.0593 22.3359 17.7822 22.2937 17.6123 22.2579C17.4547 22.2246 17.2746 22.1691 17.1119 22.119L17.0832 22.1102L16.4116 21.9035C14.6298 21.3553 13.8542 21.1205 13.0724 21.0267C12.3603 20.9413 11.6405 20.9413 10.9283 21.0267C10.3603 21.0948 9.78036 21.2406 8.78671 21.538C8.25762 21.6963 7.70033 21.3958 7.54198 20.8667C7.38363 20.3376 7.68417 19.7803 8.21327 19.6219C9.22051 19.3205 9.93997 19.1309 10.6901 19.0409C11.5605 18.9365 12.4402 18.9365 13.3106 19.0409C14.2919 19.1587 15.2462 19.4523 16.8985 19.9608L16.9998 19.992L17.3906 20.1122C17.2552 18.3498 17.1811 17.3053 17.3008 16.2804C17.4104 15.3417 17.6406 14.421 17.9856 13.5412C18.3707 12.5589 18.9427 11.6562 19.9283 10.1076L19.7362 10.055C19.2034 9.90932 18.8897 9.35935 19.0354 8.82663Z" fill="currentColor"/>
</svg>
