<svg width="24" height="24" viewBox="0 0 24 24" fill="none" xmlns="http://www.w3.org/2000/svg">
<path fill-rule="evenodd" clip-rule="evenodd" d="M12.5518 1.95539C12.1973 1.81508 11.8026 1.81508 11.448 1.95539L11.816 2.88524L11.448 1.95539C11.162 2.06856 10.9745 2.25898 10.8629 2.38661C10.761 2.50315 10.6553 2.64866 10.5611 2.77821L10.5442 2.8015L10.0016 3.54753L10.8104 4.1357L10.0016 3.54753C9.25288 4.57708 8.92579 5.02392 8.56166 5.41445C7.6734 6.36712 6.58893 7.11563 5.38316 7.60829C4.88888 7.81024 4.35508 7.95759 3.1269 8.29255L3.11054 8.29701L3.11051 8.29702C3.01924 8.32189 2.91626 8.34996 2.82818 8.37917C2.73308 8.41073 2.58505 8.46537 2.4352 8.56856C1.92674 8.91872 1.68474 9.54466 1.82544 10.1458C1.8669 10.3229 1.93967 10.4629 1.98883 10.5503C2.03435 10.6311 2.09167 10.7212 2.14247 10.801L2.15159 10.8153L2.2931 11.0377C3.37583 12.7391 3.84277 13.4808 4.15272 14.2713C4.43499 14.9912 4.62331 15.7444 4.71304 16.5124C4.81156 17.3557 4.74843 18.2328 4.59334 20.2498L4.59104 20.2797C4.57789 20.4501 4.56335 20.6383 4.56552 20.7997C4.56786 20.973 4.58745 21.2532 4.74374 21.5345C4.93517 21.8791 5.25455 22.1345 5.63281 22.2455C5.94119 22.3359 6.21829 22.2937 6.38816 22.2579C6.5458 22.2246 6.72589 22.1691 6.88857 22.119L6.88859 22.119L6.91725 22.1102L7.58888 21.9035L7.2948 20.9478L7.58889 21.9035C9.37077 21.3553 10.1463 21.1205 10.9281 21.0267C11.6403 20.9413 12.3601 20.9413 13.0722 21.0267C13.8541 21.1205 14.6296 21.3553 16.4115 21.9035L17.0831 22.1102L17.1117 22.119C17.2744 22.1691 17.4545 22.2246 17.6122 22.2579C17.782 22.2937 18.0591 22.3359 18.3675 22.2454C18.7458 22.1345 19.0652 21.8791 19.2566 21.5345C19.4129 21.2531 19.4325 20.973 19.4348 20.7996C19.437 20.6383 19.4224 20.4501 19.4093 20.2797V20.2797L19.407 20.2497C19.2518 18.2327 19.1886 17.3557 19.2871 16.5124C19.3768 15.7444 19.5651 14.9911 19.8474 14.2712C19.9892 13.9095 20.3267 13.2928 20.7994 12.5062C21.2604 11.7391 21.8106 10.8743 22.3435 10.0369C22.64 9.57091 22.5026 8.95282 22.0367 8.65633C21.5707 8.35984 20.9526 8.49721 20.6561 8.96316L20.6543 8.96598L20.6543 8.96606C20.1254 9.79724 19.5613 10.6837 19.0852 11.476C18.6201 12.2498 18.197 13.0015 17.9854 13.5412C17.6404 14.421 17.4103 15.3417 17.3006 16.2804C17.1809 17.3053 17.255 18.3498 17.3905 20.1122L16.9996 19.992L16.8983 19.9608C15.246 19.4523 14.2917 19.1587 13.3105 19.0409C12.4401 18.9365 11.5603 18.9365 10.6899 19.0409C9.7086 19.1587 8.7543 19.4523 7.10189 19.9608L7.00071 19.992L6.60983 20.1122C6.74521 18.3498 6.81927 17.3052 6.69952 16.2803C6.58986 15.3417 6.35969 14.421 6.01469 13.5412C5.62952 12.5589 5.0575 11.6563 4.07196 10.1078C5.00185 9.85333 5.5854 9.68615 6.13962 9.45971C7.61334 8.85757 8.9388 7.94273 10.0245 6.77835C10.4815 6.28814 10.8822 5.7372 11.5764 4.78259L11.6191 4.72387L11.9999 4.20025L13.1911 5.83807C13.5159 6.28472 14.1413 6.38347 14.588 6.05864C15.0346 5.7338 15.1334 5.10838 14.8085 4.66173L13.4557 2.8015L13.4387 2.77821C13.3446 2.64866 13.2388 2.50315 13.1369 2.38661C13.0254 2.25898 12.8378 2.06856 12.5519 1.95539L12.1839 2.88524L12.5518 1.95539ZM13.9069 13.7907L20.7998 4.59999C21.1312 4.15816 21.0416 3.53136 20.5998 3.19999C20.158 2.86863 19.5312 2.95817 19.1998 3.4L12.4586 12.3884L10.7682 10.3598C10.4146 9.93554 9.78402 9.87821 9.35975 10.2318C8.93547 10.5853 8.87814 11.2159 9.23171 11.6402L11.0841 13.863L11.1016 13.884C11.1964 13.9979 11.3048 14.1281 11.4084 14.2322C11.5239 14.3484 11.7118 14.5153 11.9861 14.6108C12.3304 14.7307 12.7067 14.721 13.0444 14.5837C13.3134 14.4743 13.4925 14.2979 13.6019 14.176C13.7001 14.0667 13.8016 13.9311 13.8905 13.8125L13.8905 13.8125L13.9069 13.7907Z" fill="currentColor"/>
</svg>
