<svg width="24" height="24" viewBox="0 0 24 24" fill="none" xmlns="http://www.w3.org/2000/svg">
<path fill-rule="evenodd" clip-rule="evenodd" d="M9.21913 2C7.44974 2 5.93969 3.2792 5.64881 5.02452L3.32413 18.9726L3.31832 19.0074C3.2699 19.2977 3.22361 19.5753 3.20504 19.8106C3.18499 20.0646 3.18614 20.3747 3.30563 20.6964C3.46845 21.1347 3.77973 21.5022 4.18536 21.7349C4.48306 21.9056 4.78866 21.9577 5.04255 21.9797C5.27772 22.0001 5.5591 22 5.85344 22L5.88876 22H11.5008H12.1624L12.1972 22C12.2214 22 12.2456 22 12.2697 22H18.563L18.5989 22H18.5989C18.9002 22 19.1873 22.0001 19.4267 21.9792C19.6845 21.9567 19.9958 21.9034 20.2974 21.7274C20.7072 21.4883 21.0186 21.1112 21.1761 20.6637C21.2919 20.3342 21.2855 20.0184 21.2589 19.7611C21.2342 19.522 21.1799 19.24 21.123 18.9442L21.1162 18.909L19.3526 9.73795C19.0469 8.14868 17.6563 7 16.0379 7C14.9013 7 13.8806 7.56578 13.2663 8.44824L12.8043 5.12163C12.5558 3.33218 11.0258 2 9.21913 2ZM14.0616 14.1744L14.7377 19.0423L14.7425 19.0768C14.782 19.361 14.8199 19.6336 14.832 19.8647C14.8343 19.9082 14.8359 19.9534 14.8364 20H18.563C18.9133 20 19.1112 19.9991 19.2529 19.9867L19.2713 19.985L19.2695 19.9667C19.2549 19.8252 19.2184 19.6306 19.1522 19.2867L17.3885 10.1157C17.264 9.46806 16.6973 9 16.0379 9C15.359 9 14.7817 9.49529 14.6785 10.1663L14.0653 14.1521C14.0641 14.1595 14.0629 14.167 14.0616 14.1744ZM12.1624 20C12.4971 20 12.6845 19.9991 12.8188 19.9876L12.8355 19.9861L12.8347 19.9693C12.8277 19.8347 12.8028 19.6489 12.7567 19.3175L10.8233 5.39677C10.7121 4.59608 10.0275 4 9.21913 4C8.42742 4 7.75175 4.57238 7.6216 5.35332L5.29692 19.3014C5.24058 19.6394 5.20975 19.8297 5.19884 19.968L5.19756 19.9855L5.21511 19.9872C5.35324 19.9991 5.54605 20 5.88876 20H11.5008H12.1624Z" fill="currentColor"/>
</svg>
