<svg width="24" height="24" viewBox="0 0 24 24" fill="none" xmlns="http://www.w3.org/2000/svg">
<path fill-rule="evenodd" clip-rule="evenodd" d="M12 4C8.13401 4 5 7.13401 5 11V11.5351C5.58835 11.1948 6.27143 11 7 11H7.33333L7.36438 11C7.48725 10.9999 7.60747 10.9999 7.71789 11.0095C8.92651 11.1153 9.88475 12.0735 9.99049 13.2821C10.0001 13.3925 10.0001 13.5127 10 13.6356L10 13.6667V16.3333L10 16.3644C10.0001 16.4873 10.0001 16.6075 9.99049 16.7179C9.88475 17.9265 8.92651 18.8847 7.71789 18.9905C7.60747 19.0001 7.48725 19.0001 7.36438 19L7.33333 19H7C4.79086 19 3 17.2091 3 15C3 14.8876 3.00464 14.7762 3.01374 14.6661C3.0047 14.6121 3 14.5566 3 14.5V11C3 6.02944 7.02944 2 12 2C16.9706 2 21 6.02944 21 11V15V17C21 17.4301 20.9455 17.8489 20.8424 18.2493C20.2874 20.4056 18.3312 22 16 22H13C12.4477 22 12 21.5523 12 21C12 20.4477 12.4477 20 13 20H16C17.0128 20 17.9096 19.4976 18.453 18.7279C18.0026 18.9036 17.5126 19 17 19H16.6667L16.6356 19C16.5127 19.0001 16.3925 19.0001 16.2821 18.9905C15.0735 18.8847 14.1153 17.9265 14.0095 16.7179C13.9999 16.6075 13.9999 16.4873 14 16.3644L14 16.3333V13.6667L14 13.6356C13.9999 13.5127 13.9999 13.3925 14.0095 13.2821C14.1153 12.0735 15.0735 11.1153 16.2821 11.0095C16.3925 10.9999 16.5127 10.9999 16.6356 11L16.6667 11H17C17.7286 11 18.4117 11.1948 19 11.5351V11C19 7.13401 15.866 4 12 4Z" fill="currentColor"/>
</svg>
