<svg width="24" height="24" viewBox="0 0 24 24" fill="none" xmlns="http://www.w3.org/2000/svg">
<path fill-rule="evenodd" clip-rule="evenodd" d="M5.00001 14.3333V14.5V15C5.00001 16.1046 5.89544 17 7.00001 17H7.33334C7.41374 17 7.46292 17 7.50039 16.9994C7.53621 16.9989 7.54504 16.998 7.54359 16.9981C7.78531 16.9769 7.97696 16.7853 7.99811 16.5436C7.99798 16.545 7.99887 16.5362 7.99941 16.5004C7.99998 16.4629 8.00001 16.4137 8.00001 16.3333V12.6667C8.00001 12.5863 7.99998 12.5371 7.99941 12.4996C7.99887 12.4638 7.99798 12.455 7.99811 12.4564C7.97696 12.2147 7.78531 12.0231 7.54359 12.0019C7.54504 12.002 7.53621 12.0011 7.50039 12.0006C7.46292 12 7.41374 12 7.33334 12C7.00266 12 6.90172 12.001 6.8257 12.0076C5.85881 12.0922 5.09221 12.8588 5.00762 13.8257C5.00097 13.9017 5.00001 14.0026 5.00001 14.3333ZM3.00001 14.5V14.3333L3.00001 14.2875C3 14.258 2.99999 14.2294 3.00001 14.2016V11C3.00001 6.02944 7.02945 2 12 2C16.9706 2 21 6.02944 21 11V14.2014L21 14.2874V14.2875L21 14.3333V14.5V15V17C21 17.4301 20.9455 17.8489 20.8424 18.2493C20.2874 20.4056 18.3312 22 16 22H13C12.4477 22 12 21.5523 12 21C12 20.4477 12.4477 20 13 20H16C17.0128 20 17.9096 19.4976 18.453 18.7279C18.0026 18.9036 17.5126 19 17 19H16.6667L16.6356 19C16.5128 19.0001 16.3925 19.0001 16.2821 18.9905C15.0735 18.8847 14.1153 17.9265 14.0095 16.7179C13.9999 16.6075 13.9999 16.4873 14 16.3644L14 16.3333V12.6667L14 12.6356C13.9999 12.5127 13.9999 12.3925 14.0095 12.2821C14.1153 11.0735 15.0735 10.1153 16.2821 10.0095C16.3925 9.99985 16.5128 9.99992 16.6356 9.99999L16.6667 10L16.7125 9.99999H16.7125C16.9775 9.99995 17.1736 9.99991 17.3486 10.0152C17.9406 10.067 18.495 10.2466 18.9842 10.5264C18.7407 6.88126 15.7068 4 12 4C8.29318 4 5.25931 6.88126 5.01578 10.5264C5.50502 10.2466 6.05944 10.067 6.65139 10.0152C6.82638 9.99991 7.02256 9.99995 7.28748 9.99999H7.2875L7.33334 10L7.36439 9.99999C7.48726 9.99992 7.60748 9.99985 7.7179 10.0095C8.92652 10.1153 9.88476 11.0735 9.9905 12.2821C10.0002 12.3925 10.0001 12.5127 10 12.6356L10 12.6667V16.3333L10 16.3644C10.0001 16.4873 10.0002 16.6075 9.9905 16.7179C9.88476 17.9265 8.92652 18.8847 7.7179 18.9905C7.60748 19.0001 7.48726 19.0001 7.36439 19L7.33334 19H7.00001C4.79087 19 3.00001 17.2091 3.00001 15V14.5ZM19 15V14.5V14.3333C19 14.0026 18.9991 13.9017 18.9924 13.8257C18.9078 12.8588 18.1412 12.0922 17.1743 12.0076C17.0983 12.001 16.9974 12 16.6667 12C16.5863 12 16.5371 12 16.4996 12.0006C16.4638 12.0011 16.455 12.002 16.4564 12.0019C16.2147 12.0231 16.0231 12.2147 16.0019 12.4564C16.002 12.455 16.0012 12.4638 16.0006 12.4996C16 12.5371 16 12.5863 16 12.6667V16.3333C16 16.4137 16 16.4629 16.0006 16.5004C16.0012 16.5362 16.002 16.545 16.0019 16.5436C16.0231 16.7853 16.2147 16.9769 16.4564 16.9981C16.455 16.998 16.4638 16.9989 16.4996 16.9994C16.5371 17 16.5863 17 16.6667 17H17C18.1046 17 19 16.1046 19 15Z" fill="currentColor"/>
</svg>
