<svg width="24" height="24" viewBox="0 0 24 24" fill="none" xmlns="http://www.w3.org/2000/svg">
<path fill-rule="evenodd" clip-rule="evenodd" d="M10.2929 9.20695C10.6835 9.59746 11.3166 9.59745 11.7071 9.20691C12.0976 8.81637 12.0976 8.18321 11.7071 7.7927L8.27275 4.35857L8.2564 4.34221C8.17221 4.25796 8.07165 4.15734 7.9758 4.07597C7.86473 3.98168 7.69613 3.85614 7.46351 3.78056C7.16225 3.68268 6.83775 3.68268 6.53649 3.78056C6.30387 3.85614 6.13527 3.98168 6.0242 4.07597C5.92835 4.15733 5.82781 4.25794 5.74362 4.34219L5.74361 4.3422L5.72725 4.35857L2.29291 7.7927C1.90238 8.18321 1.90236 8.81637 2.29287 9.20691C2.68338 9.59745 3.31655 9.59747 3.70709 9.20695L6 6.91418L6 19.0001C6 19.5524 6.44772 20.0001 7 20.0001C7.55228 20.0001 8 19.5524 8 19.0001L8 6.91418L10.2929 9.20695ZM13.7071 14.793C13.3166 14.4024 12.6834 14.4024 12.2929 14.793C11.9024 15.1835 11.9024 15.8167 12.2929 16.2072L15.7272 19.6415L15.7436 19.6579L15.7436 19.6579C15.8278 19.7421 15.9283 19.8428 16.0242 19.9241C16.1352 20.0184 16.3038 20.144 16.5365 20.2195C16.8377 20.3174 17.1623 20.3174 17.4635 20.2195C17.6962 20.144 17.8648 20.0184 17.9758 19.9241C18.0717 19.8427 18.1722 19.7421 18.2564 19.6579L18.2728 19.6415L21.7071 16.2072C22.0976 15.8167 22.0976 15.1835 21.7071 14.793C21.3166 14.4024 20.6834 14.4024 20.2929 14.793L18 17.0859V5.00007C18 4.44778 17.5523 4.00007 17 4.00007C16.4477 4.00007 16 4.44778 16 5.00007V17.0859L13.7071 14.793Z" fill="currentColor"/>
</svg>
