<svg width="24" height="24" viewBox="0 0 24 24" fill="none" xmlns="http://www.w3.org/2000/svg">
<path fill-rule="evenodd" clip-rule="evenodd" d="M4.10357 13.779C3.98815 13.4096 3.92243 13.1961 3.88848 13.0396L3.88384 13.0174L3.90636 13.0153C4.06593 13.001 4.28928 13 4.67626 13L19.3237 13C19.7106 13 19.934 13.001 20.0936 13.0153L20.1161 13.0174L20.1114 13.0396C20.0775 13.1961 20.0118 13.4096 19.8963 13.779L18.7472 17.4562C18.4692 18.3458 18.3971 18.5183 18.3051 18.6313C18.1978 18.7631 18.0587 18.8654 17.9008 18.9285C17.7655 18.9827 17.5793 19 16.6473 19L7.35257 19C6.4206 19 6.23444 18.9827 6.09907 18.9285C5.94125 18.8654 5.80212 18.7631 5.69482 18.6313C5.60278 18.5183 5.53069 18.3458 5.25271 17.4562L4.10357 13.779ZM1.92697 12.4874C1.8302 12.8523 1.87529 13.1931 1.9339 13.4634C1.98921 13.7185 2.08319 14.0191 2.18324 14.3391L2.19461 14.3755L3.34375 18.0528L3.38775 18.194C3.5943 18.8586 3.77554 19.4416 4.14378 19.894C4.46569 20.2894 4.88308 20.5963 5.35654 20.7856C5.89812 21.0021 6.50871 21.0012 7.20459 21.0002L7.35257 21L16.6473 21L16.7953 21.0002C17.4912 21.0012 18.1018 21.0021 18.6434 20.7856C19.1168 20.5963 19.5342 20.2894 19.8561 19.894C20.2244 19.4416 20.4056 18.8586 20.6122 18.1941L20.6122 18.194L20.6562 18.0528L21.8053 14.3755L21.8167 14.3392C21.9167 14.0191 22.0107 13.7185 22.066 13.4634C22.1246 13.1931 22.1697 12.8523 22.0729 12.4874C21.9434 11.9987 21.6335 11.5772 21.2057 11.3077C20.8863 11.1065 20.5475 11.0479 20.272 11.0232C20.0121 10.9999 19.6971 11 19.3618 11L19.3237 11L4.67626 11L4.63816 11C4.30282 11 3.98783 10.9999 3.72789 11.0232C3.45242 11.0479 3.11363 11.1065 2.79421 11.3077C2.36642 11.5772 2.05656 11.9987 1.92697 12.4874ZM6.5 5L17.5 5C18.0523 5 18.5 4.55229 18.5 4C18.5 3.44772 18.0523 3 17.5 3L6.5 3C5.94772 3 5.5 3.44772 5.5 4C5.5 4.55228 5.94772 5 6.5 5ZM4.5 7C3.94772 7 3.5 7.44771 3.5 8C3.5 8.55228 3.94772 9 4.5 9L19.5 9C20.0523 9 20.5 8.55228 20.5 8C20.5 7.44771 20.0523 7 19.5 7L4.5 7Z" fill="currentColor"/>
</svg>
