<svg width="24" height="24" viewBox="0 0 24 24" fill="none" xmlns="http://www.w3.org/2000/svg">
<path fill-rule="evenodd" clip-rule="evenodd" d="M11.9999 2C12.5522 2 12.9999 2.44772 12.9999 3V3.00001L18.7999 3L18.8384 3C19.3656 2.99998 19.8203 2.99997 20.1949 3.03057C20.5903 3.06287 20.9835 3.13419 21.3618 3.32698C21.9263 3.6146 22.3853 4.07354 22.6729 4.63803C22.8657 5.01641 22.937 5.40963 22.9693 5.80497C22.9999 6.17954 22.9999 6.6343 22.9999 7.16144V7.2V15.8V15.8386C22.9999 16.3657 22.9999 16.8205 22.9693 17.195C22.937 17.5904 22.8657 17.9836 22.6729 18.362C22.3853 18.9265 21.9263 19.3854 21.3619 19.673C20.9835 19.8658 20.5903 19.9371 20.1949 19.9694C20.072 19.9795 19.9404 19.9862 19.8004 19.9908C19.9316 20.3094 20 20.6521 20 21C20 21.5523 19.5523 22 19 22C18.4477 22 18 21.5523 18 21C18 20.8714 17.9619 20.7457 17.8906 20.6387L17.4648 20H7.53519L7.1094 20.6387C7.03807 20.7457 7 20.8714 7 21C7 21.5523 6.55229 22 6 22C5.44772 22 5 21.5523 5 21C5 20.6521 5.06845 20.3094 5.1996 19.9908C5.0596 19.9862 4.92796 19.9795 4.80497 19.9694C4.40963 19.9371 4.01641 19.8658 3.63803 19.673C3.07354 19.3854 2.6146 18.9265 2.32698 18.362C2.13419 17.9836 2.06287 17.5904 2.03057 17.195C1.99997 16.8205 1.99998 16.3657 2 15.8386V15.8385V15.8V7.20002V7.16147V7.16143C1.99998 6.6343 1.99997 6.17955 2.03057 5.80499C2.06287 5.40965 2.13419 5.01643 2.32698 4.63805C2.6146 4.07356 3.07354 3.61462 3.63803 3.327C4.01641 3.13421 4.40963 3.06289 4.80497 3.03059C5.17954 2.99999 5.6343 3 6.16144 3.00002H6.16145L6.2 3.00002L10.9999 3.00001V3C10.9999 2.44772 11.4477 2 11.9999 2ZM12 7C11.4477 7 11 7.44772 11 8V16C11 16.5523 11.4477 17 12 17H13C13.5523 17 14 16.5523 14 16V8C14 7.44772 13.5523 7 13 7H12ZM17 10C16.4477 10 16 10.4477 16 11V16C16 16.5523 16.4477 17 17 17H18C18.5523 17 19 16.5523 19 16V11C19 10.4477 18.5523 10 18 10H17ZM7 12C6.73478 12 6.48043 12.1054 6.29289 12.2929C6.10536 12.4804 6 12.7348 6 13V16C6 16.5523 6.44772 17 7 17H8C8.55228 17 9 16.5523 9 16V13C9 12.4477 8.55228 12 8 12H7Z" fill="currentColor"/>
</svg>
