<svg width="24" height="24" viewBox="0 0 24 24" fill="none" xmlns="http://www.w3.org/2000/svg">
<path fill-rule="evenodd" clip-rule="evenodd" d="M13.5 3C13.5 2.44772 13.0523 2 12.5 2C11.9477 2 11.5 2.44772 11.5 3V3.00001L6.19999 3.00003L6.16145 3.00002C5.6343 3.00001 5.17954 2.99999 4.80497 3.0306C4.40962 3.0629 4.01641 3.13422 3.63803 3.32701C3.07354 3.61463 2.6146 4.07357 2.32698 4.63806C2.13419 5.01644 2.06287 5.40966 2.03057 5.805C1.99997 6.17955 1.99998 6.63429 2 7.1614V7.16148L2 7.20003V15.8L2 15.8386V15.8386C1.99998 16.3657 1.99997 16.8205 2.03057 17.195C2.06287 17.5904 2.13419 17.9836 2.32698 18.362C2.6146 18.9265 3.07355 19.3854 3.63803 19.673C4.01641 19.8658 4.40963 19.9371 4.80498 19.9694C4.92796 19.9795 5.0596 19.9862 5.1996 19.9908C5.06845 20.3094 5 20.6521 5 21C5 21.5523 5.44772 22 6 22C6.55229 22 7 21.5523 7 21C7 20.8714 7.03807 20.7457 7.1094 20.6387L7.53519 20H17.4648L17.8906 20.6387C17.9619 20.7457 18 20.8714 18 21C18 21.5523 18.4477 22 19 22C19.5523 22 20 21.5523 20 21C20 20.6521 19.9316 20.3094 19.8004 19.9908C19.9404 19.9862 20.072 19.9795 20.1949 19.9694C20.5903 19.9371 20.9835 19.8658 21.3619 19.673C21.9263 19.3854 22.3853 18.9265 22.6729 18.362C22.8657 17.9836 22.937 17.5904 22.9693 17.195C22.9999 16.8205 22.9999 16.3657 22.9999 15.8386V15.8V7.20001V7.16144C22.9999 6.63431 22.9999 6.17955 22.9693 5.80498C22.937 5.40964 22.8657 5.01642 22.6729 4.63804C22.3853 4.07355 21.9263 3.61461 21.3619 3.32699C20.9835 3.1342 20.5903 3.06288 20.1949 3.03058C19.8203 2.99998 19.3656 2.99999 18.8384 3.00001L18.7999 3.00001H13.5V3ZM18.7999 5.00001C19.3764 5.00001 19.7487 5.00079 20.032 5.02394C20.3037 5.04613 20.4044 5.08381 20.4539 5.109C20.642 5.20488 20.795 5.35786 20.8909 5.54602C20.9161 5.59546 20.9538 5.69618 20.976 5.96785C20.9991 6.25118 20.9999 6.62346 20.9999 7.20001V15.8C20.9999 16.3766 20.9991 16.7488 20.976 17.0322C20.9538 17.3038 20.9161 17.4046 20.8909 17.454C20.795 17.6422 20.642 17.7951 20.4539 17.891C20.4044 17.9162 20.3037 17.9539 20.032 17.9761C19.7487 17.9992 19.3764 18 18.7999 18H18H7H6.2C5.62345 18 5.25118 17.9992 4.96784 17.9761C4.69618 17.9539 4.59546 17.9162 4.54601 17.891C4.35785 17.7951 4.20487 17.6422 4.109 17.454C4.0838 17.4046 4.04613 17.3038 4.02393 17.0322C4.00078 16.7488 4 16.3766 4 15.8V7.20003C4 6.62347 4.00078 6.2512 4.02393 5.96786C4.04613 5.6962 4.0838 5.59548 4.109 5.54604C4.20487 5.35788 4.35785 5.2049 4.54601 5.10902C4.59546 5.08383 4.69617 5.04615 4.96784 5.02396C5.25117 5.00081 5.62345 5.00003 6.2 5.00003L12.5 5.00001H18.7999ZM8 12C7.73479 12 7.48043 12.1054 7.2929 12.2929C7.10536 12.4804 7 12.7348 7 13V15C7 15.5523 7.44772 16 8 16H9C9.55229 16 10 15.5523 10 15V13C10 12.4477 9.55229 12 9 12H8ZM11.2929 7.2929C11.4804 7.10537 11.7348 7.00001 12 7.00001H13C13.5523 7.00001 14 7.44773 14 8.00001V15C14 15.5523 13.5523 16 13 16H12C11.4477 16 11 15.5523 11 15V8.00001C11 7.73479 11.1054 7.48044 11.2929 7.2929ZM16 10C15.7348 10 15.4804 10.1054 15.2929 10.2929C15.1054 10.4804 15 10.7348 15 11V15C15 15.5523 15.4477 16 16 16H17C17.5523 16 18 15.5523 18 15V11C18 10.4477 17.5523 10 17 10H16Z" fill="currentColor"/>
</svg>
