<svg width="24" height="24" viewBox="0 0 24 24" fill="none" xmlns="http://www.w3.org/2000/svg">
<path fill-rule="evenodd" clip-rule="evenodd" d="M12 2C5.92487 2 1 6.92487 1 13V16.4211C1 18.9499 3.05006 21 5.57895 21H18.4211C20.9499 21 23 18.9499 23 16.4211V13C23 11.5489 22.7185 10.1611 22.2062 8.89002C21.9997 8.37778 21.4171 8.12989 20.9049 8.33634C20.3926 8.5428 20.1447 9.12542 20.3512 9.63767C20.7693 10.6751 21 11.8094 21 13V16.4211C21 17.8454 19.8454 19 18.4211 19H5.57895C4.15463 19 3 17.8454 3 16.4211V13C3 8.02944 7.02944 4 12 4C14.1748 4 16.1682 4.77038 17.7244 6.05474L16.7269 7.17688C15.4375 6.12912 13.7916 5.5 12 5.5C7.85786 5.5 4.5 8.85786 4.5 13V14C4.5 14.5523 4.94772 15 5.5 15C6.05228 15 6.5 14.5523 6.5 14V13C6.5 9.96243 8.96243 7.5 12 7.5C13.2821 7.5 14.4609 7.93783 15.3965 8.67364L13.2982 11.0342C13.2431 11.0266 13.1896 11.0211 13.1382 11.0169C12.9301 10.9999 12.6843 11 12.4319 11H12.4319L12.4 11H11.6L11.5681 11H11.5681C11.3157 11 11.0699 10.9999 10.8618 11.0169C10.6332 11.0356 10.3634 11.0797 10.092 11.218C9.71569 11.4097 9.40973 11.7157 9.21799 12.092C9.07969 12.3634 9.03562 12.6332 9.01694 12.8618C8.99994 13.0699 8.99997 13.3157 9 13.5681V13.5681L9 13.6V14.4L9 14.4319V14.4319C8.99997 14.6843 8.99994 14.9301 9.01694 15.1382C9.03562 15.3668 9.07969 15.6366 9.21799 15.908C9.40973 16.2843 9.71569 16.5903 10.092 16.782C10.3634 16.9203 10.6332 16.9644 10.8618 16.9831C11.0699 17.0001 11.3157 17 11.5681 17H11.5681L11.6 17H12.4L12.4319 17H12.4319C12.6843 17 12.9301 17.0001 13.1382 16.9831C13.3668 16.9644 13.6366 16.9203 13.908 16.782C14.2843 16.5903 14.5903 16.2843 14.782 15.908C14.9203 15.6366 14.9644 15.3668 14.9831 15.1382C15.0001 14.9301 15 14.6843 15 14.4319V14.4319L15 14.4V13.6L15 13.5681V13.5681C15 13.3157 15.0001 13.0699 14.9831 12.8618C14.9688 12.6868 14.9396 12.4878 14.8647 12.2823L20.7473 5.66436C21.1142 5.25158 21.077 4.61951 20.6643 4.25259C20.2515 3.88567 19.6194 3.92285 19.2525 4.33564L19.0538 4.55913C17.1448 2.96233 14.684 2 12 2ZM19.3549 11.5255C19.2468 10.9839 18.7202 10.6324 18.1786 10.7405C17.637 10.8485 17.2855 11.3752 17.3936 11.9168C17.4633 12.2662 17.5 12.6283 17.5 13V14C17.5 14.5523 17.9477 15 18.5 15C19.0523 15 19.5 14.5523 19.5 14V13C19.5 12.4962 19.4502 12.003 19.3549 11.5255ZM11.0103 13.0246L11.0114 13.0114L11.0246 13.0103C11.1412 13.0008 11.3035 13 11.6 13H12.4C12.6965 13 12.8588 13.0008 12.9754 13.0103L12.9886 13.0114L12.9897 13.0246C12.9992 13.1412 13 13.3035 13 13.6V14.4C13 14.6965 12.9992 14.8588 12.9897 14.9754L12.9886 14.9886L12.9754 14.9897C12.8588 14.9992 12.6965 15 12.4 15H11.6C11.3035 15 11.1412 14.9992 11.0246 14.9897L11.0114 14.9886L11.0103 14.9754C11.0008 14.8588 11 14.6965 11 14.4V13.6C11 13.3035 11.0008 13.1412 11.0103 13.0246Z" fill="currentColor"/>
</svg>
