<svg width="24" height="24" viewBox="0 0 24 24" fill="none" xmlns="http://www.w3.org/2000/svg">
<path fill-rule="evenodd" clip-rule="evenodd" d="M3.5 2.99979C2.94772 2.99979 2.5 3.4475 2.5 3.99979C2.5 4.55207 2.94772 4.99979 3.5 4.99979H6.02499C4.05009 6.6871 2.79663 9.19657 2.79663 11.9999C2.79663 16.3102 5.75872 19.9261 9.75698 20.9278C10.2927 21.062 10.8358 20.7365 10.97 20.2008C11.1042 19.6651 10.7787 19.122 10.243 18.9878C7.11339 18.2037 4.79663 15.3711 4.79663 11.9999C4.79663 9.50285 6.06708 7.30109 8 6.00808V9.49979C8 10.0521 8.44772 10.4998 9 10.4998C9.55228 10.4998 10 10.0521 10 9.49979V3.99979C10 3.4475 9.55228 2.99979 9 2.99979H3.5ZM16 14.4998C16 13.9475 15.5523 13.4998 15 13.4998C14.4477 13.4998 14 13.9475 14 14.4998V19.9998C14 20.5521 14.4477 20.9998 15 20.9998H20.5C21.0523 20.9998 21.5 20.5521 21.5 19.9998C21.5 19.4475 21.0523 18.9998 20.5 18.9998H17.9753C19.9503 17.3123 21.2034 14.8031 21.2034 11.9999C21.2034 7.68961 18.2413 4.07366 14.243 3.07201C13.7073 2.9378 13.1642 3.26329 13.03 3.79902C12.8958 4.33475 13.2213 4.87784 13.757 5.01205C16.8866 5.79609 19.2034 8.62869 19.2034 11.9999C19.2034 14.4971 17.9326 16.6991 16 17.9919V14.4998Z" fill="currentColor"/>
</svg>
