<svg width="24" height="24" viewBox="0 0 24 24" fill="none" xmlns="http://www.w3.org/2000/svg">
<path fill-rule="evenodd" clip-rule="evenodd" d="M20.9008 4.68651C21.0287 3.88271 20.194 3.27098 19.466 3.63497L2.97493 11.8805L5.96152 13.0292C6.54808 13.2548 7.20656 13.1916 7.73948 12.8585L14.4699 8.65201C14.8668 8.40395 15.3827 8.46436 15.7115 8.79742C16.0403 9.13047 16.0942 9.64706 15.8411 10.0408L12.3378 15.4902C12.0563 15.9282 12.1579 16.509 12.5716 16.8253L16.6777 19.9653C17.3995 20.5173 18.449 20.098 18.5918 19.2007L20.9008 4.68651ZM18.5716 1.84611C20.7556 0.754145 23.2596 2.58935 22.876 5.00074L20.5669 19.5149C20.1862 21.9078 17.3875 23.0259 15.4628 21.5541L11.3567 18.4141C10.1158 17.4651 9.81075 15.7228 10.6555 14.4087L11.7454 12.7133L8.79947 14.5545C7.73364 15.2207 6.41667 15.3471 5.24356 14.8959L2.25697 13.7472C0.634498 13.1232 0.525688 10.8691 2.0805 10.0917L18.5716 1.84611Z" fill="currentColor"/>
</svg>
