<svg width="24" height="24" viewBox="0 0 24 24" fill="none" xmlns="http://www.w3.org/2000/svg">
<path fill-rule="evenodd" clip-rule="evenodd" d="M12.1319 3.55218C12.5327 3.35178 12.7721 3.23319 12.95 3.16369L12.9787 3.15275L12.9818 3.18335C12.9992 3.37355 13.0002 3.64072 13.0002 4.08884L13.0002 19.4C13.0002 19.6965 12.9994 19.8588 12.9899 19.9754L12.9888 19.9885L12.9756 19.9897C12.859 19.9992 12.6967 20 12.4002 20H4.60022C4.30369 20 4.14143 19.9992 4.02485 19.9897L4.01166 19.9885L4.01052 19.9754C4.00099 19.8588 4.00022 19.6965 4.00022 19.4V8.9777C4.00022 8.18729 4.01326 8.03061 4.05487 7.90998C4.1032 7.76986 4.18208 7.64223 4.2858 7.53634C4.37508 7.44518 4.50938 7.36344 5.21634 7.00996L12.1319 3.55218ZM13.2925 1.13949C12.8763 1.078 12.5044 1.19061 12.2224 1.30076C11.9485 1.40772 11.6259 1.56907 11.2743 1.7449L11.2743 1.74492L11.2375 1.76333L4.32192 5.2211L4.21063 5.27662C3.67939 5.54137 3.21221 5.77419 2.85696 6.1369C2.54581 6.45459 2.30918 6.83747 2.16418 7.25784C1.99863 7.73779 1.99932 8.25977 2.00011 8.85333L2.00022 8.9777V19.4L2.00021 19.4319C2.00018 19.6843 2.00015 19.9301 2.01716 20.1382C2.03584 20.3668 2.0799 20.6365 2.2182 20.908C2.40995 21.2843 2.71591 21.5903 3.09223 21.782C3.36366 21.9203 3.63339 21.9644 3.86199 21.983C4.07011 22 4.31585 22 4.56818 22H4.5683L4.60022 22H12.4002L12.4321 22H12.4322C12.6846 22 12.9303 22 13.1384 21.983C13.367 21.9644 13.6368 21.9203 13.9082 21.782C14.2845 21.5903 14.5905 21.2843 14.7822 20.908C14.9205 20.6365 14.9646 20.3668 14.9833 20.1382C15.0003 19.9301 15.0002 19.6843 15.0002 19.4319L15.0002 19.4L15.0002 4.08884L15.0002 4.04768C15.0003 3.65455 15.0003 3.29381 14.9735 3.00105C14.9459 2.69955 14.8803 2.31652 14.6391 1.97173C14.3238 1.52093 13.8368 1.2199 13.2925 1.13949ZM20.0002 5.49998V21C20.0002 21.5523 20.4479 22 21.0002 22C21.5525 22 22.0002 21.5523 22.0002 21V5.49998C22.0002 4.9477 21.5525 4.49998 21.0002 4.49998C20.4479 4.49998 20.0002 4.9477 20.0002 5.49998ZM16.5002 3.49998L16.5002 21C16.5002 21.5523 16.9479 22 17.5002 22C18.0525 22 18.5002 21.5523 18.5002 21V3.49998C18.5002 2.9477 18.0525 2.49998 17.5002 2.49998C16.9479 2.49998 16.5002 2.9477 16.5002 3.49998Z" fill="currentColor"/>
</svg>
