<svg width="24" height="24" viewBox="0 0 24 24" fill="none" xmlns="http://www.w3.org/2000/svg">
<path fill-rule="evenodd" clip-rule="evenodd" d="M12 6.5C12 5.10444 12 4.40666 12.1722 3.83886C12.56 2.56046 13.5605 1.56004 14.8389 1.17224C15.4067 1 16.1044 1 17.5 1C18.8956 1 19.5933 1 20.1611 1.17224C21.4395 1.56004 22.44 2.56046 22.8278 3.83886C23 4.40666 23 5.10444 23 6.5C23 7.89556 23 8.59334 22.8278 9.16114C22.44 10.4395 21.4395 11.44 20.1611 11.8278C19.5933 12 18.8956 12 17.5 12C16.1044 12 15.4067 12 14.8389 11.8278C13.5605 11.44 12.56 10.4395 12.1722 9.16114C12 8.59334 12 7.89556 12 6.5ZM14.4034 13.2631C15.1896 13.5016 16.1013 13.5009 17.2801 13.5001L17.5 13.5L17.7199 13.5001C18.8987 13.5009 19.8103 13.5016 20.5965 13.2631C20.9187 13.1654 21.228 13.0394 21.5216 12.8879L21.7417 16.2292L21.7439 16.2624C21.7615 16.5301 21.7786 16.789 21.7747 17.0083C21.7704 17.2477 21.7419 17.5338 21.61 17.825C21.4284 18.2262 21.1194 18.5561 20.7311 18.7638C20.4491 18.9145 20.1655 18.9617 19.9269 18.9817C19.7083 19.0001 19.4489 19 19.1806 19H19.1806L19.1473 19H4.72785L4.69433 19H4.69429C4.42325 19 4.16147 19.0001 3.94108 18.9815C3.70079 18.9613 3.41482 18.9135 3.13115 18.7606C2.74084 18.5503 2.43149 18.2162 2.25171 17.811C2.12105 17.5164 2.09532 17.2276 2.09359 16.9865C2.09201 16.7653 2.11211 16.5043 2.13293 16.2341L2.13293 16.2341L2.13551 16.2006L2.83254 7.13923L2.83517 7.10496C2.86294 6.74373 2.88806 6.41685 2.9307 6.14506C2.97659 5.85259 3.05312 5.54509 3.22576 5.24701C3.47723 4.81283 3.85353 4.46437 4.30572 4.24694C4.61616 4.09766 4.92862 4.04495 5.22375 4.02163C5.49801 3.99996 5.82586 3.99998 6.18816 4L6.22252 4H7.00004V3C7.00004 2.44772 7.44776 2 8.00004 2C8.55233 2 9.00004 2.44772 9.00004 3V4H10.602C10.4986 4.64782 10.4992 5.38734 10.4999 6.28005V6.28008L10.5 6.49997L10.4999 6.71986C10.499 7.89867 10.4983 8.81035 10.7368 9.59653C11.27 11.3543 12.6456 12.7299 14.4034 13.2631ZM19.5 21C19.5 20.4477 19.0523 20 18.5 20H5.50004C4.94776 20 4.50004 20.4477 4.50004 21C4.50004 21.5523 4.94776 22 5.50004 22H18.5C19.0523 22 19.5 21.5523 19.5 21ZM18 4C18 3.44772 17.5523 3 17 3C16.4477 3 16 3.44772 16 4V6.5C16 6.80378 16.1381 7.0911 16.3753 7.28087L18.8753 9.28087C19.3066 9.62588 19.9359 9.55596 20.2809 9.12469C20.6259 8.69343 20.556 8.06414 20.1247 7.71913L18 6.01937V4Z" fill="currentColor"/>
</svg>
