<svg width="24" height="24" viewBox="0 0 24 24" fill="none" xmlns="http://www.w3.org/2000/svg">
<path fill-rule="evenodd" clip-rule="evenodd" d="M17 1.00004L16.8842 1.00002C16.0666 0.999816 15.5093 0.999677 15.0245 1.09611C13.0411 1.49064 11.4906 3.04113 11.0961 5.02459C10.9996 5.50939 10.9998 6.06667 11 6.88427V6.88428L11 7.00004L11 7.11579V7.1158C10.9998 7.9334 10.9996 8.49069 11.0961 8.97549C11.4906 10.9589 13.0411 12.5094 15.0245 12.904C15.5093 13.0004 16.0666 13.0003 16.8842 13.0001L17 13L17.1158 13.0001C17.9334 13.0003 18.4906 13.0004 18.9754 12.904C20.9589 12.5094 22.5094 10.9589 22.9039 8.97549C23.0004 8.49069 23.0002 7.9334 23 7.1158L23 7.00004L23 6.88428C23.0002 6.06668 23.0004 5.50939 22.9039 5.02459C22.5094 3.04113 20.9589 1.49064 18.9754 1.09611C18.4906 0.999677 17.9334 0.999816 17.1158 1.00002L17 1.00004ZM15.4147 3.05768C15.6802 3.00488 16.0228 3.00004 17 3.00004C17.9772 3.00004 18.3198 3.00488 18.5853 3.05768C19.7753 3.2944 20.7056 4.22469 20.9424 5.41477C20.9952 5.68021 21 6.0228 21 7.00004C21 7.97728 20.9952 8.31986 20.9424 8.58531C20.7056 9.77538 19.7753 10.7057 18.5853 10.9424C18.3198 10.9952 17.9772 11 17 11C16.0228 11 15.6802 10.9952 15.4147 10.9424C14.2247 10.7057 13.2944 9.77538 13.0576 8.58531C13.0048 8.31986 13 7.97728 13 7.00004C13 6.0228 13.0048 5.68021 13.0576 5.41477C13.2944 4.22469 14.2247 3.2944 15.4147 3.05768ZM7.99998 2.00004C7.4477 2.00004 6.99998 2.44775 6.99998 3.00004V4.00004H6.24532L6.21072 4.00004H6.21071C5.84495 4.00001 5.5142 4 5.23772 4.02194C4.94037 4.04555 4.62542 4.09892 4.31305 4.2503C3.8584 4.47063 3.48118 4.82355 3.23109 5.26253C3.05926 5.56414 2.98506 5.87485 2.94173 6.16996C2.90144 6.44435 2.87946 6.77433 2.85515 7.13924L2.85285 7.17387L2.11596 18.2271L2.11375 18.2603L2.11374 18.2605C2.09585 18.5283 2.07856 18.7873 2.0823 19.0067C2.08639 19.2463 2.11471 19.5326 2.2465 19.824C2.42802 20.2255 2.73701 20.5557 3.12549 20.7636C3.40754 20.9144 3.69131 20.9618 3.93004 20.9818C4.1488 21.0001 4.40844 21.0001 4.67695 21L4.71021 21H4.99998C4.99998 21.5523 5.4477 22 5.99998 22H18C18.5523 22 19 21.5523 19 21H19.1621L19.1952 21C19.4613 21.0001 19.719 21.0001 19.9362 20.982C20.1734 20.9621 20.4552 20.9153 20.7357 20.7663C21.1225 20.5608 21.4311 20.234 21.6142 19.8362C21.747 19.5476 21.7777 19.2637 21.784 19.0257C21.7897 18.8078 21.775 18.5506 21.7598 18.2849L21.7579 18.2519L21.5976 15.4431C21.5661 14.8917 21.0936 14.4702 20.5423 14.5017C19.9909 14.5331 19.5694 15.0056 19.6009 15.557L19.7612 18.3659C19.7789 18.6771 19.7879 18.849 19.7847 18.973L19.7842 18.9876L19.7697 18.9889C19.6461 18.9992 19.4739 19 19.1621 19H4.71021C4.39583 19 4.22193 18.9992 4.09712 18.9888L4.08235 18.9874L4.08201 18.9726C4.07987 18.8474 4.09062 18.6738 4.11154 18.3601L4.84842 7.30691C4.87578 6.89646 4.89316 6.64681 4.92051 6.4605C4.93322 6.37396 4.94539 6.32185 4.95481 6.29027C4.96324 6.26197 4.9687 6.25282 4.96887 6.25254L4.96887 6.25254C5.01889 6.16474 5.09433 6.09416 5.18526 6.05009L5.18527 6.05009C5.1855 6.04997 5.19496 6.04512 5.22384 6.03857C5.25599 6.03127 5.30879 6.02259 5.39598 6.01567C5.5837 6.00077 5.83395 6.00004 6.24532 6.00004H7.99998H8.49998C9.05227 6.00004 9.49998 5.55232 9.49998 5.00004C9.49998 4.6299 9.29888 4.30672 8.99998 4.13382V3.00004C8.99998 2.44775 8.55227 2.00004 7.99998 2.00004ZM17 4.00004C17.5523 4.00004 18 4.44775 18 5.00004V6.58587L19.2069 7.79299C19.5974 8.18354 19.5974 8.81671 19.2068 9.2072C18.8162 9.59769 18.1831 9.59764 17.7926 9.20709L16.2928 7.70709C16.1053 7.51955 16 7.26523 16 7.00004V5.00004C16 4.44775 16.4477 4.00004 17 4.00004Z" fill="currentColor"/>
</svg>
