<svg width="24" height="24" viewBox="0 0 24 24" fill="none" xmlns="http://www.w3.org/2000/svg">
<path fill-rule="evenodd" clip-rule="evenodd" d="M9 6C9.55229 6 10 5.55228 10 5V3H14V5C14 5.55228 14.4477 6 15 6H17V8.95597L12.2874 7.54217C12.0999 7.48594 11.9001 7.48594 11.7127 7.54217L7 8.95597V6H9ZM5 9.55597V5.5C5 4.67157 5.67158 4 6.5 4H8V2.5C8 1.67157 8.67158 1 9.5 1H14.5C15.3284 1 16 1.67157 16 2.5V4H17.5C18.3284 4 19 4.67157 19 5.5V9.55597L22.2874 10.5422C22.586 10.6318 22.8258 10.8556 22.9358 11.1474C23.0457 11.4391 23.0133 11.7655 22.8481 12.0299L22.8481 12.0299L22.848 12.03L22.848 12.03L22.8471 12.0314L22.8427 12.0385L22.8238 12.0691C22.8069 12.0967 22.7815 12.1383 22.7488 12.1924C22.6834 12.3008 22.5891 12.4592 22.4756 12.656C22.248 13.0504 21.9456 13.5948 21.6444 14.1972C21.3419 14.8022 21.0483 15.4505 20.8324 16.0551C20.6094 16.6795 20.5 17.1744 20.5 17.5C20.5 18.0523 20.0523 18.5 19.5 18.5C18.9477 18.5 18.5 18.0523 18.5 17.5C18.5 16.8256 18.7031 16.0705 18.9489 15.3824C19.2017 14.6745 19.5331 13.9478 19.8556 13.3028C20.0783 12.8574 20.3004 12.4437 20.4959 12.0928L12 9.54403L3.50413 12.0928C3.6996 12.4437 3.92174 12.8574 4.14443 13.3028C4.46692 13.9478 4.79831 14.6745 5.05112 15.3824C5.29686 16.0705 5.5 16.8256 5.5 17.5C5.5 18.0523 5.05229 18.5 4.5 18.5C3.94772 18.5 3.5 18.0523 3.5 17.5C3.5 17.1744 3.39065 16.6795 3.16764 16.0551C2.9517 15.4505 2.65808 14.8022 2.35558 14.1972C2.05438 13.5948 1.752 13.0504 1.52444 12.656C1.41092 12.4592 1.31663 12.3008 1.25124 12.1924C1.21856 12.1383 1.19313 12.0967 1.17618 12.0691L1.15727 12.0385L1.15288 12.0314L1.152 12.03L1.15199 12.03L1.15192 12.0299C0.986724 11.7655 0.954299 11.4391 1.06424 11.1474C1.17419 10.8556 1.41398 10.6318 1.71266 10.5422L5 9.55597ZM5.4653 19.4848C5.98554 19.2691 6.63467 19 7.5 19C8.38208 19 9.13122 19.2758 9.74172 19.5006C9.79703 19.521 9.85121 19.5409 9.90425 19.5602C10.5659 19.8008 11.1809 20 12 20C12.8191 20 13.4341 19.8008 14.0958 19.5602C14.1488 19.5409 14.203 19.521 14.2583 19.5006C14.8688 19.2758 15.6179 19 16.5 19C17.3653 19 18.0145 19.2691 18.5347 19.4848C18.6077 19.515 18.6782 19.5443 18.7464 19.5715C19.2917 19.7897 19.913 20 21 20C21.5523 20 22 20.4477 22 21C22 21.5523 21.5523 22 21 22C19.5871 22 18.7083 21.7103 18.0036 21.4285C17.915 21.393 17.8328 21.3596 17.7559 21.3284C17.229 21.1143 16.9479 21 16.5 21C15.9867 21 15.557 21.1565 14.8788 21.4035L14.7792 21.4398C14.0659 21.6992 13.1809 22 12 22C10.8191 22 9.93408 21.6992 9.22076 21.4398L9.12116 21.4035C8.44299 21.1565 8.01331 21 7.5 21C7.05215 21 6.77096 21.1143 6.24406 21.3284L6.24335 21.3287C6.16666 21.3599 6.08476 21.3931 5.99639 21.4285C5.29174 21.7103 4.41295 22 3 22C2.44772 22 2 21.5523 2 21C2 20.4477 2.44772 20 3 20C4.08705 20 4.70827 19.7897 5.25361 19.5715C5.3218 19.5443 5.39228 19.515 5.4653 19.4848Z" fill="currentColor"/>
</svg>
