<svg width="24" height="24" viewBox="0 0 24 24" fill="none" xmlns="http://www.w3.org/2000/svg">
<path fill-rule="evenodd" clip-rule="evenodd" d="M10.9562 2L11 2H13L13.0438 2C14.4068 1.99999 15.4908 1.99999 16.3654 2.07144C17.261 2.14462 18.0247 2.29768 18.7239 2.65396C19.8529 3.2292 20.7708 4.14708 21.346 5.27606C21.7023 5.9753 21.8554 6.73898 21.9286 7.63458C22 8.50914 22 9.59313 22 10.9561V10.9562V11V13.0001V13.0439V13.044C22 14.407 22 15.491 21.9286 16.3655C21.8554 17.2611 21.7023 18.0248 21.346 18.7241C20.7708 19.853 19.8529 20.7709 18.7239 21.3462C18.0247 21.7024 17.261 21.8555 16.3654 21.9287C15.4909 22.0001 14.4069 22.0001 13.0439 22.0001H13.0438H13H11H10.9562H10.9561C9.59313 22.0001 8.50914 22.0001 7.63458 21.9287C6.73898 21.8555 5.9753 21.7024 5.27606 21.3462C4.14708 20.7709 3.2292 19.853 2.65396 18.7241C2.29768 18.0248 2.14462 17.2611 2.07144 16.3655C1.99999 15.491 1.99999 14.4069 2 13.0439L2 13.0001V11L2 10.9562C1.99999 9.5932 1.99999 8.50917 2.07144 7.63458C2.14462 6.73898 2.29768 5.9753 2.65396 5.27606C3.2292 4.14708 4.14708 3.2292 5.27606 2.65396C5.9753 2.29768 6.73898 2.14462 7.63458 2.07144C8.50917 1.99999 9.5932 1.99999 10.9562 2ZM13.5812 6.68626C13.2199 6.4282 12.7318 6.43925 12.3825 6.71341C12.0333 6.98756 11.9066 7.45915 12.0715 7.87139L12.523 9H7.5C6.94771 9 6.5 9.44771 6.5 10C6.5 10.5523 6.94771 11 7.5 11H14H16.5C16.9347 11 17.3196 10.7192 17.4523 10.3052C17.585 9.8912 17.435 9.43894 17.0812 9.18626L13.5812 6.68626ZM7.5 13C7.06528 13 6.68037 13.2808 6.5477 13.6948C6.41504 14.1088 6.56502 14.5611 6.91876 14.8137L10.4188 17.3137C10.78 17.5718 11.2682 17.5607 11.6175 17.2866C11.9667 17.0124 12.0934 16.5408 11.9285 16.1286L11.477 15H16.5C17.0523 15 17.5 14.5523 17.5 14C17.5 13.4477 17.0523 13 16.5 13H10H7.5Z" fill="currentColor"/>
</svg>
