<svg width="24" height="24" viewBox="0 0 24 24" fill="none" xmlns="http://www.w3.org/2000/svg">
<path fill-rule="evenodd" clip-rule="evenodd" d="M3 8.99998C3.55228 8.99998 4 8.55227 4 7.99998V1.99997C4 1.44768 3.55228 0.999969 3 0.999969C2.44772 0.999969 2 1.44768 2 1.99997V7.99998C2 8.55227 2.44772 8.99998 3 8.99998ZM16.2026 4.06478C15.419 4.00076 14.4167 3.99998 13 3.99998H11C9.74273 3.99998 8.80928 4.00041 8.06098 4.0461C7.50972 4.07976 7.03555 3.66016 7.00189 3.1089C6.96823 2.55764 7.38783 2.08347 7.93909 2.04981C8.75533 1.99998 9.74926 1.99998 10.9692 1.99998H10.9693H11H13H13.0438C14.4068 1.99997 15.4909 1.99997 16.3655 2.07142C17.2611 2.1446 18.0247 2.29766 18.724 2.65394L18.2761 3.53288L18.724 2.65394C19.853 3.22918 20.7708 4.14707 21.3461 5.27604C21.7024 5.97529 21.8554 6.73896 21.9286 7.63456C22.0001 8.50912 22 9.59312 22 10.9561V10.9562V11V13.0001V13.0439V13.044C22 14.407 22.0001 15.491 21.9286 16.3655C21.8554 17.2611 21.7024 18.0248 21.3461 18.724C20.7708 19.853 19.853 20.7709 18.724 21.3461C18.0247 21.7024 17.2611 21.8555 16.3655 21.9287C15.4909 22.0001 14.4069 22.0001 13.0439 22.0001H13.0438H13H11H10.9563H10.9562C9.59317 22.0001 8.50918 22.0001 7.63462 21.9287C6.73902 21.8555 5.97534 21.7024 5.2761 21.3461C4.14712 20.7709 3.22924 19.853 2.654 18.724C2.32896 18.0861 2.17345 17.3957 2.09293 16.6007C2.03728 16.0513 2.4376 15.5607 2.98708 15.5051C3.53655 15.4494 4.0271 15.8497 4.08275 16.3992C4.14936 17.0568 4.2642 17.4789 4.43601 17.8161C4.81951 18.5687 5.43143 19.1806 6.18408 19.5641C6.55439 19.7528 7.02556 19.8722 7.79748 19.9353C8.58107 19.9993 9.58341 20.0001 11 20.0001H13C14.4167 20.0001 15.419 19.9993 16.2026 19.9353C16.9745 19.8722 17.4457 19.7528 17.816 19.5641C18.5686 19.1806 19.1806 18.5687 19.5641 17.8161C19.7527 17.4458 19.8722 16.9746 19.9352 16.2027C19.9993 15.4191 20 14.4167 20 13.0001V11C20 9.58335 19.9993 8.58102 19.9352 7.79742C19.8722 7.0255 19.7527 6.55433 19.5641 6.18402C19.1806 5.43137 18.5686 4.81945 17.816 4.43596C17.4457 4.24727 16.9745 4.12785 16.2026 4.06478ZM17.4523 10.3052C17.3197 10.7191 16.9348 11 16.5 11H14H7.50004C6.94776 11 6.50004 10.5523 6.50004 9.99999C6.50004 9.4477 6.94776 8.99999 7.50004 8.99999H12.523L12.0716 7.87138C11.9067 7.45914 12.0333 6.98755 12.3826 6.71339C12.7318 6.43924 13.22 6.42819 13.5813 6.68625L17.0813 9.18625C17.435 9.43892 17.585 9.89119 17.4523 10.3052ZM7.50004 13C7.06533 13 6.68041 13.2808 6.54775 13.6948C6.41508 14.1088 6.56506 14.561 6.9188 14.8137L10.4188 17.3137C10.7801 17.5718 11.2683 17.5607 11.6175 17.2866C11.9668 17.0124 12.0934 16.5408 11.9285 16.1286L11.4771 15H16.5C17.0523 15 17.5 14.5523 17.5 14C17.5 13.4477 17.0523 13 16.5 13H10H7.50004ZM2.5 13.5C1.94772 13.5 1.5 13.0523 1.5 12.5V11.5C1.5 10.9477 1.94772 10.5 2.5 10.5H3.5C4.05228 10.5 4.5 10.9477 4.5 11.5V12.5C4.5 13.0523 4.05228 13.5 3.5 13.5H2.5Z" fill="currentColor"/>
</svg>
