<svg width="24" height="24" viewBox="0 0 24 24" fill="none" xmlns="http://www.w3.org/2000/svg">
<path fill-rule="evenodd" clip-rule="evenodd" d="M6.16146 4H6.2H17.8H17.8385H17.8386C18.3657 3.99998 18.8205 3.99997 19.195 4.03057C19.5904 4.06287 19.9836 4.13419 20.362 4.32698C20.9265 4.6146 21.3854 5.07354 21.673 5.63803C21.8658 6.01641 21.9371 6.40963 21.9694 6.80497C22 7.17954 22 7.6343 22 8.16144V8.2V9V10C22 10.5523 21.5523 11 21 11H4V15.8C4 16.3766 4.00078 16.7488 4.02393 17.0322C4.04613 17.3038 4.0838 17.4045 4.109 17.454C4.20487 17.6422 4.35785 17.7951 4.54601 17.891C4.59546 17.9162 4.69618 17.9539 4.96784 17.9761C5.25118 17.9992 5.62345 18 6.2 18H10C10.5523 18 11 18.4477 11 19C11 19.5523 10.5523 20 10 20H6.2H6.16148H6.16136H6.16134C5.63424 20 5.17952 20 4.80497 19.9694C4.40963 19.9371 4.01641 19.8658 3.63803 19.673C3.07354 19.3854 2.6146 18.9265 2.32698 18.362C2.13419 17.9836 2.06287 17.5904 2.03057 17.195C1.99997 16.8205 1.99998 16.3657 2 15.8386V15.8385V15.8V10V9V8.2V8.16146V8.16142C1.99998 7.63429 1.99997 7.17954 2.03057 6.80497C2.06287 6.40963 2.13419 6.01641 2.32698 5.63803C2.6146 5.07354 3.07354 4.6146 3.63803 4.32698C4.01641 4.13419 4.40963 4.06287 4.80497 4.03057C5.17954 3.99997 5.63429 3.99998 6.16142 4H6.16146ZM4.96784 6.02393C4.69618 6.04613 4.59546 6.0838 4.54601 6.109C4.35785 6.20487 4.20487 6.35785 4.109 6.54601C4.0838 6.59546 4.04613 6.69618 4.02393 6.96784C4.00357 7.21698 4.00052 7.5349 4.00007 8H19.9999C19.9995 7.5349 19.9964 7.21698 19.9761 6.96784C19.9539 6.69618 19.9162 6.59546 19.891 6.54601C19.7951 6.35785 19.6422 6.20487 19.454 6.109C19.4045 6.0838 19.3038 6.04613 19.0322 6.02393C18.7488 6.00078 18.3766 6 17.8 6H6.2C5.62345 6 5.25118 6.00078 4.96784 6.02393ZM22.9523 16.3052C22.8196 16.7192 22.4347 17 22 17H19.5H14C13.4477 17 13 16.5523 13 16C13 15.4477 13.4477 15 14 15H18.023L17.5715 13.8714C17.4066 13.4592 17.5333 12.9876 17.8825 12.7134C18.2318 12.4393 18.7199 12.4282 19.0812 12.6863L22.5812 15.1863C22.935 15.4389 23.085 15.8912 22.9523 16.3052ZM14 18.5C13.5653 18.5 13.1804 18.7808 13.0477 19.1948C12.915 19.6088 13.065 20.0611 13.4188 20.3137L16.9188 22.8137C17.2801 23.0718 17.7682 23.0607 18.1175 22.7866C18.4667 22.5124 18.5934 22.0408 18.4285 21.6286L17.977 20.5H22C22.5523 20.5 23 20.0523 23 19.5C23 18.9477 22.5523 18.5 22 18.5H16.5H14Z" fill="currentColor"/>
</svg>
