<svg width="24" height="24" viewBox="0 0 24 24" fill="none" xmlns="http://www.w3.org/2000/svg">
<path fill-rule="evenodd" clip-rule="evenodd" d="M18.9996 10.4142L18.9996 13C18.9996 13.5523 19.4473 14 19.9996 14C20.5519 14 20.9996 13.5523 20.9996 13L20.9996 9.6L20.9996 9.56809C20.9996 9.31571 20.9996 9.06993 20.9826 8.86177C20.964 8.63318 20.9199 8.36345 20.7816 8.09202C20.5898 7.7157 20.2839 7.40974 19.9076 7.21799C19.6361 7.0797 19.3664 7.03563 19.1378 7.01695C18.9297 6.99994 18.6839 6.99997 18.4315 7L18.3996 7.00001L14.9996 7C14.4473 7 13.9996 7.44772 13.9996 8C13.9996 8.55229 14.4473 9 14.9996 9L17.5854 9L12.5 14.0855L8.70721 10.2932C8.31669 9.9027 7.68357 9.90271 7.29306 10.2932L2.29291 15.2931C1.90238 15.6836 1.90236 16.3167 2.29287 16.7073C2.68339 17.0978 3.31655 17.0978 3.70709 16.7073L8.00017 12.4145L11.793 16.2068C12.1835 16.5973 12.8166 16.5973 13.2072 16.2068L18.9996 10.4142Z" fill="currentColor"/>
</svg>
