<svg width="24" height="24" viewBox="0 0 24 24" fill="none" xmlns="http://www.w3.org/2000/svg">
<path fill-rule="evenodd" clip-rule="evenodd" d="M2.29287 7.29291C2.68339 6.90237 3.31655 6.90236 3.70709 7.29287L8.00017 11.5857L11.793 7.79334C12.1835 7.40285 12.8166 7.40287 13.2072 7.79339L18.9996 13.5859L18.9996 11.0002C18.9996 10.4479 19.4473 10.0002 19.9996 10.0002C20.5519 10.0002 20.9996 10.4479 20.9996 11.0002L20.9996 14.4002L20.9996 14.4321C20.9996 14.6845 20.9996 14.9303 20.9826 15.1384C20.964 15.367 20.9199 15.6367 20.7816 15.9082C20.5898 16.2845 20.2839 16.5904 19.9076 16.7822C19.6361 16.9205 19.3664 16.9646 19.1378 16.9832C18.9296 17.0002 18.6839 17.0002 18.4315 17.0002L18.3996 17.0002L14.9996 17.0002C14.4473 17.0002 13.9996 16.5525 13.9996 16.0002C13.9996 15.4479 14.4473 15.0002 14.9996 15.0002L17.5854 15.0002L12.5 9.91467L8.70721 13.707C8.31669 14.0975 7.68357 14.0975 7.29306 13.707L2.29291 8.70712C1.90238 8.31661 1.90236 7.68344 2.29287 7.29291Z" fill="currentColor"/>
</svg>
