<svg width="24" height="24" viewBox="0 0 24 24" fill="none" xmlns="http://www.w3.org/2000/svg">
<path fill-rule="evenodd" clip-rule="evenodd" d="M12 2L11.9299 2H11.9298C11.0677 1.99997 10.5584 1.99996 10.1179 2.04334C5.84486 2.4642 2.4642 5.84486 2.04334 10.1179C1.99996 10.5584 1.99997 11.0678 2 11.9299V11.9299L2 12.0001L2 12.0702V12.0702C1.99997 12.9324 1.99996 13.4418 2.04334 13.8823C2.4642 18.1553 5.84486 21.5359 10.1179 21.9568C10.5584 22.0002 11.0678 22.0002 11.9299 22.0001H12H12.0701C12.9322 22.0002 13.4416 22.0002 13.8822 21.9568C18.1552 21.5359 21.5358 18.1553 21.9567 13.8823C22.0001 13.4418 22 12.9323 22 12.0702V12.0001V11.93C22 11.0678 22.0001 10.5584 21.9567 10.1179C21.5358 5.84486 18.1552 2.4642 13.8822 2.04334C13.4416 1.99996 12.9323 1.99997 12.0702 2H12.0701L12 2ZM10.3139 4.03371C10.6438 4.00122 11.0475 4 12 4C12.9525 4 13.3562 4.00122 13.6861 4.03371C17.0096 4.36104 19.639 6.99045 19.9663 10.3139C19.9988 10.6438 20 11.0476 20 12.0001C20 12.9526 19.9988 13.3563 19.9663 13.6862C19.639 17.0097 17.0096 19.6391 13.6861 19.9664C13.3562 19.9989 12.9525 20.0001 12 20.0001C11.0475 20.0001 10.6438 19.9989 10.3139 19.9664C6.99045 19.6391 4.36104 17.0097 4.03371 13.6862C4.00122 13.3563 4 12.9526 4 12.0001C4 11.0476 4.00122 10.6438 4.03371 10.3139C4.36104 6.99045 6.99045 4.36104 10.3139 4.03371ZM12.9735 5.77126C12.8673 5.3194 12.4642 5 12 5C11.5359 5 11.1327 5.3194 11.0265 5.77126C10.4161 8.369 8.369 10.4161 5.77126 11.0265C5.3194 11.1327 5 11.5359 5 12C5 12.4642 5.3194 12.8673 5.77126 12.9735C8.369 13.5839 10.4161 15.631 11.0265 18.2287C11.1327 18.6806 11.5359 19 12 19C12.4642 19 12.8673 18.6806 12.9735 18.2287C13.5839 15.631 15.631 13.5839 18.2287 12.9735C18.6806 12.8673 19 12.4642 19 12C19 11.5359 18.6806 11.1327 18.2287 11.0265C15.631 10.4161 13.5839 8.369 12.9735 5.77126ZM12 15.3181C11.2042 13.9426 10.0575 12.7958 8.68192 12C10.0575 11.2042 11.2042 10.0575 12 8.68192C12.7958 10.0575 13.9426 11.2042 15.3181 12C13.9426 12.7958 12.7958 13.9426 12 15.3181Z" fill="currentColor"/>
</svg>
