<svg width="24" height="24" viewBox="0 0 24 24" fill="none" xmlns="http://www.w3.org/2000/svg">
<path fill-rule="evenodd" clip-rule="evenodd" d="M14.2 4.00003C15.0566 4.00003 15.6389 4.0008 16.0889 4.03757C16.5274 4.07339 16.7516 4.13831 16.908 4.218C17.2843 4.40975 17.5903 4.71571 17.782 5.09203C17.8617 5.24843 17.9266 5.47264 17.9624 5.91106C17.9992 6.36115 18 6.94345 18 7.80003V9.5C18 10.0523 18.4477 10.5 19 10.5C19.5523 10.5 20 10.0523 20 9.5V7.80003V7.75871C20 6.95374 20 6.28939 19.9558 5.74819C19.9099 5.18609 19.8113 4.66939 19.564 4.18405C19.1805 3.4314 18.5686 2.81947 17.8159 2.43598C17.3306 2.18869 16.8139 2.09013 16.2518 2.04421C15.7106 2 15.0463 2.00001 14.2413 2.00003H14.2413H14.2L7.79996 2.00008L7.75866 2.00008C6.95369 2.00008 6.28934 2.00007 5.74815 2.04429C5.18605 2.09022 4.66935 2.18879 4.18402 2.43608C3.43138 2.81957 2.81946 3.4315 2.43597 4.18414C2.18868 4.66948 2.09012 5.18618 2.04419 5.74827C1.99998 6.28946 1.99999 6.95381 2 7.75876V7.75878V7.80008V15.2002V15.2415V15.2416C1.99999 16.0465 1.99998 16.7109 2.04419 17.2521C2.09012 17.8142 2.18868 18.3309 2.43598 18.8162C2.81947 19.5689 3.43139 20.1808 4.18404 20.5643C4.66937 20.8116 5.18608 20.9101 5.74818 20.956C6.28937 21.0003 6.95372 21.0003 7.75868 21.0002H7.8H9.5C10.0523 21.0002 10.5 20.5525 10.5 20.0002C10.5 19.448 10.0523 19.0002 9.5 19.0002H7.8C6.94342 19.0002 6.36113 18.9995 5.91104 18.9627C5.47262 18.9269 5.24842 18.8619 5.09202 18.7823C4.7157 18.5905 4.40974 18.2845 4.21799 17.9082C4.1383 17.7518 4.07337 17.5276 4.03755 17.0892C4.00078 16.6391 4 16.0568 4 15.2002V7.80008C4 6.94351 4.00078 6.36122 4.03755 5.91113C4.07337 5.47272 4.1383 5.24852 4.21799 5.09212C4.40973 4.7158 4.71569 4.40984 5.09201 4.21809C5.24841 4.1384 5.47261 4.07347 5.91102 4.03765C6.36111 4.00087 6.9434 4.00009 7.79997 4.00008L14.2 4.00003ZM18 13.0001C18 12.4478 17.5524 12 17.0001 12C16.4478 12 16 12.4476 16 12.9999L15.9998 16L13 16C12.4477 16 12 16.4477 12 17C12 17.5523 12.4477 18 13 18L15.9998 18L16 21.0001C16 21.5523 16.4478 22 17.0001 22C17.5524 22 18 21.5522 18 20.9999L17.9998 18L21 18C21.5523 18 22 17.5523 22 17C22 16.4477 21.5523 16 21 16L17.9998 16L18 13.0001ZM6 7.00006C6 6.44777 6.44772 6.00006 7 6.00006H14C14.5523 6.00006 15 6.44777 15 7.00006C15 7.55234 14.5523 8.00006 14 8.00006H7C6.44772 8.00006 6 7.55234 6 7.00006ZM7 10C6.44772 10 6 10.4477 6 11C6 11.5523 6.44772 12 7 12H11C11.5523 12 12 11.5523 12 11C12 10.4477 11.5523 10 11 10H7Z" fill="currentColor"/>
</svg>
