<svg width="24" height="24" viewBox="0 0 24 24" fill="none" xmlns="http://www.w3.org/2000/svg">
<path fill-rule="evenodd" clip-rule="evenodd" d="M14.2 4.00003C15.0566 4.00003 15.6389 4.0008 16.0889 4.03757C16.5274 4.07339 16.7516 4.13831 16.908 4.218C17.2843 4.40975 17.5903 4.71571 17.782 5.09203C17.8617 5.24843 17.9266 5.47264 17.9624 5.91106C17.9992 6.36115 18 6.94345 18 7.80003V8.5C18 9.05228 18.4477 9.5 19 9.5C19.5523 9.5 20 9.05228 20 8.5V7.80003V7.75871C20 6.95374 20 6.28939 19.9558 5.74819C19.9099 5.18609 19.8113 4.66939 19.564 4.18405C19.1805 3.4314 18.5686 2.81947 17.8159 2.43598C17.3306 2.18869 16.8139 2.09013 16.2518 2.04421C15.7106 2 15.0463 2.00001 14.2413 2.00003H14.2413H14.2L7.79996 2.00008L7.75866 2.00008C6.95369 2.00008 6.28934 2.00007 5.74815 2.04429C5.18605 2.09022 4.66935 2.18879 4.18402 2.43608C3.43138 2.81957 2.81946 3.4315 2.43597 4.18414C2.18868 4.66948 2.09012 5.18618 2.04419 5.74827C1.99998 6.28946 1.99999 6.95381 2 7.75876V7.75878V7.80008V15.2002V15.2415V15.2416C1.99999 16.0465 1.99998 16.7109 2.04419 17.2521C2.09012 17.8142 2.18868 18.3309 2.43598 18.8162C2.81947 19.5689 3.43139 20.1808 4.18404 20.5643C4.66937 20.8116 5.18608 20.9101 5.74818 20.956C6.28937 21.0003 6.95372 21.0003 7.75868 21.0002H7.8H8C8.55229 21.0002 9 20.5525 9 20.0002C9 19.448 8.55229 19.0002 8 19.0002H7.8C6.94342 19.0002 6.36113 18.9995 5.91104 18.9627C5.47262 18.9269 5.24842 18.8619 5.09202 18.7823C4.7157 18.5905 4.40974 18.2845 4.21799 17.9082C4.1383 17.7518 4.07337 17.5276 4.03755 17.0892C4.00078 16.6391 4 16.0568 4 15.2002V7.80008C4 6.94351 4.00078 6.36122 4.03755 5.91113C4.07337 5.47272 4.1383 5.24852 4.21799 5.09212C4.40973 4.7158 4.71569 4.40984 5.09201 4.21809C5.24841 4.1384 5.47261 4.07347 5.91102 4.03765C6.36111 4.00087 6.9434 4.00009 7.79997 4.00008L14.2 4.00003ZM16.8067 10.4098C16.6184 10.1523 16.3185 10 15.9995 10C15.6804 10 15.3806 10.1523 15.1922 10.4098L15.0306 10.6309C14.254 11.693 13.9347 12.1234 13.5593 12.4805C13.2128 12.81 12.8281 13.097 12.4135 13.3352C11.9642 13.5934 11.4607 13.7767 10.2213 14.2185L9.93299 14.3213C9.63665 14.4269 9.40729 14.6658 9.31385 14.9662C9.22041 15.2666 9.27379 15.5935 9.45793 15.8485L9.52748 15.9449C10.3317 17.0588 10.656 17.5149 10.8853 18.0038C11.097 18.4551 11.2516 18.931 11.3456 19.4205C11.4475 19.9509 11.4532 20.5105 11.4573 21.8844L11.4577 22.0032C11.4587 22.3222 11.6118 22.6216 11.8699 22.8092C12.128 22.9967 12.4601 23.0498 12.7638 22.9521L12.8769 22.9158C14.1848 22.4952 14.7188 22.3277 15.2547 22.2606C15.7493 22.1988 16.2497 22.1988 16.7443 22.2606C17.2802 22.3277 17.8142 22.4952 19.1221 22.9158L19.2352 22.9521C19.5389 23.0498 19.871 22.9967 20.1291 22.8092C20.3872 22.6216 20.5404 22.3222 20.5413 22.0032L20.5417 21.8844C20.5458 20.5105 20.5515 19.9509 20.6534 19.4205C20.7474 18.931 20.902 18.4551 21.1137 18.0038C21.3431 17.5149 21.6674 17.0588 22.4715 15.9449L22.5411 15.8485C22.7252 15.5935 22.7786 15.2666 22.6852 14.9662C22.5917 14.6658 22.3624 14.4269 22.066 14.3213L21.7777 14.2185C20.5383 13.7767 20.0348 13.5934 19.5855 13.3352C19.1709 13.097 18.7862 12.81 18.4397 12.4805C18.0642 12.1234 17.7449 11.693 16.9684 10.6309L16.8067 10.4098ZM14.9376 13.9297C15.2961 13.5887 15.6103 13.2056 15.9995 12.6878C16.3886 13.2056 16.7028 13.5887 17.0613 13.9297C17.5234 14.3691 18.0363 14.7517 18.5891 15.0694C19.0332 15.3245 19.5071 15.5213 20.1467 15.7572C19.7801 16.283 19.5142 16.7043 19.303 17.1545C19.0208 17.7562 18.8146 18.3907 18.6893 19.0434C18.5971 19.5235 18.5641 20.0121 18.5512 20.6374C17.9526 20.4564 17.4777 20.3368 16.9926 20.2761C16.3331 20.1936 15.6659 20.1936 15.0065 20.2761C14.5214 20.3368 14.0465 20.4564 13.4478 20.6374C13.435 20.0121 13.4019 19.5235 13.3097 19.0434C13.1844 18.3907 12.9783 17.7562 12.696 17.1545C12.4848 16.7043 12.219 16.283 11.8523 15.7572C12.4919 15.5213 12.9658 15.3245 13.4098 15.0694C13.9627 14.7517 14.4756 14.3691 14.9376 13.9297ZM6 7C6 6.44771 6.44772 6 7 6H14C14.5523 6 15 6.44771 15 7C15 7.55228 14.5523 8 14 8H7C6.44772 8 6 7.55228 6 7ZM7 10C6.44772 10 6 10.4477 6 11C6 11.5523 6.44772 12 7 12H10C10.5523 12 11 11.5523 11 11C11 10.4477 10.5523 10 10 10H7Z" fill="currentColor"/>
</svg>
