<svg width="24" height="24" viewBox="0 0 24 24" fill="none" xmlns="http://www.w3.org/2000/svg">
<path fill-rule="evenodd" clip-rule="evenodd" d="M15.7234 2.03737C16.2021 2.07648 16.6571 2.16142 17.089 2.38146C17.7475 2.71702 18.283 3.25245 18.6185 3.91102C18.8386 4.34288 18.9235 4.79784 18.9626 5.27657C19 5.73441 19 6.29389 19 6.95971V6.95974V6.95977V6.9598V6.95982V7V11.3458C18.9305 11.251 18.8561 11.1495 18.7764 11.0405L18.6148 10.8194C18.2382 10.3043 17.6384 9.99988 17.0003 9.99988C16.3622 9.99988 15.7625 10.3043 15.3858 10.8194L15.2242 11.0405C14.4269 12.1309 14.1664 12.4748 13.871 12.7557C13.5822 13.0303 13.2616 13.2695 12.9161 13.468C12.5626 13.6711 12.1587 13.8229 10.8864 14.2764L10.5981 14.3791C10.0054 14.5904 9.54668 15.0682 9.3598 15.669C9.17292 16.2698 9.27967 16.9236 9.64796 17.4337L9.7175 17.5301C10.5431 18.6737 10.8003 19.0437 10.9808 19.4284C11.1572 19.8044 11.2861 20.201 11.3644 20.6089C11.3875 20.7292 11.4047 20.8522 11.4176 21.0002H7H6.95982H6.95979H6.95976H6.95974H6.95971C6.2939 21.0002 5.73442 21.0002 5.27658 20.9628C4.79785 20.9237 4.34289 20.8388 3.91104 20.6187C3.25247 20.2832 2.71704 19.7477 2.38148 19.0892C2.16144 18.6573 2.0765 18.2024 2.03738 17.7236C1.99998 17.2658 1.99999 16.7063 2 16.0405V16.0404V16.0404V16.0404V16.0002V7.00006V6.9599V6.95987V6.95984V6.95982C1.99999 6.29399 1.99998 5.7345 2.03738 5.27665C2.0765 4.79793 2.16144 4.34297 2.38148 3.91111C2.71703 3.25255 3.25246 2.71712 3.91102 2.38156C4.34287 2.16152 4.79783 2.07657 5.27655 2.03746C5.73442 2.00004 6.29394 2.00005 6.95981 2.00006L6.99996 2.00006L14 2L14.0401 2H14.0402H14.0402H14.0402C14.7061 1.99998 15.2656 1.99997 15.7234 2.03737ZM6 5.00012C5.44772 5.00012 5 5.44784 5 6.00012C5 6.55241 5.44772 7.00012 6 7.00012H14C14.5523 7.00012 15 6.55241 15 6.00012C15 5.44784 14.5523 5.00012 14 5.00012H6ZM6 9C5.44772 9 5 9.44772 5 10C5 10.5523 5.44772 11 6 11H10C10.5523 11 11 10.5523 11 10C11 9.44772 10.5523 9 10 9H6ZM17.1619 12.221L17.0003 11.9999L16.8386 12.221C16.0827 13.2548 15.7048 13.7717 15.2493 14.2049C14.845 14.5894 14.3962 14.9242 13.9125 15.2022C13.3674 15.5153 12.7642 15.7303 11.5579 16.1603L11.5579 16.1603L11.2695 16.2631L11.3391 16.3594C12.1218 17.4436 12.5132 17.9858 12.7915 18.579C13.0384 19.1055 13.2188 19.6607 13.3285 20.2318C13.4521 20.8753 13.4541 21.5439 13.4581 22.8812L13.4585 23L13.5716 22.9636C14.8447 22.5542 15.4812 22.3496 16.1314 22.2682C16.7084 22.196 17.2922 22.196 17.8692 22.2682C18.5194 22.3496 19.156 22.5542 20.429 22.9636L20.5421 23L20.5425 22.8812C20.5465 21.5439 20.5486 20.8753 20.6721 20.2318C20.7818 19.6607 20.9622 19.1055 21.2092 18.579C21.4874 17.9858 21.8788 17.4436 22.6616 16.3594L22.7311 16.2631L22.4427 16.1603C21.2364 15.7303 20.6332 15.5153 20.0881 15.2022C19.6044 14.9242 19.1556 14.5894 18.7513 14.2049C18.2958 13.7717 17.9179 13.2548 17.1619 12.221Z" fill="currentColor"/>
</svg>
