<svg width="24" height="24" viewBox="0 0 24 24" fill="none" xmlns="http://www.w3.org/2000/svg">
<path fill-rule="evenodd" clip-rule="evenodd" d="M7.45191 4.5987C8.29425 4.2123 9.21541 4 10.1818 4H11.3195C8.71734 5.51783 7 8.58973 7 12C7 15.4103 8.71734 18.4822 11.3195 20H10.1818C9.21541 20 8.29425 19.7877 7.45191 19.4013C4.87492 18.2192 3 15.3806 3 12C3 8.61938 4.87492 5.78083 7.45191 4.5987ZM13 2C18.4419 2 22.8686 6.34698 22.9971 11.758C22.999 11.8384 23 11.9191 23 12C23 12.0647 22.9994 12.1293 22.9982 12.1937C22.8949 17.6271 18.4581 22 13 22H10.1818C8.91798 22 7.71311 21.7215 6.61802 21.2192C3.28157 19.6886 1 16.1072 1 12C1 7.89282 3.28157 4.31135 6.61802 2.78084C7.71311 2.27849 8.91798 2 10.1818 2H13ZM15 5C17.0559 5 18.9521 6.24597 20.0418 8.20024C20.653 9.33059 21 10.6248 21 12C21 13.3752 20.653 14.6694 20.0418 15.7998C18.9521 17.754 17.0559 19 15 19C11.8075 19 9 15.9956 9 12C9 8.00443 11.8075 5 15 5ZM14 12C14 11.3415 14.1798 10.7905 14.4178 10.4334C14.6606 10.0693 14.8861 10 15 10C15.0627 10 15.1364 10.0166 15.2255 10.0695C15.5588 10.2676 16 10.9459 16 12C16 13.0541 15.5588 13.7324 15.2255 13.9305C15.1364 13.9834 15.0627 14 15 14C14.8861 14 14.6606 13.9307 14.4178 13.5666C14.1798 13.2095 14 12.6585 14 12ZM15 8C14.0093 8 13.2349 8.6023 12.7537 9.32398C12.268 10.0526 12 11.0017 12 12C12 12.9983 12.268 13.9474 12.7537 14.676C13.2349 15.3977 14.0093 16 15 16C15.4573 16 15.8805 15.8677 16.2473 15.6498C17.3943 14.9681 18 13.4796 18 12C18 10.5204 17.3943 9.03194 16.2473 8.35024C15.8805 8.13229 15.4573 8 15 8Z" fill="currentColor"/>
</svg>
