<svg width="24" height="24" viewBox="0 0 24 24" fill="none" xmlns="http://www.w3.org/2000/svg">
<path fill-rule="evenodd" clip-rule="evenodd" d="M14.7928 6.20709C15.1834 6.59762 15.8165 6.59762 16.207 6.20709C16.5976 5.81657 16.5976 5.1834 16.207 4.79288L13.2727 1.85856L13.2564 1.8422C13.1722 1.75794 13.0716 1.65731 12.9758 1.57593C12.8647 1.48164 12.6961 1.35609 12.4635 1.28051C12.1622 1.18262 11.8377 1.18262 11.5364 1.28051C11.3038 1.3561 11.1352 1.48164 11.0241 1.57594C10.9283 1.6573 10.8277 1.75791 10.7435 1.84217L10.7435 1.84219L10.7271 1.85856L7.79283 4.79288C7.40231 5.1834 7.40231 5.81657 7.79283 6.20709C8.18336 6.59762 8.81652 6.59762 9.20705 6.20709L10.9999 4.4142V9.99998C10.9999 10.5523 11.4477 11 11.9999 11C12.5522 11 12.9999 10.5523 12.9999 9.99998V4.4142L14.7928 6.20709ZM6.42707 2.91686C6.63408 3.42888 6.38683 4.01177 5.87481 4.21879C4.9494 4.59294 4.25711 5.41179 4.05762 6.41471C4.00482 6.68015 3.99998 7.02274 3.99998 7.99998V9.49731L3.99998 9.49992V11.8C3.99998 12.3765 4.00076 12.7488 4.02391 13.0321C4.0461 13.3038 4.08378 13.4045 4.10897 13.454C4.20485 13.6421 4.35783 13.7951 4.54599 13.891C4.59543 13.9162 4.69615 13.9539 4.96782 13.9761C5.25115 13.9992 5.62343 14 6.19998 14H7.19998L7.26144 13.9999C7.48831 13.9991 7.77384 13.9982 8.04921 14.0769C8.28766 14.145 8.51137 14.2568 8.70893 14.4067C8.93707 14.5798 9.10766 14.8088 9.24321 14.9907L9.27998 15.04L9.81998 15.76C9.91411 15.8855 9.96192 15.9487 9.99885 15.9928L10.0018 15.9963L10.0064 15.9966C10.0638 15.9997 10.1431 16 10.3 16H13.7C13.8569 16 13.9361 15.9997 13.9936 15.9966L13.9982 15.9963L14.0011 15.9928C14.038 15.9487 14.0858 15.8855 14.18 15.76L14.72 15.04L14.7568 14.9907C14.8923 14.8088 15.0629 14.5798 15.291 14.4067C15.4886 14.2568 15.7123 14.145 15.9508 14.0769C16.2261 13.9982 16.5116 13.9991 16.7385 13.9999L16.8 14H17.8C18.3765 14 18.7488 13.9992 19.0321 13.9761C19.3038 13.9539 19.4045 13.9162 19.454 13.891C19.6421 13.7951 19.7951 13.6421 19.891 13.454C19.9162 13.4045 19.9539 13.3038 19.9761 13.0321C19.9984 12.7588 19.9999 12.4026 20 11.86V7.99998C20 7.02274 19.9951 6.68015 19.9423 6.41471C19.7428 5.41179 19.0506 4.59294 18.1251 4.21879C17.6131 4.01177 17.3659 3.42888 17.5729 2.91686C17.7799 2.40484 18.3628 2.15759 18.8748 2.3646C20.4171 2.98818 21.5713 4.35225 21.9039 6.02453C22.0003 6.50933 22.0002 7.06661 22 7.8842V7.88424L22 7.99998V9.49713L22 9.49992V11.8V11.8385L22 11.9359V14.6001V14.6429V14.643C22 15.7268 22 16.6009 21.9422 17.3087C21.8826 18.0376 21.7568 18.6778 21.455 19.2701C20.9756 20.2109 20.2107 20.9758 19.2699 21.4551C18.6776 21.7569 18.0374 21.8827 17.3086 21.9423C16.6007 22.0001 15.7266 22.0001 14.6429 22.0001H14.6428H14.6H9.39998H9.35714H9.35704C8.27331 22.0001 7.3992 22.0001 6.69135 21.9423C5.9625 21.8827 5.32231 21.7569 4.73002 21.4551C3.78921 20.9758 3.02431 20.2109 2.54494 19.2701C2.24316 18.6778 2.11734 18.0376 2.05779 17.3087C1.99996 16.6008 1.99997 15.7267 1.99998 14.6429L1.99998 14.6001V7.99998L1.99996 7.88422C1.99975 7.06662 1.99962 6.50933 2.09605 6.02453C2.42869 4.35225 3.58281 2.98818 5.12515 2.3646C5.63717 2.15759 6.22006 2.40484 6.42707 2.91686ZM4.05115 17.1459C4.02117 16.7788 4.00875 16.3497 4.0036 15.8229C4.26705 15.9073 4.53551 15.9474 4.80495 15.9694C5.17952 16 5.63429 16 6.16144 16L6.19998 16H7.19998C7.35687 16 7.43611 16.0003 7.49358 16.0034L7.49816 16.0036L7.50111 16.0071C7.53804 16.0513 7.58584 16.1145 7.67998 16.24L8.21998 16.96L8.25675 17.0092C8.3923 17.1912 8.56289 17.4201 8.79103 17.5932C8.98858 17.7431 9.2123 17.855 9.45075 17.9231C9.72612 18.0017 10.0116 18.0008 10.2385 18.0001L10.3 18H13.7L13.7614 18.0001C13.9883 18.0008 14.2738 18.0017 14.5492 17.9231C14.7877 17.855 15.0114 17.7431 15.2089 17.5932C15.4371 17.4201 15.6077 17.1912 15.7432 17.0092L15.78 16.96L16.32 16.24C16.4141 16.1145 16.4619 16.0513 16.4988 16.0071L16.5018 16.0036L16.5064 16.0034C16.5638 16.0003 16.6431 16 16.8 16H17.8L17.8385 16C18.3657 16 18.8204 16 19.195 15.9694C19.4645 15.9474 19.7329 15.9073 19.9963 15.8229C19.9912 16.3497 19.9788 16.7788 19.9488 17.1459C19.8994 17.751 19.8072 18.0987 19.673 18.3621C19.3854 18.9266 18.9264 19.3855 18.3619 19.6731C18.0986 19.8073 17.7509 19.8995 17.1457 19.9489C16.5289 19.9993 15.7366 20.0001 14.6 20.0001H9.39998C8.26337 20.0001 7.47106 19.9993 6.85422 19.9489C6.24905 19.8995 5.90136 19.8073 5.638 19.6731C5.07352 19.3855 4.61458 18.9266 4.32696 18.3621C4.19277 18.0987 4.1006 17.751 4.05115 17.1459Z" fill="currentColor"/>
</svg>
