<svg width="40" height="60" viewBox="0 0 40 60" fill="none" xmlns="http://www.w3.org/2000/svg">
<path fill-rule="evenodd" clip-rule="evenodd" d="M11.1139 0H28.8861C35.0127 0 40 5.28006 40 11.6189C40 15.3246 38.2937 18.6719 35.6507 20.8088C38.2937 22.9484 40 26.293 40 30.0014C40 36.3375 35.0127 41.6176 28.8861 41.6176C26.3899 41.6176 24.0836 40.7435 22.2279 39.2767V48.3811C22.2279 54.7199 17.243 60 11.1139 60C4.98734 60 0 54.7199 0 48.3811C0 44.6754 1.7063 41.3308 4.34934 39.1912C1.7063 37.0516 0 33.7071 0 30.0014C0 26.293 1.7063 22.9484 4.34934 20.8088C1.7063 18.6719 0 15.3246 0 11.6189C0 5.28006 4.98734 0 11.1139 0ZM17.7721 41.6176H11.1139C7.49368 41.6176 4.45569 44.6368 4.45569 48.3811C4.45569 52.1281 7.49368 55.1446 11.1139 55.1446C14.7367 55.1446 17.7721 52.1281 17.7721 48.3811V41.6176ZM22.2279 30.0014C22.2279 26.2544 25.2633 23.2352 28.8861 23.2352C32.5063 23.2352 35.5443 26.2544 35.5443 30.0014C35.5443 33.7457 32.5063 36.7648 28.8861 36.7648C25.2633 36.7648 22.2279 33.7457 22.2279 30.0014ZM11.0304 23.2379C7.44556 23.2821 4.45569 26.2847 4.45569 30.0014C4.45569 33.7457 7.49368 36.7648 11.1139 36.7648H17.7721V23.2352H11.1139L11.0304 23.2379ZM17.7721 18.3824V4.85544H11.1139C7.49368 4.85544 4.45569 7.87186 4.45569 11.6189C4.45569 15.366 7.49368 18.3824 11.1139 18.3824H17.7721ZM22.2279 18.3824H28.8861C32.5063 18.3824 35.5443 15.366 35.5443 11.6189C35.5443 7.87186 32.5063 4.85544 28.8861 4.85544H22.2279V18.3824Z" fill="black"/>
</svg>
