<svg width="60" height="60" viewBox="0 0 60 60" fill="none" xmlns="http://www.w3.org/2000/svg">
<path d="M0 0V60H60V0H0ZM31.3152 51.3267C30.4314 53.1231 28.7423 54.3041 26.7868 54.8735C23.7807 55.5637 20.9068 55.1706 18.7673 53.8861C17.3351 53.0081 16.2174 51.6564 15.4601 50.0997C16.9824 49.1699 18.5008 48.2343 20.023 47.3044C20.0633 47.3217 20.1821 47.5383 20.3432 47.8182C20.9241 48.7941 21.4264 49.4843 22.4137 49.9674C23.3838 50.2972 25.51 50.51 26.3324 48.8037C26.8347 47.9371 26.6737 45.092 26.6737 42.0073C26.6737 37.1587 26.6967 32.3907 26.6967 27.4827H32.3083C32.3083 32.6361 32.337 37.8029 32.3083 42.9486C32.3198 46.1024 32.5939 48.9705 31.3152 51.3267ZM54.5974 49.7412C52.6476 56.4149 41.7696 56.6315 37.4252 52.222C36.5069 51.1848 35.9317 50.6423 35.3834 49.444C37.6936 48.1154 37.6936 48.1154 39.9406 46.8156C41.1618 48.6925 42.291 49.7239 44.3213 50.1457C47.0763 50.4812 49.8485 49.536 49.2274 46.6104C48.589 44.2197 43.587 43.6388 40.1821 41.0832C36.7255 38.7615 35.9164 33.1212 38.7558 29.8984C39.7028 28.7059 41.3171 27.8163 43.01 27.3888L44.7776 27.1607C48.171 27.0916 50.2933 27.987 51.8501 29.7278C52.2834 30.1668 52.6361 30.6403 53.2995 31.6679C51.4916 32.8202 51.4973 32.8087 48.9072 34.4862C48.3531 33.2937 47.4367 32.546 46.4666 32.222C44.9617 31.7657 43.0617 32.2623 42.6687 33.8535C42.5326 34.3443 42.5613 34.8006 42.778 35.6097C43.3877 37.0015 45.4352 37.6054 47.2719 38.449C52.5594 40.5943 54.3443 42.8911 54.7834 45.6288C55.2051 47.985 54.6798 49.513 54.6012 49.7412H54.5974Z" fill="black"/>
</svg>
